<svg xmlns="http://www.w3.org/2000/svg" viewBox="0 0 658.9 300.18"><defs><style>.cls-1,.cls-4{fill:#fff;}.cls-2,.cls-3{fill:#509ad4;}.cls-2{fill-rule:evenodd;}.cls-4{opacity:0.4;}</style></defs><g id="Layer_2" data-name="Layer 2"><g id="Layer_1-2" data-name="Layer 1"><path class="cls-1" d="M348.34,46.25l-33.76,43.6a6.28,6.28,0,0,1-1.91,1.68,6,6,0,0,1-3.06.71,5.91,5.91,0,0,1-3.05-.71,6.17,6.17,0,0,1-1.91-1.68L271.07,46.34V88.52q0,3.72-4.87,3.72-4.69,0-4.7-3.72V34.11q0-4.07,4.79-4.07a6.58,6.58,0,0,1,3.27.71,7.54,7.54,0,0,1,2.22,2l37.83,49.17,38-49.08a8.49,8.49,0,0,1,2.17-2A6,6,0,0,1,353,30q4.88,0,4.87,4.07V88.52q0,3.72-4.78,3.72t-4.78-3.72Z"/><path class="cls-1" d="M409.92,33.76q0-3.72,5-3.72,4.61,0,4.61,3.72V88.52q0,3.72-4.88,3.72-4.69,0-4.69-3.72Z"/><path class="cls-1" d="M476.46,30a5.84,5.84,0,0,1,2.48.49A9.7,9.7,0,0,1,481.16,32l53.42,47.14V33.67q0-3.63,4.79-3.63t4.78,3.63V88.52q0,3.72-5,3.72a5.46,5.46,0,0,1-2.52-.53,12.1,12.1,0,0,1-2.17-1.51L481.07,43.06V88.52q0,3.72-4.88,3.72-4.69,0-4.69-3.72V33.85Q471.5,30,476.46,30Z"/><path class="cls-1" d="M620.71,37.75H596.52q-4.42,0-4.43-3.64t4.43-3.63h57.86q4.51,0,4.52,3.55,0,3.72-4.52,3.72h-24.1V88.52q0,3.72-4.7,3.72-4.87,0-4.87-3.72Z"/><path class="cls-1" d="M326.8,184q0,14.09-26.93,14.09h-36q-4.51,0-4.52-3.64t4.52-3.63h36q17.28,0,17.28-7.35v-6.3q0-7.17-16.4-7.17H284q-24.19,0-24.19-13.12v-6.47q0-13.63,24.81-13.64h9.92q4.43,0,4.43,3.63t-4.43,3.64h-9.83q-15.33,0-15.33,6.73v5.49q0,6.57,14.53,6.56H300q26.76,0,26.76,14Z"/><path class="cls-1" d="M362.07,144.08H337.88c-3,0-4.43-1.21-4.43-3.64s1.47-3.63,4.43-3.63h57.86q4.51,0,4.52,3.54c0,2.48-1.51,3.73-4.52,3.73h-24.1v50.77q0,3.72-4.7,3.72-4.87,0-4.87-3.72Z"/><path class="cls-1" d="M470.08,181.73H425.33L416.21,196a5.26,5.26,0,0,1-4.61,2.57,6,6,0,0,1-3.54-.93,3.08,3.08,0,0,1-1.33-2.7,4.33,4.33,0,0,1,.17-1.29,5.92,5.92,0,0,1,.8-1.46l35.09-53.43a4.4,4.4,0,0,1,2.08-1.77,8.48,8.48,0,0,1,2.79-.62,5.27,5.27,0,0,1,4.7,2.39l35.18,53.34a5.65,5.65,0,0,1,.93,1.51,4.08,4.08,0,0,1,.22,1.33,3.1,3.1,0,0,1-1.33,2.7,6.09,6.09,0,0,1-3.55.93A5.16,5.16,0,0,1,479.3,196Zm-40.32-6.82h36l-18.08-28Z"/><path class="cls-1" d="M523.69,144.08H499.5c-3,0-4.43-1.21-4.43-3.64s1.47-3.63,4.43-3.63h57.86q4.51,0,4.52,3.54c0,2.48-1.51,3.73-4.52,3.73h-24.1v50.77q0,3.72-4.7,3.72-4.87,0-4.87-3.72Z"/><path class="cls-1" d="M615.4,198.13q-26,0-26-17V153.56q0-16.76,25.52-16.75h12.67c3,0,4.43,1.21,4.43,3.63s-1.47,3.64-4.43,3.64H615.13q-16.12,0-16.13,9.65v10h52.81q4.26,0,4.26,3.45t-4.26,3.46H599v10.19q0,10,16.84,10h36c3,0,4.52,1.21,4.52,3.63s-1.5,3.64-4.52,3.64Z"/><path class="cls-1" d="M273,274.09q-15.14,0-15.14-10.12V240.25c0-1.44.92-2.17,2.74-2.17s2.84.73,2.84,2.17v23.56q0,6,9.82,6h21.38c1.72,0,2.59.71,2.59,2.12s-.87,2.12-2.59,2.12Z"/><path class="cls-1" d="M350.36,264.53H324.27L319,272.85a3,3,0,0,1-2.68,1.5,3.57,3.57,0,0,1-2.07-.54,1.81,1.81,0,0,1-.77-1.58,2.57,2.57,0,0,1,.1-.75,3.32,3.32,0,0,1,.46-.85l20.46-31.15a2.56,2.56,0,0,1,1.21-1,5.11,5.11,0,0,1,1.63-.37,3.08,3.08,0,0,1,2.74,1.4l20.51,31.1a3.47,3.47,0,0,1,.54.88,2.19,2.19,0,0,1,.13.77,1.82,1.82,0,0,1-.78,1.58,3.52,3.52,0,0,1-2.06.54,3,3,0,0,1-2.64-1.5Zm-23.5-4h21l-10.54-16.33Z"/><path class="cls-1" d="M420.77,266.24q0,7.85-13.28,7.85H380.94c-1.65,0-2.48-.67-2.48-2V240.36c0-1.35.83-2,2.48-2h25.73q13.53,0,13.53,8.53v2.94q0,4-4.29,6.15c3.24,1.44,4.86,3.67,4.86,6.66ZM414.67,247q0-4.44-7.95-4.44H384.45c-.27,0-.41.12-.41.36V254.1h23.09q7.55,0,7.54-4.19Zm.52,15.4q0-4.35-7.9-4.34H384v11.41c0,.24.14.36.41.36h22.84q7.9,0,7.9-4.08Z"/><path class="cls-1" d="M477.54,265.88q0,8.21-15.7,8.21h-21c-1.75,0-2.63-.71-2.63-2.12s.88-2.12,2.63-2.12h21q10.07,0,10.07-4.28V261.9q0-4.18-9.56-4.19h-9.76q-14.1,0-14.1-7.64V246.3q0-8,14.46-8h5.79c1.72,0,2.58.71,2.58,2.12s-.86,2.12-2.58,2.12H453q-8.92,0-8.93,3.92v3.21q0,3.82,8.47,3.82h9.4q15.6,0,15.6,8.16Z"/><path class="cls-2" d="M170.08.65c-1.19.33-11.46,3.4-22.82,6.82L126.6,13.69l33.59.12c18.47.07,33.71,0,33.86-.15.58-.59-2.57-5.57-5-7.82a20.09,20.09,0,0,0-19-5.19"/><path class="cls-3" d="M207.54,201.92C148.63,119.31,144.38,100.39,142.83,97s-1-30.34-1-30.34h8.81V56.38h-42v10.3h8.81s.58,27-1,30.34-5.78,22.29-64.7,104.9c-4.44,11.61,0,16.29,0,16.29L76.77,239H182.62l24.92-20.8S212,213.53,207.54,201.92Zm-8.21,11.9-18.12,15.52h-103L60.05,213.82v-5.11l6.84-9.56,49-70.5,10.83-16.74h5.57l11.3,16.74,48.95,70.5,6.83,9.56Z"/><path class="cls-3" d="M167.66,181.62c-5.22-2.63-10.44-1.06-15.7,2.88-16.32,12.25-24.91,11.3-24.91,11.3s-17.21-9.14-24.89-12.9-11.09-.51-11.09-.51L73,207.47v4.43l11.59,9.2h91.08l10.73-9.2v-4.43S172.88,184.25,167.66,181.62Z"/><path class="cls-4" d="M167.66,181.62c-5.22-2.63-10.44-1.06-15.7,2.88-16.32,12.25-24.91,11.3-24.91,11.3a32.83,32.83,0,0,0,12.5,4.77c6.68.85,12.7.92,17.93-.4C171.52,197.2,172.88,184.25,167.66,181.62Z"/><path class="cls-2" d="M124.43,145.06a4.42,4.42,0,1,0,7.13,1.19c-1.57-3-4.88-3.58-7.13-1.19"/><path class="cls-2" d="M134.33,158.28c-10.57,6.34-6.07,22.39,6.28,22.39A12.08,12.08,0,0,0,150.83,162a12.45,12.45,0,0,0-16.5-3.67"/><path class="cls-2" d="M109.64,159.74c-1.7.69-2.77,3.86-2,6,1.19,3.43,4.34,4.27,7.29,1.94,4.31-3.38-.11-10-5.28-8"/><path class="cls-2" d="M17.29,46.55C5.26,50.46,0,56.69,0,67.12c0,2.49,19.32,69.14,23,79.42.26.72.45-19.09.47-50.33,0-28.35-.13-51.52-.32-51.5s-2.85.85-5.89,1.84"/><path class="cls-2" d="M65.34,287c0,6,12.32,14,20.42,13.17,2.11-.2,43-12,46.6-13.5.27-.11-14.71-.21-33.27-.23-26.7,0-33.75.09-33.75.56"/></g></g></svg>