<svg width="500" height="62" viewBox="0 0 500 62" fill="none" xmlns="http://www.w3.org/2000/svg">
<g clip-path="url(#clip0_493_4308)">
<path d="M30.7998 14.9363H36.8929C37.1035 14.9366 37.3054 15.0206 37.4542 15.1697C37.5286 15.2429 37.5876 15.3303 37.6277 15.4268C37.6678 15.5232 37.6882 15.6266 37.6876 15.731V60.5147C37.6885 60.6193 37.6685 60.723 37.6288 60.8198C37.5892 60.9166 37.5307 61.0046 37.4567 61.0785C37.3827 61.1525 37.2948 61.211 37.198 61.2507C37.1012 61.2903 36.9975 61.3103 36.8929 61.3095H30.7998C30.6947 61.312 30.5902 61.2933 30.4926 61.2542C30.395 61.2152 30.3063 61.1568 30.232 61.0825C30.1577 61.0081 30.0992 60.9195 30.0602 60.8219C30.0212 60.7243 30.0024 60.6198 30.005 60.5147V28.9138C30.0098 28.8571 29.9956 28.8004 29.9648 28.7525C29.934 28.7046 29.8883 28.6682 29.8347 28.6489C29.7275 28.6048 29.6455 28.6489 29.6076 28.7814L21.3258 41.4974C21.2335 41.6613 21.0986 41.797 20.9354 41.8903C20.7721 41.9836 20.5866 42.0309 20.3986 42.0273H17.3521C17.1598 42.0356 16.9691 41.9905 16.8009 41.897C16.6328 41.8034 16.4939 41.6651 16.3996 41.4974L8.07995 28.8445C8.0358 28.712 7.96011 28.6678 7.84657 28.712C7.79415 28.7323 7.74979 28.7692 7.7202 28.817C7.69061 28.8648 7.6774 28.9209 7.68257 28.9769V60.5147C7.68341 60.6193 7.66343 60.723 7.62379 60.8198C7.58415 60.9166 7.52564 61.0046 7.45167 61.0785C7.3777 61.1525 7.28975 61.211 7.19295 61.2507C7.09615 61.2903 6.99242 61.3103 6.88782 61.3095H0.794723C0.69061 61.3119 0.587096 61.293 0.490553 61.254C0.39401 61.2149 0.30648 61.1565 0.233351 61.0824C0.157277 61.0091 0.097253 60.9208 0.0570803 60.823C0.0169076 60.7253 -0.00253912 60.6203 -2.86321e-05 60.5147V15.731C-0.00204526 15.6264 0.017653 15.5225 0.0578223 15.4259C0.0979915 15.3293 0.157759 15.242 0.233351 15.1697C0.306167 15.0947 0.393497 15.0353 0.490013 14.9952C0.586529 14.9551 0.690207 14.935 0.794723 14.9363H6.88782C7.07582 14.9326 7.26131 14.9799 7.42457 15.0732C7.58783 15.1665 7.72276 15.3023 7.81503 15.4661L18.6073 31.8279C18.6405 31.8664 18.681 31.8979 18.7265 31.9207C18.7719 31.9434 18.8215 31.9569 18.8722 31.9604C18.9152 31.9611 18.9575 31.9489 18.9935 31.9253C19.0295 31.9016 19.0576 31.8677 19.074 31.8279L29.8726 15.4661C29.9648 15.3023 30.0998 15.1665 30.263 15.0732C30.4263 14.9799 30.6118 14.9326 30.7998 14.9363Z" fill="white"/>
<path d="M46.2533 21.4961C45.8136 21.0527 45.4694 20.524 45.2416 19.9426C45.0138 19.3612 44.9073 18.7394 44.9287 18.1153C44.9055 17.4833 45.01 16.8531 45.2359 16.2624C45.4618 15.6717 45.8044 15.1326 46.2434 14.6773C46.6823 14.222 47.2085 13.8598 47.7906 13.6125C48.3726 13.3651 48.9985 13.2376 49.631 13.2376C50.2634 13.2376 50.8893 13.3651 51.4714 13.6125C52.0534 13.8598 52.5796 14.222 53.0186 14.6773C53.4575 15.1326 53.8001 15.6717 54.026 16.2624C54.2519 16.8531 54.3564 17.4833 54.3333 18.1153C54.3206 19.0456 54.0365 19.952 53.5157 20.7231C52.995 21.4941 52.2603 22.0962 51.4019 22.4554C50.5436 22.8145 49.5991 22.915 48.6844 22.7446C47.7697 22.5742 46.9247 22.1403 46.2533 21.4961ZM45.8874 61.0698C45.8134 60.9952 45.7551 60.9066 45.7161 60.809C45.6771 60.7115 45.6582 60.6071 45.6604 60.5021V28.1822C45.6586 28.0781 45.6779 27.9748 45.7169 27.8784C45.7559 27.782 45.8139 27.6944 45.8874 27.6208C45.9619 27.5462 46.0504 27.4871 46.1478 27.4471C46.2453 27.407 46.3497 27.3867 46.4551 27.3874H52.5482C52.759 27.3874 52.9611 27.4711 53.1102 27.6202C53.2592 27.7692 53.343 27.9714 53.343 28.1822V60.5021C53.344 60.6075 53.3239 60.7121 53.2838 60.8096C53.2437 60.9071 53.1845 60.9955 53.1096 61.0698C53.036 61.1433 52.9484 61.2013 52.852 61.2403C52.7555 61.2793 52.6522 61.2985 52.5482 61.2968H46.4551C46.3501 61.2987 46.2459 61.2795 46.1484 61.2406C46.0509 61.2016 45.9622 61.1435 45.8874 61.0698Z" fill="white"/>
<path d="M86.0477 30.106C88.1922 32.2085 89.2645 35.0994 89.2645 38.7789V60.5021C89.2656 60.6075 89.2454 60.7121 89.2054 60.8096C89.1653 60.9071 89.106 60.9955 89.0311 61.0698C88.9576 61.1433 88.87 61.2013 88.7735 61.2403C88.6771 61.2793 88.5738 61.2986 88.4698 61.2968H82.3767C82.2721 61.2977 82.1684 61.2777 82.0715 61.238C81.9747 61.1984 81.8868 61.1399 81.8128 61.0659C81.7389 60.992 81.6804 60.904 81.6407 60.8072C81.6011 60.7104 81.5811 60.6067 81.5819 60.5021V40.3684C81.6613 38.5643 81.0449 36.7986 79.86 35.4359C79.2801 34.8083 78.5709 34.3141 77.7813 33.9874C76.9918 33.6607 76.1408 33.5093 75.287 33.5436C74.4329 33.5091 73.5812 33.6566 72.7885 33.9763C71.9957 34.296 71.28 34.7807 70.6888 35.398C69.4775 36.7349 68.8448 38.4969 68.929 40.299V60.4832C68.9312 60.5882 68.9122 60.6926 68.8732 60.7901C68.8342 60.8876 68.7759 60.9763 68.7019 61.0508C68.6272 61.1246 68.5384 61.1826 68.441 61.2216C68.3435 61.2606 68.2392 61.2798 68.1342 61.2779H62.0411C61.9365 61.2788 61.8328 61.2588 61.736 61.2191C61.6392 61.1795 61.5512 61.121 61.4773 61.047C61.4033 60.973 61.3448 60.8851 61.3052 60.7883C61.2655 60.6915 61.2455 60.5878 61.2464 60.4832V28.2515C61.2464 28.1472 61.2669 28.0438 61.3069 27.9474C61.3468 27.851 61.4053 27.7634 61.4791 27.6896C61.5529 27.6158 61.6406 27.5572 61.737 27.5173C61.8334 27.4773 61.9367 27.4568 62.0411 27.4568H68.1216C68.2262 27.456 68.3299 27.4759 68.4267 27.5156C68.5235 27.5552 68.6115 27.6137 68.6854 27.6877C68.7594 27.7617 68.8179 27.8496 68.8576 27.9464C68.8972 28.0432 68.9172 28.1469 68.9164 28.2515V30.3709C68.9095 30.4232 68.9185 30.4764 68.9421 30.5236C68.9657 30.5708 69.0029 30.6099 69.0488 30.6358C69.1371 30.68 69.2065 30.6358 69.2507 30.5033C71.063 28.1191 73.7963 26.927 77.4505 26.927C81.0458 26.927 83.9115 27.9866 86.0477 30.106Z" fill="white"/>
<path d="M113.536 33.43C113.464 33.5056 113.376 33.5654 113.28 33.6056C113.183 33.6457 113.079 33.6654 112.975 33.6634H106.226C106.181 33.656 106.134 33.6593 106.091 33.6731C106.047 33.6868 106.008 33.7106 105.975 33.7426C105.943 33.7746 105.918 33.8137 105.903 33.857C105.889 33.9002 105.885 33.9463 105.891 33.9914V49.9748C105.891 51.6568 106.257 52.8699 106.989 53.6142C107.714 54.3711 108.881 54.7433 110.464 54.7433H112.451C112.556 54.7413 112.66 54.761 112.756 54.8011C112.853 54.8413 112.94 54.9011 113.013 54.9767C113.087 55.0495 113.147 55.1368 113.187 55.2333C113.227 55.3298 113.247 55.4335 113.246 55.538V60.5021C113.253 60.6115 113.237 60.7212 113.201 60.8246C113.164 60.9279 113.107 61.0228 113.033 61.1035C112.958 61.1842 112.869 61.2491 112.769 61.2943C112.669 61.3394 112.561 61.3639 112.451 61.3662L109.007 61.4293C105.517 61.4293 102.912 60.8343 101.192 59.6442C99.4723 58.4542 98.5892 56.2024 98.543 52.8889V34.0103C98.5495 33.9652 98.5454 33.9191 98.5308 33.8759C98.5162 33.8327 98.4916 33.7935 98.4591 33.7615C98.4265 33.7296 98.3868 33.7057 98.3433 33.692C98.2998 33.6782 98.2537 33.6749 98.2087 33.6823H94.4241C94.2134 33.6823 94.0112 33.5986 93.8622 33.4496C93.7131 33.3005 93.6294 33.0984 93.6294 32.8876V28.2515C93.6294 28.0408 93.7131 27.8386 93.8622 27.6896C94.0112 27.5405 94.2134 27.4568 94.4241 27.4568H98.2087C98.254 27.4631 98.3003 27.4587 98.3437 27.4442C98.3871 27.4296 98.4266 27.4051 98.4589 27.3728C98.4913 27.3404 98.5158 27.3009 98.5304 27.2575C98.5449 27.2141 98.5493 27.1679 98.543 27.1225V19.3768C98.5421 19.2722 98.5621 19.1685 98.6018 19.0717C98.6414 18.9749 98.6999 18.8869 98.7739 18.813C98.8478 18.739 98.9358 18.6805 99.0326 18.6408C99.1294 18.6012 99.2331 18.5812 99.3377 18.5821H105.097C105.307 18.5821 105.509 18.6658 105.659 18.8148C105.808 18.9639 105.891 19.166 105.891 19.3768V27.1225C105.885 27.1679 105.889 27.2141 105.904 27.2575C105.918 27.3009 105.943 27.3404 105.975 27.3728C106.008 27.4051 106.047 27.4296 106.091 27.4442C106.134 27.4587 106.18 27.4631 106.226 27.4568H112.981C113.086 27.4548 113.189 27.4745 113.286 27.5146C113.383 27.5548 113.47 27.6146 113.542 27.6902C113.617 27.763 113.677 27.8503 113.717 27.9468C113.757 28.0433 113.777 28.147 113.776 28.2515V32.8876C113.774 32.9894 113.751 33.0897 113.71 33.1828C113.669 33.276 113.61 33.36 113.536 33.43Z" fill="white"/>
<path d="M140.532 60.1741C138.158 59.2191 136.103 57.6119 134.603 55.538C133.187 53.4754 132.457 51.019 132.515 48.5177V46.8588C132.513 46.7542 132.533 46.6503 132.573 46.5537C132.613 46.4571 132.673 46.3698 132.749 46.2975C132.822 46.2225 132.909 46.1631 133.005 46.123C133.102 46.0829 133.206 46.0628 133.31 46.0641H139.208C139.314 46.0607 139.42 46.0788 139.52 46.1172C139.619 46.1556 139.71 46.2136 139.786 46.2877C139.863 46.3619 139.923 46.4506 139.965 46.5488C140.006 46.6469 140.028 46.7523 140.028 46.8588V48.1203C140.031 49.1194 140.28 50.1024 140.753 50.9824C141.226 51.8624 141.908 52.6125 142.74 53.1664C144.552 54.5162 147.025 55.189 150.158 55.1848C152.851 55.1848 154.882 54.6171 156.251 53.4628C156.908 52.9329 157.435 52.2594 157.792 51.494C158.148 50.7286 158.324 49.8917 158.307 49.0476C158.337 47.8922 157.935 46.7673 157.178 45.8938C156.26 44.9048 155.162 44.0998 153.942 43.5221C152.55 42.8157 150.465 41.9326 147.685 40.873C145.079 39.9538 142.535 38.871 140.066 37.6309C138.151 36.6372 136.486 35.2225 135.196 33.4931C133.848 31.5896 133.163 29.2958 133.247 26.9648C133.247 23.0793 134.66 20.0118 137.486 17.7621C140.312 15.5124 144.086 14.3854 148.808 14.3812C151.822 14.3214 154.814 14.9086 157.582 16.1032C159.966 17.1237 162.019 18.7879 163.511 20.9095C164.937 23.0043 165.678 25.4905 165.63 28.0245V29.1535C165.63 29.3643 165.546 29.5665 165.397 29.7155C165.248 29.8645 165.046 29.9483 164.835 29.9483H158.875C158.664 29.9483 158.462 29.8645 158.313 29.7155C158.164 29.5665 158.08 29.3643 158.08 29.1535V28.4471C158.088 27.436 157.865 26.4364 157.428 25.5247C156.99 24.6129 156.35 23.8132 155.557 23.1866C153.854 21.7485 151.503 21.0294 148.505 21.0294C146.077 21.0294 144.184 21.5403 142.828 22.5558C142.164 23.052 141.633 23.704 141.281 24.4542C140.929 25.2045 140.767 26.0299 140.81 26.8576C140.76 28.0327 141.136 29.1864 141.869 30.106C142.751 31.0775 143.825 31.8551 145.023 32.3893C146.445 33.0831 148.633 33.9557 151.589 35.0069C154.153 35.9499 156.663 37.0322 159.108 38.249C160.998 39.2357 162.648 40.6269 163.94 42.3237C165.334 44.2056 166.048 46.5051 165.964 48.8457C165.964 52.8195 164.493 55.9733 161.549 58.3071C158.606 60.6408 154.611 61.8098 149.565 61.8141C146.473 61.8905 143.399 61.3324 140.532 60.1741Z" fill="white"/>
<path d="M188.974 33.43C188.902 33.5059 188.815 33.5659 188.718 33.6061C188.622 33.6463 188.518 33.6658 188.413 33.6634H181.658C181.613 33.6571 181.568 33.6612 181.525 33.6755C181.482 33.6897 181.444 33.7137 181.412 33.7455C181.38 33.7773 181.356 33.8161 181.342 33.8588C181.327 33.9015 181.323 33.9469 181.33 33.9914V49.9748C181.33 51.6526 181.689 52.8636 182.421 53.6142C183.152 54.3648 184.313 54.7433 185.896 54.7433H187.883C188.094 54.7433 188.296 54.827 188.445 54.9761C188.594 55.1251 188.678 55.3273 188.678 55.538V60.5021C188.685 60.6115 188.669 60.7212 188.633 60.8246C188.596 60.9279 188.539 61.0228 188.465 61.1035C188.39 61.1842 188.301 61.2491 188.201 61.2943C188.101 61.3394 187.993 61.3639 187.883 61.3662L184.439 61.4293C180.949 61.4293 178.344 60.8343 176.624 59.6442C174.904 58.4542 174.021 56.2024 173.975 52.8889V34.0103C173.982 33.9652 173.977 33.9191 173.963 33.8759C173.948 33.8327 173.924 33.7935 173.891 33.7615C173.858 33.7296 173.819 33.7057 173.775 33.692C173.732 33.6782 173.686 33.6749 173.641 33.6823H169.856C169.645 33.6823 169.443 33.5986 169.294 33.4496C169.145 33.3005 169.061 33.0984 169.061 32.8876V28.2515C169.061 28.0408 169.145 27.8386 169.294 27.6896C169.443 27.5405 169.645 27.4568 169.856 27.4568H173.641C173.686 27.4631 173.732 27.4587 173.776 27.4442C173.819 27.4296 173.859 27.4051 173.891 27.3728C173.923 27.3404 173.948 27.3009 173.962 27.2575C173.977 27.2141 173.981 27.1679 173.975 27.1225V19.3768C173.975 19.166 174.059 18.9639 174.208 18.8148C174.357 18.6658 174.559 18.5821 174.77 18.5821H180.529C180.633 18.5812 180.737 18.6012 180.835 18.6407C180.932 18.6803 181.02 18.7387 181.095 18.8126C181.169 18.8865 181.228 18.9744 181.269 19.0712C181.309 19.168 181.33 19.2719 181.33 19.3768V27.1225C181.322 27.1675 181.325 27.2136 181.339 27.2571C181.353 27.3006 181.377 27.3403 181.409 27.3729C181.441 27.4054 181.48 27.43 181.523 27.4446C181.566 27.4592 181.612 27.4633 181.658 27.4568H188.413C188.519 27.4543 188.624 27.473 188.723 27.5118C188.822 27.5506 188.911 27.6087 188.987 27.6828C189.063 27.7568 189.123 27.8453 189.164 27.943C189.206 28.0406 189.227 28.1456 189.227 28.2515V32.8876C189.224 32.9905 189.2 33.0917 189.157 33.185C189.113 33.2784 189.051 33.3618 188.974 33.43Z" fill="white"/>
<path d="M215.397 28.384C217.371 29.2372 219.068 30.6243 220.298 32.3893C221.451 34.1002 222.054 36.1227 222.026 38.1859V60.5021C222.027 60.6075 222.007 60.712 221.967 60.8096C221.927 60.9071 221.867 60.9955 221.793 61.0697C221.719 61.1433 221.631 61.2013 221.535 61.2403C221.439 61.2793 221.335 61.2985 221.231 61.2968H215.138C215.033 61.2987 214.929 61.2795 214.831 61.2406C214.734 61.2016 214.645 61.1435 214.57 61.0697C214.496 60.9952 214.438 60.9065 214.399 60.809C214.36 60.7115 214.341 60.6071 214.343 60.5021V58.3827C214.343 58.2482 214.299 58.1725 214.211 58.1557C214.162 58.145 214.112 58.1482 214.065 58.1649C214.018 58.1816 213.977 58.2112 213.946 58.2503C211.764 60.6261 208.627 61.814 204.535 61.814C201.224 61.814 198.492 60.9814 196.335 59.291C194.178 57.6006 193.125 55.1217 193.125 51.8103C193.125 48.3663 194.327 45.6835 196.733 43.7618C199.138 41.8401 202.527 40.8793 206.9 40.8793H213.984C214.029 40.8867 214.075 40.8834 214.118 40.8696C214.162 40.8559 214.202 40.832 214.234 40.8001C214.267 40.7681 214.291 40.7289 214.306 40.6857C214.321 40.6425 214.325 40.5964 214.318 40.5513V38.9807C214.362 38.243 214.249 37.5044 213.986 36.8138C213.723 36.1232 213.316 35.4966 212.792 34.9754C211.774 34.0208 210.252 33.5457 208.225 33.5499C206.812 33.4872 205.407 33.796 204.15 34.4456C203.668 34.6979 203.245 35.0492 202.908 35.4763C202.571 35.9035 202.328 36.3969 202.195 36.9244C202.063 37.4543 201.753 37.6813 201.268 37.5867L194.847 36.792C194.643 36.763 194.448 36.6921 194.273 36.5838C194.202 36.5384 194.149 36.4716 194.119 36.3932C194.089 36.3149 194.086 36.2291 194.109 36.1486C194.462 33.4532 195.908 31.2455 198.448 29.5257C200.988 27.8058 204.178 26.9459 208.017 26.9459C210.552 26.8846 213.07 27.3753 215.397 28.384ZM212.016 54.0116C212.733 53.5305 213.32 52.8798 213.725 52.1172C214.13 51.3547 214.34 50.5039 214.337 49.6405V46.5308C214.343 46.4855 214.339 46.4392 214.324 46.3958C214.31 46.3524 214.285 46.313 214.253 46.2806C214.221 46.2482 214.181 46.2237 214.138 46.2091C214.094 46.1946 214.048 46.1903 214.003 46.1965H208.44C206.102 46.1965 204.258 46.6381 202.908 47.5211C202.267 47.9174 201.743 48.4763 201.388 49.1411C201.034 49.8059 200.861 50.5527 200.889 51.3056C200.859 51.9384 200.985 52.5688 201.257 53.141C201.529 53.7131 201.938 54.2094 202.447 54.5856C203.621 55.3968 205.027 55.8022 206.453 55.7399C208.447 55.7912 210.402 55.1837 212.016 54.0116Z" fill="white"/>
<path d="M246.108 33.43C246.036 33.5059 245.949 33.5659 245.852 33.6061C245.756 33.6463 245.651 33.6658 245.547 33.6634H238.791C238.747 33.6571 238.701 33.6612 238.659 33.6755C238.616 33.6897 238.577 33.7137 238.546 33.7455C238.514 33.7773 238.49 33.8161 238.475 33.8588C238.461 33.9015 238.457 33.9469 238.463 33.9914V49.9748C238.463 51.6526 238.823 52.8636 239.555 53.6142C240.286 54.3648 241.447 54.7433 243.03 54.7433H245.017C245.228 54.7433 245.43 54.827 245.579 54.976C245.728 55.1251 245.812 55.3272 245.812 55.538V60.5021C245.819 60.6115 245.803 60.7212 245.767 60.8246C245.73 60.9279 245.673 61.0228 245.599 61.1035C245.524 61.1842 245.435 61.2491 245.335 61.2943C245.235 61.3394 245.127 61.3639 245.017 61.3662L241.573 61.4293C238.083 61.4293 235.478 60.8343 233.758 59.6442C232.038 58.4542 231.155 56.2024 231.109 52.8888V34.0103C231.115 33.9658 231.111 33.9204 231.097 33.8777C231.082 33.835 231.059 33.7963 231.027 33.7645C230.995 33.7326 230.956 33.7087 230.913 33.6944C230.871 33.6802 230.825 33.676 230.781 33.6823H226.996C226.786 33.6823 226.583 33.5986 226.434 33.4496C226.285 33.3005 226.202 33.0984 226.202 32.8876V28.2515C226.202 28.0408 226.285 27.8386 226.434 27.6896C226.583 27.5405 226.786 27.4568 226.996 27.4568H230.781C230.826 27.4633 230.872 27.4592 230.915 27.4446C230.958 27.43 230.998 27.4054 231.03 27.3729C231.062 27.3403 231.085 27.3006 231.099 27.2571C231.113 27.2136 231.116 27.1675 231.109 27.1225V19.3768C231.109 19.166 231.193 18.9639 231.342 18.8148C231.491 18.6658 231.693 18.582 231.904 18.582H237.669C237.773 18.58 237.877 18.5997 237.974 18.6399C238.07 18.6801 238.158 18.7398 238.23 18.8154C238.305 18.8882 238.364 18.9756 238.405 19.0721C238.445 19.1686 238.465 19.2723 238.463 19.3768V27.1225C238.456 27.1675 238.459 27.2136 238.473 27.2571C238.487 27.3006 238.511 27.3403 238.543 27.3729C238.575 27.4054 238.614 27.43 238.657 27.4446C238.7 27.4592 238.746 27.4633 238.791 27.4568H245.547C245.758 27.4568 245.96 27.5405 246.109 27.6896C246.258 27.8386 246.342 28.0408 246.342 28.2515V32.8876C246.341 32.9891 246.321 33.0895 246.28 33.1827C246.24 33.276 246.182 33.3601 246.108 33.43Z" fill="white"/>
<path d="M279.803 44.279L279.734 46.329C279.75 46.437 279.74 46.5473 279.706 46.651C279.672 46.7547 279.613 46.8489 279.536 46.9262C279.459 47.0034 279.365 47.0615 279.261 47.0958C279.157 47.1301 279.047 47.1397 278.939 47.1237H258.212C258.167 47.1175 258.121 47.1218 258.077 47.1364C258.034 47.1509 257.995 47.1754 257.962 47.2078C257.93 47.2402 257.905 47.2796 257.891 47.323C257.876 47.3665 257.872 47.4127 257.878 47.458C257.926 48.4781 258.139 49.4836 258.509 50.4352C259.569 53.6142 262.15 55.2269 266.255 55.2731C267.663 55.309 269.057 54.9877 270.308 54.3391C271.559 53.6906 272.625 52.736 273.407 51.5643C273.471 51.4504 273.562 51.3543 273.672 51.2849C273.782 51.2154 273.908 51.1748 274.038 51.1669C274.125 51.1655 274.212 51.1821 274.292 51.2158C274.372 51.2494 274.445 51.2994 274.505 51.3624L278.611 54.7433C278.7 54.7943 278.777 54.8641 278.836 54.9478C278.895 55.0314 278.936 55.127 278.954 55.2278C278.973 55.3287 278.969 55.4323 278.944 55.5316C278.918 55.631 278.871 55.7235 278.807 55.8029C277.417 57.7619 275.532 59.3162 273.344 60.3065C270.969 61.3867 268.384 61.9294 265.775 61.896C262.685 61.9938 259.633 61.187 256.995 59.5749C254.592 58.0301 252.748 55.7551 251.735 53.0844C250.721 50.7001 250.212 47.3887 250.208 43.15C250.146 41.046 250.414 38.9453 251.003 36.9244C251.781 33.9835 253.547 31.3999 256.005 29.6077C258.581 27.7834 261.679 26.8429 264.835 26.927C273.536 26.927 278.437 31.4747 279.538 40.5702C279.724 41.7976 279.813 43.0377 279.803 44.279ZM260.761 34.7736C259.65 35.6337 258.849 36.8312 258.477 38.1859C258.176 39.1304 257.998 40.1099 257.948 41.1C257.859 41.3208 257.947 41.428 258.212 41.428H271.654C271.699 41.4354 271.745 41.4321 271.788 41.4184C271.832 41.4046 271.872 41.3808 271.904 41.3488C271.937 41.3169 271.961 41.2777 271.976 41.2345C271.99 41.1912 271.995 41.1452 271.988 41.1C271.942 40.2477 271.809 39.4022 271.591 38.577C271.265 37.1032 270.433 35.7906 269.238 34.8682C267.954 33.9485 266.401 33.4824 264.823 33.5436C263.37 33.494 261.942 33.9265 260.761 34.7736Z" fill="white"/>
<path d="M368.443 61.0445C368.367 60.9724 368.307 60.8852 368.267 60.7885C368.227 60.6918 368.208 60.5878 368.21 60.4831V15.6995C368.208 15.5948 368.227 15.4908 368.267 15.3941C368.307 15.2974 368.367 15.2102 368.443 15.1381C368.516 15.0625 368.603 15.0028 368.699 14.9626C368.796 14.9224 368.9 14.9027 369.005 14.9047H375.098C375.202 14.9039 375.306 14.9239 375.403 14.9635C375.5 15.0032 375.588 15.0617 375.662 15.1356C375.736 15.2096 375.794 15.2976 375.834 15.3944C375.873 15.4912 375.893 15.5949 375.893 15.6995V54.3207C375.886 54.366 375.891 54.4122 375.905 54.4557C375.92 54.4991 375.944 54.5385 375.977 54.5709C376.009 54.6033 376.048 54.6278 376.092 54.6423C376.135 54.6569 376.181 54.6612 376.227 54.655H398.41C398.515 54.6541 398.619 54.6741 398.716 54.7137C398.812 54.7534 398.9 54.8119 398.974 54.8859C399.048 54.9598 399.107 55.0478 399.146 55.1446C399.186 55.2414 399.206 55.3451 399.205 55.4497V60.4958C399.206 60.6004 399.186 60.7041 399.146 60.8009C399.107 60.8977 399.048 60.9856 398.974 61.0596C398.9 61.1336 398.812 61.1921 398.716 61.2317C398.619 61.2714 398.515 61.2914 398.41 61.2905H368.992C368.889 61.2892 368.787 61.2667 368.692 61.2243C368.598 61.182 368.513 61.1208 368.443 61.0445Z" fill="white"/>
<path d="M425.628 28.384C427.604 29.2372 429.302 30.6269 430.529 32.3956C431.68 34.1046 432.281 36.1253 432.251 38.1859V60.4832C432.252 60.5877 432.232 60.6913 432.192 60.7879C432.152 60.8844 432.092 60.9717 432.017 61.0445C431.945 61.1201 431.858 61.1799 431.761 61.2201C431.664 61.2602 431.56 61.2799 431.456 61.2779H425.363C425.258 61.2788 425.154 61.2588 425.058 61.2191C424.961 61.1795 424.873 61.121 424.799 61.047C424.725 60.973 424.666 60.8851 424.627 60.7883C424.587 60.6915 424.567 60.5878 424.568 60.4832V58.3638C424.568 58.2314 424.524 58.1557 424.436 58.1304C424.386 58.1226 424.336 58.1277 424.29 58.1455C424.243 58.1632 424.202 58.1928 424.171 58.2314C422.005 60.6198 418.87 61.8141 414.766 61.8141C411.457 61.8141 408.723 60.973 406.566 59.291C404.409 57.609 403.339 55.1133 403.356 51.804C403.356 48.36 404.558 45.6793 406.964 43.7618C409.369 41.8443 412.758 40.8835 417.131 40.8793H424.215C424.26 40.8856 424.306 40.8812 424.35 40.8667C424.393 40.8521 424.433 40.8276 424.465 40.7952C424.497 40.7629 424.522 40.7234 424.536 40.68C424.551 40.6366 424.555 40.5903 424.549 40.545V38.9555C424.593 38.2178 424.479 37.4793 424.216 36.7888C423.953 36.0983 423.546 35.4716 423.023 34.9502C422.007 34.004 420.5 33.5247 418.456 33.5247C417.052 33.4696 415.657 33.7781 414.407 34.4203C413.925 34.6747 413.502 35.0273 413.165 35.4554C412.828 35.8835 412.585 36.3775 412.451 36.9055C412.317 37.4353 412.008 37.6561 411.524 37.5678L405.097 36.7731C404.893 36.737 404.699 36.6574 404.529 36.5397C404.458 36.496 404.404 36.4304 404.374 36.3529C404.345 36.2754 404.341 36.1903 404.365 36.1108C404.718 33.4153 406.165 31.2077 408.704 29.4878C411.244 27.768 414.434 26.9059 418.273 26.9017C420.803 26.8612 423.311 27.3668 425.628 28.384ZM422.247 53.9927C422.964 53.5116 423.551 52.8609 423.956 52.0983C424.361 51.3358 424.571 50.485 424.568 49.6215V46.5056C424.575 46.4605 424.57 46.4144 424.556 46.3712C424.541 46.3279 424.517 46.2888 424.484 46.2568C424.451 46.2248 424.412 46.201 424.368 46.1873C424.325 46.1735 424.279 46.1702 424.234 46.1776H418.67C416.328 46.1776 414.486 46.6191 413.145 47.5022C412.502 47.8967 411.976 48.4551 411.62 49.1202C411.264 49.7853 411.092 50.533 411.12 51.2867C411.088 51.9197 411.214 52.5507 411.486 53.1231C411.758 53.6956 412.167 54.1916 412.678 54.5667C413.85 55.3827 415.257 55.7906 416.684 55.7273C418.678 55.7767 420.634 55.1671 422.247 53.9927Z" fill="white"/>
<path d="M467.813 44.2538C467.859 47.0656 467.433 49.8653 466.551 52.5356C465.726 55.2405 464.082 57.6228 461.846 59.3541C459.547 61.0367 456.752 61.9026 453.904 61.814C452.451 61.8481 451.01 61.5492 449.69 60.9402C448.371 60.3313 447.208 59.4284 446.291 58.3007C446.203 58.1683 446.115 58.1304 446.026 58.1683C445.981 58.1948 445.944 58.234 445.921 58.2811C445.897 58.3281 445.888 58.3809 445.894 58.4332V60.4895C445.895 60.594 445.875 60.6977 445.835 60.7942C445.795 60.8907 445.735 60.978 445.66 61.0508C445.588 61.1264 445.501 61.1862 445.404 61.2264C445.308 61.2665 445.204 61.2862 445.099 61.2842H439.006C438.901 61.285 438.798 61.2651 438.701 61.2254C438.604 61.1858 438.516 61.1273 438.442 61.0533C438.368 60.9793 438.31 60.8914 438.27 60.7946C438.23 60.6978 438.21 60.5941 438.211 60.4895V15.7058C438.211 15.6017 438.232 15.4987 438.272 15.4026C438.312 15.3065 438.37 15.2193 438.444 15.146C438.518 15.0728 438.606 15.0148 438.702 14.9756C438.799 14.9363 438.902 14.9165 439.006 14.9174H445.099C445.204 14.9153 445.308 14.935 445.404 14.9752C445.501 15.0154 445.588 15.0751 445.66 15.1507C445.735 15.2236 445.795 15.3109 445.835 15.4074C445.875 15.5039 445.895 15.6076 445.894 15.7121V30.0807C445.886 30.1331 445.895 30.1866 445.918 30.234C445.942 30.2814 445.98 30.3204 446.026 30.3456C446.071 30.3687 446.122 30.375 446.17 30.3634C446.219 30.3519 446.262 30.3232 446.291 30.2826C447.209 29.176 448.369 28.2955 449.681 27.7092C450.994 27.1229 452.424 26.8466 453.86 26.9017C457.128 26.9017 459.831 27.7196 461.972 29.3554C464.195 31.1052 465.845 33.4796 466.709 36.1738C467.473 38.7981 467.844 41.5208 467.813 44.2538ZM459.934 44.3863C459.934 40.9423 459.304 38.2553 457.948 36.3063C457.393 35.4117 456.61 34.6818 455.678 34.1927C454.746 33.7035 453.7 33.4728 452.649 33.5247C451.632 33.5004 450.628 33.7603 449.75 34.275C448.872 34.7898 448.155 35.539 447.679 36.4387C446.577 38.2553 446.026 40.8835 446.026 44.3232C446.026 47.7629 446.533 50.3238 447.546 52.0058C448.009 52.9755 448.744 53.7899 449.661 54.3498C450.578 54.9097 451.638 55.191 452.712 55.1596C453.871 55.1884 455.018 54.9122 456.036 54.3585C457.011 53.8021 457.814 52.9881 458.358 52.0058C459.409 50.1346 459.934 47.5947 459.934 44.3863Z" fill="white"/>
<path d="M479.103 60.4516C477.209 59.7758 475.529 58.6091 474.234 57.0708C473.116 55.7216 472.506 54.0229 472.512 52.2707V51.64C472.512 51.4293 472.596 51.2274 472.745 51.0786C472.818 51.0042 472.906 50.9452 473.002 50.9051C473.099 50.865 473.202 50.8447 473.306 50.8452H479.135C479.24 50.8445 479.344 50.8648 479.442 50.9049C479.539 50.945 479.628 51.004 479.702 51.0786C479.775 51.1526 479.833 51.2403 479.872 51.3366C479.911 51.433 479.93 51.5361 479.929 51.64V51.7724C479.929 52.8763 480.56 53.8413 481.752 54.655C483.129 55.5175 484.734 55.944 486.357 55.8786C487.867 55.9479 489.364 55.5682 490.658 54.7874C491.152 54.5151 491.565 54.1175 491.857 53.6347C492.148 53.152 492.307 52.601 492.317 52.0373C492.332 51.5672 492.212 51.1026 491.972 50.6982C491.732 50.2937 491.381 49.9662 490.961 49.754C489.551 49.0589 488.071 48.5155 486.546 48.133L484.023 47.3382C482.076 46.7875 480.178 46.0787 478.346 45.2189C476.831 44.4947 475.495 43.4434 474.435 42.1408C473.334 40.712 472.772 38.9412 472.846 37.1389C472.803 35.704 473.112 34.2804 473.746 32.9927C474.381 31.705 475.321 30.5926 476.485 29.7527C478.912 27.9236 482.114 27.0069 486.092 27.0027C488.514 26.9445 490.922 27.3735 493.175 28.2642C495.042 29.0016 496.67 30.239 497.881 31.8405C499.001 33.3632 499.59 35.2112 499.558 37.1011C499.561 37.2056 499.542 37.3096 499.504 37.4067C499.465 37.5039 499.407 37.5923 499.334 37.6665C499.26 37.7407 499.172 37.7993 499.075 37.8387C498.978 37.8781 498.875 37.8975 498.77 37.8958H493.137C493.033 37.8966 492.929 37.8767 492.832 37.837C492.735 37.7974 492.647 37.7389 492.574 37.6649C492.5 37.5909 492.441 37.503 492.401 37.4062C492.362 37.3094 492.342 37.2057 492.343 37.1011C492.332 36.5166 492.171 35.9448 491.875 35.4408C491.579 34.9369 491.158 34.5181 490.652 34.2248C489.27 33.3807 487.665 32.976 486.048 33.0642C484.587 33.0036 483.137 33.3346 481.847 34.023C481.353 34.2741 480.939 34.6581 480.652 35.1317C480.364 35.6053 480.214 36.1497 480.219 36.7037C480.217 37.2092 480.36 37.7047 480.632 38.1309C480.904 38.5571 481.293 38.8959 481.752 39.1069C483.418 39.8882 485.157 40.5031 486.943 40.9424L488.407 41.3397C490.419 41.9338 492.39 42.6629 494.304 43.5221C495.862 44.2247 497.243 45.2654 498.347 46.5687C499.49 47.996 500.077 49.7884 500 51.6147C500.05 53.058 499.736 54.4906 499.088 55.7812C498.44 57.0717 497.478 58.1788 496.291 59.0009C493.819 60.788 490.528 61.6816 486.42 61.6816C483.926 61.7272 481.445 61.3102 479.103 60.4516Z" fill="white"/>
<path d="M306.781 49.9054L308.761 52.1635C308.971 52.403 309.228 52.5954 309.518 52.7281C309.807 52.8607 310.121 52.9306 310.439 52.933H337.707C338.043 52.9343 338.374 52.8581 338.676 52.7104C338.978 52.5628 339.242 52.3476 339.447 52.0815L341.34 49.6657C341.609 49.3201 341.769 48.902 341.799 48.4649C341.83 48.0278 341.729 47.5915 341.51 47.2121C340.185 44.935 337.454 40.3684 336.193 39.7376C334.521 38.8735 332.843 39.3655 331.147 40.709C325.886 44.7963 323.117 44.4935 323.117 44.4935C323.117 44.4935 317.566 41.447 315.094 40.1665C312.621 38.8861 311.505 39.9962 311.505 39.9962L306.604 47.2499C306.345 47.6532 306.223 48.1288 306.255 48.6067C306.287 49.0847 306.471 49.5399 306.781 49.9054Z" fill="#5DA3D9"/>
<path opacity="0.4" d="M336.193 39.7376C334.521 38.8672 332.843 39.3655 331.147 40.709C325.886 44.79 323.117 44.4935 323.117 44.4935C324.337 45.3002 325.708 45.8496 327.148 46.1082C329.062 46.4418 331.023 46.3947 332.919 45.9695C337.416 44.9161 337.877 40.5954 336.193 39.7376Z" fill="white"/>
<path fill-rule="evenodd" clip-rule="evenodd" d="M322.234 27.4505C321.964 27.7372 321.813 28.1161 321.812 28.5101C321.81 28.9029 321.961 29.2808 322.234 29.5635C322.506 29.8399 322.875 29.9985 323.262 30.005C323.454 30.0048 323.643 29.9656 323.819 29.8897C323.994 29.8137 324.153 29.7028 324.284 29.5635C324.496 29.3461 324.629 29.0642 324.663 28.7624C324.709 28.4627 324.667 28.1559 324.543 27.8794C324.466 27.6524 324.331 27.4499 324.15 27.2929C323.969 27.1358 323.75 27.03 323.515 26.9862C323.279 26.9425 323.036 26.9625 322.811 27.0441C322.586 27.1257 322.387 27.266 322.234 27.4505Z" fill="#5DA3D9"/>
<path fill-rule="evenodd" clip-rule="evenodd" d="M325.432 31.8784C322.013 33.9914 323.464 39.3844 327.463 39.3844C327.977 39.3826 328.486 39.2842 328.964 39.0942C329.436 38.8901 329.865 38.5967 330.226 38.2301C330.588 37.848 330.879 37.4036 331.084 36.9181C331.329 36.3048 331.426 35.642 331.366 34.9841C331.305 34.3262 331.09 33.692 330.737 33.1336C330.169 32.2881 329.305 31.6869 328.315 31.4495C327.334 31.2164 326.302 31.37 325.432 31.8784Z" fill="#5DA3D9"/>
<path fill-rule="evenodd" clip-rule="evenodd" d="M317.472 32.3893C317.172 32.617 316.95 32.9323 316.837 33.2917C316.724 33.651 316.725 34.0366 316.841 34.3951C317.239 35.5368 318.229 35.8458 319.2 35.0259C320.563 33.8842 319.162 31.6765 317.472 32.3893Z" fill="#5DA3D9"/>
<path fill-rule="evenodd" clip-rule="evenodd" d="M320.291 8.74857C320.262 11.0492 319.514 13.2832 318.153 15.1381L294.115 48.0825C293.817 48.492 293.67 48.9915 293.697 49.4971C293.725 50.0026 293.926 50.4832 294.266 50.8578L303.147 60.6282C303.356 60.8542 303.61 61.0343 303.893 61.157C304.175 61.2797 304.48 61.3424 304.787 61.341H343.207C343.514 61.3394 343.818 61.2753 344.1 61.1528C344.382 61.0303 344.636 60.8518 344.847 60.6282L353.728 50.8578C354.069 50.4837 354.271 50.003 354.299 49.4972C354.326 48.9913 354.178 48.4915 353.879 48.0825L329.803 15.1381C328.419 13.2399 327.671 10.9527 327.665 8.6035V7.53121C327.666 7.16592 327.739 6.80437 327.879 6.46721C328.02 6.13004 328.225 5.82386 328.484 5.56615C328.743 5.30843 329.05 5.10424 329.388 4.96521C329.726 4.82619 330.088 4.75506 330.453 4.75589H330.604C330.68 4.75589 330.756 4.74088 330.826 4.71171C330.897 4.68255 330.961 4.63981 331.015 4.58592C331.068 4.53204 331.111 4.46807 331.14 4.39766C331.17 4.32726 331.185 4.2518 331.185 4.17559V0.580284C331.185 0.503844 331.171 0.428006 331.142 0.35722C331.113 0.286433 331.071 0.222126 331.016 0.168071C330.962 0.114017 330.898 0.0713044 330.827 0.0424409C330.757 0.0135775 330.681 -0.000855448 330.604 -1.07293e-05H317.358C317.282 -0.000855448 317.206 0.0135775 317.135 0.0424409C317.065 0.0713044 317 0.114017 316.946 0.168071C316.892 0.222126 316.849 0.286433 316.821 0.35722C316.792 0.428006 316.777 0.503844 316.778 0.580284V4.16928C316.777 4.24572 316.792 4.32156 316.821 4.39235C316.849 4.46314 316.892 4.52744 316.946 4.5815C317 4.63555 317.065 4.67826 317.135 4.70713C317.206 4.73599 317.282 4.75042 317.358 4.74958H317.51C317.875 4.74875 318.237 4.81988 318.575 4.9589C318.913 5.09793 319.22 5.30213 319.479 5.55984C319.737 5.81755 319.943 6.12373 320.084 6.4609C320.224 6.79807 320.297 7.15962 320.298 7.5249L320.291 8.74857ZM347.256 50.4983L342.595 55.62C342.388 55.8487 342.134 56.031 341.852 56.1549C341.569 56.2789 341.264 56.3416 340.955 56.3391H306.989C306.681 56.3385 306.376 56.2744 306.094 56.1506C305.812 56.0269 305.558 55.8463 305.349 55.62L300.706 50.4983C300.366 50.1238 300.165 49.6438 300.136 49.1386C300.107 48.6333 300.253 48.1336 300.549 47.723L322.184 18.0774C322.389 17.796 322.657 17.5669 322.967 17.409C323.277 17.2511 323.621 17.1688 323.969 17.1688C324.317 17.1688 324.66 17.2511 324.97 17.409C325.28 17.5669 325.549 17.796 325.754 18.0774L347.389 47.723C347.692 48.1289 347.845 48.628 347.821 49.1344C347.797 49.6409 347.597 50.1231 347.256 50.4983Z" fill="#5DA3D9"/>
</g>
<defs>
<clipPath id="clip0_493_4308">
<rect width="500" height="61.896" fill="white"/>
</clipPath>
</defs>
</svg>
