<svg width="213" height="213" viewBox="0 0 213 213" fill="none" xmlns="http://www.w3.org/2000/svg">
<path d="M212.69 106.345C212.69 47.6123 165.078 0 106.345 0C47.6123 0 0 47.6123 0 106.345C0 165.078 47.6123 212.69 106.345 212.69C165.078 212.69 212.69 165.078 212.69 106.345Z" fill="black"/>
<path fill-rule="evenodd" clip-rule="evenodd" d="M105.74 70.72C105.282 71.1997 105.024 71.8366 105.02 72.5C105.018 73.1647 105.276 73.8037 105.74 74.2799C106.193 74.7446 106.811 75.0108 107.46 75.02C107.782 75.0188 108.1 74.9526 108.396 74.8255C108.691 74.6983 108.958 74.5127 109.18 74.2799C109.525 73.9062 109.745 73.4344 109.81 72.9299C109.888 72.4234 109.815 71.9052 109.6 71.44C109.477 71.0565 109.253 70.7135 108.951 70.4472C108.649 70.1809 108.281 70.0012 107.885 69.9274C107.489 69.8536 107.081 69.8883 106.703 70.0278C106.326 70.1674 105.993 70.4066 105.74 70.72" fill="white"/>
<path fill-rule="evenodd" clip-rule="evenodd" d="M111.1 78.17C105.36 81.73 107.8 90.81 114.51 90.81C115.373 90.8079 116.228 90.6416 117.03 90.32C117.834 89.9768 118.564 89.481 119.18 88.86C119.789 88.2222 120.274 87.476 120.61 86.66C120.951 85.832 121.127 84.9455 121.13 84.05C121.135 82.7117 120.757 81.4 120.04 80.2701C119.089 78.8445 117.636 77.8301 115.97 77.43C115.149 77.2272 114.297 77.1883 113.461 77.3152C112.625 77.4422 111.823 77.7326 111.1 78.17" fill="white"/>
<path fill-rule="evenodd" clip-rule="evenodd" d="M97.7399 79.0001C96.8199 79.4101 96.22 81.2101 96.65 82.3901C97.31 84.3101 98.97 84.8201 100.65 83.4501C102.93 81.5901 100.55 77.8301 97.7399 79.0001Z" fill="white"/>
<path d="M138.09 104.02C136 100.38 131.73 93.25 129.52 91.61C129.421 91.5364 129.318 91.4695 129.21 91.41C128.323 90.9504 127.339 90.7072 126.34 90.7C124.253 90.8432 122.275 91.6811 120.72 93.08C113.04 99.08 108.52 99.47 107.48 99.47H107.25C107.25 99.47 97.9398 94.34 93.7898 92.19C89.6398 90.04 87.7898 91.9001 87.7898 91.9001L79.5598 104.11C79.1031 104.785 78.8811 105.591 78.9281 106.404C78.975 107.217 79.2885 107.993 79.8198 108.61L83.1398 112.42C83.4924 112.817 83.9251 113.135 84.4095 113.352C84.8939 113.569 85.419 113.681 85.9498 113.68H131.75C132.314 113.682 132.87 113.554 133.377 113.306C133.883 113.058 134.326 112.697 134.67 112.25L137.82 108.18C138.261 107.586 138.521 106.878 138.568 106.14C138.616 105.402 138.45 104.666 138.09 104.02V104.02ZM121.53 94.0201C122.853 92.8027 124.547 92.0664 126.34 91.93C127.131 91.9396 127.908 92.1349 128.61 92.5001C128.944 92.807 129.189 93.1985 129.32 93.6332C129.45 94.068 129.46 94.5298 129.35 94.97C129.09 97.06 127.35 99.61 123.42 100.53H123.37C121.851 100.898 120.293 101.079 118.73 101.07C117.224 101.062 115.72 100.948 114.23 100.73C113.204 100.565 112.199 100.293 111.23 99.92C114.973 98.5658 118.457 96.5804 121.53 94.05V94.0201Z" fill="white"/>
<path fill-rule="evenodd" clip-rule="evenodd" d="M102.37 39.2C102.323 43.0668 101.067 46.822 98.7798 49.94L58.3698 105.43C57.8741 106.121 57.6296 106.961 57.6769 107.811C57.7242 108.66 58.0605 109.468 58.6299 110.1L73.5298 126.55C73.8798 126.93 74.305 127.233 74.7785 127.44C75.2519 127.646 75.7632 127.752 76.2798 127.75H140.74C141.256 127.749 141.766 127.642 142.239 127.435C142.712 127.229 143.138 126.928 143.49 126.55L158.39 110.1C158.963 109.47 159.301 108.662 159.348 107.811C159.396 106.961 159.149 106.12 158.65 105.43L118.27 49.94C115.947 46.7423 114.694 42.8923 114.69 38.94V37.13C114.692 35.8923 115.185 34.706 116.061 33.8307C116.936 32.9555 118.122 32.4627 119.36 32.46H119.62C119.885 32.46 120.139 32.3547 120.327 32.1671C120.514 31.9796 120.62 31.7252 120.62 31.46V25.46C120.62 25.1948 120.514 24.9405 120.327 24.7529C120.139 24.5654 119.885 24.46 119.62 24.46H97.4098C97.1446 24.46 96.8903 24.5654 96.7027 24.7529C96.5152 24.9405 96.4098 25.1948 96.4098 25.46V31.46C96.4098 31.7252 96.5152 31.9796 96.7027 32.1671C96.8903 32.3547 97.1446 32.46 97.4098 32.46H97.6598C98.8976 32.4627 100.084 32.9555 100.959 33.8307C101.834 34.706 102.327 35.8923 102.33 37.13V39.2H102.37ZM147.62 109.5L139.82 118.12C139.474 118.505 139.049 118.812 138.575 119.021C138.101 119.23 137.588 119.335 137.07 119.33H80.0699C79.5527 119.329 79.0414 119.222 78.568 119.013C78.0947 118.805 77.6697 118.501 77.3199 118.12L69.5199 109.5C68.9486 108.869 68.6119 108.06 68.5664 107.209C68.5209 106.359 68.7693 105.519 69.2699 104.83L105.58 54.9001C105.924 54.427 106.375 54.042 106.897 53.7766C107.418 53.5111 107.995 53.3727 108.58 53.3727C109.165 53.3727 109.742 53.5111 110.263 53.7766C110.784 54.042 111.236 54.427 111.58 54.9001L147.89 104.83C148.381 105.526 148.618 106.37 148.561 107.22C148.505 108.07 148.158 108.875 147.58 109.5H147.62Z" fill="white"/>
<path d="M54.7701 142.59H57.7701C57.8219 142.587 57.8738 142.595 57.9221 142.614C57.9705 142.633 58.0141 142.663 58.05 142.7C58.0883 142.736 58.1187 142.779 58.1393 142.827C58.16 142.876 58.1704 142.928 58.17 142.98V165.15C58.1704 165.202 58.16 165.254 58.1393 165.303C58.1187 165.351 58.0883 165.394 58.05 165.43C58.013 165.466 57.9691 165.494 57.9211 165.513C57.873 165.532 57.8217 165.541 57.7701 165.54H54.7701C54.7185 165.541 54.6671 165.532 54.619 165.513C54.571 165.494 54.5271 165.466 54.4901 165.43C54.4518 165.394 54.4214 165.351 54.4008 165.303C54.3801 165.254 54.3697 165.202 54.3701 165.15V149.5C54.3721 149.473 54.3655 149.445 54.3511 149.422C54.3368 149.399 54.3154 149.38 54.29 149.37C54.29 149.37 54.2001 149.37 54.1801 149.44L50.0801 155.74C50.0328 155.82 49.9655 155.886 49.8848 155.931C49.804 155.977 49.7128 156.001 49.6201 156H48.11C48.0171 156.002 47.9254 155.978 47.8445 155.933C47.7636 155.887 47.6965 155.821 47.6501 155.74L43.5201 149.47C43.5186 149.457 43.5138 149.444 43.5062 149.433C43.4985 149.422 43.4882 149.413 43.4763 149.407C43.4644 149.401 43.4512 149.399 43.4379 149.399C43.4245 149.4 43.4116 149.403 43.4001 149.41C43.3747 149.42 43.3534 149.439 43.339 149.462C43.3246 149.485 43.318 149.513 43.3201 149.54V165.15C43.3202 165.254 43.2809 165.354 43.2101 165.43C43.1341 165.501 43.034 165.54 42.9301 165.54H39.9301C39.8262 165.54 39.7261 165.501 39.6501 165.43C39.5793 165.354 39.5399 165.254 39.54 165.15V142.98C39.5399 142.876 39.5793 142.776 39.6501 142.7C39.6865 142.663 39.7301 142.634 39.7784 142.615C39.8266 142.596 39.8783 142.588 39.9301 142.59H42.9301C43.0232 142.587 43.1153 142.61 43.1964 142.656C43.2774 142.702 43.3445 142.769 43.3901 142.85L48.73 150.95C48.7655 150.984 48.8112 151.005 48.86 151.01C48.8809 151.012 48.9017 151.007 48.9197 150.996C48.9376 150.985 48.9518 150.969 48.9601 150.95L54.3101 142.85C54.3548 142.768 54.4216 142.7 54.5029 142.654C54.5842 142.608 54.6768 142.586 54.7701 142.59Z" fill="white"/>
<path d="M62.4197 145.78C62.2005 145.562 62.0287 145.301 61.9151 145.014C61.8015 144.727 61.7486 144.419 61.7598 144.11C61.7486 143.801 61.8015 143.493 61.9151 143.206C62.0287 142.919 62.2005 142.658 62.4197 142.44C62.6379 142.221 62.8987 142.05 63.186 141.936C63.4733 141.823 63.781 141.769 64.0897 141.78C64.3999 141.77 64.709 141.823 64.9979 141.937C65.2867 142.05 65.5494 142.221 65.7698 142.44C65.9858 142.66 66.1548 142.921 66.2665 143.208C66.3783 143.495 66.4304 143.802 66.4197 144.11C66.4304 144.418 66.3783 144.725 66.2665 145.012C66.1548 145.299 65.9858 145.56 65.7698 145.78C65.5494 145.998 65.2867 146.17 64.9979 146.283C64.709 146.397 64.3999 146.45 64.0897 146.44C63.781 146.451 63.4733 146.397 63.186 146.284C62.8987 146.17 62.6379 145.999 62.4197 145.78ZM62.2397 165.38C62.2015 165.344 62.1711 165.301 62.1504 165.253C62.1298 165.204 62.1193 165.152 62.1197 165.1V149.1C62.1181 149.049 62.1281 148.998 62.1489 148.951C62.1696 148.905 62.2007 148.863 62.2397 148.83C62.2756 148.792 62.319 148.761 62.3672 148.741C62.4154 148.72 62.4673 148.71 62.5198 148.71H65.5198C65.5707 148.71 65.621 148.72 65.6676 148.741C65.7141 148.762 65.7558 148.792 65.7897 148.83C65.8288 148.863 65.8598 148.905 65.8806 148.951C65.9014 148.998 65.9113 149.049 65.9097 149.1V165.1C65.9101 165.152 65.8997 165.204 65.879 165.253C65.8584 165.301 65.828 165.344 65.7897 165.38C65.7173 165.45 65.6206 165.49 65.5198 165.49H62.5198C62.4159 165.49 62.3158 165.451 62.2397 165.38V165.38Z" fill="white"/>
<path d="M82.1299 150.05C82.6744 150.618 83.0964 151.292 83.3699 152.03C83.6434 152.768 83.7625 153.554 83.7199 154.34V165.1C83.7203 165.152 83.7098 165.204 83.6892 165.253C83.6685 165.301 83.6381 165.344 83.5999 165.38C83.5238 165.451 83.4238 165.49 83.3199 165.49H80.3199C80.2683 165.491 80.2169 165.482 80.1688 165.463C80.1208 165.444 80.0769 165.416 80.0399 165.38C80.0016 165.344 79.9712 165.301 79.9506 165.253C79.9299 165.204 79.9195 165.152 79.9199 165.1V155.1C79.9633 154.207 79.6586 153.333 79.0699 152.66C78.7849 152.347 78.4348 152.101 78.0443 151.939C77.6538 151.777 77.2324 151.702 76.8099 151.72C76.3864 151.704 75.9643 151.777 75.5713 151.936C75.1783 152.094 74.8234 152.334 74.5299 152.64C73.9298 153.303 73.617 154.177 73.6599 155.07V165.07C73.6603 165.122 73.6498 165.174 73.6292 165.223C73.6085 165.271 73.5781 165.314 73.5399 165.35C73.5028 165.386 73.459 165.414 73.4109 165.433C73.3628 165.452 73.3115 165.461 73.2599 165.46H70.2599C70.156 165.46 70.0559 165.421 69.9799 165.35C69.9416 165.314 69.9112 165.271 69.8906 165.223C69.8699 165.174 69.8595 165.122 69.8599 165.07V149.07C69.8595 149.018 69.8699 148.966 69.8906 148.917C69.9112 148.869 69.9416 148.826 69.9799 148.79C70.0157 148.752 70.0591 148.721 70.1073 148.701C70.1555 148.68 70.2075 148.67 70.2599 148.67H73.2599C73.3125 148.668 73.3648 148.678 73.4132 148.699C73.4616 148.72 73.5048 148.751 73.5399 148.79C73.5781 148.826 73.6085 148.869 73.6292 148.917C73.6498 148.966 73.6603 149.018 73.6599 149.07V150.07C73.6572 150.095 73.6614 150.12 73.672 150.143C73.6826 150.166 73.6991 150.186 73.7199 150.2C73.7199 150.2 73.7999 150.2 73.8199 150.13C74.3052 149.529 74.9288 149.053 75.6375 148.745C76.3462 148.437 77.119 148.305 77.8899 148.36C78.6742 148.34 79.4543 148.48 80.1831 148.77C80.9119 149.061 81.5742 149.496 82.1299 150.05Z" fill="white"/>
<path d="M95.7399 151.7C95.704 151.738 95.6606 151.769 95.6124 151.789C95.5643 151.81 95.5123 151.82 95.4599 151.82H92.1099C92.0881 151.817 92.0658 151.818 92.0448 151.825C92.0238 151.832 92.0048 151.844 91.9892 151.859C91.9736 151.875 91.9619 151.894 91.9551 151.915C91.9483 151.936 91.9465 151.958 91.9499 151.98V159.88C91.8905 160.53 92.0839 161.179 92.4899 161.69C92.7253 161.892 92.9988 162.045 93.2942 162.139C93.5896 162.234 93.901 162.268 94.2099 162.24H95.2099C95.2623 162.24 95.3143 162.25 95.3624 162.271C95.4106 162.291 95.454 162.322 95.4899 162.36C95.5607 162.436 95.6 162.536 95.5999 162.64V165.1C95.6026 165.153 95.5945 165.207 95.5762 165.257C95.558 165.307 95.5298 165.353 95.4935 165.392C95.4571 165.431 95.4133 165.463 95.3646 165.485C95.3159 165.507 95.2633 165.519 95.2099 165.52H93.4999C92.1502 165.613 90.8033 165.304 89.6299 164.63C88.7799 164.04 88.3399 162.93 88.3199 161.29V151.94C88.3233 151.918 88.3215 151.896 88.3147 151.875C88.3079 151.854 88.2962 151.835 88.2806 151.819C88.265 151.804 88.2459 151.792 88.2249 151.785C88.204 151.778 88.1817 151.777 88.1599 151.78H86.2899C86.2373 151.782 86.1849 151.772 86.1365 151.751C86.0882 151.73 86.045 151.699 86.0099 151.66C85.9717 151.624 85.9413 151.581 85.9206 151.533C85.9 151.484 85.8895 151.433 85.8899 151.38V149.09C85.8895 149.038 85.9 148.986 85.9206 148.937C85.9413 148.889 85.9717 148.846 86.0099 148.81C86.045 148.771 86.0882 148.74 86.1365 148.719C86.1849 148.698 86.2373 148.688 86.2899 148.69H88.1599C88.1817 148.693 88.204 148.692 88.2249 148.685C88.2459 148.678 88.265 148.666 88.2806 148.651C88.2962 148.635 88.3079 148.616 88.3147 148.595C88.3215 148.574 88.3233 148.552 88.3199 148.53V144.69C88.3198 144.586 88.3591 144.486 88.4299 144.41C88.5059 144.339 88.606 144.3 88.7099 144.3H91.5699C91.62 144.299 91.6698 144.308 91.7162 144.327C91.7626 144.346 91.8046 144.374 91.8399 144.41C91.8781 144.446 91.9085 144.489 91.9291 144.538C91.9498 144.586 91.9603 144.638 91.9599 144.69V148.59C91.9565 148.612 91.9583 148.634 91.9651 148.655C91.9719 148.676 91.9836 148.695 91.9992 148.711C92.0148 148.726 92.0338 148.738 92.0548 148.745C92.0758 148.752 92.0981 148.754 92.1199 148.75H95.4699C95.5223 148.75 95.5743 148.76 95.6224 148.781C95.6706 148.801 95.714 148.832 95.7499 148.87C95.8207 148.946 95.86 149.046 95.8599 149.15V151.44C95.8524 151.538 95.8098 151.631 95.7399 151.7V151.7Z" fill="white"/>
<path d="M109.1 164.93C107.925 164.462 106.908 163.668 106.17 162.64C105.481 161.613 105.131 160.396 105.17 159.16V158.34C105.17 158.288 105.18 158.236 105.201 158.187C105.221 158.139 105.252 158.096 105.29 158.06C105.327 158.024 105.371 157.996 105.419 157.977C105.467 157.958 105.518 157.949 105.57 157.95H108.48C108.532 157.949 108.583 157.958 108.631 157.977C108.679 157.996 108.723 158.024 108.76 158.06C108.798 158.096 108.829 158.139 108.849 158.187C108.87 158.236 108.88 158.288 108.88 158.34V158.97C108.88 159.465 109.002 159.952 109.236 160.388C109.47 160.825 109.808 161.196 110.22 161.47C111.305 162.195 112.597 162.546 113.9 162.47C114.969 162.546 116.03 162.246 116.9 161.62C117.224 161.354 117.482 161.018 117.656 160.636C117.829 160.255 117.913 159.839 117.9 159.42C117.914 158.851 117.714 158.298 117.34 157.87C116.891 157.381 116.351 156.983 115.75 156.7C115.06 156.35 114.03 155.92 112.65 155.39C111.36 154.936 110.1 154.398 108.88 153.78C107.936 153.304 107.112 152.62 106.47 151.78C105.791 150.842 105.439 149.707 105.47 148.55C105.435 147.679 105.607 146.813 105.972 146.022C106.337 145.231 106.885 144.538 107.57 144C109.19 142.81 111.172 142.217 113.18 142.32C114.672 142.291 116.152 142.584 117.52 143.18C118.701 143.681 119.719 144.502 120.46 145.55C121.148 146.596 121.497 147.828 121.46 149.08V149.64C121.462 149.691 121.452 149.742 121.431 149.789C121.41 149.835 121.379 149.877 121.34 149.91C121.306 149.948 121.264 149.978 121.218 149.999C121.171 150.02 121.121 150.03 121.07 150.03H118.07C118.019 150.032 117.968 150.022 117.921 150.001C117.874 149.98 117.833 149.949 117.8 149.91C117.761 149.877 117.73 149.835 117.709 149.789C117.688 149.742 117.678 149.691 117.68 149.64V149.28C117.683 148.778 117.571 148.281 117.353 147.829C117.134 147.376 116.815 146.98 116.42 146.67C115.422 145.908 114.184 145.529 112.93 145.6C111.935 145.538 110.948 145.805 110.12 146.36C109.791 146.606 109.528 146.928 109.354 147.3C109.179 147.671 109.099 148.08 109.12 148.49C109.099 149.073 109.287 149.644 109.65 150.1C110.091 150.58 110.625 150.964 111.22 151.23C112.28 151.716 113.365 152.146 114.47 152.52C115.738 152.989 116.98 153.526 118.19 154.13C119.127 154.609 119.944 155.292 120.58 156.13C121.271 157.062 121.624 158.201 121.58 159.36C121.614 160.258 121.434 161.152 121.055 161.968C120.676 162.783 120.109 163.497 119.4 164.05C117.671 165.287 115.572 165.897 113.45 165.78C111.958 165.791 110.478 165.502 109.1 164.93V164.93Z" fill="white"/>
<path d="M133.09 151.7C133.054 151.738 133.01 151.769 132.962 151.789C132.914 151.81 132.862 151.82 132.81 151.82H129.46C129.438 151.817 129.416 151.818 129.395 151.825C129.374 151.832 129.355 151.844 129.339 151.859C129.323 151.875 129.312 151.894 129.305 151.915C129.298 151.936 129.296 151.958 129.3 151.98V159.88C129.24 160.53 129.434 161.179 129.84 161.69C130.075 161.892 130.349 162.045 130.644 162.139C130.939 162.234 131.251 162.268 131.56 162.24H132.56C132.612 162.24 132.664 162.25 132.712 162.271C132.76 162.291 132.804 162.322 132.84 162.36C132.911 162.436 132.95 162.536 132.95 162.64V165.1C132.952 165.153 132.944 165.207 132.926 165.257C132.908 165.307 132.88 165.353 132.843 165.392C132.807 165.431 132.763 165.463 132.714 165.485C132.666 165.507 132.613 165.519 132.56 165.52H130.85C129.5 165.613 128.153 165.304 126.98 164.63C126.13 164.04 125.69 162.93 125.67 161.29V151.94C125.673 151.918 125.671 151.896 125.665 151.875C125.658 151.854 125.646 151.835 125.63 151.819C125.615 151.804 125.596 151.792 125.575 151.785C125.554 151.778 125.532 151.777 125.51 151.78H123.64C123.587 151.782 123.535 151.772 123.486 151.751C123.438 151.73 123.395 151.699 123.36 151.66C123.322 151.624 123.291 151.581 123.27 151.533C123.25 151.484 123.239 151.433 123.24 151.38V149.09C123.239 149.038 123.25 148.986 123.27 148.937C123.291 148.889 123.322 148.846 123.36 148.81C123.395 148.771 123.438 148.74 123.486 148.719C123.535 148.698 123.587 148.688 123.64 148.69H125.51C125.532 148.693 125.554 148.692 125.575 148.685C125.596 148.678 125.615 148.666 125.63 148.651C125.646 148.635 125.658 148.616 125.665 148.595C125.671 148.574 125.673 148.552 125.67 148.53V144.69C125.669 144.638 125.68 144.586 125.7 144.538C125.721 144.489 125.752 144.446 125.79 144.41C125.825 144.374 125.867 144.346 125.913 144.327C125.96 144.308 126.01 144.299 126.06 144.3H128.92C129.024 144.3 129.124 144.339 129.2 144.41C129.271 144.486 129.31 144.586 129.31 144.69V148.59C129.306 148.612 129.308 148.634 129.315 148.655C129.322 148.676 129.333 148.695 129.349 148.711C129.365 148.726 129.384 148.738 129.405 148.745C129.426 148.752 129.448 148.754 129.47 148.75H132.82C132.872 148.75 132.924 148.76 132.972 148.781C133.02 148.801 133.064 148.832 133.1 148.87C133.171 148.946 133.21 149.046 133.21 149.15V151.44C133.202 151.538 133.16 151.631 133.09 151.7V151.7Z" fill="white"/>
<path d="M146.17 149.19C147.15 149.618 147.992 150.31 148.6 151.19C149.166 152.039 149.462 153.04 149.45 154.06V165.06C149.45 165.112 149.44 165.164 149.419 165.213C149.399 165.261 149.368 165.304 149.33 165.34C149.293 165.376 149.249 165.404 149.201 165.423C149.153 165.442 149.102 165.451 149.05 165.45H146.05C145.946 165.45 145.846 165.411 145.77 165.34C145.732 165.304 145.701 165.261 145.681 165.213C145.66 165.164 145.65 165.112 145.65 165.06V164.06C145.65 163.987 145.63 163.947 145.59 163.94C145.566 163.936 145.541 163.939 145.518 163.948C145.495 163.956 145.475 163.971 145.46 163.99C144.855 164.602 144.126 165.077 143.322 165.382C142.518 165.687 141.658 165.816 140.8 165.76C139.365 165.809 137.955 165.372 136.8 164.52C136.26 164.072 135.834 163.502 135.558 162.857C135.281 162.212 135.162 161.51 135.21 160.81C135.17 160.049 135.312 159.29 135.623 158.594C135.934 157.899 136.406 157.287 137 156.81C138.457 155.781 140.219 155.277 142 155.38H145.51C145.532 155.384 145.554 155.382 145.575 155.375C145.596 155.368 145.615 155.356 145.631 155.341C145.646 155.325 145.658 155.306 145.665 155.285C145.672 155.264 145.673 155.242 145.67 155.22V154.43C145.694 154.062 145.64 153.694 145.511 153.349C145.381 153.004 145.18 152.691 144.92 152.43C144.285 151.914 143.476 151.66 142.66 151.72C141.967 151.695 141.279 151.846 140.66 152.16C140.418 152.286 140.205 152.46 140.033 152.672C139.861 152.883 139.734 153.128 139.66 153.39C139.6 153.66 139.44 153.77 139.2 153.72L136.02 153.33C135.918 153.313 135.822 153.272 135.74 153.21C135.706 153.188 135.68 153.156 135.666 153.118C135.651 153.08 135.649 153.039 135.66 153C135.755 152.329 135.997 151.687 136.369 151.12C136.74 150.553 137.232 150.075 137.81 149.72C139.224 148.825 140.877 148.378 142.55 148.44C143.797 148.427 145.031 148.682 146.17 149.19V149.19ZM144.5 161.88C144.853 161.642 145.142 161.32 145.341 160.943C145.539 160.566 145.642 160.146 145.64 159.72V158.18C145.64 158.07 145.64 158.01 145.48 158.01H142.73C141.772 157.958 140.819 158.187 139.99 158.67C139.672 158.865 139.412 159.141 139.237 159.47C139.061 159.798 138.976 160.168 138.99 160.54C138.973 160.853 139.035 161.165 139.169 161.448C139.304 161.731 139.507 161.975 139.76 162.16C140.342 162.573 141.047 162.777 141.76 162.74C142.743 162.76 143.705 162.458 144.5 161.88V161.88Z" fill="white"/>
<path d="M161.37 151.7C161.334 151.738 161.291 151.769 161.243 151.789C161.194 151.81 161.142 151.82 161.09 151.82H157.74C157.718 151.817 157.696 151.818 157.675 151.825C157.654 151.832 157.635 151.844 157.619 151.859C157.604 151.875 157.592 151.894 157.585 151.915C157.578 151.936 157.577 151.958 157.58 151.98V159.88C157.521 160.53 157.714 161.179 158.12 161.69C158.355 161.892 158.629 162.045 158.924 162.139C159.22 162.234 159.531 162.268 159.84 162.24H160.84C160.892 162.24 160.944 162.25 160.993 162.271C161.041 162.291 161.084 162.322 161.12 162.36C161.191 162.436 161.23 162.536 161.23 162.64V165.1C161.233 165.153 161.225 165.207 161.206 165.257C161.188 165.307 161.16 165.353 161.124 165.392C161.087 165.431 161.043 165.463 160.995 165.485C160.946 165.507 160.893 165.519 160.84 165.52H159.13C157.78 165.613 156.433 165.304 155.26 164.63C154.41 164.04 153.97 162.93 153.95 161.29V151.94C153.953 151.918 153.952 151.896 153.945 151.875C153.938 151.854 153.926 151.835 153.911 151.819C153.895 151.804 153.876 151.792 153.855 151.785C153.834 151.778 153.812 151.777 153.79 151.78H151.92C151.867 151.782 151.815 151.772 151.767 151.751C151.718 151.73 151.675 151.699 151.64 151.66C151.602 151.624 151.571 151.581 151.551 151.533C151.53 151.484 151.52 151.433 151.52 151.38V149.09C151.52 149.038 151.53 148.986 151.551 148.937C151.571 148.889 151.602 148.846 151.64 148.81C151.675 148.771 151.718 148.74 151.767 148.719C151.815 148.698 151.867 148.688 151.92 148.69H153.79C153.812 148.693 153.834 148.692 153.855 148.685C153.876 148.678 153.895 148.666 153.911 148.651C153.926 148.635 153.938 148.616 153.945 148.595C153.952 148.574 153.953 148.552 153.95 148.53V144.69C153.95 144.638 153.96 144.586 153.981 144.538C154.001 144.489 154.032 144.446 154.07 144.41C154.105 144.374 154.147 144.346 154.194 144.327C154.24 144.308 154.29 144.299 154.34 144.3H157.2C157.304 144.3 157.404 144.339 157.48 144.41C157.551 144.486 157.59 144.586 157.59 144.69V148.59C157.587 148.612 157.588 148.634 157.595 148.655C157.602 148.676 157.614 148.695 157.629 148.711C157.645 148.726 157.664 148.738 157.685 148.745C157.706 148.752 157.728 148.754 157.75 148.75H161.1C161.152 148.75 161.204 148.76 161.253 148.781C161.301 148.801 161.344 148.832 161.38 148.87C161.451 148.946 161.49 149.046 161.49 149.15V151.44C161.483 151.538 161.44 151.631 161.37 151.7V151.7Z" fill="white"/>
<path d="M178.06 157.06V158.06C178.067 158.114 178.061 158.168 178.043 158.219C178.025 158.271 177.996 158.317 177.957 158.355C177.918 158.392 177.871 158.421 177.82 158.437C177.768 158.454 177.713 158.458 177.66 158.45H167.37C167.26 158.45 167.21 158.51 167.21 158.62C167.225 159.123 167.323 159.619 167.5 160.09C168.02 161.67 169.3 162.46 171.34 162.49C172.037 162.505 172.726 162.344 173.345 162.022C173.963 161.701 174.491 161.229 174.88 160.65C174.914 160.592 174.962 160.543 175.019 160.508C175.077 160.473 175.143 160.453 175.21 160.45C175.296 160.456 175.377 160.491 175.44 160.55L177.44 162.22C177.485 162.245 177.524 162.279 177.554 162.321C177.584 162.363 177.605 162.411 177.615 162.461C177.624 162.512 177.622 162.564 177.61 162.614C177.597 162.664 177.573 162.71 177.54 162.75C176.849 163.719 175.914 164.488 174.83 164.98C173.653 165.514 172.373 165.784 171.08 165.77C169.549 165.815 168.038 165.416 166.73 164.62C165.54 163.854 164.628 162.725 164.13 161.4C163.556 159.829 163.298 158.161 163.37 156.49C163.34 155.446 163.471 154.404 163.76 153.4C164.149 151.946 165.024 150.668 166.24 149.78C167.516 148.871 169.054 148.404 170.62 148.45C174.933 148.45 177.36 150.703 177.9 155.21C178.004 155.821 178.057 156.44 178.06 157.06V157.06ZM168.63 152.36C168.08 152.786 167.683 153.379 167.5 154.05C167.35 154.516 167.263 155.001 167.24 155.49C167.24 155.6 167.24 155.65 167.37 155.65H174.03C174.052 155.653 174.074 155.652 174.095 155.645C174.116 155.638 174.135 155.626 174.151 155.611C174.166 155.595 174.178 155.576 174.185 155.555C174.192 155.534 174.193 155.512 174.19 155.49C174.169 155.067 174.102 154.648 173.99 154.24C173.834 153.511 173.423 152.862 172.83 152.41C172.197 151.954 171.43 151.722 170.65 151.75C169.927 151.721 169.216 151.936 168.63 152.36Z" fill="white"/>
<path d="M84.4599 187.97C84.4356 187.945 84.4169 187.915 84.4048 187.882C84.3928 187.85 84.3877 187.815 84.3899 187.78V173.21C84.3885 173.177 84.3939 173.144 84.406 173.113C84.418 173.082 84.4364 173.053 84.4599 173.03C84.4816 173.004 84.5092 172.983 84.5404 172.969C84.5717 172.955 84.6058 172.948 84.6399 172.95H86.6399C86.6741 172.948 86.7081 172.955 86.7393 172.969C86.7706 172.983 86.7982 173.004 86.8199 173.03C86.8447 173.053 86.8646 173.081 86.8784 173.112C86.8921 173.143 86.8995 173.176 86.8999 173.21V185.78C86.8999 185.85 86.8999 185.89 86.9999 185.89H94.2299C94.2631 185.889 94.2962 185.894 94.3272 185.906C94.3582 185.918 94.3864 185.937 94.4099 185.96C94.4355 185.985 94.4557 186.014 94.4695 186.047C94.4833 186.079 94.4902 186.115 94.4899 186.15V187.78C94.4902 187.815 94.4833 187.851 94.4695 187.883C94.4557 187.916 94.4355 187.945 94.4099 187.97C94.3864 187.994 94.3582 188.012 94.3272 188.024C94.2962 188.036 94.2631 188.041 94.2299 188.04H84.6499C84.6151 188.043 84.58 188.038 84.5471 188.026C84.5143 188.014 84.4846 187.995 84.4599 187.97V187.97Z" fill="white"/>
<path d="M103.08 177.33C103.722 177.604 104.274 178.055 104.67 178.63C105.048 179.187 105.244 179.847 105.23 180.52V187.78C105.232 187.815 105.227 187.85 105.215 187.882C105.203 187.915 105.184 187.945 105.16 187.97C105.135 187.994 105.105 188.013 105.072 188.025C105.04 188.037 105.005 188.042 104.97 188.04H102.97C102.937 188.041 102.904 188.036 102.873 188.024C102.842 188.012 102.813 187.994 102.79 187.97C102.764 187.945 102.744 187.916 102.73 187.883C102.717 187.851 102.71 187.815 102.71 187.78V187.09C102.71 187.09 102.71 187.03 102.71 187.02C102.696 187.012 102.681 187.008 102.665 187.008C102.649 187.008 102.634 187.012 102.62 187.02C102.225 187.425 101.747 187.74 101.219 187.942C100.69 188.144 100.124 188.229 99.56 188.19C98.6059 188.227 97.6677 187.938 96.9 187.37C96.553 187.071 96.2815 186.694 96.1077 186.27C95.9339 185.846 95.8628 185.387 95.9 184.93C95.8756 184.431 95.9698 183.933 96.175 183.478C96.3801 183.023 96.6902 182.622 97.08 182.31C98.0426 181.626 99.2114 181.294 100.39 181.37H102.69C102.77 181.37 102.8 181.37 102.8 181.26V180.75C102.815 180.509 102.779 180.268 102.695 180.043C102.611 179.817 102.479 179.611 102.31 179.44C101.89 179.102 101.357 178.937 100.82 178.98C100.359 178.962 99.9012 179.061 99.49 179.27C99.332 179.351 99.1937 179.465 99.0849 179.605C98.976 179.745 98.8992 179.907 98.86 180.08C98.8554 180.115 98.8434 180.149 98.8249 180.179C98.8063 180.209 98.7815 180.235 98.7522 180.255C98.7229 180.275 98.6897 180.288 98.6549 180.294C98.62 180.3 98.5842 180.299 98.55 180.29L96.46 180.04C96.3952 180.026 96.3339 179.999 96.2799 179.96C96.2556 179.947 96.237 179.926 96.2277 179.9C96.2185 179.874 96.2193 179.845 96.2299 179.82C96.2895 179.378 96.447 178.954 96.6909 178.581C96.9349 178.207 97.2591 177.892 97.64 177.66C98.567 177.07 99.652 176.777 100.75 176.82C101.554 176.822 102.348 176.996 103.08 177.33V177.33ZM101.98 185.67C102.212 185.513 102.402 185.302 102.533 185.054C102.664 184.806 102.732 184.53 102.73 184.25V183.25C102.73 183.18 102.73 183.15 102.62 183.15H100.81C100.181 183.115 99.5554 183.265 99.01 183.58C98.8013 183.709 98.6303 183.89 98.5144 184.106C98.3985 184.322 98.3417 184.565 98.3499 184.81C98.3396 185.015 98.381 185.22 98.4701 185.405C98.5591 185.59 98.6932 185.75 98.86 185.87C99.2415 186.14 99.703 186.274 100.17 186.25C100.821 186.263 101.458 186.059 101.98 185.67V185.67Z" fill="white"/>
<path d="M116.81 182.5C116.824 183.417 116.686 184.329 116.4 185.2C116.137 186.083 115.601 186.86 114.87 187.42C114.119 187.967 113.208 188.248 112.28 188.22C111.806 188.228 111.337 188.129 110.908 187.93C110.478 187.731 110.099 187.437 109.8 187.07C109.789 187.06 109.775 187.055 109.76 187.055C109.745 187.055 109.731 187.06 109.72 187.07C109.72 187.07 109.67 187.07 109.67 187.16V187.82C109.672 187.855 109.667 187.89 109.655 187.922C109.643 187.955 109.624 187.985 109.6 188.01C109.576 188.034 109.548 188.052 109.517 188.064C109.486 188.076 109.453 188.081 109.42 188.08H107.42C107.387 188.081 107.354 188.076 107.323 188.064C107.292 188.052 107.263 188.034 107.24 188.01C107.214 187.986 107.194 187.956 107.18 187.923C107.167 187.891 107.16 187.855 107.16 187.82V173.25C107.16 173.216 107.168 173.183 107.181 173.152C107.195 173.121 107.215 173.093 107.24 173.07C107.262 173.044 107.289 173.023 107.321 173.009C107.352 172.995 107.386 172.988 107.42 172.99H109.42C109.454 172.988 109.488 172.995 109.519 173.009C109.551 173.023 109.578 173.044 109.6 173.07C109.623 173.094 109.642 173.122 109.654 173.153C109.666 173.184 109.671 173.217 109.67 173.25V177.93C109.669 177.947 109.673 177.964 109.682 177.978C109.691 177.993 109.704 178.004 109.72 178.01C109.725 178.016 109.731 178.021 109.738 178.025C109.745 178.028 109.752 178.03 109.76 178.03C109.768 178.03 109.775 178.028 109.782 178.025C109.789 178.021 109.795 178.016 109.8 178.01C110.099 177.652 110.476 177.366 110.903 177.176C111.329 176.985 111.793 176.894 112.26 176.91C113.205 176.873 114.135 177.154 114.9 177.71C115.625 178.278 116.162 179.052 116.44 179.93C116.689 180.764 116.814 181.63 116.81 182.5V182.5ZM114.25 182.5C114.299 181.578 114.073 180.663 113.6 179.87C113.418 179.579 113.162 179.342 112.858 179.184C112.554 179.026 112.212 178.952 111.87 178.97C111.539 178.96 111.212 179.044 110.927 179.212C110.642 179.38 110.411 179.626 110.26 179.92C109.856 180.71 109.67 181.594 109.72 182.48C109.665 183.342 109.834 184.203 110.21 184.98C110.368 185.29 110.61 185.549 110.909 185.726C111.209 185.903 111.552 185.991 111.9 185.98C112.274 185.987 112.644 185.894 112.97 185.71C113.289 185.528 113.552 185.262 113.73 184.94C114.09 184.21 114.268 183.404 114.25 182.59V182.5Z" fill="white"/>
<path d="M120.49 187.77C119.87 187.554 119.321 187.174 118.9 186.67C118.536 186.232 118.338 185.68 118.34 185.11V184.92C118.34 184.884 118.346 184.849 118.36 184.817C118.374 184.784 118.394 184.755 118.42 184.73C118.443 184.706 118.472 184.688 118.503 184.676C118.534 184.664 118.567 184.658 118.6 184.66H120.5C120.533 184.658 120.566 184.664 120.597 184.676C120.628 184.688 120.656 184.706 120.68 184.73C120.705 184.755 120.726 184.784 120.74 184.817C120.753 184.849 120.76 184.884 120.76 184.92V184.92C120.769 185.114 120.828 185.303 120.932 185.467C121.035 185.632 121.179 185.767 121.35 185.86C121.799 186.138 122.321 186.278 122.85 186.26C123.342 186.281 123.829 186.156 124.25 185.9C124.413 185.816 124.55 185.688 124.645 185.531C124.74 185.374 124.79 185.194 124.79 185.01C124.794 184.856 124.755 184.705 124.678 184.572C124.6 184.439 124.486 184.331 124.35 184.26C123.888 184.037 123.406 183.86 122.91 183.73L122.09 183.47C121.454 183.296 120.835 183.065 120.24 182.78C119.745 182.549 119.311 182.206 118.97 181.78C118.606 181.317 118.422 180.738 118.45 180.15C118.438 179.683 118.54 179.221 118.748 178.803C118.955 178.384 119.261 178.023 119.64 177.75C120.552 177.115 121.65 176.802 122.76 176.86C123.55 176.843 124.336 176.986 125.07 177.28C125.678 177.517 126.208 177.919 126.6 178.44C126.958 178.93 127.147 179.523 127.14 180.13C127.139 180.201 127.111 180.27 127.06 180.32C127.036 180.343 127.008 180.362 126.977 180.374C126.946 180.386 126.913 180.391 126.88 180.39H125.05C125.015 180.392 124.98 180.386 124.948 180.374C124.915 180.362 124.885 180.344 124.86 180.32C124.836 180.295 124.818 180.265 124.806 180.232C124.794 180.199 124.788 180.165 124.79 180.13C124.786 179.939 124.733 179.753 124.637 179.589C124.541 179.424 124.404 179.287 124.24 179.19C123.788 178.92 123.266 178.791 122.74 178.82C122.264 178.798 121.79 178.905 121.37 179.13C121.212 179.214 121.079 179.339 120.986 179.492C120.893 179.645 120.842 179.821 120.84 180C120.838 180.167 120.885 180.331 120.976 180.472C121.066 180.612 121.197 180.723 121.35 180.79C121.891 181.045 122.458 181.242 123.04 181.38L123.52 181.51C124.174 181.704 124.815 181.938 125.44 182.21C125.945 182.443 126.392 182.785 126.75 183.21C127.124 183.673 127.316 184.256 127.29 184.85C127.308 185.321 127.207 185.789 126.995 186.211C126.784 186.632 126.469 186.993 126.08 187.26C125.129 187.883 124.005 188.188 122.87 188.13C122.061 188.161 121.253 188.039 120.49 187.77Z" fill="white"/>
</svg>
