<svg width="64" height="64" viewBox="0 0 64 64" fill="none" xmlns="http://www.w3.org/2000/svg">
<circle cx="32" cy="32" r="32" fill="url(#paint0_linear_2724_15)"/>
<path d="M39.8445 32.2845C39.8445 30.9142 40.9409 29.8179 42.3114 29.8179C43.6819 29.8179 44.7783 30.9142 44.7783 32.2845C44.7783 33.6549 43.6819 34.7512 42.3114 34.7512C40.9409 34.7512 39.8445 33.6092 39.8445 32.2845Z" fill="white"/>
<path d="M54.7375 38.2689C54.6461 39.0454 54.5547 39.822 54.3263 40.5528C53.6411 43.1565 52.1335 45.5318 49.6666 46.8565C46.286 48.5923 42.2658 47.9528 38.8852 46.6281C36.0985 48.5923 36.0985 48.5923 36.0985 48.5923C35.459 49.0034 34.6367 48.3182 35.0021 47.6331C34.2255 47.7701 33.9971 47.0392 34.2255 46.4454C33.5859 46.9479 33.0377 46.0343 33.4032 45.4862C33.6316 45.1207 33.9971 44.7096 34.2712 44.3899C30.3424 42.1516 26.7791 39.4109 23.1701 36.7158C25.2258 37.9948 33.4489 42.1973 35.459 43.0652C37.5604 43.9788 39.6619 44.8923 41.8547 45.3948C43.682 45.8059 46.0119 46.0343 47.7022 44.9837C49.2554 44.0701 49.8493 42.1973 50.0777 40.5072C50.6259 36.8528 49.3468 32.7417 47.4281 29.6356C45.418 26.3924 42.1288 23.4689 38.3827 22.5097C37.0122 22.1442 35.6417 22.1442 34.3626 22.3726C31.3931 22.8751 28.6978 24.7023 26.642 26.9862C23.6726 30.2751 21.6168 34.3405 19.7438 38.3603C18.4647 41.0553 16.683 47.6331 12.4801 45.0294C10.6071 43.8417 9.41931 41.7862 8.59701 39.7763C7.68333 37.6294 7.04376 34.7516 7.63765 32.422C8.91679 27.5344 15.7693 31.8738 18.0992 33.4269C17.9621 33.3813 12.4801 30.8689 10.47 32.8331C9.55636 33.7467 9.60205 35.3911 9.7391 36.5788C10.0132 38.7257 11.0639 41.9232 13.074 43.1109C15.678 44.6183 17.0028 39.9133 17.688 38.2689C18.8301 35.4825 19.9265 32.6961 21.2057 29.9553C22.6219 26.9405 24.3122 23.9714 26.642 21.5504C26.1395 20.9566 25.4086 20.2257 25.3629 19.4492C25.2715 18.5813 26.1395 17.622 27.0532 18.0788C26.0025 16.8912 27.4187 15.1097 28.7892 15.7949C28.1496 14.7899 29.1546 13.5109 30.2054 13.5566C30.7992 13.5566 31.3931 14.0591 31.85 14.3788C33.0377 15.1554 34.2255 15.9776 35.459 16.7541C46.8342 14.9727 55.7425 27.8998 54.7375 38.2689Z" fill="white"/>
<defs>
<linearGradient id="paint0_linear_2724_15" x1="-2.38419e-07" y1="32" x2="64" y2="32" gradientUnits="userSpaceOnUse">
<stop stop-color="#030332"/>
<stop offset="1" stop-color="#171753"/>
</linearGradient>
</defs>
</svg>
