<svg width="46" height="46" fill="none" xmlns="http://www.w3.org/2000/svg"><path d="m39.836 9.644-13.6-7.796a6.406 6.406 0 0 0-6.37 0L6.327 9.668a6.37 6.37 0 0 0-3.185 5.518v15.67a6.426 6.426 0 0 0 3.185 5.519l13.537 7.772a6.37 6.37 0 0 0 6.37 0l13.537-7.82a6.37 6.37 0 0 0 3.186-5.518V15.186a6.215 6.215 0 0 0-3.122-5.542Zm-.064 21.165a3.185 3.185 0 0 1-1.592 2.763l-13.537 7.815a3.185 3.185 0 0 1-3.185 0l-7.485-4.315 2.787-1.593a3.185 3.185 0 0 0 1.592-2.763v-12.43l4.69-2.715 1.505.867v-3.662a3.185 3.185 0 0 0-3.097.04l-4.69 2.707a3.185 3.185 0 0 0-1.593 2.763v12.406l-4.38 2.532-2.866-1.656a3.22 3.22 0 0 1-1.593-2.715v-3.265l4.42-2.548 1.234.708v-3.643a3.185 3.185 0 0 0-2.827.176l-2.827 1.632v-8.727a3.185 3.185 0 0 1 1.593-2.763L21.458 4.61a3.166 3.166 0 0 1 3.185 0l7.477 4.316-2.787 1.593a3.185 3.185 0 0 0-1.592 2.763v12.43l-4.699 2.715-1.505-.868v3.67a3.162 3.162 0 0 0 3.098-.047l4.698-2.707a3.185 3.185 0 0 0 1.593-2.763V13.275l4.38-2.5 2.858 1.648a3.185 3.185 0 0 1 1.592 2.763v3.137l-4.419 2.524-1.234-.708v3.655c.392.158.811.24 1.234.238a3.185 3.185 0 0 0 1.593-.398l2.834-1.624.008 8.799Z" fill="#7B3FE4"/></svg>