<svg width="46" height="46" fill="none" xmlns="http://www.w3.org/2000/svg"><path d="M39.624 9.672 26.09 1.853a6.369 6.369 0 0 0-6.37 0L6.186 9.672A6.369 6.369 0 0 0 3 15.189v15.622a6.37 6.37 0 0 0 3.185 5.517l13.535 7.819a6.37 6.37 0 0 0 6.37 0l13.534-7.819a6.368 6.368 0 0 0 3.185-5.517V15.189a6.368 6.368 0 0 0-3.184-5.517Zm0 21.139a3.185 3.185 0 0 1-1.592 2.758l-13.535 7.81a3.145 3.145 0 0 1-3.185 0L7.777 33.57a3.184 3.184 0 0 1-1.592-2.758V15.189a3.213 3.213 0 0 1 1.592-2.766l13.535-7.81a3.185 3.185 0 0 1 3.185 0l13.535 7.81a3.214 3.214 0 0 1 1.593 2.766v15.622Z" fill="#7B3FE4"/><path d="m35.245 21.316-5.175-2.985a2.413 2.413 0 0 0-2.388 0l-10.749 6.214-4.379-2.532v-5.06l4.38-2.532 4.378 2.532v2.723l3.185-1.851V16.49a2.388 2.388 0 0 0-1.194-2.07l-5.175-2.965a2.412 2.412 0 0 0-2.39 0l-5.174 2.985a2.417 2.417 0 0 0-1.195 2.07v5.972a2.42 2.42 0 0 0 1.195 2.074l5.175 2.985a2.433 2.433 0 0 0 2.389 0l10.748-6.226 4.379 2.536v5.052l-4.379 2.532-4.38-2.532v-2.755l-3.184 1.84v1.38a2.389 2.389 0 0 0 1.194 2.059l5.176 2.993a2.36 2.36 0 0 0 1.194.323 2.32 2.32 0 0 0 1.194-.323l5.175-2.985a2.388 2.388 0 0 0 1.195-2.066v-5.972a2.389 2.389 0 0 0-1.195-2.082Z" fill="#7B3FE4"/></svg>