<svg width="46" height="46" fill="none" xmlns="http://www.w3.org/2000/svg"><path d="M39.338 9.667 25.801 1.848a6.406 6.406 0 0 0-6.37 0L5.894 9.668a6.37 6.37 0 0 0-3.185 5.518v15.67a6.37 6.37 0 0 0 3.185 5.471l13.537 7.82a6.37 6.37 0 0 0 6.37 0l13.537-7.82a6.37 6.37 0 0 0 3.185-5.518V15.138a6.37 6.37 0 0 0-3.185-5.47ZM5.894 15.186a3.185 3.185 0 0 1 1.593-2.763L21.024 4.61a3.165 3.165 0 0 1 3.185 0l13.537 7.812a3.185 3.185 0 0 1 1.592 2.715v1.592a4.69 4.69 0 0 1-4.682 4.675h-24.08a7.78 7.78 0 0 0-4.682 1.552v-7.771Zm33.444 15.623a3.184 3.184 0 0 1-1.593 2.763L24.21 41.383a3.185 3.185 0 0 1-3.186 0L7.487 33.572a3.185 3.185 0 0 1-1.593-2.715v-1.593a4.69 4.69 0 0 1 4.682-4.674h24.08a7.78 7.78 0 0 0 4.682-1.553v7.772Z" fill="#7B3FE4"/><path d="M15.21 14.39h3.09v4.626h3.185v-4.627a3.185 3.185 0 0 0-3.185-3.185h-3.09a3.185 3.185 0 0 0-3.185 3.185v4.627h3.186v-4.627ZM18.3 31.605h-3.09v-4.627h-3.185v4.627a3.185 3.185 0 0 0 3.186 3.185h3.09a3.185 3.185 0 0 0 3.184-3.185v-4.627H18.3v4.627ZM27.76 14.39h3.098v4.626h3.185v-4.627a3.185 3.185 0 0 0-3.185-3.185H27.76a3.185 3.185 0 0 0-3.185 3.185v4.627h3.185v-4.627ZM30.858 31.605H27.76v-4.627h-3.185v4.627a3.185 3.185 0 0 0 3.185 3.185h3.098a3.185 3.185 0 0 0 3.185-3.185v-4.627h-3.185v4.627Z" fill="#7B3FE4"/></svg>