<svg width="46" height="46" fill="none" xmlns="http://www.w3.org/2000/svg"><path d="M39.63 9.668 26.093 1.85a6.399 6.399 0 0 0-6.372 0L14.96 4.6a9.556 9.556 0 0 1 3.231 1.814l3.124-1.804a3.19 3.19 0 0 1 3.186 0l4.663 2.693-6.458 5.847 1.634 2.823 7.723-6.997 5.973 3.452a3.186 3.186 0 0 1 1.593 2.755v6.023l-10.187 3.612 1.62 2.805 8.567-3.038v6.234a3.19 3.19 0 0 1-1.584 2.75c-.004 0-.004.005-.009.005 0 0-2.733 1.58-2.76 1.593a3.178 3.178 0 0 1-4.25-1.207L17.478 10.489a6.381 6.381 0 0 0-8.689-2.33l-2.594 1.5-.013.009A6.395 6.395 0 0 0 3 15.183V30.82a6.394 6.394 0 0 0 3.182 5.515l13.54 7.818a6.41 6.41 0 0 0 6.372 0l4.713-2.724a9.479 9.479 0 0 1-3.232-1.813l-3.074 1.777a3.204 3.204 0 0 1-3.186 0l-11.058-6.386 11.65-4.134-1.62-2.805-11.933 4.237a.713.713 0 0 1-.713-1.203l9.45-8.562-1.628-2.823-9.281 8.405V15.183a3.186 3.186 0 0 1 1.593-2.755l.014-.01 2.652-1.53a3.177 3.177 0 0 1 4.277 1.194L28.27 35.553a6.38 6.38 0 0 0 8.684 2.325l2.674-1.544c.005 0 .005-.004.01-.004a6.388 6.388 0 0 0 3.177-5.511V15.183a6.389 6.389 0 0 0-3.187-5.515Z" fill="#7B3FE4"/></svg>