<svg width="46" height="46" fill="none" xmlns="http://www.w3.org/2000/svg"><path d="M39.517 9.667 25.954 1.848a6.429 6.429 0 0 0-6.383 0L6.007 9.668a6.377 6.377 0 0 0-3.191 5.518v15.623a6.36 6.36 0 0 0 3.191 5.518l13.564 7.82a6.392 6.392 0 0 0 6.383 0l13.563-7.82a6.376 6.376 0 0 0 3.192-5.518V15.186a6.36 6.36 0 0 0-3.192-5.519Zm-18.35-5.056a3.176 3.176 0 0 1 3.191 0l13.564 7.812h.024l-15.184 8.942-6.758-3.982 6.758-3.893 3.662 2.11 3.144-1.856-5.21-3.01a3.196 3.196 0 0 0-3.191 0l-8.25 4.754a.247.247 0 0 0-.056.04l-5.258-3.105L21.167 4.61ZM7.603 33.571a3.189 3.189 0 0 1-1.596-2.762V15.186l15.184 8.958v7.453l-6.679-3.846v-3.846l-3.191-1.887v5.733a3.18 3.18 0 0 0 1.596 2.755l8.25 4.754h.023v6.123h-.023L7.603 33.572Zm31.914-2.762a3.179 3.179 0 0 1-1.595 2.763l-13.54 7.795V24.113l6.63-3.89v7.533l-3.439 1.99v3.672l5.035-2.899a3.188 3.188 0 0 0 1.596-2.755v-9.424l5.313-3.13v15.6Z" fill="#7B3FE4"/></svg>