<svg width="46" height="46" fill="none" xmlns="http://www.w3.org/2000/svg"><path d="M39.958 9.667 26.421 1.848a6.406 6.406 0 0 0-6.37 0L6.514 9.668a6.37 6.37 0 0 0-3.185 5.518v15.623a6.37 6.37 0 0 0 3.185 5.518l13.537 7.82a6.37 6.37 0 0 0 6.37 0l13.537-7.82a6.37 6.37 0 0 0 3.185-5.518V15.186a6.37 6.37 0 0 0-3.185-5.519ZM8.107 33.556a3.186 3.186 0 0 1-1.593-2.763V15.186a3.185 3.185 0 0 1 1.593-2.763L21.644 4.61a3.166 3.166 0 0 1 3.185 0l5.653 3.269a7.386 7.386 0 0 0-3.535 3.511l-.231.47a9.428 9.428 0 0 0-12.916 8.76v4.713a9.305 9.305 0 0 0 .98 4.173l2.205-4.635V20.64a6.254 6.254 0 0 1 8.361-5.884l-1.855 3.893-6.928 14.54a4.19 4.19 0 0 1-2.556 2.222 4.236 4.236 0 0 1-3.121-.239l-2.78-1.616Zm31.851-2.763a3.185 3.185 0 0 1-1.592 2.763l-13.537 7.827a3.185 3.185 0 0 1-3.185 0L15.91 38.08a7.385 7.385 0 0 0 3.528-3.524l.223-.477a9.424 9.424 0 0 0 13.011-8.728v-4.71a9.414 9.414 0 0 0-1.027-4.276l-2.158 4.523v4.467a6.263 6.263 0 0 1-6.25 6.251 6.12 6.12 0 0 1-2.198-.398l8.782-18.45a4.268 4.268 0 0 1 5.686-1.99l2.859 1.656a3.185 3.185 0 0 1 1.592 2.763v15.607Z" fill="#7B3FE4"/></svg>