<svg width="1503" height="215" xmlns="http://www.w3.org/2000/svg" fill="none">
  <defs>
    <clipPath id="clip0_9895_128695">
      <rect width="26.6162" height="28.6143" fill="white" y="0.69287" x="0" id="svg_1"/>
    </clipPath>
  </defs>
  <g>
    <title>Layer 1</title>
    <path stroke="null" fill-rule="evenodd" clip-rule="evenodd" d="m116.43951,4.83608c-10.21739,-5.67652 -22.69099,-5.67652 -32.90916,0l-65.96523,37.02626l-0.00537,0.00304c-10.63373,5.95242 -17.18574,17.20392 -17.18574,29.41856l0,72.76366c0,12.14768 6.57422,23.35554 17.13055,29.38724l65.9967,37.04415l0.0291,0.01641c10.21817,5.67666 22.69174,5.67666 32.90916,0l0.0291,-0.01641l65.93613,-37.00982l-7.79785,-13.29925l0.00895,-0.00449l7.79785,13.2985c10.6321,-5.95263 17.18214,-17.20303 17.18214,-29.41634l0,-72.76366c0,-12.14803 -6.57394,-23.35547 -17.13069,-29.38763l-65.99656,-37.04383l-0.0291,-0.01641l0.00004,0zm58.17633,155.32936l-43.19069,-73.65422c8.35873,-5.13891 17.10234,-8.68318 25.23807,-11.12361c8.60412,-2.5814 16.36247,-3.87543 21.95559,-4.5206c2.23083,-0.25733 4.10589,-0.41022 5.54018,-0.5012c0.01566,0.30507 0.02312,0.61084 0.02312,0.91814l0,72.76366c0,6.68058 -3.57634,12.76524 -9.30374,15.97014l-0.26253,0.14769zm-67.25257,37.64156c0.53479,-0.23269 1.06208,-0.49225 1.57749,-0.77865l0.01344,-0.00672l65.65274,-36.8517l-43.18623,-73.6557c-8.8413,5.43577 -17.25225,12.65559 -24.0574,22.2405l0,89.0523l-0.00004,-0.00004zm-15.41375,-0.30132l0,-88.77407c-13.24108,-18.63283 -32.54847,-28.32367 -49.28401,-33.34399c-8.60436,-2.5814 -16.36276,-3.87543 -21.95537,-4.5206c-1.9135,-0.22077 -3.56555,-0.36472 -4.90194,-0.4587c-0.01365,0.29089 -0.02051,0.58252 -0.02051,0.87564l0,72.76366c0,6.54558 3.54681,12.66977 9.34161,15.99178l65.88638,36.98224l0.01344,0.00746c0.30355,0.16781 0.6101,0.32667 0.92036,0.47659l0.00004,0zm-0.6183,-179.36678l-7.80086,-13.30285l7.80011,13.30321c-0.1007,0.05346 -0.20136,0.10791 -0.30132,0.16335l-0.01344,0.00739l-15.83292,8.8874c8.74884,4.29223 16.08576,10.37381 24.45719,21.32452c1.89221,-2.51352 3.7188,-4.77044 5.51331,-6.80819l-13.82283,-23.57448l0.00074,-0.00039l0,0.00004zm0,0l13.8236,23.57303c6.24501,-7.09161 12.10143,-11.52718 18.98712,-14.87667l-15.18774,-8.5253l-0.01344,-0.00707c-5.45515,-3.025 -12.11038,-3.0797 -17.60951,-0.16402l-0.00004,0.00004zm22.43444,38.25816c8.28194,-8.9229 18.03914,-15.27472 27.78143,-19.79232l33.29399,18.68803c0.23644,0.13553 0.46913,0.27565 0.69811,0.4203c-6.15028,0.76978 -14.30168,2.20965 -23.30484,4.9106c-8.96363,2.689 -18.91701,6.67485 -28.60784,12.58979l-9.86087,-16.8164l0.00004,0zm-7.44509,9.3758c2.29723,-3.40347 4.79509,-6.51984 7.44282,-9.3734l9.86013,16.81626c-8.46615,5.16726 -16.7309,11.80757 -23.95896,20.34157c-15.5025,-18.30316 -35.7747,-27.89503 -52.56999,-32.93363c-8.75308,-2.62592 -16.70099,-4.05982 -22.78759,-4.84484c0.25673,-0.16116 0.51828,-0.31631 0.78441,-0.46527l33.04073,-18.54578c12.74045,5.9654 25.47578,15.08245 34.87201,28.99911c0.5728,0.97909 1.37086,1.84649 2.37778,2.51783c1.35297,0.90194 2.88718,1.31962 4.39827,1.29413c1.43578,-0.01888 2.88272,-0.43872 4.16632,-1.29449c1.0054,-0.66992 1.80198,-1.53502 2.37403,-2.5115l0.00004,0z" fill="#7B3FE4" id="svg_3"/>
    <g stroke="null" id="svg_21">
      <path stroke="null" d="m232.09268,64.30799l21.53313,0l0,8.52032c2.3753,-3.09834 5.47364,-5.47364 9.29483,-7.12605c3.82126,-1.75569 8.21051,-2.63356 13.16772,-2.63356c7.2294,0 13.52921,1.65241 18.89957,4.9572c5.37036,3.30486 9.50129,8.00399 12.39338,14.09727c2.99506,6.09329 4.49257,13.16772 4.49257,21.22294c0,8.05547 -1.60125,15.13046 -4.80297,21.22354c-3.09802,5.99011 -7.4872,10.68938 -13.16736,14.09706c-5.68024,3.30472 -12.23823,4.95745 -19.67416,4.95745c-4.44087,0 -8.46866,-0.72303 -12.08333,-2.16906c-3.61467,-1.44529 -6.45475,-3.45916 -8.52025,-6.04159l0,38.57384l-21.53313,0l0,-109.67936zm20.29377,39.03816c0,6.50644 1.75569,11.77352 5.26708,15.80127c3.51139,3.92475 8.15889,5.88715 13.9423,5.88715c5.68024,0 10.27601,-1.96239 13.7874,-5.88715c3.51139,-4.02772 5.26708,-9.29483 5.26708,-15.80127c0,-6.6094 -1.75569,-11.87652 -5.26708,-15.80096c-3.51139,-4.02779 -8.10716,-6.04166 -13.7874,-6.04166c-5.78341,0 -10.43091,2.01388 -13.9423,6.04166c-3.51139,3.92447 -5.26708,9.19155 -5.26708,15.80096z" fill="#E2E1E6" id="svg_4"/>
      <path stroke="null" d="m360.76994,143.62419c-7.84951,0 -14.9238,-1.70421 -21.22354,-5.11189c-6.29978,-3.51139 -11.20571,-8.31436 -14.7171,-14.40747c-3.51139,-6.19678 -5.26708,-13.11585 -5.26708,-20.75869c0,-7.64217 1.75569,-14.51004 5.26708,-20.60336c3.51139,-6.19657 8.41736,-10.99887 14.7171,-14.40701c6.29978,-3.51139 13.37403,-5.26708 21.22354,-5.26708c7.84877,0 14.92306,1.75569 21.2228,5.26708c6.29978,3.40814 11.20571,8.21044 14.7171,14.40701c3.51139,6.09329 5.26708,12.96119 5.26708,20.60336c0,7.64284 -1.75569,14.56191 -5.26708,20.75869c-3.51139,6.09307 -8.41736,10.89605 -14.7171,14.40747c-6.29978,3.40768 -13.37403,5.11189 -21.2228,5.11189zm-19.51933,-40.27805c0,6.40348 1.80717,11.61908 5.42156,15.64679c3.61509,4.02772 8.31436,6.04159 14.0978,6.04159c5.78341,0 10.48194,-2.01388 14.09706,-6.04159c3.61435,-4.02772 5.42156,-9.24331 5.42156,-15.64679c0,-6.50616 -1.80717,-11.77324 -5.42156,-15.80096c-3.61509,-4.02779 -8.31362,-6.04166 -14.09706,-6.04166c-5.78341,0 -10.48268,2.01388 -14.0978,6.04166c-3.61435,4.02772 -5.42156,9.29483 -5.42156,15.80096z" fill="#E2E1E6" id="svg_5"/>
      <path stroke="null" d="m414.99432,30.38183l21.5332,0l0,112.00304l-21.5332,0l0,-112.00304z" fill="#E2E1E6" id="svg_6"/>
      <path stroke="null" d="m474.92078,141.76554l-28.34931,-77.45752l21.99805,0l16.42057,50.34683l16.26612,-50.34683l22.15327,0l-28.34931,77.76718l-10.99904,31.91218l-20.6035,0l11.46315,-32.22184z" fill="#E2E1E6" id="svg_7"/>
      <path stroke="null" d="m562.66078,143.62419c-11.46389,0 -20.50054,-3.61435 -27.10995,-10.84382c-6.50644,-7.33244 -9.75968,-17.14434 -9.75968,-29.43419c0,-8.05522 1.44529,-15.12965 4.33738,-21.22294c2.99506,-6.09329 7.22947,-10.79241 12.70326,-14.09727c5.47304,-3.30479 11.97948,-4.9572 19.51858,-4.9572c4.64779,0 8.83072,0.82621 12.54803,2.47865c3.82179,1.5491 6.81685,3.71791 8.98517,6.50637l0,-7.74573l21.68839,0l0,82.7246c0,8.15843 -2.68539,14.66487 -8.05547,19.51858c-5.37082,4.95745 -12.49655,7.43614 -21.37876,7.43614l-39.34757,0l0,-16.88542l35.93989,0c3.30472,0 5.99011,-1.18788 8.05547,-3.56287c2.16906,-2.27277 3.25324,-5.2156 3.25324,-8.83072l0,-10.22379c-1.96239,2.89135 -4.85371,5.16337 -8.6755,6.81611c-3.82105,1.54903 -8.05547,2.3235 -12.70248,2.3235zm-15.64679,-40.27805c0,6.61015 1.70421,11.87726 5.11264,15.80127c3.51139,3.92475 8.15843,5.88715 13.94184,5.88715c5.78341,0 10.4312,-1.96239 13.94258,-5.88715c3.51139,-3.92401 5.26708,-9.19109 5.26708,-15.80127c0,-6.6094 -1.75569,-11.87652 -5.26708,-15.80096c-3.51139,-4.02779 -8.15917,-6.04166 -13.94258,-6.04166c-5.78341,0 -10.43045,2.01388 -13.94184,6.04166c-3.40842,3.92447 -5.11264,9.19155 -5.11264,15.80096z" fill="#E2E1E6" id="svg_8"/>
      <path stroke="null" d="m659.85755,143.62419c-7.84951,0 -14.9238,-1.70421 -21.22354,-5.11189c-6.29978,-3.51139 -11.20571,-8.31436 -14.7171,-14.40747c-3.51139,-6.19678 -5.26708,-13.11585 -5.26708,-20.75869c0,-7.64217 1.75569,-14.51004 5.26708,-20.60336c3.51139,-6.19657 8.41736,-10.99887 14.7171,-14.40701c6.29978,-3.51139 13.37403,-5.26708 21.22354,-5.26708c7.84877,0 14.92306,1.75569 21.2228,5.26708c6.29978,3.40814 11.20571,8.21044 14.7171,14.40701c3.51139,6.09329 5.26708,12.96119 5.26708,20.60336c0,7.64284 -1.75569,14.56191 -5.26708,20.75869c-3.51139,6.09307 -8.41736,10.89605 -14.7171,14.40747c-6.29978,3.40768 -13.37403,5.11189 -21.2228,5.11189zm-19.51933,-40.27805c0,6.40348 1.80717,11.61908 5.42156,15.64679c3.61509,4.02772 8.31362,6.04159 14.0978,6.04159c5.78341,0 10.48194,-2.01388 14.09706,-6.04159c3.61435,-4.02772 5.42156,-9.24331 5.42156,-15.64679c0,-6.50616 -1.80717,-11.77324 -5.42156,-15.80096c-3.61509,-4.02779 -8.31362,-6.04166 -14.09706,-6.04166c-5.78419,0 -10.48268,2.01388 -14.0978,6.04166c-3.61435,4.02772 -5.42156,9.29483 -5.42156,15.80096z" fill="#E2E1E6" id="svg_9"/>
      <path stroke="null" d="m712.84257,64.30799l21.68839,0l0,10.84403c2.16832,-3.82126 5.31856,-6.76462 9.44927,-8.83012c4.13146,-2.16885 8.88221,-3.25324 14.25225,-3.25324c5.78341,0 10.84456,1.29091 15.18195,3.87281c4.44109,2.5819 7.84877,6.19657 10.22453,10.84403c2.47798,4.6474 3.71735,9.96614 3.71735,15.95618l0,48.64308l-21.68764,0l0,-43.84078c0,-4.75068 -1.39455,-8.62356 -4.18294,-11.61855c-2.78835,-3.09834 -6.40274,-4.6474 -10.84382,-4.6474c-4.75075,0 -8.62328,1.65241 -11.61834,4.9572c-2.99506,3.20158 -4.49257,7.33265 -4.49257,12.3932l0,42.75632l-21.68839,0l0,-78.07684l-0.00004,0.00007z" fill="#E2E1E6" id="svg_10"/>
      <path stroke="null" d="m882.67348,143.62419c-8.15843,0 -15.33642,-1.54903 -21.5332,-4.64779c-6.19604,-3.09802 -10.99827,-7.53914 -14.40669,-13.32255c-3.30472,-5.78341 -4.95745,-12.59952 -4.95745,-20.44828l0,-71.26074l13.01288,0l0,71.88003c0,7.95247 2.53021,14.25225 7.59062,18.90003c5.06116,4.64704 11.82578,6.97055 20.29384,6.97055c8.46884,0 15.23343,-2.3235 20.29384,-6.97055c5.16412,-4.64779 7.7458,-10.94753 7.7458,-18.90003l0,-71.88003l12.8577,0l0,71.26074c0,7.84877 -1.70347,14.66487 -5.11189,20.44828c-3.30472,5.78341 -8.05547,10.22453 -14.25225,13.32255c-6.19678,3.09876 -13.37403,4.64779 -21.5332,4.64779z" fill="#E2E1E6" id="svg_11"/>
      <path stroke="null" d="m943.45355,64.30799l12.39285,0l0,15.02669c1.96239,-5.26708 5.2156,-9.29483 9.75968,-12.08326c4.54408,-2.78853 9.86561,-4.18269 15.95423,-4.18269c8.78221,0 15.8035,2.8917 21.07132,8.67522c5.3723,5.78341 8.05098,13.4259 8.05098,22.92733l0,47.71359l-12.38613,0l0,-45.69971c0,-6.7129 -1.81315,-12.08333 -5.42453,-16.11108c-3.51439,-4.13107 -8.20768,-6.19657 -14.0948,-6.19657c-6.71611,0 -12.24138,2.427 -16.57876,7.28096c-4.23442,4.85403 -6.352,11.0506 -6.352,18.5897l0,42.13671l-12.39285,0l0,-78.07684l0,-0.00004z" fill="#E2E1E6" id="svg_12"/>
      <path stroke="null" d="m1031.1943,64.30799l12.39359,0l0,78.07684l-12.39359,0l0,-78.07684zm13.32626,-32.06722l0,17.35034l-14.2515,0l0,-17.35034l14.2515,0z" fill="#E2E1E6" id="svg_13"/>
      <path stroke="null" d="m1055.81731,64.30799l12.85621,0l22.15327,62.58523l22.15327,-62.58523l13.01288,0l-28.65971,78.07684l-12.85621,0l-28.65971,-78.07684z" fill="#E2E1E6" id="svg_14"/>
      <path stroke="null" d="m1131.08915,102.88204c0,-7.64277 1.49977,-14.45902 4.49182,-20.44906c3.10399,-6.09329 7.43915,-10.84396 13.01288,-14.25211c5.58123,-3.40814 12.1399,-5.11218 19.67603,-5.11218c7.43915,0 13.89336,1.60079 19.36266,4.8023c5.47675,3.09834 9.6552,7.43593 12.55026,13.01281c2.99209,5.57696 4.49182,11.82518 4.49182,18.74467c0,2.1686 -0.10445,3.97581 -0.30592,5.42184l-61.04271,0c0.52231,8.05547 3.20098,14.66562 8.05844,19.82899c4.85746,5.16412 10.94604,7.7458 18.28074,7.7458c6.29751,0 11.40866,-1.29084 15.33342,-3.87253c4.02924,-2.68539 6.66315,-6.50644 7.90177,-11.46389l12.55026,0c-1.34307,8.05547 -5.26782,14.45895 -11.77426,19.2097c-6.40199,4.75075 -14.40821,7.12577 -24.01118,7.12577c-7.53613,0 -14.2515,-1.80717 -20.13865,-5.4223c-5.78267,-3.71735 -10.32675,-8.67476 -13.63221,-14.87157c-3.20098,-6.19678 -4.80524,-13.01288 -4.80524,-20.44828l0.00007,0.00004zm60.88601,-7.74609c-0.52231,-6.60965 -2.89506,-11.82511 -7.12577,-15.6463c-4.13368,-3.92454 -9.66266,-5.88676 -16.5795,-5.88676c-6.61092,0 -12.02796,1.85897 -16.26612,5.57688c-4.23067,3.71791 -6.91684,9.03665 -8.05844,15.95618l48.02979,0l0.00004,0z" fill="#E2E1E6" id="svg_15"/>
      <path stroke="null" d="m1254.04756,75.30696c-7.43169,0 -12.69951,2.8917 -15.8035,8.67522c-2.99209,5.78341 -4.49182,13.78733 -4.49182,24.01179l0,34.3909l-12.39359,0l0,-78.07684l12.39359,0l0,15.80127c1.65644,-5.37036 4.18591,-9.34645 7.59582,-11.92835c3.40245,-2.5819 7.94653,-3.87292 13.63221,-3.87292l9.90889,0l0,10.99894l-10.84159,0z" fill="#E2E1E6" id="svg_16"/>
      <path stroke="null" d="m1303.08467,143.62419c-9.08813,0 -16.42279,-2.3235 -21.99657,-6.97129c-5.47675,-4.75075 -8.52106,-11.20571 -9.14035,-19.36414l11.93097,0c0.51485,5.06041 2.42498,8.93369 5.73044,11.61834c3.30546,2.58243 7.79729,3.87327 13.47551,3.87327c4.75298,0 8.62551,-1.1364 11.61759,-3.40842c3.09653,-2.27202 4.64853,-5.06041 4.64853,-8.3651c0,-3.30472 -0.88045,-5.83493 -2.63391,-7.59062c-1.64898,-1.75569 -3.76808,-2.99506 -6.34977,-3.71809c-2.47724,-0.82674 -5.9916,-1.60125 -10.53568,-2.32425c-5.47675,-0.82599 -9.96857,-1.80717 -13.47551,-2.94283c-3.40991,-1.1364 -6.35723,-3.25324 -8.83444,-6.35168c-2.37276,-3.09834 -3.55915,-7.48755 -3.55915,-13.16772c0,-6.60972 2.52946,-11.8768 7.58836,-15.80127c5.05893,-4.02779 11.72204,-6.04166 19.98195,-6.04166c8.57328,0 15.54235,2.16878 20.91465,6.50637c5.3723,4.33759 8.31213,10.12111 8.83444,17.35041l-12.08768,0c-0.51485,-4.54415 -2.58169,-7.90064 -6.19307,-10.06938c-3.61884,-2.16885 -7.54359,-3.25324 -11.77426,-3.25324c-4.54408,0 -8.21514,1.03273 -10.99827,3.09823c-2.79062,1.96229 -4.18591,4.64747 -4.18591,8.05561c0,2.8917 0.776,5.11211 2.32799,6.66127c1.64898,1.54917 3.6636,2.63356 6.03636,3.25324c2.4847,0.61968 5.83493,1.23929 10.07306,1.85897c5.78267,0.82621 10.48342,1.85897 14.0948,3.09834c3.61884,1.13601 6.71537,3.35648 9.29706,6.6612c2.58169,3.30472 3.87253,8.10695 3.87253,14.40747c0,6.91907 -2.63391,12.49581 -7.90177,16.73023c-5.16337,4.13146 -12.08022,6.19678 -20.75795,6.19678l0.00004,-0.00004z" fill="#E2E1E6" id="svg_17"/>
      <path stroke="null" d="m1348.7417,64.30799l12.39359,0l0,78.07684l-12.39359,0l0,-78.07684zm13.32626,-32.06722l0,17.35034l-14.25896,0l0,-17.35034l14.25896,0z" fill="#E2E1E6" id="svg_18"/>
      <path stroke="null" d="m1402.48706,39.36682l0,24.94117l24.01118,0l0,10.99894l-24.01118,0l0,42.29147c0,4.33812 1.13414,7.7458 3.40245,10.22453c2.27577,2.37499 5.32008,3.56287 9.14035,3.56287l11.46835,0l0,10.99904l-11.93097,0c-7.43915,0 -13.37106,-2.16906 -17.81812,-6.50644c-4.4396,-4.44109 -6.65569,-10.4312 -6.65569,-17.97033l0,-42.60109l-16.26612,0l0,-10.99894l16.26612,0l0,-24.94117l12.39359,0l0.00004,-0.00004z" fill="#E2E1E6" id="svg_19"/>
      <path stroke="null" d="m1460.8809,143.62419l-29.1223,-79.31621l12.85621,0l22.15327,61.96591l22.15327,-61.96591l13.01288,0l-24.78718,67.38746l-14.2515,42.29189l-11.93097,0l9.91635,-30.36318l-0.00004,0.00004z" fill="#E2E1E6" id="svg_20"/>
    </g>
  </g>
</svg>
