<svg width="153" height="32" fill="none" xmlns="http://www.w3.org/2000/svg"><path d="M26.959 9.776c-.66-.406-1.517-.406-2.241 0l-5.142 3.112-3.493 2.03-5.141 3.112c-.66.405-1.516.405-2.241 0l-4.087-2.436c-.66-.406-1.12-1.15-1.12-1.962V8.83c0-.812.395-1.556 1.12-1.962l4.02-2.368c.66-.406 1.517-.406 2.242 0l4.02 2.368c.66.406 1.12 1.15 1.12 1.962v3.112l3.494-2.097V6.732c0-.812-.395-1.557-1.12-1.962L10.942.304C10.282-.1 9.426-.1 8.7.304L1.12 4.77C.395 5.175 0 5.92 0 6.732v8.997c0 .812.395 1.556 1.12 1.962l7.58 4.465c.66.406 1.517.406 2.242 0l5.14-3.044 3.494-2.097 5.142-3.045c.659-.405 1.515-.405 2.24 0l4.021 2.368c.66.406 1.12 1.15 1.12 1.962v4.804c0 .811-.395 1.556-1.12 1.962L26.96 27.5c-.66.406-1.517.406-2.241 0l-4.021-2.368c-.66-.406-1.12-1.15-1.12-1.962V20.06l-3.494 2.097v3.113c0 .811.395 1.556 1.12 1.961l7.58 4.466c.66.405 1.516.405 2.241 0l7.58-4.466c.66-.405 1.121-1.15 1.121-1.962v-8.997c0-.812-.395-1.556-1.12-1.962l-7.646-4.533Z" fill="#7950DD"/><path d="M49.642 29.122v-7.47c.804 1.02 2.263 1.59 3.96 1.59 4.316 0 7.234-3.09 7.234-7.8s-2.68-7.8-6.877-7.8c-1.935 0-3.424.72-4.317 1.89v-1.65h-4.138v21.24h4.138Zm3.453-9.48c-2.232 0-3.691-1.68-3.691-4.2 0-2.55 1.459-4.23 3.691-4.23 2.174 0 3.662 1.68 3.662 4.23 0 2.52-1.488 4.2-3.661 4.2ZM70.233 23.242c4.614 0 7.919-3.3 7.919-7.8s-3.305-7.8-7.92-7.8c-4.614 0-7.919 3.3-7.919 7.8s3.305 7.8 7.92 7.8Zm0-3.6c-2.233 0-3.752-1.71-3.752-4.2 0-2.52 1.519-4.23 3.752-4.23 2.232 0 3.75 1.71 3.75 4.23 0 2.49-1.518 4.2-3.75 4.2ZM84.791 23.003V1.313h-4.138v21.69h4.138ZM97.23 7.883l-3.125 9.75-3.156-9.75h-4.227l5.448 15-2.203 6.24h3.96l2.113-6.18 5.448-15.06h-4.257ZM113.11 9.383c-.834-1.05-2.322-1.74-4.138-1.74-4.377 0-7.026 3.09-7.026 7.8s2.649 7.8 7.085 7.8c1.757 0 3.334-.66 4.109-1.77v1.98c0 1.41-.923 2.4-2.174 2.4h-6.907v3.27h7.562c3.394 0 5.657-2.07 5.657-5.22V7.883h-4.168v1.5Zm-3.424 10.26c-2.203 0-3.662-1.65-3.662-4.2 0-2.55 1.459-4.23 3.662-4.23 2.233 0 3.692 1.68 3.692 4.23 0 2.55-1.459 4.2-3.692 4.2ZM127.71 23.242c4.615 0 7.919-3.3 7.919-7.8s-3.304-7.8-7.919-7.8c-4.614 0-7.919 3.3-7.919 7.8s3.305 7.8 7.919 7.8Zm0-3.6c-2.233 0-3.751-1.71-3.751-4.2 0-2.52 1.518-4.23 3.751-4.23 2.233 0 3.751 1.71 3.751 4.23 0 2.49-1.518 4.2-3.751 4.2ZM142.061 23.003v-8.28c0-1.95 1.28-3.36 3.096-3.36 1.726 0 2.887 1.32 2.887 3.15v8.49h4.168v-9.42c0-3.48-2.203-5.94-5.597-5.94-2.054 0-3.721.87-4.554 2.34v-2.1h-4.168v15.12h4.168Z" fill="#000"/></svg>