<svg width="46" height="46" fill="none" xmlns="http://www.w3.org/2000/svg"><path d="M43.326 19.664v11.191a6.316 6.316 0 0 1-3.145 5.453l-13.603 7.848a6.308 6.308 0 0 1-6.304 0L6.68 36.308a6.293 6.293 0 0 1-3.152-5.087A1.99 1.99 0 0 1 4.72 29.28l35.238-15.123a3.052 3.052 0 0 0-1.393-1.712l-13.58-7.848a3.109 3.109 0 0 0-3.112 0L8.271 12.452a3.104 3.104 0 0 0-1.56 2.69v9.823l-3.184 1.361V15.142A6.324 6.324 0 0 1 6.679 9.69l13.603-7.848a6.309 6.309 0 0 1 6.296 0L40.182 9.69a6.304 6.304 0 0 1 3.144 5.086 1.99 1.99 0 0 1-1.194 1.943L6.894 31.842a3.065 3.065 0 0 0 1.4 1.712l13.58 7.848a3.108 3.108 0 0 0 3.112 0l13.604-7.856a3.117 3.117 0 0 0 1.552-2.69v-9.823l3.184-1.37Z" fill="#7B3FE4"/></svg>