<svg width="24" height="24" viewBox="0 0 19 19" fill="none" xmlns="http://www.w3.org/2000/svg">
<rect x="0.5" y="0.5" width="18" height="18" rx="9" fill="#EE1C25"/>
<path d="M5.35453 11.1384L7.01133 6.16797L8.66813 11.1384L4.25 8.10092H9.77266L5.35453 11.1384Z" fill="#FFFF00"/>
<path d="M12.5405 6.26325L10.8355 6.6411L11.9728 5.31578L11.8613 7.09949L10.9151 5.52037L12.5405 6.26325Z" fill="#FFFF00"/>
<path d="M14.2611 8.44425L12.543 8.13123L14.1053 7.35075L13.3107 8.95158L13.051 7.12909L14.2611 8.44425Z" fill="#FFFF00"/>
<path d="M14.0106 11.5037L12.5695 10.5171L14.3143 10.4417L12.9359 11.5793L13.4421 9.80932L14.0106 11.5037Z" fill="#FFFF00"/>
<path d="M11.8428 13.5024L10.8946 12.0358L12.5331 12.6402L10.8223 13.1571L11.9728 11.72L11.8428 13.5024Z" fill="#FFFF00"/>
</svg>
