<svg width="91" height="41" viewBox="0 0 91 41" fill="none" xmlns="http://www.w3.org/2000/svg">
<g clip-path="url(#clip0_845_5682)">
<path d="M8.56165 8.08297H3.86999L13.2882 28.0815L12.7124 29.3307L11.9105 31.0342L-0.0517578 5.62158H10.1462L17.0105 20.1992L15.6391 23.113L8.56165 8.08297Z" fill="#5850EC"/>
<path d="M12.7135 29.3311L11.9269 31.0375L11.92 31.0521L11.9161 31.0438L11.9116 31.0346L12.7135 29.3311Z" fill="#5850EC"/>
<path d="M11.9265 31.0371L11.9194 31.0521H11.9023L11.9155 31.0436L11.9265 31.0371Z" fill="#322F2F"/>
<path d="M34.0801 5.62158L32.5152 8.94592L31.3562 11.4073L22.1085 31.0497L22.1075 31.0517H18.4118L19.5688 28.5903H20.492L28.567 11.4073L29.724 8.94592L30.1294 8.08297H25.4795L15.8122 28.6151L15.852 28.5903H16.7796L15.6206 31.0517H11.918L11.9248 31.0371L12.7115 29.3307L15.6382 23.113L17.0095 20.1992L23.8718 5.62158H34.0801Z" fill="#2F2F32"/>
<path d="M22.11 31.0515H22.1079L22.109 31.0493L22.11 31.0515Z" fill="#322F2F"/>
<path d="M26.0299 8.94629L26.0284 8.94928L26.0269 8.94629H26.0299Z" fill="#5850EC"/>
<path d="M12.7126 29.3311L11.9259 31.0375L11.9191 31.0521H11.9023L11.9107 31.0346L12.7126 29.3311Z" fill="#322F2F"/>
<path d="M36.2365 8.94629L24.2659 34.3764H14.0576L15.6225 31.052L16.7815 28.5907L26.0293 8.94824L26.0303 8.94629H29.7259L28.5689 11.4076H27.6457L19.5708 28.5907L18.4138 31.052L18.0084 31.915H22.6583L32.3256 11.3829L32.2858 11.4076H31.3582L32.5172 8.94629H36.2365Z" fill="#5850EC"/>
</g>
<path d="M48.979 32.9546H51.599V23.5462C51.599 22.3255 51.212 21.2537 50.4677 20.3902C49.0683 18.7527 47.0735 17.9488 44.4534 17.9191C42.2204 17.9191 40.1959 18.5741 38.3797 19.9139L39.6897 21.9682C40.9104 20.9262 42.4884 20.42 44.4237 20.42C45.5253 20.42 46.5673 20.688 47.5499 21.2239C48.5026 21.7598 48.979 22.5339 48.979 23.5462V24.6776C47.9071 23.9333 45.9421 23.308 44.3046 23.308C42.3098 23.308 40.6722 23.7844 39.392 24.7669C38.1117 25.7494 37.4865 26.9404 37.4865 28.3993C37.4865 29.8582 38.1117 31.0491 39.3622 31.9423C40.5829 32.8653 42.1907 33.3119 44.1557 33.3119C46.091 33.3119 47.6987 32.7759 48.979 31.7041V32.9546ZM44.2748 31.0789C41.6845 31.0789 39.9577 29.9177 39.9577 28.31C39.9577 26.7022 41.5654 25.5113 44.4237 25.5113C46.0612 25.5113 47.8774 26.2258 48.979 27.1488V29.3222C47.669 30.4834 46.091 31.0789 44.2748 31.0789ZM58.0768 32.9546V9.7314H55.3675V32.9546H58.0768ZM64.9387 32.9546V18.1275H62.2293V32.9546H64.9387ZM65.2959 12.411C65.2959 11.488 64.5218 10.7437 63.5989 10.7437C62.6461 10.7437 61.9315 11.488 61.9315 12.4408C61.9315 13.3935 62.6461 14.1378 63.5989 14.1378C64.5218 14.1378 65.2959 13.3637 65.2959 12.411ZM74.8969 33.3119C76.8322 33.3119 78.4102 32.895 79.6904 32.0316C80.9707 31.1682 81.5959 30.0368 81.5959 28.6077C81.5959 26.3151 80.0179 24.886 76.8619 24.2608L72.9319 23.576C72.2173 23.4271 71.7112 23.2485 71.4432 23.0103C70.8477 22.5339 70.9668 21.8789 70.9668 21.8491C70.9668 20.8368 72.4555 20.1521 74.6289 20.1521C76.2665 20.1521 77.8742 20.6284 79.5118 21.5812L80.792 19.4673C79.0949 18.3657 77.1299 17.8 74.9267 17.8C70.5202 17.8 68.4063 19.5566 68.4063 22.0576C68.4063 24.2012 69.7759 25.541 72.4853 26.077L76.7131 26.8808C78.2315 27.1786 79.0056 27.8038 79.0056 28.7566C79.0056 30.0666 77.4574 30.9598 74.9564 30.9598C72.783 30.9598 70.7286 30.3643 68.8529 29.1436L67.4833 31.3171C69.7759 32.6569 72.2471 33.3119 74.8969 33.3119ZM85.1312 20.5689V32.9546H87.8108V20.5689H90.282V18.1275H87.8108V10.9819L85.1312 12.5896V18.1275H82.6898V20.5689H85.1312Z" fill="white"/>
<defs>
<clipPath id="clip0_845_5682">
<rect width="36.6212" height="40.194" fill="white" transform="translate(0.000488281)"/>
</clipPath>
</defs>
</svg>
