<svg width="90" height="35" viewBox="0 0 90 35" fill="none" xmlns="http://www.w3.org/2000/svg">
<path d="M0 0.899902H5.73052L13.4049 19.4914H13.7078L21.3822 0.899902H27.1126V26.5572H22.6193V8.93035H22.3793L15.2351 26.4821H11.8776L4.73337 8.89278H4.49355V26.5572H0V0.899902ZM40.4671 26.933C38.5736 26.933 36.9327 26.5197 35.5445 25.6929C34.156 24.8659 33.0787 23.7092 32.313 22.2225C31.5556 20.736 31.1771 18.9988 31.1771 17.0109C31.1771 15.0231 31.5556 13.2817 32.313 11.7867C33.0787 10.2917 34.156 9.13081 35.5445 8.30395C36.9327 7.47711 38.5736 7.06367 40.4671 7.06367C42.3604 7.06367 44.0012 7.47711 45.3898 8.30395C46.7783 9.13081 47.8512 10.2917 48.6086 11.7867C49.3743 13.2817 49.7572 15.0231 49.7572 17.0109C49.7572 18.9988 49.3743 20.736 48.6086 22.2225C47.8512 23.7092 46.7783 24.8659 45.3898 25.6929C44.0012 26.5197 42.3604 26.933 40.4671 26.933ZM40.4923 23.3C41.519 23.3 42.3771 23.0203 43.0672 22.4606C43.7573 21.8926 44.2706 21.1326 44.6073 20.1806C44.9523 19.2283 45.1247 18.1677 45.1247 16.9984C45.1247 15.8208 44.9523 14.7559 44.6073 13.8037C44.2706 12.8433 43.7573 12.0791 43.0672 11.5111C42.3771 10.9432 41.519 10.6592 40.4923 10.6592C39.4404 10.6592 38.5653 10.9432 37.8668 11.5111C37.177 12.0791 36.6593 12.8433 36.3143 13.8037C35.9779 14.7559 35.8095 15.8208 35.8095 16.9984C35.8095 18.1677 35.9779 19.2283 36.3143 20.1806C36.6593 21.1326 37.177 21.8926 37.8668 22.4606C38.5653 23.0203 39.4404 23.3 40.4923 23.3ZM70.2937 7.31425L63.3892 26.5572H58.3404L51.4359 7.31425H56.308L60.7637 21.6086H60.9656L65.434 7.31425H70.2937ZM81.3792 26.933C79.4352 26.933 77.7565 26.5323 76.3428 25.7305C74.9376 24.9203 73.8562 23.776 73.0989 22.2978C72.3415 20.8111 71.9627 19.0612 71.9627 17.0485C71.9627 15.0691 72.3415 13.3319 73.0989 11.8368C73.8646 10.3335 74.9332 9.1642 76.305 8.32899C77.6765 7.48545 79.2879 7.06367 81.1393 7.06367C82.3341 7.06367 83.4619 7.25579 84.5221 7.63997C85.5907 8.01582 86.5331 8.60044 87.3494 9.39389C88.174 10.1873 88.8219 11.1979 89.2932 12.4257C89.7644 13.6451 90 15.0983 90 16.7854V18.176H74.1086V15.1192H85.6202C85.6118 14.2506 85.4224 13.478 85.0522 12.8015C84.682 12.1166 84.1644 11.5779 83.4997 11.1854C82.8434 10.7928 82.0774 10.5966 81.2023 10.5966C80.2685 10.5966 79.4479 10.8221 78.7411 11.2731C78.0342 11.7157 77.483 12.3004 77.0875 13.027C76.7003 13.7453 76.5028 14.5345 76.4942 15.3948V18.0634C76.4942 19.1825 76.7003 20.1428 77.1129 20.9446C77.5252 21.7382 78.1015 22.3477 78.8421 22.7738C79.5824 23.1914 80.4492 23.4003 81.4422 23.4003C82.1068 23.4003 82.7086 23.3083 83.2471 23.1246C83.7858 22.9326 84.2527 22.6526 84.6483 22.2852C85.0438 21.9178 85.3424 21.4625 85.5445 20.9197L89.8109 21.3957C89.5415 22.5148 89.0281 23.492 88.2708 24.3274C87.522 25.1542 86.5626 25.7972 85.3929 26.2566C84.2233 26.7077 82.8853 26.933 81.3792 26.933Z" fill="white"/>
</svg>
