<svg width="118" height="40" viewBox="0 0 118 40" fill="none" xmlns="http://www.w3.org/2000/svg">
<path d="M22.1891 20.5522L16.8918 29.8287L22.1891 39.1048L27.4864 29.8287L22.1891 20.5522Z" fill="#333333"/>
<path d="M27.4861 11.2764L22.1888 20.5525L27.4861 29.8289L32.7834 20.5525L27.4861 11.2764Z" fill="#666666"/>
<path d="M16.892 11.2764L11.5947 20.5525L16.892 29.8289L22.1893 20.5525L16.892 11.2764Z" fill="#666666"/>
<path d="M32.7836 2L27.4863 11.2764L32.7836 20.5525L38.0809 11.2764L32.7836 2Z" fill="#8C8C8C"/>
<path d="M24.8378 6.6377H19.5405L16.8918 11.276L22.1891 20.5522L27.4864 11.276L24.8378 6.6377Z" fill="#8C8C8C"/>
<path d="M11.5943 2L6.297 11.2764L11.5943 20.5525L16.8915 11.2764L11.5943 2Z" fill="#8C8C8C"/>
<path d="M43.378 2H32.7834L38.0807 11.2762L43.378 2Z" fill="#B2B2B2"/>
<path d="M11.5945 2H1L6.29727 11.2762L11.5945 2Z" fill="#B2B2B2"/>
<path d="M62.0461 13.7568C62.3383 13.7568 62.4844 13.9045 62.4844 14.1998C62.4844 14.242 60.4288 20.6544 56.3176 33.4371C56.255 33.6269 56.109 33.7219 55.8794 33.7219C55.6498 33.7219 55.5037 33.6269 55.4411 33.4371C51.33 20.6544 49.2744 14.242 49.2744 14.1998C49.2744 13.9045 49.4205 13.7568 49.7127 13.7568C49.9213 13.7568 50.057 13.8518 50.1196 14.0416L55.8794 31.9184L61.6079 14.0416C61.6913 13.8518 61.8374 13.7568 62.0461 13.7568ZM72.7635 22.6794C73.0557 22.6794 73.2018 22.827 73.2018 23.1224C73.2018 23.1646 71.1567 28.5012 67.0663 39.1323C67.0037 39.3222 66.8681 39.4171 66.6594 39.4171C66.3673 39.4171 66.2211 39.2695 66.2211 38.9741C66.2211 38.9109 66.9724 36.9281 68.475 33.0258C68.4124 32.9625 67.7237 31.3278 66.409 28.1215C65.0942 24.8942 64.4369 23.2279 64.4369 23.1224C64.4369 22.827 64.583 22.6794 64.8751 22.6794C65.0629 22.6794 65.1986 22.7637 65.282 22.9325L68.9132 31.8867L72.3566 22.9642C72.4401 22.7743 72.5757 22.6794 72.7635 22.6794ZM82.6302 22.4896C84.0496 22.4896 85.2596 23.0485 86.2613 24.1665C87.2004 25.2423 87.67 26.5184 87.67 27.995C87.67 29.4715 87.2004 30.7477 86.2613 31.8234C85.2596 32.9414 84.0496 33.5004 82.6302 33.5004C80.6894 33.5004 79.2289 32.5828 78.2477 30.7477V38.8792C78.2477 39.1746 78.1019 39.3222 77.8095 39.3222C77.5179 39.3222 77.3712 39.1746 77.3712 38.8792V23.1224C77.3712 22.827 77.5179 22.6794 77.8095 22.6794C78.1019 22.6794 78.2477 22.827 78.2477 23.1224V25.2739C79.2289 23.4177 80.6894 22.4896 82.6302 22.4896ZM82.6302 32.6144C83.8197 32.6144 84.8116 32.1504 85.604 31.2223C86.3973 30.2941 86.7935 29.2184 86.7935 27.995C86.7935 26.7716 86.3973 25.6958 85.604 24.7677C84.8116 23.8395 83.8197 23.3755 82.6302 23.3755C81.4407 23.3755 80.439 23.8395 79.6251 24.7677C78.8327 25.6958 78.4356 26.7716 78.4356 27.995C78.4356 29.2184 78.8327 30.2941 79.6251 31.2223C80.439 32.1504 81.4407 32.6144 82.6302 32.6144ZM96.7139 22.4896C98.1539 22.4896 99.3541 23.038 100.314 24.1348C101.295 25.2317 101.785 26.5184 101.785 27.995C101.785 28.2903 101.629 28.4379 101.315 28.4379H92.5819C92.6865 29.577 93.1248 30.5578 93.8966 31.3805C94.6694 32.2031 95.6085 32.6144 96.7139 32.6144C98.2379 32.6144 99.4373 31.9922 100.314 30.7477C100.418 30.6 100.544 30.5262 100.689 30.5262C100.982 30.5262 101.128 30.6738 101.128 30.9691C101.128 31.0535 101.107 31.1274 101.065 31.1906C100.189 32.7304 98.7388 33.5004 96.7139 33.5004C95.2954 33.5004 94.0952 32.9519 93.1141 31.8551C92.1544 30.7582 91.6741 29.4715 91.6741 27.995C91.6741 26.5184 92.1544 25.2317 93.1141 24.1348C94.0746 23.038 95.274 22.4896 96.7139 22.4896ZM92.5819 27.552H100.846C100.742 26.4129 100.304 25.4321 99.5312 24.6095C98.7594 23.7868 97.8203 23.3755 96.7139 23.3755C95.6085 23.3755 94.6694 23.7868 93.8966 24.6095C93.1248 25.4321 92.6865 26.4129 92.5819 27.552ZM110.493 22.711C110.806 22.711 110.962 22.8482 110.962 23.1224C110.962 23.3965 110.827 23.5547 110.555 23.597C109.325 23.7657 108.386 24.3353 107.738 25.3055C107.133 26.1704 106.83 27.2567 106.83 28.5645V32.8043C106.83 33.0996 106.684 33.2472 106.392 33.2472C106.1 33.2472 105.954 33.0996 105.954 32.8043V23.154C105.954 22.8587 106.1 22.711 106.392 22.711C106.684 22.711 106.83 22.8587 106.83 23.154V25.1157C107.227 24.4407 107.738 23.8817 108.364 23.4388C109.074 22.9536 109.783 22.711 110.493 22.711Z" fill="#333333"/>
</svg>