<svg width="146" height="65" viewBox="0 0 146 65" fill="none" xmlns="http://www.w3.org/2000/svg">
<path d="M37 32.7197L29 46.5798L37 60.4395L45 46.5798L37 32.7197Z" fill="#333333"/>
<path d="M45 18.8599L37 32.7196L45 46.5796L53 32.7196L45 18.8599Z" fill="#666666"/>
<path d="M29 18.8599L21 32.7196L29 46.5796L37 32.7196L29 18.8599Z" fill="#666666"/>
<path d="M53 5L45 18.86L53 32.7197L61 18.86L53 5Z" fill="#8C8C8C"/>
<path d="M41 11.9297H33L29 18.8599L37 32.7196L45 18.8599L41 11.9297Z" fill="#8C8C8C"/>
<path d="M21 5L13 18.86L21 32.7197L29 18.86L21 5Z" fill="#8C8C8C"/>
<path d="M69 5H53L61 18.8597L69 5Z" fill="#B2B2B2"/>
<path d="M21 5H5L13 18.8597L21 5Z" fill="#B2B2B2"/>
<path d="M83.52 31.6152C83.8467 31.6152 84.01 31.7785 84.01 32.1052C84.01 32.1519 81.7117 39.2452 77.115 53.3852C77.045 53.5952 76.8817 53.7002 76.625 53.7002C76.3683 53.7002 76.205 53.5952 76.135 53.3852C71.5383 39.2452 69.24 32.1519 69.24 32.1052C69.24 31.7785 69.4033 31.6152 69.73 31.6152C69.9633 31.6152 70.115 31.7202 70.185 31.9302L76.625 51.7052L83.03 31.9302C83.1233 31.7202 83.2867 31.6152 83.52 31.6152ZM95.5031 41.4852C95.8298 41.4852 95.9931 41.6485 95.9931 41.9752C95.9931 42.0219 93.7065 47.9252 89.1331 59.6852C89.0631 59.8952 88.9115 60.0002 88.6781 60.0002C88.3515 60.0002 88.1881 59.8369 88.1881 59.5102C88.1881 59.4402 89.0281 57.2469 90.7081 52.9302C90.6381 52.8602 89.8681 51.0519 88.3981 47.5052C86.9281 43.9352 86.1931 42.0919 86.1931 41.9752C86.1931 41.6485 86.3565 41.4852 86.6831 41.4852C86.8931 41.4852 87.0448 41.5785 87.1381 41.7652L91.1981 51.6702L95.0481 41.8002C95.1415 41.5902 95.2931 41.4852 95.5031 41.4852ZM106.535 41.2752C108.122 41.2752 109.475 41.8935 110.595 43.1302C111.645 44.3202 112.17 45.7319 112.17 47.3652C112.17 48.9985 111.645 50.4102 110.595 51.6002C109.475 52.8369 108.122 53.4552 106.535 53.4552C104.365 53.4552 102.732 52.4402 101.635 50.4102V59.4052C101.635 59.7319 101.472 59.8952 101.145 59.8952C100.819 59.8952 100.655 59.7319 100.655 59.4052V41.9752C100.655 41.6485 100.819 41.4852 101.145 41.4852C101.472 41.4852 101.635 41.6485 101.635 41.9752V44.3552C102.732 42.3019 104.365 41.2752 106.535 41.2752ZM106.535 52.4752C107.865 52.4752 108.974 51.9619 109.86 50.9352C110.747 49.9085 111.19 48.7185 111.19 47.3652C111.19 46.0119 110.747 44.8219 109.86 43.7952C108.974 42.7685 107.865 42.2552 106.535 42.2552C105.205 42.2552 104.085 42.7685 103.175 43.7952C102.289 44.8219 101.845 46.0119 101.845 47.3652C101.845 48.7185 102.289 49.9085 103.175 50.9352C104.085 51.9619 105.205 52.4752 106.535 52.4752ZM122.282 41.2752C123.892 41.2752 125.234 41.8819 126.307 43.0952C127.404 44.3085 127.952 45.7319 127.952 47.3652C127.952 47.6919 127.777 47.8552 127.427 47.8552H117.662C117.779 49.1152 118.269 50.2002 119.132 51.1102C119.996 52.0202 121.046 52.4752 122.282 52.4752C123.986 52.4752 125.327 51.7869 126.307 50.4102C126.424 50.2469 126.564 50.1652 126.727 50.1652C127.054 50.1652 127.217 50.3285 127.217 50.6552C127.217 50.7485 127.194 50.8302 127.147 50.9002C126.167 52.6035 124.546 53.4552 122.282 53.4552C120.696 53.4552 119.354 52.8485 118.257 51.6352C117.184 50.4219 116.647 48.9985 116.647 47.3652C116.647 45.7319 117.184 44.3085 118.257 43.0952C119.331 41.8819 120.672 41.2752 122.282 41.2752ZM117.662 46.8752H126.902C126.786 45.6152 126.296 44.5302 125.432 43.6202C124.569 42.7102 123.519 42.2552 122.282 42.2552C121.046 42.2552 119.996 42.7102 119.132 43.6202C118.269 44.5302 117.779 45.6152 117.662 46.8752ZM137.688 41.5202C138.038 41.5202 138.213 41.6719 138.213 41.9752C138.213 42.2785 138.062 42.4535 137.758 42.5002C136.382 42.6869 135.332 43.3169 134.608 44.3902C133.932 45.3469 133.593 46.5485 133.593 47.9952V52.6852C133.593 53.0119 133.43 53.1752 133.103 53.1752C132.777 53.1752 132.613 53.0119 132.613 52.6852V42.0102C132.613 41.6835 132.777 41.5202 133.103 41.5202C133.43 41.5202 133.593 41.6835 133.593 42.0102V44.1802C134.037 43.4335 134.608 42.8152 135.308 42.3252C136.102 41.7885 136.895 41.5202 137.688 41.5202Z" fill="#333333"/>
</svg>
