<svg width="180" height="81" viewBox="0 0 180 81" fill="none" xmlns="http://www.w3.org/2000/svg">
<path d="M45.6165 40.7739L35.7535 58.0457L45.6165 75.3171L55.4795 58.0457L45.6165 40.7739Z" fill="#333333"/>
<path d="M55.4794 23.5024L45.6164 40.7738L55.4794 58.0455L65.3424 40.7738L55.4794 23.5024Z" fill="#666666"/>
<path d="M35.7535 23.5024L25.8905 40.7738L35.7535 58.0455L45.6165 40.7738L35.7535 23.5024Z" fill="#666666"/>
<path d="M65.3425 6.23096L55.4795 23.5026L65.3425 40.774L75.2055 23.5026L65.3425 6.23096Z" fill="#8C8C8C"/>
<path d="M50.548 14.8662H40.685L35.7535 23.5023L45.6165 40.7736L55.4795 23.5023L50.548 14.8662Z" fill="#8C8C8C"/>
<path d="M25.8904 6.23096L16.0274 23.5026L25.8904 40.774L35.7534 23.5026L25.8904 6.23096Z" fill="#8C8C8C"/>
<path d="M85.0685 6.23096H65.3425L75.2055 23.5023L85.0685 6.23096Z" fill="#B2B2B2"/>
<path d="M25.8905 6.23096H6.16443L16.0274 23.5023L25.8905 6.23096Z" fill="#B2B2B2"/>
<path d="M102.97 39.3975C103.373 39.3975 103.574 39.601 103.574 40.0081C103.574 40.0663 100.741 48.9056 95.0733 66.5262C94.987 66.7879 94.7857 66.9188 94.4692 66.9188C94.1528 66.9188 93.9514 66.7879 93.8651 66.5262C88.198 48.9056 85.3644 40.0663 85.3644 40.0081C85.3644 39.601 85.5658 39.3975 85.9686 39.3975C86.2562 39.3975 86.4432 39.5283 86.5295 39.79L94.4692 64.4327L102.366 39.79C102.481 39.5283 102.682 39.3975 102.97 39.3975ZM117.744 51.697C118.146 51.697 118.348 51.9005 118.348 52.3076C118.348 52.3658 115.529 59.7222 109.89 74.377C109.804 74.6387 109.617 74.7695 109.329 74.7695C108.927 74.7695 108.725 74.566 108.725 74.1589C108.725 74.0717 109.761 71.3385 111.832 65.9592C111.746 65.872 110.796 63.6186 108.984 59.1988C107.172 54.7501 106.266 52.453 106.266 52.3076C106.266 51.9005 106.467 51.697 106.87 51.697C107.129 51.697 107.316 51.8133 107.431 52.0459L112.436 64.3891L117.183 52.0895C117.298 51.8278 117.485 51.697 117.744 51.697ZM131.345 51.4353C133.301 51.4353 134.969 52.2058 136.35 53.7469C137.645 55.2298 138.292 56.989 138.292 59.0244C138.292 61.0597 137.645 62.8189 136.35 64.3018C134.969 65.843 133.301 66.6135 131.345 66.6135C128.669 66.6135 126.656 65.3486 125.303 62.8189V74.0281C125.303 74.4352 125.103 74.6387 124.699 74.6387C124.297 74.6387 124.095 74.4352 124.095 74.0281V52.3076C124.095 51.9005 124.297 51.697 124.699 51.697C125.103 51.697 125.303 51.9005 125.303 52.3076V55.2735C126.656 52.7147 128.669 51.4353 131.345 51.4353ZM131.345 65.3922C132.984 65.3922 134.352 64.7526 135.444 63.4732C136.537 62.1937 137.084 60.7108 137.084 59.0244C137.084 57.338 136.537 55.855 135.444 54.5756C134.352 53.2962 132.984 52.6565 131.345 52.6565C129.705 52.6565 128.324 53.2962 127.202 54.5756C126.11 55.855 125.562 57.338 125.562 59.0244C125.562 60.7108 126.11 62.1937 127.202 63.4732C128.324 64.7526 129.705 65.3922 131.345 65.3922ZM150.759 51.4353C152.744 51.4353 154.398 52.1914 155.721 53.7033C157.073 55.2153 157.749 56.989 157.749 59.0244C157.749 59.4315 157.533 59.635 157.102 59.635H145.063C145.207 61.2052 145.811 62.5572 146.875 63.6912C147.94 64.8252 149.235 65.3922 150.759 65.3922C152.859 65.3922 154.513 64.5345 155.721 62.8189C155.865 62.6154 156.038 62.5136 156.239 62.5136C156.642 62.5136 156.843 62.7171 156.843 63.1242C156.843 63.2405 156.815 63.3423 156.757 63.4295C155.548 65.5521 153.55 66.6135 150.759 66.6135C148.803 66.6135 147.149 65.8574 145.796 64.3455C144.473 62.8335 143.811 61.0597 143.811 59.0244C143.811 56.989 144.473 55.2153 145.796 53.7033C147.12 52.1914 148.774 51.4353 150.759 51.4353ZM145.063 58.4138H156.455C156.312 56.8436 155.707 55.4915 154.642 54.3575C153.578 53.2235 152.284 52.6565 150.759 52.6565C149.235 52.6565 147.94 53.2235 146.875 54.3575C145.811 55.4915 145.207 56.8436 145.063 58.4138ZM169.752 51.7406C170.184 51.7406 170.4 51.9297 170.4 52.3076C170.4 52.6856 170.213 52.9037 169.839 52.9618C168.142 53.1945 166.848 53.9796 165.955 55.3171C165.122 56.5093 164.704 58.0066 164.704 59.8095V65.6539C164.704 66.061 164.503 66.2645 164.1 66.2645C163.698 66.2645 163.496 66.061 163.496 65.6539V52.3512C163.496 51.9441 163.698 51.7406 164.1 51.7406C164.503 51.7406 164.704 51.9441 164.704 52.3512V55.0554C165.251 54.1249 165.955 53.3544 166.818 52.7438C167.797 52.075 168.775 51.7406 169.752 51.7406Z" fill="#333333"/>
</svg>
