<?xml version="1.0" encoding="UTF-8"?>
<svg width="192px" height="57px" viewBox="0 0 192 57" version="1.1" xmlns="http://www.w3.org/2000/svg" xmlns:xlink="http://www.w3.org/1999/xlink">
    <!-- Generator: Sketch 64 (93537) - https://sketch.com -->
    <title>agerona_logo</title>
    <desc>Created with Sketch.</desc>
    <g id="Page-1" stroke="none" stroke-width="1" fill="none" fill-rule="evenodd">
        <g id="agerona_home-01" transform="translate(-22.000000, -35.000000)">
            <rect fill="#FFFFFF" x="0" y="0" width="1440" height="3193"></rect>
            <rect id="Rectangle" fill="#EDEDED" x="44" y="66" width="162" height="19"></rect>
            <path d="M41.0126953,74 L41.0126953,70.4111328 L38.9414062,70.0419922 L40.2539062,65.9404297 L49.9335938,65.9404297 L51.2460938,70.0419922 L49.1748047,70.4111328 L49.1748047,74 L59.3466797,74 L59.3466797,70.4111328 L57.2138672,70.1035156 L48.1904297,44.140625 L42.0585938,44.140625 L32.9736328,70.1035156 L30.8408203,70.4111328 L30.8408203,74 L41.0126953,74 Z M48.5185547,61.53125 L41.6689453,61.53125 L45.0322266,51.0107422 L45.1552734,51.0107422 L48.5185547,61.53125 Z M71.5283203,82.9619141 C74.7412109,82.9619141 77.2670898,82.090332 79.105957,80.347168 C80.9448242,78.6040039 81.8642578,76.2695312 81.8642578,73.34375 L81.8642578,73.34375 L81.8642578,51.8105469 L76.6552734,51.8105469 L76.2246094,54.5996094 C75.5546875,53.5742188 74.7480469,52.784668 73.8046875,52.230957 C72.8613281,51.6772461 71.7675781,51.4003906 70.5234375,51.4003906 C67.7753906,51.4003906 65.6391602,52.4736328 64.1147461,54.6201172 C62.590332,56.7666016 61.828125,59.5898438 61.828125,63.0898438 L61.828125,63.0898438 L61.828125,63.5205078 C61.828125,66.7880859 62.590332,69.4233398 64.1147461,71.4262695 C65.6391602,73.4291992 67.7617188,74.4306641 70.4824219,74.4306641 C71.6308594,74.4306641 72.6494141,74.2119141 73.5380859,73.7744141 C74.4267578,73.3369141 75.1992188,72.7011719 75.8554688,71.8671875 L75.8554688,71.8671875 L75.8554688,73.3232422 C75.8554688,74.9091797 75.4931641,76.1464844 74.7685547,77.0351562 C74.0439453,77.9238281 72.9501953,78.3681641 71.4873047,78.3681641 C70.4208984,78.3681641 69.4091797,78.2485352 68.4521484,78.0092773 C67.4951172,77.7700195 66.5380859,77.4453125 65.5810547,77.0351562 L65.5810547,77.0351562 L64.4736328,81.2392578 C65.5400391,81.7724609 66.7021484,82.1928711 67.9599609,82.5004883 C69.2177734,82.8081055 70.4072266,82.9619141 71.5283203,82.9619141 Z M72,69.7753906 C70.5234375,69.7753906 69.4570312,69.2182617 68.8007812,68.1040039 C68.1445312,66.9897461 67.8164062,65.4619141 67.8164062,63.5205078 L67.8164062,63.5205078 L67.8164062,63.0898438 C67.8164062,60.9980469 68.1547852,59.3027344 68.831543,58.0039062 C69.5083008,56.7050781 70.578125,56.0556641 72.0410156,56.0556641 C72.9296875,56.0556641 73.6918945,56.2402344 74.3276367,56.609375 C74.9633789,56.9785156 75.4726562,57.4980469 75.8554688,58.1679688 L75.8554688,58.1679688 L75.8554688,67.8066406 C75.4726562,68.4492188 74.9633789,68.9379883 74.3276367,69.2729492 C73.6918945,69.6079102 72.9160156,69.7753906 72,69.7753906 Z M96.0761719,74.4306641 C97.8671875,74.4306641 99.4907227,74.1845703 100.946777,73.6923828 C102.402832,73.2001953 103.588867,72.5917969 104.504883,71.8671875 L104.504883,71.8671875 L102.884766,68.1757812 C101.845703,68.75 100.888672,69.1704102 100.013672,69.4370117 C99.1386719,69.7036133 98.0380859,69.8369141 96.7119141,69.8369141 C95.2216797,69.8369141 94.0424805,69.3652344 93.1743164,68.421875 C92.3061523,67.4785156 91.8173828,66.2753906 91.7080078,64.8125 L91.7080078,64.8125 L91.7490234,64.6894531 L104.99707,64.6894531 L104.99707,61.4287109 C104.99707,58.3525391 104.169922,55.9121094 102.515625,54.1074219 C100.861328,52.3027344 98.5371094,51.40026 95.5429688,51.40026 C92.4941406,51.3867188 90.0639648,52.4462891 88.2524414,54.5791016 C86.440918,56.7119141 85.5351562,59.4257812 85.5351562,62.7207031 L85.5351562,62.7207031 L85.5351562,63.5410156 C85.5351562,66.6992188 86.4921875,69.3037109 88.40625,71.3544922 C90.3203125,73.4052734 92.8769531,74.4306641 96.0761719,74.4306641 Z M99.1318359,60.7314453 L91.7900391,60.7314453 L91.7285156,60.6289062 C91.8789062,59.2480469 92.2753906,58.1337891 92.9179688,57.2861328 C93.5605469,56.4384766 94.4355469,56.0146484 95.5429688,56.0146484 C96.7460938,56.0146484 97.6450195,56.394043 98.2397461,57.152832 C98.8344727,57.9116211 99.1318359,58.9267578 99.1318359,60.1982422 L99.1318359,60.1982422 L99.1318359,60.7314453 Z M120.008789,74 L120.008789,70.4111328 L117.137695,69.7958984 L117.137695,59.0087891 C117.438477,58.3798828 117.875977,57.8945312 118.450195,57.5527344 C119.024414,57.2109375 119.749023,57.0400391 120.624023,57.0400391 L120.624023,57.0400391 L123.084961,57.1015625 L123.720703,51.6464844 C123.488281,51.578125 123.197754,51.5200195 122.849121,51.472168 C122.500488,51.4243164 122.168945,51.4003906 121.854492,51.4003906 C120.774414,51.4003906 119.824219,51.7216797 119.003906,52.3642578 C118.183594,53.0068359 117.513672,53.9023438 116.994141,55.0507812 L116.994141,55.0507812 L116.727539,51.8105469 L107.970703,51.8105469 L107.970703,55.4199219 L111.149414,56.0351562 L111.149414,69.7958984 L108.27832,70.4111328 L108.27832,74 L120.008789,74 Z M136.004883,74.4306641 C139.258789,74.4306641 141.812012,73.3813477 143.664551,71.2827148 C145.51709,69.184082 146.443359,66.4667969 146.443359,63.1308594 L146.443359,63.1308594 L146.443359,62.7001953 C146.443359,59.3779297 145.51709,56.6640625 143.664551,54.5585938 C141.812012,52.453125 139.245117,51.4003906 135.963867,51.4003906 C132.696289,51.4003906 130.13623,52.456543 128.283691,54.5688477 C126.431152,56.6811523 125.504883,59.3916016 125.504883,62.7001953 L125.504883,62.7001953 L125.504883,63.1308594 C125.504883,66.4667969 126.431152,69.184082 128.283691,71.2827148 C130.13623,73.3813477 132.709961,74.4306641 136.004883,74.4306641 Z M136.004883,69.8369141 C134.418945,69.8369141 133.270508,69.2250977 132.55957,68.0014648 C131.848633,66.777832 131.493164,65.1542969 131.493164,63.1308594 L131.493164,63.1308594 L131.493164,62.7001953 C131.493164,60.7314453 131.848633,59.125 132.55957,57.8808594 C133.270508,56.6367188 134.405273,56.0146484 135.963867,56.0146484 C137.522461,56.0146484 138.664062,56.6367188 139.388672,57.8808594 C140.113281,59.125 140.475586,60.7314453 140.475586,62.7001953 L140.475586,62.7001953 L140.475586,63.1308594 C140.475586,65.140625 140.116699,66.7607422 139.398926,67.9912109 C138.681152,69.2216797 137.549805,69.8369141 136.004883,69.8369141 Z M159.999023,74 L159.999023,70.4111328 L157.579102,69.7958984 L157.579102,57.9013672 C158.00293,57.3134766 158.529297,56.8588867 159.158203,56.5375977 C159.787109,56.2163086 160.498047,56.0556641 161.291016,56.0556641 C162.507812,56.0556641 163.416992,56.3666992 164.018555,56.9887695 C164.620117,57.6108398 164.920898,58.6669922 164.920898,60.1572266 L164.920898,60.1572266 L164.920898,69.7958984 L162.357422,70.4111328 L162.357422,74 L173.800781,74 L173.800781,70.4111328 L170.929688,69.7958984 L170.929688,60.1367188 C170.929688,57.1289062 170.300781,54.9208984 169.042969,53.5126953 C167.785156,52.1044922 166.035156,51.4003906 163.792969,51.4003906 C162.453125,51.4003906 161.243164,51.7148438 160.163086,52.34375 C159.083008,52.9726562 158.173828,53.8544922 157.435547,54.9892578 L157.435547,54.9892578 L157.168945,51.8105469 L148.412109,51.8105469 L148.412109,55.4199219 L151.59082,56.0351562 L151.59082,69.7958984 L148.719727,70.4111328 L148.719727,74 L159.999023,74 Z M183.029297,74.4306641 C184.341797,74.4306641 185.507324,74.1777344 186.525879,73.671875 C187.544434,73.1660156 188.40918,72.5029297 189.120117,71.6826172 C189.188477,72.0791016 189.28418,72.472168 189.407227,72.8618164 C189.530273,73.2514648 189.673828,73.6308594 189.837891,74 L189.837891,74 L196.749023,74 L196.749023,70.4111328 L194.923828,70.1650391 C194.882812,69.8916016 194.858887,69.6044922 194.852051,69.3037109 C194.845215,69.0029297 194.841797,68.6816406 194.841797,68.3398438 L194.841797,68.3398438 L194.841797,59.1728516 C194.841797,56.6845703 193.983887,54.7670898 192.268066,53.4204102 C190.552246,52.0737305 188.320312,51.4003906 185.572266,51.4003906 C183.904297,51.4003906 182.362793,51.6533203 180.947754,52.1591797 C179.532715,52.6650391 178.27832,53.2871094 177.18457,54.0253906 L177.18457,54.0253906 L177.164062,58.9472656 L181.675781,58.9472656 L182.06543,56.5683594 C182.393555,56.3496094 182.824219,56.1616211 183.357422,56.0043945 C183.890625,55.847168 184.499023,55.7685547 185.182617,55.7685547 C186.385742,55.7685547 187.294922,56.0625 187.910156,56.6503906 C188.525391,57.2382812 188.833008,58.0654297 188.833008,59.1318359 L188.833008,59.1318359 L188.833008,61.3056641 L185.777344,61.3056641 C182.550781,61.3056641 180.103516,61.8730469 178.435547,63.0078125 C176.767578,64.1425781 175.933594,65.7490234 175.933594,67.8271484 C175.933594,69.8642578 176.572754,71.4741211 177.851074,72.6567383 C179.129395,73.8393555 180.855469,74.4306641 183.029297,74.4306641 Z M184.649414,70.0009766 C183.788086,70.0009766 183.114746,69.7890625 182.629395,69.3652344 C182.144043,68.9414062 181.901367,68.3535156 181.901367,67.6015625 C181.901367,66.7675781 182.229492,66.0532227 182.885742,65.4584961 C183.541992,64.8637695 184.505859,64.5664062 185.777344,64.5664062 L185.777344,64.5664062 L188.833008,64.5664062 L188.833008,67.9501953 C188.422852,68.5380859 187.848633,69.0268555 187.110352,69.4165039 C186.37207,69.8061523 185.551758,70.0009766 184.649414,70.0009766 Z" id="Agerona" fill="#00A9FF" fill-rule="nonzero"></path>
        </g>
    </g>
</svg>