<?xml version="1.0" encoding="utf-8"?>
<!-- Generator: Adobe Illustrator 21.1.0, SVG Export Plug-In . SVG Version: 6.00 Build 0)  -->
<svg version="1.1" id="Layer_1" xmlns="http://www.w3.org/2000/svg" xmlns:xlink="http://www.w3.org/1999/xlink" x="0px" y="0px"
	 viewBox="0 0 331.2 122" style="enable-background:new 0 0 331.2 122;" xml:space="preserve">
<style type="text/css">
	.st0{fill:#010035;}
	.st1{fill:#571AFF;}
</style>
<title>telos-logo</title>
<g>
	<path class="st0" d="M0,33.1h12.5V5.8h13.5v27.2h16.7v11H26.1v56.1c0,3,0.8,5.1,2.2,6.3c1.9,1.3,4.2,1.9,6.4,1.8
		c1.3,0,2.7-0.1,4-0.4c1.3-0.3,2.4-0.5,3.2-0.8h0.5v11.7c-1.6,0.3-3.3,0.6-5.1,0.8c-1.9,0.2-3.8,0.3-5.8,0.3
		c-5.6,0-10.1-1.3-13.7-3.8s-5.3-6.8-5.4-12.9V44.1H0V33.1z"/>
	<path class="st0" d="M88.1,121.8c-6.1,0.1-12.1-1.1-17.6-3.6c-5-2.3-9.5-5.6-13.1-9.8c-3.6-4.2-6.4-9.1-8.2-14.4
		c-1.9-5.7-2.9-11.6-2.8-17.6c0-6,0.9-12,2.9-17.6c1.8-5.3,4.7-10.2,8.3-14.5c3.6-4.1,8-7.5,12.9-9.8c5.2-2.4,10.9-3.7,16.7-3.6
		c5.9-0.1,11.8,1.1,17.1,3.6c4.9,2.3,9.1,5.7,12.4,10c3.5,4.6,6.1,9.8,7.6,15.4c1.8,6.4,2.7,13,2.6,19.7H60.2
		c0.2,4.2,1,8.3,2.3,12.2c1.2,3.6,3.1,6.9,5.5,9.9c2.3,2.8,5.2,5,8.5,6.5c3.6,1.6,7.6,2.4,11.5,2.3c6.3,0,11.5-1.5,15.5-4.4
		c4-3,6.8-7.4,8.4-13.3h13.2c-2,9.3-6.2,16.5-12.7,21.5S97.9,121.8,88.1,121.8z M87.2,41.6c-3.7-0.1-7.3,0.6-10.7,2.1
		c-3,1.3-5.8,3.3-7.9,5.8c-2.3,2.6-4.1,5.6-5.3,8.9c-1.4,3.5-2.4,7.2-2.8,10.9h52c-0.4-8.7-2.8-15.5-7.1-20.4
		C101.1,44,95.1,41.6,87.2,41.6z"/>
	<path class="st0" d="M139.4,0h13.5v119.4h-13.5V0z"/>
	<path class="st0" d="M297.1,121.9c-11.9,0-21.1-2.6-27.6-7.9c-6.5-5.3-10-12.8-10.7-22.6h13.9c0.3,3.3,1.3,6.5,2.8,9.3
		c1.3,2.3,3.2,4.3,5.4,5.8c2.3,1.5,4.8,2.5,7.4,3.1c3,0.6,6,0.9,9,0.9c7.1,0,12.2-1.4,15.4-4.1c3-2.5,4.7-6.2,4.7-10.1
		c0.1-2.1-0.4-4.2-1.2-6.1c-0.9-1.7-2.3-3.1-4-4.1c-2.2-1.3-4.5-2.2-7-2.8c-2.8-0.8-6.3-1.6-10.3-2.5c-4.2-0.9-8.3-1.8-12.2-2.8
		c-3.6-0.9-7.1-2.3-10.3-4.3c-2.9-1.8-5.4-4.3-7.1-7.3c-1.8-3-2.7-6.8-2.7-11.5c0-7.2,2.6-13,7.9-17.3s13-6.4,23.1-6.4
		c10.8,0,18.9,2.4,24.3,7.2s8.6,11.4,9.6,19.9h-13.9c-0.7-5.7-2.6-9.8-5.9-12.5c-3.2-2.6-8.1-3.9-14.5-3.9c-6.2,0-10.7,1.2-13.4,3.6
		c-2.6,2.2-4,5.4-4,8.8c-0.1,2,0.4,4,1.5,5.8c1.1,1.6,2.7,2.9,4.5,3.8c2.3,1.1,4.8,2,7.4,2.5c2.9,0.7,6.2,1.4,9.9,2.2
		c4.3,0.9,8.4,1.9,12.3,2.9c3.6,1,7.1,2.5,10.2,4.5c2.9,1.9,5.3,4.5,6.9,7.6c1.7,3.1,2.5,7.2,2.5,12.2c0.1,4-0.8,7.9-2.5,11.4
		c-1.6,3.3-4,6.1-7,8.2c-3.3,2.3-6.9,4-10.8,4.9C306.4,121.4,301.8,122,297.1,121.9z"/>
	<circle class="st1" cx="207.6" cy="76.4" r="45.4"/>
</g>
</svg>
