<?xml version="1.0" standalone="no"?>
<!DOCTYPE svg PUBLIC "-//W3C//DTD SVG 20010904//EN"
 "http://www.w3.org/TR/2001/REC-SVG-20010904/DTD/svg10.dtd">
<svg version="1.0" xmlns="http://www.w3.org/2000/svg"
 width="400.000000pt" height="400.000000pt" viewBox="0 0 400.000000 400.000000"
 preserveAspectRatio="xMidYMid meet">

<g transform="translate(0.000000,400.000000) scale(0.100000,-0.100000)"
fill="#000000" stroke="none">
<path d="M1220 3949 c-412 -166 -782 -479 -1009 -854 -57 -94 -153 -293 -185
-383 l-26 -73 0 -639 0 -639 26 -73 c148 -414 444 -789 821 -1041 121 -81 296
-171 421 -217 l83 -30 656 0 656 0 116 46 c134 54 301 143 416 222 352 243
641 613 779 998 l26 71 0 668 0 668 -36 91 c-218 549 -653 982 -1201 1196
l-101 40 -659 0 -658 0 -125 -51z m-470 -1239 l0 -30 -83 0 -84 0 1 -227 1
-228 83 -3 82 -3 0 -29 0 -30 -200 0 -200 0 0 30 0 30 85 0 85 0 0 230 0 230
-85 0 -85 0 0 30 0 30 200 0 200 0 0 -30z m970 -204 c0 -271 3 -296 35 -296
14 0 25 -7 28 -19 7 -28 1 -31 -60 -31 -53 0 -53 0 -53 31 l0 31 -30 -26 c-95
-79 -245 -46 -281 62 -21 62 -16 171 9 219 41 79 104 108 219 101 l74 -5 -3
56 c-3 55 -3 56 -35 59 -27 3 -33 7 -33 28 0 23 3 24 65 24 l65 0 0 -234z
m-544 56 c44 -23 54 -68 54 -241 l0 -161 -30 0 -30 0 0 140 c0 169 -10 204
-64 219 -48 13 -95 -1 -132 -40 -29 -30 -29 -30 -32 -175 l-3 -144 -30 0 -29
0 0 149 c0 190 -4 211 -40 211 -21 0 -26 5 -25 20 2 32 19 42 66 38 41 -3 44
-5 49 -37 l5 -33 20 22 c50 55 150 70 221 32z m976 2 c49 -25 77 -79 82 -158
l2 -46 -160 -2 -161 -3 3 -25 c4 -42 23 -78 51 -97 38 -26 143 -24 197 3 41
20 42 20 53 1 16 -25 2 -41 -57 -64 -69 -27 -166 -24 -217 5 -67 41 -93 92
-94 190 -1 64 16 121 47 155 54 60 177 80 254 41z m1012 -11 c35 -25 59 -78
64 -140 l4 -53 -161 0 -161 0 0 -27 c0 -38 33 -89 69 -108 42 -21 114 -19 173
7 42 18 51 19 59 7 16 -26 9 -36 -39 -57 -110 -48 -211 -37 -273 28 -86 91
-72 279 25 339 67 42 186 43 240 4z m-683 -53 c34 -44 62 -80 63 -80 1 0 26
32 56 71 29 38 61 74 71 80 22 12 59 12 59 0 0 -5 -34 -51 -75 -101 -48 -59
-72 -97 -67 -104 14 -19 135 -170 150 -188 14 -17 12 -18 -26 -18 -38 0 -44 4
-84 56 -24 31 -54 70 -67 86 l-23 29 -66 -86 c-63 -80 -69 -85 -105 -85 l-38
0 86 106 85 107 -27 36 c-15 20 -49 63 -75 95 -27 33 -48 64 -48 68 0 4 15 8
34 8 31 0 41 -8 97 -80z m1020 51 l10 -29 36 24 c44 30 68 36 118 32 50 -4 74
-36 77 -103 3 -47 2 -50 -23 -53 -24 -3 -27 1 -32 39 -3 23 -12 48 -20 56 -20
20 -80 7 -118 -24 l-29 -25 0 -124 0 -124 75 0 c58 0 75 -3 75 -14 0 -8 3 -21
6 -30 5 -14 -13 -16 -165 -16 l-171 0 0 30 c0 30 1 30 55 30 l55 0 0 150 0
150 -55 0 c-54 0 -55 0 -55 30 l0 30 76 0 c74 0 75 0 85 -29z m-439 -688 c3
-37 4 -38 52 -45 57 -8 67 -16 60 -46 -6 -20 -10 -21 -60 -16 l-54 7 0 -100 0
-99 52 -34 c28 -19 61 -47 71 -62 26 -35 27 -123 2 -166 -19 -31 -80 -72 -109
-72 -12 0 -16 -10 -16 -40 0 -36 -2 -40 -25 -40 -22 0 -25 4 -25 35 0 32 -3
35 -37 40 -107 18 -110 19 -92 59 9 20 16 23 33 16 12 -4 38 -10 57 -12 l34
-3 2 110 2 110 -46 30 c-84 54 -110 118 -79 198 16 44 72 87 110 87 12 0 16
10 16 40 0 36 3 40 24 40 21 0 25 -5 28 -37z m-2428 -72 c88 -43 134 -154 123
-296 -8 -102 -31 -158 -82 -203 -56 -49 -100 -62 -214 -62 l-91 0 0 288 c0
159 3 292 8 296 4 5 52 6 107 4 80 -3 110 -8 149 -27z m1002 13 c80 -38 116
-126 116 -282 -1 -202 -67 -294 -207 -294 -72 0 -114 18 -148 64 -44 60 -52
96 -52 228 0 175 25 240 110 284 39 21 137 21 181 0z m-518 -81 c61 -173 162
-475 162 -485 0 -5 -15 -8 -32 -6 -31 3 -34 7 -62 86 l-30 82 -111 0 -111 0
-28 -85 c-26 -81 -29 -85 -57 -85 -16 0 -29 5 -29 12 0 7 42 138 93 290 l92
278 41 0 41 0 31 -87z m964 -80 c50 -45 -11 -116 -73 -83 -22 12 -27 68 -7 88
17 17 58 15 80 -5z m6 -331 c18 -23 15 -49 -8 -72 -24 -24 -38 -25 -68 -4 -30
20 -30 68 0 88 25 18 56 13 76 -12z"/>
<path d="M1491 2513 c-57 -30 -76 -65 -76 -141 0 -116 36 -162 128 -162 87 0
117 51 117 201 0 101 -5 108 -82 115 -39 4 -62 1 -87 -13z"/>
<path d="M1978 2514 c-27 -14 -58 -60 -58 -86 0 -10 26 -14 97 -16 53 -1 110
0 125 3 39 9 36 39 -6 81 -30 30 -40 34 -82 34 -27 -1 -61 -7 -76 -16z"/>
<path d="M2985 2520 c-29 -11 -62 -51 -70 -81 l-6 -25 128 0 c105 1 128 4 130
16 5 24 -34 79 -63 90 -30 12 -91 12 -119 0z"/>
<path d="M2961 1734 c-30 -38 -27 -80 8 -115 16 -16 34 -29 40 -29 7 0 11 31
11 85 0 77 -2 85 -19 85 -11 0 -29 -12 -40 -26z"/>
<path d="M3050 1385 c0 -106 7 -114 57 -71 22 19 28 32 28 66 0 35 -6 47 -33
71 -18 16 -37 29 -42 29 -6 0 -10 -39 -10 -95z"/>
<path d="M440 1524 l0 -236 68 4 c127 7 176 73 176 238 1 83 -3 101 -24 140
-32 58 -92 90 -167 90 l-53 0 0 -236z"/>
<path d="M1466 1733 c-41 -40 -59 -119 -54 -232 6 -146 49 -214 136 -213 88 1
123 57 130 208 8 180 -36 264 -137 264 -39 0 -53 -5 -75 -27z"/>
<path d="M1007 1618 c-20 -62 -39 -125 -42 -140 l-7 -28 92 0 c77 0 91 2 87
15 -4 8 -22 67 -43 132 -20 65 -40 122 -44 126 -4 5 -24 -42 -43 -105z"/>
</g>
</svg>
