<?xml version="1.0" standalone="no"?>
<!DOCTYPE svg PUBLIC "-//W3C//DTD SVG 20010904//EN"
 "http://www.w3.org/TR/2001/REC-SVG-20010904/DTD/svg10.dtd">
<svg version="1.0" xmlns="http://www.w3.org/2000/svg"
 width="1754.000000pt" height="352.000000pt" viewBox="0 0 1754.000000 352.000000"
 preserveAspectRatio="xMidYMid meet">

<g transform="translate(0.000000,352.000000) scale(0.100000,-0.100000)"
fill="#000000" stroke="none">
<path d="M0 1760 l0 -1760 8770 0 8770 0 0 1760 0 1760 -8770 0 -8770 0 0
-1760z m16272 713 l3 -88 66 -7 c75 -7 189 -34 203 -48 9 -9 -20 -127 -34
-135 -4 -2 -33 4 -66 14 -33 11 -85 22 -117 26 l-57 7 2 -247 3 -248 90 -54
c191 -115 266 -233 251 -395 -16 -176 -119 -299 -287 -341 l-54 -14 -3 -92 -3
-91 -64 0 -64 0 -3 88 -3 87 -45 3 c-114 6 -280 45 -280 65 0 9 40 127 46 135
1 2 33 -8 71 -21 40 -15 97 -26 138 -28 l70 -4 2 266 3 266 -82 44 c-181 97
-260 226 -245 401 14 165 106 268 275 308 29 7 52 17 51 24 -1 6 -1 46 0 89
l1 77 65 0 64 0 3 -87z m-5997 -119 c202 -40 354 -189 409 -399 29 -113 40
-263 28 -392 -21 -221 -71 -345 -181 -454 -137 -134 -282 -175 -573 -163 -86
4 -162 10 -168 14 -9 5 -11 186 -11 701 1 381 4 695 7 698 8 8 265 17 349 13
39 -2 102 -10 140 -18z m2528 -3 c117 -46 212 -151 257 -285 46 -140 66 -350
50 -534 -31 -346 -156 -539 -378 -582 -90 -18 -242 -8 -316 20 -80 31 -181
130 -224 221 -60 127 -76 219 -77 449 0 210 8 285 44 398 44 138 119 237 219
290 83 44 120 51 252 48 91 -2 127 -7 173 -25z m-10503 -66 l0 -75 -200 0
-200 0 0 -550 0 -550 200 0 200 0 0 -75 0 -75 -480 0 -480 0 0 75 0 75 200 0
200 0 0 550 0 550 -200 0 -200 0 0 75 0 75 480 0 480 0 0 -75z m2343 -532 c2
-335 7 -620 12 -635 7 -27 10 -28 76 -28 l69 0 0 -65 0 -65 -134 0 -134 0 -10
71 c-11 73 -21 96 -30 69 -9 -28 -94 -100 -151 -127 -45 -21 -74 -28 -150 -31
-242 -11 -378 81 -437 299 -26 94 -26 324 0 399 60 175 159 271 326 316 80 22
261 22 343 1 31 -8 58 -12 61 -9 8 7 7 198 0 245 l-7 37 -78 0 -79 0 0 65 0
65 159 0 160 0 4 -607z m6867 604 c0 -1 67 -200 149 -442 81 -242 185 -550
231 -685 45 -135 85 -251 88 -258 3 -10 -15 -12 -83 -10 l-88 3 -65 193 -66
192 -270 -2 -269 -3 -65 -192 -64 -193 -79 0 c-43 0 -79 3 -79 6 0 4 105 319
233 700 l232 694 98 0 c53 0 97 -1 97 -3z m2388 -394 c59 -44 62 -156 5 -209
-33 -31 -99 -40 -146 -20 -54 22 -79 68 -74 135 3 48 9 59 42 89 35 32 41 34
92 30 32 -3 65 -13 81 -25z m-10610 -13 c94 -41 152 -133 171 -274 6 -43 11
-221 11 -397 l0 -319 -79 0 -80 0 -3 353 c-3 346 -3 353 -26 399 -33 67 -67
96 -130 114 -139 41 -296 -35 -368 -178 -24 -47 -24 -49 -24 -368 l0 -320 -75
0 -75 0 0 138 c0 283 -8 668 -15 700 l-7 32 -67 0 -66 0 0 65 0 65 132 0 c151
0 136 10 148 -102 4 -32 8 -58 10 -58 2 0 27 25 55 55 48 49 138 105 195 119
11 3 70 4 130 2 89 -2 120 -7 163 -26z m2310 16 c184 -49 288 -215 280 -447
l-3 -84 -355 -2 c-195 -2 -368 -3 -384 -3 l-29 0 6 -64 c11 -122 61 -197 165
-248 59 -30 77 -33 167 -36 88 -3 112 0 181 23 43 14 103 40 133 56 29 17 57
27 61 22 4 -4 17 -27 30 -50 28 -50 23 -58 -54 -102 -132 -76 -340 -111 -488
-81 -172 33 -294 154 -344 337 -19 74 -20 278 -1 348 47 172 182 302 348 334
70 14 229 12 287 -3z m2444 -15 c153 -60 243 -226 236 -434 l-3 -82 -384 0
-383 0 4 -65 c9 -119 64 -204 164 -255 49 -25 72 -30 154 -33 117 -5 192 12
304 68 43 22 80 40 82 40 4 0 54 -97 54 -105 0 -16 -130 -86 -207 -111 -79
-26 -102 -29 -218 -29 -156 0 -221 17 -309 78 -135 95 -210 290 -191 494 15
157 62 263 159 355 30 28 111 69 181 90 88 26 278 20 357 -11z m1355 14 c81
-34 113 -106 128 -287 l7 -78 -61 0 c-34 0 -64 0 -68 0 -5 -1 -13 34 -19 77
-21 137 -42 163 -131 163 -88 0 -182 -46 -255 -125 l-27 -30 -1 -297 0 -298
190 0 190 0 0 -65 0 -65 -400 0 -400 0 0 65 0 65 135 0 135 0 0 370 0 370
-135 0 -135 0 0 65 0 65 185 0 184 0 10 -37 c5 -21 13 -50 17 -65 3 -16 8 -28
10 -28 2 0 25 16 51 36 128 97 293 139 390 99z m-2992 -96 c173 -225 211 -273
220 -275 6 -2 42 38 80 89 39 50 103 133 144 184 l74 93 84 0 c46 0 83 -2 83
-5 0 -3 -81 -107 -181 -232 -100 -124 -183 -232 -185 -238 -4 -9 109 -158 389
-512 7 -10 -11 -13 -85 -13 l-95 0 -74 96 c-41 53 -109 142 -152 197 -43 56
-82 105 -86 110 -6 6 -231 -269 -307 -375 -18 -26 -22 -27 -112 -28 l-93 0
104 128 c186 228 307 380 307 384 0 3 -66 88 -146 189 -80 101 -166 210 -190
242 l-45 57 98 0 99 0 69 -91z m7494 -695 c59 -49 62 -152 6 -204 -30 -28
-110 -39 -155 -20 -86 36 -94 190 -12 234 15 9 50 15 79 16 41 0 58 -5 82 -26z"/>
<path d="M16124 2231 c-47 -12 -87 -39 -114 -78 -32 -47 -40 -154 -16 -201 19
-38 82 -97 136 -129 l40 -24 0 220 c0 122 -3 221 -7 220 -5 -1 -22 -4 -39 -8z"/>
<path d="M16240 1331 c0 -274 -5 -262 85 -220 101 48 147 156 114 273 -14 49
-84 124 -149 160 l-50 27 0 -240z"/>
<path d="M9962 2223 l-22 -4 2 -562 3 -562 135 1 c115 1 144 4 193 24 138 53
223 169 254 345 20 117 13 373 -12 455 -67 214 -213 313 -454 309 -42 -1 -86
-4 -99 -6z"/>
<path d="M12543 2230 c-60 -13 -94 -33 -140 -83 -79 -85 -114 -234 -115 -482
-1 -237 23 -349 95 -457 59 -88 122 -123 227 -122 166 1 255 84 307 289 24 98
25 446 0 553 -43 192 -137 294 -279 306 -29 3 -72 1 -95 -4z"/>
<path d="M4094 1820 c-116 -46 -180 -142 -192 -293 -21 -246 48 -400 197 -444
102 -29 243 -2 301 58 12 13 37 53 54 89 l31 65 0 245 0 245 -50 25 c-44 22
-65 25 -170 27 -101 3 -128 0 -171 -17z"/>
<path d="M11395 2138 c-15 -45 -111 -348 -151 -473 -25 -82 -49 -156 -51 -162
-4 -10 43 -13 216 -13 122 0 221 1 221 3 0 2 -17 57 -39 124 -21 67 -67 214
-102 327 -59 191 -80 234 -94 194z"/>
<path d="M5327 1839 c-78 -18 -141 -66 -176 -134 -22 -44 -42 -121 -33 -130 7
-7 607 -7 614 1 8 8 -15 103 -34 139 -24 46 -68 85 -123 111 -40 19 -66 24
-130 23 -44 -1 -97 -5 -118 -10z"/>
<path d="M7720 1837 c-113 -32 -183 -110 -204 -229 l-7 -38 312 0 312 0 -6 49
c-10 87 -65 165 -147 207 -45 23 -196 29 -260 11z"/>
</g>
</svg>
