<svg width="460" height="72" viewBox="0 0 460 72" fill="none" xmlns="http://www.w3.org/2000/svg">
<path fill-rule="evenodd" clip-rule="evenodd" d="M25.288 32.7048L0.939945 7.4843C0.6445 7.18556 0.409281 6.82905 0.247935 6.43544C0.0865904 6.04182 0.00233222 5.61896 4.77706e-05 5.19136C-0.00223668 4.76375 0.0775038 4.33992 0.234633 3.94448C0.391763 3.54904 0.623167 3.18988 0.915402 2.88778L2.69577 1.03771C3.20277 0.496262 3.86677 0.141306 4.58664 0.0268734C5.06161 -0.0368499 5.54438 0.0131139 5.99778 0.17293C6.45119 0.332746 6.86314 0.598123 7.20194 0.948691L36.9341 31.7385C37.4511 32.2729 37.8612 32.9076 38.141 33.6063C38.4209 34.305 38.5649 35.054 38.5649 35.8105C38.5649 36.5669 38.4209 37.3159 38.141 38.0146C37.8612 38.7134 37.4511 39.3481 36.9341 39.8825L7.20194 70.6722C6.91176 70.9729 6.5672 71.2114 6.18799 71.3741C5.80877 71.5368 5.40231 71.6206 4.99183 71.6206C4.58134 71.6206 4.17488 71.5368 3.79567 71.3741C3.41645 71.2114 3.0719 70.9729 2.78171 70.6722L0.939945 68.765C0.649623 68.4645 0.419322 68.1077 0.262193 67.7149C0.105065 67.3222 0.0241977 66.9013 0.0241977 66.4762C0.0241977 66.0511 0.105065 65.6302 0.262193 65.2375C0.419322 64.8448 0.649623 64.488 0.939945 64.1875L25.288 38.9733C26.0866 38.1398 26.5347 37.0132 26.5347 35.8391C26.5347 34.6649 26.0866 33.5383 25.288 32.7048ZM57.3505 38.9465L81.708 64.1604C82.0005 64.4588 82.2332 64.8139 82.3931 65.2055C82.5529 65.5971 82.6366 66.0174 82.6395 66.4425C82.6423 66.8676 82.5642 67.2891 82.4097 67.6829C82.2551 68.0767 82.0271 68.4352 81.7387 68.7378L79.9515 70.5814C79.4493 71.1263 78.7857 71.482 78.066 71.5923C77.5908 71.658 77.1073 71.6089 76.6535 71.449C76.1996 71.2891 75.7876 71.0226 75.4497 70.6705L45.7061 39.8811C45.1889 39.3467 44.7786 38.712 44.4987 38.0133C44.2187 37.3146 44.0747 36.5655 44.0747 35.8091C44.0747 35.0527 44.2187 34.3037 44.4987 33.605C44.7786 32.9063 45.1889 32.2715 45.7061 31.7371L75.4497 0.94779C75.7395 0.647341 76.0836 0.408976 76.4625 0.246347C76.8414 0.0837178 77.2475 2.49491e-05 77.6576 2.49491e-05C78.0677 2.49491e-05 78.4738 0.0837178 78.8527 0.246347C79.2316 0.408976 79.5757 0.647341 79.8655 0.94779L81.708 2.88682C81.9982 3.18678 82.2285 3.54303 82.3856 3.9352C82.5427 4.32737 82.6236 4.74776 82.6236 5.17232C82.6236 5.59688 82.5427 6.01727 82.3856 6.40944C82.2285 6.80161 81.9982 7.1579 81.708 7.45786L57.3505 32.678C56.5516 33.5116 56.1034 34.6381 56.1034 35.8123C56.1034 36.9864 56.5516 38.113 57.3505 38.9465Z" fill="#333333"/>
<path d="M150.446 48.7363C148.906 49.4013 147.016 49.7338 144.776 49.7338C143.066 49.7521 141.37 49.4275 139.788 48.7793C138.306 48.1655 136.966 47.2542 135.85 46.1017C134.745 44.8792 133.889 43.4524 133.33 41.9015C132.723 40.2037 132.422 38.4114 132.443 36.6083C132.423 34.8018 132.725 33.0062 133.335 31.3056C133.884 29.7671 134.74 28.3561 135.85 27.158C136.955 25.9818 138.297 25.0544 139.788 24.4374C141.37 23.7892 143.066 23.4646 144.776 23.4828C146.844 23.4828 148.647 23.8154 150.184 24.4804C151.701 25.1053 153.063 26.0551 154.174 27.263L158.269 23.1678C156.6 21.5007 154.641 20.1518 152.489 19.1872C150.324 18.1992 147.753 17.706 144.776 17.7076C142.303 17.6752 139.849 18.1473 137.564 19.0951C135.279 20.0429 133.212 21.4466 131.488 23.2203C129.8 24.9503 128.48 27.0041 127.608 29.2581C126.684 31.5977 126.219 34.0931 126.238 36.6083C126.222 39.1384 126.685 41.6487 127.603 44.0064C128.481 46.2504 129.796 48.2974 131.472 50.028C133.149 51.7586 135.153 53.1383 137.368 54.0867C139.716 55.0459 142.231 55.5278 144.766 55.5043C147.706 55.5043 150.314 55.0143 152.589 54.0342C154.813 53.089 156.829 51.7153 158.522 49.9916L154.427 45.8964C153.313 47.1106 151.957 48.078 150.446 48.7363Z" fill="#333333"/>
<path d="M171.417 46.2001L164.962 29.7812H158.609L168.191 52.4478L161.864 65.4826H168.269L172.942 55.2447L184.65 29.7812H178.245L171.417 46.2001Z" fill="#333333"/>
<path d="M207.43 31.0419C205.605 29.8503 203.467 29.2289 201.287 29.2569C199.509 29.2285 197.754 29.6627 196.195 30.5169C195.2 31.0436 194.31 31.7481 193.569 32.5955V17.1814H187.794V54.9828H193.569V52.236C194.302 53.067 195.172 53.7653 196.142 54.3003C197.73 55.1251 199.498 55.5402 201.287 55.5079C203.459 55.5374 205.593 54.9355 207.43 53.7753C209.272 52.6331 210.777 51.02 211.788 49.1026C212.885 47.0535 213.445 44.7593 213.415 42.4349C213.454 40.1094 212.893 37.8132 211.788 35.7671C210.788 33.8275 209.282 32.1946 207.43 31.0419V31.0419ZM206.537 46.3725C205.967 47.4988 205.094 48.4441 204.017 49.1026C202.903 49.7529 201.632 50.0832 200.342 50.0572C199.036 50.079 197.749 49.7493 196.615 49.1026C195.536 48.4455 194.663 47.4998 194.094 46.3725C193.479 45.134 193.173 43.7649 193.202 42.3824C193.173 40.9998 193.479 39.6308 194.094 38.3922C194.655 37.2728 195.531 36.342 196.615 35.7146C197.739 35.0382 199.031 34.6924 200.342 34.7171C201.638 34.6881 202.914 35.0346 204.017 35.7146C205.1 36.3434 205.975 37.2738 206.537 38.3922C207.189 39.6198 207.517 40.9929 207.492 42.3824C207.517 43.7718 207.189 45.1449 206.537 46.3725V46.3725Z" fill="#333333"/>
<path d="M235.835 30.8794C234.05 29.7928 231.982 29.2502 229.631 29.2518C227.908 29.2389 226.201 29.5704 224.608 30.2267C223.016 30.8831 221.571 31.8511 220.358 33.0739C219.145 34.2967 218.188 35.7496 217.545 37.3473C216.901 38.945 216.583 40.6551 216.61 42.3773C216.559 44.6968 217.137 46.9869 218.283 49.004C219.429 51.0211 221.101 52.6897 223.12 53.8323C225.215 54.9645 227.565 55.5397 229.946 55.5028C231.856 55.513 233.749 55.138 235.511 54.4003C237.235 53.6844 238.765 52.5686 239.973 51.1452L236.298 47.4175C235.524 48.2968 234.552 48.9805 233.463 49.4126C232.328 49.8786 231.111 50.1108 229.884 50.0951C228.494 50.12 227.121 49.7915 225.893 49.1405C224.752 48.4897 223.822 47.5236 223.216 46.3579C222.911 45.7767 222.681 45.1593 222.531 44.5204H241.329C241.426 44.0523 241.497 43.579 241.539 43.1028C241.608 42.6687 241.643 42.2298 241.644 41.7903C241.684 39.5379 241.142 37.3134 240.069 35.3325C239.095 33.4867 237.63 31.9457 235.835 30.8794V30.8794ZM223.187 38.1772C223.749 37.0588 224.625 36.1284 225.707 35.4996C226.877 34.8447 228.2 34.5151 229.54 34.545C230.942 34.545 232.114 34.825 233.058 35.385C234.036 35.9439 234.823 36.7858 235.315 37.8001C235.623 38.4335 235.846 39.1041 235.981 39.7952H222.571C222.709 39.2348 222.914 38.6931 223.182 38.1819L223.187 38.1772Z" fill="#333333"/>
<path d="M262.043 29.9406C260.967 29.4727 259.804 29.24 258.631 29.2581C255.767 29.2581 253.614 30.2556 252.173 32.2507C252.137 32.3008 252.104 32.3533 252.068 32.4058V29.7807H246.293V54.984H252.068V40.966C252.068 38.7959 252.593 37.205 253.643 36.1931C254.693 35.1812 256.023 34.6737 257.633 34.6705C258.294 34.6581 258.952 34.7648 259.576 34.9856C260.159 35.2108 260.68 35.5706 261.098 36.0356L264.89 32.1457C264.116 31.2091 263.144 30.456 262.043 29.9406V29.9406Z" fill="#333333"/>
<path d="M291.751 48.7362C290.213 49.4013 288.323 49.7338 286.081 49.7338C284.371 49.7521 282.675 49.4275 281.093 48.7792C279.611 48.1655 278.271 47.2541 277.156 46.1016C276.05 44.8791 275.194 43.4523 274.636 41.9014C274.026 40.2039 273.724 38.4116 273.743 36.6083C273.723 34.8017 274.025 33.0061 274.636 31.3056C275.186 29.7667 276.043 28.3556 277.156 27.1579C278.26 25.9818 279.602 25.0543 281.093 24.4374C282.675 23.7891 284.371 23.4645 286.081 23.4828C288.149 23.4828 289.952 23.8153 291.489 24.4803C293.006 25.1053 294.368 26.0551 295.479 27.2629L299.574 23.1678C297.907 21.5011 295.95 20.1522 293.799 19.1872C291.629 18.1992 289.056 17.706 286.081 17.7076C283.609 17.6758 281.156 18.1482 278.872 19.096C276.588 20.0438 274.521 21.4471 272.798 23.2203C271.108 24.9498 269.787 27.0037 268.913 29.258C267.991 31.598 267.527 34.0933 267.548 36.6083C267.531 39.1384 267.995 41.6486 268.913 44.0063C269.79 46.2503 271.106 48.2973 272.782 50.0279C274.459 51.7586 276.463 53.1383 278.678 54.0867C281.026 55.0458 283.541 55.5277 286.076 55.5042C289.016 55.5042 291.624 55.0142 293.899 54.0342C296.123 53.0889 298.139 51.7153 299.832 49.9915L295.737 45.8964C294.621 47.1111 293.264 48.0786 291.751 48.7362Z" fill="#333333"/>
<path d="M321.99 30.991C319.945 29.823 317.625 29.2247 315.27 29.2584C312.926 29.2295 310.618 29.8471 308.602 31.0435C306.639 32.1691 304.996 33.7775 303.829 35.7162C302.659 37.7239 302.058 40.0126 302.092 42.3362C302.062 44.6738 302.661 46.9764 303.824 49.004C304.988 50.9714 306.63 52.6132 308.597 53.7769C310.098 54.6624 311.759 55.2415 313.484 55.4808C315.21 55.7201 316.966 55.6148 318.65 55.1709C320.335 54.727 321.915 53.9534 323.298 52.8948C324.682 51.8363 325.842 50.5138 326.711 49.004C327.907 46.9876 328.527 44.6809 328.5 42.3362C328.533 40.0079 327.915 37.7168 326.715 35.721C325.589 33.7522 323.958 32.1194 321.99 30.991V30.991ZM321.623 46.2643C321.043 47.4013 320.151 48.3487 319.05 48.9944C317.898 49.6449 316.593 49.9745 315.27 49.949C313.948 49.9662 312.645 49.6371 311.49 48.9944C310.405 48.3292 309.517 47.3868 308.917 46.2643C308.306 45.0431 308 43.692 308.025 42.3267C307.995 40.9776 308.302 39.6425 308.917 38.4415C309.52 37.3489 310.41 36.4414 311.49 35.8164C312.635 35.144 313.942 34.799 315.27 34.8189C316.599 34.7903 317.908 35.136 319.05 35.8164C320.13 36.4421 321.019 37.3494 321.623 38.4415C322.274 39.6313 322.603 40.9706 322.577 42.3267C322.599 43.7006 322.271 45.0574 321.623 46.2691V46.2643Z" fill="#333333"/>
<path d="M351.623 30.7284C350.13 29.741 348.373 29.2285 346.583 29.2583C344.816 29.2352 343.075 29.6886 341.543 30.5709C340.603 31.1047 339.767 31.804 339.076 32.6351V29.7833H333.3V54.9843H339.076V40.4412C339.057 39.3969 339.311 38.3657 339.811 37.4486C340.288 36.5876 340.997 35.8781 341.858 35.401C342.775 34.9011 343.806 34.6478 344.851 34.666C346.531 34.666 347.896 35.2085 348.946 36.2936C350.025 37.3802 350.564 38.7628 350.564 40.4412V54.9843H356.339V39.1812C356.341 37.5269 355.913 35.9005 355.098 34.4608C354.277 32.9408 353.081 31.656 351.623 30.7284V30.7284Z" fill="#333333"/>
<path d="M380.541 30.7284C379.047 29.741 377.29 29.2285 375.5 29.2583C373.733 29.2352 371.992 29.6886 370.46 30.5709C369.517 31.104 368.679 31.8034 367.985 32.6351V29.7833H362.21V54.9843H367.985V40.4412C367.967 39.3969 368.221 38.3657 368.72 37.4486C369.198 36.5876 369.907 35.8781 370.768 35.401C371.685 34.9011 372.716 34.6478 373.761 34.666C375.441 34.666 376.806 35.2085 377.856 36.2936C378.942 37.3786 379.485 38.7612 379.483 40.4412V54.9843H385.259V39.1812C385.255 37.5235 384.821 35.8953 383.999 34.456C383.181 32.9398 381.991 31.6568 380.541 30.7284V30.7284Z" fill="#333333"/>
<path d="M408.724 30.8794C406.939 29.7928 404.87 29.2502 402.519 29.2518C400.797 29.2389 399.089 29.5704 397.497 30.2267C395.904 30.8831 394.459 31.8511 393.246 33.0739C392.033 34.2967 391.077 35.7496 390.433 37.3473C389.789 38.945 389.472 40.6551 389.499 42.3773C389.447 44.6968 390.025 46.9869 391.172 49.004C392.318 51.0211 393.99 52.6897 396.009 53.8323C398.103 54.9648 400.453 55.54 402.834 55.5028C404.744 55.5125 406.637 55.1375 408.399 54.4003C410.123 53.6831 411.652 52.5676 412.862 51.1452L409.187 47.4175C408.411 48.2958 407.44 48.9793 406.352 49.4126C405.216 49.8782 403.999 50.1103 402.772 50.0951C401.383 50.1203 400.009 49.7918 398.782 49.1405C397.64 48.4897 396.711 47.5236 396.104 46.3579C395.8 45.7767 395.569 45.1593 395.419 44.5204H414.217C414.314 44.0521 414.384 43.5789 414.427 43.1028C414.495 42.6686 414.53 42.2298 414.532 41.7903C414.573 39.5379 414.03 37.3134 412.957 35.3325C411.982 33.4877 410.517 31.9471 408.724 30.8794V30.8794ZM396.076 38.1772C396.636 37.0578 397.512 36.127 398.596 35.4996C399.765 34.8443 401.088 34.5147 402.428 34.545C403.827 34.545 404.999 34.825 405.946 35.385C406.924 35.9446 407.711 36.7863 408.204 37.8001C408.511 38.4332 408.734 39.104 408.867 39.7952H395.462C395.598 39.2345 395.803 38.6927 396.071 38.1819L396.076 38.1772Z" fill="#333333"/>
<path d="M426.952 35.8197C428.114 35.1427 429.44 34.7976 430.785 34.8222C431.941 34.8077 433.086 35.0404 434.145 35.5047C435.186 35.9175 436.107 36.5855 436.823 37.4473L440.603 33.6146C439.419 32.2169 437.924 31.1166 436.238 30.4024C434.523 29.6247 432.66 29.2306 430.778 29.2474C428.407 29.2176 426.07 29.8154 424.005 30.98C422.038 32.107 420.407 33.7381 419.28 35.7051C418.108 37.7293 417.509 40.0343 417.547 42.3729C417.518 44.7105 418.116 47.0131 419.28 49.0407C420.407 51.0077 422.038 52.6388 424.005 53.7658C425.865 54.7855 427.931 55.3717 430.049 55.4808C432.167 55.5899 434.283 55.219 436.238 54.3959C437.917 53.6521 439.406 52.5395 440.596 51.1407L436.815 47.3081C436.092 48.1743 435.175 48.8579 434.138 49.3032C433.07 49.7329 431.928 49.9471 430.778 49.9332C429.439 49.9548 428.117 49.6257 426.945 48.9786C425.87 48.3238 424.984 47.4012 424.372 46.301C423.761 45.0798 423.455 43.7287 423.48 42.3634C423.447 40.9971 423.753 39.6441 424.372 38.4257C424.98 37.3392 425.872 36.4384 426.952 35.8197Z" fill="#333333"/>
<path d="M460 29.7829H453.962V19.2825H448.187V29.7829H442.149V35.0331H448.187V54.9838H453.962V35.0331H460V29.7829Z" fill="#333333"/>
</svg>
