<svg width="14" height="14" viewBox="0 0 14 14" fill="none" xmlns="http://www.w3.org/2000/svg">
<g clip-path="url(#clip0_4668_68729)">
<path d="M7 14C10.866 14 14 10.866 14 7C14 3.13401 10.866 0 7 0C3.13401 0 0 3.13401 0 7C0 10.866 3.13401 14 7 14Z" fill="url(#paint0_linear_4668_68729)"/>
<path d="M7 14C10.866 14 14 10.866 14 7C14 3.13401 10.866 0 7 0C3.13401 0 0 3.13401 0 7C0 10.866 3.13401 14 7 14Z" fill="white"/>
<path d="M10.7736 3.57488C10.0795 3.27037 9.33532 3.04602 8.55717 2.91753C8.543 2.91505 8.52885 2.92125 8.52155 2.93364C8.42583 3.09643 8.31981 3.3088 8.24557 3.47571C7.40863 3.3559 6.57598 3.3559 5.7562 3.47571C5.68194 3.30508 5.57207 3.09643 5.47593 2.93364C5.46863 2.92166 5.45447 2.91546 5.4403 2.91753C4.66259 3.04561 3.91835 3.26996 3.2239 3.57488C3.21789 3.57736 3.21274 3.58149 3.20932 3.58686C1.79767 5.60353 1.41096 7.57063 1.60066 9.51334C1.60152 9.52284 1.6071 9.53193 1.61483 9.53771C2.54619 10.1917 3.44838 10.5888 4.33382 10.852C4.34799 10.8561 4.363 10.8512 4.37202 10.84C4.58147 10.5665 4.76818 10.2781 4.92826 9.97483C4.93771 9.95707 4.92869 9.936 4.90938 9.92898C4.61323 9.82155 4.33124 9.69058 4.05999 9.54185C4.03853 9.52986 4.03681 9.50052 4.05655 9.48647C4.11363 9.44557 4.17073 9.40301 4.22524 9.36004C4.2351 9.3522 4.24884 9.35054 4.26043 9.35549C6.04247 10.1335 7.97174 10.1335 9.73275 9.35549C9.74434 9.35013 9.75808 9.35178 9.76837 9.35963C9.82289 9.4026 9.87998 9.44557 9.93749 9.48647C9.95722 9.50052 9.95594 9.52986 9.93448 9.54185C9.66323 9.69347 9.38123 9.82155 9.08466 9.92857C9.06535 9.93559 9.05676 9.95707 9.06621 9.97483C9.22972 10.2777 9.41643 10.5661 9.62202 10.8396C9.6306 10.8512 9.64605 10.8561 9.66022 10.852C10.5499 10.5888 11.4521 10.1917 12.3835 9.53771C12.3917 9.53193 12.3968 9.52325 12.3977 9.51375C12.6247 7.26776 12.0174 5.31679 10.7877 3.58727C10.7847 3.58149 10.7796 3.57736 10.7736 3.57488ZM5.19438 8.33043C4.65786 8.33043 4.21579 7.85943 4.21579 7.28099C4.21579 6.70255 4.64929 6.23155 5.19438 6.23155C5.74375 6.23155 6.18154 6.70669 6.17295 7.28099C6.17295 7.85943 5.73945 8.33043 5.19438 8.33043ZM8.81254 8.33043C8.27604 8.33043 7.83397 7.85943 7.83397 7.28099C7.83397 6.70255 8.26745 6.23155 8.81254 6.23155C9.36192 6.23155 9.7997 6.70669 9.79113 7.28099C9.79113 7.85943 9.36192 8.33043 8.81254 8.33043Z" fill="#576FED"/>
</g>
<defs>
<linearGradient id="paint0_linear_4668_68729" x1="9.30636" y1="2.22543" x2="5.86705" y2="10.5202" gradientUnits="userSpaceOnUse">
<stop stop-color="#2AABEE"/>
<stop offset="1" stop-color="#229ED9"/>
</linearGradient>
<clipPath id="clip0_4668_68729">
<rect width="14" height="14" fill="white"/>
</clipPath>
</defs>
</svg>
