<svg width="14" height="14" viewBox="0 0 14 14" fill="none" xmlns="http://www.w3.org/2000/svg">
<g clip-path="url(#clip0_4668_68728)">
<path d="M7 14C10.866 14 14 10.866 14 7C14 3.13401 10.866 0 7 0C3.13401 0 0 3.13401 0 7C0 10.866 3.13401 14 7 14Z" fill="url(#paint0_linear_4668_68728)"/>
<path d="M7 14C10.866 14 14 10.866 14 7C14 3.13401 10.866 0 7 0C3.13401 0 0 3.13401 0 7C0 10.866 3.13401 14 7 14Z" fill="white"/>
<path d="M10.5606 3.19665C10.5606 3.19665 11.5317 2.819 11.4507 3.73615C11.4238 4.1138 11.181 5.43557 10.9922 6.86525L10.3448 11.1003C10.3448 11.1003 10.2908 11.7207 9.80528 11.8286C9.31973 11.9365 8.5914 11.451 8.45653 11.3431C8.34863 11.2622 6.43341 10.0483 5.75904 9.45484C5.57021 9.29299 5.35441 8.96929 5.78601 8.59164L8.61838 5.89415C8.94208 5.57045 9.26578 4.81515 7.91703 5.7323L4.14054 8.29492C4.14054 8.29492 3.70894 8.56467 2.89969 8.32189L1.14632 7.78239C1.14632 7.78239 0.498919 7.37777 1.60489 6.97315C4.30239 5.70532 7.62031 4.41052 10.5606 3.19665Z" fill="white"/>
<path d="M10.5606 3.19665C10.5606 3.19665 11.5317 2.819 11.4507 3.73615C11.4238 4.1138 11.181 5.43557 10.9922 6.86525L10.3448 11.1003C10.3448 11.1003 10.2908 11.7207 9.80528 11.8286C9.31973 11.9365 8.5914 11.451 8.45653 11.3431C8.34863 11.2622 6.43341 10.0483 5.75904 9.45484C5.57021 9.29299 5.35441 8.96929 5.78601 8.59164L8.61838 5.89415C8.94208 5.57045 9.26578 4.81515 7.91703 5.7323L4.14054 8.29492C4.14054 8.29492 3.70894 8.56467 2.89969 8.32189L1.14632 7.78239C1.14632 7.78239 0.498919 7.37777 1.60489 6.97315C4.30239 5.70532 7.62031 4.41052 10.5606 3.19665Z" fill="url(#paint1_linear_4668_68728)"/>
</g>
<defs>
<linearGradient id="paint0_linear_4668_68728" x1="9.30636" y1="2.22543" x2="5.86705" y2="10.5202" gradientUnits="userSpaceOnUse">
<stop stop-color="#2AABEE"/>
<stop offset="1" stop-color="#229ED9"/>
</linearGradient>
<linearGradient id="paint1_linear_4668_68728" x1="7.93614" y1="4.50648" x2="6.07016" y2="9.92131" gradientUnits="userSpaceOnUse">
<stop stop-color="#2AABEE"/>
<stop offset="1" stop-color="#229ED9"/>
</linearGradient>
<clipPath id="clip0_4668_68728">
<rect width="14" height="14" fill="white"/>
</clipPath>
</defs>
</svg>
