<svg width="40" height="40" viewBox="0 0 40 40" fill="none" xmlns="http://www.w3.org/2000/svg">
<rect x="1" y="1" width="38" height="38" rx="19" fill="white"/>
<path d="M22.3759 8.3H25.5232C27.8488 8.3 30.0134 9.65472 30.6799 11.8696C32.2618 17.1261 31.9159 21.7412 30.2449 26.8805C31.8563 28.8862 32.1828 31.6078 32.2281 33.8836L29.0263 30.1318C28.3725 31.4156 27.2197 32.395 25.8049 32.7525C21.8606 33.7492 18.1388 33.7492 14.1944 32.7525C12.8099 32.4026 11.6763 31.4572 11.0157 30.2137L7.88379 33.8836C7.92831 31.6458 8.2447 28.9768 9.78738 26.9814C8.08806 21.8015 7.72725 17.1605 9.31944 11.8696C9.98594 9.65471 12.1506 8.3 14.4761 8.3H15.9497L15.4997 7.4L18.6497 8.3L18.1997 6.95L20.2248 8.3H20.9719L21.2599 6.5L22.3759 8.3Z" fill="#7699FF"/>
<ellipse cx="19.9998" cy="18.2" rx="7.2" ry="7.2" fill="white"/>
<path d="M24.3085 17.6691C23.8593 18.0028 23.3028 18.2002 22.7002 18.2002C21.209 18.2002 20.0002 16.9914 20.0002 15.5002C20.0002 14.8976 20.1976 14.3411 20.5313 13.8919C20.0755 13.7669 19.5956 13.7002 19.1002 13.7002C16.1179 13.7002 13.7002 16.1179 13.7002 19.1002C13.7002 22.0825 16.1179 24.5002 19.1002 24.5002C22.0825 24.5002 24.5002 22.0825 24.5002 19.1002C24.5002 18.6048 24.4335 18.1249 24.3085 17.6691Z" fill="#151515"/>
<path d="M27.1998 29.4471C23.0855 32.4508 16.9141 32.4508 12.7998 29.4471C13.169 28.3229 14.4613 25.3999 14.4613 25.3999L15.3712 29.4472L16.9141 26.9108L18.3383 30.1217L19.9998 26.9108L21.5427 29.9326L23.0855 26.9108L24.6284 29.4472L25.5383 25.3999L27.1998 29.4471Z" fill="white"/>
<rect x="1" y="1" width="38" height="38" rx="19" stroke="#C8D6FF" stroke-width="2"/>
</svg>
