<svg width="14" height="14" viewBox="0 0 14 14" fill="none" xmlns="http://www.w3.org/2000/svg">
<g clip-path="url(#clip0_4668_68730)">
<path d="M7 14C10.866 14 14 10.866 14 7C14 3.13401 10.866 0 7 0C3.13401 0 0 3.13401 0 7C0 10.866 3.13401 14 7 14Z" fill="url(#paint0_linear_4668_68730)"/>
<path d="M7 14C10.866 14 14 10.866 14 7C14 3.13401 10.866 0 7 0C3.13401 0 0 3.13401 0 7C0 10.866 3.13401 14 7 14Z" fill="white"/>
<path fill-rule="evenodd" clip-rule="evenodd" d="M5.75501 2.3335C5.23908 2.33388 4.82153 2.75173 4.82191 3.26663C4.82153 3.78153 5.23946 4.19939 5.75539 4.19977H6.68887V3.26701C6.68925 2.75211 6.27132 2.33426 5.75501 2.3335C5.75539 2.3335 5.75539 2.3335 5.75501 2.3335M5.75501 4.82237H3.26649C2.75056 4.82275 2.33263 5.24061 2.33301 5.75551C2.33225 6.27041 2.75018 6.68827 3.26611 6.68903H5.75501C6.27094 6.68865 6.68887 6.27079 6.68849 5.75589C6.68887 5.24061 6.27094 4.82275 5.75501 4.82237Z" fill="#36C5F0"/>
<path fill-rule="evenodd" clip-rule="evenodd" d="M11.667 5.75551C11.6674 5.24061 11.2495 4.82275 10.7335 4.82237C10.2176 4.82275 9.79966 5.24061 9.80004 5.75551V6.68903H10.7335C11.2495 6.68865 11.6674 6.27079 11.667 5.75551ZM9.1781 5.75551V3.26663C9.17849 2.75211 8.76094 2.33426 8.245 2.3335C7.72907 2.33388 7.31114 2.75173 7.31152 3.26663V5.75551C7.31076 6.27041 7.72869 6.68827 8.24462 6.68903C8.76055 6.68865 9.17849 6.27079 9.1781 5.75551Z" fill="#2EB67D"/>
<path fill-rule="evenodd" clip-rule="evenodd" d="M8.24403 11.6669C8.75996 11.6666 9.17789 11.2487 9.17751 10.7338C9.17789 10.2189 8.75996 9.80105 8.24403 9.80067H7.31055V10.7338C7.31017 11.2483 7.7281 11.6662 8.24403 11.6669ZM8.24403 9.17769H10.7329C11.2489 9.17731 11.6668 8.75945 11.6664 8.24455C11.6672 7.72965 11.2492 7.3118 10.7333 7.31104H8.24441C7.72848 7.31142 7.31055 7.72927 7.31093 8.24417C7.31055 8.75945 7.7281 9.17731 8.24403 9.17769Z" fill="#ECB22E"/>
<path fill-rule="evenodd" clip-rule="evenodd" d="M2.33301 8.24417C2.33263 8.75907 2.75056 9.17693 3.26649 9.17731C3.78242 9.17693 4.20035 8.75907 4.19997 8.24417V7.31104H3.26649C2.75056 7.31142 2.33263 7.72927 2.33301 8.24417ZM4.82191 8.24417V10.733C4.82115 11.2479 5.23908 11.6658 5.75501 11.6666C6.27094 11.6662 6.68887 11.2483 6.68849 10.7334V8.24493C6.68925 7.73003 6.27132 7.31218 5.75539 7.31142C5.23908 7.31142 4.82153 7.72927 4.82191 8.24417C4.82191 8.24417 4.82191 8.24455 4.82191 8.24417Z" fill="#E01E5A"/>
</g>
<defs>
<linearGradient id="paint0_linear_4668_68730" x1="9.30636" y1="2.22543" x2="5.86705" y2="10.5202" gradientUnits="userSpaceOnUse">
<stop stop-color="#2AABEE"/>
<stop offset="1" stop-color="#229ED9"/>
</linearGradient>
<clipPath id="clip0_4668_68730">
<rect width="14" height="14" fill="white"/>
</clipPath>
</defs>
</svg>
