<svg width="30" height="30" viewBox="0 0 30 30" fill="none" xmlns="http://www.w3.org/2000/svg">
<path d="M17.3759 3.3H20.5232C22.8488 3.3 25.0134 4.65472 25.6799 6.86956C27.2618 12.1261 26.9159 16.7412 25.2449 21.8805C26.8563 23.8862 27.1828 26.6078 27.2281 28.8836L24.0263 25.1318C23.3725 26.4156 22.2197 27.395 20.8049 27.7525C16.8606 28.7492 13.1388 28.7492 9.19445 27.7525C7.8099 27.4026 6.67629 26.4572 6.01569 25.2137L2.88379 28.8836C2.92831 26.6458 3.2447 23.9768 4.78738 21.9814C3.08806 16.8015 2.72725 12.1605 4.31944 6.86956C4.98594 4.65471 7.15056 3.3 9.47614 3.3H10.9497L10.4997 2.4L13.6497 3.3L13.1997 1.95L15.2248 3.3H15.9719L16.2599 1.5L17.3759 3.3Z" fill="#7699FF"/>
<ellipse cx="14.9998" cy="13.2" rx="7.2" ry="7.2" fill="white"/>
<path d="M19.3085 12.6691C18.8593 13.0028 18.3028 13.2002 17.7002 13.2002C16.209 13.2002 15.0002 11.9914 15.0002 10.5002C15.0002 9.8976 15.1976 9.34111 15.5313 8.89187C15.0755 8.76692 14.5956 8.7002 14.1002 8.7002C11.1179 8.7002 8.7002 11.1179 8.7002 14.1002C8.7002 17.0825 11.1179 19.5002 14.1002 19.5002C17.0825 19.5002 19.5002 17.0825 19.5002 14.1002C19.5002 13.6048 19.4335 13.1249 19.3085 12.6691Z" fill="#151515"/>
<path d="M22.1998 24.4471C18.0855 27.4508 11.9141 27.4508 7.7998 24.4471C8.16904 23.3229 9.46134 20.3999 9.46134 20.3999L10.3712 24.4472L11.9141 21.9108L13.3383 25.1217L14.9998 21.9108L16.5427 24.9326L18.0855 21.9108L19.6284 24.4472L20.5383 20.3999L22.1998 24.4471Z" fill="white"/>
</svg>
