<svg xmlns:xlink="http://www.w3.org/1999/xlink" xmlns:dc="http://purl.org/dc/elements/1.1/" xmlns:cc="http://creativecommons.org/ns#" xmlns:rdf="http://www.w3.org/1999/02/22-rdf-syntax-ns#" xmlns:svg="http://www.w3.org/2000/svg" xmlns="http://www.w3.org/2000/svg" xmlns:sodipodi="http://sodipodi.sourceforge.net/DTD/sodipodi-0.dtd" xmlns:inkscape="http://www.inkscape.org/namespaces/inkscape" version="1.1" id="svg2" xml:space="preserve" width="555.23999" height="47.746666" viewBox="0 0 555.23999 47.746666" sodipodi:docname="logo vertical.eps"><metadata id="metadata8"><rdf:RDF><cc:Work rdf:about=""><dc:format>image/svg+xml</dc:format><dc:type rdf:resource="http://purl.org/dc/dcmitype/StillImage"/></cc:Work></rdf:RDF></metadata><defs id="defs6"/><sodipodi:namedview pagecolor="#ffffff" bordercolor="#666666" borderopacity="1" objecttolerance="10" gridtolerance="10" guidetolerance="10" inkscape:pageopacity="0" inkscape:pageshadow="2" inkscape:window-width="640" inkscape:window-height="480" id="namedview4"/><g id="g10" inkscape:groupmode="layer" inkscape:label="ink_ext_XXXXXX" transform="matrix(1.3333333,0,0,-1.3333333,0,47.746667)"><g id="g12" transform="scale(0.1)"><path d="M 74.7539,1.57813 7.9375,63.5469 C 2.875,68.2422 0,74.8359 0,81.7383 L 0.046875,261.703 c -0.0039062,2.797 2.261715,5.07 5.058595,5.074 l 73.24223,0.106 c 2.7968,0.004 5.0703,-2.258 5.0742,-5.059 L 83.4844,5.08203 c 0.0078,-4.574217 -5.5703,-6.8125 -8.7305,-3.5039" style="fill:#3dbb91;fill-opacity:1;fill-rule:nonzero;stroke:none" id="path14"/><path d="m 292.188,356.566 66.82,-61.968 c 5.062,-4.696 7.937,-11.285 7.937,-18.192 L 366.898,96.4414 c 0.004,-2.7969 -2.261,-5.0703 -5.058,-5.0742 l -73.242,-0.1055 c -2.801,-0.0039 -5.071,2.2617 -5.075,5.0586 l -0.062,256.7427 c -0.008,4.574 5.57,6.812 8.727,3.503" style="fill:#3dbb91;fill-opacity:1;fill-rule:nonzero;stroke:none" id="path16"/><path d="m 234.035,122.867 -101.691,-0.148 c -2.821,-0.004 -5.114,2.281 -5.117,5.105 l -0.153,101.688 c -0.004,2.824 2.285,5.117 5.11,5.121 l 101.687,0.148 c 2.824,0.004 5.113,-2.281 5.117,-5.105 l 0.153,-101.688 c 0.004,-2.824 -2.282,-5.117 -5.106,-5.121" style="fill:#3dbb91;fill-opacity:1;fill-rule:nonzero;stroke:none" id="path18"/><path d="m 163.695,0 h 191.953 c 6.188,0 11.204,5.01563 11.204,11.2031 V 73.3125 H 104.789 c -5.2617,0 -8.1406,-6.1406 -4.769,-10.1836 L 145.516,8.51563 C 150.012,3.12109 156.672,0 163.695,0" style="fill:#3dbb91;fill-opacity:1;fill-rule:nonzero;stroke:none" id="path20"/><path d="M 203.156,357.363 H 11.2031 C 5.01563,357.363 0,352.348 0,346.16 v -62.105 h 262.063 c 5.261,0 8.136,6.136 4.769,10.183 l -45.496,54.61 c -4.496,5.394 -11.156,8.515 -18.18,8.515" style="fill:#3dbb91;fill-opacity:1;fill-rule:nonzero;stroke:none" id="path22"/><path d="m 3256.89,343.613 c 0,0 0,-219.254 0,-328.0192 9.21,0 17.01,0 26.23,0 0,101.1332 0,200.9692 0,301.3202 7.91,0 14.37,0 22.12,0 38.71,-75.469 76.98,-150.066 115.03,-224.2499 h -93.15 V 66.2656 h 106.69 c 8.68,-16.9179 17.44,-33.9922 26.09,-50.8476 h 30.93 l -167.57,328.195 z m -397.36,-300.8982 -24.2,0.0665 -153.26,300.1717 h -66.37 c 0,0 0,-219.254 0,-328.0155 9.21,0 17.01,0 26.23,0 0,101.1285 0,200.9645 0,301.3165 7.91,0 14.37,0 22.12,0 52.15,-101.664 103.69,-202.141 154.65,-301.4923 23.34,0 44.94,0 66.74,0 0,110.1793 0,328.6253 0,328.6253 h -25.91 z m 178.42,302.2112 h -26.72 V 15.1836 h 184.16 V 41.9141 H 3037.95 Z M 2369.42,32.6367 c -80.49,0 -145.99,65.4961 -145.99,145.9883 0,80.496 65.5,145.992 145.99,145.992 80.5,0 145.99,-65.496 145.99,-145.992 0,-80.4922 -65.49,-145.9883 -145.99,-145.9883 z m 0,316.4803 c -93.99,0 -170.49,-76.492 -170.49,-170.492 0,-93.9961 76.5,-170.48828 170.49,-170.48828 94,0 170.49,76.49218 170.49,170.48828 0,94 -76.49,170.492 -170.49,170.492 z m 1420.77,-305.742 -24.2,0.0664 -153.26,300.1716 h -66.37 c 0,0 0,-219.254 0,-328.0192 9.21,0 17.01,0 26.23,0 0,101.1332 0,200.9692 0,301.3202 7.91,0 14.37,0 22.12,0 52.15,-101.668 103.69,-202.144 154.66,-301.496 23.33,0 44.93,0 66.73,0 0,110.184 0,328.625 0,328.625 h -25.91 z m 325.18,48.0117 c -25.15,-32.75 -52.62,-51.6797 -118.6,-51.6797 h -82.1 v 279.938 h 87.65 c 38.16,0 95.82,0 127.52,-80.149 15.98,-40.367 13.96,-111.082 -14.47,-148.1093 z m 37.06,157.0193 c -37.79,95.528 -110.86,95.528 -150.11,95.528 H 3890.41 V 15.4141 h 106.36 c 75.41,0 109.64,24.4687 137.84,61.2148 34.98,45.5191 36.49,124.6251 17.82,171.7771 z M 1781.9,318.383 c 34.15,0 67.26,0 102.56,0 0,-102.317 0,-203.059 0,-304.2619 9.83,0 17.42,0 28.17,0 0,102.0629 0,202.7929 0,305.1799 35.65,0 69.27,0 102.74,0 0,9.058 0,16.367 0,23.824 -78.59,0 -155.93,0 -233.47,0 0,-8.469 0,-15.824 0,-24.742 z m -797.228,24.961 c 0,-6.715 0.004,-12.586 0,-18.453 -0.035,-63.973 0.492,-127.953 -0.301,-191.918 -0.562,-45.5628 -27.848,-81.9535 -68.219,-94.0121 -42.683,-12.75 -86.562,1.2579 -110.933,35.8125 -13.352,18.9336 -18.524,40.3206 -18.434,63.4106 0.246,62.332 0.074,124.664 0.067,187 0,5.836 0,11.671 0,18.246 -10.039,0 -17.985,0 -28,0 0,-67.594 -0.016,-133.157 0.027,-198.715 0.004,-6.559 -0.035,-13.156 0.629,-19.664 8.375,-82.4065 78.543,-131.77756 159.051,-112.0158 56.832,13.9492 91.731,58.2265 92.841,121.2378 1.15,65.594 0.27,209.071 0.27,209.071 0,0 -17.861,0 -26.998,0 z M 511.91,14.4414 c 8.903,0 16.367,0 25.613,0 0,50.25 0,99.7226 0,151.1996 49.055,0 96.348,0 144.254,0 0,9.285 0,16.515 0,25.609 -48.566,0 -95.832,0 -143.714,0 0,42.766 0,83.645 0,127.723 53.058,0 104.683,0 155.792,0 0,9.433 0,16.777 0,23.855 -61.632,0 -121.949,0 -181.945,0 0,-110.433 0,-219.473 0,-328.3866 z m 827.38,28.2734 -24.19,0.0665 -153.27,300.1717 h -66.37 c 0,0 0,-219.254 0,-328.0155 9.21,0 17.01,0 26.23,0 0,101.1285 0,200.9645 0,301.3165 7.92,0 14.37,0 22.12,0 52.15,-101.664 103.69,-202.141 154.66,-301.4923 23.33,0 44.93,0 66.73,0 0,110.1793 0,328.6253 0,328.6253 h -25.91 z m 745.57,-29.8671 h 29.11 V 343.84 h -29.11 z m -482.2,19.7734 c -80.51,0 -146,65.4922 -146,145.9919 0,80.504 65.49,145.996 146,145.996 58.16,0 108.35,-34.277 131.8,-83.617 h 26.7 c -24.97,63.207 -86.53,108.11 -158.5,108.11 -94.01,0 -170.49,-76.481 -170.49,-170.489 0,-94.0036 76.48,-170.48409 170.49,-170.48409 73.43,0 135.98,46.75779 159.93,111.99609 h -26.26 c -22.6,-51.4453 -73.98,-87.5039 -133.67,-87.5039" style="fill:#000000;fill-opacity:1;fill-rule:nonzero;stroke:none" id="path24"/></g></g></svg>