<svg width="101" height="29" viewBox="0 0 101 29" fill="none" xmlns="http://www.w3.org/2000/svg">
<path d="M61.677 26.9731L51.989 3.47308C51.9129 3.25882 51.8727 3.03345 51.87 2.80608C51.8519 2.32527 52.0228 1.85649 52.346 1.50008C52.5122 1.32995 52.7128 1.19732 52.9344 1.11109C53.1561 1.02485 53.3936 0.987005 53.631 1.00008C53.9908 1.00477 54.3402 1.12113 54.631 1.33308C54.9358 1.55962 55.1741 1.86389 55.321 2.21408L64.533 25.2141L73.745 2.21408C73.8919 1.86389 74.1302 1.55962 74.435 1.33308C74.7258 1.12113 75.0752 1.00477 75.435 1.00008C75.6725 0.987005 75.91 1.02485 76.1316 1.11109C76.3532 1.19732 76.5538 1.32995 76.72 1.50008C77.044 1.85724 77.2149 2.32725 77.196 2.80908C77.1933 3.03645 77.1531 3.26181 77.077 3.47608L67.389 26.9761C67.2231 27.4929 66.9 27.9451 66.4647 28.2694C66.0294 28.5937 65.5037 28.774 64.961 28.7851H64.104C63.5611 28.7736 63.0354 28.5927 62.6002 28.2679C62.1651 27.943 61.8423 27.4903 61.677 26.9731Z" fill="white"/>
<path d="M81.315 28.0669C81.1505 27.9013 81.0214 27.7041 80.9355 27.4872C80.8495 27.2702 80.8085 27.0381 80.815 26.8049V2.99886C80.8062 2.52114 80.9858 2.05916 81.315 1.71286C81.476 1.54083 81.6718 1.40518 81.8895 1.31498C82.1071 1.22478 82.3415 1.18212 82.577 1.18986H98.315C98.5375 1.18365 98.7588 1.22505 98.964 1.31128C99.1692 1.39751 99.3537 1.52658 99.505 1.68986C99.6664 1.84261 99.7942 2.02731 99.8803 2.2322C99.9664 2.43708 100.009 2.65765 100.005 2.87986C100.011 3.09898 99.9697 3.31684 99.8833 3.51834C99.797 3.71984 99.6679 3.90017 99.505 4.04686C99.3477 4.20052 99.1616 4.32165 98.9574 4.40333C98.7532 4.48501 98.5349 4.52562 98.315 4.52286H84.386V13.1899H96.907C97.1295 13.1837 97.3507 13.2251 97.556 13.3114C97.7612 13.3976 97.9456 13.5266 98.097 13.6899C98.2565 13.844 98.3831 14.029 98.4691 14.2336C98.555 14.4381 98.5985 14.658 98.597 14.8799C98.6032 15.099 98.5616 15.3168 98.4753 15.5183C98.389 15.7198 98.2599 15.9002 98.097 16.0469C97.9396 16.2005 97.7536 16.3217 97.5494 16.4033C97.3452 16.485 97.1269 16.5256 96.907 16.5229H84.386V25.2359H98.315C98.5375 25.2297 98.7588 25.271 98.964 25.3573C99.1692 25.4435 99.3537 25.5726 99.505 25.7359C99.6664 25.8886 99.7942 26.0733 99.8803 26.2782C99.9664 26.4831 100.009 26.7037 100.005 26.9259C100.011 27.145 99.9697 27.3628 99.8833 27.5643C99.797 27.7658 99.6679 27.9462 99.505 28.0929C99.3477 28.2465 99.1616 28.3677 98.9574 28.4493C98.7532 28.531 98.5349 28.5716 98.315 28.5689H82.577C82.3424 28.5861 82.1069 28.5499 81.8883 28.4629C81.6697 28.376 81.4737 28.2405 81.315 28.0669Z" fill="white"/>
<path d="M54.178 26.306L44.49 2.806C44.3236 2.28972 44.0002 1.83823 43.565 1.51449C43.1297 1.19075 42.6043 1.01089 42.062 1L41.205 1C40.6623 1.0111 40.1366 1.1914 39.7013 1.51571C39.2661 1.84002 38.9429 2.29216 38.777 2.809L34.564 13.046H31.374C30.9139 13.0486 30.4733 13.2326 30.148 13.5579C29.8226 13.8833 29.6386 14.3239 29.636 14.784V14.808C29.6386 15.2681 29.8226 15.7087 30.148 16.0341C30.4733 16.3594 30.9139 16.5434 31.374 16.546H33.088L29.065 26.307C28.9889 26.5213 28.9487 26.7466 28.946 26.974C28.9271 27.4558 29.098 27.9258 29.422 28.283C29.5882 28.4531 29.7888 28.5858 30.0104 28.672C30.2321 28.7582 30.4696 28.7961 30.707 28.783C31.0668 28.7783 31.4162 28.662 31.707 28.45C32.0118 28.2235 32.2501 27.9192 32.397 27.569L36.825 16.547H39.872C40.3321 16.5444 40.7727 16.3604 41.0981 16.0351C41.4234 15.7097 41.6074 15.2691 41.61 14.809V14.76C41.6074 14.2999 41.4234 13.8593 41.0981 13.5339C40.7727 13.2086 40.3321 13.0246 39.872 13.022H38.23L41.63 4.571L50.842 27.571C50.9889 27.9212 51.2272 28.2255 51.532 28.452C51.8228 28.664 52.1722 28.7803 52.532 28.785C52.7695 28.7981 53.007 28.7602 53.2286 28.674C53.4502 28.5878 53.6508 28.4551 53.817 28.285C54.141 27.9278 54.3119 27.4578 54.293 26.976C54.3038 26.747 54.2646 26.5183 54.178 26.306Z" fill="white"/>
<path d="M25.233 26.306L15.545 2.806C15.3786 2.28972 15.0552 1.83823 14.62 1.51449C14.1847 1.19075 13.6593 1.01089 13.117 1L12.26 1C11.7173 1.0111 11.1916 1.1914 10.7563 1.51571C10.321 1.84002 9.9979 2.29216 9.832 2.809L5.619 13.046H2.429C1.96887 13.0486 1.52832 13.2326 1.20295 13.5579C0.87758 13.8833 0.693627 14.3239 0.691002 14.784V14.808C0.693627 15.2681 0.87758 15.7087 1.20295 16.0341C1.52832 16.3594 1.96887 16.5434 2.429 16.546H4.143L0.120002 26.306C0.0439007 26.5203 0.00369356 26.7456 0.00100201 26.973C-0.017884 27.4548 0.153029 27.9248 0.477002 28.282C0.643168 28.4521 0.843792 28.5848 1.06542 28.671C1.28704 28.7572 1.52455 28.7951 1.762 28.782C2.12179 28.7773 2.47123 28.661 2.762 28.449C3.06679 28.2225 3.3051 27.9182 3.452 27.568L7.88 16.546H10.951C11.4111 16.5434 11.8517 16.3594 12.1771 16.0341C12.5024 15.7087 12.6864 15.2681 12.689 14.808V14.76C12.6864 14.2999 12.5024 13.8593 12.1771 13.5339C11.8517 13.2086 11.4111 13.0246 10.951 13.022H9.308L12.688 4.571L21.9 27.571C22.0469 27.9212 22.2852 28.2255 22.59 28.452C22.8808 28.664 23.2302 28.7803 23.59 28.785C23.8275 28.7981 24.065 28.7602 24.2866 28.674C24.5082 28.5878 24.7088 28.4551 24.875 28.285C25.199 27.9278 25.3699 27.4578 25.351 26.976C25.3608 26.7467 25.3206 26.5181 25.233 26.306Z" fill="white"/>
</svg>
