<svg width="24" height="24" viewBox="0 0 19 19" fill="none" xmlns="http://www.w3.org/2000/svg">
<g clip-path="url(#clip0_4693_19528)">
<g clip-path="url(#clip1_4693_19528)">
<path fill-rule="evenodd" clip-rule="evenodd" d="M-12.25 -6.25H43.325V-3.99531H-12.25V-6.25ZM-12.25 -1.74672H43.325V0.507969H-12.25V-1.74672ZM-12.25 2.75047H43.325V5.00516H-12.25V2.75047ZM-12.25 7.24766H43.325V9.50234H-12.25V7.24766ZM-12.25 11.757H43.325V13.9995H-12.25V11.757ZM-12.25 16.2481H43.325V18.5028H-12.25V16.2481ZM-12.25 20.7453H43.325V23H-12.25V20.7453Z" fill="#BD3D44"/>
<path fill-rule="evenodd" clip-rule="evenodd" d="M-12.25 -3.99536H43.325V-1.74677H-12.25V-3.99536ZM-12.25 0.501827H43.325V2.75042H-12.25V0.501827ZM-12.25 4.99901H43.325V7.2537H-12.25V4.99901ZM-12.25 9.5023H43.325V11.757H-12.25V9.5023ZM-12.25 13.9995H43.325V16.2542H-12.25V13.9995ZM-12.25 18.4967H43.325V20.7514H-12.25V18.4967Z" fill="white"/>
<path fill-rule="evenodd" clip-rule="evenodd" d="M-12.25 -6.25H9.98V9.50234H-12.25V-6.25Z" fill="#192F5D"/>
<path fill-rule="evenodd" clip-rule="evenodd" d="M-10.3976 -5.57959L-10.1904 -4.95193H-9.54449L-10.0686 -4.56803L-9.86746 -3.94037L-10.3976 -4.33037L-10.9217 -3.94646L-10.7267 -4.56803L-11.2568 -4.95193H-10.5926L-10.3976 -5.57959ZM-6.69262 -5.57959L-6.49152 -4.95193H-5.8334L-6.36355 -4.56803L-6.16855 -3.94037L-6.69262 -4.33037L-7.22277 -3.94646L-7.02168 -4.56803L-7.54574 -4.95193H-6.8998L-6.69262 -5.57959ZM-2.98762 -5.57959L-2.78652 -4.95193H-2.13449L-2.65855 -4.56803L-2.45746 -3.94037L-2.98762 -4.33037L-3.51777 -3.94646L-3.31668 -4.56803L-3.84684 -4.95193H-3.18871L-2.98762 -5.57959ZM0.717384 -5.57959L0.918479 -4.95193H1.5766L1.04645 -4.56803L1.24754 -3.94037L0.717384 -4.33037L0.187228 -3.94646L0.394416 -4.56803L-0.141834 -4.95193H0.510197L0.717384 -5.57959ZM4.42239 -5.57959L4.62348 -4.95193H5.27551L4.75145 -4.56803L4.95254 -3.94037L4.42239 -4.33037L3.89223 -3.94646L4.09332 -4.56803L3.56926 -4.95193H4.22129L4.42239 -5.57959ZM8.12739 -5.57959L8.32848 -4.95193H8.9866L8.45036 -4.56803L8.65754 -3.94037L8.12739 -4.33037L7.59723 -3.94646L7.80442 -4.56803L7.26817 -4.95193H7.92629L8.12739 -5.57959ZM-8.54512 -3.99521L-8.34402 -3.37365H-7.6798L-8.20996 -2.99584L-8.01496 -2.36818L-8.53293 -2.75209L-9.06309 -2.36818L-8.87418 -2.99584L-9.38605 -3.37365H-8.73402L-8.54512 -3.99521ZM-4.84012 -3.99521L-4.63293 -3.37365H-3.9809L-4.51715 -2.99584L-4.30996 -2.36818L-4.84012 -2.75209L-5.37027 -2.36818L-5.16918 -2.99584L-5.69934 -3.37365H-5.04121L-4.84012 -3.99521ZM-1.13512 -3.99521L-0.934022 -3.37365H-0.275897L-0.806053 -2.99584L-0.604959 -2.36818L-1.13512 -2.75209L-1.66527 -2.36818L-1.46418 -2.99584L-1.98824 -3.37365H-1.3423L-1.13512 -3.99521ZM2.56988 -3.99521L2.77707 -3.37365H3.4291L2.89285 -2.99584L3.10004 -2.36818L2.56988 -2.75209L2.04582 -2.36818L2.24082 -2.99584L1.71067 -3.37365H2.37488L2.56988 -3.99521ZM6.27489 -3.99521L6.47598 -3.37365H7.13411L6.60395 -2.99584L6.80504 -2.36818L6.27489 -2.75209L5.74473 -2.36818L5.94582 -2.99584L5.42176 -3.37365H6.07379L6.27489 -3.99521ZM-10.3976 -2.43521L-10.1904 -1.80146H-9.54449L-10.0686 -1.41756L-9.86746 -0.795996L-10.3976 -1.1799L-10.9217 -0.795996L-10.7267 -1.41756L-11.2568 -1.80146H-10.5926L-10.3976 -2.43521ZM-6.69262 -2.43521L-6.49152 -1.80146H-5.8334L-6.36355 -1.41756L-6.16855 -0.795996L-6.69262 -1.1799L-7.22277 -0.795996L-7.02168 -1.42365L-7.54574 -1.80756H-6.8998L-6.69262 -2.43521ZM-2.98762 -2.43521L-2.78652 -1.80756H-2.13449L-2.65855 -1.42365L-2.45746 -0.80209L-2.98762 -1.186L-3.51777 -0.80209L-3.31668 -1.42975L-3.84684 -1.81365H-3.18871L-2.98762 -2.43521ZM0.717384 -2.43521L0.918479 -1.80756H1.5766L1.04645 -1.42365L1.24754 -0.80209L0.717384 -1.186L0.187228 -0.80209L0.394416 -1.42975L-0.141834 -1.81365H0.510197L0.717384 -2.43521ZM4.42239 -2.43521L4.62348 -1.80756H5.27551L4.75145 -1.42365L4.95254 -0.80209L4.42239 -1.186L3.89223 -0.80209L4.09332 -1.42975L3.56926 -1.81365H4.22129L4.42239 -2.43521ZM8.12739 -2.43521L8.32848 -1.80756H8.9866L8.45036 -1.42365L8.65754 -0.80209L8.12739 -1.186L7.59723 -0.80209L7.80442 -1.42975L7.26817 -1.81365H7.92629L8.12739 -2.43521ZM-8.54512 -0.85084L-8.34402 -0.229277H-7.6798L-8.20996 0.154629L-8.00887 0.782285L-8.53902 0.392285L-9.06918 0.776192L-8.86809 0.154629L-9.39215 -0.229277H-8.74012L-8.54512 -0.85084ZM-4.84012 -0.85084L-4.63293 -0.229277H-3.9809L-4.51715 0.154629L-4.30996 0.782285L-4.84012 0.392285L-5.37027 0.776192L-5.16918 0.154629L-5.69934 -0.229277H-5.04121L-4.84012 -0.85084ZM-1.13512 -0.85084L-0.934022 -0.229277H-0.275897L-0.806053 0.154629L-0.604959 0.782285L-1.13512 0.392285L-1.66527 0.776192L-1.46418 0.154629L-1.98824 -0.229277H-1.3423L-1.13512 -0.85084ZM2.56988 -0.85084L2.77707 -0.229277H3.4291L2.89895 0.154629L3.10004 0.782285L2.56988 0.392285L2.04582 0.776192L2.24082 0.154629L1.71067 -0.229277H2.37488L2.56988 -0.85084ZM6.27489 -0.85084L6.47598 -0.229277H7.13411L6.60395 0.154629L6.80504 0.782285L6.27489 0.392285L5.74473 0.776192L5.94582 0.154629L5.42176 -0.229277H6.07379L6.27489 -0.85084ZM-10.3976 0.727442L-10.1904 1.349H-9.54449L-10.0686 1.73291L-9.86746 2.36057L-10.3976 1.97057L-10.9217 2.35447L-10.7267 1.73291L-11.2568 1.349H-10.5926L-10.3976 0.727442ZM-6.69262 0.727442L-6.49152 1.349H-5.8334L-6.36355 1.73291L-6.16855 2.35447L-6.69262 1.97057L-7.22277 2.35447L-7.02168 1.73291L-7.54574 1.349H-6.8998L-6.69262 0.727442ZM-2.98762 0.727442L-2.78652 1.349H-2.13449L-2.65855 1.73291L-2.45746 2.36057L-2.98762 1.97057L-3.51777 2.35447L-3.31668 1.73291L-3.84684 1.349H-3.18871L-2.98762 0.727442ZM0.717384 0.727442L0.918479 1.349H1.5766L1.04645 1.73291L1.24754 2.36057L0.717384 1.97057L0.187228 2.35447L0.394416 1.73291L-0.141834 1.349H0.510197L0.717384 0.727442ZM4.42239 0.727442L4.62348 1.349H5.27551L4.75145 1.73291L4.95254 2.36057L4.42239 1.97057L3.89223 2.35447L4.09332 1.73291L3.56926 1.349H4.22129L4.42239 0.727442ZM8.12739 0.727442L8.32848 1.349H8.9866L8.45036 1.73291L8.65754 2.36057L8.12739 1.97057L7.59723 2.35447L7.79832 1.73291L7.26208 1.349H7.9202L8.12739 0.727442ZM-8.54512 2.29963L-8.34402 2.92729H-7.6798L-8.20996 3.3051L-8.00887 3.93275L-8.53902 3.54275L-9.06918 3.93275L-8.86809 3.3051L-9.39215 2.92119H-8.74012L-8.54512 2.29963ZM-4.84012 2.29963L-4.63293 2.92729H-3.9809L-4.51715 3.3051L-4.30996 3.93275L-4.84012 3.54275L-5.37027 3.93275L-5.16918 3.3051L-5.69934 2.92119H-5.04121L-4.84012 2.29963ZM-1.13512 2.29963L-0.934022 2.92729H-0.275897L-0.806053 3.3051L-0.604959 3.93275L-1.13512 3.54275L-1.66527 3.93275L-1.46418 3.3051L-1.98824 2.92119H-1.3423L-1.13512 2.29963ZM2.56988 2.29963L2.77707 2.92729H3.4291L2.89895 3.3051L3.10004 3.93275L2.56988 3.54275L2.04582 3.93275L2.24082 3.3051L1.71067 2.92119H2.37488L2.56988 2.29963ZM6.27489 2.29963L6.47598 2.92729H7.13411L6.60395 3.3051L6.80504 3.93275L6.27489 3.54275L5.74473 3.93275L5.94582 3.3051L5.42176 2.92119H6.07379L6.27489 2.29963ZM-10.3976 3.87182L-10.1904 4.49947H-9.54449L-10.0686 4.88338L-9.86746 5.49885L-10.3976 5.12104L-10.9217 5.49885L-10.7267 4.87729L-11.2568 4.49338H-10.5926L-10.3976 3.87182ZM-6.69262 3.87182L-6.49152 4.49947H-5.8334L-6.36355 4.88338L-6.16246 5.49885L-6.69262 5.12104L-7.22277 5.49885L-7.01558 4.87729L-7.54574 4.49338H-6.8998L-6.69262 3.87182ZM-2.98762 3.87182L-2.78652 4.49947H-2.13449L-2.65855 4.88338L-2.45746 5.49885L-2.98762 5.12104L-3.51777 5.49885L-3.31668 4.87729L-3.84684 4.49338H-3.18871L-2.98762 3.87182ZM0.717384 3.87182L0.918479 4.49947H1.5766L1.04645 4.88338L1.24754 5.49885L0.717384 5.12104L0.187228 5.49885L0.394416 4.87729L-0.141834 4.49338H0.510197L0.717384 3.87182ZM4.42239 3.87182L4.62348 4.49947H5.27551L4.75145 4.88338L4.95254 5.49885L4.42239 5.12104L3.89223 5.49885L4.09332 4.87729L3.56926 4.49338H4.22129L4.42239 3.87182ZM8.12739 3.87182L8.32848 4.49947H8.9866L8.45036 4.88338L8.65754 5.49885L8.12739 5.12104L7.59723 5.49885L7.80442 4.87729L7.26817 4.49338H7.92629L8.12739 3.87182ZM-8.54512 5.4501L-8.34402 6.07166H-7.6798L-8.20996 6.45557L-8.00887 7.08322L-8.53902 6.69322L-9.06918 7.07713L-8.86809 6.45557L-9.39215 6.07166H-8.74012L-8.54512 5.4501ZM-4.84012 5.4501L-4.63293 6.07166H-3.9809L-4.51715 6.45557L-4.30996 7.08322L-4.84012 6.69322L-5.37027 7.07713L-5.16918 6.45557L-5.69934 6.07166H-5.04121L-4.84012 5.4501ZM-1.13512 5.4501L-0.934022 6.07166H-0.275897L-0.806053 6.45557L-0.604959 7.08322L-1.13512 6.69322L-1.66527 7.07713L-1.46418 6.45557L-1.98824 6.07166H-1.3423L-1.13512 5.4501ZM2.56988 5.4501L2.77707 6.07166H3.4291L2.89895 6.45557L3.10004 7.08322L2.56988 6.69322L2.04582 7.07713L2.24082 6.45557L1.71067 6.07166H2.37488L2.56988 5.4501ZM6.27489 5.4501L6.47598 6.07166H7.13411L6.60395 6.45557L6.80504 7.08322L6.27489 6.69322L5.74473 7.07713L5.94582 6.45557L5.42176 6.07166H6.07379L6.27489 5.4501ZM-10.3976 7.02838L-10.1904 7.64994H-9.54449L-10.0686 8.03385L-9.86746 8.65541L-10.3976 8.2715L-10.9217 8.65541L-10.7267 8.02775L-11.2568 7.64385H-10.5926L-10.3976 7.02838ZM-6.69262 7.02838L-6.49152 7.64994H-5.8334L-6.36355 8.03385L-6.16246 8.65541L-6.69262 8.2715L-7.22277 8.65541L-7.01558 8.02775L-7.54574 7.64385H-6.8998L-6.69262 7.02838ZM-2.98762 7.02838L-2.78652 7.64994H-2.13449L-2.64637 8.03385L-2.44527 8.65541L-2.97543 8.2715L-3.50559 8.65541L-3.30449 8.02775L-3.83465 7.64385H-3.17652L-2.98762 7.02838ZM0.717384 7.02838L0.918479 7.64994H1.5766L1.04645 8.03385L1.24754 8.65541L0.717384 8.2715L0.187228 8.65541L0.394416 8.02775L-0.141834 7.64385H0.510197L0.717384 7.02838ZM4.42239 7.02838L4.62348 7.64994H5.27551L4.75145 8.03385L4.95254 8.65541L4.42239 8.2715L3.89223 8.65541L4.09332 8.02775L3.56926 7.64385H4.22129L4.42239 7.02838ZM8.12739 7.02838L8.32848 7.64994H8.9866L8.45036 8.03385L8.65754 8.65541L8.12739 8.2715L7.59723 8.65541L7.80442 8.02775L7.26817 7.64385H7.92629L8.12739 7.02838Z" fill="white"/>
</g>
</g>
<defs>
<clipPath id="clip0_4693_19528">
<rect x="0.5" y="0.5" width="18" height="18" rx="9" fill="white"/>
</clipPath>
<clipPath id="clip1_4693_19528">
<rect width="39" height="29.25" fill="white" transform="translate(-12.25 -6.25)"/>
</clipPath>
</defs>
</svg>
