<svg xmlns="http://www.w3.org/2000/svg" xmlns:xlink="http://www.w3.org/1999/xlink" width="554" height="297" viewBox="0 0 554 297">
    <defs>
        <path id="a" d="M0 .285h174.36v222.564H0z"/>
    </defs>
    <g fill="none" fill-rule="evenodd">
        <path fill="#F9F9F9" d="M280.543 35.107c-33.975-1.396-66.619 11.167-87.032 20.59-20.414 9.422-33.178 13.634-40.706 23.73-14.344 19.237-23.79 54.441-19.942 106.439 0 0-3.499 49.215 17.843 73.465 21.341 24.25 44.106 32.625 65.61 33.672 21.505 1.046 65.036-1.047 80.18 0 15.146 1.046 55.177 9.422 75.22-1.745 20.044-11.168 35.088-36.352 41.736-65.114 6.647-28.762 23.44-55.066 11.195-74.718-12.245-19.652-28.074-59.905-62.143-76.77-34.069-16.865-47.957-33.965-60.605-36.757-12.648-2.792-21.356-2.792-21.356-2.792"/>
        <g transform="translate(0 4)">
            <mask id="b" fill="#fff">
                <use xlink:href="#a"/>
            </mask>
            <path fill="#E0E0E0" d="M94.533 127.364v-25.276c0-15.095 1.4-37.562 2.1-52.657h-1.4C89.63 62.77 83.329 76.11 77.026 89.45L56.72 127.364h37.814zM174.36 173h-23.808v49.849h-56.02V173H0v-42.126L75.626.284h74.926v127.08h23.808V173z" mask="url(#b)"/>
        </g>
        <path fill="#E0E0E0" d="M303.026 114.447c0-58.979-11.958-68.106-26.026-68.106s-26.026 9.127-26.026 68.106c0 58.979 11.958 70.213 26.026 70.213s26.026-11.234 26.026-70.213m-109.026 0C194 38.267 227.763 0 277 0s83 38.617 83 114.447C360 190.628 326.237 231 277 231s-83-40.372-83-116.553M473.88 130.757v-25.212c0-15.056 1.405-37.466 2.108-52.524h-1.406c-5.622 13.307-11.947 26.613-18.273 39.919l-20.382 37.817h37.952zm80.12 45.52h-23.895V226h-56.226v-49.722H379v-42.02L454.904 4h75.2v126.757H554v45.52z"/>
        <path fill="#D1D1D1" d="M286.71 260c-25.44.23-77.297 2.761-81.594 2.761-4.298 0-14.567 2.22-14.1 3.87.466 1.652 3.034 4.643 17.971 4.413 14.938-.23 74.583 1.151 88.64 1.61 14.057.461 45.566.461 51.168 0 5.601-.459 18.205-2.07 18.205-4.14 0-2.072-7.702-4.602-11.67-4.602S286.71 260 286.71 260"/>
        <path fill="#FFF" d="M218 267V139.445s39.12-3.18 53.955-3.08c14.835.099 69.944-1.247 71.834.684 1.89 1.932 3.222 25.748 3.21 39.868-.01 14.119-1.367 56.293-1.32 67.622.046 11.328.467 21.492.467 21.492L218 267z"/>
        <path fill="#C8D5FF" d="M218.058 153s72.49-.801 82.57-.98c3.371-.059 9.675-.195 16.573-.35 13.724-.31 29.799-.695 29.799-.695s-.455-13.517-1.515-13.912c-1.06-.395-37.582-1.063-45.12-1.063-7.538 0-43.038.801-50.927 1.246-7.889.445-31.438 1.87-31.438 1.87l.058 13.884z"/>
        <path fill="#7699FF" d="M189 72.1s.327-3.892 4.999-4.083c4.672-.193 48.219 1.303 59.774 2.16 11.556.857 61.171 2.713 68.842 2.376C330.285 72.215 371 68.28 371 68.28l-2.434 43.813-62.49 3.82s-100.06.665-113.203-1.68c0-7.849-3.873-42.133-3.873-42.133z"/>
        <path fill="#4B4B78" d="M252.016 167.848c.332 1.578 2.658 1.917 4.055 2.077 2.294.264 4.508-.183 6.563-1.147.83-.39.101-1.558-.726-1.17-1.414.664-2.897 1.034-4.483 1.046-.774.005-3.797-.108-4.02-1.166-.18-.854-1.568-.493-1.39.36M297.003 167.55c.153 2.2 2.372 2.473 3.912 2.449 2.199-.036 4.201-1.037 5.864-2.693.656-.653-.293-1.758-.944-1.109-1.018 1.015-2.185 1.729-3.497 2.05-.61.15-3.91.599-4-.697-.07-.998-1.405-1.007-1.335 0M266.845 182.943c9.429-4.023 19.562-4.521 29.287-1.404.87.279 1.242-1.179.374-1.457-9.94-3.187-20.39-2.712-30.035 1.403-.832.356-.47 1.819.374 1.458M217 138.678v127.644c0 .903 1 .905 1 0V138.678c0-.903-1-.905-1 0"/>
        <path fill="#4B4B78" d="M217.671 139.998a1339.364 1339.364 0 0 1 63.475-2.523 1322.962 1322.962 0 0 1 59.388.397c.46.014.92.028 1.381.04.766.284 1.41.178 1.93-.317-.895-.078-.89 1.233 0 1.31 1.607.14 1.34-1.481.398-2.1-1.194-.784-4.364-.263-5.78-.302a1324.6 1324.6 0 0 0-46.267-.467c-24.864.184-49.717 1.081-74.525 2.651-.891.057-.898 1.368 0 1.311"/>
        <path fill="#4B4B78" d="M345.002 138.673c3.095 42.229.034 84.4 0 126.651 0 .9 1.614.902 1.615 0 .034-42.25 3.095-84.422 0-126.65-.066-.895-1.681-.902-1.615 0"/>
        <path fill="#4B4B78" d="M218.669 267.996c10.577-.919 21.223-.766 31.842-.771l31.938-.015 63.876-.032c.9 0 .901-1.179 0-1.178l-63.876.032-31.938.015c-10.619.005-21.265-.148-31.842.772-.887.077-.896 1.255 0 1.177M217.674 154c42.887-.616 85.772-1.44 128.652-2.466.897-.023.9-1.556 0-1.534-42.88 1.028-85.765 1.85-128.652 2.467-.897.013-.9 1.546 0 1.533M225.201 146.55c-.618.08-1.416.155-1.658-.55-.188-.541.185-1.1.666-1.405a.682.682 0 0 0 .395.116c.565-.012 1.785-.005 1.928.71.17.848-.666 1.043-1.33 1.129m-.216-3.258c-.152-.222-.42-.359-.765-.259-1.28.371-2.45 1.686-2.182 3.033.329 1.652 1.813 2.088 3.358 1.89 1.586-.206 2.564-.907 2.602-2.536.037-1.557-1.644-2.071-3.013-2.128M234.575 145.638c-.152.65-1.01.894-1.545.898-.461.003-1.233-.151-1.48-.616-.272-.51.49-1.434 1.046-1.458.077-.003.137-.029.2-.05.108.088.24.154.415.153.578-.004 1.563.221 1.364 1.073m-1.364-2.535c-.073 0-.131.024-.193.042a.598.598 0 0 0-.422-.144c-1.274.053-2.653 1.446-2.594 2.853.06 1.48 1.985 2.197 3.166 2.143 1.287-.058 2.7-.917 2.823-2.377.142-1.668-1.39-2.526-2.78-2.517M243.124 146.436c-.281.188-.763.24-1.096.265-.719.055-1.651-.017-2.165-.543-.74-.76-.159-1.392.618-1.723.046.007.085.022.137.02.716-.022 1.707-.03 2.357.307.701.363.82 1.224.15 1.674m1.844-1.29c-.235-1.554-2.196-1.948-3.75-1.985a.687.687 0 0 0-.634-.136c-1.5.374-3.153 1.672-2.395 3.197.718 1.446 2.518 1.908 4.143 1.748 1.689-.167 2.877-1.224 2.636-2.825M370.551 67.67a2105.588 2105.588 0 0 0-6.55 122.657c-.022.897 1.424.897 1.445 0 .99-40.934 3.175-81.843 6.551-122.658.075-.894-1.372-.89-1.446 0M188.004 71.667a2590.856 2590.856 0 0 1 5.256 61.586c.744 10.16 1.427 20.324 2.05 30.493.586 9.585.779 19.27 2.376 28.75.149.883 1.45.508 1.302-.371-1.69-10.03-1.827-20.319-2.456-30.459-.617-9.937-1.291-19.87-2.023-29.798a2593.775 2593.775 0 0 0-5.155-60.2c-.085-.886-1.436-.895-1.35 0"/>
        <path fill="#4B4B78" d="M189.317 71.403c2.871-4.516 11.024-3.001 15.606-2.872 6.158.174 12.313.42 18.467.708 12.098.567 24.187 1.295 36.28 1.96 24.089 1.324 48.239 2.41 72.365 1.413 13.22-.547 26.4-1.757 39.467-3.807.77-.122.599-1.432-.186-1.345l-3.542.393c-.884.098-.894 1.467 0 1.368 1.181-.13 2.362-.261 3.542-.393l-.185-1.343c-50.33 7.898-101.294 2.4-151.846.2-7.056-.306-14.132-.644-21.196-.684-3.759-.021-7.817.31-9.98 3.71-.477.75.733 1.439 1.208.692M192.673 114.625c45.604 2.886 91.34 3.194 136.967.638 12.911-.724 25.809-1.676 38.69-2.826.89-.08.897-1.514 0-1.434-45.35 4.049-90.897 5.443-136.4 4.049a1207.78 1207.78 0 0 1-39.257-1.86c-.899-.058-.895 1.377 0 1.433M365.716 72.035l-3.627 2.57c-.207.145-.014.508.194.36 1.21-.856 2.42-1.713 3.628-2.57.208-.146.015-.508-.195-.36M367.694 72.054c-.476.49-.605 1.14-.796 1.774l-.89 2.953c-.066.22.281.314.347.094l.693-2.296c.223-.741.347-1.703.9-2.273.161-.165-.093-.417-.254-.252M353.172 107.287c2.929.136 5.838.979 8.61 1.705.218.058.312-.219.094-.275-2.804-.736-5.738-1.578-8.704-1.717-.23-.01-.229.276 0 .287M362.066 106.274a35.79 35.79 0 0 0 2.7 1.703c.173.099.332-.148.16-.245-.93-.53-1.83-1.098-2.7-1.704-.161-.111-.319.136-.16.246M363.024 100.27c.243.436 2.864 5.305 2.618 5.404-.223.09-.03.4.192.31.899-.363-2.122-5.249-2.484-5.895-.114-.203-.44-.022-.326.181"/>
        <path fill="#4B4B78" d="M195.043 70.29c1.37 1.568 2.261 3.456 2.647 5.59.035.192.293.137.3-.046l.01-.216c.009-.216-.297-.215-.306 0l-.01.216.301-.044c-.395-2.188-1.322-4.131-2.725-5.74-.137-.155-.353.083-.217.24M196.046 70.097c-.365.793 1.541 1.974 2.045 2.405.586.504 1.192.985 1.815 1.442.408.299 2.708 1.486 2.727 1.876.013.24.38.24.367 0-.04-.788-1.809-1.423-2.356-1.804a29.093 29.093 0 0 1-2.294-1.779c-.194-.166-2.1-1.706-1.987-1.951.1-.217-.217-.408-.317-.19M196.276 105.97c1.186-.76 2.005-1.855 2.77-2.99.636-.941 1.98-2.599 1.954-3.75-.002-.087-.058-.144-.138-.174l-.112-.042c-.224-.086-.322.262-.1.347.074.029-1.628 2.986-1.798 3.243-.758 1.15-1.57 2.288-2.766 3.054-.201.128-.013.44.19.311M196.228 107.995a56.789 56.789 0 0 0 6.675-1.738c.217-.071.03-.315-.185-.244a56.286 56.286 0 0 1-6.588 1.71c-.228.044-.131.317.098.272M196.174 110c2.893-.124 5.776-.34 8.654-.65.228-.024.23-.373 0-.349-2.878.31-5.761.526-8.654.65-.232.01-.232.359 0 .349"/>
        <path fill="#FFF" d="M213.552 87.545c-.657 1.057-2.94 1.337-4.02 1.39-.961.048-1.906-.064-2.841-.249.002-1.507.042-3.014.111-4.523.968-.084 1.947-.141 2.906-.035 1.162.127 5.187 1.254 3.844 3.417m-.328-4.505c-2.288-1.267-4.907-1.114-7.418-.884-.583.053-1.003.439-1.036 1.05-.096 1.734-.14 3.467-.148 5.2-.747.33-.912 1.608.012 1.946.022 1.545.068 3.091.16 4.638.08 1.342 2.152 1.351 2.072 0a102.159 102.159 0 0 1-.153-4.21c3.492.496 8.646.305 9.251-3.47.295-1.845-1.283-3.462-2.74-4.27M224.37 94.976c-.1.57-1.938.909-2.423.961-.718.076-2.026.068-2.522-.538-.96-1.173 1.707-1.584 2.442-1.641 1.03-.08 2.001.08 2.974.381l.006.181c-.233.106-.418.316-.477.656m2.267-4.675c-.234-1.439-.98-2.736-2.493-3.157-1.919-.535-7.375.393-6.12 3.24.53 1.204 2.328.165 1.801-1.03.3.682.381.286 1.13.045.379-.122.764-.219 1.158-.28 1.312-.208 2.26.2 2.478 1.593.066.42.11.846.144 1.275-1.906-.456-3.96-.39-5.775.39-1.586.683-2.54 2.255-1.567 3.855.895 1.475 2.936 1.87 4.554 1.747.878-.068 2.271-.372 3.267-.986.59.567 1.837.349 1.784-.675-.1-1.985-.042-4.052-.361-6.017"/>
        <path fill="#FFF" d="M233.55 96.12c-1.274-.27-2.604-1.192-3.151-2.377-.673-1.46-.419-3.325 1.401-3.584 1.5-.213 3.87.165 3.845 2.119-.008.647.458.985.956 1.023-.306 1.556-1.197 3.209-3.05 2.818m4.086-4.95c-.603-2.326-3.215-3.291-5.585-3.157-2.903.165-4.514 2.394-4.01 5.27.465 2.646 3.088 4.841 5.748 5.035 1.29.095 2.296-.35 3.066-1.086-.104 1.807-.534 3.459-1.827 4.114-2.337 1.182-5.322.352-7.186-1.308-1.02-.908-2.526.598-1.5 1.51 2.571 2.29 6.269 3.187 9.504 1.78 4.111-1.79 3.039-7.457 2.997-11.137-.008-.745-.636-1.083-1.207-1.02M249.578 92.605c-.373.402-2.794.042-3.357.025a49.216 49.216 0 0 1-3.348-.23c-.324-.03-.568.066-.738.232.014-.188.034-.376.08-.559.38-1.535 1.505-1.945 2.988-1.928.879.01 1.83.116 2.662.41.62.219 2.44 1.266 1.713 2.05m-5.797-4.492c-3.522.568-4.57 4.455-3.2 7.397 1.522 3.272 5.28 4.26 8.47 2.894 1.255-.539.17-2.36-1.076-1.826-2.046.876-4.426.11-5.421-1.894-.048-.097-.081-.201-.122-.302.127.07.273.117.441.133 2.37.234 5.233.628 7.592.145 1.252-.257 1.682-1.225 1.492-2.453-.55-3.545-5.156-4.58-8.176-4.094M265.692 89.676c-1.88.3-2.714 1.66-3.487 3.176-.218.43-.47.872-.728 1.323l-.31-4.176c-.097-1.327-2.263-1.337-2.164 0l.664 8.963c.098 1.32 2.155 1.353 2.165 0 .009-1.296 1.049-2.709 1.626-3.847.497-.978 1.15-3.12 2.439-3.316.329.056.468-.026.416-.248.094.365.16.735.194 1.11.094.688.127 1.378.158 2.071.063 1.422.113 2.844.17 4.265.052 1.334 2.217 1.34 2.164 0-.097-2.435.007-4.976-.468-7.378-.3-1.523-1.155-2.213-2.839-1.943M280.683 96.083c-.416.766-1.657 1.252-2.419 1.493-1.993.628-4.813.239-5.078-2.32-.204-1.963 1.323-3.309 2.929-4.053 1.644-.133 3.223.502 4.146 2.034.464.771.894 1.975.422 2.846m-6.335-6.76c-.457.14-.686.48-.742.849-2.01 1.52-3.219 3.994-2.286 6.569 1.211 3.34 5.18 3.843 8.117 2.718 2.965-1.135 4.392-3.527 3.065-6.584-1.385-3.194-4.91-4.552-8.154-3.552M290.952 89.695a166.862 166.862 0 0 1-3.482-.289c-.1-1.41-.126-2.827.224-4.113.354-1.298-1.75-1.851-2.104-.553-.394 1.446-.31 2.958-.222 4.452-.777-.081-1.555-.157-2.33-.25-1.39-.166-1.377 1.917 0 2.082.804.096 1.61.175 2.415.26.043 1.888.025 3.804.245 5.668.358 3.045 2.39 3.24 5.161 2.951 1.382-.144 1.397-2.227 0-2.081-3.589.374-3.077-3.05-3.167-5.38a26.848 26.848 0 0 0-.056-.94c1.105.1 2.209.196 3.316.275 1.4.1 1.394-1.983 0-2.082M302.63 86.77c.822-1.102 3.228-.557 4.357-.496 1.353.072 1.349-2.062 0-2.135-2.684-.145-5.94-.779-6.478 2.683-.107.698-.156 1.42-.18 2.152-.442-.046-.884-.086-1.326-.135-1.343-.152-1.332 1.984 0 2.134.448.05.897.092 1.347.137.143 2.755.658 5.589 1.08 8.118.227 1.352 2.253.779 2.028-.568a65.402 65.402 0 0 1-.812-7.332c.682.058 1.364.117 2.046.165 1.35.095 1.345-2.04 0-2.134-.735-.052-1.47-.115-2.204-.178-.091-.909-.164-2 .142-2.41M313.35 96.79c-1.784.324-3.725-.57-4.191-2.52-.416-1.744.63-2.982 1.974-3.748 1.417.048 2.848.37 3.877 1.458 1.791 1.895.716 4.378-1.66 4.81m-.896-8.27c-.187-.404-.585-.66-1.113-.438-.212.089-.42.188-.624.29-.184-.001-.365.001-.544.008-.592.024-.919.467-.981.944-1.5 1.174-2.486 2.843-2.113 5.044.546 3.213 3.544 5.052 6.55 4.55 2.961-.493 5.122-3.178 4.125-6.324-.79-2.488-2.983-3.685-5.3-4.074M330.105 93.382c.229-1.196.27-2.395.161-3.397-.118-1.091-1.718-1.409-2.092-.267-.387 1.176-.397 2.446-.2 3.725-.312 1.445-.99 2.786-2.286 3.388-3.453 1.602-3.711-4.399-3.478-6.313.157-1.284-1.975-1.273-2.13 0-.372 3.043.434 9.119 5.022 8.627 1.695-.182 2.908-1.146 3.74-2.442.326.92.69 1.806 1.026 2.621.492 1.194 2.554.675 2.055-.534-.643-1.558-1.498-3.513-1.818-5.408M338.891 88.236c-1.538.048-2.604 1.719-3.364 2.842-.172.253-.33.512-.484.773.013-.965.063-1.93.173-2.898.146-1.276-1.894-1.266-2.04 0-.306 2.69-.158 5.37.028 8.062.073 1.05 1.782 1.44 2.003.265.216-1.146.524-2.264 1.018-3.328.42-.903 1.197-2.632 2.064-3.148 2.264-1.345 2.717 4.682 2.663 5.943-.055 1.284 1.984 1.282 2.04 0 .099-2.349-.6-8.622-4.1-8.511M351.95 94.772c-1.62.54-3.698-.008-4.494-1.559-1.004-1.954.626-3.734 2.697-3.763 1.561-.022 2.957.822 3.827 2.025.053.073.111.136.173.19-.028.432-.057.884-.077 1.343a3.737 3.737 0 0 1-2.127 1.764m5.038 1.993a1.022 1.022 0 0 0-.522-.823c-.24-.632-.3-1.461-.286-2.325.262-.54.45-1.121.54-1.73a1.06 1.06 0 0 0-.368-.98c.018-.271.031-.522.032-.741.004-1.833-.519-4.956.426-6.605.67-1.172-1.196-2.221-1.869-1.048-1.033 1.803-.86 4.107-.761 6.221-1.438-1.062-3.24-1.594-5.128-1.245-2.7.5-4.558 2.914-3.928 5.557.613 2.575 3.302 4.173 5.97 3.995a6.09 6.09 0 0 0 3.133-1.116c.12.578.309 1.108.61 1.545.238.347.771.656 1.222.478l.145-.057c.417-.164.834-.514.794-1.001l-.01-.125"/>
        <path fill="#4B4B78" d="M348.016 191.88c4.493-3.014 9.005-6.045 13.065-9.631 3.46-3.055 7.255-6.602 7.911-11.38.12-.87-1.22-1.247-1.34-.368-.668 4.864-4.877 8.508-8.45 11.547-3.736 3.176-7.82 5.91-11.887 8.64-.738.494-.043 1.692.701 1.193M193.122 173.03c5.74 8.542 13.63 15.006 23.047 18.915.827.343 1.187-1.023.37-1.362-9.05-3.757-16.704-10.06-22.218-18.266-.501-.746-1.705-.04-1.2.713"/>
        <g fill="#C8D5FF">
            <path d="M336.654 206.452c-.351.598-112.377 1.027-112.429 0-.117-2.3-1.987-9.087 0-9.661 1.987-.576 110.5.574 112.429 0 1.928-.576.466 8.866 0 9.66M242.936 210.972s-.35 3.826 0 4.348c.35.522 44.352.522 47.157.348 2.805-.174 27.348.723 27.523-.174.175-.897 1.227-4.522-.175-4.522h-74.505zM230.105 218.61s-.471 1.913 0 2.174c.47.26 59.514.26 63.278.174 3.764-.087 36.697.362 36.932-.087.235-.449 1.647-2.26-.235-2.26h-99.975zM230.105 223.784s-.471 1.913 0 2.174c.47.261 59.514.261 63.278.174 3.764-.087 36.697.362 36.932-.087.235-.448 1.647-2.26-.235-2.26h-99.975zM230.105 229.871s-.471 1.913 0 2.174c.47.261 59.514.261 63.278.174 3.764-.087 36.697.362 36.932-.087.235-.448 1.647-2.26-.235-2.26h-99.975zM224.108 236.19c0 1.217.175 16.521 0 18.087-.175 1.565 0 4.87 0 4.87s42.248.347 49.786 0c7.539-.349 58.377.308 59.955.154 1.577-.155 1.928-1.024 1.928-1.024s.175-10.957 0-14.435c-.175-3.478.078-7.652.078-7.652s-53.897.347-61.084 0c-7.188-.348-50.663 0-50.663 0"/>
        </g>
    </g>
</svg>
