<?xml version="1.0" encoding="UTF-8"?>
<svg width="80px" height="74px" viewBox="0 0 80 74" version="1.1" xmlns="http://www.w3.org/2000/svg" xmlns:xlink="http://www.w3.org/1999/xlink">
    <!-- Generator: sketchtool 52.1 (67048) - http://www.bohemiancoding.com/sketch -->
    <title>96232CAF-EF15-4746-96D5-E3EA6A4C6FEB</title>
    <desc>Created with sketchtool.</desc>
    <defs>
        <polygon id="path-1" points="0 0.123033258 79.842362 0.123033258 79.842362 73.59562 0 73.59562"></polygon>
    </defs>
    <g id="Peeranha" stroke="none" stroke-width="1" fill="none" fill-rule="evenodd">
        <g id="Peerania_LK_awards" transform="translate(-267.000000, -294.000000)">
            <g id="Group-28-2" transform="translate(267.000000, 294.000000)">
                <g id="Group-3" transform="translate(0.000000, 0.281443)">
                    <mask id="mask-2" fill="white">
                        <use xlink:href="#path-1"></use>
                    </mask>
                    <g id="Clip-2"></g>
                    <!-- main shadow -->
                    <path d="M0.867070707,36.9081672 C1.67515152,26.722047 0.982626263,17.594976 6.98545455,11.8181235 C11.6484848,7.33081202 23.9551515,3.7306918 27.3030303,2.80629836 C30.6509091,1.88190492 41.2711111,-2.73925355 49.6981818,2.80629836 C58.1256566,8.35185027 65.2828283,15.6378175 69.4387879,19.7935443 C73.5943434,23.949271 79.5971717,30.0010962 79.8282828,38.2397628 C80.0589899,46.4784295 77.4040404,49.2512055 75.5567677,54.5658612 C73.709899,59.8805169 73.709899,62.9998393 69.900202,68.4301454 C66.0909091,73.8604514 57.4327273,73.7448011 50.16,73.5135005 C42.8872727,73.2826044 24.7519192,72.2555005 20.030303,71.7803639 C15.1620202,71.2910743 2.49131313,65.4054459 1.01050505,57.0701344 C-1.17656566,44.7554022 0.867070707,36.9081672 0.867070707,36.9081672" id="Fill-1" fill="#F9F9F9" mask="url(#mask-2)"></path>
                </g>
                <!-- left ribbon -->
                <path d="M25.8059394,42.7726066 C24.2572525,48.4815246 22.4451313,55.4225628 22.7804848,61.4436557 C24.4293737,59.5232951 26.0778586,57.6025301 27.7263434,55.6821694 C27.8305859,55.5604536 27.9299798,55.2122896 28.0786667,55.1536557 C28.2689697,55.0796557 28.4940202,55.3513934 28.6891717,55.4128579 C30.2871515,55.9146831 31.5651313,57.0930219 32.9647273,58.013776 C33.881899,58.6175027 34.8633131,59.1156885 35.841899,59.6130656 C35.1804848,58.204235 34.9926061,56.6243552 34.8802828,55.0719727 C34.7489697,53.2555355 34.7093737,51.4318197 34.7614949,49.6109344 C34.7829091,48.8685082 35.1683636,47.3019727 35.1998788,47.3711202 L33.5332121,44.4883552 L29.2911919,41.0006503 L25.8059394,42.7726066 Z" id="Fill-4" fill="#7699FF"></path>
                <!-- right ribbon -->
                <path d="M37.8513939,45.3457443 C37.6804848,46.0129574 37.5879596,46.7003891 37.5758384,47.3890339 C37.5414949,49.3352743 38.1540202,51.2515913 39.062303,52.9725967 C39.9705859,54.6940066 41.1689697,56.2431541 42.3867475,57.7615694 C43.152,58.715482 43.9382626,59.6718208 44.9200808,60.4013071 C46.0473535,61.2387607 47.4150303,61.7648481 48.3786667,62.7866951 C47.6606869,61.4178973 47.0804848,59.7822142 47.1188687,58.2371104 C47.1572525,56.7138426 47.1132121,55.5306514 47.6061414,54.0652087 C50.4344242,56.2395148 53.6845253,56.8723563 57.6376566,56.2124219 C55.8352323,54.8116787 55.3079596,54.4020503 53.5051313,53.0013071 C52.5649293,52.2702033 51.6150303,51.5302033 50.8703838,50.600553 C50.1592727,49.7133617 49.6562424,48.6793836 49.2029091,47.6369137 C48.512,46.0493508 48.091798,44.6595257 47.6061414,42.9971541" id="Fill-6" fill="#7699FF"></path>
                <!-- rim shadow -->
                <path d="M56.2103838,25.002376 C56.2907879,23.8098842 55.8431111,22.7694361 54.6867475,22.4710098 C53.9861414,22.2902557 51.5101818,22.4592831 51.0584646,21.894376 C50.6544242,21.3889115 50.7465455,20.0742995 50.9299798,19.6982339 C51.2560404,19.0289989 51.4948283,18.208529 51.7150303,17.496835 C51.9683636,16.6779825 51.3990707,15.9489005 50.1857374,15.8692393 C49.2532121,15.8073705 48.3671515,16.263906 47.4334141,16.2222557 C46.7946263,16.1935454 45.0208889,15.8461902 44.1829091,14.6731082 C43.8471515,14.202824 43.7950303,13.6035454 43.5837172,13.0653268 C43.161899,11.9909115 42.2689697,11.5954361 40.9913939,12.1894579 C40.5134141,12.4114579 39.8051313,12.8166383 39.3477576,13.0778623 C37.9663434,13.8671956 36.9873535,12.8570754 35.6875556,12.2121027 C34.3881616,11.5671301 32.4984646,11.2331191 31.7538182,12.478988 C31.301697,13.2351628 31.5267475,14.2630754 31.0532121,15.0063104 C30.3841212,16.0564634 28.8261414,15.914529 27.6273535,15.5784962 C26.4285657,15.2424634 24.9675556,14.8983432 24.0806869,15.7721902 C23.2051313,16.6347148 23.5041212,18.0791301 23.7857374,19.2760699 C24.0673535,20.4726055 24.1214949,22.0229661 23.0467475,22.6186055 C22.3970505,22.9789005 21.5829091,22.8159388 20.8709899,23.0278295 C19.7740202,23.3541574 19.0968485,24.6841355 19.4770505,25.764212 C19.9582626,27.1326055 21.7930101,27.984212 21.6136162,29.4237749 C21.5045253,30.2992393 20.6758384,30.8645508 20.0455354,31.4808131 C19.4156364,32.0974798 19.2907879,33.8358732 19.2907879,33.8358732 C19.1728081,34.8087913 20.4091717,35.6773814 21.3667475,35.8828022 C22.3243232,36.0878186 23.3396768,36.2604852 23.7691717,37.1408022 C24.3804848,38.3935454 23.1780606,39.8610098 23.5081616,41.2156546 C23.8661414,42.6847366 25.7481616,42.9043104 27.2548283,42.7927038 C28.7610909,42.6806929 30.7081616,42.8096874 31.181697,44.2456109 C31.3049293,44.6204634 31.2936162,45.0252393 31.3663434,45.4134361 C31.5602828,46.4534798 32.2742222,47.4421683 33.3061414,47.6726601 C34.3380606,47.9035563 35.6229091,47.4454033 36.0079596,46.4595454 C36.2354343,45.8784634 37.0911919,45.5861027 37.4398788,45.3531847 C37.9808889,44.9920809 38.3049293,45.3636984 38.8451313,45.7264197 C39.3853333,46.0887366 39.8281616,46.5942011 40.4071515,46.8918186 C41.772,47.5929989 43.6831111,46.7231956 44.052,45.232682 C44.1691717,44.7599716 44.1526061,44.2504634 44.3578586,43.8084852 C44.9255354,42.5860699 46.6612929,42.6438951 47.9772525,42.9309989 C49.2932121,43.2181027 50.6156364,43.1343978 51.3614949,42.0114579 C52.201899,40.7477967 52.0014949,40.1796546 51.6394747,39.2063322 C51.2774545,38.2334142 51.0354343,37.0603322 51.8160404,36.3757311 C52.6370505,35.6559497 53.361899,35.9733814 54.3412929,35.4909661 C55.4184646,34.9616437 56.412,33.8229333 55.6334141,32.8374798 C55.1764444,32.2596328 55.001899,32.2325399 53.5235152,31.2762011 C52.0685657,30.3356328 52.8625051,28.2373486 54.2657374,27.6061246 C54.2657374,27.6061246 56.1295758,26.1948678 56.2103838,25.002376" id="Fill-8" fill="#FFFFFF"></path>
                <!-- rim -->
                <path d="M56.2103838,25.002376 C56.2907879,23.8098842 55.8431111,22.7694361 54.6867475,22.4710098 C53.9861414,22.2902557 51.5101818,22.4592831 51.0584646,21.894376 C50.6544242,21.3889115 50.7465455,20.0742995 50.9299798,19.6982339 C51.2560404,19.0289989 51.4948283,18.208529 51.7150303,17.496835 C51.9683636,16.6779825 51.3990707,15.9489005 50.1857374,15.8692393 C49.2532121,15.8073705 48.3671515,16.263906 47.4334141,16.2222557 C46.7946263,16.1935454 45.0208889,15.8461902 44.1829091,14.6731082 C43.8471515,14.202824 43.7950303,13.6035454 43.5837172,13.0653268 C43.161899,11.9909115 42.2689697,11.5954361 40.9913939,12.1894579 C40.5134141,12.4114579 39.8051313,12.8166383 39.3477576,13.0778623 C37.9663434,13.8671956 36.9873535,12.8570754 35.6875556,12.2121027 C34.3881616,11.5671301 32.4984646,11.2331191 31.7538182,12.478988 C31.301697,13.2351628 31.5267475,14.2630754 31.0532121,15.0063104 C30.3841212,16.0564634 28.8261414,15.914529 27.6273535,15.5784962 C26.4285657,15.2424634 24.9675556,14.8983432 24.0806869,15.7721902 C23.2051313,16.6347148 23.5041212,18.0791301 23.7857374,19.2760699 C24.0673535,20.4726055 24.1214949,22.0229661 23.0467475,22.6186055 C22.3970505,22.9789005 21.5829091,22.8159388 20.8709899,23.0278295 C19.7740202,23.3541574 19.0968485,24.6841355 19.4770505,25.764212 C19.9582626,27.1326055 21.7930101,27.984212 21.6136162,29.4237749 C21.5045253,30.2992393 20.6758384,30.8645508 20.0455354,31.4808131 C19.4156364,32.0974798 19.2907879,33.8358732 19.2907879,33.8358732 C19.1728081,34.8087913 20.4091717,35.6773814 21.3667475,35.8828022 C22.3243232,36.0878186 23.3396768,36.2604852 23.7691717,37.1408022 C24.3804848,38.3935454 23.1780606,39.8610098 23.5081616,41.2156546 C23.8661414,42.6847366 25.7481616,42.9043104 27.2548283,42.7927038 C28.7610909,42.6806929 30.7081616,42.8096874 31.181697,44.2456109 C31.3049293,44.6204634 31.2936162,45.0252393 31.3663434,45.4134361 C31.5602828,46.4534798 32.2742222,47.4421683 33.3061414,47.6726601 C34.3380606,47.9035563 35.6229091,47.4454033 36.0079596,46.4595454 C36.2354343,45.8784634 37.0911919,45.5861027 37.4398788,45.3531847 C37.9808889,44.9920809 38.3049293,45.3636984 38.8451313,45.7264197 C39.3853333,46.0887366 39.8281616,46.5942011 40.4071515,46.8918186 C41.772,47.5929989 43.6831111,46.7231956 44.052,45.232682 C44.1691717,44.7599716 44.1526061,44.2504634 44.3578586,43.8084852 C44.9255354,42.5860699 46.6612929,42.6438951 47.9772525,42.9309989 C49.2932121,43.2181027 50.6156364,43.1343978 51.3614949,42.0114579 C52.201899,40.7477967 52.0014949,40.1796546 51.6394747,39.2063322 C51.2774545,38.2334142 51.0354343,37.0603322 51.8160404,36.3757311 C52.6370505,35.6559497 53.361899,35.9733814 54.3412929,35.4909661 C55.4184646,34.9616437 56.412,33.8229333 55.6334141,32.8374798 C55.1764444,32.2596328 55.001899,32.2325399 53.5235152,31.2762011 C52.0685657,30.3356328 52.8625051,28.2373486 54.2657374,27.6061246 C54.2657374,27.6061246 56.1295758,26.1948678 56.2103838,25.002376" id="Fill-10" fill="#C8D5FF"></path>
                <!-- rim border -->
                <path d="M52.5897778,28.7921869 C51.8907879,30.3882415 52.8390707,31.3013126 54.0911919,32.1173344 C54.3598788,32.2924273 54.921899,32.5253454 55.0762424,32.8168973 C55.7772525,34.1408098 54.482303,34.992012 53.4160404,35.3616077 C52.5667475,35.6559902 51.7109899,35.6280885 51.1897778,36.5108317 C50.8774545,37.0397497 50.8653333,37.6515639 50.9538182,38.2459902 C51.021697,38.6992907 51.2309899,39.1028536 51.331596,39.5428098 C51.6871515,41.094788 50.8172525,42.6136077 49.0932121,42.6665803 C47.5231111,42.7142962 45.5182626,41.7025585 44.2734141,43.2039902 C43.4548283,44.1914656 43.9441212,45.6536732 42.6257374,46.419553 C40.6548283,47.5647333 39.822101,45.3030831 38.2503838,44.9084164 C37.6152323,44.749094 37.0132121,45.0402415 36.4746263,45.4268208 C35.1748283,46.3601104 34.692404,47.9448426 32.9178586,46.7656951 C31.8544242,46.0592579 31.9643232,45.5072907 31.6265455,44.4276186 C31.5279596,44.1118044 31.4867475,43.8566459 31.2887677,43.5691377 C30.8693737,42.9585366 30.162303,42.6504055 29.4637172,42.4898699 C28.4742222,42.2626131 27.4762424,42.4482197 26.4786667,42.4077825 C25.2237172,42.3564273 23.9663434,41.5383836 23.9251313,40.2363071 C23.9037172,39.5610066 24.3029091,38.9026896 24.3295758,38.222941 C24.3970505,36.4817169 23.2293737,35.9904055 21.761899,35.555706 C20.0936162,35.0607552 19.1667475,33.6171486 20.1542222,32.0097716 C20.6693737,31.1711049 21.6507879,30.7825038 21.9307879,29.7768317 C22.0952323,29.1868536 21.991798,28.6692579 21.7077576,28.1350831 C21.5392727,27.8180557 21.3008889,27.5576404 21.0758384,27.281859 C20.9158384,27.0853344 20.7299798,26.9110503 20.5703838,26.7153344 C20.0572525,26.0861322 19.6871515,24.4702634 20.3340202,23.8099246 C21.0879596,23.0408098 22.6685657,23.4629738 23.5295758,22.7496623 C24.0875556,22.2870612 24.3025051,21.6198481 24.3554343,20.9065366 C24.4378586,19.793706 23.9501818,18.7637716 23.911798,17.6659027 C23.8091717,14.7212689 26.9061414,16.0019137 28.6063434,16.1859027 C30.0944242,16.3468426 31.2911919,15.8862634 31.7089697,14.3795749 C31.9275556,13.5902415 31.771596,13.196788 32.4326061,12.5853781 C33.2132121,11.8639792 34.1134141,12.026941 35.0645253,12.3965366 C36.0932121,12.7964601 37.0479596,13.7030612 38.1913939,13.7612907 C39.1025051,13.8077934 39.8107879,13.2416732 40.5833131,12.8514546 C40.8285657,12.7273126 41.3570505,12.3641869 41.622101,12.3844055 C42.4406869,12.4474874 43.1566465,13.718023 43.5356364,14.2744383 C43.7388687,14.5728645 43.8342222,14.8822087 44.0742222,15.160012 C44.7109899,15.8975858 45.721899,16.3436077 46.6665455,16.5227443 C47.8653333,16.7500011 49.6059394,15.9157825 50.6301818,16.350482 C52.4027071,17.1022087 49.4467475,20.5454328 50.7097778,22.0982197 C51.0552323,22.5236186 51.6095758,22.5887224 52.1190707,22.6659574 C53.7546263,22.9150503 55.7833131,22.5527333 55.8035152,24.9542962 C55.3534141,26.8241104 53.3029091,27.1633781 52.5897778,28.7921869 M54.7873535,27.700788 C55.612404,27.0129519 56.3667475,26.1803508 56.5998788,25.1099792 C56.6031111,25.0950175 56.5986667,25.0832907 56.6006869,25.0691377 C56.6043232,25.0460885 56.6140202,25.0278918 56.6144242,25.0024164 C56.6200808,23.2672579 55.8269495,22.1879902 54.0835152,21.9914656 C52.7053333,21.8361869 50.8689697,22.1156077 51.2370505,20.0642306 C51.4200808,19.0448098 52.2899798,18.0739137 52.1635152,16.9897934 C51.871798,14.4843071 48.2289697,15.9671377 46.8814949,15.7431158 C44.6972525,15.3795858 44.7489697,13.9428536 43.7235152,12.4434437 C43.3142222,11.8449738 42.7267475,11.4964055 41.9901818,11.5109628 C41.0431111,11.5299683 40.3546263,12.1713016 39.5263434,12.5109738 C37.3905859,13.3868426 36.3170505,11.7030393 34.3631111,11.3277825 C33.6625051,11.1935311 32.8414949,11.1603727 32.1966465,11.5194546 C31.1093737,12.1247989 31.4891717,12.9808536 30.9845253,13.9060557 C30.1457374,15.4430721 28.8875556,15.4632907 27.4709899,15.1183617 C26.9897778,15.001094 26.5049293,14.8644164 26.0075556,14.8340885 C25.1703838,14.7827333 24.3239192,14.9311377 23.731596,15.568023 C23.0612929,16.2890175 23.0463434,17.2878153 23.1639192,18.2089738 C23.2354343,18.7694328 23.4043232,19.3092689 23.4713939,19.870941 C23.5808889,20.7876514 23.6297778,21.1924273 22.9566465,21.8685366 C22.2742222,22.5543508 22.1764444,22.3562087 21.3126061,22.534941 C19.7138182,22.8657169 18.5372525,24.2878918 19.1279596,25.9680557 C19.7275556,27.6732907 21.7372525,28.2353672 20.5526061,30.4565803 C20.3489697,30.8387115 19.8362424,31.0671814 19.5764444,31.4392033 C19.2540202,31.9005913 19.1065455,32.447706 18.9998788,32.9960339 C18.6895758,34.5920885 19.4463434,35.6701432 21.012,36.1954219 C22.3538182,36.6450831 23.3578586,36.7275749 23.4782626,38.5161104 C23.5130101,39.0272361 23.1489697,39.6612907 23.091596,40.1837388 C22.9950303,41.0648645 23.1526061,41.8550066 23.842303,42.4474109 C24.492404,43.0054437 25.3833131,43.1623399 26.2156364,43.212482 C26.8241212,43.2488754 27.4293737,43.1591049 28.0370505,43.170023 C28.4301818,43.1764929 28.8641212,43.1833672 29.2487677,43.2699027 C30.3930101,43.5262743 30.5768485,44.4571377 30.9691717,45.4668536 C31.6006869,47.0904055 32.5465455,48.5178372 34.5610909,48.0439137 C35.5190707,47.8190831 35.7614949,47.3164492 36.3570505,46.6637934 C37.8936162,44.9816077 38.9934141,46.8247333 40.5356364,47.3698262 C42.4059394,48.0313781 43.8992727,46.7555858 44.4843232,45.0996842 C45.5287677,42.144941 47.4903838,43.7211814 49.6269495,43.4474219 C50.4932121,43.336624 51.1978586,42.9229519 51.7105859,42.215706 C52.4083636,41.2524929 52.3829091,40.4069519 52.1105859,39.3280885 C52.0099798,38.9297825 51.7845253,38.5650393 51.7829091,38.1408536 C51.7792727,37.197859 52.5311919,36.5233672 53.3732121,36.1934 C53.9659394,35.9612907 54.5255354,35.911553 55.0693737,35.5282087 C56.691596,34.3846459 56.5388687,32.846012 55.0346263,31.7610831 C53.9214949,30.9584055 52.5505859,29.7186022 53.7954343,28.4258262 C54.0677576,28.1431705 54.4786667,27.9583727 54.7873535,27.700788" id="Fill-12" fill="#4C4C78"></path>
                <!-- inner circle -->
                <path d="M49.0737778,28.9371137 C49.0737778,31.1288077 48.4685253,33.9044142 47.416404,35.6549388 C45.3816566,39.0407421 41.6749899,41.3056273 37.4398384,41.3056273 C33.8471111,41.3056273 30.3642828,40.3941738 28.2301414,37.8332885 C26.5477172,35.8138568 25.805899,32.4976055 25.805899,29.6625563 C25.805899,26.2464251 26.6968081,22.5751355 29.0382222,20.4453104 C31.1040808,18.5661956 34.4281212,18.0190809 37.4398384,18.0190809 C40.5578182,18.0190809 43.0240808,17.9078787 45.1129697,19.9062831 C47.3287273,22.0264033 49.0737778,25.6269279 49.0737778,28.9371137" id="Fill-14" fill="#FFFFFF"></path>
                <!-- inner circle border -->
                <path d="M47.0184646,35.4149443 C44.9764444,38.8120699 41.3958384,40.8403978 37.4398788,40.8403978 C34.6576566,40.8403978 30.8637172,40.2669989 28.5869495,37.5354689 C26.8790707,35.4861137 26.2705859,32.1241683 26.2705859,29.6623541 C26.2705859,25.8042448 27.3934141,22.5700809 29.3505859,20.7896328 C31.4455354,18.8842339 34.9057374,18.4843104 37.4398788,18.4843104 L37.9093737,18.4835016 C38.0596768,18.4830973 38.2071515,18.4830973 38.3542222,18.4830973 C40.9578586,18.4830973 43.042303,18.568824 44.7913939,20.242518 C47.0750303,22.426529 48.6087677,25.9207038 48.6087677,28.9373158 C48.6087677,31.1929005 47.9546263,33.8564962 47.0184646,35.4149443 M45.4338182,19.5704525 C43.3166465,17.5441464 40.8168485,17.5473814 37.9077576,17.5538514 L37.4398788,17.5542557 C34.741697,17.5542557 31.0398788,17.9958295 28.7259394,20.1013923 C26.5748283,22.0577421 25.3412929,25.542212 25.3412929,29.6623541 C25.3412929,32.2875344 26.0063434,35.8908896 27.8734141,38.1311082 C29.8576566,40.5120481 33.1659394,41.7708568 37.4398788,41.7708568 C41.7247273,41.7708568 45.6035152,39.573906 47.8148283,35.894529 C48.8451313,34.1787803 49.5380606,31.3833596 49.5380606,28.9373158 C49.5380606,25.6829333 47.8883636,21.9190426 45.4338182,19.5704525" id="Fill-16" fill="#4C4C78"></path>
                <!-- left ribbon border -->
                <path d="M35.1801616,53.1231847 C35.1191515,51.4373596 34.8120808,49.1611519 35.5490505,47.5752066 C35.7668283,47.1065399 35.0706667,46.695294 34.8512727,47.1671956 C34.1446061,48.6884415 34.3147071,50.7422448 34.3494545,52.3427475 C34.3963232,54.482682 34.4658182,56.6808459 35.1001616,58.7326273 C32.8476364,57.3666601 30.6848081,55.4111191 28.1862222,54.7641246 C28.0577374,54.7309661 27.8819798,54.7576546 27.7930909,54.8676437 C26.2892525,56.7410973 24.7252121,58.5619825 23.1591515,60.3844852 C23.1017778,54.4321355 24.6500606,48.5893705 26.1959192,42.8804525 C26.3320808,42.3774142 25.5526869,42.1626929 25.4165253,42.6653268 C23.7611717,48.7794251 22.1050101,55.0548678 22.3765253,61.4435344 C22.3902626,61.7674361 22.8250101,62.0108678 23.0666263,61.7294251 C24.0553131,60.5773705 25.044404,59.4249115 26.0334949,58.2724525 C26.5854141,57.6303104 27.6306667,55.8454142 28.5332929,55.7823322 C29.4977374,55.7148022 31.2330909,57.2918514 31.983798,57.8231956 C33.1474343,58.6473049 34.3688485,59.3153268 35.6383434,59.9619169 C35.914303,60.1026383 36.3789495,59.8588022 36.2318788,59.5053814 C35.3858182,57.4750317 35.2589495,55.3011301 35.1801616,53.1231847" id="Fill-18" fill="#4C4C78"></path>
                <!-- right ribbon border -->
                <path d="M57.923596,55.9265311 C55.9979394,54.4307607 53.9074343,53.0239519 52.1345051,51.3510667 C49.7971313,49.1448153 48.8767273,45.8855803 47.9959192,42.8899956 C47.8488485,42.3918098 47.0690505,42.6041049 47.2165253,43.1051213 C47.9947071,45.7493071 48.8189495,48.7008153 50.5846061,50.8864437 C52.1862222,52.8690776 54.5248081,54.3907279 56.6056162,55.935023 C53.4201616,56.2500284 50.4892525,55.6725858 47.8100606,53.7162361 C47.5934949,53.5581268 47.2823838,53.7279628 47.2165253,53.9580503 C46.4775354,56.5294492 46.554303,59.0959956 47.4169293,61.535165 C46.8290505,61.1453508 46.2173333,60.7935475 45.6201616,60.3944328 C44.2431919,59.4736787 43.2302626,58.1926295 42.2173333,56.904706 C39.6116768,53.5924984 37.2957172,49.8512525 38.2407677,45.4537115 C38.3502626,44.9458208 37.5712727,44.7290776 37.4613737,45.2381814 C36.6391515,49.0643454 38.0589495,52.5476022 40.2593535,55.6475148 C41.2488485,57.0405749 42.3054141,58.447788 43.4989495,59.6714164 C44.8597576,61.0652852 46.6856162,61.7482689 48.0924848,63.0725858 C48.4351111,63.3948699 48.9292525,62.9913071 48.7272323,62.5824874 C47.4981414,60.0968153 47.2108687,57.3992525 47.8508687,54.7239301 C50.8488485,56.7275913 54.1696566,57.1360066 57.7454141,56.6026404 C58.0302626,56.559777 58.1514747,56.1040503 57.923596,55.9265311" id="Fill-20" fill="#4C4C78"></path>
                <!-- crown -->
                <path d="M33.6823434,33.5458984 C32.7037576,31.3121497 31.3166869,29.2583464 29.6096162,27.5175268 C31.3974949,27.0468383 33.2686061,27.6877672 35.0055758,28.3206087 C35.257697,26.9263355 35.7748687,25.5813956 36.5207273,24.3775814 C36.9231515,25.3666743 38.7514343,27.2672208 39.517899,28.0104557 C40.6419394,26.1782481 42.3227475,24.7508164 44.4322424,23.8102481 C43.227798,26.5421825 42.7126465,29.4674066 42.367596,32.4759311 C42.367596,32.4759311 36.6233535,33.2850787 33.6823434,33.5458984" id="Fill-22" fill="#8b4513"></path>
                <!-- crown border -->
                <path d="M42.372,29.2658273 C42.2435152,29.9823738 42.1029091,30.7118601 42.0414949,31.4385158 C41.9711919,32.2630295 42.3849293,31.8145814 41.7283636,32.1097727 C40.7526061,32.5485158 39.1804848,32.4534885 38.1142222,32.5885486 C36.7287677,32.7640459 35.3425051,32.9290295 33.952202,33.0624721 C33.051596,31.1574776 31.921899,29.4372809 30.5404848,27.8646798 C32.0451313,27.7838055 33.4483636,28.2443847 34.8847273,28.7591497 C35.1069495,28.8384066 35.3950303,28.6685705 35.4443232,28.4413137 C35.682303,27.3260568 36.0406869,26.3106798 36.5396768,25.3147126 C37.2629091,26.4352262 38.2665455,27.4150186 39.1970505,28.3321333 C39.4136162,28.5460459 39.7509899,28.4845814 39.9105859,28.2399366 C40.8738182,26.7672153 42.1061414,25.6531716 43.5711919,24.7882208 C43.041899,26.2427454 42.6475556,27.7324503 42.372,29.2658273 M44.2027071,23.4178055 C42.2673535,24.3373464 40.6932121,25.598177 39.4564444,27.3114995 C38.4972525,26.3632481 37.512202,25.3454448 36.9130101,24.1476962 C36.7578586,23.8379475 36.2907879,23.8658492 36.1283636,24.1476962 C35.4641212,25.2989421 35.0031111,26.4558492 34.6867475,27.7288109 C32.9655354,27.1351934 31.3299798,26.7328437 29.4887677,27.0789858 C29.1380606,27.144494 29.0697778,27.6087126 29.2879596,27.8392044 C30.9513939,29.5933683 32.262101,31.5440568 33.271798,33.7377727 C33.292404,33.804494 33.3307879,33.8607016 33.381697,33.9068 C33.4810909,34.005871 33.612,34.0281115 33.7372525,33.9953574 C36.6629091,33.7215978 39.5788687,33.3232918 42.4883636,32.9148765 C42.7000808,32.8853574 42.8006869,32.6576962 42.822101,32.4761333 C43.1740202,29.5335213 43.7198788,26.6738055 44.8705859,23.9313574 C45.0406869,23.5257727 44.5146263,23.2694011 44.2027071,23.4178055" id="Fill-24" fill="#4C4D78"></path>
                <!-- bottom shadow -->
                <path d="M38.4203636,63.905753 C31.2898586,63.6748568 22.054303,62.7864525 18.4757172,63.905753 C16.3363232,64.5745836 18.7064242,66.3319825 21.7080404,66.5628787 C24.7092525,66.7941792 34.6999596,66.4472284 38.4203636,66.4472284 C42.1407677,66.4472284 58.8797576,67.9494689 58.9953131,65.8693814 C59.1104646,63.7901027 38.4203636,63.905753 38.4203636,63.905753" id="Fill-26" fill="#D1D1D1"></path>
            </g>
        </g>
    </g>
</svg>