<?xml version="1.0" encoding="UTF-8"?>
<svg width="80px" height="74px" viewBox="0 0 80 74" version="1.1" xmlns="http://www.w3.org/2000/svg" xmlns:xlink="http://www.w3.org/1999/xlink">
    <!-- Generator: sketchtool 52.1 (67048) - http://www.bohemiancoding.com/sketch -->
    <title>66DBAFCA-2FD3-429C-982D-56C38D50B004</title>
    <desc>Created with sketchtool.</desc>
    <defs>
        <polygon id="path-1" points="2.34277307e-06 0.123016265 79.8424242 0.123016265 79.8424242 73.595527 2.34277307e-06 73.595527"></polygon>
    </defs>
    <g id="Peeranha" stroke="none" stroke-width="1" fill="none" fill-rule="evenodd">
        <g id="Peerania_LK_awards" transform="translate(-266.000000, -417.000000)">
            <g id="Group-28-1" transform="translate(266.000000, 417.000000)">
                <g id="Group-3" transform="translate(0.000000, 0.281443)">
                    <mask id="mask-2" fill="white">
                        <use xlink:href="#path-1"></use>
                    </mask>
                    <g id="Clip-2"></g>
                    <path d="M0.867232323,36.908329 C1.67531313,26.7222087 0.982383838,17.5947333 6.98561616,11.8178809 C11.6486465,7.3305694 23.9553131,3.73044918 27.3031919,2.80646011 C30.6506667,1.88206667 41.2712727,-2.73949617 49.6979394,2.80646011 C58.1254141,8.35201202 65.2829899,15.6375749 69.4385455,19.793706 C73.5945051,23.9490284 79.5969293,30.0008536 79.8284444,38.2399246 C80.0591515,46.4785913 77.404202,49.2509628 75.5565253,54.566023 C73.7096566,59.8806787 73.7096566,62.9995967 69.8999596,68.4299027 C66.0910707,73.8602087 57.4328889,73.7449628 50.1601616,73.5132579 C42.8874343,73.2823617 24.7520808,72.2552579 20.0304646,71.7805257 C15.1621818,71.2908317 2.49107071,65.4056077 1.01066667,57.0702962 C-1.17640404,44.7555639 0.867232323,36.908329 0.867232323,36.908329" id="Fill-1" fill="#F9F9F9" mask="url(#mask-2)"></path>
                </g>
                <path d="M25.806101,42.7728087 C24.2574141,48.4817268 22.4448889,55.4223607 22.7806465,61.4438579 C24.4291313,59.5230929 26.0780202,57.6027322 27.7265051,55.6819672 C27.8307475,55.5606557 27.9297374,55.2124918 28.0788283,55.1538579 C28.2691313,55.0794536 28.4941818,55.3515956 28.6889293,55.4126557 C30.2873131,55.9144809 31.5648889,57.0928197 32.9648889,58.0135738 C33.8816566,58.6177049 34.8630707,59.1158907 35.8420606,59.6128634 C35.1806465,58.2044372 34.9923636,56.6245574 34.8804444,55.0721749 C34.7491313,53.2553333 34.7091313,51.4316175 34.7616566,49.6107322 C34.7826667,48.8687104 35.1685253,47.3021749 35.2000404,47.3713224 L33.5333737,44.4885574 L29.2909495,41.0008525 L25.806101,42.7728087 Z" id="Fill-4" fill="#D1D1D1"></path>
                <path d="M37.8511515,45.345906 C37.6802424,46.0127148 37.5881212,46.7005508 37.575596,47.3891956 C37.5416566,49.3354361 38.1537778,51.2513486 39.0620606,52.9727585 C39.9703434,54.6941683 41.1691313,56.2433158 42.3869091,57.7613268 C43.1521616,58.7156437 43.9384242,59.6719825 44.9202424,60.4010645 C46.0471111,61.2389224 47.4151919,61.7646055 48.3784242,62.7864525 C47.6608485,61.4176546 47.0806465,59.782376 47.1190303,58.2372721 C47.1574141,56.7140044 47.1133737,55.5304087 47.606303,54.0653705 C50.4345859,56.2392721 53.6846869,56.872518 57.6378182,56.2125836 C55.8349899,54.8114361 55.3081212,54.402212 53.5052929,53.0010645 C52.5646869,52.270365 51.6147879,51.530365 50.8701414,50.6007148 C50.1594343,49.7135235 49.656404,48.6795454 49.2026667,47.6370754 C48.5121616,46.0491082 48.0915556,44.6596874 47.606303,42.9973158" id="Fill-6" fill="#D1D1D1"></path>
                <path d="M56.2101414,25.0025377 C56.2909495,23.8100459 55.8428687,22.7691934 54.6865051,22.4707672 C53.986303,22.2904175 51.5103434,22.4594448 51.0586263,21.8941333 C50.6545859,21.3886689 50.746303,20.0744612 50.9297374,19.6983956 C51.256202,19.0291607 51.4949899,18.2082863 51.7151919,17.4965923 C51.9685253,16.6777399 51.3992323,15.9490623 50.185899,15.8689967 C49.2533737,15.8075322 48.3669091,16.2640678 47.4335758,16.2220131 C46.7947879,16.1933027 45.0210505,15.8459475 44.1826667,14.6728656 C43.8469091,14.2029858 43.7947879,13.6037071 43.5838788,13.0654885 C43.1620606,11.9910732 42.2691313,11.5955978 40.9911515,12.1892153 C40.5131717,12.4112153 39.8048889,12.8163956 39.3475152,13.078024 C37.9665051,13.866953 36.9875152,12.8572372 35.6877172,12.2118601 C34.3879192,11.5668874 32.4986263,11.2332809 31.7535758,12.4787454 C31.3014545,13.2349202 31.5269091,14.2628328 31.0533737,15.0060678 C30.3838788,16.0566251 28.825899,15.9146907 27.6275152,15.5782536 C26.4287273,15.2422208 24.9677172,14.8985049 24.0804444,15.7723519 C23.2048889,16.6348765 23.5042828,18.0792918 23.7854949,19.2762317 C24.0671111,20.4727672 24.1216566,22.0227235 23.0469091,22.6183628 C22.3968081,22.9786579 21.5830707,22.8161005 20.8707475,23.0275869 C19.7741818,23.3543191 19.0970101,24.6838929 19.4768081,25.7639694 C19.9584242,27.1327672 21.7931717,27.9843738 21.6137778,29.4239366 C21.5046869,30.2994011 20.676,30.8643082 20.045697,31.4809749 C19.4153939,32.0976415 19.2909495,33.836035 19.2909495,33.836035 C19.1729697,34.8085486 20.4093333,35.6775432 21.3669091,35.8825596 C22.3240808,36.0879803 23.3394343,36.2602426 23.7689293,37.1409639 C24.3806465,38.3937071 23.1778182,39.8611716 23.5079192,41.2158164 C23.865899,42.6848984 25.7483232,42.9044721 27.2549899,42.7924612 C28.7612525,42.6804503 30.7079192,42.8098492 31.1814545,44.2457727 C31.3046869,44.6206251 31.2937778,45.0254011 31.366101,45.4131934 C31.5604444,46.4532372 32.2743838,47.4423301 33.305899,47.6728219 C34.3378182,47.903718 35.6230707,47.4451607 36.0081212,46.4597071 C36.2351919,45.8786251 37.0913535,45.5862645 37.4400404,45.3533464 C37.9810505,44.9918383 38.3046869,45.3638601 38.8448889,45.726177 C39.3850909,46.0888984 39.8283232,46.5943628 40.4069091,46.891576 C41.7717576,47.5927563 43.6828687,46.7233574 44.0521616,45.2328437 C44.1689293,44.759729 44.1523636,44.2502208 44.3576162,43.808647 C44.9252929,42.5858273 46.6610505,42.6440568 47.9774141,42.9311607 C49.2933737,43.2178601 50.6153939,43.1341552 51.3616566,42.0116197 C52.2020606,40.7479585 52.0012525,40.1798164 51.6392323,39.206494 C51.2776162,38.2331716 51.035596,37.0600896 51.816202,36.3758929 C52.6372121,35.6561115 53.3616566,35.9731388 54.3414545,35.4911279 C55.4186263,34.9614011 56.4121616,33.8230951 55.6331717,32.8376415 C55.1766061,32.2593902 55.0016566,32.2322973 53.5232727,31.2763628 C52.0687273,30.3353902 52.8622626,28.237106 54.265899,27.605882 C54.265899,27.605882 56.1293333,26.1950295 56.2101414,25.0025377" id="Fill-8" fill="#FFFFFF"></path>
                <path d="M56.2101414,25.0025377 C56.2909495,23.8100459 55.8428687,22.7691934 54.6865051,22.4707672 C53.986303,22.2904175 51.5103434,22.4594448 51.0586263,21.8941333 C50.6545859,21.3886689 50.746303,20.0744612 50.9297374,19.6983956 C51.256202,19.0291607 51.4949899,18.2082863 51.7151919,17.4965923 C51.9685253,16.6777399 51.3992323,15.9490623 50.185899,15.8689967 C49.2533737,15.8075322 48.3669091,16.2640678 47.4335758,16.2220131 C46.7947879,16.1933027 45.0210505,15.8459475 44.1826667,14.6728656 C43.8469091,14.2029858 43.7947879,13.6037071 43.5838788,13.0654885 C43.1620606,11.9910732 42.2691313,11.5955978 40.9911515,12.1892153 C40.5131717,12.4112153 39.8048889,12.8163956 39.3475152,13.078024 C37.9665051,13.866953 36.9875152,12.8572372 35.6877172,12.2118601 C34.3879192,11.5668874 32.4986263,11.2332809 31.7535758,12.4787454 C31.3014545,13.2349202 31.5269091,14.2628328 31.0533737,15.0060678 C30.3838788,16.0566251 28.825899,15.9146907 27.6275152,15.5782536 C26.4287273,15.2422208 24.9677172,14.8985049 24.0804444,15.7723519 C23.2048889,16.6348765 23.5042828,18.0792918 23.7854949,19.2762317 C24.0671111,20.4727672 24.1216566,22.0227235 23.0469091,22.6183628 C22.3968081,22.9786579 21.5830707,22.8161005 20.8707475,23.0275869 C19.7741818,23.3543191 19.0970101,24.6838929 19.4768081,25.7639694 C19.9584242,27.1327672 21.7931717,27.9843738 21.6137778,29.4239366 C21.5046869,30.2994011 20.676,30.8643082 20.045697,31.4809749 C19.4153939,32.0976415 19.2909495,33.836035 19.2909495,33.836035 C19.1729697,34.8085486 20.4093333,35.6775432 21.3669091,35.8825596 C22.3240808,36.0879803 23.3394343,36.2602426 23.7689293,37.1409639 C24.3806465,38.3937071 23.1778182,39.8611716 23.5079192,41.2158164 C23.865899,42.6848984 25.7483232,42.9044721 27.2549899,42.7924612 C28.7612525,42.6804503 30.7079192,42.8098492 31.1814545,44.2457727 C31.3046869,44.6206251 31.2937778,45.0254011 31.366101,45.4131934 C31.5604444,46.4532372 32.2743838,47.4423301 33.305899,47.6728219 C34.3378182,47.903718 35.6230707,47.4451607 36.0081212,46.4597071 C36.2351919,45.8786251 37.0913535,45.5862645 37.4400404,45.3533464 C37.9810505,44.9918383 38.3046869,45.3638601 38.8448889,45.726177 C39.3850909,46.0888984 39.8283232,46.5943628 40.4069091,46.891576 C41.7717576,47.5927563 43.6828687,46.7233574 44.0521616,45.2328437 C44.1689293,44.759729 44.1523636,44.2502208 44.3576162,43.808647 C44.9252929,42.5858273 46.6610505,42.6440568 47.9774141,42.9311607 C49.2933737,43.2178601 50.6153939,43.1341552 51.3616566,42.0116197 C52.2020606,40.7479585 52.0012525,40.1798164 51.6392323,39.206494 C51.2776162,38.2331716 51.035596,37.0600896 51.816202,36.3758929 C52.6372121,35.6561115 53.3616566,35.9731388 54.3414545,35.4911279 C55.4186263,34.9614011 56.4121616,33.8230951 55.6331717,32.8376415 C55.1766061,32.2593902 55.0016566,32.2322973 53.5232727,31.2763628 C52.0687273,30.3353902 52.8622626,28.237106 54.265899,27.605882 C54.265899,27.605882 56.1293333,26.1950295 56.2101414,25.0025377" id="Fill-10" fill="#EAEAEA"></path>
                <path d="M52.5895354,28.7923486 C51.8909495,30.3879989 52.8392323,31.3014743 54.0909495,32.1174962 C54.3600404,32.2925891 54.9220606,32.5255071 55.076404,32.8166546 C55.7774141,34.1405672 54.4824646,34.9921738 53.416202,35.361365 C52.5669091,35.6557475 51.7111515,35.6282503 51.1895354,36.5105891 C50.8772121,37.0395071 50.8654949,37.6517257 50.9539798,38.2457475 C51.0214545,38.6990481 51.2307475,39.1026109 51.3317576,39.5429716 C51.6869091,41.0949497 50.8174141,42.6137694 49.0933737,42.6663377 C47.5228687,42.7140536 45.5180202,41.7027202 44.2735758,43.2041519 C43.4549899,44.1916273 43.9442828,45.6534306 42.6254949,46.4197148 C40.6545859,47.5644907 39.8218586,45.3028404 38.2501414,44.9081738 C37.6149899,44.7492557 37.0133737,45.0399989 36.4743838,45.4269825 C35.1745859,46.3598678 34.6921616,47.9450044 32.9176162,46.7658568 C31.8541818,46.0590153 31.9644848,45.5074525 31.6267071,44.427376 C31.5281212,44.1119661 31.4869091,43.8568077 31.2889293,43.5688951 C30.8695354,42.9586984 30.1620606,42.6505672 29.4638788,42.4896273 C28.4743838,42.2623705 27.476404,42.4483814 26.4784242,42.4079443 C25.2234747,42.3565891 23.9665051,41.5385454 23.9252929,40.2360645 C23.9034747,39.5611683 24.3030707,38.902447 24.3297374,38.2231027 C24.3972121,36.4818787 23.2291313,35.9905672 21.7620606,35.5554634 C20.0937778,35.0609169 19.1665051,33.6173104 20.1543838,32.009529 C20.6695354,31.1712667 21.6505455,30.7826656 21.9309495,29.7769934 C22.0953939,29.1870153 21.9919596,28.6690153 21.7079192,28.1352448 C21.5394343,27.8178131 21.3006465,27.5573978 21.076,27.2816164 C20.916,27.0854962 20.7301414,26.911212 20.5705455,26.7150918 C20.0574141,26.086294 19.6869091,24.4700208 20.3341818,23.8100863 C21.0881212,23.0405672 22.6687273,23.4627311 23.5293333,22.749824 C24.0877172,22.287223 24.3026667,21.6200098 24.355596,20.906294 C24.4380202,19.7934634 23.9499394,18.763529 23.9115556,17.6660645 C23.8093333,14.7214306 26.906303,16.001671 28.606101,16.1856601 C30.0941818,16.3470044 31.2913535,15.8864251 31.7091313,14.3793322 C31.9277172,13.5899989 31.7717576,13.1969497 32.4327677,12.5855399 C33.2133737,11.864141 34.1135758,12.0266984 35.0646869,12.3966984 C36.0933737,12.7966219 37.0481212,13.7028186 38.1915556,13.7614525 C39.1022626,13.8079552 39.8109495,13.241835 40.5834747,12.851212 C40.8283232,12.7270699 41.3568081,12.3639443 41.6222626,12.3845672 C42.4404444,12.4472448 43.1568081,13.7181847 43.535798,14.2746 C43.7390303,14.5730262 43.8343838,14.8823705 44.0743838,15.1597694 C44.7111515,15.8977475 45.7220606,16.3437694 46.6667071,16.522906 C47.8654949,16.7501628 49.606101,15.9159443 50.6303434,16.3502393 C52.4024646,17.1019661 49.4469091,20.5451902 50.7099394,22.0983814 C51.0553939,22.523376 51.6093333,22.5884798 52.1192323,22.6661191 C53.7547879,22.9148077 55.7834747,22.5524907 55.8036768,24.9544579 C55.3531717,26.8242721 53.3030707,27.1631355 52.5895354,28.7923486 M54.7871111,27.7009497 C55.6125657,27.0131137 56.3665051,26.1805126 56.6000404,25.110141 C56.6032727,25.0951792 56.5988283,25.0834525 56.6004444,25.0692995 C56.6044848,25.0462503 56.6141818,25.0276492 56.6141818,25.0025781 C56.6202424,23.2674197 55.8271111,22.1881519 54.0832727,21.9916273 C52.7054949,21.8359443 50.8691313,22.115365 51.2368081,20.063988 C51.4198384,19.0449716 52.2901414,18.0740754 52.1636768,16.9899552 C51.8719596,14.4844689 48.2287273,15.9668951 46.8812525,15.7428732 C44.6974141,15.3793432 44.7491313,13.9426109 43.7236768,12.4432011 C43.3139798,11.8451355 42.7265051,11.4965672 41.9903434,11.5111246 C41.0432727,11.5301301 40.3543838,12.171059 39.526101,12.5107311 C37.3907475,13.3866 36.3168081,11.7027967 34.3632727,11.3279443 C33.6626667,11.1936929 32.8416566,11.1601301 32.1968081,11.519212 C31.1095354,12.1245563 31.4893333,12.9810153 30.9846869,13.9062175 C30.145899,15.4428295 28.8873131,15.4630481 27.4711515,15.1181191 C26.9895354,15.0008514 26.5046869,14.8645781 26.0073131,14.8338459 C25.1705455,14.7828951 24.3236768,14.9308951 23.7313535,15.5681847 C23.0614545,16.2891792 23.0465051,17.287977 23.1636768,18.2087311 C23.2351919,18.7695945 23.4040808,19.3094306 23.4711515,19.8711027 C23.5806465,20.7874087 23.6295354,21.1921847 22.956404,21.868294 C22.2743838,22.5541082 22.1766061,22.3563705 21.3127677,22.5351027 C19.7139798,22.8658787 18.5374141,24.2876492 19.1281212,25.9682175 C19.7273131,27.6730481 21.7370101,28.2351246 20.5527677,30.4563377 C20.3487273,30.8388732 19.836404,31.0673432 19.5766061,31.4389607 C19.2541818,31.900753 19.1067071,32.4478678 18.9996364,32.9957913 C18.6893333,34.5918459 19.4465051,35.6703049 21.0121616,36.1951792 C22.3535758,36.6452448 23.3576162,36.7277366 23.4784242,38.5162721 C23.5127677,39.0269934 23.1487273,39.6614525 23.0913535,40.1839005 C22.9951919,41.0646219 23.1523636,41.8551683 23.8420606,42.4471683 C24.4925657,43.0052011 25.3834747,43.1625016 26.215798,43.2122393 C26.8238788,43.2486328 27.4295354,43.1588623 28.0368081,43.1697803 C28.4303434,43.1766546 28.8642828,43.183529 29.2489293,43.2696601 C30.3931717,43.5260317 30.5766061,44.4572995 30.9693333,45.4666109 C31.6008485,47.0901628 32.5467071,48.5179989 34.5608485,48.0440754 C35.5192323,47.8188404 35.7612525,47.3166109 36.3568081,46.6639552 C37.8937778,44.9817694 38.9935758,46.8244907 40.535798,47.3695836 C42.406101,48.0315399 43.8990303,46.7553432 44.4844848,45.0998459 C45.5289293,42.1451027 47.4901414,43.7213432 49.6271111,43.4475836 C50.4933737,43.3363814 51.1980202,42.9231137 51.7103434,42.2158678 C52.4085253,41.2526546 52.3830707,40.4071137 52.1107475,39.3282503 C52.0101414,38.9299443 51.7842828,38.5652011 51.7830707,38.1410153 C51.7794343,37.1980208 52.5313535,36.523529 53.3729697,36.1935617 C53.965697,35.9614525 54.5252929,35.9113104 55.0691313,35.5283705 C56.6913535,34.3848077 56.5390303,32.8461738 55.0347879,31.7612448 C53.9216566,30.9581628 52.5503434,29.7187639 53.795596,28.425988 C54.0675152,28.1433322 54.4784242,27.9581301 54.7871111,27.7009497" id="Fill-12" fill="#A0A0A0"></path>
                <path d="M49.0735354,28.9372754 C49.0735354,31.1289694 48.4686869,33.9041716 47.4165657,35.6546962 C45.3818182,39.0404995 41.6751515,41.3057891 37.44,41.3057891 C33.8472727,41.3057891 30.3644444,40.3943355 28.230303,37.8334503 C26.5474747,35.8140186 25.8060606,32.4977672 25.8060606,29.6623137 C25.8060606,26.2461825 26.6969697,22.5752973 29.0383838,20.4454721 C31.1042424,18.5663574 34.4282828,18.0192426 37.44,18.0192426 C40.5579798,18.0192426 43.0242424,17.9080404 45.1127273,19.9064448 C47.3288889,22.0261607 49.0735354,25.6270896 49.0735354,28.9372754" id="Fill-14" fill="#FFFFFF"></path>
                <path d="M38.3542222,18.483259 C38.2075556,18.483259 38.0596768,18.483259 37.9093737,18.4836634 L37.4398788,18.4844721 C34.9061414,18.4844721 31.4455354,18.8839913 29.3509899,20.7893902 C27.3934141,22.5698383 26.2709899,25.8040022 26.2709899,29.6625158 C26.2709899,32.1243301 26.8794747,35.4862754 28.5869495,37.5356306 C30.8637172,40.2671607 34.6580606,40.8405596 37.4398788,40.8405596 C41.3958384,40.8405596 44.9768485,38.8122317 47.0184646,35.415106 C47.9550303,33.8570623 48.6087677,31.1930623 48.6087677,28.9374776 C48.6087677,25.9208656 47.0750303,22.4266907 44.791798,20.2426798 C43.0427071,18.5689858 40.9578586,18.483259 38.3542222,18.483259 M37.4398788,41.7710186 C33.1659394,41.7710186 29.8580606,40.5126142 27.8738182,38.1312699 C26.0063434,35.8910514 25.3412929,32.2876962 25.3412929,29.6625158 C25.3412929,25.5423738 26.5752323,22.0579038 28.7259394,20.1015541 C31.0398788,17.9959913 34.742101,17.5540131 37.4398788,17.5540131 L37.9081616,17.5536087 C40.8172525,17.5475432 43.3166465,17.5443082 45.4338182,19.5702098 C47.8887677,21.9188 49.5384646,25.6830951 49.5384646,28.9374776 C49.5384646,31.3831169 48.8455354,34.1789421 47.8148283,35.8946907 C45.6035152,39.5740678 41.7251313,41.7710186 37.4398788,41.7710186" id="Fill-16" fill="#A0A0A0"></path>
                <path d="M35.1802828,53.1233464 C35.1192727,51.4371169 34.811798,49.1613137 35.5487677,47.5753683 C35.7665455,47.1062973 35.0707879,46.6954557 34.8513939,47.1673574 C34.1443232,48.6886033 34.3144242,50.7420022 34.3491717,52.3429093 C34.3960404,54.4824393 34.4655354,56.6806033 35.1002828,58.7327891 C32.8473535,57.3668219 30.6849293,55.4112809 28.1859394,54.763882 C28.0578586,54.7307235 27.881697,54.7578164 27.7932121,54.8678055 C26.2889697,56.7408546 24.7249293,58.5621443 23.1592727,60.3842426 C23.101899,54.4318929 24.6501818,48.5895322 26.1956364,42.8802098 C26.331798,42.3771716 25.552404,42.1628546 25.4166465,42.6654885 C23.7612929,48.7795869 22.1051313,55.0550295 22.3766465,61.4436962 C22.3903838,61.7675978 22.8247273,62.0110295 23.0663434,61.7295869 C24.0554343,60.5775322 25.0445253,59.4250732 26.0336162,58.2726142 C26.5855354,57.6300678 27.6307879,55.8451716 28.5334141,55.7820896 C29.4978586,55.7145596 31.2332121,57.2916087 31.9839192,57.822953 C33.1475556,58.6470623 34.3689697,59.3154885 35.6380606,59.9620787 C35.9140202,60.1028 36.3790707,59.8589639 36.231596,59.5051388 C35.3855354,57.4747891 35.2586667,55.3012918 35.1802828,53.1233464" id="Fill-18" fill="#A0A0A0"></path>
                <path d="M57.9233535,55.9267333 C55.998101,54.4305585 53.907596,53.0241541 52.1342626,51.3508645 C49.7968889,49.1446131 48.8768889,45.8853781 47.9956768,42.8901978 C47.8490101,42.3916077 47.0692121,42.6039027 47.2162828,43.1049191 C47.9944646,45.7491049 48.8191111,48.7010175 50.5843636,50.8866459 C52.1859798,52.8688754 54.5249697,54.3909301 56.6057778,55.9352251 C53.4199192,56.2498262 50.4894141,55.672788 47.8102222,53.7164383 C47.5936566,53.558329 47.2825455,53.728165 47.2162828,53.9582525 C46.477697,56.529247 46.5540606,59.0957934 47.4166869,61.5353672 C46.8292121,61.1451486 46.2174949,60.7937497 45.6199192,60.3942306 C44.2429495,59.4734765 43.2304242,58.1924273 42.2170909,56.9045038 C39.6114343,53.5922962 37.2954747,49.8514546 38.2409293,45.4535093 C38.3500202,44.946023 37.5710303,44.7292798 37.4615354,45.2383836 C36.6393131,49.0645475 38.0587071,52.5478044 40.2595152,55.6477169 C41.2486061,57.040777 42.3055758,58.4479902 43.4991111,59.6712142 C44.8599192,61.0654874 46.6853737,61.7480667 48.0926465,63.0723836 C48.4352727,63.3946678 48.9294141,62.9911049 48.7269899,62.5826896 C47.497899,60.0970175 47.2106263,57.3994546 47.8506263,54.7241322 C50.8486061,56.7273891 54.1698182,57.1358044 57.7451717,56.6024383 C58.0304242,56.5599792 58.1516364,56.1042525 57.9233535,55.9267333" id="Fill-20" fill="#A0A0A0"></path>
                <path d="M33.6825051,33.5461005 C32.7039192,31.3123519 31.3164444,29.2581443 29.6097778,27.517729 C31.3972525,27.0470404 33.2687677,27.6879694 35.0053333,28.3204066 C35.2574545,26.9265377 35.7746263,25.5811934 36.5204848,24.3773792 C36.9233131,25.3664721 38.751596,27.267423 39.5180606,28.0106579 C40.642101,26.1780459 42.3225051,24.7506142 44.432,23.8104503 C43.2275556,26.5423847 42.7128081,29.4672044 42.3677576,32.4761333 C42.3677576,32.4761333 36.6235152,33.2848765 33.6825051,33.5461005" id="Fill-22" fill="#EAEAEA"></path>
                <path d="M42.3717576,29.2658273 C42.2432727,29.9823738 42.1026667,30.7118601 42.0412525,31.4385158 C41.9713535,32.2626251 42.3850909,31.8145814 41.7285253,32.1093683 C40.7523636,32.5481115 39.1806465,32.4538929 38.1139798,32.5885486 C36.7289293,32.7640459 35.3422626,32.9290295 33.9523636,33.0628765 C33.0513535,31.1574776 31.9220606,29.4376852 30.5406465,27.8642754 C32.0452929,27.7838055 33.4481212,28.2447891 34.8848889,28.7591497 C35.1071111,28.8384066 35.3951919,28.6681661 35.4440808,28.4413137 C35.6820606,27.3260568 36.0408485,26.3106798 36.5398384,25.3147126 C37.2630707,26.4348219 38.266303,27.4150186 39.1968081,28.331729 C39.4137778,28.5460459 39.7507475,28.4845814 39.9107475,28.240341 C40.8739798,26.7672153 42.106303,25.6531716 43.5713535,24.7882208 C43.0416566,26.2427454 42.6473131,27.7324503 42.3717576,29.2658273 M44.2028687,23.4178055 C42.2675152,24.3373464 40.6933737,25.598177 39.4566061,27.3114995 C38.4974141,26.3632481 37.5123636,25.3458492 36.9131717,24.1481005 C36.7580202,23.8379475 36.2909495,23.8658492 36.1285253,24.1481005 C35.4642828,25.2985377 35.0028687,26.4562536 34.6865051,27.7288109 C32.965697,27.1351934 31.3301414,26.7328437 29.4885253,27.0789858 C29.1378182,27.1448984 29.0695354,27.6087126 29.2881212,27.8392044 C30.9515556,29.5937727 32.2622626,31.5440568 33.2715556,33.7377727 C33.2925657,33.804494 33.3309495,33.8607016 33.3814545,33.9068 C33.4812525,34.005871 33.6121616,34.0277071 33.7374141,33.994953 C36.6630707,33.7215978 39.5790303,33.3232918 42.4885253,32.9148765 C42.7002424,32.884953 42.8008485,32.6581005 42.8222626,32.4761333 C43.1741818,29.5331169 43.7196364,26.6738055 44.8707475,23.9313574 C45.0404444,23.526177 44.5147879,23.2694011 44.2028687,23.4178055" id="Fill-24" fill="#A0A0A0"></path>
                <path d="M38.4205253,63.9055508 C31.2896162,63.6746546 22.0540606,62.7862503 18.4758788,63.9055508 C16.3364848,64.5747858 18.7065859,66.3317803 21.708202,66.5626765 C24.7094141,66.7943814 34.7001212,66.4474306 38.4205253,66.4474306 C42.1409293,66.4474306 58.8799192,67.9492667 58.9950707,65.8695836 C59.1106263,63.7903049 38.4205253,63.9055508 38.4205253,63.9055508" id="Fill-26" fill="#D1D1D1"></path>
            </g>
        </g>
    </g>
</svg>