<svg width="24" height="24" viewBox="0 0 24 24" fill="none">
  <g>
    <path
      d="M15.0621 5.97528C15.3843 5.10466 16.6157 5.10466 16.9379 5.97528L17.9926 8.82575C18.1952 9.37319 18.6268 9.80481 19.1743 10.0074L22.0247 11.0621C22.8953 11.3843 22.8953 12.6157 22.0247 12.9379L19.1743 13.9926C18.6268 14.1952 18.1952 14.6268 17.9926 15.1743L16.9379 18.0247C16.6157 18.8953 15.3843 18.8953 15.0621 18.0247L14.0074 15.1743C13.8048 14.6268 13.3732 14.1952 12.8257 13.9926L9.97528 12.9379C9.10466 12.6157 9.10466 11.3843 9.97528 11.0621L12.8257 10.0074C13.3732 9.80481 13.8048 9.37319 14.0074 8.82575L15.0621 5.97528Z"
      fill="none" stroke="#282828" class="stroke opacity semitransparent white"/>
    <path
      d="M4.53107 14.708C4.69215 14.2727 5.30785 14.2727 5.46893 14.708L5.99204 16.1217C6.14397 16.5323 6.46769 16.856 6.87827 17.008L8.29198 17.5311C8.72728 17.6922 8.72728 18.3078 8.29198 18.4689L6.87827 18.992C6.46769 19.144 6.14397 19.4677 5.99204 19.8783L5.46893 21.292C5.30785 21.7273 4.69215 21.7273 4.53107 21.292L4.00796 19.8783C3.85603 19.4677 3.53231 19.144 3.12173 18.992L1.70802 18.4689C1.27271 18.3078 1.27271 17.6922 1.70802 17.5311L3.12173 17.008C3.53231 16.856 3.85603 16.5323 4.00796 16.1217L4.53107 14.708Z"
      fill="none" stroke="#282828" class="stroke opacity semitransparent"/>
    <path
      d="M4.53107 2.70802C4.69215 2.27271 5.30785 2.27271 5.46893 2.70802L5.99204 4.12173C6.14397 4.53231 6.46769 4.85603 6.87827 5.00796L8.29198 5.53107C8.72728 5.69215 8.72728 6.30785 8.29198 6.46893L6.87827 6.99204C6.46769 7.14397 6.14397 7.46769 5.99204 7.87827L5.46893 9.29198C5.30785 9.72728 4.69215 9.72728 4.53107 9.29198L4.00796 7.87827C3.85603 7.46769 3.53231 7.14397 3.12173 6.99204L1.70802 6.46893C1.27271 6.30785 1.27271 5.69215 1.70802 5.53107L3.12173 5.00796C3.53231 4.85603 3.85603 4.53231 4.00796 4.12173L4.53107 2.70802Z"
      fill="none" stroke="#282828" class="stroke opacity semitransparent"/>
  </g>
</svg>
