<svg width="33" height="32" viewBox="0 0 33 32" fill="currentColor">
  <g clip-path="url(#clip0_4313_23038)">
    <path d="M20.5829 7.96736C21.0124 6.80653 22.6543 6.80653 23.0838 7.96736L24.4902 11.768C24.7603 12.4979 25.3358 13.0734 26.0657 13.3435L29.8663 14.7499C31.0271 15.1794 31.0271 16.8212 29.8663 17.2508L26.0657 18.6572C25.3358 18.9272 24.7603 19.5027 24.4902 20.2327L23.0838 24.0333C22.6543 25.1941 21.0124 25.1941 20.5829 24.0333L19.1765 20.2327C18.9064 19.5027 18.3309 18.9272 17.601 18.6572L13.8004 17.2508C12.6395 16.8212 12.6395 15.1794 13.8004 14.7499L17.601 13.3435C18.3309 13.0734 18.9064 12.4979 19.1765 11.768L20.5829 7.96736Z" fill="white" stroke="#576FED" stroke-width="1.33333" class="stroke"/>
    <path d="M19.5829 7.96736C20.0124 6.80653 21.6543 6.80653 22.0838 7.96736L23.4902 11.768C23.7603 12.4979 24.3358 13.0734 25.0657 13.3435L28.8663 14.7499C30.0271 15.1794 30.0271 16.8212 28.8663 17.2508L25.0657 18.6572C24.3358 18.9272 23.7603 19.5027 23.4902 20.2327L22.0838 24.0333C21.6543 25.1941 20.0124 25.1941 19.5829 24.0333L18.1765 20.2327C17.9064 19.5027 17.3309 18.9272 16.601 18.6572L12.8004 17.2508C11.6395 16.8212 11.6395 15.1794 12.8004 14.7499L16.601 13.3435C17.3309 13.0734 17.9064 12.4979 18.1765 11.768L19.5829 7.96736Z" fill="white" stroke="#576FED" stroke-width="1.33333" class="stroke"/>
    <path d="M6.54078 19.6107C6.75555 19.0303 7.57648 19.0303 7.79125 19.6107L8.48874 21.4956C8.69131 22.0431 9.12294 22.4747 9.67037 22.6773L11.5553 23.3748C12.1357 23.5895 12.1357 24.4105 11.5553 24.6252L9.67037 25.3227C9.12293 25.5253 8.69131 25.9569 8.48874 26.5044L7.79125 28.3893C7.57648 28.9697 6.75555 28.9697 6.54078 28.3893L5.84329 26.5044C5.64072 25.9569 5.2091 25.5253 4.66166 25.3227L2.77671 24.6252C2.1963 24.4105 2.1963 23.5895 2.77671 23.3748L4.66166 22.6773C5.2091 22.4747 5.64072 22.0431 5.84329 21.4956L6.54078 19.6107Z" fill="#576FED" stroke="#576FED" stroke-width="1.33333" class="stroke opacity fill"/>
    <path d="M6.54078 3.6107C6.75555 3.03029 7.57648 3.03028 7.79125 3.6107L8.48874 5.49564C8.69131 6.04308 9.12294 6.4747 9.67037 6.67727L11.5553 7.37477C12.1357 7.58954 12.1357 8.41046 11.5553 8.62523L9.67037 9.32273C9.12293 9.5253 8.69131 9.95692 8.48874 10.5044L7.79125 12.3893C7.57648 12.9697 6.75555 12.9697 6.54078 12.3893L5.84329 10.5044C5.64072 9.95692 5.2091 9.5253 4.66166 9.32273L2.77671 8.62523C2.1963 8.41046 2.1963 7.58954 2.77671 7.37477L4.66166 6.67727C5.2091 6.4747 5.64072 6.04308 5.84329 5.49564L6.54078 3.6107Z" fill="#576FED" stroke="#576FED" stroke-width="1.33333" class="stroke opacity fill"/>
  </g>
</svg>
