<svg width="10" height="19" viewBox="0 0 10 19" fill="none" xmlns="http://www.w3.org/2000/svg">
<path d="M4.99216 18.9983C4.82555 18.9986 4.6641 18.9405 4.53581 18.8341L0.257587 15.2645C0.111972 15.1433 0.0204009 14.9692 0.00301722 14.7804C-0.0143664 14.5917 0.0438616 14.4037 0.164892 14.2579C0.285922 14.1121 0.45984 14.0204 0.648386 14.003C0.836931 13.9856 1.02466 14.0439 1.17027 14.1651L4.99216 17.3634L8.81404 14.2793C8.88697 14.22 8.9709 14.1757 9.06098 14.149C9.15107 14.1223 9.24554 14.1137 9.33896 14.1236C9.43239 14.1336 9.52294 14.1619 9.60539 14.207C9.68784 14.2521 9.76058 14.3131 9.81942 14.3864C9.88472 14.4598 9.93418 14.5459 9.96469 14.6394C9.9952 14.7328 10.0061 14.8315 9.99674 14.9294C9.98737 15.0272 9.95792 15.1221 9.91023 15.208C9.86254 15.2939 9.79764 15.3691 9.7196 15.4287L5.44137 18.8769C5.3094 18.9666 5.15124 19.0093 4.99216 18.9983V18.9983Z" fill="#C2C6D8"/>
<path d="M5.00784 0.00168902C5.17445 0.00136311 5.3359 0.059458 5.46419 0.16589L9.74241 3.73547C9.88803 3.85665 9.9796 4.03079 9.99698 4.21956C10.0144 4.40834 9.95614 4.5963 9.83511 4.7421C9.71408 4.88789 9.54016 4.97957 9.35161 4.99698C9.16307 5.01438 8.97534 4.95608 8.82973 4.83491L5.00784 1.63656L1.18596 4.72068C1.11303 4.77998 1.0291 4.82427 0.939019 4.85099C0.848934 4.87771 0.754464 4.88635 0.661035 4.87639C0.567607 4.86644 0.477064 4.8381 0.39461 4.793C0.312157 4.7479 0.239419 4.68693 0.180577 4.61359C0.115277 4.54019 0.0658218 4.45407 0.035309 4.36063C0.00479624 4.2672 -0.00611523 4.16847 0.00325627 4.07062C0.0126278 3.97276 0.0420804 3.8779 0.0897707 3.79198C0.137461 3.70605 0.202361 3.63092 0.280404 3.57127L4.55863 0.123055C4.6906 0.0334469 4.84876 -0.00928448 5.00784 0.00168902V0.00168902Z" fill="#C2C6D8"/>
</svg>
