<svg xmlns="http://www.w3.org/2000/svg" width="19" height="20" viewBox="0 0 19 20">
    <g fill="none" fill-rule="nonzero" stroke="#28A745">
        <path stroke-width="2" d="M4.652 5.913a.401.401 0 0 0-.54.02c-.15.15-.15.389.046.587l3.847 4.365a.401.401 0 0 0 .563 0l9.32-9.232a.377.377 0 0 0 0-.538.401.401 0 0 0-.564 0l-9.103 9.016-3.569-4.218z"/>
        <path d="M11.797 2.5H2A1.5 1.5 0 0 0 .5 4v9A1.5 1.5 0 0 0 2 14.5h6.181l5.319 4.432V14.5H16a1.5 1.5 0 0 0 1.5-1.5V6.269L11.797 2.5z"/>
    </g>
</svg>
