<svg xmlns="http://www.w3.org/2000/svg" xmlns:xlink="http://www.w3.org/1999/xlink" x="0px" y="0px" width="32px" height="32px" viewBox="0 0 32 32">
  <g stroke-width="2" transform="translate(0, 0)">
    <polyline points="2 6.5 9 10 16 6.5" fill="none" stroke="#444444" stroke-miterlimit="10" stroke-width="2" data-cap="butt" stroke-linecap="butt" stroke-linejoin="miter"></polyline>
    <line x1="9" y1="10" x2="9" y2="18.5" fill="none" stroke="#444444" stroke-miterlimit="10" stroke-width="2" data-cap="butt" stroke-linecap="butt" stroke-linejoin="miter"></line>
    <polygon points="16 6.5 9 2.999 2 6.5 2 15 9 18.5 16 15 16 6.5" fill="none" stroke="#444444" stroke-linecap="square" stroke-miterlimit="10" stroke-width="2" stroke-linejoin="miter"></polygon>
    <polyline points="16 6.5 23 10 30 6.5" fill="none" stroke="#444444" stroke-miterlimit="10" stroke-width="2" data-cap="butt" stroke-linecap="butt" stroke-linejoin="miter"></polyline>
    <line x1="23" y1="10" x2="23" y2="18.5" fill="none" stroke="#444444" stroke-miterlimit="10" stroke-width="2" data-cap="butt" stroke-linecap="butt" stroke-linejoin="miter"></line>
    <polygon points="30 6.5 23 2.999 16 6.5 16 15 23 18.5 30 15 30 6.5" fill="none" stroke="#444444" stroke-linecap="square" stroke-miterlimit="10" stroke-width="2" stroke-linejoin="miter"></polygon>
    <polyline points="9 18.5 16 22 23 18.5" fill="none" stroke="#444444" stroke-miterlimit="10" stroke-width="2" data-cap="butt" data-color="color-2" stroke-linecap="butt" stroke-linejoin="miter"></polyline>
    <line x1="16" y1="22" x2="16" y2="30.5" fill="none" stroke="#444444" stroke-miterlimit="10" stroke-width="2" data-cap="butt" data-color="color-2" stroke-linecap="butt" stroke-linejoin="miter"></line>
    <polygon points="23 18.5 16 14.999 9 18.5 9 27 16 30.5 23 27 23 18.5" fill="none" stroke="#444444" stroke-linecap="square" stroke-miterlimit="10" stroke-width="2" data-color="color-2" stroke-linejoin="miter"></polygon>
  </g>
</svg>
