<svg xmlns="http://www.w3.org/2000/svg" height="64" width="64" viewBox="0 0 64 64"><g stroke-linecap="square" stroke-width="2" fill="none" stroke="#212121" stroke-linejoin="miter" class="nc-icon-wrapper" stroke-miterlimit="10"><polyline data-cap="butt" points="31 2 31 24 24 20 17 24 17 2" stroke-linecap="butt" stroke="#212121"></polyline> <path data-cap="butt" d="M7,57H7a5,5,0,0,0,5,5H52a5,5,0,0,0,5-5V48" stroke-linecap="butt"></path> <path data-cap="butt" d="M52,2H12A5,5,0,0,0,7,7V57H7a5,5,0,0,1,5-5H52a5,5,0,0,0,5-5V7A5,5,0,0,0,52,2Z" stroke-linecap="butt"></path></g></svg>
