<?xml version="1.0" encoding="UTF-8"?>
<svg width="184px" height="147px" viewBox="0 0 184 147" version="1.1" xmlns="http://www.w3.org/2000/svg" xmlns:xlink="http://www.w3.org/1999/xlink">
    <!-- Generator: sketchtool 52.1 (67048) - http://www.bohemiancoding.com/sketch -->
    <title>A26EFCB7-BCC0-46B2-B9F0-408ADEB861EE</title>
    <desc>Created with sketchtool.</desc>
    <defs>
        <polygon id="path-1" points="0.178332394 0.4848 75.6431211 0.4848 75.6431211 23.7048 0.178332394 23.7048"></polygon>
        <polygon id="path-3" points="0 0.182260109 35.754287 0.182260109 35.754287 17.5304647 0 17.5304647"></polygon>
    </defs>
    <g id="Peeranha" stroke="none" stroke-width="1" fill="none" fill-rule="evenodd">
        <g id="Peerania_WALLET_balance" transform="translate(-315.000000, -385.000000)">
            <g id="Group-93-Copy-2" transform="translate(315.000000, 385.000000)">
                <path d="M106.502437,80.9323081 C106.37346,82.7532529 106.355184,84.9613233 105.91969,86.7219647 C105.304046,89.2100148 102.538086,90.8952771 100.377327,91.9010502 C99.8285208,90.882355 99.5397581,89.6886724 98.9225474,88.715743 C98.6128978,88.2268554 97.9225826,87.8644971 97.66985,87.4192218 C97.1528969,86.5087494 97.7586197,86.4721367 98.3215242,85.7716491 C99.0546577,84.8600999 99.5538568,83.7143369 99.9423549,82.6051867 C100.873915,79.9437645 101.095839,77.0648197 101.784065,74.3339411 C102.450883,71.6875947 102.923451,67.4975912 104.776649,65.4155116 C104.875863,65.3045966 104.909804,65.1812979 104.909282,65.0623065 C105.171414,65.0827666 105.421535,65.0854587 105.628839,65.079536 C105.673746,65.0779208 105.718653,65.0736134 105.76356,65.0698444 C105.767737,65.1069956 105.764082,65.141993 105.777136,65.1823747 C107.44914,70.210702 106.872137,75.7182252 106.502437,80.9323081 M104.183981,62.6781719 C104.464911,62.1413647 104.833044,61.6670146 105.110841,61.1307458 C105.516049,61.4834125 105.872172,61.8420019 106.129604,62.3588874 C106.26537,62.6318676 106.570842,63.1196783 106.535334,63.4292712 C106.457008,64.118452 105.474797,64.0414576 105.027293,63.9790006 C104.786571,63.9450799 104.12132,63.9224662 103.94848,63.7307878 C103.75162,63.5121883 104.063881,62.9070015 104.183981,62.6781719 M106.698253,64.7839421 C107.266379,64.4625039 107.655399,63.8917761 107.523289,63.1288315 C107.306064,61.8726919 106.451786,60.8959936 105.534325,60.1265879 C105.316578,59.9446012 105.059146,59.9774449 104.875863,60.1077432 C104.679003,60.0442093 104.463867,60.0953594 104.352121,60.3516485 C103.868587,61.4591835 102.826326,62.392808 102.866534,63.6952519 C102.885854,64.3241293 103.33127,64.6757192 103.889474,64.867936 C102.372034,66.7362619 101.995024,69.5565187 101.387735,71.8222003 C100.498993,75.1388826 100.143914,78.6612423 99.0849438,81.9143907 C98.476088,83.783255 97.6265095,84.5908887 96.5560511,86.0645509 C96.3064515,86.4080644 95.9346631,86.6805062 96.0098562,87.1623943 C96.0949707,87.7083546 96.8098281,88.0206397 97.1534191,88.3313094 C98.4108161,89.4711497 98.7267319,91.0718797 99.5381916,92.5213129 C99.6374048,92.6989923 99.787269,92.7652183 99.9392218,92.7684488 C100.08282,92.9542045 100.326676,93.0710422 100.592463,92.9515124 C102.762621,91.9775062 104.933824,90.514074 106.31341,88.4782987 C107.365592,86.9254884 107.132702,84.5661212 107.343661,82.7435612 C108.011523,76.9802874 108.618812,70.4766826 106.765091,64.9018566 C106.749426,64.8544754 106.721751,64.8216317 106.698253,64.7839421" id="Fill-1" fill="#FFFFFF"></path>
                <path d="M77.972995,95.3205469 C77.0897261,97.5167541 74.5722521,98.3581207 72.3535772,99.0624648 C71.731298,99.2600657 71.9985893,100.171146 72.6271701,99.9716215 C75.2423182,99.1417936 77.940437,98.1239804 78.9660162,95.5710337 C79.1949729,95.0008276 78.2003764,94.7546677 77.972995,95.3205469" id="Fill-3" fill="#FFFFFF"></path>
                <path d="M103.773723,108.996344 C102.434168,108.044543 101.75425,106.349637 102.050859,104.662821 C102.167474,103.997369 101.2092,103.712638 101.091571,104.381864 C100.709275,106.556175 101.540793,108.679796 103.27177,109.909856 C103.805159,110.288959 104.304069,109.373289 103.773723,108.996344" id="Fill-5" fill="#FFFFFF"></path>
                <path d="M113.090067,60.0273966 C112.567342,57.1641563 111.752062,54.4015032 110.474288,51.8884357 C110.428577,51.7980685 110.101605,51.0127349 110.034382,50.969165 C112.307592,48.7395706 114.010752,46.0242527 115.162685,43.1325038 C116.532419,39.6947866 117.190128,36.0693423 117.688654,32.4170031 C118.387234,27.2967356 118.265695,21.1910357 113.495018,17.927598 C108.892667,14.7798087 103.36264,20.3868756 100.850654,23.6739808 C98.6452036,26.5603508 96.8022197,29.7576269 95.4712056,33.1437057 C93.9487407,37.0192733 93.5868124,41.4311269 92.8634936,45.5094827 C92.805413,45.8359878 93.0232153,46.0694363 93.2722091,46.1442044 C93.1737947,46.1447423 93.0748425,46.1694857 92.986646,46.2248893 C92.8532758,45.9978957 92.5714772,45.8505111 92.2719318,46.0091916 C89.8061947,47.3184395 87.8475873,49.3398667 86.6192899,51.8448658 C85.004864,52.0519572 83.3947403,52.2854057 81.7894567,52.5527418 C81.4597955,52.6070697 81.3635322,52.8819365 81.4280662,53.1336735 C81.3484743,53.2165101 81.2887803,53.324628 81.2828647,53.4703988 C81.2618911,54.0018437 81.2484466,54.5763206 81.2656556,55.1604797 L81.3414831,56.248113 C81.3877325,56.6456209 81.4592577,57.036674 81.5587476,57.4148175 C81.4845335,57.4503189 81.4156972,57.5030331 81.3570788,57.578877 C75.0133852,65.8307968 69.7678453,74.3640382 66.202341,84.1478965 C66.1888964,84.1855495 66.1926609,84.2172855 66.1872831,84.252249 C65.9576496,84.4695605 65.8974178,84.8880465 66.2475148,85.1048201 C66.3781962,85.1849672 66.5083398,85.2629626 66.6384834,85.3425718 C65.4494442,102.306854 66.5287756,119.883803 69.7920456,136.603879 C70.0238303,137.790485 71.2913859,146.362456 73.9319026,145.416828 C74.2282213,145.310324 74.4756017,145.003721 74.6847995,144.62235 C75.0478033,148.155813 79.1752913,143.983863 80.8784515,142.212021 C83.9900666,138.973327 86.9317421,135.559277 89.9707564,132.253346 C93.5362607,128.374551 96.8070597,124.185387 100.06065,120.045711 C103.962269,115.08251 106.793698,109.484588 109.740214,103.924856 C109.95963,103.987252 110.178508,104.052338 110.397385,104.113659 C110.592063,104.168525 110.74802,104.110431 110.860955,104.006079 C110.941085,103.945834 111.010996,103.866225 111.04649,103.745198 C112.389873,99.1805804 112.562502,94.4083339 113.026609,89.7000975 C113.467053,85.228537 113.783808,80.7542871 113.885449,76.2612106 C113.993543,71.4636828 114.061304,66.1551503 113.274527,61.1058855 C113.277216,61.1048097 113.284207,61.1037339 113.281518,61.1042718 C113.274527,61.1058855 113.090067,60.0273966 113.090067,60.0273966" id="Fill-7" fill="#FFFFFF"></path>
                <g id="Group-11" transform="translate(13.000000, 0.000000)">
                    <mask id="mask-2" fill="white">
                        <use xlink:href="#path-1"></use>
                    </mask>
                    <g id="Clip-10"></g>
                    <path d="M75.6431211,23.7048 L4.9952338,23.7048 C4.9952338,23.7048 0.178332394,23.7048 0.178332394,19.9714667 C0.178332394,16.2381333 20.5163606,16.5938667 20.5163606,16.5938667 C20.5163606,16.5938667 14.6290366,8.23813333 28.1875437,2.01573333 C41.7465859,-4.20666667 50.6664169,10.5490667 50.6664169,10.5490667 C50.6664169,10.5490667 56.5537408,6.1048 65.2958817,8.41573333 C74.0374873,10.7272 75.6431211,23.7048 75.6431211,23.7048" id="Fill-9" fill="#F0F0F0" mask="url(#mask-2)"></path>
                </g>
                <g id="Group-14" transform="translate(0.000000, 47.000000)">
                    <mask id="mask-4" fill="white">
                        <use xlink:href="#path-3"></use>
                    </mask>
                    <g id="Clip-13"></g>
                    <path d="M35.2833313,17.5304647 L1.43258507,17.5304647 C1.43258507,17.5304647 -4.2984,5.70711176 7.16410746,1.1187 C18.6266149,-3.46971176 22.2088836,10.2949941 22.2088836,10.2949941 C22.2088836,10.2949941 29.0150328,6.23652353 33.1340776,9.58928824 C37.2536597,12.9420529 35.2833313,17.5304647 35.2833313,17.5304647" id="Fill-12" fill="#F0F0F0" mask="url(#mask-4)"></path>
                </g>
                <path d="M149.461016,60 L182.59736,60 C182.59736,60 188.207921,47.7324278 176.986798,42.9716232 C165.766201,38.2108186 162.259534,52.492683 162.259534,52.492683 C162.259534,52.492683 155.597552,48.2817302 151.564911,51.7604628 C147.532271,55.2391954 149.461016,60 149.461016,60" id="Fill-15" fill="#F0F0F0"></path>
                <path d="M120.078882,20 C120.078882,20 118.411514,21.9954576 116.547418,23.6679724 C114.731512,25.297004 112,26.6725599 112,26.6725599 C112,26.6725599 113.228557,31.3570863 116.086497,31.9313835 C118.945003,32.5056808 120.466668,29.3165545 120.740499,28.2634111 C121.590908,24.9936817 120.078882,20 120.078882,20" id="Fill-19" fill="#C8D5FF"></path>
                <path d="M120,18.4273959 C120,18.4273959 117.132405,22.5739333 111.082173,25.2034706 C102.983347,28.7237768 100.757849,26.4358682 96.7043407,27.403728 C92.7147147,28.3568032 91.6079716,30 91.6079716,30 C91.6079716,30 91.5626536,28.2839365 93.1684412,26.6856214 C93.1684412,26.6856214 92.1998362,25.863495 90,26.8318828 C90,26.8318828 90.9254709,23.8834217 94.7933388,22.2117119 C94.7933388,22.2117119 92.8512149,22.431368 91.7444717,21.1113192 C91.7444717,21.1113192 93.5189735,20.7596582 94.6109746,20.0996338 C95.7029757,19.4396094 96.0671581,18.8234106 96.0671581,18.8234106 C96.0671581,18.8234106 95.3906634,18.8059859 94.2440622,18.4606611 C93.1094731,18.1195605 92.8512149,16.8433373 92.8512149,16.8433373 C92.8512149,16.8433373 95.6975157,17.7441386 98.2511603,16.5223014 C99.000819,16.1632482 105.485667,11.8709774 111.491673,12.0029823 C117.497679,12.1349872 120,18.4273959 120,18.4273959" id="Fill-21" fill="#C8D5FF"></path>
                <path d="M67.7334863,123.911631 C66.6410905,111.648226 65.8759369,99.6843585 66.7512303,87.3803019 C66.7771767,87.008019 66.4795875,86.8459475 66.1920592,86.8769711 C66.2137694,86.8427382 66.243952,86.8165286 66.2550718,86.7732026 C68.9572026,75.7143681 78.069679,62.4549993 76.896267,64.1468539 C69.4411821,69.2042314 63.9611995,77.0355444 57.4830755,83.1980031 C50.0528779,90.2649594 41.0918436,95.351221 32.2531279,100.371156 C31.9963117,100.517181 31.9576568,100.770184 32.036555,100.986279 C32.0455568,101.025326 32.0455568,101.063303 32.0630309,101.102885 C33.7018894,104.776504 37.0923936,107.632277 40.1042924,110.137698 C42.4881827,112.119998 44.9838014,113.931133 47.5567297,115.652941 C53.5927062,119.69189 61.1632261,124.477543 68.0083062,126.996872 C68.0707893,127.019872 68.0083062,126.996872 67.7334863,123.911631" id="Fill-23" fill="#7699FF"></path>
                <path d="M108.388445,106.610306 C105.632877,111.739715 103.0599,117.073832 99.4452357,121.684824 C96.5663237,125.357878 93.6717918,129.037314 90.5451156,132.507787 C88.6777278,134.580393 88.8700144,134.347504 89.2502785,134.713321 C89.4775752,134.931854 89.7318028,135.049893 89.7318028,135.049893 C93.2312024,136.109592 96.7446062,137.113461 100.29679,137.989719 C100.321028,137.995568 100.342034,137.989719 100.365733,137.992378 C100.372735,137.993973 100.380276,137.992378 100.387817,137.993441 C100.440601,137.998227 100.493924,138.004607 100.540784,137.995037 C100.679748,137.976958 100.813325,137.903051 100.904351,137.745133 C106.811911,127.566071 111.905081,115.90726 114.10318,104.341498 C116.337366,92.5912325 117.023565,79.7243754 113.794552,68.1075693 C113.726147,67.8597923 113.994918,68.1192669 113.794552,68.1075693 C114.031544,73.0072795 113.944826,72.4718472 113.711605,80.5283214 C113.59257,84.6331247 113.521472,89.1531938 113.117509,93.239919 C112.881595,95.6278299 111.501656,103.342414 111.501656,103.342414 C111.501656,103.342414 109.078414,104.295771 108.388445,106.610306" id="Fill-25" fill="#7699FF"></path>
                <path d="M106.765025,64.9020777 C106.749661,64.8545539 106.722008,64.8218153 106.698451,64.7843243 C107.266377,64.4627463 107.655578,63.8919323 107.523454,63.1289108 C107.306321,61.8726976 106.452128,60.8963469 105.534433,60.1269889 C105.3173,59.9442862 105.059198,59.9775529 104.875864,60.1079794 C104.679215,60.0446143 104.46413,60.0958344 104.351979,60.351935 C103.869062,61.4587122 102.826926,62.3933476 102.86687,63.6955005 C102.88633,64.3243992 103.331351,64.6760755 103.890059,64.868283 C102.372175,66.7370256 101.995777,69.5567729 101.387906,71.8226035 C100.499402,75.1392388 100.144,78.6612826 99.0849635,81.9145528 C98.4760689,83.7838234 97.6264842,84.5912005 96.5556695,86.0649673 C96.3062736,86.4081949 95.9349964,86.6806649 96.009764,87.1622397 C96.0952858,87.7082357 96.8106985,88.0208369 97.1532978,88.3313259 C98.4110313,89.4713698 98.7270011,91.0718668 99.5381778,92.5213436 C99.6375264,92.6987659 99.7870615,92.7652993 99.9391571,92.7684675 C100.082547,92.9538105 100.326822,93.0710359 100.592093,92.9516983 C102.762912,91.9774598 104.933732,90.5142539 106.313347,88.4781218 C107.366238,86.9256767 107.132717,84.5663825 107.343705,82.7435796 C108.011492,76.9805232 108.61885,70.477151 106.765025,64.9020777" id="Fill-27" fill="#F76F60"></path>
                <path d="M93.0611792,44.7284171 C94.2129191,38.4657333 95.0952653,32.7115602 98.4626866,27.1211001 C99.95744,24.6406625 101.747218,22.1370629 103.913274,20.1572399 C106.198212,18.0689768 110.272383,15.9522875 113.15446,18.1142479 C117.880847,21.6601367 117.139742,27.9886216 116.33156,32.9910832 C115.869119,35.8531671 115.263802,38.6741911 114.184591,41.3851957 C113.031215,44.2862339 111.421397,47.9821491 109.019212,50.1119985 C108.500602,50.5710269 109.273336,51.3143159 109.79031,50.8563404 C112.286292,48.6433184 113.833397,45.0637395 115.066392,42.0768967 C116.482617,38.6462914 117.162645,35.0288111 117.677984,31.3839575 C118.400548,26.274635 118.274576,20.1819811 113.341508,16.9256171 C108.583492,13.7845366 102.865692,19.3797343 100.268824,22.6592603 C97.9871577,25.5397685 96.0823151,28.7303314 94.706444,32.1088222 C93.1315269,35.9763467 92.7579749,40.3792288 92.0097803,44.4483677 C91.8881714,45.1111162 92.9384796,45.3953769 93.0611792,44.7284171" id="Fill-29" fill="#4B4B78"></path>
                <path d="M83.7453475,59.062053 C81.8496453,58.0723715 81.9646746,55.336551 82.0391649,53.4890102 C82.0655152,52.8364897 81.0520417,52.8375037 81.0256914,53.4890102 C80.9354922,55.7264409 80.9608291,58.7512565 83.2340501,59.9376575 C83.81173,60.2393278 84.3250543,59.3642303 83.7453475,59.062053" id="Fill-31" fill="#4B4B78"></path>
                <path d="M81.6655276,52.9905004 C83.2709508,52.6911104 84.8806156,52.4250521 86.4955823,52.1958968 C87.163625,52.1012586 87.1726383,50.9096508 86.4955823,51.0054794 C84.7873017,51.2477293 83.0827325,51.5256918 81.3834651,51.842938 C80.7117111,51.9679318 80.9969547,53.1154942 81.6655276,52.9905004" id="Fill-33" fill="#4B4B78"></path>
                <path d="M88.0345698,51.7210955 C89.2676921,49.2494732 91.2069855,47.2939278 93.7188804,46.0078141 C94.3596757,45.6793521 93.7910192,44.74019 93.1496603,45.068652 C90.4850341,46.4336183 88.370466,48.5479566 87.0612599,51.1723899 C86.7484706,51.7999481 87.7195262,52.3524604 88.0345698,51.7210955" id="Fill-35" fill="#4B4B78"></path>
                <path d="M93.0578346,45.8270052 C94.7033146,49.3025447 98.5247253,53.1353573 102.210817,54.3640944 C105.369706,55.4163668 109.689632,55.5255034 110.967585,51.8224602 C111.196004,51.1605819 110.150258,50.8760666 109.923463,51.5336011 C108.392734,55.9696514 101.858446,53.4540797 99.4167487,51.4950504 C97.2949455,49.792845 95.1682709,47.7632299 93.9926188,45.2791503 C93.6938343,44.6482212 92.7601326,45.198248 93.0578346,45.8270052" id="Fill-37" fill="#4B4B78"></path>
                <path d="M89.0081575,47.6757387 C89.4919205,50.6586103 91.5648046,52.6881042 93.7393059,54.6390023 C96.4510815,57.0722417 99.3401467,59.2885352 102.346504,61.3470988 C102.618385,61.53336 103.079986,61.354097 103.140524,61.0257174 C103.274032,60.3016672 103.42808,59.4984828 103.790226,58.8492601 C103.924274,58.6161644 104.058323,58.3825303 104.192371,58.1494346 C104.66154,57.3387137 105.046929,57.3414053 105.348538,58.1580479 C106.320928,58.9483123 107.027925,60.6709597 107.666817,61.7282345 C107.80573,61.9591769 108.166255,62.0948354 108.406244,61.921494 C110.152656,60.6591165 111.694211,59.0635144 112.906051,57.284881 C113.297926,56.7099474 112.36175,56.1705435 111.972578,56.7411704 C110.880733,58.3437708 109.437551,59.8521639 107.860322,60.9918028 C108.106798,61.056402 108.353274,61.1210013 108.59975,61.1850623 C107.556011,59.4564933 106.543081,57.7176961 105.135574,56.2545225 C104.939366,56.0504965 104.566409,56.0440366 104.371282,56.2545225 C103.147551,57.5718094 102.423258,58.9736137 102.098407,60.7393272 C102.36272,60.6322001 102.627033,60.525073 102.892427,60.4174075 C100.23146,58.5957079 97.6672455,56.6469631 95.23762,54.5264919 C92.9777169,52.5535223 90.5540371,50.4971121 90.0508154,47.3893486 C89.9400094,46.7072879 88.8978919,46.996908 89.0081575,47.6757387" id="Fill-39" fill="#4B4B78"></path>
                <path d="M67.0378876,84.6333645 C70.5254824,74.7395854 75.6962048,66.1075014 81.8964889,57.769436 C82.3047723,57.2201705 81.4007161,56.6832905 80.9976404,57.2255555 C74.7338223,65.6487032 69.5542469,74.3594075 66.0338437,84.3468849 C65.8041842,84.999003 66.8103113,85.2806362 67.0378876,84.6333645" id="Fill-41" fill="#4B4B78"></path>
                <path d="M103.586656,60.3466964 C103.071116,61.4353522 101.958032,62.3541652 102.001222,63.6355172 C102.043318,64.8883025 103.946932,65.0249038 104.949582,64.9968564 C106.056106,64.966212 107.192698,64.2520413 106.972377,63.077685 C106.740576,61.8425593 105.828678,60.8821945 104.848989,60.1249139 C104.307208,59.7067995 103.529799,60.4375908 104.075953,60.8593411 C104.643976,61.2987508 105.143115,61.6893372 105.484803,62.3209238 C105.629132,62.5889326 105.955513,63.0693747 105.918337,63.3737412 C105.833598,64.0520735 104.785572,63.9757222 104.307208,63.9144334 C104.050805,63.881192 103.34064,63.8588579 103.156402,63.6703168 C102.946468,63.4552865 103.279409,62.8600577 103.407338,62.6351589 C103.7534,62.0264258 104.230123,61.5054708 104.530809,60.8707678 C104.817281,60.2661899 103.875314,59.7374439 103.586656,60.3466964" id="Fill-43" fill="#4B4B78"></path>
                <path d="M103.128208,64.1705137 C101.454526,66.0812263 101.073063,69.1011055 100.438325,71.5073686 C99.5415245,74.9090653 99.1833213,78.5214386 98.1138806,81.8581451 C97.499301,83.7753568 96.6417843,84.6034405 95.560972,86.1150049 C95.3092477,86.4670353 94.9339872,86.7464932 95.0099697,87.2409605 C95.09629,87.8009596 95.8178653,88.1210365 96.16418,88.4400302 C97.4331394,89.6087711 97.752576,91.2503158 98.5713262,92.7375088 C98.903685,93.3408348 99.7973839,92.796 99.4639913,92.1905078 C98.8783575,91.127376 98.5909679,89.8606082 97.9500271,88.8337626 C97.6373101,88.3327963 96.9410623,87.9612689 96.6857198,87.5041709 C96.1636631,86.570478 96.7751413,86.5325671 97.3437178,85.8144251 C98.0833842,84.879649 98.5878666,83.7049507 98.9796675,82.5670802 C99.9198863,79.8374907 100.143699,76.8842265 100.837879,74.0831478 C101.511384,71.3692643 101.988471,67.0717857 103.859088,64.9363152 C104.308263,64.423434 103.579451,63.6554662 103.128208,64.1705137" id="Fill-45" fill="#4B4B78"></path>
                <path d="M99.8623913,92.9499965 C102.246542,91.9573556 104.631818,90.4659732 106.147368,88.3919187 C107.304002,86.8096115 107.04691,84.4062907 107.279249,82.5485189 C108.012271,76.6766042 108.680036,70.05039 106.643551,64.3700092 C106.410086,63.719009 105.32321,63.9982397 105.558925,64.6562341 C107.3957,69.7797676 106.761689,75.3907441 106.354955,80.7031214 C106.213188,82.5587412 106.193499,84.8087272 105.714756,86.602475 C105.007049,89.2570496 101.707042,91.0163644 99.2942006,92.0208416 C98.6320615,92.2963062 99.2041902,93.223847 99.8623913,92.9499965" id="Fill-47" fill="#4B4B78"></path>
                <path d="M66.2542466,84.9915073 C73.0714041,89.1082098 79.8400946,92.7975931 87.2275476,95.8594335 C95.0646669,99.1077979 103.143044,101.729673 111.333973,103.977973 C112.00228,104.161336 112.287158,103.144938 111.619928,102.961575 C103.770423,100.807064 96.0156978,98.3169147 88.4871519,95.2440093 C80.8363614,92.121575 73.8387988,88.3331337 66.7981544,84.0815437 C66.2063181,83.7243026 65.6651029,84.63532 66.2542466,84.9915073" id="Fill-49" fill="#4B4B78"></path>
                <path d="M110.070046,51.8066571 C114.252624,59.1983715 113.972324,68.6864823 113.715135,76.7567559 C113.584763,80.8685902 113.263573,84.9633805 112.81853,89.0571056 C112.298819,93.8421728 112.111557,98.706068 110.593905,103.342534 C110.378199,104.001919 111.521326,104.283143 111.737033,103.625888 C113.245795,99.0171186 113.439575,94.1990289 113.961064,89.4448537 C114.456479,84.930358 114.812039,80.4126666 114.925819,75.876866 C115.125525,67.9163123 115.218564,58.559759 111.094061,51.2692425 C110.747982,50.6577936 109.725152,51.1962734 110.070046,51.8066571" id="Fill-51" fill="#4B4B78"></path>
                <path d="M66.5114222,84.5153951 C65.2355608,101.864726 66.3553737,119.855651 69.7758032,136.964116 C70.017019,138.170592 71.3379367,146.887906 74.0880169,145.926051 C74.9605698,145.620811 75.4303637,143.70783 75.713339,142.995424 C76.8023818,140.254701 77.6974629,137.436192 78.5991375,134.632704 C81.1744874,126.624578 83.5289517,118.549932 85.9746274,110.503718 C86.1762817,109.840129 85.1158112,109.556883 84.9152559,110.218863 C83.0179478,116.459386 81.1711906,122.71493 79.240365,128.946334 C77.6804294,133.981454 76.3045651,139.255294 74.0808738,144.063496 C74.0094432,144.219067 73.8786701,144.646617 73.7209732,144.758199 C73.3110711,145.048418 73.9775741,144.994237 73.5489902,144.731376 C72.9445769,144.360153 72.5940173,143.149385 72.3714833,142.5609 C71.480798,140.202665 71.0077072,137.675985 70.5560457,135.210461 C69.2543594,128.10679 68.5400528,120.893682 67.9098146,113.707934 C67.0498994,103.905919 66.8878068,94.3426235 67.6103554,84.5153951 C67.6609063,83.8265932 66.5619731,83.8298119 66.5114222,84.5153951" id="Fill-53" fill="#4B4B78"></path>
                <path d="M109.02789,103.263942 C106.343393,108.361294 103.836253,113.662076 100.315342,118.244251 C97.5101583,121.894351 94.6136719,125.483686 91.6442485,128.999575 C89.4718837,131.571236 87.1358044,133.994421 84.9130659,136.522226 C83.3220973,138.332481 81.7248319,140.140622 80.0478083,141.870034 C79.3373295,142.602379 78.6195046,143.343706 77.8429104,144.005775 C76.4502881,145.194647 75.8825348,145.083686 76.1165625,143.003425 C76.1931725,142.329202 75.1431962,142.334486 75.0671109,143.003425 C74.3697503,149.196124 79.2937773,144.187012 81.1901363,142.199748 C84.2865433,138.956506 87.2134638,135.537312 90.2364092,132.225908 C93.7835557,128.340676 97.0379051,124.144752 100.275463,119.997969 C104.169454,115.01052 106.991954,109.383724 109.934091,103.797084 C110.249976,103.196836 109.344824,102.662108 109.02789,103.263942" id="Fill-55" fill="#4B4B78"></path>
                <path d="M71.6274153,99.9659648 C74.2415334,98.9701061 76.9395957,97.7484816 77.9659821,94.6850843 C78.1951552,94.0009973 77.1996685,93.7056346 76.9725554,94.3846292 C76.0898528,97.0202599 73.572554,98.0296985 71.3534376,98.8750468 C70.7313229,99.1121291 70.9986056,100.20531 71.6274153,99.9659648" id="Fill-57" fill="#4B4B78"></path>
                <path d="M101.091602,104.38182 C100.709268,106.555975 101.540558,108.679888 103.271749,109.910022 C103.805227,110.288688 104.303901,109.373227 103.773904,108.996676 C102.434493,108.044723 101.753849,106.349718 102.050668,104.663175 C102.167506,103.997866 101.209434,103.71228 101.091602,104.38182" id="Fill-59" fill="#4B4B78"></path>
                <path d="M77.2184014,62.0917646 C69.675629,67.1615913 64.2472035,74.5998745 57.700737,80.7890623 C50.2092215,87.8719162 41.174126,92.9696196 32.2612995,98.0008476 C31.6622346,98.339122 32.200432,99.2654898 32.8005648,98.9266793 C41.2542149,94.1549201 49.7970306,89.3225825 57.0760436,82.8154919 C64.1906073,76.4558267 69.7733374,68.3838821 77.7576666,63.0175964 C78.3257639,62.6358985 77.7913039,61.7063141 77.2184014,62.0917646" id="Fill-61" fill="#4B4B78"></path>
                <path d="M90.3787924,132.025126 C94.0046067,133.092615 97.6445145,134.103075 101.325077,134.982366 C102.002105,135.144122 102.291563,134.144032 101.613993,133.982276 C97.9328885,133.102984 94.2929807,132.092525 90.6671663,131.025555 C89.998811,130.828543 89.7126053,131.829152 90.3787924,132.025126" id="Fill-63" fill="#4B4B78"></path>
                <path d="M32.0528727,98.8031058 C33.7176609,102.410596 37.1618093,105.215489 40.2218999,107.675285 C42.64297,109.621901 45.178074,111.400434 47.7917109,113.091248 C53.92265,117.057492 60.3940773,121.491743 67.3474595,123.965721 C67.9993895,124.197886 68.2801712,123.183082 67.6336201,122.953018 C60.9502618,120.574638 54.7101298,116.284833 48.805107,112.487198 C46.3055041,110.8799 43.8677593,109.213773 41.5386694,107.375886 C38.3650827,104.871443 34.695018,101.98461 32.9818191,98.2731178 C32.69781,97.6575122 31.7704772,98.1911771 32.0528727,98.8031058" id="Fill-65" fill="#4B4B78"></path>
                <path d="M113.776466,64.6653751 C116.998644,76.4513557 116.271245,89.6808355 113.91456,101.582855 C111.676163,112.885341 106.76261,124.232953 101.075092,134.19616 C100.732,134.797305 101.656369,135.339356 101.999461,134.738211 C107.870033,124.454286 112.930779,112.674752 115.11565,100.989231 C117.334778,89.117296 118.017216,76.1172074 114.808955,64.3795762 C114.626971,63.7139657 113.593412,63.9965412 113.776466,64.6653751" id="Fill-67" fill="#4B4B78"></path>
                <path d="M113.82777,59.9466137 C120.923179,56.774095 126.911811,51.6007172 132.007757,45.9083634 C134.295026,43.3531196 136.425654,40.6567693 138.363328,37.8393951 C139.215362,36.6006171 140.031082,35.3375287 140.793144,34.0443164 C141.327562,33.1374295 143.903178,27.1063143 145.957383,29.7519296 C146.373644,30.2878174 147.31511,29.7614424 146.893971,29.2186843 C144.957923,26.7252738 142.600194,28.49624 141.418619,30.6197084 C139.565499,33.9507738 137.650047,37.1502456 135.3308,40.2054398 C129.528619,47.8473892 122.242965,55.0263822 113.280885,59.0339134 C112.647279,59.3171835 113.197416,60.2282983 113.82777,59.9466137" id="Fill-69" fill="#4B4B78"></path>
                <path d="M81.3464511,54.0275251 C75.5150429,55.867212 70.1949749,59.2254884 65.2312471,62.7093425 C62.1424331,64.8770151 59.1548218,67.1861613 56.2444442,69.5853843 C52.9601491,72.292988 48.3916446,78.2793885 43.7666796,74.8861411 C43.2148583,74.4807954 42.682745,75.400109 43.2292398,75.8012158 C45.8104422,77.6949488 48.6169538,77.1878692 51.0996167,75.376795 C54.9341351,72.5785846 58.3446673,69.1318209 62.1482922,66.261549 C68.0521402,61.8069846 74.4971565,57.2999636 81.6292861,55.0491024 C82.2807121,54.8440451 82.0021383,53.8203484 81.3464511,54.0275251" id="Fill-71" fill="#4B4B78"></path>
                <path d="M2.68150517,97.9941851 C6.43549741,97.4888916 10.260033,97.0173557 13.8148759,95.6574034 C17.3908818,94.2883418 20.5962637,92.1305293 23.7549785,90.0182629 C24.3301783,89.6335325 23.787537,88.7049283 23.2069108,89.0928738 C19.9722263,91.2560446 16.6789365,93.5001267 12.9813789,94.8257855 C9.58661521,96.0432054 5.95254669,96.4815195 2.39336266,96.9610929 C1.70420826,97.0537926 1.99723454,98.086349 2.68150517,97.9941851" id="Fill-73" fill="#4B4B78"></path>
                <path d="M22.6693894,97.9829153 C26.9758821,96.9287867 30.7787605,95.3808321 33.850915,91.9631538 C34.322852,91.4386033 33.565283,90.6470293 33.0917352,91.1732556 C30.1462897,94.45016 26.5023343,95.8975618 22.3837575,96.905883 C21.7115559,97.0701193 21.9961141,98.1477102 22.6693894,97.9829153" id="Fill-75" fill="#4B4B78"></path>
                <path d="M16.5187447,105.99897 C19.3668096,105.852444 21.6658629,105.396135 23.8284723,103.76084 C24.3445863,103.370105 23.5798531,102.731996 23.065357,103.121374 C21.1281768,104.586175 19.0599456,104.963795 16.5187447,105.094492 C15.8295141,105.129767 15.8246604,106.034696 16.5187447,105.99897" id="Fill-77" fill="#4B4B78"></path>
                <path d="M66.2408411,88.0119394 C78.987869,96.684094 93.4178708,102.205784 108.334458,105.981235 C109.002508,106.150381 109.287286,105.124871 108.619236,104.955725 C93.7920434,101.202614 79.4525069,95.7139021 66.7809558,87.0933421 C66.2108645,86.7055845 65.6744969,87.6268413 66.2408411,88.0119394" id="Fill-79" fill="#4B4B78"></path>
                <path d="M103.072753,41.8653984 C103.845369,43.3769622 105.072164,45.2732244 106.598003,45.8624388 C108.041681,46.4197881 108.839302,45.1648831 109.829312,44.2210972 C110.333502,43.7413829 109.608346,42.9256367 109.107728,43.4018749 C108.791843,43.7031448 108.519335,44.095375 108.188652,44.3711528 C107.468088,44.974272 106.792943,44.7842402 106.137189,44.2147242 C105.22781,43.4238907 104.525618,42.3984144 103.954066,41.2808189 C103.624403,40.6354061 102.74258,41.2182475 103.072753,41.8653984" id="Fill-81" fill="#4B4B78"></path>
                <path d="M106.836436,32.2517187 C105.975571,31.7432741 104.329635,32.1269067 103.373056,32.3433569 C102.714682,32.4928029 103.000162,33.1280302 103.666835,32.976942 C104.078457,32.8836615 104.494505,32.8041759 104.923832,32.7457114 C105.185522,32.7102385 105.824532,32.5808282 106.054133,32.7164791 C106.559809,33.014714 107.342112,32.5506105 106.836436,32.2517187" id="Fill-83" fill="#4B4B78"></path>
                <path d="M113.592863,33.1580887 C112.446489,32.8199538 111.254282,33.0247855 110.262591,33.7673818 C109.649014,34.2264649 110.222487,35.3527143 110.840075,34.8910301 C111.584846,34.3337577 112.421281,34.1562369 113.288653,34.4124391 C114.002487,34.6224729 114.30727,33.3687727 113.592863,33.1580887" id="Fill-85" fill="#4B4B78"></path>
                <path d="M55.4964939,44.8343561 C55.3419727,44.753833 55.1366574,44.789449 54.9960378,44.9030072 C53.3839915,45.1012179 51.6115426,45.1141222 50.013398,45.0341153 C50.3208363,43.7854912 50.7854692,42.5848713 51.551659,41.5148433 C53.0091841,39.4795705 58.3682353,36.4485988 59.8867134,40.4164257 C60.9271917,43.1361448 58.5965417,44.3651543 55.4964939,44.8343561 M48.6013203,48.4821554 C47.6041507,47.6056925 46.6305069,46.6786446 46.0952968,45.4883481 C47.0331174,45.6948176 47.9928597,45.8512182 48.9611568,45.9534206 C48.8039623,46.795816 48.6932845,47.6464702 48.6013203,48.4821554 M53.4166067,38.7187306 C52.9214973,37.3214485 52.6883788,35.8911313 52.7268755,34.4030026 C52.740777,33.8656658 51.876207,33.8656658 51.8623054,34.4030026 C51.8195314,36.0490804 52.0879384,37.6383791 52.6718039,39.1812222 C52.4167638,39.3654962 52.1847146,39.5637069 51.9622897,39.7681116 C51.9542696,39.7397221 51.9532002,39.7123649 51.9382293,39.6834591 C51.24529,38.3496664 50.8405408,36.93948 50.7266549,35.4513513 C50.6854849,34.9186601 49.8209148,34.9145307 49.8620848,35.4513513 C49.9871989,37.088138 50.4293754,38.6376913 51.1912878,40.1046569 C51.2511714,40.2192474 51.3393929,40.2791235 51.4345651,40.3028675 C50.2497245,41.6242721 49.5808456,43.2600264 49.1686109,44.9830141 C47.5581686,44.8663589 46.2134601,44.6681482 45.5386997,44.4983271 C45.5173127,44.4926491 45.4996684,44.4978109 45.4793508,44.49523 C45.4777468,44.49523 45.4761427,44.49523 45.4750734,44.4947138 C45.3526327,44.4807772 45.2494404,44.5117476 45.1708431,44.5757531 C45.0532145,44.6531792 44.983172,44.7853196 45.0034897,44.9489467 L45.0034897,44.9566893 C45.0066978,44.9752715 45.001351,44.9917891 45.0072324,45.0119199 C45.5451159,46.9811224 47.1218735,48.3102695 48.6360742,49.6389006 C48.929611,49.895955 49.3375683,49.7018737 49.3739262,49.3436492 C49.4851387,48.2524581 49.5979552,47.1297804 49.8011318,46.0277496 C50.8490956,46.1015625 51.902406,46.1087889 52.9471617,46.0323952 C52.9476964,46.0334275 52.9471617,46.0339437 52.9476964,46.0344599 C53.5433248,47.381157 54.2881276,48.6411369 55.1869169,49.8200775 C55.5130688,50.2485016 56.2637531,49.8324657 55.9333237,49.3988798 C55.1099236,48.3180122 54.4212617,47.1659125 53.8529018,45.9446457 C54.229848,45.8997385 54.6041207,45.8419271 54.9762548,45.7743083 C55.3334179,46.9702827 55.975563,48.0459886 56.8695403,48.9585837 C57.2523678,49.3498433 57.8635018,48.7588245 57.4812089,48.368081 C56.6973748,47.5680118 56.1605607,46.6332213 55.8392208,45.5951961 C56.7829229,45.3742738 57.7079113,45.0790224 58.5976111,44.6898275 C60.8528718,43.7034196 61.7687707,41.2856622 60.2572434,39.1801898 C58.7676378,37.1062041 55.5077221,37.5908911 53.4166067,38.7187306" id="Fill-87" fill="#D1D1D1"></path>
                <path d="M150.654731,86.5603854 C149.887039,86.9459826 148.909248,87.131113 147.957653,87.2395622 C147.812775,87.1480924 147.608022,87.1760263 147.454056,87.2905005 C147.034926,87.3282934 146.628092,87.356775 146.257612,87.3836134 C144.883144,87.4838468 143.517765,87.4115473 142.169493,87.2132715 C142.527678,86.0279984 142.996526,84.8865431 143.683492,83.8573711 C145.294789,81.4446502 149.981664,78.664407 152.272443,81.6916734 C153.692886,83.5676255 152.7028,85.5317611 150.654731,86.5603854 M140.459295,90.7236298 C139.495403,89.6698103 138.564657,88.5590275 138.101156,87.2061511 C139.06077,87.5128761 140.048719,87.7659243 141.052171,87.9592706 C140.815341,88.8816365 140.624487,89.8138615 140.459295,90.7236298 M153.400993,81.3860438 C152.023318,78.955248 148.456973,79.2723798 146.296638,80.3053859 C145.891942,78.7076771 145.773795,77.0957276 145.939522,75.4432466 C145.998329,74.8500623 145.093244,74.8544441 145.034437,75.4432466 C144.853741,77.2501856 145.007707,79.0182362 145.479228,80.7621871 C145.205511,80.9374585 144.944089,81.1253276 144.699775,81.3279852 C144.075892,79.7554717 143.76101,78.138045 143.764752,76.4390074 C143.765822,75.8425368 142.861271,75.8414414 142.860202,76.4390074 C142.85646,78.2212989 143.174549,79.9334818 143.831043,81.5854151 C143.88985,81.7327527 143.996771,81.8181975 144.117056,81.8603722 C142.733501,83.2565187 141.884549,85.1089188 141.300227,87.0664817 C140.08133,86.8358902 138.877936,86.5067085 137.69753,86.0964638 C137.639792,86.062505 137.57564,86.0460733 137.507745,86.0444301 C137.252739,85.9874669 137.075785,86.1610951 137.028205,86.3801844 C137.004148,86.4524839 136.990783,86.5313561 137.007356,86.6217304 C137.403497,88.8427482 138.95973,90.4464819 140.422407,92.035427 C140.642129,92.2736866 141.118996,92.1767396 141.178872,91.8311262 C141.39111,90.602583 141.608694,89.3411763 141.919833,88.1104422 C143.00508,88.2785932 144.102622,88.3744448 145.198561,88.3771834 C145.715523,89.9228584 146.390193,91.3945908 147.234333,92.7819738 C147.541731,93.2875224 148.324926,92.8225053 148.01539,92.3142181 C147.253045,91.0599319 146.635042,89.7443006 146.152295,88.3552745 C146.549505,88.3371996 146.945647,88.302693 147.340185,88.2588752 C147.613902,89.6270879 148.204105,90.8649424 149.069095,91.9614844 C149.434764,92.4259537 150.071478,91.7664949 149.708482,91.3064074 C148.968055,90.3665143 148.486376,89.296263 148.237785,88.1350897 C149.258879,87.966391 150.26447,87.7111519 151.238519,87.3441774 C153.658137,86.4327659 154.781341,83.8217691 153.400993,81.3860438" id="Fill-89" fill="#D1D1D1"></path>
                <path d="M24.3033714,141.551036 C24.1806616,141.480101 24.0147664,141.498512 23.879417,141.580276 C22.2657573,141.673953 20.5020019,141.555368 18.917308,141.348521 C19.2469917,140.296414 19.6756859,139.283837 20.2897614,138.365477 C21.6853875,136.279675 27.5828294,132.662011 28.9379033,137.044253 C29.8906156,140.125305 27.459593,141.28625 24.3033714,141.551036 M17.2551963,144.850307 C16.3483027,143.854515 15.4719548,142.805658 15.0353609,141.528294 C15.9385679,141.817447 16.8691609,142.056783 17.8134467,142.239264 C17.5901466,143.109973 17.4110851,143.990428 17.2551963,144.850307 M22.7492232,135.010975 C22.3679277,133.501855 22.2568042,131.979198 22.412693,130.418096 C22.4685181,129.858741 21.6163962,129.862532 21.5610978,130.418096 C21.3909894,132.125399 21.5352919,133.794799 21.9797856,135.441997 C21.7217264,135.607692 21.4763069,135.785299 21.2461603,135.976444 C20.6594707,134.491149 20.3634926,132.963619 20.3661259,131.358656 C20.3671792,130.795511 19.5161106,130.794428 19.5150573,131.358656 C19.5113707,133.042676 19.8105087,134.65901 20.429324,136.219571 C20.4835691,136.358732 20.5841595,136.439955 20.6968629,136.479484 C19.4344796,137.759014 18.6434493,139.443033 18.0952052,141.231018 C16.600042,140.999804 15.3481918,140.708485 14.6556452,140.478895 C14.6014001,140.447489 14.5413619,140.432327 14.4781637,140.430703 C14.2380107,140.377096 14.0705356,140.540624 14.0262969,140.748013 C14.0036509,140.816782 13.9915379,140.890965 14.0068108,140.975979 C14.3791533,143.073693 15.8442973,144.588228 17.2214906,146.089225 C17.4274113,146.313942 17.8766449,146.222431 17.93247,145.895915 C18.1320708,144.734429 18.3353582,143.543161 18.6271231,142.381133 C19.6493534,142.540871 20.6836966,142.6313 21.7154066,142.634007 C22.2020325,144.093852 22.837174,145.483845 23.6318909,146.79424 C23.9204959,147.271288 24.6578078,146.832685 24.3665696,146.352387 C23.6487438,145.168159 23.0678473,143.924908 22.6128205,142.612889 C22.9872697,142.595561 23.3596122,142.563614 23.7309014,142.521919 C23.9879072,143.814445 24.5445777,144.983512 25.3582541,146.019374 C25.7021574,146.457977 26.3014866,145.834727 25.9602166,145.400456 C25.2629302,144.51242 24.81001,143.502008 24.5756501,142.404959 C25.5367889,142.246303 26.4831813,142.004801 27.3995547,141.65825 C29.5819979,140.833026 30.6342473,138.615102 29.5988508,136.29971 C28.4491709,133.731445 24.8510888,134.005437 22.7492232,135.010975" id="Fill-91" fill="#D1D1D1"></path>
            </g>
        </g>
    </g>
</svg>