<svg width="280px" height="224px" viewBox="0 0 280 224" version="1.1" xmlns="http://www.w3.org/2000/svg" xmlns:xlink="http://www.w3.org/1999/xlink">
    <defs>
        <polygon id="path-1" points="0.272191549 0.7474 115.45529 0.7474 115.45529 36.5449 0.272191549 36.5449"></polygon>
        <polygon id="path-3" points="0 0.283515725 54.6246051 0.283515725 54.6246051 27.2696118 0 27.2696118"></polygon>
    </defs>
    <g id="Peeranha" stroke="none" stroke-width="1" fill="none" fill-rule="evenodd">
        <g id="Peerania_WALLET_boost" transform="translate(-1055.000000, -820.000000)">
            <g id="Group-93" transform="translate(1055.000000, 820.000000)">
                <path d="M161.628859,123.715618 C161.424645,126.474626 161.395708,129.820187 160.706176,132.487825 C159.731406,136.257598 155.351969,138.811026 151.930767,140.334925 C151.061825,138.791447 150.604617,136.982837 149.627367,135.508702 C149.137088,134.767963 148.044089,134.218935 147.643929,133.544275 C146.82542,132.164772 147.784481,132.109298 148.675747,131.047953 C149.836541,129.666818 150.62694,127.930814 151.242062,126.250283 C152.717032,122.217825 153.068412,117.855787 154.158104,113.718093 C155.213898,109.708477 155.962131,103.359987 158.896362,100.205321 C159.053449,100.037268 159.10719,99.8504513 159.106363,99.6701614 C159.521405,99.7011615 159.917431,99.7052404 160.245661,99.6962667 C160.316764,99.6938193 160.387867,99.687293 160.45897,99.6815825 C160.465584,99.7378721 160.459797,99.7908985 160.480466,99.8520829 C163.127805,107.470761 162.214217,115.815493 161.628859,123.715618 M157.95797,96.0578362 C158.402776,95.244492 158.985654,94.5257796 159.425499,93.7132512 C160.067078,94.2475947 160.630939,94.7909119 161.03854,95.5740718 C161.253502,95.9876782 161.737167,96.7267853 161.680946,97.1958655 C161.556929,98.2400787 160.001762,98.1234205 159.293214,98.0287887 C158.91207,97.9773938 157.858757,97.9431306 157.585094,97.6527088 C157.273399,97.3214974 157.767811,96.4045477 157.95797,96.0578362 M161.9389,99.2483971 C162.838433,98.7613696 163.454382,97.8966305 163.245208,96.7406538 C162.901268,94.837412 161.548662,93.3575661 160.096015,92.1917999 C159.751249,91.9160624 159.343648,91.9658256 159.053449,92.1632472 C158.741754,92.0669838 158.401122,92.144484 158.224192,92.5328008 C157.458597,94.2108841 155.80835,95.6254667 155.872012,97.5988665 C155.902603,98.5517111 156.607843,99.084423 157.491668,99.3756606 C155.089054,102.206457 154.492122,106.479574 153.53058,109.912425 C152.123406,114.937701 151.561198,120.274609 149.884494,125.203622 C148.920473,128.035235 147.575307,129.258922 145.880414,131.491744 C145.485215,132.012219 144.89655,132.425009 145.015606,133.155143 C145.15037,133.982356 146.282228,134.455515 146.826247,134.926226 C148.817125,136.653257 149.317325,139.078606 150.602137,141.274716 C150.759224,141.543928 150.996509,141.64427 151.237101,141.649165 C151.464465,141.930613 151.85057,142.10764 152.271399,141.926534 C155.707483,140.450767 159.145221,138.233445 161.329566,135.148937 C162.995521,132.796195 162.626779,129.221396 162.960796,126.459941 C164.018244,117.727708 164.979785,107.873762 162.044728,99.4270555 C162.019924,99.3552658 161.976105,99.3055025 161.9389,99.2483971" id="Fill-1" fill="#FFFFFF"></path>
                <path d="M118.386135,144.512875 C116.998141,148.026807 113.042111,149.372993 109.555621,150.499944 C108.577754,150.816105 108.997783,152.273833 109.985553,151.954594 C114.095071,150.62687 118.334972,148.998369 119.946597,144.913654 C120.306386,144.001324 118.743449,143.607468 118.386135,144.512875" id="Fill-3" fill="#FFFFFF"></path>
                <path d="M157.622872,166.494515 C155.39028,165.066815 154.257084,162.524456 154.751431,159.994231 C154.94579,158.996054 153.348667,158.568957 153.152618,159.572796 C152.515459,162.834263 153.901322,166.019694 156.786284,167.864784 C157.675264,168.433438 158.506782,167.059933 157.622872,166.494515" id="Fill-5" fill="#FFFFFF"></path>
                <path d="M172.540679,91.3749591 C171.746538,87.0246095 170.50794,82.8270902 168.566707,79.008786 C168.497261,78.8714839 168.000515,77.6782639 167.898387,77.6120647 C171.351919,74.2244639 173.939412,70.0988646 175.689463,65.7051995 C177.770406,60.4820013 178.769618,54.9735744 179.526993,49.4242838 C180.588298,41.6446525 180.403652,32.3677751 173.155893,27.4093737 C166.16386,22.6266861 157.762472,31.1459505 153.946185,36.140312 C150.595598,40.5258044 147.79568,45.3836811 145.773562,50.528421 C143.460587,56.4168803 142.910734,63.1201618 141.811846,69.3167334 C141.723608,69.8128187 142.0545,70.1675157 142.432779,70.2811167 C142.283265,70.281934 142.132934,70.3195286 141.998943,70.4037078 C141.796323,70.0588182 141.368206,69.8348851 140.913127,70.075981 C137.167103,72.0652259 134.191527,75.1365417 132.32546,78.9425868 C129.872774,79.2572373 127.426625,79.6119342 124.987828,80.0181194 C124.486997,80.100664 124.340751,80.5182911 124.438793,80.9007753 C124.317874,81.0266355 124.227185,81.1909076 124.218198,81.4123888 C124.186335,82.2198556 124.165909,83.0927042 124.192054,83.9802638 L124.307253,85.6327919 C124.377517,86.2367574 124.48618,86.8309156 124.637328,87.4054592 C124.52458,87.4593993 124.420002,87.5394921 124.330947,87.6547278 C114.693412,100.192528 106.724227,113.157763 101.307403,128.023161 C101.286977,128.08037 101.292696,128.128589 101.284526,128.181712 C100.93566,128.51189 100.844154,129.14773 101.376032,129.477091 C101.574567,129.598865 101.772285,129.71737 101.970004,129.838326 C100.163579,155.613514 101.803332,182.319577 106.760992,207.723723 C107.113127,209.526629 109.038836,222.550708 113.050391,221.11394 C113.500567,220.95212 113.876395,220.486274 114.194215,219.906826 C114.745701,225.275499 121.016308,218.936722 123.603801,216.244622 C128.331063,211.323815 132.800147,206.136576 137.417111,201.11361 C142.833935,195.220247 147.803033,188.855317 152.745987,182.565577 C158.673447,175.024589 162.975042,166.519219 167.451479,158.071874 C167.784822,158.166678 168.117348,158.265568 168.449874,158.358737 C168.745634,158.442099 168.982569,158.353834 169.154143,158.195283 C169.275878,158.103748 169.382091,157.982791 169.436014,157.798905 C171.476923,150.863517 171.739185,143.612662 172.444271,136.459063 C173.113408,129.665064 173.594631,122.866979 173.749047,116.040289 C173.913268,108.751022 174.016212,100.685345 172.820916,93.0135935 C172.825001,93.011959 172.835622,93.0103244 172.831537,93.0111417 C172.820916,93.0135935 172.540679,91.3749591 172.540679,91.3749591" id="Fill-7" fill="#FFFFFF"></path>
                <g id="Group-11" transform="translate(19.000000, 0.000000)">
                    <mask id="mask-2" fill="white">
                        <use xlink:href="#path-1"></use>
                    </mask>
                    <g id="Clip-10"></g>
                    <path d="M115.45529,36.5449 L7.62430423,36.5449 C7.62430423,36.5449 0.272191549,36.5449 0.272191549,30.7893444 C0.272191549,25.0337889 31.3144451,25.5822111 31.3144451,25.5822111 C31.3144451,25.5822111 22.3285296,12.7004556 43.023093,3.10758889 C63.7184732,-6.48527778 77.3329521,16.2631444 77.3329521,16.2631444 C77.3329521,16.2631444 86.3188676,9.41156667 99.6621352,12.9742556 C113.004586,16.5377667 115.45529,36.5449 115.45529,36.5449" id="Fill-9" fill="#FFFFFF" mask="url(#mask-2)"></path>
                </g>
                <g id="Group-14" transform="translate(0.000000, 71.000000)">
                    <mask id="mask-4" fill="white">
                        <use xlink:href="#path-3"></use>
                    </mask>
                    <g id="Clip-13"></g>
                    <path d="M53.9050896,27.2696118 L2.18867164,27.2696118 C2.18867164,27.2696118 -6.567,8.87772941 10.9451642,1.7402 C28.4573284,-5.39732941 33.9302388,16.0144353 33.9302388,16.0144353 C33.9302388,16.0144353 44.3285224,9.70125882 50.6215075,14.9166706 C56.9153134,20.1320824 53.9050896,27.2696118 53.9050896,27.2696118" id="Fill-12" fill="#FFFFFF" mask="url(#mask-4)"></path>
                </g>
                <path d="M226.711282,91 L277.835926,91 C277.835926,91 286.492221,72.5986417 269.179631,65.4574348 C251.867853,58.3162279 246.457567,79.7390246 246.457567,79.7390246 C246.457567,79.7390246 236.17908,73.4225954 229.957292,78.6406943 C223.735503,83.8587931 226.711282,91 226.711282,91" id="Fill-15" fill="#FFFFFF"></path>
                <path d="M245,54 C245,54 244.730102,48.0971422 239.056566,47.560226 C233.383031,47.0233099 230.410909,47.560226 230.410909,47.560226 C230.410909,47.560226 230.599757,43.2335029 227.709496,40.5835359 C224.196767,37.3636489 217.442828,38.7055368 217.442828,38.7055368 C217.442828,38.7055368 214.200808,25.5579333 202.853738,25.0210172 C191.506667,24.484101 185.022627,34.4126225 185.022627,34.4126225 C185.022627,34.4126225 178.268688,23.6791293 169.082424,30.923875 C159.89697,38.1686207 169.082424,52.9269727 169.082424,52.9269727 L245,54 Z" id="Fill-17" fill="#FFFFFF"></path>
                <path d="M182.669496,30 C182.669496,30 180.261076,32.9931864 177.568493,35.5019587 C174.945518,37.945506 171,40.0088399 171,40.0088399 C171,40.0088399 172.774582,47.0356294 176.902718,47.8970753 C181.031672,48.7585212 183.229631,43.9748318 183.625166,42.3951166 C184.853534,37.4905226 182.669496,30 182.669496,30" id="Fill-19" fill="#C8D5FF"></path>
                <path d="M182,27.9981714 C182,27.9981714 177.698608,34.4483407 168.62326,38.538732 C156.47502,44.0147639 153.136773,40.4557949 147.056511,41.9613546 C141.072072,43.4439161 139.411957,46 139.411957,46 C139.411957,46 139.34398,43.3305679 141.752662,40.8443 C141.752662,40.8443 140.299754,39.5654366 137,41.0718177 C137,41.0718177 138.388206,36.4853227 144.190008,33.8848852 C144.190008,33.8848852 141.276822,34.2265725 139.616708,32.1731632 C139.616708,32.1731632 142.27846,31.626135 143.916462,30.5994303 C145.554464,29.5727257 146.100737,28.6141942 146.100737,28.6141942 C146.100737,28.6141942 145.085995,28.5870892 143.366093,28.0499173 C141.66421,27.5193164 141.276822,25.5340803 141.276822,25.5340803 C141.276822,25.5340803 145.546274,26.9353268 149.37674,25.0346911 C150.501229,24.4761638 160.228501,17.7992982 169.23751,18.0046391 C178.246519,18.20998 182,27.9981714 182,27.9981714" id="Fill-21" fill="#C8D5FF"></path>
                <path d="M102.791346,189.293913 C101.116339,170.60682 99.9431032,152.376165 101.28522,133.627127 C101.325004,133.059838 100.868701,132.812872 100.427824,132.860146 C100.461113,132.807982 100.507393,132.768044 100.524443,132.702023 C104.667711,115.850466 118.640175,95.6457132 116.840943,98.2237774 C105.409813,105.930257 97.0071726,117.863687 87.074049,127.2541 C75.6810794,138.022795 61.9408268,145.773289 48.3881295,153.422714 C47.9943446,153.645228 47.9350738,154.030756 48.0560511,154.360044 C48.0698538,154.419544 48.0698538,154.477414 48.0966474,154.537729 C50.6095637,160.135625 55.8083368,164.48728 60.4265816,168.305064 C64.0818802,171.325711 67.9084955,174.085536 71.8536522,176.709244 C81.1088162,182.863832 92.7169466,190.156257 103.212736,193.995233 C103.308544,194.030281 103.212736,193.995233 102.791346,189.293913" id="Fill-23" fill="#7699FF"></path>
                <path d="M165.441713,162.01861 C161.257331,169.859278 157.350218,178.012858 151.861284,185.061088 C147.489603,190.675614 143.094202,196.299894 138.346287,201.604759 C135.510624,204.772887 135.802614,204.416899 136.380053,204.976076 C136.725207,205.310119 137.111256,205.490551 137.111256,205.490551 C142.425159,207.110376 147.760328,208.644862 153.154385,209.984285 C153.191191,209.993226 153.223089,209.984285 153.259077,209.988349 C153.269709,209.990788 153.28116,209.988349 153.292611,209.989975 C153.372765,209.99729 153.453737,210.007043 153.524895,209.992413 C153.735913,209.964779 153.938752,209.851806 154.076978,209.610417 C163.047717,194.050995 170.781789,176.229669 174.119643,158.550575 C177.512297,140.589455 178.554303,120.921545 173.650986,103.164427 C173.547112,102.785683 173.955245,103.182308 173.650986,103.164427 C174.010862,110.653984 173.87918,109.835538 173.525029,122.150434 C173.344273,128.424919 173.23631,135.334168 172.622884,141.581019 C172.264644,145.231111 170.169181,157.023405 170.169181,157.023405 C170.169181,157.023405 166.489444,158.480678 165.441713,162.01861" id="Fill-25" fill="#7699FF"></path>
                <path d="M162.044622,98.5759383 C162.020297,98.5024924 161.976512,98.4518963 161.939214,98.3939557 C162.83843,97.8969716 163.454665,97.0148045 163.245469,95.8355895 C162.901675,93.894169 161.549202,92.3852634 160.096185,91.1962556 C159.752391,90.9138968 159.34373,90.965309 159.053451,91.1668772 C158.74209,91.0689493 158.401539,91.1481077 158.223966,91.5438996 C157.459349,93.2543735 155.809299,94.6988099 155.872544,96.7112281 C155.903356,97.6831624 156.607972,98.2266622 157.492593,98.5237101 C155.089277,101.411767 154.493313,105.769558 153.530852,109.271296 C152.124053,114.397005 151.561333,119.840164 149.884526,124.867945 C148.920442,127.756818 147.575267,129.004583 145.87981,131.282222 C145.484933,131.812665 144.897078,132.233755 145.01546,132.978007 C145.150869,133.821819 146.283606,134.30493 146.826055,134.784776 C148.817466,136.546662 149.317752,139.020158 150.602115,141.260258 C150.759417,141.534456 150.996181,141.637281 151.236999,141.642177 C151.464033,141.928616 151.850801,142.109783 152.270814,141.925352 C155.707945,140.419711 159.145075,138.158392 161.329466,135.011643 C162.996543,132.612409 162.626802,128.966228 162.960866,126.149168 C164.018195,117.242627 164.979846,107.191961 162.044622,98.5759383" id="Fill-27" fill="#F76F60"></path>
                <path d="M142.591769,68.3238436 C144.319379,58.661417 145.642898,49.78355 150.69403,41.1582688 C152.93616,37.3313079 155.620826,33.4686114 158.869911,30.4140273 C162.297319,27.1921356 168.408575,23.9263865 172.73169,27.2619825 C179.82127,32.7327823 178.709612,42.4967305 177.497341,50.214814 C176.803679,54.6306006 175.895702,58.9830377 174.276886,63.1657305 C172.546822,67.641618 170.132095,73.3438872 166.528818,76.6299406 C165.750902,77.3381558 166.910004,78.4849446 167.685466,77.7783538 C171.429438,74.3639769 173.750096,68.841198 175.599587,64.2329263 C177.723926,58.9399925 178.743968,53.3587371 179.516975,47.7352487 C180.600822,39.852294 180.411864,30.4521995 173.012263,25.428095 C165.875238,20.5818565 157.298538,29.2144473 153.403236,34.2742873 C149.980737,38.7185 147.123473,43.6410828 145.059666,48.8536115 C142.69729,54.8206492 142.136962,61.6136672 141.01467,67.8917674 C140.832257,68.9142936 142.407719,69.3528672 142.591769,68.3238436" id="Fill-29" fill="#4B4B78"></path>
                <path d="M127.575579,89.5260833 C124.416076,87.9708694 124.607791,83.671723 124.731941,80.7684447 C124.775859,79.7430552 123.086736,79.7446487 123.042819,80.7684447 C122.892487,84.2844071 122.934715,89.0376888 126.723417,90.9020332 C127.686217,91.3760866 128.541757,90.0009334 127.575579,89.5260833" id="Fill-31" fill="#4B4B78"></path>
                <path d="M124.998291,80.9857506 C127.406426,80.5366656 129.820923,80.1375782 132.243374,79.7938452 C133.245438,79.6518879 133.258957,77.8644762 132.243374,78.0082191 C129.680953,78.371594 127.124099,78.7885377 124.575198,79.264407 C123.567567,79.4518978 123.995432,81.1732413 124.998291,80.9857506" id="Fill-33" fill="#4B4B78"></path>
                <path d="M133.477957,78.601565 C135.23956,75.070676 138.009979,72.2770397 141.598401,70.4397344 C142.513822,69.9705029 141.701456,68.6288428 140.785229,69.0980743 C136.97862,71.0480262 133.957809,74.0685095 132.087514,77.8176999 C131.640672,78.7142116 133.027895,79.5035149 133.477957,78.601565" id="Fill-35" fill="#4B4B78"></path>
                <path d="M141.086752,70.2405078 C143.554972,75.4538171 149.287088,81.203036 154.816225,83.0461416 C159.554558,84.6245502 166.034448,84.7882551 167.951378,79.2336903 C168.294006,78.2408729 166.725387,77.8140999 166.385195,78.8004017 C164.089101,85.4544771 154.287669,81.6811195 150.625123,78.7425756 C147.442418,76.1892675 144.252406,73.1448448 142.488928,69.4187254 C142.040751,68.4723318 140.640199,69.297372 141.086752,70.2405078" id="Fill-37" fill="#4B4B78"></path>
                <path d="M136.012236,73.0361327 C136.737881,77.6098691 139.847207,80.7217597 143.108959,83.7131369 C147.176622,87.4441039 151.51022,90.8424206 156.019756,93.9988848 C156.427577,94.2844854 157.11998,94.0096154 157.210786,93.5061 C157.411048,92.3958896 157.642119,91.1643403 158.185339,90.1688655 C158.386412,89.8114521 158.587484,89.4532132 158.788557,89.0957997 C159.49231,87.8526943 160.070394,87.8568215 160.522807,89.1090067 C161.981393,90.3207456 163.041888,92.9621382 164.000225,94.5832929 C164.208594,94.9374046 164.749382,95.1454143 165.109367,94.8796241 C167.728984,92.9439786 170.041317,90.4973887 171.859077,87.7701508 C172.44689,86.888586 171.042626,86.0615 170.458867,86.9364613 C168.821099,89.3937818 166.656327,91.7066513 164.290483,93.4540976 C164.660197,93.5531498 165.029911,93.652202 165.399624,93.7504288 C163.834016,91.0999564 162.314622,88.4338007 160.203361,86.1902679 C159.909049,85.8774279 159.349614,85.8675227 159.056923,86.1902679 C157.221327,88.2101078 156.134887,90.359541 155.64761,93.0669684 C156.04408,92.9027068 156.440549,92.7384452 156.83864,92.5733582 C152.84719,89.7800855 149.000868,86.7920101 145.35643,83.5406209 C141.966575,80.5154009 138.331056,77.3622385 137.576223,72.5970011 C137.410014,71.5511748 135.846838,71.9952589 136.012236,73.0361327" id="Fill-39" fill="#4B4B78"></path>
                <path d="M101.621699,128.450047 C107.071066,113.609378 115.15032,100.661252 124.838264,88.154154 C125.476207,87.3302558 124.063619,86.5249357 123.433813,87.3383332 C113.646597,99.9730548 105.553511,113.039111 100.052881,128.020327 C99.6940378,128.998505 101.266111,129.420954 101.621699,128.450047" id="Fill-41" fill="#4B4B78"></path>
                <path d="M158.221318,91.5547142 C157.499563,93.2965635 155.941245,94.7666643 156.00171,96.8168276 C156.060645,98.8212839 158.725705,99.0398461 160.129415,98.9949702 C161.678548,98.9459392 163.269777,97.8032661 162.961328,95.924296 C162.636807,93.9480949 161.360149,92.4115113 159.988585,91.1998623 C159.230091,90.5308791 158.141718,91.7001453 158.906335,92.3749457 C159.701567,93.0780013 160.40036,93.7029396 160.878724,94.7134781 C161.080785,95.1422921 161.537718,95.9109995 161.485672,96.397986 C161.367038,97.4833176 159.899801,97.3611555 159.230091,97.2630934 C158.871127,97.2099071 157.876896,97.1741726 157.618962,96.8725069 C157.325056,96.5284585 157.791173,95.5760924 157.970273,95.2162543 C158.454759,94.2422813 159.122173,93.4087532 159.543133,92.3932285 C159.944193,91.4259038 158.62544,90.5799102 158.221318,91.5547142" id="Fill-43" fill="#4B4B78"></path>
                <path d="M157.64388,98.2587104 C155.040374,101.157723 154.446987,105.739608 153.459616,109.39049 C152.064594,114.551685 151.507389,120.032528 149.843814,125.095117 C148.887802,128.00399 147.553887,129.260393 145.872623,131.5538 C145.481052,132.087916 144.897313,132.511921 145.015508,133.262147 C145.149784,134.111801 146.272235,134.597435 146.810947,135.081425 C148.784884,136.854687 149.281785,139.345307 150.555396,141.601738 C151.072399,142.517129 152.462597,141.690483 151.943986,140.771805 C151.033001,139.158777 150.58595,137.236785 149.588931,135.678812 C149.102482,134.918725 148.01943,134.355029 147.622231,133.661501 C146.810143,132.244863 147.761331,132.187343 148.645783,131.097748 C149.796375,129.679467 150.581126,127.897167 151.190594,126.170742 C152.653156,122.029296 153.001309,117.548482 154.081145,113.298569 C155.128819,109.180953 155.870955,102.66064 158.780803,99.4206161 C159.47952,98.6424516 158.345813,97.477259 157.64388,98.2587104" id="Fill-45" fill="#4B4B78"></path>
                <path d="M152.245676,141.924133 C155.68945,140.418057 159.134848,138.15527 161.323976,135.008428 C162.994669,132.607686 162.623314,128.961269 162.958915,126.14258 C164.017725,117.233468 164.982274,107.179902 162.040684,98.5613933 C161.703458,97.5736688 160.133526,97.9973291 160.474003,98.9956656 C163.127122,106.769302 162.211329,115.282508 161.623823,123.342667 C161.41905,126.15809 161.390609,129.571862 160.699092,132.29341 C159.676848,136.321041 154.910172,138.990346 151.424956,140.51438 C150.468533,140.932327 151.294941,142.33963 152.245676,141.924133" id="Fill-47" fill="#4B4B78"></path>
                <path d="M100.386897,129.536836 C110.760832,135.917725 121.061014,141.636269 132.30279,146.382122 C144.228841,151.417087 156.522024,155.480994 168.986481,158.965859 C170.003469,159.250071 170.43698,157.674654 169.42163,157.390442 C157.476731,154.050949 145.676062,150.191218 134.219579,145.428214 C122.577072,140.588441 111.928607,134.716357 101.214583,128.126393 C100.313962,127.572669 99.4903739,128.984746 100.386897,129.536836" id="Fill-49" fill="#4B4B78"></path>
                <path d="M167.098065,79.2328156 C172.953674,90.5295867 172.561253,105.030284 172.201189,117.364099 C172.018668,123.648223 171.569002,129.906299 170.945941,136.162746 C170.218346,143.475774 169.956179,150.909274 167.831468,157.995193 C167.529478,159.002932 169.129856,159.432727 169.431846,158.428244 C171.544113,151.384653 171.815406,144.021157 172.54549,136.755343 C173.23907,129.85583 173.736855,122.951434 173.896146,116.019361 C174.175736,103.853232 174.305989,89.5535939 168.531685,78.4114838 C168.047174,77.4770053 166.615213,78.299965 167.098065,79.2328156" id="Fill-51" fill="#4B4B78"></path>
                <path d="M100.767133,128.781405 C98.8533412,155.08523 100.533061,182.361794 105.663705,208.300434 C106.025528,210.129608 108.006905,223.34618 112.132025,221.887883 C113.440855,221.4251 114.145546,218.524774 114.570009,217.444675 C116.203573,213.289385 117.546194,209.016163 118.898706,204.765713 C122.761731,192.62436 126.293428,180.382155 129.961941,168.183056 C130.264423,167.17697 128.673717,166.747533 128.372884,167.751179 C125.526922,177.212618 122.756786,186.696829 119.860548,196.144442 C117.520644,203.778333 115.456848,211.774156 112.121311,219.06401 C112.014165,219.299875 111.818005,219.948097 111.58146,220.117269 C110.966607,220.55728 111.966361,220.475134 111.323485,220.076603 C110.416865,219.51378 109.891026,217.6781 109.557225,216.78588 C108.221197,213.210492 107.511561,209.37972 106.834069,205.641667 C104.881539,194.871584 103.810079,183.935583 102.864722,173.041061 C101.574849,158.179941 101.33171,143.680752 102.415533,128.781405 C102.491359,127.737093 100.84296,127.741973 100.767133,128.781405" id="Fill-53" fill="#4B4B78"></path>
                <path d="M166.500173,157.40512 C162.358377,165.228963 158.490218,173.365047 153.057957,180.398153 C148.729959,186.000631 144.261094,191.509843 139.679698,196.906325 C136.328049,200.853526 132.723813,204.572832 129.294445,208.452718 C126.839807,211.231249 124.375455,214.006536 121.788047,216.660982 C120.69188,217.785046 119.584379,218.922898 118.386205,219.939097 C116.237587,221.763877 115.361625,221.593564 115.722696,218.400605 C115.840895,217.365753 114.220931,217.373863 114.103543,218.400605 C113.027615,227.905679 120.624685,220.217275 123.550496,217.167054 C128.32781,212.189056 132.84363,206.94099 137.507603,201.858371 C142.980343,195.894991 148.001339,189.454736 152.996429,183.089905 C159.0043,175.434752 163.359014,166.798274 167.898312,158.223432 C168.385677,157.302121 166.989157,156.481376 166.500173,157.40512" id="Fill-55" fill="#4B4B78"></path>
                <path d="M108.985938,152.948947 C113.093838,151.455159 117.33365,149.622722 118.946543,145.027626 C119.306672,144.001496 117.742336,143.558452 117.385444,144.576944 C115.99834,148.53039 112.042585,150.044548 108.555402,151.31257 C107.577793,151.668194 107.997809,153.307966 108.985938,152.948947" id="Fill-57" fill="#4B4B78"></path>
                <path d="M153.152669,159.57273 C152.515446,162.833962 153.90093,166.019831 156.786249,167.865034 C157.675378,168.433032 158.506502,167.05984 157.623174,166.495015 C155.390822,165.067085 154.256416,162.524577 154.751113,159.994762 C154.945843,158.996798 153.349056,158.56842 153.152669,159.57273" id="Fill-59" fill="#4B4B78"></path>
                <path d="M117.810611,94.138887 C106.332479,101.812138 98.0718314,113.07008 88.1098172,122.4375 C76.7096849,133.157495 62.9606265,140.872938 49.3976297,148.487769 C48.4860091,148.999752 49.3050052,150.401822 50.2182507,149.889028 C63.0825009,142.666906 76.0824379,135.353098 87.1591968,125.504528 C97.9857068,115.879089 106.481166,103.662092 118.631232,95.5401458 C119.495728,94.962441 118.682419,93.5555025 117.810611,94.138887" id="Fill-61" fill="#4B4B78"></path>
                <path d="M137.568189,200.53769 C143.00691,202.138923 148.466772,203.654612 153.987615,204.973549 C155.003157,205.216184 155.437344,203.716048 154.420989,203.473413 C148.899333,202.154476 143.439471,200.638787 138.00075,199.038332 C136.998216,198.742815 136.568908,200.243728 137.568189,200.53769" id="Fill-63" fill="#4B4B78"></path>
                <path d="M49.0807777,150.235547 C51.6242042,155.785533 56.8860975,160.100752 61.5612359,163.885053 C65.260093,166.879848 69.1331686,169.616052 73.126225,172.217305 C82.4929375,178.319218 92.3798403,185.141143 103.003063,188.947263 C103.999067,189.30444 104.428039,187.743204 103.440253,187.389259 C93.2295666,183.730212 83.6960316,177.130513 74.6744691,171.287997 C70.8556313,168.815231 67.1312989,166.251959 63.5729671,163.42444 C58.724432,159.571451 53.1173887,155.130169 50.5000015,149.420181 C50.0660986,148.473096 48.6493402,149.294119 49.0807777,150.235547" id="Fill-65" fill="#4B4B78"></path>
                <path d="M173.1647,99.0121199 C177.997966,116.94009 176.906868,137.063806 173.37184,155.168286 C170.014245,172.3608 162.643915,189.621957 154.112639,204.777258 C153.598,205.691675 154.984553,206.516203 155.499192,205.601786 C164.30505,189.958633 171.896168,172.040468 175.173476,154.265309 C178.502167,136.206591 179.525824,116.431808 174.713432,98.5773835 C174.440457,97.5649055 172.890119,97.9947388 173.1647,99.0121199" id="Fill-67" fill="#4B4B78"></path>
                <path d="M173.241654,91.9182523 C183.884768,87.0603329 192.867716,79.1385983 200.511636,70.4221815 C203.942538,66.5094645 207.138481,62.3806781 210.044992,58.0665737 C211.323043,56.169695 212.546623,54.2355908 213.689715,52.2553595 C214.491343,50.8666888 218.354767,41.6315437 221.436075,45.6826423 C222.060466,46.5032203 223.472665,45.6972087 222.840956,44.8661104 C219.936884,41.0480755 216.400291,43.7598676 214.627929,47.0114285 C211.848248,52.1121225 208.97507,57.0113135 205.496201,61.6895797 C196.792928,73.3913146 185.864448,84.3841477 172.421327,90.5206799 C171.470919,90.9544372 172.296124,92.3495818 173.241654,91.9182523" id="Fill-69" fill="#4B4B78"></path>
                <path d="M123.99454,83.0418861 C115.023143,85.8414096 106.838423,90.9518302 99.2019186,96.2533473 C94.449897,99.5519795 89.853572,103.065898 85.376068,106.716889 C80.3233063,110.837156 73.2948378,119.946896 66.179507,114.783258 C65.3305513,114.166428 64.5119154,115.565383 65.3526766,116.175763 C69.3237572,119.057531 73.6414674,118.285888 77.4609488,115.529905 C83.3602078,111.271759 88.6071804,106.026684 94.4589111,101.658879 C103.541754,94.8801939 113.457164,88.0216837 124.429671,84.5964602 C125.431865,84.2844165 125.00329,82.7266171 123.99454,83.0418861" id="Fill-71" fill="#4B4B78"></path>
                <path d="M4.02225776,149.990955 C9.65324612,149.204942 15.3900495,148.471442 20.7223139,146.355961 C26.0863227,144.226309 30.8943956,140.869712 35.6324678,137.583965 C36.4952674,136.985495 35.6813055,135.541 34.8103663,136.14447 C29.9583394,139.509403 25.0184047,143.000197 19.4720684,145.062333 C14.3799228,146.956097 8.92882004,147.637919 3.590044,148.383922 C2.55631239,148.528122 2.99585182,150.134321 4.02225776,149.990955" id="Fill-73" fill="#4B4B78"></path>
                <path d="M34.0040842,148.975593 C40.4638231,147.469695 46.1681407,145.258332 50.7763724,140.375934 C51.484278,139.626576 50.3479245,138.495756 49.6376028,139.247508 C45.2194345,143.9288 39.7535015,145.996517 33.5756362,147.436976 C32.5673338,147.671599 32.9941711,149.211015 34.0040842,148.975593" id="Fill-75" fill="#4B4B78"></path>
                <path d="M24.7781171,161.998283 C29.0502144,161.754074 32.4987944,160.993559 35.7427085,158.268066 C36.5168795,157.616842 35.3697797,156.553327 34.5980356,157.20229 C31.6922651,159.643626 28.5899184,160.272991 24.7781171,160.49082 C23.7442711,160.549611 23.7369905,162.057827 24.7781171,161.998283" id="Fill-77" fill="#4B4B78"></path>
                <path d="M101.364062,133.544539 C120.632825,146.780986 142.445619,155.208829 164.993947,160.971359 C166.003791,161.229528 166.43427,159.664276 165.424426,159.406107 C143.011228,153.677674 121.335185,145.300166 102.180515,132.14247 C101.318749,131.550629 100.50796,132.956758 101.364062,133.544539" id="Fill-79" fill="#4B4B78"></path>
                <path d="M156.114327,64.2115577 C157.328437,66.327747 159.256258,68.9825142 161.654005,69.8074143 C163.922642,70.5877034 165.176047,68.8308364 166.731775,67.5095361 C167.524074,66.837936 166.384543,65.6958913 165.597858,66.3626248 C165.101468,66.7844027 164.673241,67.333525 164.153596,67.7196139 C163.021282,68.5639808 161.960339,68.2979363 160.929869,67.5006139 C159.500844,66.393447 158.397399,64.9577801 157.499246,63.3931465 C156.981205,62.4895685 155.595483,63.3055465 156.114327,64.2115577" id="Fill-81" fill="#4B4B78"></path>
                <path d="M162.754655,48.5034373 C161.463356,47.4865481 158.994452,48.2538134 157.559584,48.6867139 C156.572023,48.9856057 157.000242,50.2560604 158.000252,49.953884 C158.617685,49.7673229 159.241758,49.6083519 159.885747,49.4914227 C160.278282,49.420477 161.236798,49.1616563 161.581199,49.4329582 C162.339713,50.0294281 163.513168,49.1012211 162.754655,48.5034373" id="Fill-83" fill="#4B4B78"></path>
                <path d="M173.389295,50.237133 C171.669733,49.7299307 169.881423,50.0371782 168.393886,51.1510726 C167.473521,51.8396974 168.333731,53.5290714 169.260112,52.8365451 C170.377268,52.0006366 171.631921,51.7343554 172.932979,52.1186587 C174.003731,52.4337094 174.460906,50.5531591 173.389295,50.237133" id="Fill-85" fill="#4B4B78"></path>
                <path d="M84.7447409,68.9286814 C84.5129591,68.8028641 84.2049861,68.8585141 83.9940566,69.0359488 C81.5759873,69.345653 78.917314,69.365816 76.5200969,69.2408052 C76.9812544,67.2898301 77.6782038,65.4138614 78.8274885,63.7419426 C81.0137761,60.561829 89.052353,55.8259356 91.3300701,62.0256652 C92.8907875,66.2752262 89.3948126,68.1955535 84.7447409,68.9286814 M74.4019804,74.6283678 C72.9062261,73.2588945 71.4457603,71.8103822 70.6429452,69.950544 C72.0496761,70.2731525 73.4892896,70.5175285 74.9417352,70.6772197 C74.7059434,71.9934625 74.5399267,73.3226097 74.4019804,74.6283678 M81.6249101,59.3730165 C80.882246,57.1897632 80.5325683,54.9548926 80.5903132,52.6296915 C80.6111656,51.7901028 79.3143104,51.7901028 79.2934581,52.6296915 C79.229297,55.2016881 79.6319076,57.6849673 80.5077059,60.0956596 C80.1251456,60.3835878 79.777072,60.693292 79.4434345,61.0126744 C79.4314043,60.9683157 79.4298003,60.9255701 79.4073439,60.8804049 C78.367935,58.7963538 77.7608111,56.5929374 77.5899824,54.2677364 C77.5282273,53.4354064 76.2313722,53.4289542 76.2931272,54.2677364 C76.4807983,56.8252156 77.1440631,59.2463927 78.2869317,61.5385263 C78.3767572,61.7175741 78.5090893,61.8111305 78.6518476,61.8482305 C76.8745867,63.9129252 75.8712684,66.4687913 75.2529163,69.1609596 C72.837253,68.9786857 70.8201901,68.6689816 69.8080496,68.403636 C69.7759691,68.3947643 69.7495027,68.4028295 69.7190262,68.3987969 C69.7166201,68.3987969 69.7142141,68.3987969 69.7126101,68.3979904 C69.5289491,68.3762143 69.3741606,68.4246056 69.2562646,68.5246142 C69.0798218,68.6455924 68.9747581,68.8520619 69.0052345,69.1077292 L69.0052345,69.119827 C69.0100466,69.1488618 69.0020265,69.1746704 69.0108486,69.2061248 C69.8176738,72.2830037 72.1828103,74.3597962 74.4541113,76.4357821 C74.8944165,76.8374297 75.5063524,76.5341777 75.5608893,75.9744519 C75.727708,74.2694658 75.8969328,72.5152819 76.2016977,70.7933588 C77.7736433,70.9086913 79.3536091,70.9199826 80.9207426,70.8006175 C80.9215446,70.8022305 80.9207426,70.803037 80.9215446,70.8038436 C81.8149872,72.9080577 82.9321913,74.8767764 84.2803753,76.7188711 C84.7696033,77.3882838 85.8956296,76.7382276 85.3999855,76.0607497 C84.1648854,74.371894 83.1318926,72.5717383 82.2793527,70.6635088 C82.8447719,70.5933415 83.4061811,70.5030111 83.9643822,70.3973568 C84.5001269,72.2660668 85.4633446,73.9468572 86.8043104,75.372787 C87.3785518,75.9841302 88.2952527,75.0606632 87.7218133,74.4501266 C86.5460622,73.2000185 85.7408411,71.7394083 85.2588312,70.1174939 C86.6743843,69.7723028 88.0618669,69.3109725 89.3964166,68.7028554 C92.7793077,67.1615932 94.1531561,63.3838472 91.8858652,60.0940466 C89.6514568,56.8534438 84.7615831,57.6107674 81.6249101,59.3730165" id="Fill-87" fill="#D1D1D1"></path>
                <path d="M229.883706,131.340578 C228.70959,131.918974 227.214144,132.19667 225.758763,132.359343 C225.537185,132.222139 225.224033,132.264039 224.988556,132.435751 C224.347534,132.49244 223.725318,132.535162 223.1587,132.57542 C221.056574,132.72577 218.968347,132.617321 216.906284,132.319907 C217.454096,130.541998 218.171158,128.829815 219.221812,127.286057 C221.686149,123.666975 228.85431,119.496611 232.357854,124.03751 C234.530297,126.851438 233.016046,129.797642 229.883706,131.340578 M214.290686,137.585445 C212.816499,136.004715 211.393006,134.338541 210.68412,132.309227 C212.151766,132.769314 213.662746,133.148886 215.197438,133.438906 C214.835228,134.822455 214.543334,136.220792 214.290686,137.585445 M234.083871,123.579066 C231.976839,119.932872 226.52243,120.40857 223.218387,121.958079 C222.599441,119.561516 222.418745,117.143591 222.67221,114.66487 C222.76215,113.775093 221.377902,113.781666 221.287963,114.66487 C221.011604,117.375278 221.247081,120.027354 221.968231,122.643281 C221.549604,122.906188 221.149783,123.187991 220.776126,123.491978 C219.821952,121.133208 219.340368,118.707067 219.346092,116.158511 C219.347727,115.263805 217.964297,115.262162 217.962662,116.158511 C217.956939,118.831948 218.443428,121.400223 219.447478,123.878123 C219.537417,124.099129 219.700943,124.227296 219.88491,124.290558 C217.768884,126.384778 216.470487,129.163378 215.576818,132.099723 C213.712622,131.753835 211.872137,131.260063 210.06681,130.644696 C209.978506,130.593757 209.88039,130.56911 209.776551,130.566645 C209.386542,130.4812 209.115906,130.741643 209.043137,131.070277 C209.006344,131.178726 208.985903,131.297034 209.01125,131.432596 C209.617113,134.764122 211.997234,137.169723 214.23427,139.553141 C214.570315,139.91053 215.299641,139.765109 215.391216,139.246689 C215.715815,137.403874 216.04859,135.511764 216.524451,133.665663 C218.18424,133.91789 219.862834,134.061667 221.538975,134.065775 C222.329623,136.384288 223.361472,138.591886 224.65251,140.672961 C225.122647,141.431284 226.320475,140.733758 225.847067,139.971327 C224.681127,138.089898 223.735947,136.116451 222.997627,134.032912 C223.605126,134.005799 224.21099,133.95404 224.814401,133.888313 C225.233027,135.940632 226.135691,137.797414 227.458616,139.442227 C228.017875,140.138931 228.991672,139.149742 228.436501,138.459611 C227.304084,137.049771 226.567399,135.444395 226.187201,133.702635 C227.748874,133.449586 229.286836,133.066728 230.776558,132.516266 C234.477151,131.149149 236.194991,127.232654 234.083871,123.579066" id="Fill-89" fill="#D1D1D1"></path>
                <path d="M37.0990178,215.66629 C36.9072838,215.557802 36.6480726,215.58596 36.4365891,215.711011 C33.9152458,215.854281 31.159378,215.672916 28.6832937,215.356561 C29.1984246,213.747457 29.8682593,212.198809 30.8277522,210.794259 C33.008418,207.604209 42.2231709,202.071311 44.3404739,208.773563 C45.8290869,213.485761 42.030614,215.261323 37.0990178,215.66629 M26.0862442,220.712234 C24.6692229,219.189258 23.2999294,217.585124 22.6177513,215.631508 C24.0290124,216.073742 25.4830639,216.439786 26.9585105,216.718874 C26.609604,218.050546 26.3298205,219.397125 26.0862442,220.712234 M34.6706613,205.663844 C34.074887,203.355778 33.9012566,201.027009 34.1448329,198.63944 C34.2320595,197.783957 32.900619,197.789754 32.8142153,198.63944 C32.5484209,201.250611 32.7738935,203.80381 33.468415,206.323055 C33.0651976,206.57647 32.6817296,206.848105 32.3221254,207.140443 C31.4054229,204.868816 30.9429572,202.532593 30.9470717,200.077944 C30.9487174,199.216664 29.6189228,199.215008 29.617277,200.077944 C29.6115167,202.653504 30.0789198,205.125544 31.0458188,207.512284 C31.1305767,207.72512 31.2877493,207.849343 31.4638483,207.909798 C29.4913744,209.866727 28.2553895,212.442286 27.3987582,215.176851 C25.0625657,214.82323 23.1065496,214.377683 22.0244457,214.026545 C21.9396877,213.978512 21.8458779,213.955324 21.7471308,213.952839 C21.3718917,213.870852 21.1102118,214.120955 21.0410888,214.438138 C21.0057045,214.543313 20.9867779,214.656771 21.0106418,214.786791 C21.592427,217.99506 23.8817146,220.311407 26.0335791,222.607051 C26.3553302,222.950735 27.0572577,222.810777 27.1444843,222.3114 C27.4563607,220.535009 27.7739973,218.71307 28.2298798,216.935851 C29.8271146,217.180156 31.443276,217.318458 33.0553229,217.322599 C33.8156758,219.555303 34.8080844,221.681174 36.0498296,223.685307 C36.5007748,224.414911 37.6528246,223.744106 37.1977649,223.009534 C36.0761621,221.19836 35.1685114,219.296918 34.4575321,217.290301 C35.0426088,217.2638 35.624394,217.214939 36.2045334,217.151171 C36.606105,219.127975 37.4759027,220.91596 38.747272,222.500219 C39.2846209,223.171024 40.2210729,222.217818 39.6878384,221.553639 C38.5983284,220.195466 37.8906406,218.65013 37.5244533,216.97229 C39.0262326,216.72964 40.5049709,216.360284 41.9368042,215.830265 C45.3468717,214.568158 46.9910114,211.176038 45.3732043,207.634851 C43.5768295,203.706916 37.9548262,204.125962 34.6706613,205.663844" id="Fill-91" fill="#D1D1D1"></path>
            </g>
        </g>
    </g>
</svg>