<?xml version="1.0" encoding="UTF-8"?>
<svg width="163px" height="158px" viewBox="0 0 163 158" version="1.1" xmlns="http://www.w3.org/2000/svg" xmlns:xlink="http://www.w3.org/1999/xlink">
    <!-- Generator: sketchtool 52.1 (67048) - http://www.bohemiancoding.com/sketch -->
    <title>F2A65B8B-CFE3-4DA4-AD3B-5DDE6DA7B8DF</title>
    <desc>Created with sketchtool.</desc>
    <defs>
        <polygon id="path-1" points="0.424819852 0.279785 123.834565 0.279785 123.834565 22 0.424819852 22"></polygon>
        <polygon id="path-3" points="0 0.122147264 48.6574967 0.122147264 48.6574967 28.6275978 0 28.6275978"></polygon>
        <polygon id="path-5" points="0.395946415 0.0340639535 42.6050886 0.0340639535 42.6050886 92.591088 0.395946415 92.591088"></polygon>
        <polygon id="path-7" points="0.434192969 0.479981568 45.6599286 0.479981568 45.6599286 26.5252562 0.434192969 26.5252562"></polygon>
    </defs>
    <g id="Peeranha" stroke="none" stroke-width="1" fill="none" fill-rule="evenodd">
        <g id="Peerania_Tags" transform="translate(-319.000000, -1082.000000)">
            <g id="box_with_tags" transform="translate(319.000000, 1082.000000)">
                <g id="Group-89">
                    <g id="Group-3" transform="translate(21.000000, 136.000000)">
                        <mask id="mask-2" fill="white">
                            <use xlink:href="#path-1"></use>
                        </mask>
                        <g id="Clip-2"></g>
                        <path d="M24.4893502,3.579785 C11.1325467,7.246635 2.82996157,12.929785 1.74699214,14.946635 C0.664022707,16.962935 -2.40457118,19.529785 7.34215371,20.262935 C17.0888786,20.996635 37.4849834,22.646635 47.5923371,21.729785 C57.7002323,20.812935 86.037752,20.996635 92.5355686,20.629785 C99.0333852,20.262935 99.3945555,21.362935 106.614171,18.246635 C113.834328,15.129785 118.707691,12.379785 121.415114,10.362935 C124.122538,8.346635 124.664023,4.312935 122.498084,3.579785 C120.332145,2.846635 110.404564,0.279785 110.404564,0.279785 L24.4893502,3.579785 Z" id="Fill-1" fill="#C8D5FF" mask="url(#mask-2)"></path>
                    </g>
                    <path d="M39.7603852,81.8442999 C39.5342484,81.8767326 36.6180477,83.4702587 33.5866351,84.3983742 C28.6630681,85.9054132 23.0010732,87.0978551 23.0000014,87.9448889 C22.9951786,92.1146517 35.1385126,98.5325405 35.1385126,98.5325405 C35.1385126,98.5325405 23.2824046,110.087767 23.6982391,110.266688 C25.4725023,111.027775 33.5866351,111.365075 33.5866351,111.365075 L33.5866351,152.69243 L76.4674316,153 L112.148824,153 L131.568727,145.712915 L132.584199,106.313683 C132.584199,106.313683 142.094272,103.287713 142.446874,102.148785 C142.79894,101.009857 132.77229,90.8313983 132.77229,90.8313983 C132.77229,90.8313983 138.97712,84.8481075 140.303397,83.0367418 C141.630209,81.2253761 144.449417,77.0626403 142.088913,77.0026398 C139.727873,76.9426394 120.274746,77.9253499 120.274746,77.9253499 C120.274746,77.9253499 40.4516566,81.7453802 39.7603852,81.8442999" id="Fill-4" fill="#FFFFFF"></path>
                    <path d="M113.708138,25.8115821 C113.79581,25.9893171 123.175082,17.7857553 126.265906,14.2433325 C129.355668,10.7003758 132.051704,6.27194696 136.030402,7.10137669 C140.00857,7.93134016 147.106785,14.2374613 150.104093,16.4071086 C153.101401,18.5767559 159.181031,23.5079665 160.068374,24.9805512 C160.955718,26.4531359 163.076309,28.1306762 161.331377,30.6413824 C159.586977,33.1526224 147.503167,49.9034736 142.416086,56.3766549 C137.329537,62.85037 118.835601,87.1803088 117.289924,89.2154539 C115.744246,91.2505991 113.414837,94.521349 110.972783,94.9600821 C108.530729,95.3988152 101,92.0762927 101,92.0762927 L113.708138,25.8115821 Z" id="Fill-6" fill="#B8F9B9"></path>
                    <path d="M53.7037421,99 C53.7037421,99 16.698704,60.8223244 10.9294255,55.0654411 C5.15961331,49.3080237 -2.50536149,43.6606377 0.796629813,39.8298373 C4.09968851,35.999571 10.2462917,29.1103262 13.5733668,26.9257231 C16.9004419,24.7416541 20.5776231,18.514734 23.7200386,17.533532 C26.8624541,16.551796 27.3748045,16.9812387 29.0810379,18.3603696 C30.7872713,19.7389663 38.8626601,28.3507894 41.0663003,30.4686259 C43.2694069,32.5859283 47.5768857,35.1529705 47.5768857,35.1529705 L52.3097221,86.5205214 L60.7138691,90.774355 L65,98.2949447 L53.7037421,99 Z" id="Fill-8" fill="#F76F60"></path>
                    <path d="M62.2281735,89.7798482 C62.2281735,89.7798482 52.714503,91.8325467 52.2793467,83.4020109 C51.8436661,74.970943 47.9592406,33.3822506 47.8161109,30.4527126 C47.6729811,27.5226425 46.3030252,8.5849296 47.4616944,6.35026564 C48.6198393,4.11560169 49.8707827,2.94878786 53.2487491,2.52792615 C56.6267156,2.1075965 62.794401,1.64523389 66.8518405,1.35206726 C70.9098042,1.05890063 78.4374842,-0.167504228 80.7763183,0.0192498311 C83.1151525,0.205471827 84.6581224,0.728489606 85.3596153,2.7992782 C86.060584,4.8700668 85.848773,10.6716801 85.9536299,12.338633 C86.0579626,14.0050538 85.9536299,17.3969545 85.9536299,17.3969545 L62.2281735,89.7798482 Z" id="Fill-10" fill="#7699FF"></path>
                    <path d="M64.8051399,99.3645471 C64.8051399,99.3645471 59.8211783,98.8104665 60.0049606,94.5352125 C60.1892755,90.2604939 67.9134571,67.1068832 68.9788614,64.1624934 C70.0442658,61.2181036 79.2498921,28.69598 80.307306,25.2162466 C81.3641871,21.7365132 85.052617,15.329521 89.7196207,16.0570529 C94.3866245,16.7845849 102.847533,19.0924511 106.298378,20.3119639 C109.748157,21.5325473 116.499092,22.8628761 118.375269,26.5155255 C120.251446,30.1681749 117.45476,39.9381956 115.856653,43.0164213 C114.258547,46.094647 107.333418,71.2557961 106.667541,73.2633346 C106.001663,75.2708731 102.353186,89.4135803 101.180708,91.8445756 C100.008763,94.2755709 98.0111301,100 98.0111301,100 L64.8051399,99.3645471 Z" id="Fill-12" fill="#FDEFA9"></path>
                    <path d="M1.15934532,45.9146081 C18.9011594,63.4565186 36.4927971,81.1479524 54.0817434,98.8409939 C54.5699515,99.3319016 55.3310608,98.5741031 54.8428528,98.0831954 C37.2539065,80.3901539 19.6622688,62.6987201 1.92099294,45.1568095 C1.42847876,44.6701893 0.666831142,45.4274519 1.15934532,45.9146081" id="Fill-14" fill="#4B4B78"></path>
                    <g id="Group-18" transform="translate(0.000000, 17.000000)">
                        <mask id="mask-4" fill="white">
                            <use xlink:href="#path-3"></use>
                        </mask>
                        <g id="Clip-17"></g>
                        <path d="M2.56841667,27.74894 C-0.83055,24.9517582 2.75625,21.2249945 5.15670556,19.2772491 C7.26425,17.5673036 9.33150556,15.8336309 11.2659167,13.93914 C14.6855722,10.5899036 17.5765722,6.64010364 21.2962167,3.59668545 C23.8355056,1.51923091 26.5081833,0.333921818 29.7176833,2.15723091 C31.92105,3.40897636 33.7547389,5.86870364 35.5361611,7.62610364 C39.52585,11.5627218 43.1638278,15.8489218 47.86565,19.0299582 C48.4416722,19.4196127 48.9866611,18.5058491 48.4155389,18.1198855 C42.3150389,13.9923945 37.5653056,8.05319455 32.3740278,2.94603091 C30.5365278,1.13854 27.9928833,-0.199678182 25.2771944,0.189976364 C23.2268167,0.484194545 21.4982056,2.00063091 20.0047944,3.29192182 C15.30515,7.35508545 11.6486611,12.4327218 6.89293889,16.4811218 C3.85385,19.0684491 -3.33880556,24.2668309 1.79857222,28.4945036 C2.32995,28.9316127 3.10360556,28.1892127 2.56841667,27.74894" id="Fill-16" fill="#4B4B78" mask="url(#mask-4)"></path>
                    </g>
                    <path d="M21.1548649,28.9731774 C27.8361418,36.1930429 34.7918121,43.1518816 42.0167415,49.8435053 C42.5518369,50.3385561 43.3601847,49.5447872 42.8233779,49.0474862 C35.5984485,42.356425 28.6427783,35.3970237 21.9615013,28.1777208 C21.4651974,27.6416034 20.6602724,28.4393102 21.1548649,28.9731774" id="Fill-19" fill="#4B4B78"></path>
                    <path d="M17.1670335,34.8956221 C26.3624415,43.3387577 35.6674826,51.6618386 45.0779198,59.86274 C45.5906001,60.3094921 46.3426724,59.5610098 45.8268143,59.1116016 C36.4163772,50.910169 27.1118657,42.5876193 17.915928,34.1444837 C17.4138403,33.6833889 16.6628273,34.4329336 17.1670335,34.8956221" id="Fill-21" fill="#4B4B78"></path>
                    <path d="M10.1848491,38.9363253 C17.6912541,45.320046 24.9821828,51.9562526 32.0521241,58.8409999 C32.5657406,59.3414628 33.3460849,58.5451181 32.8313663,58.0440915 C25.7614249,51.1593442 18.4704963,44.5231376 10.9646423,38.1388533 C10.4229202,37.6784048 9.63926936,38.4719317 10.1848491,38.9363253" id="Fill-23" fill="#4B4B78"></path>
                    <g id="Group-27" transform="translate(45.000000, 0.000000)">
                        <mask id="mask-6" fill="white">
                            <use xlink:href="#path-5"></use>
                        </mask>
                        <g id="Clip-26"></g>
                        <path d="M14.1248385,91.5082692 C12.8045179,91.422839 11.4252103,91.1633041 10.2228641,90.6112517 C7.24263333,89.2427459 6.93556923,85.5486994 6.60424872,82.7121994 C5.89640256,76.6493564 5.44600513,70.5497459 4.98292821,64.4647343 C4.16041538,53.6469959 3.01485128,42.8314203 2.28991538,32.0115192 C1.84062051,25.3063273 1.73753077,18.5540948 1.72044103,11.8359262 C1.71768462,10.8842983 1.70224872,9.92834477 1.7458,8.97671686 C1.97733846,3.97796686 6.11691538,3.79196686 10.212941,3.33778081 C15.308441,2.77221105 20.4348128,2.63811802 25.5435436,2.22772849 C28.3065692,2.00604244 31.0420308,1.5967343 33.7973385,1.32476337 C36.1016974,1.09767035 38.6673641,0.584548256 40.1596846,2.73382151 C42.7997744,6.53654826 40.6007103,11.449868 41.5274154,15.6770424 C41.6768128,16.3572401 42.7396846,16.069589 42.5908385,15.389932 C41.6696462,11.1865483 43.696159,6.74363547 41.4772487,2.79275756 C39.5356333,-0.666626163 36.3464667,-0.050230814 32.8210179,0.349885465 C26.5612103,1.06090291 20.3118769,1.39126919 14.0344282,1.89411802 C10.4395179,2.18176919 3.23260769,1.79571105 1.23917179,5.56058895 C-0.183135897,8.2473157 0.614017949,13.0016703 0.658671795,15.9295483 C0.724825641,20.2854087 0.830120513,24.6428913 1.02582564,28.9949669 C1.56608205,40.9892634 3.00327436,53.0046471 3.91950513,64.982182 C4.21113333,68.7941006 4.5193,72.6049378 4.87267179,76.4114494 C5.19351795,79.8735366 5.22494103,83.6205715 6.21008205,86.9831703 C7.34406923,90.8599727 10.177659,92.3339145 14.1248385,92.5896645 C14.8332359,92.6356238 14.8304795,91.5536878 14.1248385,91.5082692" id="Fill-25" fill="#4B4B78" mask="url(#mask-6)"></path>
                    </g>
                    <path d="M64.6058742,97.9232327 C55.6786986,98.5151503 63.1438727,81.7049027 64.4002383,77.7751237 C66.5451873,71.0653032 68.6906731,64.3560154 70.836159,57.645662 C72.8887597,51.2267389 74.9864608,44.8333892 76.7169165,38.3190985 C78.3206618,32.282178 79.6929996,25.5025634 83.0502877,20.138543 C84.619134,17.6307516 87.0615302,15.8784409 90.1396259,15.9620873 C93.3605393,16.0499958 96.913262,17.2647323 99.9741767,18.1667274 C102.935763,19.0394196 105.839901,20.083134 108.753702,21.0980782 C111.962804,22.2153161 115.567607,22.7603492 117.648664,25.6687905 C119.493481,28.2458432 118.527583,30.9331813 117.878997,33.8160492 C117.25672,36.5827713 116.491089,39.3137972 115.627204,42.0155203 C113.808158,47.7109293 111.56227,53.2683486 109.841479,58.9946588 C105.952651,71.9401265 102.892811,85.1775572 98.4702963,97.965855 C98.2458686,98.6158455 99.2826387,98.8950218 99.5059926,98.2492935 C101.802887,91.6066031 103.423813,84.7657189 105.5344,78.0660211 C107.731966,71.0903438 109.316382,63.9356526 111.596632,56.9898109 C113.732454,50.4808481 116.313372,44.1141373 118.080875,37.4890286 C118.822882,34.7073887 120.067973,31.2720288 119.997101,28.3785053 C119.953611,26.5835723 118.434697,24.6740919 117.186922,23.4934533 C115.260495,21.6713486 112.414344,21.2376664 109.976243,20.3964081 C106.282313,19.1214676 102.612008,17.7660775 98.8386155,16.7324859 C93.6445638,15.3099656 87.6005862,13.2038896 83.4153854,17.844396 C79.3670962,22.3325275 77.9485843,29.5964384 76.4237645,35.2476268 C74.3233789,43.0320629 71.9346736,50.6880992 69.4788546,58.3691761 C66.6901525,67.0918363 63.9014504,75.8144965 61.1122114,84.5371566 C60.0636293,87.8169451 58.1790809,91.8058625 59.3946415,95.2982298 C60.1790646,97.55082 62.1769007,99.150223 64.6058742,98.988791 C65.2915062,98.9435047 65.2968753,97.8774137 64.6058742,97.9232327" id="Fill-28" fill="#4B4B78"></path>
                    <g id="Group-32" transform="translate(117.000000, 7.000000)">
                        <mask id="mask-8" fill="white">
                            <use xlink:href="#path-7"></use>
                        </mask>
                        <g id="Clip-31"></g>
                        <path d="M1.3876119,16.0002519 C5.65520714,12.4757135 9.30946905,8.27929038 13.0102786,4.24071346 C15.068231,1.99348269 17.3014214,1.00902115 20.3439929,2.09732885 C23.0924929,3.07971346 25.33335,4.62754038 27.6831833,6.27454038 C31.6348024,9.04411731 35.4183024,12.0483865 39.22535,14.9934635 C42.50285,17.5283481 46.90735,21.7258096 43.1441119,25.6273096 C42.6693262,26.1195404 43.441469,26.8558096 43.9184452,26.3615019 C47.07985,23.0846365 45.5081833,19.4302904 42.6162071,16.5283096 C41.2203262,15.127425 39.6130643,13.9809635 38.01785,12.8002327 C35.24635,10.7503096 32.6238024,8.52644423 29.8232786,6.50611731 C26.2779929,3.94890577 20.0855167,-1.329075 15.1668024,1.10611731 C12.561231,2.39588654 10.9369929,5.13690577 8.97377857,7.11880962 C6.24006429,9.87644423 3.62792143,12.7763481 0.612730952,15.2655404 C0.0804452381,15.7058481 0.857516667,16.4374442 1.3876119,16.0002519" id="Fill-30" fill="#4B4B78" mask="url(#mask-8)"></path>
                    </g>
                    <path d="M101.283308,92.5622422 C103.351986,93.4309134 105.364651,94.4224593 107.433329,95.2916648 C108.613353,95.787972 109.486927,96.2009381 110.803211,95.8953538 C113.05339,95.372869 115.417208,93.3048332 116.899913,91.6305309 C119.517941,88.6751256 121.686255,85.2202077 124.013989,82.0366827 C126.610473,78.4856019 129.2969,75.0167937 132.074346,71.6035464 C137.462819,64.9816648 142.86691,58.3271948 148.025409,51.5279462 C152.728271,45.3297154 157.120913,38.9113786 161.892713,32.7628321 C162.315497,32.2184434 161.380526,31.685808 160.963128,32.2237858 C156.749294,37.6511109 152.817137,43.2745014 148.734716,48.7979893 C143.990922,55.2168604 138.886819,61.3947901 133.903357,67.6314859 C129.398153,73.2703693 124.973196,78.9140608 120.718969,84.743133 C118.587278,87.6638128 116.623084,90.8777894 113.690527,93.0751108 C111.579302,94.6569899 110.37558,95.2099263 107.574975,94.1900658 C105.613474,93.4752551 103.750533,92.4479152 101.827271,91.639613 C101.196058,91.3746308 100.64617,92.2945889 101.283308,92.5622422" id="Fill-33" fill="#4B4B78"></path>
                    <path d="M59.0009749,7.51005446 C60.0368952,27.168252 61.0285163,46.8290988 62.0254923,66.4899455 C62.0595687,67.1676317 63.0336648,67.1724004 62.9991017,66.4899455 C62.0021257,46.8290988 61.0105046,27.168252 59.9745842,7.51005446 C59.9390475,6.83236829 58.9649513,6.82759958 59.0009749,7.51005446" id="Fill-35" fill="#4B4B78"></path>
                    <path d="M65.0024539,7.52041995 C66.25643,22.4849579 66.3066487,37.5608877 68.0011574,52.4830424 C68.0787229,53.1682379 69.0741473,53.1763885 68.9955873,52.4830424 C67.3010787,37.5608877 67.25086,22.4849579 65.9968838,7.52041995 C65.9392069,6.82979076 64.9442797,6.82327027 65.0024539,7.52041995" id="Fill-37" fill="#4B4B78"></path>
                    <path d="M74.002428,7.50671074 C74.7809387,16.1581185 74.9386399,24.8581237 75.8859575,33.4952691 C75.9586999,34.1645409 77.0698268,34.1719362 76.9965291,33.4952691 C76.0492115,24.8581237 75.8915103,16.1581185 75.1129996,7.50671074 C75.0524735,6.83426954 73.9413465,6.82793074 74.002428,7.50671074" id="Fill-39" fill="#4B4B78"></path>
                    <path d="M73.1183434,89.6449076 C75.293228,84.4667533 76.6306314,78.9077897 78.1806133,73.5413581 C80.0430465,67.095258 81.8323884,60.6145872 84.0273592,54.2610301 C85.4283687,50.2050929 87.0369352,46.2092554 88.4770012,42.1634234 C90.0409318,37.7713529 92.0540112,33.2330218 92.9880176,28.6659705 C93.124715,27.997427 92.0495476,27.7112882 91.9122922,28.3835548 C90.9777279,32.9506061 88.9646485,37.4884053 87.4012758,41.8804758 C85.9617678,45.9263078 84.3526434,49.9221453 82.9516338,53.9780825 C80.7561051,60.3316396 78.9667632,66.8123104 77.1048879,73.2584105 C75.5543481,78.6248421 74.2175027,84.1838056 72.0420601,89.36196 C71.7753606,89.9975284 72.8538757,90.2735619 73.1183434,89.6449076" id="Fill-41" fill="#4B4B78"></path>
                    <path d="M102.976597,24.6730169 C102.977152,24.6719204 102.977152,24.6702756 102.977707,24.6691792 C103.161389,23.9740056 102.156965,23.7294887 101.907246,24.3775133 C99.3573409,31.0003022 97.2180842,37.8078493 94.8879315,44.5073924 C90.7758972,56.3275355 86.6683023,68.1498716 82.5912286,79.9815278 C81.0590658,84.4266911 79.5213537,88.8702096 78.0308106,93.329079 C77.8060638,94.0006781 78.8770795,94.2885062 79.1007164,93.6207449 C86.0029408,72.9777093 93.2830727,52.4525461 100.449999,31.898326 C101.289609,29.4920826 102.061517,27.0485586 102.977707,24.6691792 C102.620887,24.5721399 102.264066,24.4751007 101.907246,24.3775133 C101.907246,24.3786098 101.906691,24.3802545 101.906136,24.381351 C101.726339,25.0644632 102.796245,25.356129 102.976597,24.6730169" id="Fill-43" fill="#4B4B78"></path>
                    <path d="M102.860562,46.3761516 C97.1712551,62.877174 90.5567177,79.121715 84.0398755,95.3456508 C83.7772479,95.9985124 84.8880994,96.2810214 85.1484283,95.6335823 C91.6646958,79.4101887 98.2792332,63.1656477 103.969115,46.6640831 C104.197836,45.9992921 103.088709,45.7140718 102.860562,46.3761516" id="Fill-45" fill="#4B4B78"></path>
                    <path d="M111.907095,53.8394436 C122.153168,43.2847575 130.03908,30.818816 139.859725,19.9119046 C140.313479,19.4074507 139.560429,18.6620559 139.104003,19.1696593 C129.283357,30.0765707 121.396912,42.5425122 111.150839,53.0966734 C110.676241,53.5859044 111.430894,54.3297245 111.907095,53.8394436" id="Fill-47" fill="#4B4B78"></path>
                    <path d="M106.937381,73.8376569 C122.29129,58.3660853 134.126514,39.9296251 148.853249,23.9299495 C149.325422,23.4173937 148.548212,22.6560661 148.07328,23.1718387 C133.346545,39.1715143 121.510769,57.6079745 106.157412,73.07901 C105.664278,73.5760175 106.443143,74.3352006 106.937381,73.8376569" id="Fill-49" fill="#4B4B78"></path>
                    <path d="M109.919793,83.8380149 C126.650361,66.7077639 138.807777,45.6502261 154.855155,27.9330092 C155.319984,27.4192794 154.557882,26.6556852 154.090892,27.171569 C138.042432,44.8898629 125.886637,65.9452467 109.155529,83.0765746 C108.669622,83.5736109 109.433885,84.3355897 109.919793,83.8380149" id="Fill-51" fill="#4B4B78"></path>
                    <path d="M34.7326518,98.7119178 L35.4311736,98.9660941 C36.0508022,99.1910744 36.4331753,98.2344786 35.8745881,97.9196207 C33.8066641,96.7535013 31.7289504,95.583947 29.7980817,94.1997169 C28.216186,93.0650832 24.2836175,90.3636019 24.5041731,88.2477563 C24.6838423,86.5280593 30.5277001,85.9950906 32.1280234,85.5331081 C34.3882857,84.8810659 36.5661996,84.0246522 38.7020755,83.0468751 C39.3746835,82.7388868 38.7896067,81.7519501 38.1204539,82.0582211 C34.4827273,83.724106 30.8283006,84.6062808 26.9746254,85.5743259 C25.4491643,85.9578802 22.8140151,86.4353193 23.0103844,88.4698743 C23.2009951,90.4494722 26.3031691,92.9110891 27.6904231,94.0325559 C30.036489,95.9302908 32.6704864,97.4290147 35.2935424,98.9082747 C35.4409633,98.5590686 35.5889601,98.2110074 35.7369569,97.8618013 L35.0384351,97.6076251 C34.341065,97.3540213 34.0410403,98.4606039 34.7326518,98.7119178" id="Fill-53" fill="#4B4B78"></path>
                    <path d="M34.7118902,98.9659331 C39.5895575,97.4211907 44.5420483,96.0927222 49.581735,94.9775445 C50.3146518,94.8149663 50.0041637,93.8559035 49.2688903,94.0184818 C44.2286144,95.1336595 39.2767128,96.462128 34.3990455,98.0073675 C33.6949976,98.2301047 34.0001832,99.1916534 34.7118902,98.9659331" id="Fill-55" fill="#4B4B78"></path>
                    <path d="M117.557654,89.999964 C123.185572,89.9523892 128.814067,89.9048144 134.442562,89.8572396 C135.184946,89.8508106 135.186678,88.993607 134.442562,89.000036 C128.814067,89.0476108 123.185572,89.0951856 117.557654,89.1427604 C116.81527,89.1491894 116.812961,90.006393 117.557654,89.999964" id="Fill-57" fill="#4B4B78"></path>
                    <path d="M112.676654,98.9745079 C116.608774,97.8146583 120.540893,96.6542702 124.473562,95.4949591 C127.928379,94.4756484 131.516665,93.6517998 134.725416,91.9971026 C135.351017,91.6740247 134.796269,90.7440989 134.171217,91.0671767 C130.755397,92.8284897 126.834262,93.6733383 123.155349,94.75888 C119.565416,95.818037 115.974933,96.8766555 112.38445,97.9358125 C111.709415,98.1350439 111.997225,99.1748162 112.676654,98.9745079" id="Fill-59" fill="#4B4B78"></path>
                    <path d="M125.555352,78.2664138 C128.408417,78.0427552 131.26206,77.8342313 134.118018,77.6526138 C135.530662,77.5623656 136.943883,77.4777229 138.357105,77.3981251 C140.169641,77.2955448 143.141921,76.6055103 142.457301,79.4104921 C141.80451,82.0871085 138.903412,84.0243621 137.055575,85.9313461 C135.446169,87.5928102 133.994173,89.3781553 132.580951,91.1960123 C132.132447,91.7722555 133.137096,92.3316824 133.579813,91.7621657 C136.005787,88.643277 138.941029,86.1140848 141.504157,83.146544 C142.695153,81.7675961 144.614171,79.1879546 143.808022,77.2563064 C142.994927,75.3055996 139.993711,76.1845388 138.357105,76.2770292 C134.086189,76.5180648 129.819324,76.8106708 125.555352,77.1453179 C124.818069,77.2036149 124.811703,78.3247108 125.555352,78.2664138" id="Fill-61" fill="#4B4B78"></path>
                    <path d="M113.179032,98.9225774 C115.239802,100.746168 117.300047,102.570333 119.360291,104.393923 C120.912307,105.767925 122.506368,107.648861 124.360063,108.560657 C125.947292,109.340557 127.510344,108.958062 129.092318,108.372563 C131.684441,107.414891 134.231892,106.26167 136.762523,105.129094 C138.798066,104.217872 141.34499,103.476393 143.15769,102.139667 C143.792582,101.671153 144.163636,101.356899 143.929231,100.476644 C143.840409,100.144613 143.502991,100.00985 143.295916,99.7816148 C142.250026,98.6289678 140.996536,97.6850588 139.952749,96.5008716 C138.103259,94.4031686 136.376228,92.190201 134.456837,90.16418 C133.971208,89.6503632 133.226997,90.4606569 133.713677,90.9750472 C136.281099,93.6863483 138.492183,96.7933343 141.163142,99.38593 C141.533671,99.7454871 142.420312,100.181887 142.468664,100.794339 C142.52858,101.54786 141.535248,101.679755 140.844645,102.008345 C138.80227,102.980927 136.745705,103.918528 134.676,104.821722 C133.017819,105.545424 131.35228,106.253069 129.675703,106.925159 C127.282771,107.883405 125.332897,108.139166 123.194343,106.318443 C120.058251,103.649577 117.010982,100.845376 113.922192,98.1111368 C113.401875,97.6506514 112.65346,98.4569309 113.179032,98.9225774" id="Fill-63" fill="#4B4B78"></path>
                    <path d="M34.5237405,98.8840698 C60.8414275,99.0499964 87.1596566,99.0543318 113.476259,98.7882975 C114.173495,98.7812032 114.175664,97.9929534 113.476259,98.0000476 C87.1596566,98.2660819 60.8414275,98.2617466 34.5237405,98.09582 C33.8259621,98.0914846 33.8248778,98.8797344 34.5237405,98.8840698" id="Fill-65" fill="#4B4B78"></path>
                    <path d="M24.9677987,109.017695 C25.7895926,108.646361 26.759119,107.33574 27.4056369,106.706064 C28.4597966,105.679668 29.4929232,104.632864 30.5180372,103.578095 C31.9988687,102.054429 33.5663366,100.546195 34.8844118,98.8766833 C35.2775307,98.3779205 34.5739229,97.6690999 34.1762969,98.1728404 C32.0584625,100.855308 29.4763972,103.272964 27.0415637,105.665233 C26.3109134,106.383511 24.0378346,107.831018 24.0007762,108.964434 C23.9722313,109.851953 24.7359337,110.210346 25.4730943,109.87734 C26.0590168,109.612527 25.5507165,108.754377 24.9677987,109.017695" id="Fill-67" fill="#4B4B78"></path>
                    <path d="M24.5250882,110.999996 C49.8418773,110.931018 75.1581227,110.84801 100.474912,110.779421 C101.174214,110.777473 101.175845,109.998055 100.474912,110.000004 C75.1581227,110.068592 49.8418773,110.1516 24.5250882,110.220579 C23.8257865,110.222527 23.8241552,111.001945 24.5250882,110.999996" id="Fill-69" fill="#4B4B78"></path>
                    <path d="M112.015867,99.1668032 C109.92224,101.271142 107.858742,103.406103 105.555989,105.350809 C103.513757,107.075644 101.23168,109.295441 98.4143817,110.008266 C97.6871654,110.191994 97.9967197,111.161837 98.7280713,110.976603 C101.337425,110.316487 103.002756,108.758312 104.962873,107.221221 C107.838065,104.966285 110.329859,102.410658 112.851782,99.877118 C113.339743,99.3861725 112.507964,98.6728457 112.015867,99.1668032" id="Fill-71" fill="#4B4B78"></path>
                    <path d="M33,110.528043 L33,152.471957 C33,153.175468 34,153.176561 34,152.471957 L34,110.528043 C34,109.824532 33,109.823439 33,110.528043" id="Fill-73" fill="#4B4B78"></path>
                    <path d="M113.316189,152.487019 C113.894778,143.997536 113.765911,135.550668 113.92568,127.05213 C114.098599,117.846179 113.967759,108.714271 113.5542,99.5141799 C113.523298,98.8302057 112.208322,98.8270096 112.239224,99.5141799 C112.652784,108.713739 112.783624,117.846179 112.610705,127.05213 C112.450935,135.550668 112.579803,143.997536 112.001214,152.487019 C111.954532,153.172059 113.269507,153.169928 113.316189,152.487019" id="Fill-75" fill="#4B4B78"></path>
                    <path d="M134.037075,143.499477 C134.060409,131.197278 134.305677,118.781608 134.998962,106.498581 C135.037333,105.832771 133.99974,105.834843 133.961887,106.498581 C133.268603,118.781608 133.023335,131.197278 133.000001,143.499477 C132.998964,144.166323 134.036038,144.167359 134.037075,143.499477" id="Fill-77" fill="#4B4B78"></path>
                    <path d="M112.687719,153.971723 C119.443149,151.93084 125.855472,149.070385 132.610902,147.029502 C133.294868,146.822922 133.002301,145.820128 132.312158,146.028265 C125.556728,148.069148 119.144966,150.929603 112.389537,152.970486 C111.705009,153.177585 111.997576,154.17986 112.687719,153.971723" id="Fill-79" fill="#4B4B78"></path>
                    <path d="M33.5222025,153.517514 C59.8419961,152.891805 86.1574634,154.176156 112.477798,153.979235 C113.173256,153.974531 113.174878,152.630365 112.477798,152.635741 C86.1574634,152.831989 59.8419961,151.547639 33.5222025,152.173348 C32.8272851,152.189478 32.8245812,153.534316 33.5222025,153.517514" id="Fill-81" fill="#4B4B78"></path>
                    <path d="M60.0589431,125.0772 C61.1267432,127.690088 63.9914932,127.640387 64.9527937,124.925675 C65.2017602,124.221996 64.3969397,123.604988 64.1461047,124.314122 C63.4790799,126.198481 61.627946,126.331822 60.865632,124.465647 C60.5839682,123.775908 59.7768121,124.38746 60.0589431,125.0772" id="Fill-83" fill="#4B4B78"></path>
                    <path d="M78.05894,125.076947 C79.1267108,127.689875 81.9918492,127.64078 82.9526561,124.925421 C83.2020829,124.22173 82.3968174,123.605319 82.1459893,124.313859 C81.4789829,126.198246 79.6283669,126.331589 78.8660739,124.465385 C78.5839507,123.775636 77.7768168,124.387804 78.05894,125.076947" id="Fill-85" fill="#4B4B78"></path>
                    <path d="M62.1682669,130.075186 C67.7927972,135.362038 76.2986189,135.304243 81.8363096,129.922867 C82.3434302,129.430263 81.5563077,128.666511 81.0491871,129.159115 C75.9501474,134.114323 68.1429387,134.187242 62.9553894,129.310893 C62.4404755,128.826931 61.6522397,129.590144 62.1682669,130.075186" id="Fill-87" fill="#4B4B78"></path>
                </g>
            </g>
        </g>
    </g>
</svg>