<svg xmlns="http://www.w3.org/2000/svg" width="34" height="33" viewBox="0 0 34 33">
    <g fill="none" fill-rule="nonzero">
        <rect width="32" height="29" x="2" y="4" fill="#BDC0C9" rx="3"/>
        <rect width="31" height="28" x=".5" y="2.5" fill="#FFF" stroke="#576FED" rx="3"/>
        <rect width="2" height="5" x="8" fill="#576FED" rx="1"/>
        <rect width="2" height="5" x="15" fill="#576FED" rx="1"/>
        <rect width="2" height="5" x="22" fill="#576FED" rx="1"/>
        <path fill="#576FED" d="M7 10h4v3H7zM7 16h4v3H7zM7 22h4v3H7zM14 10h4v3h-4zM14 16h4v3h-4zM14 22h4v3h-4zM21 10h4v3h-4zM21 16h4v3h-4zM21 22h4v3h-4z"/>
    </g>
</svg>
