<svg width="591" height="358" viewBox="0 0 591 358" fill="none" xmlns="http://www.w3.org/2000/svg">
<path fill-rule="evenodd" clip-rule="evenodd" d="M334.174 196.495C333.86 200.926 333.816 206.299 332.756 210.584C331.258 216.638 324.527 220.739 319.27 223.186C317.934 220.707 317.232 217.803 315.73 215.435C314.976 214.246 313.296 213.364 312.681 212.28C311.424 210.065 312.897 209.976 314.267 208.271C316.051 206.053 317.266 203.265 318.211 200.566C320.478 194.09 321.018 187.085 322.693 180.439C324.315 174 325.465 163.804 329.975 158.738C330.216 158.468 330.299 158.168 330.297 157.878C330.935 157.928 331.544 157.935 332.048 157.92C332.158 157.916 332.267 157.906 332.376 157.897C332.386 157.987 332.377 158.072 332.409 158.171C336.478 170.406 335.074 183.808 334.174 196.495ZM328.53 152.077C329.214 150.771 330.11 149.616 330.786 148.312C331.772 149.17 332.638 150.042 333.265 151.3C333.595 151.964 334.339 153.151 334.252 153.905C334.062 155.582 331.671 155.394 330.583 155.242C329.997 155.16 328.378 155.105 327.957 154.638C327.478 154.106 328.238 152.634 328.53 152.077ZM334.651 157.201C336.033 156.419 336.98 155.03 336.658 153.174C336.13 150.117 334.051 147.74 331.818 145.868C331.288 145.425 330.662 145.505 330.216 145.822C329.737 145.668 329.214 145.792 328.942 146.416C327.765 149.111 325.229 151.383 325.327 154.552C325.374 156.082 326.458 156.938 327.816 157.405C324.123 161.952 323.206 168.814 321.728 174.328C319.566 182.398 318.702 190.969 316.125 198.885C314.643 203.433 312.576 205.398 309.971 208.984C309.364 209.82 308.459 210.483 308.642 211.655C308.849 212.984 310.589 213.744 311.425 214.5C314.484 217.273 315.253 221.168 317.228 224.695C317.469 225.128 317.834 225.289 318.204 225.297C318.553 225.749 319.146 226.033 319.793 225.742C325.074 223.372 330.357 219.811 333.714 214.857C336.274 211.079 335.708 205.338 336.221 200.903C337.846 186.879 339.324 171.053 334.813 157.488C334.775 157.373 334.708 157.293 334.651 157.201Z" fill="white"/>
<path fill-rule="evenodd" clip-rule="evenodd" d="M264.75 231.507C262.601 236.851 256.475 238.898 251.076 240.612C249.562 241.093 250.212 243.31 251.742 242.824C258.105 240.805 264.671 238.328 267.166 232.116C267.724 230.729 265.303 230.13 264.75 231.507Z" fill="white"/>
<path fill-rule="evenodd" clip-rule="evenodd" d="M327.535 264.785C324.275 262.469 322.62 258.345 323.342 254.24C323.626 252.621 321.294 251.928 321.008 253.556C320.078 258.847 322.101 264.015 326.313 267.008C327.611 267.93 328.825 265.702 327.535 264.785Z" fill="white"/>
<path fill-rule="evenodd" clip-rule="evenodd" d="M350.208 145.627C348.936 138.66 346.952 131.937 343.843 125.822C343.732 125.602 342.936 123.691 342.772 123.585C348.304 118.16 352.448 111.553 355.251 104.516C358.584 96.1508 360.185 87.3289 361.398 78.4416C363.098 65.9823 362.802 51.1251 351.193 43.184C339.994 35.5244 326.538 49.1683 320.425 57.1669C315.059 64.1904 310.574 71.9704 307.335 80.2099C303.631 89.6404 302.75 100.376 300.99 110.3C300.849 111.094 301.379 111.662 301.984 111.844C301.745 111.846 301.504 111.906 301.29 112.041C300.965 111.488 300.279 111.13 299.55 111.516C293.55 114.702 288.784 119.62 285.796 125.716C281.867 126.22 277.949 126.788 274.043 127.438C273.241 127.571 273.007 128.24 273.164 128.852C272.97 129.054 272.825 129.317 272.81 129.671C272.759 130.965 272.727 132.363 272.768 133.784L272.953 136.431C273.066 137.398 273.24 138.349 273.482 139.27C273.301 139.356 273.134 139.484 272.991 139.669C257.555 159.748 244.79 180.513 236.114 204.32C236.082 204.412 236.091 204.489 236.078 204.574C235.519 205.103 235.372 206.121 236.224 206.648C236.542 206.844 236.859 207.033 237.176 207.227C234.282 248.507 236.909 291.277 244.849 331.963C245.413 334.85 248.498 355.709 254.923 353.408C255.644 353.148 256.246 352.402 256.755 351.474C257.638 360.072 267.682 349.921 271.826 345.609C279.398 337.728 286.556 329.421 293.951 321.377C302.627 311.938 310.586 301.744 318.503 291.671C327.997 279.594 334.887 265.973 342.057 252.444C342.59 252.596 343.123 252.754 343.656 252.903C344.129 253.037 344.509 252.895 344.784 252.642C344.979 252.495 345.149 252.301 345.235 252.007C348.504 240.9 348.924 229.287 350.053 217.83C351.125 206.95 351.896 196.062 352.143 185.129C352.406 173.455 352.571 160.538 350.657 148.251C350.663 148.249 350.68 148.246 350.674 148.247C350.657 148.251 350.208 145.627 350.208 145.627Z" fill="white"/>
<mask id="mask0_2223_283252" style="mask-type:alpha" maskUnits="userSpaceOnUse" x="107" y="0" width="184" height="58">
<path fill-rule="evenodd" clip-rule="evenodd" d="M107.084 0.73999H290.715V57.2419H107.084V0.73999Z" fill="white"/>
</mask>
<g mask="url(#mask0_2223_283252)">
<path fill-rule="evenodd" clip-rule="evenodd" d="M290.715 57.242H118.805C118.805 57.242 107.084 57.242 107.084 48.1575C107.084 39.0731 156.573 39.9387 156.573 39.9387C156.573 39.9387 142.247 19.6064 175.24 4.46527C208.233 -10.6759 229.938 25.2297 229.938 25.2297C229.938 25.2297 244.264 14.4153 265.537 20.0386C286.808 25.6632 290.715 57.242 290.715 57.242Z" fill="white"/>
</g>
<mask id="mask1_2223_283252" style="mask-type:alpha" maskUnits="userSpaceOnUse" x="75" y="114" width="88" height="43">
<path fill-rule="evenodd" clip-rule="evenodd" d="M75.0176 114.37H162.02V156.584H75.0176V114.37Z" fill="white"/>
</mask>
<g mask="url(#mask1_2223_283252)">
<path fill-rule="evenodd" clip-rule="evenodd" d="M160.874 156.584H78.5038C78.5038 156.584 64.5584 127.814 92.4505 116.649C120.343 105.484 129.059 138.978 129.059 138.978C129.059 138.978 145.621 129.102 155.644 137.261C165.668 145.419 160.874 156.584 160.874 156.584Z" fill="white"/>
</g>
<path fill-rule="evenodd" clip-rule="evenodd" d="M367.214 48.2272C367.214 48.2272 363.157 53.0828 358.621 57.1526C354.202 61.1165 347.556 64.4637 347.556 64.4637C347.556 64.4637 350.545 75.8627 357.499 77.2602C364.455 78.6576 368.158 70.8974 368.824 68.3348C370.894 60.3785 367.214 48.2272 367.214 48.2272Z" fill="#C8D5FF"/>
<path fill-rule="evenodd" clip-rule="evenodd" d="M367.015 44.4005C367.015 44.4005 360.037 54.4904 345.315 60.8889C325.607 69.455 320.192 63.8877 310.329 66.2429C300.62 68.562 297.927 72.5605 297.927 72.5605C297.927 72.5605 297.817 68.3847 301.725 64.4955C301.725 64.4955 299.368 62.495 294.015 64.8514C294.015 64.8514 296.267 57.6768 305.678 53.609C305.678 53.609 300.953 54.1435 298.26 50.9314C298.26 50.9314 302.577 50.0756 305.235 48.4696C307.892 46.8635 308.778 45.3641 308.778 45.3641C308.778 45.3641 307.132 45.3217 304.342 44.4814C301.581 43.6514 300.953 40.5459 300.953 40.5459C300.953 40.5459 307.879 42.7379 314.092 39.7648C315.917 38.8911 331.696 28.4465 346.311 28.7678C360.926 29.089 367.015 44.4005 367.015 44.4005Z" fill="#C8D5FF"/>
<path fill-rule="evenodd" clip-rule="evenodd" d="M239.846 301.079C237.188 271.238 235.326 242.126 237.456 212.186C237.519 211.28 236.795 210.885 236.095 210.961C236.148 210.878 236.221 210.814 236.249 210.708C242.824 183.799 264.997 151.534 262.142 155.651C244.001 167.957 230.667 187.014 214.903 202.009C196.823 219.205 175.018 231.582 153.51 243.797C152.886 244.152 152.791 244.768 152.983 245.294C153.005 245.389 153.005 245.481 153.048 245.577C157.036 254.516 165.286 261.465 172.615 267.562C178.416 272.386 184.488 276.793 190.749 280.982C205.437 290.811 223.858 302.456 240.515 308.586C240.667 308.642 240.515 308.586 239.846 301.079Z" fill="#7699FF"/>
<path fill-rule="evenodd" clip-rule="evenodd" d="M338.758 258.979C332.052 271.46 325.791 284.44 316.996 295.66C309.99 304.598 302.947 313.551 295.339 321.996C290.795 327.039 291.263 326.472 292.188 327.363C292.741 327.894 293.36 328.182 293.36 328.182C301.875 330.76 310.424 333.203 319.068 335.335C319.127 335.349 319.178 335.335 319.236 335.342C319.253 335.345 319.271 335.342 319.289 335.344C319.418 335.356 319.548 335.371 319.662 335.348C320 335.304 320.325 335.124 320.546 334.74C334.921 309.971 347.315 281.601 352.663 253.458C358.1 224.866 359.77 193.556 351.912 165.289C351.746 164.686 352.4 165.317 351.912 165.289C352.489 177.211 352.278 175.908 351.711 195.513C351.421 205.501 351.248 216.5 350.265 226.444C349.691 232.255 346.333 251.027 346.333 251.027C346.333 251.027 340.437 253.347 338.758 258.979Z" fill="#7699FF"/>
<path fill-rule="evenodd" clip-rule="evenodd" d="M334.803 157.489C334.766 157.373 334.699 157.293 334.641 157.202C336.023 156.42 336.97 155.031 336.649 153.174C336.12 150.117 334.042 147.741 331.809 145.869C331.28 145.425 330.652 145.506 330.206 145.823C329.728 145.669 329.204 145.793 328.932 146.417C327.756 149.11 325.221 151.384 325.318 154.553C325.365 156.083 326.448 156.939 327.808 157.406C324.114 161.954 323.198 168.815 321.719 174.328C319.557 182.399 318.692 190.969 316.115 198.886C314.633 203.434 312.566 205.399 309.961 208.985C309.354 209.82 308.45 210.483 308.632 211.655C308.84 212.983 310.581 213.744 311.415 214.5C314.475 217.274 315.244 221.168 317.218 224.695C317.46 225.127 317.824 225.289 318.194 225.297C318.543 225.748 319.137 226.033 319.782 225.743C325.065 223.372 330.347 219.811 333.704 214.857C336.266 211.079 335.698 205.338 336.211 200.903C337.836 186.879 339.314 171.055 334.803 157.489Z" fill="#F76F60"/>
<path fill-rule="evenodd" clip-rule="evenodd" d="M301.468 108.4C304.271 93.1604 306.418 79.1586 314.612 65.5551C318.249 59.5194 322.604 53.4273 327.875 48.6097C333.435 43.5283 343.349 38.3777 350.362 43.6385C361.862 52.2668 360.059 67.6661 358.092 79.8387C356.967 86.8031 355.494 93.6676 352.868 100.264C350.062 107.324 346.144 116.317 340.299 121.5C339.037 122.617 340.917 124.425 342.175 123.311C348.249 117.926 352.014 109.215 355.014 101.948C358.46 93.5997 360.115 84.7972 361.369 75.9281C363.127 63.4954 362.82 48.6699 350.817 40.7461C339.239 33.1028 325.326 46.7178 319.007 54.698C313.454 61.7072 308.819 69.4709 305.471 77.6919C301.639 87.1029 300.73 97.8165 298.91 107.718C298.614 109.331 301.169 110.022 301.468 108.4Z" fill="#4B4B78"/>
<path fill-rule="evenodd" clip-rule="evenodd" d="M278.796 143.278C274.183 140.87 274.463 134.212 274.644 129.717C274.708 128.129 272.242 128.131 272.178 129.717C271.958 135.161 272.02 142.522 277.551 145.408C278.957 146.143 280.206 144.013 278.796 143.278Z" fill="#4B4B78"/>
<path fill-rule="evenodd" clip-rule="evenodd" d="M273.735 128.504C277.641 127.775 281.558 127.128 285.488 126.57C287.113 126.34 287.135 123.44 285.488 123.673C281.331 124.263 277.183 124.939 273.048 125.711C271.414 126.015 272.108 128.808 273.735 128.504Z" fill="#4B4B78"/>
<path fill-rule="evenodd" clip-rule="evenodd" d="M289.225 125.415C292.226 119.401 296.945 114.642 303.057 111.513C304.617 110.713 303.233 108.428 301.672 109.227C295.188 112.549 290.043 117.694 286.857 124.08C286.096 125.607 288.459 126.951 289.225 125.415Z" fill="#4B4B78"/>
<path fill-rule="evenodd" clip-rule="evenodd" d="M301.462 111.073C305.466 119.53 314.765 128.856 323.734 131.846C331.421 134.407 341.933 134.672 345.042 125.662C345.598 124.051 343.054 123.359 342.502 124.959C338.777 135.753 322.877 129.632 316.935 124.865C311.772 120.723 306.597 115.784 303.737 109.74C303.01 108.204 300.738 109.543 301.462 111.073Z" fill="#4B4B78"/>
<path fill-rule="evenodd" clip-rule="evenodd" d="M291.599 115.571C292.776 122.829 297.82 127.768 303.111 132.515C309.71 138.436 316.74 143.829 324.056 148.838C324.717 149.291 325.84 148.855 325.988 148.056C326.313 146.294 326.687 144.34 327.569 142.76C327.895 142.193 328.221 141.624 328.547 141.057C329.689 139.084 330.627 139.091 331.361 141.078C333.727 143.001 335.447 147.193 337.002 149.766C337.34 150.328 338.217 150.658 338.801 150.236C343.051 147.164 346.802 143.281 349.75 138.953C350.704 137.554 348.426 136.242 347.479 137.63C344.822 141.53 341.31 145.2 337.473 147.974C338.072 148.131 338.672 148.288 339.272 148.444C336.732 144.238 334.267 140.007 330.842 136.446C330.365 135.95 329.457 135.934 328.983 136.446C326.005 139.652 324.242 143.063 323.452 147.359C324.095 147.099 324.738 146.838 325.384 146.576C318.909 142.143 312.669 137.401 306.757 132.241C301.258 127.44 295.361 122.437 294.136 114.874C293.866 113.215 291.331 113.919 291.599 115.571Z" fill="#4B4B78"/>
<path fill-rule="evenodd" clip-rule="evenodd" d="M238.148 205.501C246.634 181.427 259.216 160.422 274.303 140.133C275.297 138.796 273.097 137.49 272.116 138.809C256.874 159.305 244.271 180.501 235.704 204.804C235.146 206.391 237.594 207.076 238.148 205.501Z" fill="#4B4B78"/>
<path fill-rule="evenodd" clip-rule="evenodd" d="M327.082 146.404C325.827 149.053 323.119 151.289 323.224 154.407C323.326 157.455 327.958 157.787 330.398 157.719C333.091 157.645 335.856 155.907 335.32 153.049C334.756 150.044 332.537 147.707 330.153 145.864C328.835 144.847 326.943 146.625 328.272 147.651C329.654 148.72 330.869 149.671 331.7 151.208C332.052 151.86 332.846 153.029 332.755 153.77C332.549 155.42 329.999 155.234 328.835 155.085C328.211 155.004 326.483 154.95 326.035 154.491C325.524 153.968 326.334 152.52 326.645 151.972C327.487 150.491 328.647 149.223 329.379 147.679C330.076 146.208 327.784 144.921 327.082 146.404Z" fill="#4B4B78"/>
<path fill-rule="evenodd" clip-rule="evenodd" d="M325.971 155.709C321.898 160.358 320.97 167.706 319.426 173.562C317.243 181.839 316.372 190.629 313.769 198.748C312.274 203.414 310.187 205.429 307.557 209.107C306.945 209.963 306.032 210.643 306.217 211.847C306.427 213.209 308.183 213.988 309.025 214.764C312.113 217.608 312.89 221.603 314.883 225.222C315.691 226.69 317.866 225.364 317.055 223.891C315.63 221.304 314.93 218.221 313.371 215.722C312.61 214.503 310.916 213.599 310.294 212.487C309.024 210.215 310.512 210.123 311.895 208.375C313.695 206.101 314.923 203.242 315.876 200.474C318.164 193.832 318.709 186.645 320.398 179.829C322.037 173.226 323.198 162.768 327.749 157.572C328.842 156.324 327.069 154.455 325.971 155.709Z" fill="#4B4B78"/>
<path fill-rule="evenodd" clip-rule="evenodd" d="M318.013 225.739C323.814 223.323 329.618 219.694 333.306 214.647C336.12 210.797 335.495 204.949 336.06 200.428C337.844 186.14 339.469 170.016 334.513 156.194C333.945 154.61 331.301 155.289 331.874 156.891C336.344 169.358 334.801 183.011 333.811 195.938C333.466 200.453 333.418 205.928 332.253 210.293C330.531 216.752 322.501 221.033 316.63 223.478C315.019 224.148 316.411 226.405 318.013 225.739Z" fill="#4B4B78"/>
<path fill-rule="evenodd" clip-rule="evenodd" d="M236.241 206.373C252.829 216.39 269.3 225.368 287.276 232.818C306.346 240.722 326.003 247.102 345.935 252.573C347.561 253.019 348.254 250.546 346.63 250.1C327.53 244.857 308.66 238.798 290.341 231.321C271.724 223.723 254.696 214.504 237.564 204.159C236.124 203.289 234.807 205.506 236.241 206.373Z" fill="#4B4B78"/>
<path fill-rule="evenodd" clip-rule="evenodd" d="M342.856 125.623C353.034 143.61 352.352 166.697 351.726 186.335C351.408 196.34 350.627 206.304 349.544 216.266C348.279 227.909 347.824 239.745 344.131 251.027C343.606 252.631 346.387 253.316 346.912 251.716C350.584 240.502 351.055 228.778 352.324 217.209C353.53 206.224 354.395 195.231 354.672 184.194C355.158 164.823 355.384 142.056 345.348 124.315C344.506 122.827 342.017 124.138 342.856 125.623Z" fill="#4B4B78"/>
<path fill-rule="evenodd" clip-rule="evenodd" d="M236.867 205.214C233.762 247.431 236.487 291.209 244.81 332.839C245.397 335.775 248.611 356.987 255.303 354.647C257.426 353.904 258.569 349.249 259.258 347.516C261.908 340.847 264.086 333.988 266.28 327.166C272.547 307.68 278.276 288.032 284.227 268.453C284.718 266.838 282.137 266.149 281.649 267.759C277.032 282.945 272.539 298.166 267.84 313.33C264.044 325.582 260.696 338.415 255.286 350.115C255.112 350.493 254.793 351.534 254.41 351.805C253.412 352.511 255.034 352.379 253.991 351.74C252.521 350.836 251.667 347.89 251.126 346.458C248.959 340.72 247.807 334.572 246.708 328.572C243.541 311.287 241.803 293.735 240.269 276.249C238.177 252.398 237.782 229.127 239.541 205.214C239.664 203.538 236.99 203.546 236.867 205.214Z" fill="#4B4B78"/>
<path fill-rule="evenodd" clip-rule="evenodd" d="M340.323 250.835C333.79 263.239 327.69 276.138 319.122 287.288C312.296 296.169 305.248 304.904 298.022 313.459C292.736 319.717 287.052 325.613 281.643 331.764C277.772 336.169 273.885 340.569 269.804 344.777C268.076 346.559 266.329 348.363 264.439 349.974C261.051 352.867 259.669 352.597 260.238 347.535C260.425 345.894 257.87 345.907 257.685 347.535C255.988 362.604 267.97 350.415 272.584 345.579C280.119 337.687 287.241 329.367 294.597 321.31C303.228 311.856 311.147 301.645 319.025 291.555C328.5 279.419 335.368 265.727 342.528 252.133C343.296 250.672 341.094 249.371 340.323 250.835Z" fill="#4B4B78"/>
<path fill-rule="evenodd" clip-rule="evenodd" d="M249.307 242.811C255.668 240.387 262.233 237.415 264.731 229.96C265.288 228.296 262.866 227.577 262.313 229.229C260.166 235.643 254.04 238.099 248.64 240.156C247.126 240.733 247.777 243.393 249.307 242.811Z" fill="#4B4B78"/>
<path fill-rule="evenodd" clip-rule="evenodd" d="M321.008 253.556C320.078 258.847 322.101 264.015 326.313 267.008C327.611 267.93 328.825 265.702 327.535 264.786C324.276 262.469 322.62 258.345 323.342 254.241C323.626 252.622 321.295 251.927 321.008 253.556Z" fill="#4B4B78"/>
<path fill-rule="evenodd" clip-rule="evenodd" d="M262.926 150.65C244.572 162.987 231.363 181.086 215.433 196.147C197.204 213.382 175.218 225.786 153.53 238.029C152.073 238.852 153.382 241.106 154.843 240.282C175.413 228.67 196.201 216.912 213.913 201.078C231.225 185.603 244.81 165.961 264.238 152.903C265.62 151.974 264.32 149.712 262.926 150.65Z" fill="#4B4B78"/>
<path fill-rule="evenodd" clip-rule="evenodd" d="M294.936 320.821C303.759 323.419 312.616 325.877 321.572 328.017C323.22 328.411 323.924 325.977 322.275 325.584C313.318 323.444 304.461 320.985 295.638 318.389C294.012 317.909 293.315 320.344 294.936 320.821Z" fill="#4B4B78"/>
<path fill-rule="evenodd" clip-rule="evenodd" d="M153.023 239.981C157.074 248.759 165.455 255.585 172.901 261.57C178.792 266.307 184.961 270.635 191.321 274.749C206.24 284.4 221.987 295.19 238.907 301.21C240.493 301.775 241.176 299.306 239.603 298.746C223.34 292.958 208.156 282.52 193.787 273.279C187.705 269.368 181.773 265.314 176.105 260.841C168.383 254.747 159.452 247.723 155.284 238.691C154.593 237.193 152.336 238.492 153.023 239.981Z" fill="#4B4B78"/>
<path fill-rule="evenodd" clip-rule="evenodd" d="M351.875 156.913C359.715 185.592 357.945 217.784 352.211 246.745C346.764 274.248 334.807 301.86 320.968 326.104C320.133 327.567 322.382 328.886 323.217 327.423C337.502 302.399 349.817 273.735 355.133 245.301C360.533 216.412 362.194 184.779 354.387 156.217C353.944 154.598 351.429 155.285 351.875 156.913Z" fill="#4B4B78"/>
<path fill-rule="evenodd" clip-rule="evenodd" d="M352.005 145.43C369.271 137.71 383.843 125.122 396.243 111.271C401.809 105.053 406.994 98.4917 411.709 91.6361C413.782 88.6217 415.767 85.5482 417.621 82.4014C418.922 80.1946 425.189 65.5189 430.187 71.9566C431.2 73.2606 433.491 71.9797 432.466 70.659C427.755 64.5917 422.018 68.9011 419.143 74.0682C414.634 82.1737 409.973 89.9591 404.329 97.3934C390.211 115.989 372.482 133.458 350.675 143.209C349.133 143.899 350.472 146.116 352.005 145.43Z" fill="#4B4B78"/>
<path fill-rule="evenodd" clip-rule="evenodd" d="M272.955 131.027C258.765 135.504 245.82 143.675 233.742 152.153C226.225 157.427 218.956 163.046 211.874 168.884C203.882 175.473 192.765 190.04 181.511 181.783C180.168 180.797 178.874 183.034 180.203 184.01C186.484 188.618 193.313 187.384 199.355 182.977C208.685 176.168 216.984 167.781 226.24 160.796C240.606 149.957 256.289 138.99 273.643 133.513C275.229 133.014 274.551 130.523 272.955 131.027Z" fill="#4B4B78"/>
<path fill-rule="evenodd" clip-rule="evenodd" d="M81.547 238.013C90.6817 236.783 99.9881 235.636 108.638 232.326C117.34 228.995 125.14 223.744 132.826 218.605C134.225 217.668 132.905 215.409 131.492 216.353C123.621 221.616 115.607 227.077 106.61 230.303C98.3494 233.265 89.5065 234.332 80.8459 235.499C79.1689 235.724 79.8819 238.237 81.547 238.013Z" fill="#4B4B78"/>
<path fill-rule="evenodd" clip-rule="evenodd" d="M130.187 237.985C140.667 235.42 149.92 231.653 157.396 223.337C158.544 222.06 156.701 220.134 155.548 221.415C148.381 229.389 139.514 232.911 129.492 235.364C127.857 235.764 128.549 238.386 130.187 237.985Z" fill="#4B4B78"/>
<path fill-rule="evenodd" clip-rule="evenodd" d="M115.209 257.491C122.139 257.134 127.733 256.024 132.996 252.045C134.251 251.094 132.391 249.541 131.139 250.489C126.425 254.053 121.392 254.972 115.209 255.29C113.531 255.376 113.52 257.578 115.209 257.491Z" fill="#4B4B78"/>
<path fill-rule="evenodd" clip-rule="evenodd" d="M236.208 213.722C267.226 234.824 302.339 248.261 338.636 257.448C340.261 257.859 340.954 255.364 339.329 254.952C303.249 245.82 268.356 232.464 237.522 211.487C236.135 210.543 234.83 212.785 236.208 213.722Z" fill="#4B4B78"/>
<path fill-rule="evenodd" clip-rule="evenodd" d="M325.833 101.433C327.713 105.111 330.699 109.725 334.411 111.159C337.924 112.515 339.865 109.461 342.274 107.165C343.501 105.998 341.737 104.013 340.518 105.171C339.75 105.905 339.087 106.859 338.282 107.53C336.529 108.998 334.886 108.535 333.29 107.149C331.077 105.225 329.369 102.73 327.978 100.01C327.176 98.4397 325.03 99.858 325.833 101.433Z" fill="#4B4B78"/>
<path fill-rule="evenodd" clip-rule="evenodd" d="M334.992 78.0394C332.897 76.8022 328.892 77.7357 326.564 78.2624C324.962 78.626 325.657 80.1718 327.279 79.8041C328.28 79.5771 329.293 79.3837 330.338 79.2414C330.974 79.1551 332.529 78.8402 333.088 79.1703C334.318 79.896 336.222 78.7667 334.992 78.0394Z" fill="#4B4B78"/>
<path fill-rule="evenodd" clip-rule="evenodd" d="M351.428 80.2449C348.639 79.4221 345.738 79.9205 343.325 81.7275C341.831 82.8446 343.227 85.5852 344.73 84.4617C346.542 83.1057 348.577 82.6737 350.688 83.2972C352.425 83.8082 353.167 80.7576 351.428 80.2449Z" fill="#4B4B78"/>
<path fill-rule="evenodd" clip-rule="evenodd" d="M210.05 108.657C209.674 108.461 209.175 108.548 208.833 108.824C204.91 109.307 200.597 109.338 196.708 109.143C197.456 106.105 198.587 103.183 200.451 100.58C203.998 95.6272 217.038 88.2518 220.733 97.9069C223.265 104.525 217.594 107.515 210.05 108.657ZM193.288 117.533C190.862 115.401 188.493 113.145 187.19 110.249C189.472 110.751 191.808 111.132 194.164 111.38C193.781 113.43 193.512 115.5 193.288 117.533ZM204.996 93.776C203.791 90.3759 203.224 86.8955 203.318 83.2744C203.351 81.9669 201.248 81.9669 201.214 83.2744C201.11 87.2799 201.763 91.1471 203.184 94.9014C202.563 95.3498 201.998 95.8321 201.457 96.3295C201.438 96.2604 201.435 96.1938 201.399 96.1235C199.712 92.8779 198.728 89.4465 198.45 85.8254C198.35 84.5292 196.247 84.5191 196.347 85.8254C196.651 89.8082 197.727 93.5788 199.581 97.1484C199.727 97.4273 199.941 97.5729 200.173 97.6307C197.29 100.846 195.662 104.826 194.659 109.019C190.74 108.735 187.468 108.253 185.826 107.84C185.774 107.826 185.731 107.838 185.682 107.832C185.678 107.832 185.674 107.832 185.672 107.831C185.374 107.797 185.123 107.872 184.931 108.028C184.645 108.216 184.475 108.538 184.524 108.936V108.955C184.532 109 184.519 109.04 184.533 109.089C185.842 113.881 189.679 117.115 193.363 120.348C194.078 120.974 195.07 120.502 195.159 119.63C195.429 116.975 195.704 114.243 196.198 111.561C198.748 111.741 201.311 111.758 203.854 111.573C203.855 111.575 203.854 111.576 203.855 111.578C205.304 114.855 207.117 117.92 209.304 120.789C210.097 121.832 211.924 120.819 211.12 119.764C209.116 117.134 207.441 114.331 206.058 111.359C206.975 111.25 207.886 111.109 208.791 110.945C209.66 113.855 211.223 116.472 213.398 118.693C214.33 119.645 215.817 118.207 214.887 117.256C212.979 115.309 211.673 113.035 210.891 110.509C213.187 109.971 215.438 109.253 217.603 108.306C223.091 105.905 225.32 100.022 221.642 94.8989C218.017 89.8522 210.084 91.0316 204.996 93.776Z" fill="#A5BCFF"/>
<path fill-rule="evenodd" clip-rule="evenodd" d="M134.164 344.001C133.865 343.828 133.461 343.873 133.132 344.072C129.205 344.3 124.914 344.012 121.057 343.508C121.86 340.948 122.903 338.484 124.397 336.25C127.793 331.174 142.144 322.371 145.441 333.035C147.759 340.532 141.844 343.357 134.164 344.001ZM116.999 352.03C114.793 349.607 112.66 347.054 111.598 343.946C113.796 344.65 116.06 345.232 118.358 345.676C117.814 347.795 117.379 349.937 116.999 352.03ZM130.376 328.087C129.448 324.415 129.177 320.709 129.557 316.911C129.693 315.55 127.619 315.559 127.485 316.911C127.071 321.065 127.422 325.127 128.503 329.136C127.875 329.539 127.278 329.971 126.718 330.436C125.291 326.822 124.57 323.105 124.577 319.199C124.579 317.829 122.508 317.826 122.506 319.199C122.497 323.297 123.225 327.23 124.731 331.028C124.863 331.366 125.107 331.564 125.382 331.66C122.31 334.774 120.385 338.871 119.051 343.222C115.413 342.66 112.367 341.951 110.681 341.392C110.549 341.316 110.403 341.279 110.249 341.275C109.665 341.144 109.258 341.542 109.15 342.047C109.095 342.214 109.065 342.395 109.103 342.602C110.009 347.706 113.574 351.391 116.925 355.044C117.426 355.591 118.519 355.368 118.655 354.573C119.141 351.747 119.635 348.848 120.345 346.021C122.833 346.409 125.35 346.63 127.86 346.636C129.044 350.188 130.59 353.571 132.524 356.759C133.226 357.92 135.02 356.853 134.311 355.684C132.565 352.803 131.151 349.777 130.044 346.585C130.955 346.543 131.861 346.465 132.764 346.363C133.39 349.508 134.744 352.353 136.724 354.874C137.561 355.941 139.02 354.425 138.189 353.368C136.492 351.207 135.39 348.748 134.82 346.079C137.159 345.693 139.462 345.105 141.691 344.262C147.002 342.254 149.563 336.857 147.043 331.223C144.246 324.973 135.49 325.64 130.376 328.087Z" fill="#A5BCFF"/>
<path d="M475.461 118.442C472.732 95.6616 456.213 87.1755 445.513 98.7781C423.338 122.822 396.978 138.718 391.382 153.336C385.376 169.024 400.289 157.421 406.85 169.721C417.893 190.42 433.487 153.264 443.324 148.229C453.16 143.195 477.387 134.524 475.461 118.442Z" fill="white"/>
<path d="M478.88 122.74C478.394 99.8014 462.784 89.7399 451 100.24C426.58 121.999 398.791 135.24 391.791 149.24C384.279 164.265 400.256 154.177 405.582 167.06C414.547 188.74 433.701 153.288 443.983 149.24C454.265 145.192 479.224 138.932 478.88 122.74Z" fill="#B8F9B9"/>
<path d="M412.195 148.19C405.634 144.795 404.836 159.535 411.77 159.308C414.59 159.215 419.115 155.408 417.392 152.467" stroke="white" stroke-width="3" stroke-linecap="round"/>
<path d="M436.227 130.68C429.666 127.285 428.868 142.026 435.802 141.798C438.622 141.705 443.147 137.899 441.424 134.957" stroke="white" stroke-width="3" stroke-linecap="round"/>
<path d="M465.747 117.235C467.471 120.177 462.946 123.984 460.126 124.076C453.191 124.304 453.989 109.564 460.551 112.959C462.403 113.936 464.477 117.078 457.948 121.835" stroke="white" stroke-width="3" stroke-linecap="round"/>
<path d="M424.118 141.904C418.805 139.099 418.28 151.043 423.864 150.914C426.135 150.861 429.75 147.811 428.338 145.412" stroke="white" stroke-width="3" stroke-linecap="round"/>
<path d="M416.304 140.663C425.668 127.962 427.701 153.279 432.554 145.727" stroke="white" stroke-width="3" stroke-linecap="round"/>
<path d="M437.215 119.053C439.262 122.032 441.4 124.995 443.223 128.118C444.473 130.26 445.672 132.405 447.134 134.412" stroke="white" stroke-width="3" stroke-linecap="round"/>
<path d="M444.377 129.272C444.344 122.966 449.656 118.577 453.029 125.948C453.484 126.942 453.82 127.957 454.4 128.885" stroke="white" stroke-width="3" stroke-linecap="round"/>
<path d="M468.671 228.241C465.388 232.683 447.663 231.491 427.257 225.265C406.859 219.042 391.3 210.027 391.022 204.496L383.255 269.795C382.051 273.741 393.533 280.74 408.901 285.429C424.269 290.118 437.703 290.72 438.907 286.774L468.671 228.241Z" fill="white"/>
<ellipse cx="432.383" cy="215.309" rx="40.886" ry="10.2215" transform="rotate(13.6309 432.383 215.309)" stroke="#4B4B78" stroke-width="3" stroke-linecap="round"/>
<path d="M405.71 263.369C403.691 262.364 402.443 260.905 402.165 259.225C402.046 258.505 402.074 258.048 402.288 257.202C402.511 256.318 402.788 255.74 403.395 254.893C403.907 254.177 404.424 253.652 406.367 251.869C407.26 251.05 407.984 250.374 407.977 250.366L406.82 249.091C407.029 249.087 411.716 249.194 411.717 249.203C411.74 249.357 411.526 253.95 411.496 253.965L410.092 252.765C409.834 252.955 406.633 255.935 406.398 256.203C406.002 256.656 405.732 257.164 405.611 257.681C405.353 258.792 405.743 259.684 406.817 260.439L407.243 260.739L411.568 262.058L414.44 262.935C415.243 263.18 415.697 264.028 415.455 264.832C415.213 265.639 414.361 266.096 413.555 265.852L410.657 264.978C406.762 263.802 406.235 263.631 405.71 263.369ZM413.448 247.302C412.817 246.655 412.834 245.973 413.49 245.351C415.129 243.797 418.334 240.849 418.858 240.44C419.638 239.832 420.721 239.248 421.538 238.994C422.038 238.838 422.96 238.728 423.523 238.755C424.941 238.826 426.372 239.623 427.333 240.879C427.805 241.496 428.419 242.705 428.674 243.523C428.797 243.916 429.145 245.249 429.448 246.484C429.75 247.719 430.002 248.742 430.007 248.757L431.695 248.437C431.711 248.466 429.266 252.502 429.218 252.528C429.188 252.543 425.124 249.982 425.096 249.931L426.891 249.436C426.917 249.352 425.764 244.752 425.599 244.279C425.177 243.067 424.268 242.224 423.27 242.122C422.479 242.04 421.596 242.318 420.882 242.873C420.696 243.018 419.235 244.34 417.635 245.81C416.973 246.419 416.356 246.982 415.857 247.433C415.099 248.119 414.237 248.105 413.52 247.376C413.496 247.351 413.472 247.327 413.448 247.302Z" fill="#B8F9B9"/>
<path d="M417.368 265.538L421.717 263.371L421.278 264.999L424.206 265.858L427.134 266.718L427.693 266.698C428 266.688 428.424 266.625 428.634 266.558C429.909 266.157 430.558 264.914 430.324 263.323C430.291 263.099 429.821 261.13 429.28 258.949C429.112 258.271 428.94 257.646 428.785 257.107C428.521 256.188 429.093 255.238 430.034 255.066C430.874 254.913 431.687 255.446 431.886 256.277C432.02 256.834 432.182 257.503 432.366 258.249C433.449 262.626 433.532 263.023 433.569 263.964C433.709 267.605 431.538 269.895 428 269.837C426.925 269.819 426.818 269.795 423.555 268.855L420.423 267.952L419.807 269.781L417.368 265.538Z" fill="#B8F9B9"/>
<path d="M445.184 285.969C444.212 289.978 430.765 290.159 415.151 286.372C399.536 282.586 387.666 276.266 388.639 272.257" stroke="#4B4B78" stroke-width="3" stroke-linecap="round"/>
<path d="M393.3 214.74L388.268 273.786" stroke="#4B4B78" stroke-width="3" stroke-linecap="round"/>
<path d="M472.3 223.74L444.812 287.498" stroke="#4B4B78" stroke-width="3" stroke-linecap="round"/>
<path fill-rule="evenodd" clip-rule="evenodd" d="M393.038 315.731L473.233 307.35C473.233 307.35 483.709 276.242 455.348 267.558C426.989 258.874 422.114 294.325 422.114 294.325C422.114 294.325 404.926 285.819 396.046 295.258C387.166 304.697 393.038 315.731 393.038 315.731Z" fill="#EAECF4"/>
<path fill-rule="evenodd" clip-rule="evenodd" d="M394.538 315.54H475.17C475.17 315.54 488.822 285.689 461.517 274.104C434.214 262.52 425.681 297.272 425.681 297.272C425.681 297.272 409.47 287.026 399.657 295.49C389.845 303.955 394.538 315.54 394.538 315.54Z" fill="white"/>
</svg>
