<svg xmlns="http://www.w3.org/2000/svg" xmlns:xlink="http://www.w3.org/1999/xlink" width="191" height="161" viewBox="0 0 191 161">
    <defs>
        <path id="a" d="M0 .47h190.83V161H0z"/>
    </defs>
    <g fill="none" fill-rule="evenodd">
        <mask id="b" fill="#fff">
            <use xlink:href="#a"/>
        </mask>
        <path fill="#B8F9B9" d="M185.782 5.48c-6.97-6.398-17.888-6.956-24.784 0-30.304 30.568-60.751 61.672-83.94 98.18a274.46 274.46 0 0 0-3.138 5.079C60.706 91.429 44.47 76.448 26.227 64.5c-7.685-5.032-19.71-1.789-23.978 6.286C-2.377 79.542.335 89.39 8.537 94.76a178.659 178.659 0 0 1 9.341 6.564A174.28 174.28 0 0 1 45.2 128.639a173.728 173.728 0 0 1 14.99 23.682c2.827 5.394 9.18 8.68 15.133 8.68 5.687 0 12.645-3.228 15.132-8.68 8.732-19.14 20.03-36.93 32.744-53.655 19.067-24.377 40.823-46.456 62.583-68.406 6.462-6.518 6.996-18.358 0-24.78" mask="url(#b)"/>
        <path fill="#FFF" d="M67 85.829s4.992-3.07 10.439-5.332c5.446-2.263 8.984-3.842 11.041-9.51 2.056-5.667 2.936-9.989 1.235-18.017-1.703-8.029-2.658-16.53 3.252-17.988 5.91-1.46 6.45-1.826 9.082 2.729 2.631 4.555 3.625 10.79 3.916 15.911.29 5.122.034 15.027 2.44 15.846 2.405.818 17.175-.676 20.41.046 3.237.722 10.346 3.08 11.66 7.31 1.315 4.23.623 15.942.768 18.244.146 2.301 1.843 12.416-.38 17.332-2.223 4.914-3.25 9.237-6.282 10.296-3.033 1.059-17.28 4.235-26.777 4.88-9.499.645-23.05-.258-25.52.503-2.47.761-7.954 1.921-7.954 1.921L67 85.829z"/>
        <path fill="#DFE1DC" d="M70 86.727c.225 14.072 2.057 27.988 5.34 41.648.754 3.143 5.327 1.287 4.577-1.833-3.174-13.21-4.816-26.776-5.034-40.377-.051-3.242-4.934-2.669-4.883.562"/>
        <path fill="#DFE1DC" d="M73.461 129.993l33.578-2.225c5.309-.351 10.627-.674 15.904-1.335 4.481-.562 9.266-1.587 12.86-4.38 2.23-1.731 3.147-4.2.903-2.457-1.923 1.493-7.11 1.558-9.515 1.971-2.526.434-5.071.76-7.623 1.027-4.999.52-10.024.809-15.04 1.141l-31.573 2.092c-2.921.194-2.418 4.36.506 4.166"/>
        <path fill="#C8D5FF" d="M66.545 75.31s-16.33-.625-22.847-.1c-6.516.523-17.353 1.576-18.456 3.18-1.103 1.6 1.896 9.83 2.24 11.067.343 1.238 3.153 10.389 3.651 20.255.498 9.865-.629 30.175-.629 30.175s10.83.52 22.767-.676C65.21 138.013 75 133.598 75 133.598s-2.199-30.874-3.106-33.994c-.907-3.12-5.349-24.293-5.349-24.293"/>
        <path fill="#4B4B78" d="M68.02 76.792a329.247 329.247 0 0 1 7.542 57.562c.041.966 1.478.798 1.437-.168a329.385 329.385 0 0 0-7.542-57.561c-.206-.931-1.646-.778-1.436.167"/>
        <path fill="#4B4B78" d="M66.523 74.349c-9.848-.602-19.727-.437-29.544.589-2.422.253-4.906.453-7.298.925-1.13.224-2.248.51-3.133 1.297-2.755 2.45-1.212 5.893-.113 8.69 3.318 8.453 4.449 18.225 4.993 27.238.544 9.012.155 18.055-.954 27.01-.066.533.331.853.821.863 14.831.32 30.297-1.261 44.243-6.567.9-.342.36-1.742-.542-1.399-13.822 5.26-29.167 6.79-43.867 6.475l.821.863c1.943-15.698 1.775-31.886-1.917-47.322a98.39 98.39 0 0 0-1.415-5.288c-.572-1.915-1.811-3.92-2.106-5.883-.845-5.625 7.904-5.142 11.577-5.506 9.372-.932 18.8-1.078 28.2-.504.95.058 1.195-1.422.234-1.481"/>
        <path fill="#4B4B78" d="M70.4 85.088c1.627-1.554 3.882-2.095 5.932-2.83 2.207-.793 4.425-1.657 6.556-2.638 2.97-1.367 4.783-3.428 5.897-6.493 2.087-5.74 3.623-12.933 1.99-18.947-1.187-4.376-3.342-9.361-1.316-13.912 2.228-5.003 7.487-5.957 11.372-2.395 3.292 3.018 3.95 7.095 4.277 11.315.316 4.09.397 8.196.76 12.284.225 2.51.179 6.793 1.968 8.814 1.644 1.857 4.91 1.388 7.078 1.177 7.18-.698 14.915-2.26 21.281 2.038 2.687 1.814 4.944 4.443 5.338 7.761.262 2.207-.396 4.403-.556 6.6-.174 2.385-.115 4.782.01 7.168.278 5.295 1.002 10.693-.049 15.95-.624 3.125-2.204 7.49-4.438 9.963-1.906 2.112-4.624 2.777-7.31 3.302-2.95.577-5.924 1.068-8.895 1.537-5.489.867-11.004 1.555-16.545 1.992-5.622.443-11.255.615-16.893.658-3.328.025-7.484-.34-10.583 1.074-.89.405-.343 1.83.555 1.42 3.12-1.422 7.48-.956 10.845-.983 5.56-.042 11.117-.238 16.66-.687 5.4-.437 10.779-1.113 16.131-1.958 4.662-.736 10.268-.982 14.49-3.26 2.668-1.438 3.93-3.727 5.17-6.362 2.04-4.33 2.901-8.542 2.874-13.338-.032-5.703-1.003-11.402-.44-17.105.376-3.815 1.073-7.015-1.036-10.488-3.054-5.026-8.96-7.397-14.601-7.664-4.518-.215-8.923.674-13.408.973-1.38.092-3.706.366-4.66-.932-1.075-1.465-1.1-4.37-1.297-6.117-.501-4.43-.568-8.895-.883-13.338-.264-3.728-.622-7.465-2.812-10.627-1.735-2.503-4.656-4.925-7.845-5.036-3.7-.13-7.045 2.97-8.208 6.296-1.55 4.433-.146 9.365 1.291 13.581 1.53 4.491.633 9.748-.44 14.245-.99 4.147-2.154 8.12-6.326 10.073-2.617 1.224-5.37 2.238-8.104 3.17-1.826.623-3.6 1.403-5.012 2.752-.71.679.48 1.637 1.182.967"/>
        <path fill="#FFF" d="M64.352 130.942c5.25.806 6.554-7.077 1.296-7.884-5.25-.806-6.554 7.077-1.296 7.884"/>
        <path fill="#DFE1DC" d="M140.752 134.989c3.994.236 7.545-3.311 7.228-7.25-.079-.981-1.642-.99-1.561 0 .252 3.143-2.47 5.9-5.667 5.71-1.004-.06-1 1.48 0 1.54"/>
        <path fill="#DFE1DC" d="M150.736 128.113c3.578 6.112-3.547 10.324-8.222 11.418-.9.211-.52 1.659.38 1.448 3.201-.75 6.573-2.054 8.567-4.954 1.77-2.574 2.11-5.939.512-8.67-.482-.822-1.721-.069-1.237.758"/>
    </g>
</svg>
