<svg xmlns="http://www.w3.org/2000/svg" xmlns:xlink="http://www.w3.org/1999/xlink" width="150" height="167" viewBox="0 0 150 167">
    <defs>
        <path id="a" d="M.173.465H147.94v125.487H.173z"/>
    </defs>
    <g fill="none" fill-rule="evenodd">
        <path fill="#C8D5FF" d="M.086 148.62c-.845 2.915 4.56 6.669 16.212 5.736 11.652-.933 18.5 0 18.5 0s3.96 6.556 7.844 8.82c3.884 2.265 23.703 1.428 23.757 1.503.054.075 1.56 2.307 12.122 2.307s19.138.172 21.942-.687c2.805-.858 6.239-4.763 6.239-4.763s1.304 1.608 6.45 1.64c5.145.033 23.553-2.37 27.1-2.714 3.546-.343 8.715-.483 8.748-3.074.021-1.683-2.638-3.15-5.55-4.084-.706-.226.55 4.084-.95 4.084s-2.866-5.002-3.602-5.082c-3.499-.378-11.315-.378-19.308 2.05-.279.085-2.458 6.775-3.59 7.144-.757.247-1.224-5.59-1.224-5.59-2.776.59-5.71 1.674-6.445 1.478-1.348-.36-7.52-8.944-16.255-9.63-8.735-.687-17.233-.053-19.233.918-1.999.97-11.794 3.83-14.664 4.289-2.871.458-6.152-3.575-8.445-5.55-5.127-4.415-22.23-4.408-22.23-4.408C12.13 142.843.93 145.704.087 148.619z"/>
        <path fill="#FEF0A9" d="M56.56 36.55s-.015-2.675-.641-4.31c-.626-1.633-5.922-5.772-5.919-7.132.003-1.36.381-6.99 3.132-9.245 2.75-2.255 5.698-3.027 9.365-2.835 3.668.193 7.27 3.002 8.678 6.703 1.408 3.702 1.033 5.82-1.27 8.822-2.303 3.002-3.801 5.048-4.106 6.264-.304 1.217-.36 2.234-1.57 2.825-1.208.591-3.841.334-5.162.054-1.32-.28-2.507-1.145-2.507-1.145"/>
        <path fill="#C8D5FF" d="M36.702 42s-1.12 2.088-2.752 3.465c-1.631 1.377-3.067 2.254-2.942 3.38.124 1.127 1.873 2.942 4.12 3.63 2.248.69 2.872.502 2.872.502s-.874-3.193-.437-6.385c.352-2.568-.861-4.592-.861-4.592"/>
        <path fill="#C8D5FF" d="M36.927 40.905s.729 1.227-2.411 3.649c-3.14 2.422-7.628 4.684-10.237 5.417-2.61.733-5.024 2.103-5.338 2.932-.314.828-1.438-3.824-.688-6.501.75-2.677 4.079-7.648 7.596-8.795 3.517-1.147 6.406-.464 7.787.373 1.382.838 3.29 2.925 3.29 2.925M27.423 77.047c-.75-.2-1.735.259-1.732.962.003.703.072 1.883.072 1.883s-.81 4.257-1.662 6.537c-.852 2.28-3.086 6.605-4.595 7.9C17.996 95.624 18 96.854 18 96.854s.976 1.9 1.298 3.139c.322 1.238.74 2.007.74 2.007s2.326-1.596 3.03-2.17c.703-.576 2.127-1.78 2.615-5.286.49-3.505 1.181-8.375 1.118-9.735-.062-1.36.377-4.662.377-4.662s.72-.414.81-.846c.09-.432-.372-1.661-.308-1.865.065-.204-.257-.389-.257-.389"/>
        <path fill="#7699FF" d="M88.111 128.403l-7.27.148s-4.376-3.686-6.147-3.854c-1.771-.167-9.98.286-9.98.286s-2.408 3.963-3 6.082c-.593 2.118-1.367 8.674.255 14.24 1.621 5.567 2.507 9.936 2.686 12.021.18 2.087.57 6.998 1.653 6.638 1.083-.36 2.288-1.763 2.927-5.73.64-3.966 1.462-19.242 1.461-16.117 0 .268-.023-7.672 2.42-9.656 2.362-1.916 24.34-.702 24.34-.702s.858 12.2.617 14.423c-.241 2.224 2.051 17.575 3.835 17.8 1.783.227 1.726-1.824 2.025-3.318l3.284-16.39c.338-1.688 1.198-8.882.544-11.176-.652-2.293-1.864-6.924-3.444-8.043-1.582-1.12-6.306-1.29-8.187-.783-1.88.507-8.019 4.131-8.019 4.131"/>
        <path fill="#C8D5FF" d="M85.808 55.044c-5.712-.466-11.188 2.87-11.715 5.96-.526 3.088.983 6.996 9.438 6.996s9.232-3.34 9.232-3.34 1.795 1.321 1.365 1.952c-.432.632 2.331-1.329 1.805-4.099-.526-2.77-2.393-6.839-10.125-7.47"/>
        <path fill="#F76F60" d="M123.852 56.195s-1.636 5.148-8.848 4.007c-7.212-1.14-6.084-5.255-5.708-7.063.376-1.808 3.382-5.61 12.404-6.116 9.021-.507 12.53 7.603 13.407 10.645.877 3.041 5.012 12.546 1.503 15.714-3.508 3.168-9.522 3.618-9.522 3.618s.284-8.318-.593-13.253c-.877-4.935-2.643-7.552-2.643-7.552"/>
        <path fill="#FEF0A9" d="M113.313 80.79c-.382.31-4.08 10.915-4.808 17.653-.726 6.739-1.505 27.436-1.505 27.436l1.39 7.138s1.892 3.005 7.15 3.819c5.256.813 14.873-1.63 17.168-2.162 2.294-.531 9.66-1.655 13.44-2.326 3.78-.67 3.937-4.178 3.831-5.013-.106-.835-1.371-10.673-5.03-18.44-3.66-7.767-5.21-15.968-5.743-17.409-.532-1.44-3.878-8.176-5.263-9.903-1.384-1.728-2.139-2.583-2.139-2.583s-2.804 4.024-4.075 4.547c-1.27.522-4.37-1.954-4.37-1.954s-2.595 3.474-3.928 3.474c-1.334 0-6.118-4.277-6.118-4.277"/>
        <path fill="#F9F9F9" d="M133.084 92.923s-1.28.493-1.828-1.015c-.55-1.508-.2-2.919.914-3.372 1.114-.453 2.404-.937 3.165 0 .76.938.883 2.26.295 2.786-.59.526-2.546 1.6-2.546 1.6"/>
        <path fill="#B9FABA" d="M6.43 108s-1.737 23.397-1.832 25.228c-.095 1.831-.87 15.034-.497 15.803.374.77 1.078 2.39 2.328 1.867 1.25-.524 4.529-4.475 6.908-10.328 2.38-5.853 6.572-15.815 8.907-17.387 2.335-1.573 3.242-2.004 4.46-1.823 1.219.181 3.328 4.296 4.547 6.478 1.22 2.183 4.662 7.118 5.286 9.394.624 2.276 2.762 9.254 3.482 10.682.72 1.429 1.931 3.564 3.175 2.984 1.243-.58 2.609-1.5 3.17-6.65.56-5.149.683-14.127.622-15.658-.062-1.531-.374-6.1-.374-6.1s-4.13-5.494-4.92-6.716c-.79-1.223-1.988-3.391-2.159-4.203-.17-.811-.396-1.405-.396-1.405s-7.539-.159-14.952-.48C16.77 109.367 6.429 108 6.429 108"/>
        <path fill="#C8D5FF" d="M65 105.5a2.5 2.5 0 1 1-5 0 2.5 2.5 0 0 1 5 0M76.047 97.888L76 100.112c-.024 1.185.928 1.183.953 0L77 97.888c.024-1.185-.929-1.183-.953 0M78.017 96.762c-.04.895-.007 1.773.076 2.659.04.424.35.659.573.554.265-.124.365-.55.326-.975-.07-.741-.076-1.491-.044-2.238.046-1.018-.886-1.014-.931 0M82 96.834c.012.852.057 1.694.124 2.535.037.462.34.718.554.604.257-.135.351-.6.314-1.063a31.357 31.357 0 0 1-.092-2.076c-.015-1.11-.915-1.114-.9 0M84.001 96.82c.026.867.087 1.727.185 2.571.124 1.067.925.615.8-.453-.08-.7-.133-1.4-.155-2.118-.032-1.09-.863-1.097-.83 0M86 97.96c-.006.786.039 1.574.128 2.334.144 1.237 1 .713.855-.528-.07-.6-.1-1.186-.095-1.806.01-1.28-.878-1.28-.887 0M89 98.021l.046 1.958c.013.55.21 1.021.477 1.021.248 0 .49-.468.477-1.021l-.046-1.958c-.013-.551-.21-1.021-.477-1.021-.248 0-.49.468-.477 1.021M91.079 96.641c-.11.909-.106 1.821.018 2.724.152 1.113 1.038.641.885-.478a6.853 6.853 0 0 1-.017-1.769c.135-1.122-.75-1.601-.886-.477M94.002 96.906l.11 2.188c.025.487.186.906.443.906.22 0 .468-.416.443-.906l-.11-2.188c-.025-.487-.186-.906-.443-.906-.22 0-.468.416-.443.906M96.02 96.838a51.904 51.904 0 0 0-.012 2.322c.019 1.118.999 1.122.98 0-.014-.774-.01-1.548.011-2.322.031-1.119-.948-1.116-.98 0M77 102.84v2.32c0 1.119 1 1.121 1 0v-2.32c0-1.119-1-1.121-1 0M79.02 103.155c.083.572.085 1.114.005 1.688-.163 1.16.72 1.656.883.498a9.635 9.635 0 0 0-.004-2.684c-.166-1.153-1.05-.662-.883.498M82.027 102.856c-.04.764-.036 1.525.013 2.288.03.46.2.856.479.856.236 0 .508-.394.479-.856a19.668 19.668 0 0 1-.013-2.288c.025-.461-.237-.856-.479-.856-.28 0-.454.394-.479.856M85 102.84l.046 2.321c.022 1.116.976 1.121.954 0l-.046-2.322c-.022-1.116-.976-1.121-.954 0M88.002 102.807c.035.794.044 1.587.025 2.382-.025 1.082.938 1.08.963 0 .02-.795.01-1.588-.025-2.382-.048-1.071-1.012-1.08-.963 0M91.004 102.753c-.017.9.021 1.786.094 2.678.034.418.352.647.57.545.269-.124.36-.54.325-.96a22.7 22.7 0 0 1-.06-2.263c.018-1.005-.91-1.003-.93 0M94.007 103.034c.054.723.092 1.45.12 2.177.039 1.048.911 1.056.872 0a68.862 68.862 0 0 0-.151-2.613c-.034-.44-.33-.68-.537-.573-.25.13-.338.569-.304 1.01M96 101.883c.02.828.072 1.651.157 2.46.12 1.15.951.664.831-.488a24.235 24.235 0 0 1-.125-1.972c-.028-1.174-.89-1.18-.862 0M98.051 101.904l-.05 2.191c-.029 1.208.92 1.205.948 0l.05-2.19c.029-1.208-.92-1.205-.948 0M78 107.81v2.38c0 1.08 1 1.081 1 0v-2.38c0-1.08-1-1.081-1 0M82.036 107.863c.02.75.008 1.495-.034 2.241-.027.482.239.896.477.896.28 0 .45-.413.478-.896a27.52 27.52 0 0 0 .034-2.24c-.03-1.149-.985-1.155-.955 0M84.013 108.121c.075.668.095 1.332.076 2.015-.033 1.154.871 1.15.904 0a17.832 17.832 0 0 0-.108-2.492c-.127-1.128-1-.65-.872.477M86.01 107.863a30.11 30.11 0 0 0 .024 2.241c.024.482.206.896.482.896.243 0 .506-.41.483-.896a30.11 30.11 0 0 1-.024-2.24c.031-1.153-.933-1.15-.964 0M89.01 107.923c-.02.72-.009 1.437.035 2.154.03.495.197.923.476.923.234 0 .507-.425.477-.923a24.105 24.105 0 0 1-.036-2.154c.014-.498-.229-.923-.476-.923-.27 0-.462.423-.476.923M91 107.905l.047 2.19c.026 1.204.978 1.21.952 0l-.046-2.19c-.025-1.203-.978-1.21-.952 0M94.009 108.13c.055.664.066 1.336.052 2.005-.025 1.154.91 1.152.934 0a23.822 23.822 0 0 0-.085-2.48c-.04-.48-.35-.745-.575-.627-.266.14-.367.623-.326 1.103M97.001 106.823l.083 2.354c.04 1.093.954 1.101.915 0l-.083-2.354c-.04-1.093-.954-1.101-.915 0M78.007 113.316c.034.542.046 1.093.05 1.64.003.564.213 1.044.471 1.044.253 0 .476-.478.472-1.044a40.014 40.014 0 0 0-.083-2.195c-.035-.56-.358-.865-.58-.729-.273.166-.365.723-.33 1.284"/>
        <path fill="#C8D5FF" d="M79.023 113.944c.184.77.304 1.541.36 2.329.068.966 1.683.973 1.615 0a16.693 16.693 0 0 0-.418-2.73c-.228-.95-1.785-.549-1.557.4M82.016 114.186c.075.628.104 1.245.093 1.894-.02 1.227.87 1.226.889 0a17.863 17.863 0 0 0-.125-2.402c-.143-1.188-1-.684-.857.508M85 112.805c-.002.87.04 1.727.113 2.587.038.445.343.691.561.582.26-.13.356-.578.318-1.025a24.79 24.79 0 0 1-.08-2.144c.002-1.073-.91-1.074-.912 0M88.05 113.28c.107.503.144 1.1.101 1.64-.036.457.058.922.295 1.054.2.111.483-.14.52-.599a10.05 10.05 0 0 0-.188-2.958c-.09-.424-.397-.521-.577-.307-.216.255-.243.745-.152 1.17M90.01 113.24c.062.68.122 1.361.183 2.042.047.52.302.82.508.686.226-.148.335-.688.288-1.209l-.182-2.04c-.047-.52-.302-.822-.508-.687-.226.147-.335.688-.288 1.208M92.047 112.96L92 115.04c-.011.518.228.96.477.96.267 0 .464-.44.476-.96l.047-2.08c.011-.518-.228-.96-.477-.96-.268 0-.465.44-.476.96M96.007 113.119c.048.662.086 1.327.116 1.994.021.477.185.887.438.887.22 0 .459-.407.438-.887a87.187 87.187 0 0 0-.147-2.466c-.035-.475-.331-.736-.54-.62-.25.14-.34.616-.305 1.092M97 112.915c.01.714.03 1.426.062 2.137.023.51.2.948.468.948.236 0 .492-.435.469-.948a67.59 67.59 0 0 1-.063-2.137c-.016-1.218-.952-1.222-.936 0M100.017 113.29c.036.462.033.959-.007 1.42-.047.543.07 1.102.338 1.258.235.136.548-.169.595-.715.074-.85.075-1.655.008-2.507-.043-.545-.362-.85-.596-.714-.274.159-.381.711-.338 1.258M89 118.906v2.188c0 1.207 1 1.21 1 0v-2.188c0-1.207-1-1.21-1 0M91.008 119.132c.05.662.07 1.332.076 2.001.008 1.154.924 1.157.916 0a36.507 36.507 0 0 0-.109-2.479c-.036-.48-.346-.744-.563-.626-.263.14-.357.622-.32 1.104M94 116.887l.062 2.226c.032 1.179.97 1.187.937 0l-.06-2.226c-.033-1.179-.97-1.187-.938 0M97.108 118.607a29.62 29.62 0 0 0-.108 2.588c.006 1.072.924 1.075.917 0-.003-.717.017-1.435.076-2.145.036-.444-.062-.895-.32-1.024-.218-.109-.528.134-.565.581M100.002 118.88c.043.756.056 1.512.039 2.272-.025 1.132.926 1.13.952 0 .017-.76.004-1.516-.04-2.272-.026-.473-.199-.88-.475-.88-.237 0-.503.404-.476.88M102.062 117.09l-.061 1.82c-.019.57.23 1.115.469 1.09.27-.03.447-.48.468-1.09l.06-1.82c.02-.57-.228-1.114-.468-1.09-.27.03-.448.48-.468 1.09M80 124.933l-.049-1.866c-.014-.575-.208-1.067-.475-1.067-.246 0-.49.489-.475 1.067l.048 1.866c.014.575.207 1.067.475 1.067.246 0 .49-.489.475-1.067M82.978 126.709a5.823 5.823 0 0 1-.085-1.423c.042-.542-.063-1.098-.31-1.254-.214-.135-.503.167-.545.712-.065.846-.052 1.7.084 2.506.087.513.298.87.546.713.213-.135.397-.738.31-1.254M84.92 127.189c.094-.795.098-1.563.05-2.374-.036-.599-.355-.926-.576-.78-.27.176-.363.774-.327 1.373a7.04 7.04 0 0 1-.051 1.187c-.067.562.082 1.24.327 1.374.25.135.505-.179.576-.78M88.993 126.624a17.857 17.857 0 0 1-.008-1.532c.018-.57-.237-1.117-.488-1.091-.28.028-.468.48-.488 1.091-.023.714 0 1.404.043 2.112.035.585.37.904.6.763.282-.174.376-.756.341-1.343M90.891 123.854c-.02-.555 0-.88.086-1.411.09-.554-.097-1.283-.309-1.408-.259-.153-.447.207-.544.8a10.539 10.539 0 0 0-.117 2.02c.022.594.188 1.174.442 1.144.22-.026.466-.507.442-1.145M94.99 122.986l-.046-.4c-.048-.426-.358-.669-.595-.56-.27.122-.387.56-.338.987l.045.4c.048.427.359.67.595.561.27-.122.387-.56.338-.988"/>
        <path fill="#4B4B78" d="M82.97 86.998c1.258.054 2.195-1.134 2.006-2.536-.11-.82-1.205-.471-1.095.344.152 1.123-1.174.945-1.658.558-.592-.473-.902-1.301-1.187-2.028-.299-.757-1.277-.1-.98.653.546 1.389 1.416 2.946 2.913 3.01M94.783 102.557c.52-.222.01-.725-.517-.5-1.06.452-2.4.488-3.514.073-.552-.206-1.066.296-.518.5 1.386.516 3.22.494 4.549-.073"/>
        <path fill="#4B4B78" d="M92.564 103h-1.128c-.58 0-.582 1 0 1h1.128c.58 0 .582-1 0-1M76.51 115.857c.652-.019.655-.78 0-.76-7.675.218-15.35.186-23.02-.096-.654-.025-.652.736 0 .76 7.67.283 15.345.315 23.02.096M88.622 118.532A17.575 17.575 0 0 0 84.77 118c-.658-.02-.658 1.056 0 1.075.915.027 2.611-.183 3.109.816.227.455-.246 1.625-.497 1.835-.9.755-4.21.18-5.38.184a1809.57 1809.57 0 0 1-32.507-.148c-.658-.01-.659 1.066 0 1.075 12.867.17 25.735.207 38.602.111.301-.002.477-.246.511-.537l.39-3.36c.027-.224-.176-.47-.375-.519M28.487 65.371l.056-.003c.017-.001.03-.012.045-.015.214.198.645.762.753.865.267.254.533.49.855.634.508.226.998.187 1.488-.075 1.295-.694 2.048-2.494 2.306-4.064.117-.716-.807-1.022-.926-.303-.208 1.262-1.142 4.036-2.65 3.319-.664-.316-1.163-1.635-1.933-1.588a.537.537 0 0 0-.48.57l.006.091c.017.294.206.587.48.57M21.839 93.234c2.49-3.636 3.754-7.914 4.666-12.152.098.05.198.088.303.12a.49.49 0 0 0-.07.238c-.111 4.295-.461 8.58-1.156 12.825-.347 2.122-.73 3.952-2.592 5.345-.92.686-1.883 1.17-2.75 1.855a9.174 9.174 0 0 0-.446-1.651c-.26-.682-1.29-1.774-1.337-2.403-.074-.987 2.659-3.122 3.382-4.177m6.127-13.913c.032.464-.239 1.066-.813.937-.495-.113-.663-.608-.595-1.048.05-.324.216-.587.417-.829a.5.5 0 0 0 .376-.406l.023-.024c.016.166.243.419.321.564.132.244.25.527.27.806m-8.614 23.166c.046.402.555.712.89.358 1.31-1.381 3.248-1.961 4.523-3.37 1.035-1.144 1.406-2.625 1.678-4.085.86-4.593 1.218-9.29 1.338-13.95a.495.495 0 0 0-.038-.209c.25-.065.486-.192.688-.387.907-.873.608-2.252-.042-3.177-.282-.402-.715-.735-1.242-.655-.061.01-.109.035-.164.053a.474.474 0 0 0-.319.143c-.801.802-1.513 1.904-.994 3.018a.478.478 0 0 0-.082.185c-1.281 6.093-3.31 12.255-8.437 16.322-.232.185-.165.524 0 .717 1.265 1.487 1.98 3.123 2.201 5.037M12.204 113.137l-4.067 4.07c-.424.424.235 1.08.659.656l4.067-4.07c.424-.424-.235-1.08-.659-.656M53.863 15.86c2.438-1.736 7.091-2.421 10.058-1.716 2.965.706 5.786 4.46 6.676 7.188 1.114 3.417-.957 6.11-2.99 8.678-1.39 1.758-2.494 3.439-3.145 5.563-.473 1.546-1.129 1.607-2.778 1.676-.281-3.215-.839-6.573-.695-9.8 1.728.024 2.737-2.347 3.334-3.59.282-.585-.62-1.1-.903-.51-.288.6-.59 1.199-.955 1.759-.172.265-.462.868-.751.997-.68.303-1.573-.102-2.069-.504-.431-.35-.879-.676-1.358-.963-.598-.358-1.534-.588-1.93-1.174-.367-.543-1.273-.037-.903.51.593.877 1.645 1.108 2.525 1.669.655.417 1.257 1.115 1.975 1.51-.187 3.185.348 6.507.648 9.701a.491.491 0 0 0-.022.259l.028.153c-1.398-.031-2.77-.29-4.112-.684.025-1.991-.55-3.827-1.637-5.552-1.325-2.1-4.204-3.862-4.77-6.296-.658-2.828 1.476-7.236 3.774-8.873m9.913 22.259c.034.034-2.444.358-2.71.37a34.82 34.82 0 0 1-1.72.03c-.341-.002-1.415.098-1.72-.053-.295-.146-.42-.411-.54-.682 2.196.521 4.384.584 6.6.196.024.047.047.094.09.139m-.577 1.182c-.065.656-.41.917-1.035.783l-.556.021c-.647.033-1.296.05-1.945.075-1.06.04-2.447.316-2.592-.807.052.02.097.042.158.058 1.316.344 3.065.118 4.41.038.304-.017.916-.063 1.53-.18.012.003.019.01.03.012m-2.702 4.692c-.503-.002-.985-.164-1.415-.41a6.594 6.594 0 0 1-.544-.384c.312-.01.618-.032.895-.045.778-.036 1.896.073 2.84-.063-.38.556-1.02.904-1.776.902m2.635-3.007c-.03.228-.18.415-.475.554-.205.421-.53.587-.974.498-.386.09-.857.04-1.25.058l-1.25.059a8.546 8.546 0 0 1-1.146-.047c-.114-.318-.566-.488-.84-.232-.175-.118-.216-.283.012-.518.03-.03.042-.065.063-.097.418.06.885-.013 1.28-.028 1.018-.039 2.037-.075 3.056-.117.478-.02 1.024-.022 1.524-.13M55.437 37.1c-.018.295.187.448.42.476a.45.45 0 0 0 .09.27c.16.223.251.448.34.659a.514.514 0 0 0-.259.385c-.08.64-.073 1.386.336 1.883-.403.506-.434 1.151-.018 1.704.183.243.416.405.676.516.383 1.008 2.03 1.819 2.926 1.964 1.676.273 3.384-.758 3.67-2.41v-.004c.51-.503.663-1.365.515-2.04.105-.099.2-.211.28-.347.263-.452.22-.902-.013-1.249.486-.255.733-.624.394-1.156.068-.017.136-.028.204-.045a.517.517 0 0 0 .383-.488c.034-5.92 7.871-9.14 6.446-15.399-.585-2.565-2.554-5.172-4.512-6.943-2.086-1.887-4.508-2.013-7.244-1.798-2.416.19-4.968.528-6.94 2.008-2.008 1.508-3.073 3.935-3.748 6.237-.624 2.125-.573 3.991.815 5.818 2.477 3.261 5.53 5.455 5.24 9.96"/>
        <path fill="#4B4B78" d="M55.924 22.774c.717-1.03 1.143-1.459 2.257-1.384.26.017.48.146.745.11.777-.106.975-.722 1.73-.518.679.182.809.28 1.542.221.87-.07 1.443.733 2.273.64.702-.079.71-1.463 0-1.384-.402.045-.73-.61-1.092-.718-.455-.137-.617-.014-1.069-.01a1.08 1.08 0 0 1-1.046.023 25.54 25.54 0 0 0-.288-.457c-.199-.096-.336-.286-.579-.297-.291-.011-.342.19-.615.285-.611.21-1.335.293-1.924.411-1.152.23-1.958 1.012-2.715 2.1-.465.669.313 1.651.781.978M36.359 16.963c2.006.59 4.05.93 6.146 1.036.661.034.659-.94 0-.974a25.224 25.224 0 0 1-5.873-1c-.633-.187-.904.753-.273.938M41.268 7.981c1.94 1.04 3.906 2.027 5.902 2.961.63.295 1.183-.614.55-.91A120.988 120.988 0 0 1 41.82 7.07c-.614-.33-1.165.58-.55.91M52.148 5.526c.427.98.844 1.871 1.963 2.405.666.318 1.264-.548.599-.865-1.287-.614-1.623-2.287-2.083-3.36L51.183.341C50.925-.26 49.778 0 50.038.608c.704 1.639 1.397 3.281 2.11 4.918M66.328 7.66c.407-.986.816-1.972 1.222-2.958l.565-1.366c.142-.343.236-.977.5-1.348l.057-.024c.318-.134.419-.434.241-.663l-.048-.061c-.2-.26-.772-.333-1.056-.099-.786.647-.938 1.81-1.273 2.62a4890.03 4890.03 0 0 0-1.505 3.641c-.247.6 1.05.855 1.297.258M73.753 11.923l6.004-3.839c.498-.318.161-1.24-.385-1.061l-.461.15a.485.485 0 0 0-.316.328l-5.348 3.419c-.565.361-.06 1.364.506 1.003M74.196 17.66c.403.793 1.41.057 1.005-.742.332.653 3.74-.56 4.206-.66 1.387-.3 2.778-.574 4.172-.832.738-.136.424-1.553-.31-1.417-2.465.457-4.921.973-7.368 1.566-.808.196-2.47.58-1.705 2.084"/>
        <g transform="translate(2 39)">
            <mask id="b" fill="#fff">
                <use xlink:href="#a"/>
            </mask>
            <path fill="#4B4B78" d="M126.45 44.373c-1.937 1.595-3.276 1.605-4.783.247 1.728-.698 3.103-2.682 4.252-4.172.26.242.792.142.868-.287.618.574 1.21 1.171 1.787 1.782a.617.617 0 0 0-.034.23c-.666.76-1.335 1.578-2.09 2.2m-11.351 2.064c-1.211-.75-2.32-1.84-3.432-2.728a.53.53 0 0 0-.565-.068c.36-.778.74-1.553 1.145-2.326a.483.483 0 0 0 .255.182l.067.02c.084.024.16.026.23.014 1.142.523 2.242 1.574 3.434 2.076 1.058.446 2.368 1.057 3.58 1.227-1.122 1.608-2.645 2.884-4.714 1.603m-9.854 14.374c-.121.92-.229 1.84-.335 2.76a8.032 8.032 0 0 1-2.081.153c-5.56-.36-2.63-7.049-1.03-9.628 1.605-2.585 3.809-4.622 6.426-6.138-1.44 4.085-2.383 8.319-2.98 12.853m12.917-48.475c5.35 1.567 6.735 7.953 7.239 12.756.482 4.598.567 9.241.418 13.861-1.893 2.191-3.898 5.554-7.264 4.427-1.284-.43-2.595-.898-3.754-1.607-.688-.42-1.25-1.066-2.01-1.349-.02-.008-.043-.003-.065-.006a54.37 54.37 0 0 1 .882-1.547c.139-.236.064-.457-.092-.6-.008-.024-.006-.046-.017-.07-2.113-4.448-3.866-9.21-3.759-14.204.093-4.287 2.466-13.407 8.422-11.661m-15.471 100.796l-.996 4.947c-.134.665-.642 5.687-1.195 5.938-1.82.827-3.315-8.74-3.497-9.863-1.107-6.862-1.282-13.846-1.587-20.78a.55.55 0 0 0-.027-.65l-.002-.036c-.03-.654-1.054-.658-1.024 0l.003.057a39.743 39.743 0 0 1-9.785 1.765c-.046-.41-.093-.82-.135-1.23 1.58-.053 3.161-.124 4.742-.232.654-.045.659-1.065 0-1.02-1.614.11-3.228.18-4.842.235a90.956 90.956 0 0 1-.401-5.822c1.194-.012 2.741-.159 3.01-1.158.044-.164.006-.383-.131-.496l-.219-.18c-.503-.417-1.232.301-.724.72-.607-.5-2.852.102-3.77.054-.886-.046-1.763-.176-2.643-.282-2.188-.263-4.352-.427-6.558-.395-4.765.068-9.51.57-14.278.62-2.36.024-4.72-.01-7.08-.103-2.277-.09-4.787.111-6.71-1.172-.026-.248-.044-.496-.072-.744-.064-.569-.864-.64-1.005-.205-1.342-1.436-2.41-3.358-3.527-4.938-1.311-1.856-2.702-3.811-2.8-6.078.988 2.162 2.882 4.006 4.07 6.01 1.244 2.098 2.1 4.423 4.379 5.604.583.303 1.102-.577.516-.88-2.3-1.193-3.184-3.954-4.496-6.032-1.274-2.019-3.3-3.899-3.927-6.236 2.896.06 5.79.17 8.683.341.042.725.09 1.45.152 2.171.24 2.805.859 5.391 2.635 7.635.408.516 1.128-.211.724-.721-2.113-2.67-2.325-6.027-2.466-9.297-.072-1.68-.128-3.36-.191-5.04-.06-1.546-.472-3.525-.192-5.04.219-1.189-.018-2.006 1.865-2.274.653-.094 1.581.127 2.222.155 1.602.07 3.207.018 4.806-.066 3.209-.167 6.408-.532 9.623-.54 1.385-.004 4.093-.308 5.284.392.882.519 1.704 2.091 1.8 3.068.081.83-.097 1.818-.128 2.645-.113 3.004-.152 6.078.169 9.072.202 1.88.707 3.804 2.266 5.021 1.744 1.362 3.655.467 5.578.939-.09 2.86-27.325.73-30.098.433-.655-.07-.65.95 0 1.02 6.557.701 13.142 1.069 19.737 1.046 2.997-.011 6.542.334 9.475-.325 1.22-.274 2.043-.926 1.913-2.234-.005-.045-.023-.079-.037-.117.086-.252.01-.573-.314-.688-1.592-.563-3.147.01-4.728-.594-2.62-1-2.76-3.768-2.889-6.222a81.827 81.827 0 0 1-.079-6.37c.042-1.613.392-3.408.074-5.008-.352-1.769-1.396-2.43-3.035-2.755a.508.508 0 0 0 .225-.261A14.254 14.254 0 0 1 73 53.39a22.07 22.07 0 0 0 7.164 5.601c.25.123.551.067.7-.183a78.735 78.735 0 0 0 2.169-3.904 22.844 22.844 0 0 0 1.906 3.62c.14.216.465.346.7.182l6.28-4.369c.536-.373.025-1.258-.517-.88l-5.866 4.08a21.927 21.927 0 0 1-1.77-3.55c2.455-.45 4.557-2.651 6.456-4.096a7.08 7.08 0 0 0 .85 1.85c2.115 3.284 3.956 6.718 5.42 10.34 2.92 7.215 4.383 14.905 4.42 22.67-1.891-.812-4.286-.678-6.305-.382-3.525.518-6.693 2.095-9.338 4.448-.493.438.233 1.158.724.722 2.628-2.338 5.86-3.874 9.385-4.249 1.568-.167 3.622-.279 5.079.361.165.073.319.158.467.25.036.308.305.446.564.415 1.308 1.159 1.92 3.107 2.504 4.715 2.675 7.348.178 14.743-1.302 22.1m-8.37-17.89a48.165 48.165 0 0 1-9.514 1.201c-.038-.306-.074-.61-.11-.916a40.569 40.569 0 0 0 9.714-1.729c.021.48.042.96.061 1.44-.05-.003-.097-.01-.151.004m-9.413 10.305l.742 6.69-2.65.57c-.064-.008-.126-.024-.192-.028a4.522 4.522 0 0 0-.398-.01c.046-5.107.075-10.212-.343-15.307l-.002-.007c.614.018 1.23.022 1.845.018.338 2.7.7 5.394.998 8.074m.942 8.485a6.83 6.83 0 0 0-.912-.6l.825-.177.087.777M70.264 93.678a40.51 40.51 0 0 0 13.414 1.89l.106.89A48.039 48.039 0 0 1 70.036 94.5c.071-.274.148-.548.228-.822m-26.27 5.475c-.166 2.314-.409 4.622-.703 6.923-.165 1.285-.262 2.727-.629 3.991l-.369.998-3.048.417c-.603-.273-1.126-1.854-1.382-2.42-1.164-2.568-1.802-5.341-2.606-8.039a775.32 775.32 0 0 1 3.98-22.235c1.033 1.46 2.177 2.834 3.118 4.105.48.648.97 1.226 1.519 1.708.46 4.841.471 9.699.12 14.552m-10.557-2.921c-.959-1.891-2.453-3.412-3.566-5.204-1.14-1.838-1.705-3.976-2.915-5.774-4.83-7.177-11.034 3-13.032 7.195-1.893 3.973-3.34 8.141-5.265 12.1-.832 1.71-1.746 3.388-2.823 4.959-.426.62-.875 1.309-1.389 1.862-.752.809-2.002 1.295-2.866.112-.734-1.005-.371-3.778-.344-4.994.257-11.296 1.17-22.58 2.053-33.844 1.56.67 3.283.736 5.009.882 2.992.254 5.991.422 8.994.503 6.007.162 12.013-.041 18-.553.437-.037.577-.506.426-.795.253 0 .506.006.759.006.206 1.703.972 3.341 1.95 4.894a775.322 775.322 0 0 0-3.852 21.346 23.028 23.028 0 0 0-1.139-2.695m-.866-23.575c-4.419.309-8.846.456-13.277.393-2.669-.037-5.337-.144-8-.319-2.489-.163-5.628-.007-7.92-1.17l.08-1.006c.001-.021-.007-.036-.008-.056a250.95 250.95 0 0 0 29.125 2.158M6.968 47.638c.485-1.7.997-3.392 1.537-5.075.326-1.014 1.408-2.925 1.222-3.929-.117-.638-.998-1.077-1.115-1.706-.191-1.023.548-1.503 1.174-2.22.418-.478.945-1.453 1.49-1.706.936-.434 1.166.355 1.663 1.255.165.3.567.317.804.103l3.99-3.606c2.391.437 3.81 3.998 5.988 4.797-.692.45-1.067 1.405-2.288 1.227-.776-.114-2.153-1.49-2.857-1.918a44.196 44.196 0 0 0-3.015-1.66c-.585-.298-1.104.582-.516.88 1.28.651 2.534 1.342 3.744 2.116.833.533 1.765 1.518 2.711 1.817.602.19.844.126 1.424-.102.235-.093.351-.418.55-.546.98-.632.989-.866 1.817-.218 1.14.896.939 1.782 2.436 1.183 2.284-.912 4.292-2.913 5.77-4.8a.53.53 0 0 0 .088-.506l1.628 2.455c.117.177.36.313.579.235a19.53 19.53 0 0 0 2.36-1.026c.565 1.04 1.395 2.54.623 3.543-.197.256-.794.442-1.028.65-.64.57-.988 1.239-1.138 2.079-.44 2.464 1.257 5.421 1.897 7.757 1.862 6.81 2.551 13.847 2.194 20.889-1.118-.036-2.236-.075-3.355-.094-.346-.006-.516.29-.498.589a.413.413 0 0 0-.298.339c-.08.412-.119.82-.126 1.226a248.691 248.691 0 0 1-34.061-2.328c1.059-7.327 2.575-14.578 4.606-21.7m20.96-13.621c1.478-.958 2.879-2.014 4.242-3.125l1.24 1.868c-.18-.16-.444-.198-.638.048-1.071 1.369-3.366 4.297-5.211 4.467-1.272.118-1.534-1.12-2.289-1.68.949-.296 1.937-1.112 2.656-1.578m48.28 16.278c1.351 1.931 3.72 3.42 6.047 3.737.027.004.053.003.08.006a77.858 77.858 0 0 1-2.11 3.832 21.443 21.443 0 0 1-6.571-5.282 14.465 14.465 0 0 1 2.553-2.293m-1.102-10.857c1.447 1.077 3.55 1.215 4.93-.184 1.04-1.055 1.295-2.51.885-3.79.283-.376.913-.348 1.183.143.005.009.011.012.016.02-.011.09-.02.183-.024.276a.497.497 0 0 0-.084.174c-.426 1.659 1.33 4.032 3.053 4.171 2.154.174 3.855-1.816 3.776-3.861l1.373-.209.25-.038c.067 1.976.013 3.956-.084 5.86-.125 2.448-.707 4.697-.38 6.885a.448.448 0 0 0-.257.098c-1.735 1.313-3.58 3.227-5.71 3.805-2.71.737-5.93-1.188-7.29-3.55a.464.464 0 0 0-.333-.24c-.624-3.152-1.095-6.35-1.304-9.56m4.49-1.269c-.956 1.396-3 1.39-4.17.238a2.631 2.631 0 0 1-.403-.564 52.83 52.83 0 0 1-.038-1.637c-.003-.47.004-.944.022-1.42.163-.33.372-.586.613-.77a.51.51 0 0 0 .382-.223c1.285-.562 3.11.337 3.804 1.73a1.875 1.875 0 0 0-.054.341.432.432 0 0 0 .309.463c.085.587-.037 1.218-.464 1.842m3.534-1.794c-.235-1.376.821-2.57 2.22-2.529 1.328.04 2.318 1.14 2.447 2.41.124 1.221-.545 2.422-1.739 2.822-.862.29-1.543.105-2.134-.564-.329-.373-.805-1.1-.92-1.703a.507.507 0 0 0 .126-.436M79.077 24.67c1.873-1.541 4.705-2.502 6.952-1.087 1.896 1.193 2.933 3.63 3.495 5.683.513 1.877.772 3.859.89 5.857-.585.088-1.169.177-1.753.267-.479-1.481-1.85-2.6-3.484-2.557-1.243.032-2.212.712-2.712 1.675a1.707 1.707 0 0 0-1.404-.302c-.229.055-.43.16-.605.295a4.006 4.006 0 0 0-.955-1.02c-1.182-.882-2.766-1.05-3.991-.465a2.571 2.571 0 0 0-.388.08c.337-3.194 1.366-6.295 3.955-8.426M91.45 36.83l-.003.005a82.756 82.756 0 0 0-.025-.785c.312.282.324.542.028.78m28.606 62.226c.394-.048.788-.102 1.18-.16-3.015 6.377-3.73 13.422-5.794 20.116-.28.908-.248 2.111-1.32 2.068-1.143-.047-.757-2.034-.824-3.022l-.402-5.989-.868-12.942c2.71.45 5.707.21 8.028-.07m18.927 6.498c.437 1.97.93 3.928 1.331 5.906.234 1.151.499 2.33.572 3.501.054.852.512 3.738-1.119 2.24-.914-.838-1.385-3.143-1.953-4.274a76.269 76.269 0 0 0-2.645-4.808 101.664 101.664 0 0 0-2.947-4.64c-1.244-1.854-3.094-3.811-3.166-6.143 2.9-.664 5.798-1.337 8.74-1.755-.085 3.379.453 6.672 1.187 9.973m8.783-18.485c-.857-5.966-3.103-11.599-5.266-17.189-2.21-5.71-3.594-11.727-5.885-17.387-1.59-3.926-3.88-7.484-6.703-10.608-.029-.242-.194-.47-.437-.471a38.807 38.807 0 0 0-1.995-2.004c-.211-.196-.465-.16-.648-.029.26-6.508.465-13.703-1.418-19.961-1.16-3.85-4.55-9.103-9.301-8.374-4.483.687-6.635 6.614-7.189 10.435-.868 5.983 1.117 11.798 3.645 17.14a53.65 53.65 0 0 0-3.927 8.198.472.472 0 0 0-.483-.005c-3.294 1.798-6.026 4.43-7.804 7.744-1.23 2.295-2.967 6.163-1.126 8.573 1.217 1.594 3.496 1.887 5.557 1.522-.831 7.635-1.151 15.32-1.042 23-.167-.314-.334-.627-.514-.924a4.77 4.77 0 0 0-1.294-1.4c.035-7.896-1.38-15.738-4.288-23.094a60.881 60.881 0 0 0-5.244-10.314c-.88-1.384-1.557-2.18-1.556-4.062 0-.947.24-1.937.334-2.881.245-2.477.336-4.969.282-7.457.177.212.484.298.71.028.573-.68.93-1.8.004-2.383-.252-.159-.527-.19-.806-.174-.293-5.205-1.477-12.497-7.172-13.086-6.561-.68-9.798 6.586-10.177 11.945-.852 1.107-.739 3.023-.08 4.252.028.053.063.102.094.154.2 3.25.742 6.46 1.125 9.713.153 1.295.16 1.475-.7 2.349-.715.727-1.465 1.353-2.104 2.163-1 1.268-1.724 2.678-2.293 4.183a.41.41 0 0 0 .053.417c-2.99-.45-6.094-.26-9.131-.025-4.628-4.342-4.512-9.834-2.395-15.36.797-2.081 1.505-4.127 1.782-6.349.17-1.367.086-2.753.243-4.113.01-.094.023-.183.035-.27.455.173.913.182 1.329-.15.765-.613.487-1.79.017-2.484-.405-.598-.944-.978-1.629-.573-.39.23-.606.66-.723 1.172-.27-.168-.528-.32-.673-.426-.533-.388-1.045.497-.517.88.287.21.656.555 1.064.88-.004.739.065 1.455.05 1.888-.093 2.81-.526 5.46-1.513 8.096-.794 2.122-1.72 4.214-1.992 6.483-.464 3.87.947 7.635 3.581 10.429-.341.027-.682.054-1.02.078-1.923.136-3.847.26-5.775.25-1.485-.007-3.257-.437-4.727-.165-2.293.423-1.857 2.415-1.786 4.284.104 2.746.138 5.51.27 8.261a223.413 223.413 0 0 0-4.888-.233c0-.005.003-.007.003-.011.347-6.82-.28-13.646-1.988-20.265-.434-1.681-.964-3.324-1.496-4.975-.55-1.706-1.317-3.233.547-4.977.29-.27.726-.36 1.016-.65 1.096-1.092.442-2.492-.277-3.747 4.804-1.512 9.296-4.09 12.366-8.156 1.513-2.005 2.672-4.332 3.235-6.785.728-3.17-.507-7.844 2.684-9.85.556-.35.043-1.232-.517-.88-1.68 1.056-2.403 2.648-2.645 4.593-.382 3.08-.203 5.942-1.52 8.86-2.635 5.84-8.134 9.475-14.108 11.31-.006.001-.009.005-.015.007a9.125 9.125 0 0 1-.197-.367c-.126-.25-.47-.309-.7-.183-1.696.93-2.15 1.196-3.28-.508l-2.284-3.444a.566.566 0 0 0-.069-.083c2.263-5.237 3.459-11.751 2.826-17.438-.426-3.828-2.602-10.075-7.304-10.362-2.6-.159-4.761 1.37-6.433 3.404-.196-.334-.36-.693-.562-1.018-.443-.707-.887-1.373-1.562-1.891-1.286-.987-3.008-1.355-4.57-1.63-4.1-.723-6.413 1.83-8.05 5.325-4.091 8.74-1.317 18.508 2.108 26.95.243.602 1.235.34.987-.27-3.41-8.407-6.33-18.342-1.825-26.942 1.613-3.08 3.652-4.688 7.312-3.917 2.666.561 3.876 1.659 5.308 3.925.06.095.132.2.211.307-1.1 1.535-1.949 3.248-2.525 4.71-2.157 5.474-2.279 11.507-.63 17.123.184.628 1.173.361.987-.271-1.357-4.625-1.5-9.477-.189-14.137.588-2.092 1.553-4.603 2.992-6.667.942.986 2.301 1.858 3.27.73.135-.157.22-.43.08-.618a44.515 44.515 0 0 0-.185-.247c-.175-.236-.427-.315-.7-.183-.076.036-.153.072-.228.109a.428.428 0 0 0-.251.294c-.386-.319-.92-.583-1.349-.93 1.146-1.396 2.55-2.49 4.26-2.941 6.072-1.6 7.98 7.71 7.957 11.85-.027 4.8-.954 9.97-2.886 14.377a.525.525 0 0 0 .076.551.413.413 0 0 0 .002.292l-.029.007a.432.432 0 0 0-.342.325 45.662 45.662 0 0 1-4.19 3.029c-.533.338-1.244.978-1.873 1.126-1.222.286-1.877-.63-2.675-1.364-1.232-1.133-2.5-2.701-4.144-3.255-.085-.329-.526-.58-.862-.276l-.129.116a.373.373 0 0 0-.21.19l-3.652 3.3a19.062 19.062 0 0 0-1.33-1.949c-.162-.208-.559-.19-.723 0l-4.168 4.774c-.143.164-.211.423-.08.619 1.02 1.52 1.367 2.463.77 4.266a162.831 162.831 0 0 0-3.472 12.04 166.681 166.681 0 0 0-3.187 16.557.528.528 0 0 0 .199.493c.04.14.144.256.345.285.21.029.42.053.63.081a.529.529 0 0 0-.052.182l-.043.551c-.377.072-.599.673-.176.96.032.022.065.037.096.057C1.41 83.56.474 95.018.213 106.488c-.042 1.852-.492 8.042 3.04 7.01 1.763-.514 2.998-2.733 3.918-4.155 1.333-2.061 2.412-4.275 3.404-6.515 2-4.517 3.606-9.244 6.153-13.5 1.2-2.01 3.116-4.926 5.62-5.445 3.767-.78 4.962 4.65 6.235 6.972 1.145 2.084 2.894 3.764 3.97 5.891.746 1.477 1.192 3.066 1.605 4.665-.478 2.93-.942 5.863-1.386 8.8-.097.64.89.918.988.27.335-2.215.687-4.427 1.04-6.64.086.3.174.6.268.897.77 2.417 2.4 9.027 6.037 8.458 3.624-.567 3.29-7.56 3.558-10.082.628-5.907.804-11.839.303-17.752.45.239.94.427 1.505.537.703.137 1.425.23 2.156.294l-1.798 18.17-.878 8.881c-.148 1.487-.297 2.974-.442 4.461-.065.671-.13 1.342-.19 2.014-.002.015-.08 1.61.002 2.675a.453.453 0 0 0-.338.153l-.093.098a.52.52 0 0 0 0 .722l.13.13c.198.2.524.189.724 0 .275-.259.232-.43.359-.754.58-1.48.323-3.944.48-5.54.34-3.459.684-6.916 1.026-10.373l2.035-20.568c1.825.096 3.684.05 5.447.076 5.565.08 11.098-.484 16.648-.599.056.095.14.179.27.224 2.197.763 4.48 1.66 5.872 3.621.378.532 1.266.023.885-.514-1.145-1.613-2.764-2.594-4.52-3.343 2.91.062 5.772.687 8.674.706a90.7 90.7 0 0 0 .404 5.86c-2.693.069-5.388.068-8.087-.022-.659-.022-.658.998 0 1.02 2.732.091 5.46.091 8.187.02.044.412.091.824.138 1.236a39.59 39.59 0 0 1-13.004-1.846l.004-.012c.204-.626-.785-.894-.988-.27-1.717 5.266-2.008 10.735-2.323 16.224-.18 3.134-.371 6.277-.922 9.372-.228 1.276-.499 2.551-.92 3.779-.3.87-.515 2.366-1.568 2.074-1.044-.289-.879-1.691-.996-2.698-.288-2.45-.36-4.916-.831-7.344-.557-2.866-1.548-5.624-2.324-8.433-1.756-6.35-1.423-12.491 2.256-18.113.361-.551-.525-1.063-.884-.515-3.501 5.351-4.223 11.42-2.714 17.567.878 3.576 2.252 7.024 2.84 10.67.33 2.043.398 4.115.632 6.168.134 1.165.127 2.826.848 3.78 2.882 3.808 4.92-8.317 5.064-9.494.805-6.66.525-13.432 2.052-19.966a49.07 49.07 0 0 0 11.265 1.918c0 .019-.008.033-.007.054.423 5.14.39 10.292.343 15.445-.153.037-.304.08-.454.13l-3.88-.82c-.643-.135-.918.848-.272.984l2.623.554c-.938.555-1.82 1.25-2.668 1.832-.54.37-.029 1.255.516.88 1.079-.739 2.36-1.851 3.713-2.382.136.03.272.058.409.087.06.012.115.007.17.001.245.204.69.14.819-.186l.702-.151c1.144.189 2.14.878 2.955 1.715l1.023 9.212c.072.646 1.096.653 1.024 0l-.915-8.24c.318-.08.572-.533.297-.885a10.5 10.5 0 0 0-.455-.542l-.228-2.057.65-.14c.644-.138.372-1.122-.272-.984l-.491.106-.719-6.474c-.298-2.685-.662-5.385-1-8.09a49.482 49.482 0 0 0 9.582-1.215c.35 8.583.715 17.28 3.135 25.552.295 1.01 1.167 5.456 3.23 3.787 1.174-.95 1.138-3.919 1.405-5.251l1.594-7.917c.955-4.743 2.592-9.806 2.519-14.674a19.709 19.709 0 0 0-.116-1.74c1.102 1.569 2.81 2.457 4.744 2.924a.487.487 0 0 0-.023.169l1.106 16.47c.07 1.044-.495 8.973 2.524 7.647.864-.38 1.138-1.92 1.393-2.665.763-2.236 1.327-4.534 1.856-6.834 1.177-5.124 2.19-10.274 4.579-15.008 1.875-.315 3.734-.715 5.589-1.136.113 1.751.993 3.087 1.996 4.54 1.476 2.136 2.911 4.298 4.241 6.528a71.798 71.798 0 0 1 3.633 6.867c.287.63 1.018 3.703 2.235 3.974 2.884.642 1.464-6.69 1.24-7.83-1.064-5.396-2.732-10.655-2.57-16.2.95-.114 1.904-.2 2.867-.246.656-.03.66-1.052 0-1.02a42.08 42.08 0 0 0-3.146.273.58.58 0 0 0-.514.069c-4.289.573-8.479 1.687-12.723 2.59-4.997 1.064-16.58 3.56-18.863-2.995a.504.504 0 0 0-.512-.344 23.878 23.878 0 0 0-1.414-4.524.445.445 0 0 0 .263-.433c-.161-8.151.17-16.309 1.063-24.413a8.311 8.311 0 0 0 1.636-.67c1.34-.742 2.409-1.92 2.87-3.392.207-.663.305-1.353.227-2.046-.058-.52-1.19-2.906.007-3.018.651-.061.658-1.082 0-1.02-1.19.112-1.726.819-1.62 2.033.172 1.957.964 3.423-.443 5.234-.638.822-1.548 1.403-2.554 1.764.027-.22.048-.44.074-.66.791-6.56 2.185-12.554 4.77-18.352.029.054.07.108.131.155 1.467 1.173 3.742 3.876 5.809 3.883 1.65.006 3.12-1.72 4.037-3.093 1.02 1.053 2.306 2.091 3.856 1.776 1.862-.378 3.447-2.7 4.718-4.203 2.284 2.566 4.203 5.427 5.654 8.566 2.15 4.651 3.14 9.765 4.893 14.568 1.649 4.518 3.557 8.943 5.004 13.533.716 2.271 1.326 4.58 1.718 6.93.577 3.458.609 7.001-3.779 7.447-.65.066-.656 1.087 0 1.02 4.708-.478 5.514-3.615 4.914-7.788" mask="url(#b)"/>
        </g>
        <path fill="#4B4B78" d="M118.761 75.122c.926.74 2.035 1.12 3.14.709 1.213-.453 2.02-1.757 2.098-3.267.04-.754-.926-.75-.965 0-.146 2.816-2.912 2.554-4.207 1.164a.483.483 0 0 0-.824.414l.044.458c.045.465.443.64.714.522M115.085 98.674c.113 1.114.611 2.196 1.276 3.072 1.9 2.504 5.375 3.241 8.306 3.254 5.414.023 8.525-5.26 9.051-10.427 2.781-.354 4.798-4.734 1.78-6.297-1.342-.696-3.212.024-4.219 1.045-1.051 1.066-.658 3.493.026 4.672.335.576 1.212.052.876-.527-.429-.739-.701-2.162-.42-3.02.325-.986 2.188-1.602 3.052-1.33 2.355.741.814 3.936-1.023 4.383a13.991 13.991 0 0 0-.134-2.5c-.098-.663-1.075-.381-.978.277.577 3.902-.661 8.179-3.472 10.975-2.775 2.76-8.986 2.105-11.648-.677-.769-.803-1.301-1.853-1.414-2.973-.115-1.132.445-1.992.69-3.021.138-.572.364-.942.246-1.547-.177-.907-.95-1.703-1.835-1.244-.21.108-.275.37-.233.59l.03.155c.128.658 1.106.38.979-.278.353 1.824-1.127 3.537-.936 5.418M97.786 97.396c1.942 1.12 2.82 2.31 2.307 4.76-.313 1.494-1.243 3.085-2.255 4.236-1.946 2.213-4.814 3.64-7.573 4.653-1.623.597-3.308 1.055-5.054 1.067-1.397.01-2.83-.461-4.218-.309-1.501.166-1.945 1.09-1.992 2.478-.034.96 1.498.958 1.53 0 .057-1.663 4.94-.645 6.023-.762 1.574-.17 3.07-.633 4.538-1.2 2.642-1.017 5.3-2.328 7.31-4.329 1.807-1.8 3.369-4.581 3.583-7.126.197-2.344-1.532-3.662-3.426-4.755-.85-.49-1.62.798-.773 1.287"/>
    </g>
</svg>
