
<?xml version="1.0" encoding="UTF-8"?>
<svg width="24px" height="24px" viewBox="0 0 24 24" version="1.1" xmlns="http://www.w3.org/2000/svg" xmlns:xlink="http://www.w3.org/1999/xlink">
    <!-- Generator: sketchtool 52.1 (67048) - http://www.bohemiancoding.com/sketch -->
    <title>4AB2FD6F-007F-42BF-9A26-A97931DCD1B4</title>
    <desc>Created with sketchtool.</desc>
    <g id="Peeranha" stroke="none" stroke-width="1" fill="none" fill-rule="evenodd">
        <g id="Peerania_Communities_Table" transform="translate(-35.000000, -205.000000)" fill-rule="nonzero">
            <g id="ico_communities-copy-ico_communities_color" transform="translate(35.000000, 205.000000)">
                <circle class="opacity" fill="#FFFFFF" cx="12" cy="8" r="5"></circle>
                <circle class="opacity" fill="#FFFFFF" cx="8" cy="15" r="5"></circle>
                <circle class="opacity" fill="#FFFFFF" cx="16" cy="15" r="5"></circle>
                
                <path class="opacity" d="M7.43020845,10.0321103 C7.61720517,10.0108977 7.80732994,10 8,10 C10.0378689,10 11.7909893,11.2191531 12.5697915,12.9678897 C12.3827948,12.9891023 12.1926701,13 12,13 C9.9621311,13 8.20901068,11.7808469 7.43020845,10.0321103 Z" id="Combined-Shape" fill="#A5BCFF"></path>
                <path class="opacity" d="M12,11.9995125 C12.6279105,12.8352566 13,13.8741752 13,15 C13,16.1258248 12.6279105,17.1647434 12,18.0004875 C11.3720895,17.1647434 11,16.1258248 11,15 C11,13.8741752 11.3720895,12.8352566 12,11.9995125 Z" id="Combined-Shape" fill="#A5BCFF"></path>
                <path class="opacity" d="M11.4302085,12.9678897 C12.2090107,11.2191531 13.9621311,10 16,10 C16.1926701,10 16.3827948,10.0108977 16.5697915,10.0321103 C15.7909893,11.7808469 14.0378689,13 12,13 C11.8073299,13 11.6172052,12.9891023 11.4302085,12.9678897 Z" id="Combined-Shape" fill="#A5BCFF"></path>
                <path class="opacity" d="M11.4302085,12.9678897 C11.583942,12.6226937 11.7756405,12.2981333 12,11.9995125 C12.2243595,12.2981333 12.416058,12.6226937 12.5697915,12.9678897 C12.3827948,12.9891023 12.1926701,13 12,13 C11.8073299,13 11.6172052,12.9891023 11.4302085,12.9678897 Z" id="Combined-Shape" fill="#FFFFFF"></path>
                
                <circle class="stroke" cx="12" cy="8" r="5.5"></circle>
                <circle class="stroke" cx="8" cy="15" r="5.5"></circle>
                <circle class="stroke" cx="16" cy="15" r="5.5"></circle>
            </g>
        </g>
    </g>
</svg>