<svg width="518" height="304" viewBox="0 0 518 304" fill="none" xmlns="http://www.w3.org/2000/svg">
<circle cx="53" cy="62.3972" r="16" fill="#F76F60"/>
<circle cx="466" cy="163" r="16" fill="#F76F60"/>
<path d="M55 27.8971L55.6951 23.958L55 27.8971ZM3.76269 40.4878C8.06032 38.378 15.9115 35.3324 25.1608 33.2631C34.4287 31.1897 44.8147 30.1615 54.3049 31.8363L55.6951 23.958C44.7853 22.0327 33.2547 23.2546 23.4142 25.4561C13.5551 27.6618 5.10635 30.9162 0.237307 33.3064L3.76269 40.4878ZM54.3049 31.8363C79.8523 36.3446 85.7344 37.4181 104.222 36.3911L103.778 28.4034C86.2656 29.3763 81.1477 28.4496 55.6951 23.958L54.3049 31.8363Z" fill="#E4EBFF"/>
<path d="M415 209.5C424.167 205 447.6 196.9 468 200.5C493.5 205 499 206 517 205" stroke="#E4EBFF" stroke-width="8" stroke-linejoin="round"/>
<path d="M140 265.897L140.695 261.958L140 265.897ZM88.7627 278.488C93.0603 276.378 100.912 273.332 110.161 271.263C119.429 269.19 129.815 268.162 139.305 269.836L140.695 261.958C129.785 260.033 118.255 261.255 108.414 263.456C98.5551 265.662 90.1063 268.916 85.2373 271.306L88.7627 278.488ZM139.305 269.836C164.852 274.345 170.734 275.418 189.222 274.391L188.778 266.403C171.266 267.376 166.148 266.45 140.695 261.958L139.305 269.836Z" fill="#E4EBFF"/>
<path d="M137 245.897L137.695 241.958L137 245.897ZM85.7627 258.488C90.0603 256.378 97.9115 253.332 107.161 251.263C116.429 249.19 126.815 248.162 136.305 249.836L137.695 241.958C126.785 240.033 115.255 241.255 105.414 243.456C95.5551 245.662 87.1063 248.916 82.2373 251.306L85.7627 258.488ZM136.305 249.836C161.852 254.345 167.734 255.418 186.222 254.391L185.778 246.403C168.266 247.376 163.148 246.45 137.695 241.958L136.305 249.836Z" fill="#E4EBFF"/>
<path d="M157.824 56.562C199.024 8.962 266.991 14.062 295.824 22.562C258.824 129.562 338.087 137.5 338.824 144.562C341.624 171.362 390.658 178.333 407.324 177.5C407.324 177.5 407.709 177.5 407.324 180.062C398.324 240.062 361.324 268.562 320.824 291.562C280.324 314.562 203.324 305.062 152.824 254.562C102.324 204.062 106.324 116.062 157.824 56.562Z" fill="#DCE3FF"/>
<path d="M282.824 9.562L286.605 10.8692C286.962 9.83629 286.881 8.70218 286.38 7.73052C285.88 6.75886 285.004 6.03429 283.955 5.72524L282.824 9.562ZM144.824 43.562L141.8 40.9442L144.824 43.562ZM394.324 167.062L398.28 167.655L394.324 167.062ZM394.324 164.5V160.5C394.258 160.5 394.191 160.502 394.125 160.505L394.324 164.5ZM325.824 131.562L321.846 131.978L325.824 131.562ZM283.955 5.72524C269.046 1.33001 244.27 -2.13595 217.906 1.5633C191.497 5.26886 163.204 16.2149 141.8 40.9442L147.849 46.1798C167.644 23.3091 193.935 13.0051 219.018 9.4857C244.145 5.95995 267.769 9.29398 281.693 13.3988L283.955 5.72524ZM141.8 40.9442C89.2601 101.646 84.6782 192.073 136.996 244.39L142.653 238.734C93.9705 190.051 97.3887 104.478 147.849 46.1798L141.8 40.9442ZM136.996 244.39C162.87 270.264 195.496 285.608 226.829 291.554C258.078 297.485 288.488 294.143 309.8 282.04L305.849 275.084C286.66 285.981 258.321 289.389 228.32 283.695C198.403 278.016 167.279 263.36 142.653 238.734L136.996 244.39ZM309.8 282.04C350.666 258.832 389.005 229.491 398.28 167.655L390.369 166.469C381.644 224.633 345.983 252.292 305.849 275.084L309.8 282.04ZM398.28 167.655C398.485 166.292 398.565 165.162 398.424 164.227C398.356 163.773 398.179 162.941 397.578 162.14C397.251 161.703 396.787 161.264 396.165 160.946C395.861 160.789 395.544 160.676 395.225 160.602C395.067 160.566 394.911 160.54 394.76 160.524C394.685 160.516 394.61 160.51 394.538 160.506C394.501 160.504 394.465 160.502 394.43 160.501C394.412 160.501 394.394 160.501 394.377 160.5C394.368 160.5 394.355 160.5 394.351 160.5C394.338 160.5 394.324 160.5 394.324 164.5C394.324 168.5 394.311 168.5 394.298 168.5C394.294 168.5 394.281 168.5 394.272 168.5C394.255 168.499 394.237 168.499 394.219 168.499C394.184 168.498 394.148 168.496 394.112 168.494C394.039 168.49 393.966 168.485 393.891 168.476C393.741 168.46 393.588 168.435 393.433 168.399C393.119 168.327 392.81 168.216 392.515 168.064C391.913 167.756 391.476 167.337 391.178 166.94C390.638 166.219 390.533 165.547 390.513 165.414C390.469 165.119 390.548 165.27 390.369 166.469L398.28 167.655ZM394.125 160.505C386.28 160.897 370.36 159.428 356.161 154.606C349.076 152.2 342.67 149.043 337.937 145.069C333.25 141.133 330.367 136.55 329.803 131.146L321.846 131.978C322.682 139.974 326.978 146.312 332.793 151.195C338.562 156.04 345.981 159.598 353.588 162.181C368.772 167.337 385.702 168.936 394.524 168.495L394.125 160.505ZM329.803 131.146C329.573 128.948 327.997 127.608 327.257 127.037C326.335 126.326 325.186 125.688 324.061 125.116C322.902 124.526 321.537 123.892 320.097 123.222C318.634 122.543 317.048 121.807 315.352 120.975C308.569 117.651 300.245 112.907 293.086 105.298C285.978 97.7438 279.908 87.251 277.791 72.2142C275.664 57.1107 277.497 37.2081 286.605 10.8692L279.044 8.25477C269.652 35.4159 267.517 56.6305 269.869 73.3298C272.23 90.0958 279.084 102.091 287.26 110.78C295.383 119.413 304.701 124.665 311.831 128.159C313.613 129.032 315.272 129.802 316.726 130.478C318.203 131.164 319.427 131.734 320.433 132.246C321.474 132.775 322.068 133.137 322.37 133.371C322.854 133.744 321.984 133.293 321.846 131.978L329.803 131.146Z" fill="#7699FF"/>
<path d="M324 191L327.5 184C329.1 182.4 334.833 181.333 337.5 181L342 187.5L337.5 196L327.5 197L324 191Z" stroke="#7699FF" stroke-width="8" stroke-linejoin="round"/>
<path d="M173.768 63.2058L181.58 62.7369C183.766 63.3225 187.556 67.7544 189.178 69.8972L185.799 77.0443L176.188 77.3972L170.322 69.2369L173.768 63.2058Z" stroke="#7699FF" stroke-width="8" stroke-linejoin="round"/>
<path d="M351.196 34L359.008 33.5311C361.194 34.1167 364.984 38.5486 366.606 40.6913L363.227 47.8385L354 48.5L350 45L347.75 40.0311L351.196 34Z" stroke="#7699FF" stroke-width="8" stroke-linejoin="round"/>
<path d="M231.196 247L239.008 246.531C241.194 247.117 244.984 251.549 246.606 253.691L243.227 260.838L233.616 261.191L227.75 253.031L231.196 247Z" stroke="#7699FF" stroke-width="8" stroke-linejoin="round"/>
<circle cx="144.5" cy="104.5" r="5.5" fill="#7699FF"/>
<circle cx="223.5" cy="61.5" r="5.5" fill="#7699FF"/>
<circle cx="206.5" cy="170.5" r="5.5" fill="#7699FF"/>
<circle cx="288.5" cy="154.5" r="5.5" fill="#7699FF"/>
<circle cx="183.5" cy="230.5" r="5.5" fill="#7699FF"/>
<circle cx="323.5" cy="227.5" r="5.5" fill="#7699FF"/>
<path d="M140.659 147.399L142.779 150.791C143.948 150.06 144.659 148.778 144.659 147.399H140.659ZM148.159 175.899L146.446 179.514C146.83 179.696 147.241 179.815 147.663 179.868L148.159 175.899ZM164.159 172.399L167.282 174.897L164.159 172.399ZM153.659 132.399L155.026 128.64L153.659 132.399ZM140.659 136.399L138.16 133.275C137.211 134.034 136.659 135.184 136.659 136.399H140.659ZM138.539 144.007C134.966 146.24 128.696 153.135 131.844 163.103L139.473 160.694C137.821 155.462 141.018 151.891 142.779 150.791L138.539 144.007ZM131.844 163.103C134.71 172.177 142.747 177.761 146.446 179.514L149.871 172.284C147.237 171.036 141.408 166.821 139.473 160.694L131.844 163.103ZM147.663 179.868C149.938 180.152 153.5 180.293 157.018 179.797C160.308 179.333 164.669 178.165 167.282 174.897L161.035 169.9C160.449 170.633 158.81 171.465 155.9 171.875C153.217 172.254 150.379 172.145 148.655 171.93L147.663 179.868ZM167.282 174.897C171.997 169.004 173.34 162.277 172.063 156.531L164.254 158.266C164.977 161.52 164.32 165.794 161.035 169.9L167.282 174.897ZM172.063 156.531C171.84 155.524 171.637 154.346 171.408 152.984C171.184 151.659 170.938 150.179 170.64 148.722C170.074 145.957 169.201 142.577 167.414 140.074L160.904 144.724C161.616 145.721 162.243 147.591 162.802 150.325C163.067 151.619 163.289 152.951 163.519 154.314C163.742 155.639 163.978 157.023 164.254 158.266L172.063 156.531ZM167.414 140.074C165.246 137.039 161.973 131.166 155.026 128.64L152.292 136.158C156.345 137.632 158.071 140.758 160.904 144.724L167.414 140.074ZM155.026 128.64C151.433 127.333 147.658 128.262 144.967 129.332C142.152 130.452 139.664 132.072 138.16 133.275L143.157 139.522C144.154 138.725 145.965 137.545 147.925 136.765C150.01 135.936 151.484 135.864 152.292 136.158L155.026 128.64ZM136.659 136.399C136.659 136.404 136.659 136.408 136.659 136.413C136.659 136.418 136.659 136.423 136.659 136.428C136.659 136.433 136.659 136.438 136.659 136.443C136.659 136.448 136.659 136.453 136.659 136.458C136.659 136.463 136.659 136.468 136.659 136.473C136.659 136.478 136.659 136.483 136.659 136.488C136.659 136.493 136.659 136.498 136.659 136.503C136.659 136.508 136.659 136.513 136.659 136.518C136.659 136.523 136.659 136.528 136.659 136.533C136.659 136.539 136.659 136.544 136.659 136.549C136.659 136.554 136.659 136.559 136.659 136.564C136.659 136.569 136.659 136.575 136.659 136.58C136.659 136.585 136.659 136.59 136.659 136.595C136.659 136.6 136.659 136.606 136.659 136.611C136.659 136.616 136.659 136.621 136.659 136.627C136.659 136.632 136.659 136.637 136.659 136.642C136.659 136.648 136.659 136.653 136.659 136.658C136.659 136.663 136.659 136.669 136.659 136.674C136.659 136.679 136.659 136.685 136.659 136.69C136.659 136.695 136.659 136.701 136.659 136.706C136.659 136.711 136.659 136.717 136.659 136.722C136.659 136.727 136.659 136.733 136.659 136.738C136.659 136.744 136.659 136.749 136.659 136.754C136.659 136.76 136.659 136.765 136.659 136.771C136.659 136.776 136.659 136.782 136.659 136.787C136.659 136.793 136.659 136.798 136.659 136.804C136.659 136.809 136.659 136.815 136.659 136.82C136.659 136.826 136.659 136.831 136.659 136.837C136.659 136.842 136.659 136.848 136.659 136.853C136.659 136.859 136.659 136.864 136.659 136.87C136.659 136.875 136.659 136.881 136.659 136.887C136.659 136.892 136.659 136.898 136.659 136.903C136.659 136.909 136.659 136.915 136.659 136.92C136.659 136.926 136.659 136.932 136.659 136.937C136.659 136.943 136.659 136.949 136.659 136.954C136.659 136.96 136.659 136.966 136.659 136.971C136.659 136.977 136.659 136.983 136.659 136.989C136.659 136.994 136.659 137 136.659 137.006C136.659 137.011 136.659 137.017 136.659 137.023C136.659 137.029 136.659 137.035 136.659 137.04C136.659 137.046 136.659 137.052 136.659 137.058C136.659 137.064 136.659 137.069 136.659 137.075C136.659 137.081 136.659 137.087 136.659 137.093C136.659 137.099 136.659 137.104 136.659 137.11C136.659 137.116 136.659 137.122 136.659 137.128C136.659 137.134 136.659 137.14 136.659 137.146C136.659 137.152 136.659 137.157 136.659 137.163C136.659 137.169 136.659 137.175 136.659 137.181C136.659 137.187 136.659 137.193 136.659 137.199C136.659 137.205 136.659 137.211 136.659 137.217C136.659 137.223 136.659 137.229 136.659 137.235C136.659 137.241 136.659 137.247 136.659 137.253C136.659 137.259 136.659 137.265 136.659 137.271C136.659 137.277 136.659 137.283 136.659 137.289C136.659 137.295 136.659 137.302 136.659 137.308C136.659 137.314 136.659 137.32 136.659 137.326C136.659 137.332 136.659 137.338 136.659 137.344C136.659 137.35 136.659 137.357 136.659 137.363C136.659 137.369 136.659 137.375 136.659 137.381C136.659 137.387 136.659 137.393 136.659 137.4C136.659 137.406 136.659 137.412 136.659 137.418C136.659 137.424 136.659 137.431 136.659 137.437C136.659 137.443 136.659 137.449 136.659 137.456C136.659 137.462 136.659 137.468 136.659 137.474C136.659 137.481 136.659 137.487 136.659 137.493C136.659 137.499 136.659 137.506 136.659 137.512C136.659 137.518 136.659 137.525 136.659 137.531C136.659 137.537 136.659 137.544 136.659 137.55C136.659 137.556 136.659 137.563 136.659 137.569C136.659 137.575 136.659 137.582 136.659 137.588C136.659 137.594 136.659 137.601 136.659 137.607C136.659 137.613 136.659 137.62 136.659 137.626C136.659 137.633 136.659 137.639 136.659 137.646C136.659 137.652 136.659 137.658 136.659 137.665C136.659 137.671 136.659 137.678 136.659 137.684C136.659 137.691 136.659 137.697 136.659 137.704C136.659 137.71 136.659 137.717 136.659 137.723C136.659 137.73 136.659 137.736 136.659 137.743C136.659 137.749 136.659 137.756 136.659 137.762C136.659 137.769 136.659 137.775 136.659 137.782C136.659 137.788 136.659 137.795 136.659 137.801C136.659 137.808 136.659 137.814 136.659 137.821C136.659 137.828 136.659 137.834 136.659 137.841C136.659 137.847 136.659 137.854 136.659 137.861C136.659 137.867 136.659 137.874 136.659 137.881C136.659 137.887 136.659 137.894 136.659 137.9C136.659 137.907 136.659 137.914 136.659 137.92C136.659 137.927 136.659 137.934 136.659 137.94C136.659 137.947 136.659 137.954 136.659 137.96C136.659 137.967 136.659 137.974 136.659 137.981C136.659 137.987 136.659 137.994 136.659 138.001C136.659 138.007 136.659 138.014 136.659 138.021C136.659 138.028 136.659 138.034 136.659 138.041C136.659 138.048 136.659 138.055 136.659 138.062C136.659 138.068 136.659 138.075 136.659 138.082C136.659 138.089 136.659 138.095 136.659 138.102C136.659 138.109 136.659 138.116 136.659 138.123C136.659 138.13 136.659 138.136 136.659 138.143C136.659 138.15 136.659 138.157 136.659 138.164C136.659 138.171 136.659 138.177 136.659 138.184C136.659 138.191 136.659 138.198 136.659 138.205C136.659 138.212 136.659 138.219 136.659 138.226C136.659 138.233 136.659 138.239 136.659 138.246C136.659 138.253 136.659 138.26 136.659 138.267C136.659 138.274 136.659 138.281 136.659 138.288C136.659 138.295 136.659 138.302 136.659 138.309C136.659 138.316 136.659 138.323 136.659 138.33C136.659 138.337 136.659 138.344 136.659 138.351C136.659 138.358 136.659 138.365 136.659 138.372C136.659 138.379 136.659 138.386 136.659 138.393C136.659 138.4 136.659 138.407 136.659 138.414C136.659 138.421 136.659 138.428 136.659 138.435C136.659 138.442 136.659 138.449 136.659 138.456C136.659 138.463 136.659 138.47 136.659 138.477C136.659 138.484 136.659 138.491 136.659 138.498C136.659 138.506 136.659 138.513 136.659 138.52C136.659 138.527 136.659 138.534 136.659 138.541C136.659 138.548 136.659 138.555 136.659 138.562C136.659 138.57 136.659 138.577 136.659 138.584C136.659 138.591 136.659 138.598 136.659 138.605C136.659 138.613 136.659 138.62 136.659 138.627C136.659 138.634 136.659 138.641 136.659 138.648C136.659 138.656 136.659 138.663 136.659 138.67C136.659 138.677 136.659 138.684 136.659 138.692C136.659 138.699 136.659 138.706 136.659 138.713C136.659 138.72 136.659 138.728 136.659 138.735C136.659 138.742 136.659 138.749 136.659 138.757C136.659 138.764 136.659 138.771 136.659 138.778C136.659 138.786 136.659 138.793 136.659 138.8C136.659 138.808 136.659 138.815 136.659 138.822C136.659 138.829 136.659 138.837 136.659 138.844C136.659 138.851 136.659 138.859 136.659 138.866C136.659 138.873 136.659 138.881 136.659 138.888C136.659 138.895 136.659 138.902 136.659 138.91C136.659 138.917 136.659 138.925 136.659 138.932C136.659 138.939 136.659 138.947 136.659 138.954C136.659 138.961 136.659 138.969 136.659 138.976C136.659 138.983 136.659 138.991 136.659 138.998C136.659 139.006 136.659 139.013 136.659 139.02C136.659 139.028 136.659 139.035 136.659 139.043C136.659 139.05 136.659 139.057 136.659 139.065C136.659 139.072 136.659 139.08 136.659 139.087C136.659 139.095 136.659 139.102 136.659 139.109C136.659 139.117 136.659 139.124 136.659 139.132C136.659 139.139 136.659 139.147 136.659 139.154C136.659 139.162 136.659 139.169 136.659 139.177C136.659 139.184 136.659 139.192 136.659 139.199C136.659 139.207 136.659 139.214 136.659 139.222C136.659 139.229 136.659 139.237 136.659 139.244C136.659 139.252 136.659 139.259 136.659 139.267C136.659 139.274 136.659 139.282 136.659 139.289C136.659 139.297 136.659 139.304 136.659 139.312C136.659 139.319 136.659 139.327 136.659 139.334C136.659 139.342 136.659 139.35 136.659 139.357C136.659 139.365 136.659 139.372 136.659 139.38C136.659 139.387 136.659 139.395 136.659 139.403C136.659 139.41 136.659 139.418 136.659 139.425C136.659 139.433 136.659 139.441 136.659 139.448C136.659 139.456 136.659 139.463 136.659 139.471C136.659 139.479 136.659 139.486 136.659 139.494C136.659 139.501 136.659 139.509 136.659 139.517C136.659 139.524 136.659 139.532 136.659 139.54C136.659 139.547 136.659 139.555 136.659 139.563C136.659 139.57 136.659 139.578 136.659 139.586C136.659 139.593 136.659 139.601 136.659 139.609C136.659 139.616 136.659 139.624 136.659 139.632C136.659 139.639 136.659 139.647 136.659 139.655C136.659 139.662 136.659 139.67 136.659 139.678C136.659 139.685 136.659 139.693 136.659 139.701C136.659 139.709 136.659 139.716 136.659 139.724C136.659 139.732 136.659 139.739 136.659 139.747C136.659 139.755 136.659 139.763 136.659 139.77C136.659 139.778 136.659 139.786 136.659 139.794C136.659 139.801 136.659 139.809 136.659 139.817C136.659 139.825 136.659 139.832 136.659 139.84C136.659 139.848 136.659 139.856 136.659 139.863C136.659 139.871 136.659 139.879 136.659 139.887C136.659 139.895 136.659 139.902 136.659 139.91C136.659 139.918 136.659 139.926 136.659 139.934C136.659 139.941 136.659 139.949 136.659 139.957C136.659 139.965 136.659 139.973 136.659 139.98C136.659 139.988 136.659 139.996 136.659 140.004C136.659 140.012 136.659 140.019 136.659 140.027C136.659 140.035 136.659 140.043 136.659 140.051C136.659 140.059 136.659 140.066 136.659 140.074C136.659 140.082 136.659 140.09 136.659 140.098C136.659 140.106 136.659 140.114 136.659 140.121C136.659 140.129 136.659 140.137 136.659 140.145C136.659 140.153 136.659 140.161 136.659 140.169C136.659 140.176 136.659 140.184 136.659 140.192C136.659 140.2 136.659 140.208 136.659 140.216C136.659 140.224 136.659 140.232 136.659 140.24C136.659 140.247 136.659 140.255 136.659 140.263C136.659 140.271 136.659 140.279 136.659 140.287C136.659 140.295 136.659 140.303 136.659 140.311C136.659 140.319 136.659 140.327 136.659 140.334C136.659 140.342 136.659 140.35 136.659 140.358C136.659 140.366 136.659 140.374 136.659 140.382C136.659 140.39 136.659 140.398 136.659 140.406C136.659 140.414 136.659 140.422 136.659 140.43C136.659 140.438 136.659 140.446 136.659 140.454C136.659 140.461 136.659 140.469 136.659 140.477C136.659 140.485 136.659 140.493 136.659 140.501C136.659 140.509 136.659 140.517 136.659 140.525C136.659 140.533 136.659 140.541 136.659 140.549C136.659 140.557 136.659 140.565 136.659 140.573C136.659 140.581 136.659 140.589 136.659 140.597C136.659 140.605 136.659 140.613 136.659 140.621C136.659 140.629 136.659 140.637 136.659 140.645C136.659 140.653 136.659 140.661 136.659 140.669C136.659 140.677 136.659 140.685 136.659 140.693C136.659 140.701 136.659 140.709 136.659 140.717C136.659 140.725 136.659 140.733 136.659 140.741C136.659 140.749 136.659 140.757 136.659 140.765C136.659 140.773 136.659 140.781 136.659 140.789C136.659 140.797 136.659 140.805 136.659 140.813C136.659 140.821 136.659 140.829 136.659 140.837C136.659 140.846 136.659 140.854 136.659 140.862C136.659 140.87 136.659 140.878 136.659 140.886C136.659 140.894 136.659 140.902 136.659 140.91C136.659 140.918 136.659 140.926 136.659 140.934C136.659 140.942 136.659 140.95 136.659 140.958C136.659 140.966 136.659 140.974 136.659 140.982C136.659 140.991 136.659 140.999 136.659 141.007C136.659 141.015 136.659 141.023 136.659 141.031C136.659 141.039 136.659 141.047 136.659 141.055C136.659 141.063 136.659 141.071 136.659 141.079C136.659 141.087 136.659 141.096 136.659 141.104C136.659 141.112 136.659 141.12 136.659 141.128C136.659 141.136 136.659 141.144 136.659 141.152C136.659 141.16 136.659 141.168 136.659 141.176C136.659 141.185 136.659 141.193 136.659 141.201C136.659 141.209 136.659 141.217 136.659 141.225C136.659 141.233 136.659 141.241 136.659 141.249C136.659 141.257 136.659 141.266 136.659 141.274C136.659 141.282 136.659 141.29 136.659 141.298C136.659 141.306 136.659 141.314 136.659 141.322C136.659 141.33 136.659 141.339 136.659 141.347C136.659 141.355 136.659 141.363 136.659 141.371C136.659 141.379 136.659 141.387 136.659 141.395C136.659 141.404 136.659 141.412 136.659 141.42C136.659 141.428 136.659 141.436 136.659 141.444C136.659 141.452 136.659 141.46 136.659 141.469C136.659 141.477 136.659 141.485 136.659 141.493C136.659 141.501 136.659 141.509 136.659 141.517C136.659 141.526 136.659 141.534 136.659 141.542C136.659 141.55 136.659 141.558 136.659 141.566C136.659 141.574 136.659 141.583 136.659 141.591C136.659 141.599 136.659 141.607 136.659 141.615C136.659 141.623 136.659 141.631 136.659 141.64C136.659 141.648 136.659 141.656 136.659 141.664C136.659 141.672 136.659 141.68 136.659 141.688C136.659 141.697 136.659 141.705 136.659 141.713C136.659 141.721 136.659 141.729 136.659 141.737C136.659 141.745 136.659 141.754 136.659 141.762C136.659 141.77 136.659 141.778 136.659 141.786C136.659 141.794 136.659 141.803 136.659 141.811C136.659 141.819 136.659 141.827 136.659 141.835C136.659 141.843 136.659 141.851 136.659 141.86C136.659 141.868 136.659 141.876 136.659 141.884C136.659 141.892 136.659 141.9 136.659 141.909C136.659 141.917 136.659 141.925 136.659 141.933C136.659 141.941 136.659 141.949 136.659 141.958C136.659 141.966 136.659 141.974 136.659 141.982C136.659 141.99 136.659 141.998 136.659 142.007C136.659 142.015 136.659 142.023 136.659 142.031C136.659 142.039 136.659 142.047 136.659 142.055C136.659 142.064 136.659 142.072 136.659 142.08C136.659 142.088 136.659 142.096 136.659 142.104C136.659 142.113 136.659 142.121 136.659 142.129C136.659 142.137 136.659 142.145 136.659 142.153C136.659 142.162 136.659 142.17 136.659 142.178C136.659 142.186 136.659 142.194 136.659 142.202C136.659 142.211 136.659 142.219 136.659 142.227C136.659 142.235 136.659 142.243 136.659 142.251C136.659 142.259 136.659 142.268 136.659 142.276C136.659 142.284 136.659 142.292 136.659 142.3C136.659 142.308 136.659 142.317 136.659 142.325C136.659 142.333 136.659 142.341 136.659 142.349C136.659 142.357 136.659 142.366 136.659 142.374C136.659 142.382 136.659 142.39 136.659 142.398C136.659 142.406 136.659 142.414 136.659 142.423C136.659 142.431 136.659 142.439 136.659 142.447C136.659 142.455 136.659 142.463 136.659 142.472C136.659 142.48 136.659 142.488 136.659 142.496C136.659 142.504 136.659 142.512 136.659 142.52C136.659 142.529 136.659 142.537 136.659 142.545C136.659 142.553 136.659 142.561 136.659 142.569C136.659 142.577 136.659 142.586 136.659 142.594C136.659 142.602 136.659 142.61 136.659 142.618C136.659 142.626 136.659 142.634 136.659 142.643C136.659 142.651 136.659 142.659 136.659 142.667C136.659 142.675 136.659 142.683 136.659 142.691C136.659 142.7 136.659 142.708 136.659 142.716C136.659 142.724 136.659 142.732 136.659 142.74C136.659 142.748 136.659 142.756 136.659 142.765C136.659 142.773 136.659 142.781 136.659 142.789C136.659 142.797 136.659 142.805 136.659 142.813C136.659 142.821 136.659 142.83 136.659 142.838C136.659 142.846 136.659 142.854 136.659 142.862C136.659 142.87 136.659 142.878 136.659 142.886C136.659 142.895 136.659 142.903 136.659 142.911C136.659 142.919 136.659 142.927 136.659 142.935C136.659 142.943 136.659 142.951 136.659 142.959C136.659 142.967 136.659 142.976 136.659 142.984C136.659 142.992 136.659 143 136.659 143.008C136.659 143.016 136.659 143.024 136.659 143.032C136.659 143.04 136.659 143.048 136.659 143.057C136.659 143.065 136.659 143.073 136.659 143.081C136.659 143.089 136.659 143.097 136.659 143.105C136.659 143.113 136.659 143.121 136.659 143.129C136.659 143.137 136.659 143.145 136.659 143.154C136.659 143.162 136.659 143.17 136.659 143.178C136.659 143.186 136.659 143.194 136.659 143.202C136.659 143.21 136.659 143.218 136.659 143.226C136.659 143.234 136.659 143.242 136.659 143.25C136.659 143.258 136.659 143.266 136.659 143.275C136.659 143.283 136.659 143.291 136.659 143.299C136.659 143.307 136.659 143.315 136.659 143.323C136.659 143.331 136.659 143.339 136.659 143.347C136.659 143.355 136.659 143.363 136.659 143.371C136.659 143.379 136.659 143.387 136.659 143.395C136.659 143.403 136.659 143.411 136.659 143.419C136.659 143.427 136.659 143.435 136.659 143.443C136.659 143.451 136.659 143.459 136.659 143.467C136.659 143.475 136.659 143.483 136.659 143.491C136.659 143.499 136.659 143.507 136.659 143.515C136.659 143.523 136.659 143.531 136.659 143.54C136.659 143.548 136.659 143.555 136.659 143.563C136.659 143.571 136.659 143.579 136.659 143.587C136.659 143.595 136.659 143.603 136.659 143.611C136.659 143.619 136.659 143.627 136.659 143.635C136.659 143.643 136.659 143.651 136.659 143.659C136.659 143.667 136.659 143.675 136.659 143.683C136.659 143.691 136.659 143.699 136.659 143.707C136.659 143.715 136.659 143.723 136.659 143.731C136.659 143.739 136.659 143.747 136.659 143.755C136.659 143.763 136.659 143.771 136.659 143.779C136.659 143.787 136.659 143.795 136.659 143.802C136.659 143.81 136.659 143.818 136.659 143.826C136.659 143.834 136.659 143.842 136.659 143.85C136.659 143.858 136.659 143.866 136.659 143.874C136.659 143.882 136.659 143.89 136.659 143.898C136.659 143.905 136.659 143.913 136.659 143.921C136.659 143.929 136.659 143.937 136.659 143.945C136.659 143.953 136.659 143.961 136.659 143.969C136.659 143.977 136.659 143.984 136.659 143.992C136.659 144 136.659 144.008 136.659 144.016C136.659 144.024 136.659 144.032 136.659 144.04C136.659 144.047 136.659 144.055 136.659 144.063C136.659 144.071 136.659 144.079 136.659 144.087C136.659 144.095 136.659 144.102 136.659 144.11C136.659 144.118 136.659 144.126 136.659 144.134C136.659 144.142 136.659 144.149 136.659 144.157C136.659 144.165 136.659 144.173 136.659 144.181C136.659 144.189 136.659 144.196 136.659 144.204C136.659 144.212 136.659 144.22 136.659 144.228C136.659 144.235 136.659 144.243 136.659 144.251C136.659 144.259 136.659 144.267 136.659 144.274C136.659 144.282 136.659 144.29 136.659 144.298C136.659 144.306 136.659 144.313 136.659 144.321C136.659 144.329 136.659 144.337 136.659 144.344C136.659 144.352 136.659 144.36 136.659 144.368C136.659 144.375 136.659 144.383 136.659 144.391C136.659 144.399 136.659 144.406 136.659 144.414C136.659 144.422 136.659 144.43 136.659 144.437C136.659 144.445 136.659 144.453 136.659 144.461C136.659 144.468 136.659 144.476 136.659 144.484C136.659 144.491 136.659 144.499 136.659 144.507C136.659 144.515 136.659 144.522 136.659 144.53C136.659 144.538 136.659 144.545 136.659 144.553C136.659 144.561 136.659 144.568 136.659 144.576C136.659 144.584 136.659 144.591 136.659 144.599C136.659 144.607 136.659 144.614 136.659 144.622C136.659 144.63 136.659 144.637 136.659 144.645C136.659 144.653 136.659 144.66 136.659 144.668C136.659 144.676 136.659 144.683 136.659 144.691C136.659 144.698 136.659 144.706 136.659 144.714C136.659 144.721 136.659 144.729 136.659 144.737C136.659 144.744 136.659 144.752 136.659 144.759C136.659 144.767 136.659 144.775 136.659 144.782C136.659 144.79 136.659 144.797 136.659 144.805C136.659 144.812 136.659 144.82 136.659 144.828C136.659 144.835 136.659 144.843 136.659 144.85C136.659 144.858 136.659 144.865 136.659 144.873C136.659 144.88 136.659 144.888 136.659 144.896C136.659 144.903 136.659 144.911 136.659 144.918C136.659 144.926 136.659 144.933 136.659 144.941C136.659 144.948 136.659 144.956 136.659 144.963C136.659 144.971 136.659 144.978 136.659 144.986C136.659 144.993 136.659 145.001 136.659 145.008C136.659 145.016 136.659 145.023 136.659 145.031C136.659 145.038 136.659 145.046 136.659 145.053C136.659 145.06 136.659 145.068 136.659 145.075C136.659 145.083 136.659 145.09 136.659 145.098C136.659 145.105 136.659 145.113 136.659 145.12C136.659 145.127 136.659 145.135 136.659 145.142C136.659 145.15 136.659 145.157 136.659 145.164C136.659 145.172 136.659 145.179 136.659 145.187C136.659 145.194 136.659 145.201 136.659 145.209C136.659 145.216 136.659 145.224 136.659 145.231C136.659 145.238 136.659 145.246 136.659 145.253C136.659 145.26 136.659 145.268 136.659 145.275C136.659 145.282 136.659 145.29 136.659 145.297C136.659 145.304 136.659 145.312 136.659 145.319C136.659 145.326 136.659 145.334 136.659 145.341C136.659 145.348 136.659 145.356 136.659 145.363C136.659 145.37 136.659 145.377 136.659 145.385C136.659 145.392 136.659 145.399 136.659 145.406C136.659 145.414 136.659 145.421 136.659 145.428C136.659 145.435 136.659 145.443 136.659 145.45C136.659 145.457 136.659 145.464 136.659 145.472C136.659 145.479 136.659 145.486 136.659 145.493C136.659 145.501 136.659 145.508 136.659 145.515C136.659 145.522 136.659 145.529 136.659 145.537C136.659 145.544 136.659 145.551 136.659 145.558C136.659 145.565 136.659 145.572 136.659 145.58C136.659 145.587 136.659 145.594 136.659 145.601C136.659 145.608 136.659 145.615 136.659 145.622C136.659 145.63 136.659 145.637 136.659 145.644C136.659 145.651 136.659 145.658 136.659 145.665C136.659 145.672 136.659 145.679 136.659 145.686C136.659 145.694 136.659 145.701 136.659 145.708C136.659 145.715 136.659 145.722 136.659 145.729C136.659 145.736 136.659 145.743 136.659 145.75C136.659 145.757 136.659 145.764 136.659 145.771C136.659 145.778 136.659 145.785 136.659 145.792C136.659 145.799 136.659 145.806 136.659 145.813C136.659 145.82 136.659 145.827 136.659 145.834C136.659 145.841 136.659 145.848 136.659 145.855C136.659 145.862 136.659 145.869 136.659 145.876C136.659 145.883 136.659 145.89 136.659 145.897C136.659 145.904 136.659 145.911 136.659 145.918C136.659 145.925 136.659 145.932 136.659 145.939C136.659 145.946 136.659 145.953 136.659 145.959C136.659 145.966 136.659 145.973 136.659 145.98C136.659 145.987 136.659 145.994 136.659 146.001C136.659 146.008 136.659 146.014 136.659 146.021C136.659 146.028 136.659 146.035 136.659 146.042C136.659 146.049 136.659 146.056 136.659 146.062C136.659 146.069 136.659 146.076 136.659 146.083C136.659 146.09 136.659 146.096 136.659 146.103C136.659 146.11 136.659 146.117 136.659 146.124C136.659 146.13 136.659 146.137 136.659 146.144C136.659 146.151 136.659 146.157 136.659 146.164C136.659 146.171 136.659 146.178 136.659 146.184C136.659 146.191 136.659 146.198 136.659 146.205C136.659 146.211 136.659 146.218 136.659 146.225C136.659 146.231 136.659 146.238 136.659 146.245C136.659 146.251 136.659 146.258 136.659 146.265C136.659 146.271 136.659 146.278 136.659 146.285C136.659 146.291 136.659 146.298 136.659 146.305C136.659 146.311 136.659 146.318 136.659 146.325C136.659 146.331 136.659 146.338 136.659 146.344C136.659 146.351 136.659 146.358 136.659 146.364C136.659 146.371 136.659 146.377 136.659 146.384C136.659 146.39 136.659 146.397 136.659 146.404C136.659 146.41 136.659 146.417 136.659 146.423C136.659 146.43 136.659 146.436 136.659 146.443C136.659 146.449 136.659 146.456 136.659 146.462C136.659 146.469 136.659 146.475 136.659 146.482C136.659 146.488 136.659 146.495 136.659 146.501C136.659 146.508 136.659 146.514 136.659 146.52C136.659 146.527 136.659 146.533 136.659 146.54C136.659 146.546 136.659 146.553 136.659 146.559C136.659 146.565 136.659 146.572 136.659 146.578C136.659 146.585 136.659 146.591 136.659 146.597C136.659 146.604 136.659 146.61 136.659 146.616C136.659 146.623 136.659 146.629 136.659 146.636C136.659 146.642 136.659 146.648 136.659 146.654C136.659 146.661 136.659 146.667 136.659 146.673C136.659 146.68 136.659 146.686 136.659 146.692C136.659 146.699 136.659 146.705 136.659 146.711C136.659 146.717 136.659 146.724 136.659 146.73C136.659 146.736 136.659 146.742 136.659 146.749C136.659 146.755 136.659 146.761 136.659 146.767C136.659 146.773 136.659 146.78 136.659 146.786C136.659 146.792 136.659 146.798 136.659 146.804C136.659 146.811 136.659 146.817 136.659 146.823C136.659 146.829 136.659 146.835 136.659 146.841C136.659 146.847 136.659 146.853 136.659 146.86C136.659 146.866 136.659 146.872 136.659 146.878C136.659 146.884 136.659 146.89 136.659 146.896C136.659 146.902 136.659 146.908 136.659 146.914C136.659 146.92 136.659 146.926 136.659 146.932C136.659 146.938 136.659 146.945 136.659 146.951C136.659 146.957 136.659 146.963 136.659 146.969C136.659 146.975 136.659 146.981 136.659 146.986C136.659 146.992 136.659 146.998 136.659 147.004C136.659 147.01 136.659 147.016 136.659 147.022C136.659 147.028 136.659 147.034 136.659 147.04C136.659 147.046 136.659 147.052 136.659 147.058C136.659 147.064 136.659 147.069 136.659 147.075C136.659 147.081 136.659 147.087 136.659 147.093C136.659 147.099 136.659 147.105 136.659 147.11C136.659 147.116 136.659 147.122 136.659 147.128C136.659 147.134 136.659 147.14 136.659 147.145C136.659 147.151 136.659 147.157 136.659 147.163C136.659 147.168 136.659 147.174 136.659 147.18C136.659 147.186 136.659 147.191 136.659 147.197C136.659 147.203 136.659 147.209 136.659 147.214C136.659 147.22 136.659 147.226 136.659 147.231C136.659 147.237 136.659 147.243 136.659 147.248C136.659 147.254 136.659 147.26 136.659 147.265C136.659 147.271 136.659 147.277 136.659 147.282C136.659 147.288 136.659 147.293 136.659 147.299C136.659 147.305 136.659 147.31 136.659 147.316C136.659 147.321 136.659 147.327 136.659 147.333C136.659 147.338 136.659 147.344 136.659 147.349C136.659 147.355 136.659 147.36 136.659 147.366C136.659 147.371 136.659 147.377 136.659 147.382C136.659 147.388 136.659 147.393 136.659 147.399H144.659C144.659 147.393 144.659 147.388 144.659 147.382C144.659 147.377 144.659 147.371 144.659 147.366C144.659 147.36 144.659 147.355 144.659 147.349C144.659 147.344 144.659 147.338 144.659 147.333C144.659 147.327 144.659 147.321 144.659 147.316C144.659 147.31 144.659 147.305 144.659 147.299C144.659 147.293 144.659 147.288 144.659 147.282C144.659 147.277 144.659 147.271 144.659 147.265C144.659 147.26 144.659 147.254 144.659 147.248C144.659 147.243 144.659 147.237 144.659 147.231C144.659 147.226 144.659 147.22 144.659 147.214C144.659 147.209 144.659 147.203 144.659 147.197C144.659 147.191 144.659 147.186 144.659 147.18C144.659 147.174 144.659 147.168 144.659 147.163C144.659 147.157 144.659 147.151 144.659 147.145C144.659 147.14 144.659 147.134 144.659 147.128C144.659 147.122 144.659 147.116 144.659 147.11C144.659 147.105 144.659 147.099 144.659 147.093C144.659 147.087 144.659 147.081 144.659 147.075C144.659 147.069 144.659 147.064 144.659 147.058C144.659 147.052 144.659 147.046 144.659 147.04C144.659 147.034 144.659 147.028 144.659 147.022C144.659 147.016 144.659 147.01 144.659 147.004C144.659 146.998 144.659 146.992 144.659 146.986C144.659 146.981 144.659 146.975 144.659 146.969C144.659 146.963 144.659 146.957 144.659 146.951C144.659 146.945 144.659 146.938 144.659 146.932C144.659 146.926 144.659 146.92 144.659 146.914C144.659 146.908 144.659 146.902 144.659 146.896C144.659 146.89 144.659 146.884 144.659 146.878C144.659 146.872 144.659 146.866 144.659 146.86C144.659 146.853 144.659 146.847 144.659 146.841C144.659 146.835 144.659 146.829 144.659 146.823C144.659 146.817 144.659 146.811 144.659 146.804C144.659 146.798 144.659 146.792 144.659 146.786C144.659 146.78 144.659 146.773 144.659 146.767C144.659 146.761 144.659 146.755 144.659 146.749C144.659 146.742 144.659 146.736 144.659 146.73C144.659 146.724 144.659 146.717 144.659 146.711C144.659 146.705 144.659 146.699 144.659 146.692C144.659 146.686 144.659 146.68 144.659 146.673C144.659 146.667 144.659 146.661 144.659 146.654C144.659 146.648 144.659 146.642 144.659 146.636C144.659 146.629 144.659 146.623 144.659 146.616C144.659 146.61 144.659 146.604 144.659 146.597C144.659 146.591 144.659 146.585 144.659 146.578C144.659 146.572 144.659 146.565 144.659 146.559C144.659 146.553 144.659 146.546 144.659 146.54C144.659 146.533 144.659 146.527 144.659 146.52C144.659 146.514 144.659 146.508 144.659 146.501C144.659 146.495 144.659 146.488 144.659 146.482C144.659 146.475 144.659 146.469 144.659 146.462C144.659 146.456 144.659 146.449 144.659 146.443C144.659 146.436 144.659 146.43 144.659 146.423C144.659 146.417 144.659 146.41 144.659 146.404C144.659 146.397 144.659 146.39 144.659 146.384C144.659 146.377 144.659 146.371 144.659 146.364C144.659 146.358 144.659 146.351 144.659 146.344C144.659 146.338 144.659 146.331 144.659 146.325C144.659 146.318 144.659 146.311 144.659 146.305C144.659 146.298 144.659 146.291 144.659 146.285C144.659 146.278 144.659 146.271 144.659 146.265C144.659 146.258 144.659 146.251 144.659 146.245C144.659 146.238 144.659 146.231 144.659 146.225C144.659 146.218 144.659 146.211 144.659 146.205C144.659 146.198 144.659 146.191 144.659 146.184C144.659 146.178 144.659 146.171 144.659 146.164C144.659 146.157 144.659 146.151 144.659 146.144C144.659 146.137 144.659 146.13 144.659 146.124C144.659 146.117 144.659 146.11 144.659 146.103C144.659 146.096 144.659 146.09 144.659 146.083C144.659 146.076 144.659 146.069 144.659 146.062C144.659 146.056 144.659 146.049 144.659 146.042C144.659 146.035 144.659 146.028 144.659 146.021C144.659 146.014 144.659 146.008 144.659 146.001C144.659 145.994 144.659 145.987 144.659 145.98C144.659 145.973 144.659 145.966 144.659 145.959C144.659 145.953 144.659 145.946 144.659 145.939C144.659 145.932 144.659 145.925 144.659 145.918C144.659 145.911 144.659 145.904 144.659 145.897C144.659 145.89 144.659 145.883 144.659 145.876C144.659 145.869 144.659 145.862 144.659 145.855C144.659 145.848 144.659 145.841 144.659 145.834C144.659 145.827 144.659 145.82 144.659 145.813C144.659 145.806 144.659 145.799 144.659 145.792C144.659 145.785 144.659 145.778 144.659 145.771C144.659 145.764 144.659 145.757 144.659 145.75C144.659 145.743 144.659 145.736 144.659 145.729C144.659 145.722 144.659 145.715 144.659 145.708C144.659 145.701 144.659 145.694 144.659 145.686C144.659 145.679 144.659 145.672 144.659 145.665C144.659 145.658 144.659 145.651 144.659 145.644C144.659 145.637 144.659 145.63 144.659 145.622C144.659 145.615 144.659 145.608 144.659 145.601C144.659 145.594 144.659 145.587 144.659 145.58C144.659 145.572 144.659 145.565 144.659 145.558C144.659 145.551 144.659 145.544 144.659 145.537C144.659 145.529 144.659 145.522 144.659 145.515C144.659 145.508 144.659 145.501 144.659 145.493C144.659 145.486 144.659 145.479 144.659 145.472C144.659 145.464 144.659 145.457 144.659 145.45C144.659 145.443 144.659 145.435 144.659 145.428C144.659 145.421 144.659 145.414 144.659 145.406C144.659 145.399 144.659 145.392 144.659 145.385C144.659 145.377 144.659 145.37 144.659 145.363C144.659 145.356 144.659 145.348 144.659 145.341C144.659 145.334 144.659 145.326 144.659 145.319C144.659 145.312 144.659 145.304 144.659 145.297C144.659 145.29 144.659 145.282 144.659 145.275C144.659 145.268 144.659 145.26 144.659 145.253C144.659 145.246 144.659 145.238 144.659 145.231C144.659 145.224 144.659 145.216 144.659 145.209C144.659 145.201 144.659 145.194 144.659 145.187C144.659 145.179 144.659 145.172 144.659 145.164C144.659 145.157 144.659 145.15 144.659 145.142C144.659 145.135 144.659 145.127 144.659 145.12C144.659 145.113 144.659 145.105 144.659 145.098C144.659 145.09 144.659 145.083 144.659 145.075C144.659 145.068 144.659 145.06 144.659 145.053C144.659 145.046 144.659 145.038 144.659 145.031C144.659 145.023 144.659 145.016 144.659 145.008C144.659 145.001 144.659 144.993 144.659 144.986C144.659 144.978 144.659 144.971 144.659 144.963C144.659 144.956 144.659 144.948 144.659 144.941C144.659 144.933 144.659 144.926 144.659 144.918C144.659 144.911 144.659 144.903 144.659 144.896C144.659 144.888 144.659 144.88 144.659 144.873C144.659 144.865 144.659 144.858 144.659 144.85C144.659 144.843 144.659 144.835 144.659 144.828C144.659 144.82 144.659 144.812 144.659 144.805C144.659 144.797 144.659 144.79 144.659 144.782C144.659 144.775 144.659 144.767 144.659 144.759C144.659 144.752 144.659 144.744 144.659 144.737C144.659 144.729 144.659 144.721 144.659 144.714C144.659 144.706 144.659 144.698 144.659 144.691C144.659 144.683 144.659 144.676 144.659 144.668C144.659 144.66 144.659 144.653 144.659 144.645C144.659 144.637 144.659 144.63 144.659 144.622C144.659 144.614 144.659 144.607 144.659 144.599C144.659 144.591 144.659 144.584 144.659 144.576C144.659 144.568 144.659 144.561 144.659 144.553C144.659 144.545 144.659 144.538 144.659 144.53C144.659 144.522 144.659 144.515 144.659 144.507C144.659 144.499 144.659 144.491 144.659 144.484C144.659 144.476 144.659 144.468 144.659 144.461C144.659 144.453 144.659 144.445 144.659 144.437C144.659 144.43 144.659 144.422 144.659 144.414C144.659 144.406 144.659 144.399 144.659 144.391C144.659 144.383 144.659 144.375 144.659 144.368C144.659 144.36 144.659 144.352 144.659 144.344C144.659 144.337 144.659 144.329 144.659 144.321C144.659 144.313 144.659 144.306 144.659 144.298C144.659 144.29 144.659 144.282 144.659 144.274C144.659 144.267 144.659 144.259 144.659 144.251C144.659 144.243 144.659 144.235 144.659 144.228C144.659 144.22 144.659 144.212 144.659 144.204C144.659 144.196 144.659 144.189 144.659 144.181C144.659 144.173 144.659 144.165 144.659 144.157C144.659 144.149 144.659 144.142 144.659 144.134C144.659 144.126 144.659 144.118 144.659 144.11C144.659 144.102 144.659 144.095 144.659 144.087C144.659 144.079 144.659 144.071 144.659 144.063C144.659 144.055 144.659 144.047 144.659 144.04C144.659 144.032 144.659 144.024 144.659 144.016C144.659 144.008 144.659 144 144.659 143.992C144.659 143.984 144.659 143.977 144.659 143.969C144.659 143.961 144.659 143.953 144.659 143.945C144.659 143.937 144.659 143.929 144.659 143.921C144.659 143.913 144.659 143.905 144.659 143.898C144.659 143.89 144.659 143.882 144.659 143.874C144.659 143.866 144.659 143.858 144.659 143.85C144.659 143.842 144.659 143.834 144.659 143.826C144.659 143.818 144.659 143.81 144.659 143.802C144.659 143.795 144.659 143.787 144.659 143.779C144.659 143.771 144.659 143.763 144.659 143.755C144.659 143.747 144.659 143.739 144.659 143.731C144.659 143.723 144.659 143.715 144.659 143.707C144.659 143.699 144.659 143.691 144.659 143.683C144.659 143.675 144.659 143.667 144.659 143.659C144.659 143.651 144.659 143.643 144.659 143.635C144.659 143.627 144.659 143.619 144.659 143.611C144.659 143.603 144.659 143.595 144.659 143.587C144.659 143.579 144.659 143.571 144.659 143.563C144.659 143.555 144.659 143.548 144.659 143.54C144.659 143.531 144.659 143.523 144.659 143.515C144.659 143.507 144.659 143.499 144.659 143.491C144.659 143.483 144.659 143.475 144.659 143.467C144.659 143.459 144.659 143.451 144.659 143.443C144.659 143.435 144.659 143.427 144.659 143.419C144.659 143.411 144.659 143.403 144.659 143.395C144.659 143.387 144.659 143.379 144.659 143.371C144.659 143.363 144.659 143.355 144.659 143.347C144.659 143.339 144.659 143.331 144.659 143.323C144.659 143.315 144.659 143.307 144.659 143.299C144.659 143.291 144.659 143.283 144.659 143.275C144.659 143.266 144.659 143.258 144.659 143.25C144.659 143.242 144.659 143.234 144.659 143.226C144.659 143.218 144.659 143.21 144.659 143.202C144.659 143.194 144.659 143.186 144.659 143.178C144.659 143.17 144.659 143.162 144.659 143.154C144.659 143.145 144.659 143.137 144.659 143.129C144.659 143.121 144.659 143.113 144.659 143.105C144.659 143.097 144.659 143.089 144.659 143.081C144.659 143.073 144.659 143.065 144.659 143.057C144.659 143.048 144.659 143.04 144.659 143.032C144.659 143.024 144.659 143.016 144.659 143.008C144.659 143 144.659 142.992 144.659 142.984C144.659 142.976 144.659 142.967 144.659 142.959C144.659 142.951 144.659 142.943 144.659 142.935C144.659 142.927 144.659 142.919 144.659 142.911C144.659 142.903 144.659 142.895 144.659 142.886C144.659 142.878 144.659 142.87 144.659 142.862C144.659 142.854 144.659 142.846 144.659 142.838C144.659 142.83 144.659 142.821 144.659 142.813C144.659 142.805 144.659 142.797 144.659 142.789C144.659 142.781 144.659 142.773 144.659 142.765C144.659 142.756 144.659 142.748 144.659 142.74C144.659 142.732 144.659 142.724 144.659 142.716C144.659 142.708 144.659 142.7 144.659 142.691C144.659 142.683 144.659 142.675 144.659 142.667C144.659 142.659 144.659 142.651 144.659 142.643C144.659 142.634 144.659 142.626 144.659 142.618C144.659 142.61 144.659 142.602 144.659 142.594C144.659 142.586 144.659 142.577 144.659 142.569C144.659 142.561 144.659 142.553 144.659 142.545C144.659 142.537 144.659 142.529 144.659 142.52C144.659 142.512 144.659 142.504 144.659 142.496C144.659 142.488 144.659 142.48 144.659 142.472C144.659 142.463 144.659 142.455 144.659 142.447C144.659 142.439 144.659 142.431 144.659 142.423C144.659 142.414 144.659 142.406 144.659 142.398C144.659 142.39 144.659 142.382 144.659 142.374C144.659 142.366 144.659 142.357 144.659 142.349C144.659 142.341 144.659 142.333 144.659 142.325C144.659 142.317 144.659 142.308 144.659 142.3C144.659 142.292 144.659 142.284 144.659 142.276C144.659 142.268 144.659 142.259 144.659 142.251C144.659 142.243 144.659 142.235 144.659 142.227C144.659 142.219 144.659 142.211 144.659 142.202C144.659 142.194 144.659 142.186 144.659 142.178C144.659 142.17 144.659 142.162 144.659 142.153C144.659 142.145 144.659 142.137 144.659 142.129C144.659 142.121 144.659 142.113 144.659 142.104C144.659 142.096 144.659 142.088 144.659 142.08C144.659 142.072 144.659 142.064 144.659 142.055C144.659 142.047 144.659 142.039 144.659 142.031C144.659 142.023 144.659 142.015 144.659 142.007C144.659 141.998 144.659 141.99 144.659 141.982C144.659 141.974 144.659 141.966 144.659 141.958C144.659 141.949 144.659 141.941 144.659 141.933C144.659 141.925 144.659 141.917 144.659 141.909C144.659 141.9 144.659 141.892 144.659 141.884C144.659 141.876 144.659 141.868 144.659 141.86C144.659 141.851 144.659 141.843 144.659 141.835C144.659 141.827 144.659 141.819 144.659 141.811C144.659 141.803 144.659 141.794 144.659 141.786C144.659 141.778 144.659 141.77 144.659 141.762C144.659 141.754 144.659 141.745 144.659 141.737C144.659 141.729 144.659 141.721 144.659 141.713C144.659 141.705 144.659 141.697 144.659 141.688C144.659 141.68 144.659 141.672 144.659 141.664C144.659 141.656 144.659 141.648 144.659 141.64C144.659 141.631 144.659 141.623 144.659 141.615C144.659 141.607 144.659 141.599 144.659 141.591C144.659 141.583 144.659 141.574 144.659 141.566C144.659 141.558 144.659 141.55 144.659 141.542C144.659 141.534 144.659 141.526 144.659 141.517C144.659 141.509 144.659 141.501 144.659 141.493C144.659 141.485 144.659 141.477 144.659 141.469C144.659 141.46 144.659 141.452 144.659 141.444C144.659 141.436 144.659 141.428 144.659 141.42C144.659 141.412 144.659 141.404 144.659 141.395C144.659 141.387 144.659 141.379 144.659 141.371C144.659 141.363 144.659 141.355 144.659 141.347C144.659 141.339 144.659 141.33 144.659 141.322C144.659 141.314 144.659 141.306 144.659 141.298C144.659 141.29 144.659 141.282 144.659 141.274C144.659 141.266 144.659 141.257 144.659 141.249C144.659 141.241 144.659 141.233 144.659 141.225C144.659 141.217 144.659 141.209 144.659 141.201C144.659 141.193 144.659 141.185 144.659 141.176C144.659 141.168 144.659 141.16 144.659 141.152C144.659 141.144 144.659 141.136 144.659 141.128C144.659 141.12 144.659 141.112 144.659 141.104C144.659 141.096 144.659 141.087 144.659 141.079C144.659 141.071 144.659 141.063 144.659 141.055C144.659 141.047 144.659 141.039 144.659 141.031C144.659 141.023 144.659 141.015 144.659 141.007C144.659 140.999 144.659 140.991 144.659 140.982C144.659 140.974 144.659 140.966 144.659 140.958C144.659 140.95 144.659 140.942 144.659 140.934C144.659 140.926 144.659 140.918 144.659 140.91C144.659 140.902 144.659 140.894 144.659 140.886C144.659 140.878 144.659 140.87 144.659 140.862C144.659 140.854 144.659 140.846 144.659 140.837C144.659 140.829 144.659 140.821 144.659 140.813C144.659 140.805 144.659 140.797 144.659 140.789C144.659 140.781 144.659 140.773 144.659 140.765C144.659 140.757 144.659 140.749 144.659 140.741C144.659 140.733 144.659 140.725 144.659 140.717C144.659 140.709 144.659 140.701 144.659 140.693C144.659 140.685 144.659 140.677 144.659 140.669C144.659 140.661 144.659 140.653 144.659 140.645C144.659 140.637 144.659 140.629 144.659 140.621C144.659 140.613 144.659 140.605 144.659 140.597C144.659 140.589 144.659 140.581 144.659 140.573C144.659 140.565 144.659 140.557 144.659 140.549C144.659 140.541 144.659 140.533 144.659 140.525C144.659 140.517 144.659 140.509 144.659 140.501C144.659 140.493 144.659 140.485 144.659 140.477C144.659 140.469 144.659 140.461 144.659 140.454C144.659 140.446 144.659 140.438 144.659 140.43C144.659 140.422 144.659 140.414 144.659 140.406C144.659 140.398 144.659 140.39 144.659 140.382C144.659 140.374 144.659 140.366 144.659 140.358C144.659 140.35 144.659 140.342 144.659 140.334C144.659 140.327 144.659 140.319 144.659 140.311C144.659 140.303 144.659 140.295 144.659 140.287C144.659 140.279 144.659 140.271 144.659 140.263C144.659 140.255 144.659 140.247 144.659 140.24C144.659 140.232 144.659 140.224 144.659 140.216C144.659 140.208 144.659 140.2 144.659 140.192C144.659 140.184 144.659 140.176 144.659 140.169C144.659 140.161 144.659 140.153 144.659 140.145C144.659 140.137 144.659 140.129 144.659 140.121C144.659 140.114 144.659 140.106 144.659 140.098C144.659 140.09 144.659 140.082 144.659 140.074C144.659 140.066 144.659 140.059 144.659 140.051C144.659 140.043 144.659 140.035 144.659 140.027C144.659 140.019 144.659 140.012 144.659 140.004C144.659 139.996 144.659 139.988 144.659 139.98C144.659 139.973 144.659 139.965 144.659 139.957C144.659 139.949 144.659 139.941 144.659 139.934C144.659 139.926 144.659 139.918 144.659 139.91C144.659 139.902 144.659 139.895 144.659 139.887C144.659 139.879 144.659 139.871 144.659 139.863C144.659 139.856 144.659 139.848 144.659 139.84C144.659 139.832 144.659 139.825 144.659 139.817C144.659 139.809 144.659 139.801 144.659 139.794C144.659 139.786 144.659 139.778 144.659 139.77C144.659 139.763 144.659 139.755 144.659 139.747C144.659 139.739 144.659 139.732 144.659 139.724C144.659 139.716 144.659 139.709 144.659 139.701C144.659 139.693 144.659 139.685 144.659 139.678C144.659 139.67 144.659 139.662 144.659 139.655C144.659 139.647 144.659 139.639 144.659 139.632C144.659 139.624 144.659 139.616 144.659 139.609C144.659 139.601 144.659 139.593 144.659 139.586C144.659 139.578 144.659 139.57 144.659 139.563C144.659 139.555 144.659 139.547 144.659 139.54C144.659 139.532 144.659 139.524 144.659 139.517C144.659 139.509 144.659 139.501 144.659 139.494C144.659 139.486 144.659 139.479 144.659 139.471C144.659 139.463 144.659 139.456 144.659 139.448C144.659 139.441 144.659 139.433 144.659 139.425C144.659 139.418 144.659 139.41 144.659 139.403C144.659 139.395 144.659 139.387 144.659 139.38C144.659 139.372 144.659 139.365 144.659 139.357C144.659 139.35 144.659 139.342 144.659 139.334C144.659 139.327 144.659 139.319 144.659 139.312C144.659 139.304 144.659 139.297 144.659 139.289C144.659 139.282 144.659 139.274 144.659 139.267C144.659 139.259 144.659 139.252 144.659 139.244C144.659 139.237 144.659 139.229 144.659 139.222C144.659 139.214 144.659 139.207 144.659 139.199C144.659 139.192 144.659 139.184 144.659 139.177C144.659 139.169 144.659 139.162 144.659 139.154C144.659 139.147 144.659 139.139 144.659 139.132C144.659 139.124 144.659 139.117 144.659 139.109C144.659 139.102 144.659 139.095 144.659 139.087C144.659 139.08 144.659 139.072 144.659 139.065C144.659 139.057 144.659 139.05 144.659 139.043C144.659 139.035 144.659 139.028 144.659 139.02C144.659 139.013 144.659 139.006 144.659 138.998C144.659 138.991 144.659 138.983 144.659 138.976C144.659 138.969 144.659 138.961 144.659 138.954C144.659 138.947 144.659 138.939 144.659 138.932C144.659 138.925 144.659 138.917 144.659 138.91C144.659 138.902 144.659 138.895 144.659 138.888C144.659 138.881 144.659 138.873 144.659 138.866C144.659 138.859 144.659 138.851 144.659 138.844C144.659 138.837 144.659 138.829 144.659 138.822C144.659 138.815 144.659 138.808 144.659 138.8C144.659 138.793 144.659 138.786 144.659 138.778C144.659 138.771 144.659 138.764 144.659 138.757C144.659 138.749 144.659 138.742 144.659 138.735C144.659 138.728 144.659 138.72 144.659 138.713C144.659 138.706 144.659 138.699 144.659 138.692C144.659 138.684 144.659 138.677 144.659 138.67C144.659 138.663 144.659 138.656 144.659 138.648C144.659 138.641 144.659 138.634 144.659 138.627C144.659 138.62 144.659 138.613 144.659 138.605C144.659 138.598 144.659 138.591 144.659 138.584C144.659 138.577 144.659 138.57 144.659 138.562C144.659 138.555 144.659 138.548 144.659 138.541C144.659 138.534 144.659 138.527 144.659 138.52C144.659 138.513 144.659 138.506 144.659 138.498C144.659 138.491 144.659 138.484 144.659 138.477C144.659 138.47 144.659 138.463 144.659 138.456C144.659 138.449 144.659 138.442 144.659 138.435C144.659 138.428 144.659 138.421 144.659 138.414C144.659 138.407 144.659 138.4 144.659 138.393C144.659 138.386 144.659 138.379 144.659 138.372C144.659 138.365 144.659 138.358 144.659 138.351C144.659 138.344 144.659 138.337 144.659 138.33C144.659 138.323 144.659 138.316 144.659 138.309C144.659 138.302 144.659 138.295 144.659 138.288C144.659 138.281 144.659 138.274 144.659 138.267C144.659 138.26 144.659 138.253 144.659 138.246C144.659 138.239 144.659 138.233 144.659 138.226C144.659 138.219 144.659 138.212 144.659 138.205C144.659 138.198 144.659 138.191 144.659 138.184C144.659 138.177 144.659 138.171 144.659 138.164C144.659 138.157 144.659 138.15 144.659 138.143C144.659 138.136 144.659 138.13 144.659 138.123C144.659 138.116 144.659 138.109 144.659 138.102C144.659 138.095 144.659 138.089 144.659 138.082C144.659 138.075 144.659 138.068 144.659 138.062C144.659 138.055 144.659 138.048 144.659 138.041C144.659 138.034 144.659 138.028 144.659 138.021C144.659 138.014 144.659 138.007 144.659 138.001C144.659 137.994 144.659 137.987 144.659 137.981C144.659 137.974 144.659 137.967 144.659 137.96C144.659 137.954 144.659 137.947 144.659 137.94C144.659 137.934 144.659 137.927 144.659 137.92C144.659 137.914 144.659 137.907 144.659 137.9C144.659 137.894 144.659 137.887 144.659 137.881C144.659 137.874 144.659 137.867 144.659 137.861C144.659 137.854 144.659 137.847 144.659 137.841C144.659 137.834 144.659 137.828 144.659 137.821C144.659 137.814 144.659 137.808 144.659 137.801C144.659 137.795 144.659 137.788 144.659 137.782C144.659 137.775 144.659 137.769 144.659 137.762C144.659 137.756 144.659 137.749 144.659 137.743C144.659 137.736 144.659 137.73 144.659 137.723C144.659 137.717 144.659 137.71 144.659 137.704C144.659 137.697 144.659 137.691 144.659 137.684C144.659 137.678 144.659 137.671 144.659 137.665C144.659 137.658 144.659 137.652 144.659 137.646C144.659 137.639 144.659 137.633 144.659 137.626C144.659 137.62 144.659 137.613 144.659 137.607C144.659 137.601 144.659 137.594 144.659 137.588C144.659 137.582 144.659 137.575 144.659 137.569C144.659 137.563 144.659 137.556 144.659 137.55C144.659 137.544 144.659 137.537 144.659 137.531C144.659 137.525 144.659 137.518 144.659 137.512C144.659 137.506 144.659 137.499 144.659 137.493C144.659 137.487 144.659 137.481 144.659 137.474C144.659 137.468 144.659 137.462 144.659 137.456C144.659 137.449 144.659 137.443 144.659 137.437C144.659 137.431 144.659 137.424 144.659 137.418C144.659 137.412 144.659 137.406 144.659 137.4C144.659 137.393 144.659 137.387 144.659 137.381C144.659 137.375 144.659 137.369 144.659 137.363C144.659 137.357 144.659 137.35 144.659 137.344C144.659 137.338 144.659 137.332 144.659 137.326C144.659 137.32 144.659 137.314 144.659 137.308C144.659 137.302 144.659 137.295 144.659 137.289C144.659 137.283 144.659 137.277 144.659 137.271C144.659 137.265 144.659 137.259 144.659 137.253C144.659 137.247 144.659 137.241 144.659 137.235C144.659 137.229 144.659 137.223 144.659 137.217C144.659 137.211 144.659 137.205 144.659 137.199C144.659 137.193 144.659 137.187 144.659 137.181C144.659 137.175 144.659 137.169 144.659 137.163C144.659 137.157 144.659 137.152 144.659 137.146C144.659 137.14 144.659 137.134 144.659 137.128C144.659 137.122 144.659 137.116 144.659 137.11C144.659 137.104 144.659 137.099 144.659 137.093C144.659 137.087 144.659 137.081 144.659 137.075C144.659 137.069 144.659 137.064 144.659 137.058C144.659 137.052 144.659 137.046 144.659 137.04C144.659 137.035 144.659 137.029 144.659 137.023C144.659 137.017 144.659 137.011 144.659 137.006C144.659 137 144.659 136.994 144.659 136.989C144.659 136.983 144.659 136.977 144.659 136.971C144.659 136.966 144.659 136.96 144.659 136.954C144.659 136.949 144.659 136.943 144.659 136.937C144.659 136.932 144.659 136.926 144.659 136.92C144.659 136.915 144.659 136.909 144.659 136.903C144.659 136.898 144.659 136.892 144.659 136.887C144.659 136.881 144.659 136.875 144.659 136.87C144.659 136.864 144.659 136.859 144.659 136.853C144.659 136.848 144.659 136.842 144.659 136.837C144.659 136.831 144.659 136.826 144.659 136.82C144.659 136.815 144.659 136.809 144.659 136.804C144.659 136.798 144.659 136.793 144.659 136.787C144.659 136.782 144.659 136.776 144.659 136.771C144.659 136.765 144.659 136.76 144.659 136.754C144.659 136.749 144.659 136.744 144.659 136.738C144.659 136.733 144.659 136.727 144.659 136.722C144.659 136.717 144.659 136.711 144.659 136.706C144.659 136.701 144.659 136.695 144.659 136.69C144.659 136.685 144.659 136.679 144.659 136.674C144.659 136.669 144.659 136.663 144.659 136.658C144.659 136.653 144.659 136.648 144.659 136.642C144.659 136.637 144.659 136.632 144.659 136.627C144.659 136.621 144.659 136.616 144.659 136.611C144.659 136.606 144.659 136.6 144.659 136.595C144.659 136.59 144.659 136.585 144.659 136.58C144.659 136.575 144.659 136.569 144.659 136.564C144.659 136.559 144.659 136.554 144.659 136.549C144.659 136.544 144.659 136.539 144.659 136.533C144.659 136.528 144.659 136.523 144.659 136.518C144.659 136.513 144.659 136.508 144.659 136.503C144.659 136.498 144.659 136.493 144.659 136.488C144.659 136.483 144.659 136.478 144.659 136.473C144.659 136.468 144.659 136.463 144.659 136.458C144.659 136.453 144.659 136.448 144.659 136.443C144.659 136.438 144.659 136.433 144.659 136.428C144.659 136.423 144.659 136.418 144.659 136.413C144.659 136.408 144.659 136.404 144.659 136.399H136.659Z" fill="#7699FF"/>
<path d="M384 98.5L380.002 98.64C380.051 100.018 380.806 101.275 382 101.964L384 98.5ZM352.377 92.5095L350.103 89.2191C349.753 89.4607 349.444 89.7564 349.188 90.0952L352.377 92.5095ZM347.408 108.116L343.683 109.571L347.408 108.116ZM387.299 119.023L389.871 122.086L387.299 119.023ZM390.335 105.764L394.29 105.162C394.107 103.961 393.388 102.908 392.335 102.3L390.335 105.764ZM387.998 98.36C387.934 96.5367 387.155 94.9024 386.278 93.6218C385.366 92.2917 384.144 91.0412 382.74 89.9261C379.927 87.6935 376.084 85.7671 371.616 84.7785L369.888 92.5897C373.201 93.3227 375.927 94.7329 377.766 96.1921C378.687 96.9229 379.311 97.6072 379.678 98.1432C380.079 98.7288 380.011 98.8919 380.002 98.64L387.998 98.36ZM371.616 84.7785C362.325 82.7233 353.47 86.8912 350.103 89.2191L354.652 95.7999C357.049 94.1429 363.614 91.2018 369.888 92.5897L371.616 84.7785ZM349.188 90.0952C347.804 91.9238 345.901 94.9381 344.572 98.2324C343.329 101.314 342.16 105.674 343.683 109.571L351.134 106.66C350.793 105.786 350.892 103.951 351.991 101.225C353.004 98.7125 354.518 96.3093 355.567 94.9237L349.188 90.0952ZM343.683 109.571C346.429 116.602 351.583 121.128 357.198 122.895L359.6 115.264C356.42 114.264 353.048 111.558 351.134 106.66L343.683 109.571ZM357.198 122.895C358.182 123.205 359.303 123.619 360.598 124.101C361.857 124.57 363.262 125.097 364.672 125.567C367.35 126.46 370.714 127.394 373.775 127.097L373.003 119.135C371.784 119.253 369.85 118.861 367.203 117.978C365.95 117.56 364.685 117.087 363.39 116.604C362.131 116.135 360.814 115.647 359.6 115.264L357.198 122.895ZM373.775 127.097C377.487 126.737 384.21 126.839 389.871 122.086L384.727 115.959C381.424 118.732 377.854 118.664 373.003 119.135L373.775 127.097ZM389.871 122.086C392.799 119.628 393.883 115.894 394.301 113.029C394.738 110.031 394.58 107.066 394.29 105.162L386.381 106.366C386.573 107.628 386.689 109.787 386.385 111.874C386.061 114.094 385.386 115.407 384.727 115.959L389.871 122.086ZM392.335 102.3C392.442 102.362 392.3 102.302 391.892 101.795C391.507 101.315 391.11 100.729 390.572 99.9385C390.08 99.2154 389.465 98.3136 388.787 97.4958C388.122 96.6947 387.202 95.7301 386 95.0359L382 101.964C381.987 101.957 382.042 101.987 382.164 102.1C382.285 102.212 382.439 102.374 382.63 102.604C383.028 103.084 383.44 103.677 383.958 104.438C384.43 105.133 385.027 106.022 385.654 106.803C386.258 107.555 387.146 108.542 388.335 109.228L392.335 102.3Z" fill="#7699FF"/>
<path d="M224 106.036L225.789 109.613C225.841 109.587 225.892 109.56 225.943 109.532L224 106.036ZM222.211 102.458C220.79 103.169 218.852 104.506 217.22 106.399C215.577 108.305 214 111.072 214 114.536H222C222 113.599 222.423 112.616 223.28 111.622C224.148 110.615 225.21 109.903 225.789 109.613L222.211 102.458ZM214 114.536C214 117.482 214.263 120.383 214.962 122.869C215.631 125.246 216.896 127.938 219.442 129.466L223.558 122.606C223.604 122.633 223.119 122.325 222.663 120.703C222.237 119.188 222 117.089 222 114.536H214ZM219.442 129.466C221.634 130.781 226.692 134.454 233.649 132.367L231.351 124.704C228.308 125.617 226.366 124.291 223.558 122.606L219.442 129.466ZM233.649 132.367C236.582 131.487 239.564 130.012 242.022 128.015C244.457 126.037 246.646 123.317 247.405 119.903L239.595 118.168C239.354 119.254 238.543 120.534 236.978 121.806C235.436 123.059 233.418 124.084 231.351 124.704L233.649 132.367ZM247.405 119.903C248.432 115.28 248.929 109.808 244.828 105.707L239.172 111.364C240.071 112.263 240.568 113.791 239.595 118.168L247.405 119.903ZM244.828 105.707C243.578 104.457 241.755 103.59 240.175 102.995C238.457 102.349 236.46 101.819 234.43 101.469C232.403 101.119 230.232 100.93 228.176 101.024C226.19 101.115 223.954 101.485 222.057 102.539L225.943 109.532C226.296 109.336 227.122 109.081 228.543 109.016C229.893 108.954 231.472 109.077 233.07 109.352C234.665 109.627 236.168 110.035 237.357 110.482C238.683 110.981 239.172 111.364 239.172 111.364L244.828 105.707Z" fill="#7699FF"/>
<path d="M311 58.0355L312.789 61.6132C312.841 61.5873 312.892 61.5603 312.943 61.5322L311 58.0355ZM309.211 54.4578C307.79 55.1685 305.852 56.5061 304.22 58.3988C302.577 60.3051 301 63.0723 301 66.5355H309C309 65.5988 309.423 64.6159 310.28 63.6223C311.148 62.615 312.21 61.9025 312.789 61.6132L309.211 54.4578ZM301 66.5355C301 69.4822 301.263 72.3835 301.962 74.8685C302.631 77.2464 303.896 79.9382 306.442 81.4655L310.558 74.6056C310.604 74.6329 310.119 74.3246 309.663 72.7026C309.237 71.1876 309 69.0889 309 66.5355H301ZM306.442 81.4655C308.634 82.7805 313.692 86.4541 320.649 84.3668L318.351 76.7042C315.308 77.617 313.366 76.2905 310.558 74.6056L306.442 81.4655ZM320.649 84.3668C323.582 83.4872 326.564 82.012 329.022 80.015C331.457 78.0372 333.646 75.3174 334.405 71.9033L326.595 70.1678C326.354 71.2536 325.543 72.5339 323.978 73.8061C322.436 75.059 320.418 76.0839 318.351 76.7042L320.649 84.3668ZM334.405 71.9033C335.432 67.2801 335.929 61.8081 331.828 57.7071L326.172 63.364C327.071 64.2629 327.568 65.7909 326.595 70.1678L334.405 71.9033ZM331.828 57.7071C330.578 56.457 328.755 55.5898 327.175 54.995C325.457 54.3487 323.46 53.8187 321.43 53.4687C319.403 53.1193 317.232 52.9298 315.176 53.0241C313.19 53.1152 310.954 53.4854 309.057 54.5389L312.943 61.5322C313.296 61.3357 314.122 61.0809 315.543 61.0157C316.893 60.9538 318.472 61.0768 320.07 61.3524C321.665 61.6274 323.168 62.0349 324.357 62.4823C325.683 62.9813 326.172 63.3641 326.172 63.364L331.828 57.7071Z" fill="#7699FF"/>
<path d="M253.5 190.125L250.411 187.584L250.404 187.592L253.5 190.125ZM250.404 187.592C249.34 188.892 248.41 189.997 247.731 190.877C247.03 191.786 246.366 192.742 245.886 193.862C244.926 196.102 245 198.451 245 201.125H253C253 197.799 253.074 197.398 253.239 197.013C253.322 196.821 253.501 196.495 254.066 195.764C254.652 195.003 255.41 194.108 256.596 192.658L250.404 187.592ZM245 201.125C245 207.948 247.832 214.263 252.711 216.703L256.289 209.547C255.168 208.987 253 206.302 253 201.125H245ZM252.711 216.703C253.212 216.953 253.627 217.251 254.572 217.855C255.392 218.379 256.514 219.059 257.884 219.531C260.943 220.587 264.356 220.323 268.396 218.147L264.604 211.103C262.144 212.427 261.057 212.163 260.491 211.969C260.049 211.816 259.577 211.559 258.881 211.114C258.31 210.749 257.288 210.047 256.289 209.547L252.711 216.703ZM268.396 218.147C271.533 216.458 274.425 214.835 276.327 213.016C277.344 212.043 278.295 210.821 278.807 209.268C279.338 207.657 279.28 206.046 278.846 204.526L271.154 206.724C271.22 206.954 271.162 206.905 271.209 206.763C271.237 206.679 271.218 206.832 270.798 207.234C269.825 208.165 267.967 209.292 264.604 211.103L268.396 218.147ZM278.846 204.526C277.691 200.483 275.797 196.565 271.325 193.37L266.675 199.88C269.203 201.685 270.309 203.767 271.154 206.724L278.846 204.526ZM271.325 193.37C270.721 192.939 270.254 192.5 269.766 191.993C269.375 191.586 268.609 190.731 267.938 190.096C266.223 188.471 264.099 187.152 260.47 186.244L258.53 194.006C260.901 194.598 261.777 195.279 262.437 195.904C262.954 196.394 263.219 196.727 263.999 197.538C264.684 198.25 265.529 199.061 266.675 199.88L271.325 193.37ZM260.47 186.244C259.736 186.061 259.111 185.9 258.573 185.761C258.044 185.624 257.571 185.5 257.178 185.401C256.565 185.248 255.604 185 254.713 185C254.14 185 253.369 185.092 252.565 185.495C251.77 185.894 251.272 186.434 251.004 186.766C250.795 187.025 250.576 187.358 250.563 187.376C250.498 187.472 250.458 187.527 250.411 187.584L256.589 192.666C256.851 192.348 257.042 192.075 257.169 191.889C257.251 191.768 257.25 191.769 257.286 191.718C257.306 191.688 257.279 191.729 257.225 191.796C257.108 191.941 256.761 192.34 256.153 192.645C255.535 192.955 254.988 193 254.713 193C254.484 193 254.379 192.968 254.531 192.998C254.661 193.023 254.872 193.071 255.231 193.161C255.586 193.25 256.011 193.361 256.567 193.505C257.115 193.647 257.764 193.814 258.53 194.006L260.47 186.244Z" fill="#7699FF"/>
</svg>
