<svg width="24" height="24" viewBox="0 0 24 24" fill="none" xmlns="http://www.w3.org/2000/svg">
<path d="M19.2928 5.34399C17.9168 4.71467 16.4555 4.256 14.9301 4C14.7381 4.33067 14.5248 4.77866 14.3754 5.13067C12.7531 4.89599 11.1424 4.89599 9.54238 5.13067C9.39304 4.77866 9.16903 4.33067 8.98768 4C7.45171 4.256 5.99038 4.71467 4.62398 5.34399C1.86132 9.41865 1.11466 13.3973 1.48799 17.3226C3.32265 18.6559 5.09333 19.4666 6.83307 20C7.25973 19.424 7.64374 18.8053 7.97441 18.1546C7.34507 17.92 6.74774 17.632 6.17174 17.2906C6.32107 17.184 6.47041 17.0667 6.60908 16.9493C10.0864 18.5387 13.8528 18.5387 17.2874 16.9493C17.4368 17.0667 17.5754 17.184 17.7248 17.2906C17.1488 17.632 16.5515 17.92 15.9221 18.1546C16.2528 18.8053 16.6368 19.424 17.0634 20C18.8021 19.4666 20.5834 18.6559 22.4085 17.3226C22.8671 12.7787 21.6821 8.83202 19.2928 5.34399ZM8.45439 14.9013C7.40905 14.9013 6.55572 13.952 6.55572 12.7893C6.55572 11.6267 7.38772 10.6773 8.45439 10.6773C9.51037 10.6773 10.3743 11.6267 10.353 12.7893C10.353 13.952 9.51037 14.9013 8.45439 14.9013ZM15.4635 14.9013C14.4181 14.9013 13.5637 13.952 13.5637 12.7893C13.5637 11.6267 14.3968 10.6773 15.4635 10.6773C16.5195 10.6773 17.3834 11.6267 17.3621 12.7893C17.3621 13.952 16.5301 14.9013 15.4635 14.9013Z" stroke="rgba(88, 101, 242, 0.8)" stroke-linejoin="round"/>
</svg>
