<svg width="170" height="140" viewBox="0 0 170 140" fill="none" xmlns="http://www.w3.org/2000/svg">
<g id="Group 51">
<path id="Fill 1" fill-rule="evenodd" clip-rule="evenodd" d="M62.5002 26.7766C62.5002 26.7766 58.1195 32.5567 53.8923 36.0548C49.6655 39.5533 43.7488 43.8103 43.7488 43.8103C43.7488 43.8103 59.1953 43.3558 60.8092 43.2038C62.4232 43.0519 63.5244 40.6941 63.6267 38.7927C63.73 36.8917 62.5002 26.7766 62.5002 26.7766Z" fill="#C8D5FF"/>
<path id="Fill 3" fill-rule="evenodd" clip-rule="evenodd" d="M142.175 129.483C142.175 135.292 116.359 140 84.5114 140C52.6646 140 26.8474 139.008 26.8474 129.483C26.8474 118.965 52.6646 118.965 84.5114 118.965C116.359 118.965 142.175 118.326 142.175 129.483Z" fill="#DDE5FF"/>
<path id="Fill 5" fill-rule="evenodd" clip-rule="evenodd" d="M39.772 75.8597C39.772 75.8597 40.8879 94.8506 40.9451 99.3014C41.0023 103.753 41.5663 130.636 41.5663 130.636C41.5663 130.636 75.9839 130.585 86.99 130.636C97.9966 130.686 129.659 131.984 129.659 131.984C129.659 131.984 130.425 103.748 130.205 100.511C129.985 97.2742 128.608 74.8716 128.608 74.8716L101.07 99.3014L69.8456 97.9303C69.8456 97.9303 60.3582 89.2297 56.921 86.6727C52.8539 83.6467 39.772 75.8597 39.772 75.8597Z" fill="#7699FF"/>
<path id="Fill 7" fill-rule="evenodd" clip-rule="evenodd" d="M38.4499 129.505C67.5062 129.46 96.5611 129.952 125.602 130.982C126.49 131.014 126.489 129.488 125.602 129.457C96.5611 128.427 67.5062 127.935 38.4499 127.979C37.562 127.981 37.5606 129.506 38.4499 129.505Z" fill="#4B4B78"/>
<path id="Fill 9" fill-rule="evenodd" clip-rule="evenodd" d="M126.829 120.734C126.8 120.681 126.764 120.629 126.717 120.579C124.885 118.665 122.738 117.184 120.635 115.606C117.997 113.624 115.447 111.521 112.992 109.308C108.49 105.25 104.334 100.821 100.512 96.0955C100.482 96.0591 100.451 96.0302 100.42 96.0028C104.524 92.1764 108.665 88.3906 112.851 84.6574C114.955 82.781 117.07 80.9173 119.195 79.0651C120.314 78.0908 121.434 77.1198 122.559 76.1516C123.009 75.7648 123.459 75.3781 123.909 74.9923C124.247 74.7029 124.585 74.4136 124.924 74.1247C125.049 74.0483 125.151 73.9593 125.237 73.861C125.426 73.9663 125.619 74.0641 125.812 74.162C126.678 89.671 127.013 105.203 126.829 120.734ZM121.965 71.4118C122.55 71.9835 123.174 72.5077 123.838 72.9778C123.011 73.6814 122.245 74.5774 121.665 75.096C121.77 73.8706 121.87 72.6428 121.965 71.4118ZM58.8073 41.4159C56.2286 42.0757 53.1868 41.8273 50.5367 41.975C48.5473 42.0864 46.5592 42.1814 44.5788 42.3846C47.3121 39.4706 51.0455 37.4046 53.9589 34.7137C56.7744 32.1133 59.2073 29.1843 61.5885 26.1915C61.5231 26.8858 61.4472 27.5633 61.4431 27.834C61.4203 29.3488 61.4418 30.8645 61.5076 32.3779C61.636 35.3562 62.6545 40.4313 58.8073 41.4159ZM66.8898 96.0944C66.9625 96.174 67.0406 96.2281 67.1206 96.263C62.8775 100.754 57.7109 103.813 52.8602 107.58C48.2038 111.197 44.01 115.352 40.2903 119.956C40.6743 104.659 40.3264 89.3535 39.2302 74.0882C39.2229 73.9894 39.1977 73.9032 39.1625 73.8258C40.5454 72.5613 41.9282 71.2967 43.312 70.0321C43.3773 71.9774 43.4432 73.9223 43.5085 75.8676C42.4672 75.1957 41.4245 74.5271 40.3817 73.8603C39.6316 73.3809 38.9427 74.59 39.6892 75.0671C49.3531 81.2446 59.0595 87.5293 66.8898 96.0944ZM127.044 73.7129C127.091 73.4641 127.003 73.2036 126.704 73.0582C126.685 73.0494 126.668 73.0391 126.649 73.0298C126.693 72.8742 126.688 72.7041 126.657 72.4819C126.627 72.2633 126.385 72.0336 126.178 71.9936C125.827 71.926 125.466 71.9959 125.104 72.1487C123.993 71.4246 122.992 70.5561 122.104 69.5431C123.038 56.7026 123.371 43.6029 122.181 30.8537C121.972 28.6162 121.408 26.402 119.523 25.0294C117.4 23.4838 114.535 23.5085 112.043 23.4461C104.587 23.2592 97.1277 23.1791 89.6695 23.187C85.3436 23.1917 81.0177 23.2275 76.6918 23.2956C72.3805 23.3631 67.8869 23.837 63.6593 22.791C63.4275 22.7336 63.2337 22.7919 63.0878 22.9088C62.8547 22.7583 62.5548 22.7551 62.3253 23.0458C62.3112 23.0635 62.2974 23.0808 62.2837 23.0985C62.0552 23.0491 61.796 23.1306 61.6227 23.2821L61.4851 23.4023C61.2373 23.6189 61.2506 23.9656 61.3868 24.2335C58.591 27.7668 55.7668 31.2367 52.4086 34.2528C49.2174 37.1198 45.27 39.2519 42.5633 42.6342C42.5404 42.6375 42.5171 42.6394 42.4942 42.6426C42.0289 42.7125 41.921 43.1291 42.0503 43.4827C42.0453 43.725 42.2094 43.9324 42.4339 44.0428C42.7109 52.2509 42.9888 60.459 43.2663 68.6672C43.0524 68.594 42.8065 68.6196 42.593 68.8144C41.0625 70.2136 39.532 71.6129 38.0015 73.0121C37.7267 73.2633 37.7382 73.5801 37.8895 73.8219C37.8652 73.8997 37.852 73.9873 37.8593 74.088C39.1562 92.1481 39.4177 110.266 38.6428 128.357C38.6044 129.257 39.9759 129.255 40.0143 128.357C40.1167 125.978 40.1976 123.598 40.2638 121.217C40.5052 121.417 40.8462 121.455 41.1032 121.136C45.1132 116.141 49.6855 111.64 54.8063 107.835C59.6913 104.205 64.6805 101.111 68.7778 96.5038C78.7498 97.1449 88.7305 97.6272 98.7181 97.9496C99.6008 97.978 99.5999 96.5802 98.7181 96.5518C88.7301 96.2289 78.748 95.7471 68.7751 95.1059C68.5945 95.0943 68.4533 95.1455 68.3463 95.2322C68.2311 95.2261 68.1136 95.2583 68.0021 95.3338C67.971 95.2555 67.9266 95.1786 67.8604 95.1059C61.1733 87.792 53.1254 82.1181 44.8988 76.7681C44.9043 76.7276 44.9088 76.6866 44.907 76.6414L43.7994 43.8657C47.611 43.3746 51.4966 43.3196 55.3261 43.1058C57.604 42.9786 60.206 43.1239 61.7708 41.1134C63.6839 38.655 63.0042 35.2592 62.878 32.3778C62.7848 30.2596 62.7797 28.1358 62.862 26.0172C62.8812 25.5186 62.9795 24.9697 62.9662 24.4511C63.054 24.3393 63.1422 24.2275 63.2305 24.1161C63.2519 24.1231 63.2711 24.1329 63.2945 24.1385C67.2432 25.116 71.3232 24.7847 75.3496 24.7153C79.8241 24.6384 84.2995 24.5956 88.7744 24.5862C93.2498 24.5769 97.7247 24.6016 102.2 24.6603C106.402 24.7153 110.734 24.5364 114.918 24.9725C117.299 25.2209 119.551 26.061 120.396 28.5594C121.124 30.7121 120.972 33.3158 121.075 35.564C121.282 40.1013 121.387 44.6434 121.39 49.1854C121.393 55.8224 121.17 62.4556 120.74 69.0763C120.542 69.3144 120.468 69.6731 120.68 69.9849C120.535 72.1189 120.37 74.252 120.183 76.3828C118.072 78.2093 115.969 80.0447 113.879 81.8954C108.879 86.3214 103.942 90.8183 99.0587 95.3766C98.6111 95.7951 98.9288 96.391 99.3828 96.5271C99.3576 96.7102 99.3992 96.9073 99.5423 97.0843C103.365 101.81 107.521 106.238 112.023 110.296C114.066 112.138 116.176 113.9 118.343 115.588C120.847 117.538 123.538 119.259 125.748 121.568C126.121 121.958 126.622 121.749 126.823 121.38C126.79 124.022 126.745 126.664 126.681 129.306C126.659 130.206 128.031 130.205 128.053 129.306C128.5 110.9 128.21 92.485 127.182 74.1034C127.173 73.9445 127.121 73.8154 127.044 73.7129Z" fill="#4B4B78"/>
<path id="Fill 11" fill-rule="evenodd" clip-rule="evenodd" d="M74.0094 36.2544C74.3472 34.9844 75.7485 35.0367 76.2271 36.153C76.6123 37.0521 77.8628 36.2719 77.479 35.3773C76.4591 32.9981 73.2596 33.4085 72.6109 35.8456C72.3572 36.799 73.7566 37.2063 74.0094 36.2544Z" fill="#4B4B78"/>
<path id="Fill 13" fill-rule="evenodd" clip-rule="evenodd" d="M91.8005 36.4618C92.094 35.9939 92.4826 35.4524 93.0281 35.2907C93.4213 35.1744 94.0349 35.3284 94.0507 35.8418C94.0796 36.7747 95.4777 36.7786 95.4484 35.8418C95.413 34.6983 94.4803 33.8274 93.3873 33.7916C92.1495 33.7514 91.2205 34.7288 90.5935 35.7285C90.101 36.5136 91.31 37.243 91.8005 36.4618Z" fill="#4B4B78"/>
<path id="Fill 15" fill-rule="evenodd" clip-rule="evenodd" d="M72.7859 41.9273C75.6574 44.6268 79.5235 45.3282 83.3841 45.6173C85.54 45.7784 87.807 46.001 89.9388 45.5355C92.2426 45.0317 94.2163 43.6922 96.1096 42.3897C96.4916 42.127 96.6083 41.4864 96.1096 41.2496L95.9207 41.1603C95.6528 41.0327 95.3135 41.0411 95.0955 41.2637C95.0474 41.3126 94.9988 41.3618 94.9507 41.4111C94.8648 41.4987 94.8135 41.5929 94.7849 41.6879C93.393 42.6423 91.9438 43.5849 90.3075 44.0724C88.2898 44.6739 86.1349 44.4777 84.0613 44.3435C80.3596 44.1045 76.528 43.606 73.7496 40.9935C73.1197 40.4017 72.1551 41.3341 72.7859 41.9273Z" fill="#4B4B78"/>
<path id="Fill 17" fill-rule="evenodd" clip-rule="evenodd" d="M54.5809 15.8819C55.5231 17.4452 56.128 19.2987 57.4769 20.5721C58.1195 21.1791 59.0948 20.2115 58.4504 19.6026C56.9041 18.1422 56.156 15.7069 54.9765 13.9411C53.7759 12.1439 52.3972 10.492 50.8854 8.947C50.2662 8.31393 49.2932 9.28387 49.9119 9.91648C51.689 11.7329 53.2683 13.7053 54.5809 15.8819Z" fill="#4B4B78"/>
<g id="Group 21">
<mask id="mask0_1202_29707" style="mask-type:alpha" maskUnits="userSpaceOnUse" x="71" y="0" width="6" height="13">
<path id="Clip 20" fill-rule="evenodd" clip-rule="evenodd" d="M71.7424 0H76.2145V12.546H71.7424V0Z" fill="white"/>
</mask>
<g mask="url(#mask0_1202_29707)">
<path id="Fill 19" fill-rule="evenodd" clip-rule="evenodd" d="M73.6034 8.39557C73.8823 9.53625 73.8708 11.7227 74.9953 12.4452C75.3532 12.675 75.7897 12.4791 76.0154 12.1949C76.0472 12.1549 76.079 12.1144 76.1108 12.0744C76.2898 11.8492 76.2281 11.4078 75.9945 11.2287C75.9637 11.2054 75.9328 11.1821 75.902 11.1584C75.8965 11.1542 75.8911 11.1519 75.8851 11.1482C75.8399 11.003 75.7653 10.803 75.655 10.5327L75.2458 8.86077C75.0415 8.0248 74.8367 7.18836 74.6324 6.35238C74.1557 4.40178 73.6785 2.45071 73.2017 0.499637C72.988 -0.375414 71.5499 -0.00511071 71.7641 0.870871C72.3771 3.37926 72.9905 5.88718 73.6034 8.39557Z" fill="#4B4B78"/>
</g>
</g>
<path id="Fill 22" fill-rule="evenodd" clip-rule="evenodd" d="M94.8012 15.2415C95.8297 10.5812 97.3367 6.11016 99.3489 1.81454C99.7356 0.989156 98.5551 0.261748 98.1661 1.09095C96.1041 5.49363 94.5355 10.0808 93.4806 14.8606C93.2829 15.7586 94.6027 16.1414 94.8012 15.2415Z" fill="#4B4B78"/>
<path id="Fill 24" fill-rule="evenodd" clip-rule="evenodd" d="M109.54 19.5429C112.398 16.3904 115.549 13.5543 119.009 11.0589C119.724 10.5428 119.032 9.35024 118.308 9.87231C114.753 12.4369 111.496 15.3302 108.558 18.5716C107.963 19.2283 108.942 20.2028 109.54 19.5429Z" fill="#4B4B78"/>
<path id="Fill 26" fill-rule="evenodd" clip-rule="evenodd" d="M60.3226 60.8439C75.1224 60.733 89.9226 60.6227 104.722 60.5118C105.61 60.5051 105.613 58.8333 104.722 58.84C89.9226 58.9509 75.1224 59.0612 60.3226 59.1721C59.4346 59.1788 59.4323 60.8506 60.3226 60.8439Z" fill="#4B4B78"/>
<path id="Fill 28" fill-rule="evenodd" clip-rule="evenodd" d="M61.3205 64.8513C76.4427 64.3016 91.5751 64.1116 106.707 64.281C107.601 64.2906 107.602 62.9174 106.707 62.9078C91.5751 62.7384 76.4427 62.9284 61.3205 63.4781C60.429 63.5106 60.4244 64.8838 61.3205 64.8513Z" fill="#4B4B78"/>
<path id="Fill 30" fill-rule="evenodd" clip-rule="evenodd" d="M61.3134 67.5278C68.4908 67.8592 75.6714 67.9412 82.853 67.7727C83.7366 67.7521 83.7398 66.0787 82.853 66.0994C75.6714 66.2678 68.4908 66.1858 61.3134 65.8545C60.4284 65.8138 60.4298 67.4871 61.3134 67.5278Z" fill="#4B4B78"/>
<path id="Fill 32" fill-rule="evenodd" clip-rule="evenodd" d="M62.3192 71.7978L102.738 71.8657C103.621 71.8668 103.623 70.1563 102.738 70.1551C89.8359 70.1335 76.9334 70.1118 64.0314 70.0901C63.8832 69.9253 63.6824 69.8273 63.4413 69.8729C63.0063 69.9544 62.5717 70.036 62.1367 70.1181C61.3582 70.264 61.5658 71.7967 62.3192 71.7978Z" fill="#4B4B78"/>
<g id="Group 39">
<mask id="mask1_1202_29707" style="mask-type:alpha" maskUnits="userSpaceOnUse" x="0" y="54" width="19" height="15">
<path id="Clip 38" fill-rule="evenodd" clip-rule="evenodd" d="M0.00415039 54.1487H18.6435V68.8355H0.00415039V54.1487Z" fill="white"/>
</mask>
<g mask="url(#mask1_1202_29707)">
<path id="Fill 37" fill-rule="evenodd" clip-rule="evenodd" d="M8.27456 62.6756C8.2062 63.2385 8.12569 63.9431 7.80411 64.4318C7.18029 65.3791 5.31604 65.4287 6.30281 63.3965C6.75707 62.462 7.47714 61.8571 8.31504 61.5105C8.33303 61.8958 8.32134 62.2848 8.27456 62.6756ZM10.9834 59.7906C10.4585 59.7369 9.93323 59.7441 9.4187 59.8111C8.37436 55.8697 4.49113 53.6421 0.492315 54.2465C-0.363128 54.3758 0.000727625 55.6925 0.851224 55.5641C3.67032 55.1378 6.49256 56.4576 7.7321 59.1106C7.88817 59.4449 8.00871 59.7879 8.10271 60.1363C7.10963 60.4988 6.22001 61.1214 5.56651 62.0337C4.7304 63.2001 4.00449 65.3762 5.04299 66.6551C5.91462 67.7272 7.35026 67.3433 8.17512 66.451C9.40926 65.1161 9.80999 62.9792 9.65348 61.177C10.9848 61.0399 12.42 61.3856 13.5381 62.0451C15.7216 63.3317 17.0462 65.6763 17.2904 68.1817C17.375 69.0484 18.7251 69.0575 18.6397 68.1817C18.2344 64.024 15.2687 60.2278 10.9834 59.7906Z" fill="#4B4B78"/>
</g>
</g>
<path id="Fill 40" fill-rule="evenodd" clip-rule="evenodd" d="M17.204 94.9127C15.6792 95.0086 14.155 95.1051 12.6302 95.201C11.7058 95.2593 11.6996 96.9725 12.6302 96.9137C14.155 96.8178 15.6792 96.7213 17.204 96.6254C18.1289 96.5672 18.1346 94.8539 17.204 94.9127Z" fill="#4B4B78"/>
<path id="Fill 42" fill-rule="evenodd" clip-rule="evenodd" d="M14.2499 99.9259C10.5807 99.8661 7.0046 100.374 3.47362 101.455C2.61967 101.717 2.98262 103.158 3.84119 102.895C7.25149 101.851 10.7069 101.361 14.2499 101.419C15.1398 101.434 15.1398 99.9403 14.2499 99.9259Z" fill="#4B4B78"/>
<path id="Fill 44" fill-rule="evenodd" clip-rule="evenodd" d="M152.459 96.2253C153.333 96.2929 153.327 95.0634 152.459 94.9962C149.472 94.7652 146.547 95.0065 143.652 95.7066C142.807 95.9111 143.166 97.0967 144.014 96.8914C146.796 96.2187 149.593 96.0036 152.459 96.2253Z" fill="#4B4B78"/>
<path id="Fill 46" fill-rule="evenodd" clip-rule="evenodd" d="M158.602 99.778C154.67 98.7284 150.631 98.6435 146.638 99.5088C145.787 99.6935 146.148 100.809 147.002 100.624C150.774 99.8065 154.526 99.9021 158.238 100.894C159.079 101.118 159.439 100.001 158.602 99.778Z" fill="#4B4B78"/>
<path id="Ellipse 13" d="M153.5 63.6143C153.5 74.6717 144.758 83.6143 134 83.6143C123.242 83.6143 114.5 74.6717 114.5 63.6143C114.5 52.5569 123.242 43.6143 134 43.6143C144.758 43.6143 153.5 52.5569 153.5 63.6143Z" fill="white" stroke="#4B4B78"/>
<path id="Fill 49" fill-rule="evenodd" clip-rule="evenodd" d="M155.048 46.0505C153.733 44.8549 151.673 44.7506 150.372 46.0505C144.655 51.7631 138.912 57.5758 134.537 64.3985C134.336 64.7125 134.139 65.0294 133.945 65.3476C131.452 62.1128 128.389 59.313 124.948 57.0802C123.498 56.1397 121.23 56.7459 120.425 58.255C119.552 59.8913 120.063 61.7314 121.611 62.7352C122.212 63.1252 122.798 63.5348 123.373 63.9618C125.278 65.4692 127.004 67.1807 128.527 69.0665C129.588 70.4653 130.535 71.9422 131.355 73.4924C131.888 74.5004 133.087 75.1143 134.21 75.1143C135.283 75.1143 136.595 74.5111 137.065 73.4924C138.712 69.9155 140.843 66.5908 143.242 63.4651C146.838 58.9096 150.943 54.7834 155.048 50.6814C156.267 49.4633 156.368 47.2505 155.048 46.0505Z" fill="#8BE78C"/>
<path id="Fill 48" fill-rule="evenodd" clip-rule="evenodd" d="M63.8757 80.4218C63.2044 82.0477 63.8163 84.4848 67.1018 84.7665C70.3873 85.0483 96.7599 84.7665 98.7669 84.7665C100.775 84.7665 103.401 84.2075 103.401 81.9641C103.401 79.7212 101.574 78.8799 99.5181 78.8799H67.5277C65.5893 78.8799 64.3121 79.3647 63.8757 80.4218Z" fill="#F76F60"/>
</g>
</svg>
