<svg xmlns="http://www.w3.org/2000/svg" width="34" height="50" viewBox="0 0 34 50">
    <path fill="#000" fill-rule="evenodd" d="M6.506 20.625c-.082.25-.131.363-.156.48-1.21 5.767-2.416 11.535-3.632 17.3-.074.347.074.485.343.645 2.841 1.69 5.674 3.396 8.511 5.092 1.135.679 2.275 1.347 3.413 2.02l.101-.066-8.58-25.47m12.133 25.566c.178-.08.267-.111.346-.158 3.948-2.353 7.895-4.71 11.845-7.059.221-.131.264-.258.21-.512-1.075-5.11-2.136-10.224-3.204-15.336-.163-.78-.347-1.557-.52-2.335h-.12l-8.557 25.4M16.894 4.093c-.15.19-.254.313-.35.444-2.86 3.88-5.716 7.763-8.584 11.636-.2.27-.228.49-.123.802C10.54 25 13.235 33.03 15.934 41.06c.293.873.6 1.741.952 2.76.113-.299.179-.456.233-.616 2.924-8.723 5.846-17.447 8.78-26.167.123-.366.085-.62-.146-.93-2.233-3.003-4.449-6.019-6.669-9.031-.715-.971-1.428-1.945-2.19-2.983M0 39.916l2.98-14.09c.64-3.026 1.275-6.053 1.932-9.075.078-.356.225-.727.438-1.02C9.14 10.526 12.942 5.334 16.743.14c.037-.05.084-.093.129-.141 1.385 1.874 2.76 3.737 4.137 5.598 2.4 3.245 4.786 6.5 7.212 9.724.648.861.744 1.863.952 2.84 1.51 7.119 3 14.241 4.51 21.36.072.335-.01.492-.294.661a9048.364 9048.364 0 0 0-16.174 9.69c-.208.125-.364.191-.614.04C11.177 46.64 5.746 43.382.317 40.12c-.097-.058-.19-.123-.317-.204"/>
</svg>
