<svg xmlns="http://www.w3.org/2000/svg" xmlns:xlink="http://www.w3.org/1999/xlink" width="186" height="155" viewBox="0 0 186 155">
    <defs>
        <path id="a" d="M.304.453h68.642V46.7H.304z"/>
    </defs>
    <g fill="none" fill-rule="evenodd">
        <path fill="#FEF0A9" d="M136 44.222s-.45 3.73-6.532 6.518c-6.083 2.788-13.462 3.678-13.462 3.678l.508 6.582-8.523-5.741s-13.146-.414-20.19-7.972c-7.043-7.558-2.141-16.92-2.141-16.92s6.464-7.244 13.033-8.764c6.569-1.52 20.19-2.603 20.19-2.603L136 44.222z"/>
        <path fill="#B8F9B9" d="M146.746 54s3.868-1.92 4.998-3.443c1.13-1.523 2.73-4.193 2.73-4.193s11.87-1.61 19.291-5.623c7.42-4.012 11.51-9.446 11.22-13.466-.29-4.02-1.45-18.346-16.731-23.06-15.281-4.713-30.652-.972-37.823 2.592-7.17 3.563-12.59 8.607-12.427 18.679.162 10.072 7.504 14.766 9.751 16.315 2.247 1.55 19.6 3.798 19.6 3.798L146.745 54z"/>
        <path fill="#7699FF" d="M65.8 107c-1.206.678-3.643 1.579-2.505 3.313 1.138 1.735 2.203 2.158 2.203 2.158s.052 10.185.302 14.475c.25 4.29.244 17.054.244 17.054l3.686-.321s.224-2.942 1.189-3.29c.965-.347 5.081-2.67 5.081-2.67s-1.042-.079-1.388-1.165c-.347-1.086-2.099-5.38-1.649-7.307.45-1.925.313-5.337-.116-6.323-.43-.985-5.354-10.597-5.354-10.597s1.638-2.065 1.168-3.04C68.191 108.313 65.8 107 65.8 107"/>
        <path fill="#C8D5FF" d="M28 54.029c1.975.368 3.954-1.625 3.954-1.625-1.885-.017-3.018-1.321-3.018-1.321s5.413-3.599 6.849-4.728c8.314-6.542 8.442-13.665 14.843-15.78 6.4-2.117 9.67 2.115 12.372 4.617 0 0-1.991 22.318-18.488 26.936-12.058 3.376-16.284-4.14-16.284-4.14 2.408.194 3.54-.772 3.54-.772.283-.165.237-1.303-.518-1.207-2.47.315-3.25-1.98-3.25-1.98"/>
        <path fill="#C8D5FF" d="M63.075 36s1.04 3.506-.292 6.689c-1.333 3.182-4.436 6.602-3.66 9.763.775 3.162 2.275 4.02 5.73 4.454 3.454.433 9.147-.773 9.147-.773s-4.045-6.25-4.04-11.835C69.968 38.713 63.076 36 63.076 36"/>
        <path fill="#4B4B78" d="M18.416 143.457c2.52-11.575 4.655-23.49 9.508-34.3.394-.879-.852-1.65-1.249-.766-4.91 10.94-7.102 22.948-9.654 34.662-.207.95 1.187 1.356 1.395.404M40.702 85.232c-3.068 3.193-3.918 7.639-6.684 11.015-2.664 3.25-6.924 5.231-8.92 8.969-.206.388-.074.8.275 1.045a90.762 90.762 0 0 0 7.264 4.632c.855.49 1.626-.83.772-1.319a90.784 90.784 0 0 1-7.265-4.632c.09.348.183.696.274 1.045 2.033-3.808 6.713-5.967 9.336-9.488 2.393-3.214 3.197-7.24 6.029-10.187.681-.709-.398-1.79-1.08-1.08M70.477 143.26c-.163-2.945 5.36-4.458 7.3-4.648 2.991-.292 7.234.556 7.794 4.28.146.975 1.565.56 1.418-.408-.661-4.402-5.625-5.78-9.313-5.433-2.932.278-8.884 2.351-8.67 6.21.054.982 1.525.989 1.471 0"/>
        <path fill="#4B4B78" d="M29.383 108.714c-.557 5.103-.924 10.696 2.005 15.212 2.713 4.185 8.025 6.095 12.577 7.457 5.668 1.693 11.55 2.197 17.431 1.672 4.992-.445 17.311-3.265 20.23 2.566.43.86 1.717.104 1.287-.755-1.642-3.283-6.37-3.948-9.674-4.136-5.713-.325-11.367 1.14-17.083 1.043-6.456-.11-13.246-1.606-18.953-4.707-7.055-3.835-7.102-11.26-6.328-18.352.104-.956-1.388-.948-1.492 0M40.302 85.934c-1.611-5.184-1.77-10.435-1.768-15.813 0-4.878-.106-9.83.675-14.663 1.302-8.05 7.553-22.292 18.336-18.317 9.504 3.503 11.617 15.13 12.568 23.77a70.033 70.033 0 0 1-2.669 28.16c-.286.932 1.19 1.329 1.475.4 3.267-10.625 3.816-21.72 2.213-32.675-1.207-8.257-5.16-19.978-14.983-21.624-9.585-1.605-15.192 8.362-17.494 15.867-1.634 5.325-1.63 11.037-1.65 16.55-.02 6.349-.084 12.617 1.82 18.746.289.926 1.767.53 1.477-.4"/>
        <path fill="#4B4B78" d="M56.063 79.153c-.732 2.486 5.11 1.93 6.558 1.361 1.092-.43 2.264-1.267 2.373-2.334.084-.827-.786-1.53-1.733-.99-.8.457-.039 1.546.77 1.084a4.537 4.537 0 0 0-.086.027l-.532-.44c.448.965-1.704 1.663-2.473 1.818-.27.054-3.5.126-3.407-.192.231-.785-1.239-1.12-1.47-.334M39.214 87.248c2.49 2.5 4.33 5.494 7.16 7.697 3.047 2.373 7.19 3.64 11.044 3.997 3.436.318 7.504-.652 9.843-3.303 1.283-1.454 2.264-4.486 1.132-6.248-.392.295-.784.588-1.177.881a47.572 47.572 0 0 1 7.347 7.637c.57.741 1.87.017 1.292-.734-2.227-2.903-4.744-5.577-7.58-7.93-.612-.51-1.651.139-1.175.88 2.242 3.49-3.43 6.706-6.205 7.272-3.468.707-8.423-.592-11.53-2.22-3.955-2.07-6.075-5.928-9.092-8.957-.671-.674-1.73.355-1.059 1.028"/>
        <path fill="#4B4B78" d="M35.245 95.456c7.173 6.307 16.57 10.068 24.901 14.45.425.224.95.038 1.087-.458a87.09 87.09 0 0 1 2.707-8.2l-1.237.338a66.639 66.639 0 0 0 6.755 5.246c.272.185.674.112.897-.12 3.349-3.48 4.388-8.483 3.127-13.171-.255-.948-1.684-.546-1.427.406.783 2.912.638 5.884-.64 8.629-.84 1.806-1.117 2.72-2.929 1.747-1.736-.935-3.26-2.516-4.737-3.82-.452-.4-1.024-.214-1.237.337a87.3 87.3 0 0 0-2.706 8.2l1.087-.456c-8.195-4.31-17.548-8.009-24.601-14.212-.722-.634-1.774.444-1.047 1.084"/>
        <path fill="#4B4B78" d="M65.644 105.383c-1.854.464-3.077 2.323-2.5 4.195.647 2.097 3.176 2.916 5.129 2.126 1.951-.79 2.137-3.33 1.116-4.927-1.185-1.854-3.599-2.274-5.456-1.18-.828.485-.077 1.772.754 1.282 1.012-.594 2.317-.571 3.154.32.761.814 1.102 2.582-.156 3.124-1.11.478-2.692.074-3.099-1.14-.368-1.1.397-2.1 1.456-2.366.933-.234.538-1.668-.398-1.434"/>
        <path fill="#4B4B78" d="M65 112.747l.444 31.507c.014.993 1.57.996 1.556 0l-.444-31.507c-.015-.994-1.57-.998-1.556 0M67.051 112.91c1 2.717 2.447 5.146 3.71 7.73 1.386 2.834 1.61 5.163 1.51 8.271-.104 3.323-.461 7.016 2.645 8.974.805.507 1.54-.797.737-1.302-3.478-2.192-1.545-8.376-1.955-11.845-.523-4.418-3.734-8.14-5.24-12.229-.33-.898-1.742-.509-1.407.402M85.034 127.914c1.286 4.583-2.119 13.464 2.938 16.012.782.393 1.466-.888.68-1.285-2.658-1.338-2.107-5.156-1.96-7.821.135-2.458.307-4.918-.362-7.302-.256-.91-1.554-.521-1.296.396M90.176 128.284c2.402 2.944 4.676 6.746 8.427 8.221 1.05.412 2.103.503 3.221.585.532.038 6.609.545 5.162 1.701-.741.593.314 1.621 1.049 1.034 2.687-2.149-.88-3.712-2.887-3.967-2.613-.333-4.99.006-7.306-1.47-2.802-1.784-4.565-4.623-6.617-7.138-.598-.732-1.641.307-1.049 1.034"/>
        <path fill="#4B4B78" d="M102.376 143.78c2.902-2.69 7.752-1.987 10.383-5.088 2.496-2.94 1.595-7.205 3.162-10.521.421-.891-.96-1.67-1.385-.773-1.54 3.257-.633 8.253-3.485 10.804-2.723 2.438-7.04 1.927-9.81 4.495-.741.688.394 1.77 1.135 1.083M128.011 126.947c.518 3.207.276 8.675 3.31 10.627 2.016 1.298 4.397 1.744 6.4 3.147 1.363.957 2.692 2.015 3.964 3.09.737.623 1.806-.44 1.064-1.067-2.197-1.857-4.552-3.838-7.19-5-2.805-1.235-3.93-1.162-4.879-4.434-.622-2.15-.861-4.56-1.216-6.764-.155-.956-1.607-.55-1.453.401"/>
        <path fill="#4B4B78" d="M84.367 66.494c-4.877 0-8.87 3.987-8.87 8.887l.696 25.206-.697 16.442c0 4.868 3.994 8.855 8.902 8.855.144.007 9.591.622 12.709.622 5.7 0 14.4-.158 22.814-.311 8.42-.153 17.128-.311 22.842-.311h15.25c4.908 0 8.901-3.987 8.901-8.886.008-.124.519-6.11.549-8.074.062-4.355.039-11.523.018-17.848-.01-2.747-.018-5.288-.018-7.28 0-1.834-.54-8.288-.546-8.353-.003-4.962-3.996-8.949-8.905-8.949l-17.365.07-35.416.793-20.864-.863zM97.107 128c-3.166 0-12.367-.598-12.757-.623h-.003c-5.684 0-10.347-4.657-10.347-10.38l.697-16.422L74 75.401C74 69.656 78.665 65 84.398 65l20.848.864 35.381-.794L158.01 65c5.737 0 10.402 4.656 10.402 10.38.02.206.549 6.52.549 8.416 0 1.99.008 4.53.018 7.275.02 6.331.044 13.507-.018 17.874-.031 2.02-.53 7.868-.552 8.116.003 5.66-4.662 10.317-10.396 10.317h-15.249c-5.7 0-14.401.158-22.815.311-8.42.153-17.128.311-22.841.311zM146.969 45.543c-.287 1.294.045 2.34.114 3.663.086 1.664-.28 3.196-.992 4.67-.338.695.33 1.368.971 1.037 1.792-.924 3.599-1.877 5.118-3.273a10.844 10.844 0 0 0 1.855-2.257c.426-.682.974-2.482 1.618-2.869-.349-.15-.697-.302-1.044-.453l.01.072.496-.933-.05.009c-.899.164-.517 1.626.379 1.463l.049-.009c.407-.074.55-.563.496-.933l-.01-.073c-.073-.5-.683-.67-1.044-.453-.621.374-.934 1.244-1.277 1.878-.567 1.042-1.107 2.055-1.912 2.917-1.514 1.619-3.496 2.622-5.401 3.604l.972 1.038c.582-1.205.992-2.436 1.137-3.791.17-1.593-.457-3.364-.115-4.904.21-.95-1.16-1.355-1.37-.403M107.563 55.322c3.126 1.3 5.763 3.074 8.181 5.439.53.518 1.446.137 1.455-.6a37.508 37.508 0 0 0-.54-6.712l-.822 1.075c7.413-.73 17.385-3.07 21.061-10.237.499-.972-.972-1.833-1.471-.858-3.286 6.404-12.882 8.735-19.59 9.395-.59.058-.92.494-.822 1.077.357 2.107.502 4.129.48 6.26l1.455-.602c-2.625-2.567-5.54-4.464-8.933-5.875-1.011-.421-1.453 1.223-.454 1.638"/>
        <path fill="#4B4B78" d="M118.188 18.03c-11.384-.279-29.913 1.144-35.072 13.703C77.268 45.97 95.76 54.973 107.134 55c1.083.003 1.085-1.676 0-1.679-4.119-.01-7.911-1.044-11.646-2.73-2.339-1.057-5.05-2.092-6.926-3.879-4.833-4.6-6.365-11.616-2.255-17.176 2.204-2.983 5.439-5.215 8.927-6.439 7.347-2.579 15.194-3.578 22.954-3.388 1.083.027 1.082-1.652 0-1.679"/>
        <g transform="translate(117)">
            <mask id="b" fill="#fff">
                <use xlink:href="#a"/>
            </mask>
            <path fill="#4B4B78" d="M29.628 44.58c-8.53-.253-21.16-2.74-25.686-11.208-2.55-4.774-3.048-11.722-.878-16.698 2.297-5.266 9.367-9.934 14.592-11.75 17.23-5.987 45.417-4.8 49.362 17.627 2.778 15.79-17.967 20.989-29.517 22.678-.952.14-.547 1.6.398 1.462 10.778-1.576 28.606-5.702 30.8-18.938C70.502 16.886 62.14 6.706 52.676 3.1 34.554-3.805-5.12 2.093.925 29.206c2.814 12.62 17.524 16.558 28.703 16.89.965.029.964-1.487 0-1.516" mask="url(#b)"/>
        </g>
        <path fill="#4B4B78" d="M138.721 16l27.558-.54c.96-.018.963-1.479 0-1.46l-27.558.54c-.96.018-.963 1.479 0 1.46M130.723 22l41.554-.583c.963-.014.966-1.43 0-1.417l-41.554.583c-.963.014-.965 1.43 0 1.417M131.734 27.5c13.84.497 27.685.624 41.53.379.98-.017.983-1.518 0-1.5-13.845.244-27.69.118-41.53-.378-.98-.036-.978 1.465 0 1.5M131.738 33.703c13.84.099 27.683.197 41.524.297.983.007.985-1.696 0-1.703-13.84-.1-27.683-.198-41.524-.297-.983-.007-.985 1.696 0 1.703M98.828 31l17.343-.481c1.103-.031 1.107-1.55 0-1.519l-17.343.481c-1.102.03-1.106 1.55 0 1.519M93.825 36.997a310.64 310.64 0 0 1 24.342-.752c1.11.01 1.11-1.225 0-1.234a310.64 310.64 0 0 0-24.342.751c-1.095.077-1.105 1.312 0 1.235M93.804 43c8.792-.35 17.59-.528 26.39-.535a.736.736 0 0 0 0-1.465c-8.8.007-17.598.184-26.39.534-1.069.042-1.075 1.508 0 1.465M2.993 144.633c-.825 0-1.496.652-1.496 1.453v5.259c0 .874.783 1.393 1.558 1.455 14.83 1.179 38.151.704 56.89.323 8.218-.168 15.98-.325 21.96-.325 6.528 0 16.221.122 25.595.242 9.37.119 19.058.241 25.576.241 3.732 0 9.688-.122 15.45-.241 5.768-.12 11.732-.242 15.48-.242.826 0 1.497-.652 1.497-1.453v-5.259c0-.801-.67-1.453-1.496-1.453-3.884 0-9.502.193-14.934.379-5.445.186-11.076.378-14.987.378-4.637 0-11.226-.203-18.204-.418-11.568-.357-24.68-.762-32.34-.34-13.802.758-40.18.758-54.35.758-3.192 0-8.243-.192-13.128-.378-4.87-.186-9.907-.379-13.07-.379M28.617 155c-9.543 0-18.575-.187-25.686-.753C1.26 154.115 0 152.867 0 151.345v-5.259c0-1.602 1.342-2.906 2.993-2.906 3.193 0 8.245.193 13.13.38 4.871.186 9.907.377 13.07.377 14.156 0 40.505 0 54.264-.756 7.728-.423 20.874-.019 32.473.34 6.965.214 13.543.416 18.156.416 3.884 0 9.501-.191 14.934-.377 5.445-.187 11.075-.38 14.987-.38 1.65 0 2.993 1.304 2.993 2.906v5.259c0 1.602-1.342 2.905-2.993 2.905-3.732 0-9.689.123-15.45.242-5.769.12-11.733.242-15.481.242-6.528 0-16.222-.123-25.595-.242-9.37-.119-19.058-.242-25.576-.242-5.966 0-13.719.158-21.928.325-9.819.2-20.895.425-31.36.425"/>
    </g>
</svg>
