<svg width="71" height="69" viewBox="0 0 71 69" fill="none" xmlns="http://www.w3.org/2000/svg">
<path fill-rule="evenodd" clip-rule="evenodd" d="M49.8106 50.7339C46.5151 50.5385 42.9067 49.272 39.5331 47.8009C39.2274 47.2178 38.4926 46.9165 37.7602 47.0008C36.2935 46.3197 34.8856 45.6313 33.6018 45.0074C28.8376 42.6949 24.4358 39.8261 20.3333 36.5712C23.8062 33.3187 27.5628 30.4249 31.8287 28.3245C41.8321 23.402 62.7718 23.1776 64.5631 37.6555C65.676 46.6289 58.6022 51.2554 49.8106 50.7339ZM7.88852 44.9543C6.71138 39.5939 5.75414 34.108 6.81689 28.7163C9.41796 31.5837 12.2166 34.3271 15.1817 36.9018C12.6185 39.5135 10.1892 42.2465 7.88852 44.9543ZM68.9037 38.8108C69.0011 28.0744 56.5295 22.2639 47.3561 21.5408C49.0857 15.4481 51.7958 9.85958 55.528 4.68274C56.8654 2.82311 53.8468 1.09539 52.5178 2.94045C48.4385 8.60218 45.5471 14.7788 43.7582 21.4866C42.5104 21.5426 41.2793 21.6642 40.0767 21.8679C41.0288 15.437 43.0951 9.45154 46.3782 3.80804C47.53 1.82634 44.5237 0.0814332 43.3698 2.06678C39.9265 7.98717 37.6885 14.2939 36.6919 21.0517C36.6038 21.6549 36.7949 22.1449 37.1138 22.5168C29.8248 24.4968 23.4354 29.0233 17.7238 34.409C14.1138 31.2957 10.7452 27.8844 7.60908 24.2477C7.48243 24.0236 7.3007 23.8455 7.07806 23.7093C6.33961 23.029 5.41685 23.2658 4.83686 23.9029C4.61768 24.097 4.4214 24.3336 4.30254 24.6661C1.34459 32.8154 3.43317 41.1448 5.23907 49.2451C5.51118 50.4604 7.28377 51.056 8.14822 50.0218C11.219 46.3444 14.3709 42.568 17.7748 39.0738C21.0605 41.7221 24.5262 44.1537 28.1659 46.2725C26.9098 52.4083 26.3205 58.6017 26.4573 64.8409C26.5064 67.114 30.0064 67.0751 29.9554 64.7888C29.8344 59.1497 30.3116 53.5845 31.38 48.0355C32.7358 48.74 34.1198 49.3879 35.5163 50.0016C33.7928 55.079 33.3728 60.332 34.1388 65.644C34.4609 67.8927 37.8479 66.9251 37.5263 64.6962C36.8731 60.1449 37.3313 55.6582 38.7398 51.3178C42.4606 52.7223 46.2963 53.8092 50.2423 54.4638C60.044 56.0903 68.8057 49.5688 68.9037 38.8108Z" fill="white"/>
</svg>
