<svg width="1920" height="687" viewBox="0 0 1920 687" fill="none" xmlns="http://www.w3.org/2000/svg">
<rect width="1920" height="687" fill="url(#paint0_linear_117_12414)"/>
<path d="M1555.59 116.564C1552.42 121.071 1548.98 125.296 1545.54 129.803C1545.01 130.367 1545.27 131.212 1545.8 131.775C1546.33 132.339 1547.13 132.057 1547.65 131.494C1551.1 127.268 1554.27 122.761 1557.71 118.254C1558.24 117.69 1557.98 116.845 1557.45 116.282C1557.18 116 1556.92 116 1556.65 116C1556.12 116 1555.86 116.282 1555.59 116.564ZM1535.22 142.48C1531.78 146.705 1528.07 150.931 1524.63 154.874C1524.1 155.438 1524.1 156.283 1524.63 156.846C1525.16 157.41 1525.95 157.41 1526.48 156.846C1529.92 152.903 1533.63 148.677 1537.07 144.17C1537.6 143.607 1537.6 142.761 1537.07 142.198C1536.8 141.916 1536.54 141.916 1536.27 141.916C1536.01 142.198 1535.48 142.198 1535.22 142.48ZM1513.78 167.269C1510.07 171.213 1506.1 175.157 1502.4 178.819C1501.87 179.382 1501.87 180.227 1502.4 180.791C1502.93 181.354 1503.72 181.354 1504.25 180.791C1508.22 177.129 1511.93 173.185 1515.9 168.959C1516.42 168.396 1516.42 167.551 1515.9 166.987C1515.63 166.706 1515.37 166.706 1514.84 166.706C1514.31 166.706 1514.04 166.988 1513.78 167.269ZM1150.93 178.255C1150.93 179.1 1151.46 179.664 1152.26 179.664C1157.55 179.946 1162.84 180.227 1167.87 181.072C1168.66 181.072 1169.19 180.509 1169.46 179.946C1169.46 179.101 1168.93 178.537 1168.4 178.255C1163.11 177.41 1157.81 177.129 1152.52 176.847C1151.73 176.847 1150.93 177.692 1150.93 178.255ZM1136.38 177.129C1131.08 177.41 1125.79 177.974 1120.5 178.537C1119.7 178.537 1119.17 179.382 1119.44 180.227C1119.44 181.072 1120.23 181.636 1121.03 181.354C1126.32 180.509 1131.61 180.227 1136.64 179.946C1137.44 179.946 1137.96 179.382 1137.96 178.537C1137.7 177.692 1137.17 177.129 1136.38 177.129ZM1104.62 181.354C1099.32 182.481 1094.3 183.889 1089 185.58C1088.21 185.861 1087.94 186.706 1088.21 187.27C1088.47 188.115 1089.27 188.397 1089.8 188.115C1094.83 186.425 1099.85 185.298 1105.15 184.171C1105.94 183.889 1106.21 183.326 1106.21 182.481C1106.21 181.917 1105.41 181.354 1104.88 181.354C1104.88 181.354 1104.88 181.354 1104.62 181.354ZM1182.43 182.481C1182.16 183.326 1182.69 183.889 1183.49 184.171C1188.51 185.298 1193.81 186.988 1198.57 188.678C1199.36 188.96 1199.89 188.396 1200.16 187.833C1200.42 186.988 1199.89 186.425 1199.36 186.143C1194.34 184.453 1189.04 183.044 1184.01 181.636L1183.75 181.636C1183.22 181.354 1182.69 181.636 1182.43 182.481ZM1490.49 189.805C1486.78 192.904 1483.08 196.284 1479.37 199.101L1478.05 200.228C1477.52 200.791 1477.26 201.636 1477.78 202.2C1478.31 202.763 1479.11 203.045 1479.64 202.481L1480.96 201.355C1484.67 198.256 1488.37 195.157 1492.08 192.059C1492.61 191.495 1492.61 190.65 1492.34 190.087C1492.08 189.805 1491.81 189.523 1491.28 189.523C1491.02 189.523 1490.49 189.805 1490.49 189.805ZM1074.18 190.932C1069.15 192.904 1064.12 195.157 1059.36 197.693C1058.83 197.974 1058.3 198.819 1058.83 199.664C1059.1 200.51 1059.89 200.791 1060.68 200.228C1065.45 197.974 1070.21 195.721 1075.24 193.749C1076.03 193.467 1076.3 192.622 1076.03 192.059C1075.77 191.495 1075.24 191.214 1074.71 191.214C1074.45 190.65 1074.18 190.65 1074.18 190.932ZM1212.86 192.622C1212.6 193.467 1212.86 194.03 1213.66 194.594C1218.16 196.566 1222.92 198.819 1227.95 201.636C1228.48 201.918 1229.27 201.636 1229.8 201.073C1230.07 200.51 1229.8 199.664 1229.27 199.101C1223.98 196.284 1219.21 194.03 1214.72 192.059C1214.45 192.059 1214.45 192.059 1214.19 192.059C1213.39 191.495 1212.86 192.059 1212.86 192.622ZM1045.07 205.298C1042.69 206.707 1040.31 208.115 1038.19 209.806C1036.07 211.214 1033.69 212.904 1031.57 214.313C1031.04 214.876 1030.78 215.721 1031.31 216.285C1031.84 216.848 1032.63 217.13 1033.16 216.566C1035.28 214.876 1037.39 213.468 1039.78 212.059C1041.89 210.651 1044.28 209.242 1046.66 207.834C1047.19 207.552 1047.45 206.707 1047.19 205.862C1046.92 205.298 1046.39 205.017 1046.13 205.017C1045.6 205.017 1045.33 205.298 1045.07 205.298ZM1241.45 206.989C1241.18 207.552 1241.45 208.397 1241.97 208.96C1245.94 211.214 1249.65 213.468 1253.62 215.44L1256 216.848C1256.53 217.13 1257.33 216.848 1257.85 216.285C1258.12 215.721 1257.85 214.876 1257.33 214.313L1254.94 212.904C1250.97 210.651 1247.27 208.397 1243.3 206.425C1243.03 206.425 1242.77 206.143 1242.77 206.143C1242.24 206.143 1241.71 206.425 1241.45 206.989ZM1465.08 209.806C1460.58 212.904 1456.08 215.721 1451.58 218.538C1451.05 218.82 1450.79 219.665 1451.05 220.51C1451.32 221.073 1452.11 221.355 1452.91 221.074C1457.41 218.257 1462.17 215.44 1466.67 212.341C1467.2 212.059 1467.46 210.932 1466.93 210.369C1466.67 210.087 1466.14 209.806 1465.88 209.806C1465.35 209.806 1465.08 209.806 1465.08 209.806ZM1269.5 222.764C1269.23 223.327 1269.5 224.172 1270.03 224.736C1275.32 227.553 1279.82 230.088 1284.32 232.341C1285.11 232.623 1285.64 232.341 1286.17 231.778C1286.44 230.933 1286.17 230.37 1285.64 229.806C1281.41 227.553 1276.65 225.299 1271.35 222.482C1271.09 222.482 1270.82 222.2 1270.82 222.2C1270.29 222.2 1269.76 222.482 1269.5 222.764ZM1018.87 224.454C1014.63 227.834 1010.66 231.778 1006.69 235.44C1006.16 236.003 1006.16 236.849 1006.69 237.412C1007.22 237.975 1008.02 237.975 1008.55 237.412C1012.52 233.75 1016.49 230.088 1020.46 226.426C1020.99 225.862 1021.25 225.017 1020.72 224.454C1020.46 224.172 1020.19 223.89 1019.66 223.89C1019.4 224.172 1018.87 224.172 1018.87 224.454ZM1437.56 226.426C1432.79 228.961 1428.03 231.215 1423 233.186C1422.21 233.468 1421.94 234.313 1422.21 234.877C1422.47 235.722 1423.27 236.003 1423.79 235.722C1428.56 233.75 1433.59 231.496 1438.35 228.961C1438.88 228.679 1439.41 227.834 1438.88 226.989C1438.62 226.426 1438.09 226.144 1437.56 226.144C1437.82 226.144 1437.56 226.144 1437.56 226.426ZM1298.35 237.13C1298.08 237.975 1298.35 238.539 1299.14 238.82C1304.17 241.074 1309.46 242.764 1314.23 244.173C1315.02 244.454 1315.55 243.891 1315.81 243.328C1316.08 242.483 1315.55 241.919 1315.02 241.637C1310.26 240.229 1305.23 238.257 1300.2 236.285C1299.93 236.285 1299.93 236.285 1299.67 236.285C1298.88 236.285 1298.35 236.567 1298.35 237.13ZM1408.18 238.539C1403.15 240.229 1397.86 241.637 1392.83 242.764C1392.04 243.046 1391.77 243.609 1391.77 244.454C1392.04 245.3 1392.57 245.581 1393.36 245.581C1398.39 244.454 1403.68 242.764 1408.71 241.074C1409.5 240.792 1409.77 239.947 1409.5 239.384C1409.24 238.82 1408.71 238.257 1408.18 238.257C1408.44 238.539 1408.18 238.539 1408.18 238.539ZM1328.78 246.426C1328.78 247.271 1329.05 247.835 1329.84 248.117C1335.13 248.962 1340.43 249.807 1345.72 250.088C1346.51 250.088 1347.04 249.525 1347.04 248.68C1347.04 247.835 1346.51 247.271 1345.72 247.271C1340.43 246.99 1335.13 246.426 1330.11 245.3L1329.84 245.3C1329.31 245.3 1328.78 245.863 1328.78 246.426ZM1377.21 245.863C1371.92 246.708 1366.63 246.99 1361.6 247.271C1360.81 247.271 1360.28 247.835 1360.28 248.68C1360.28 249.525 1360.81 250.088 1361.6 250.088C1366.89 249.807 1372.19 249.243 1377.48 248.68C1378.27 248.68 1378.8 247.835 1378.54 246.99C1378.8 246.426 1378.27 245.863 1377.21 245.863C1377.48 245.863 1377.48 245.863 1377.21 245.863ZM995.314 247.271C991.609 251.215 988.168 255.722 984.728 259.948C984.198 260.511 984.463 261.356 984.992 261.92C985.521 262.483 986.316 262.201 986.845 261.638C990.285 257.413 993.726 253.187 997.431 248.962C997.96 248.398 997.96 247.553 997.431 246.99C997.166 246.708 996.902 246.708 996.637 246.708C995.843 246.99 995.579 246.99 995.314 247.271ZM974.671 273.469C971.495 277.976 968.583 282.765 965.672 287.554C965.407 288.118 965.408 288.963 966.201 289.526C966.731 289.808 967.525 289.808 968.054 288.963C970.965 284.174 973.877 279.667 977.052 275.159C977.582 274.596 977.317 273.751 976.788 273.188C976.523 272.906 976.258 272.906 975.994 272.906C975.465 272.906 974.935 272.906 974.671 273.469ZM957.732 301.921C955.086 306.991 952.704 312.062 950.322 317.132C950.057 317.696 950.322 318.541 950.851 319.104C951.645 319.386 952.175 319.104 952.704 318.541C955.086 313.47 957.468 308.4 959.85 303.611C960.114 303.048 959.85 302.202 959.32 301.639C959.056 301.639 958.791 301.357 958.791 301.357C958.262 301.357 957.732 301.639 957.732 301.921ZM943.706 332.626C941.588 337.978 939.736 343.33 938.148 348.401C937.883 349.246 938.412 349.809 938.942 350.091C939.736 350.373 940.265 349.809 940.53 349.246C942.118 343.894 943.97 338.542 946.088 333.471C946.352 332.626 946.087 332.062 945.294 331.499C945.029 331.499 945.029 331.499 944.764 331.499C944.5 331.781 943.97 332.062 943.706 332.626ZM933.649 364.739C932.325 370.373 931.002 375.726 929.943 381.36C929.679 382.205 930.208 382.768 931.002 383.05C931.796 383.331 932.325 382.768 932.59 381.923C933.649 376.571 934.972 370.937 936.295 365.585C936.56 364.739 936.03 364.176 935.237 363.894L934.972 363.894C934.178 363.613 933.649 364.176 933.649 364.739ZM927.297 397.98C926.503 403.614 925.973 409.248 925.709 414.882C925.709 415.727 926.238 416.29 927.032 416.29C927.826 416.29 928.355 415.727 928.355 414.882C928.62 409.529 929.149 403.895 929.943 398.261C929.943 397.416 929.414 396.853 928.885 396.571C928.885 396.571 928.885 396.571 928.62 396.571C927.826 396.853 927.297 397.416 927.297 397.98ZM916.181 418.544C916.181 419.389 916.711 419.952 917.505 419.952L917.769 419.952C923.062 419.952 928.091 420.234 933.119 420.516C933.913 420.516 934.443 419.952 934.443 419.107C934.443 418.262 933.913 417.699 933.119 417.699C928.091 417.135 922.798 417.135 917.505 417.135L917.24 417.135C916.711 417.135 916.181 417.98 916.181 418.544ZM947.675 421.361C947.675 422.206 947.94 422.769 948.734 423.051C954.027 424.178 959.056 425.304 964.084 426.995C964.878 427.276 965.407 426.713 965.672 426.15C965.937 425.304 965.408 424.741 964.878 424.459C959.85 422.769 954.557 421.642 949.263 420.516L948.999 420.516C948.469 420.234 947.94 420.516 947.675 421.361ZM978.111 430.375C977.846 431.22 978.111 431.784 978.905 432.347C983.669 434.601 988.433 437.136 992.932 439.671C993.461 439.953 994.255 439.953 994.784 439.108C995.049 438.544 995.049 437.699 994.255 437.136C989.491 434.319 984.728 431.784 979.964 429.53C979.699 429.53 979.699 429.53 979.434 429.53C978.905 429.53 978.376 430.093 978.111 430.375ZM926.768 430.657C925.974 430.657 925.444 431.22 925.444 432.065C925.709 437.699 925.974 443.615 926.503 448.967C926.503 449.812 927.297 450.376 928.091 450.094C928.885 450.094 929.414 449.249 929.149 448.404C928.62 443.051 928.091 437.417 928.091 431.784C928.091 431.22 927.561 430.657 926.768 430.657Z" fill="#DDE3FE"/>
<path d="M321.323 288C320.529 288 320 288.847 320 289.411C320.265 295.339 320.794 300.984 321.588 306.346C321.588 307.193 322.382 307.758 323.176 307.475C323.97 307.475 324.5 306.629 324.235 305.782C323.706 300.419 323.176 294.774 322.647 289.129C322.647 288.565 322.118 288 321.323 288ZM325.294 321.588C324.5 321.87 324.235 322.435 324.235 323.282C325.294 328.927 326.617 334.572 328.205 339.935C328.47 340.781 329.264 341.064 329.793 340.781C330.588 340.499 330.852 339.652 330.588 339.088C329.264 334.007 327.941 328.362 326.882 322.717C326.882 322.153 326.088 321.588 325.558 321.588C325.558 321.306 325.294 321.306 325.294 321.588ZM334.029 354.047C333.234 354.329 332.97 355.176 333.234 356.023C335.352 361.386 337.734 366.466 340.116 371.547C340.381 372.111 341.175 372.394 341.969 372.111C342.499 371.829 342.763 370.982 342.499 370.136C340.116 365.337 337.734 360.257 335.617 354.894C335.352 354.329 334.823 354.047 334.293 354.047C334.558 353.765 334.293 353.765 334.029 354.047ZM457.903 370.982C457.903 371.829 458.432 372.394 459.226 372.394C464.255 372.394 469.549 373.523 474.313 375.216C475.107 375.498 475.637 375.216 475.902 374.369C476.166 373.523 475.901 372.958 475.107 372.676C469.814 370.7 464.52 369.853 459.226 369.571C458.432 369.571 457.903 370.136 457.903 370.982ZM443.08 372.394C441.757 372.958 440.698 373.24 439.374 374.087C435.669 375.781 432.228 378.321 429.052 381.426C428.522 381.99 428.522 382.837 429.052 383.402C429.581 383.966 430.375 383.966 430.904 383.402C433.816 380.579 437.257 378.321 440.698 376.628C441.757 376.063 442.815 375.498 444.139 375.216C444.933 374.934 445.198 374.087 444.933 373.523C444.668 372.958 444.139 372.676 443.609 372.676C443.345 372.111 443.345 372.394 443.08 372.394ZM487.283 381.708C486.754 382.273 486.754 383.119 487.283 383.684C490.989 387.635 494.165 392.151 496.018 396.95C496.282 397.796 497.077 398.079 497.871 397.796C498.665 397.514 498.929 396.667 498.665 395.821C496.547 390.74 493.371 385.66 489.136 381.708C488.871 381.426 488.606 381.426 488.342 381.426C487.812 381.426 487.548 381.426 487.283 381.708ZM349.116 383.684C348.586 384.248 348.322 385.095 348.851 385.66C351.498 389.611 354.145 393.28 357.321 396.667C357.85 397.514 358.644 398.079 359.174 398.925C359.703 399.49 360.497 399.49 361.027 398.925C361.556 398.361 361.556 397.514 361.027 396.95C360.497 396.385 359.703 395.538 359.174 394.974C356.262 391.587 353.615 387.918 350.969 384.248C350.704 383.966 350.174 383.684 349.91 383.684C349.645 383.402 349.38 383.402 349.116 383.684ZM418.993 394.692C416.347 399.772 414.494 405.135 413.17 410.78C412.906 411.627 413.435 412.191 414.229 412.474C415.023 412.756 415.552 412.191 415.817 411.345C416.876 405.982 418.729 400.619 421.111 395.821C421.376 395.256 421.111 394.409 420.582 393.845C420.317 393.845 420.052 393.563 420.052 393.563C419.788 394.127 419.258 394.127 418.993 394.692ZM370.82 408.24C370.291 408.804 370.555 409.651 371.085 410.216C375.32 413.603 379.555 416.99 384.319 419.812C384.849 420.094 385.643 420.094 386.172 419.248C386.437 418.683 386.437 417.836 385.643 417.272C381.143 414.449 376.908 411.345 372.673 407.675C372.408 407.393 372.144 407.393 371.879 407.393C371.35 407.675 371.085 407.958 370.82 408.24ZM498.4 412.756C497.871 416.99 496.018 420.377 493.371 423.482C492.577 424.328 491.783 425.175 490.724 425.74C490.195 426.304 489.93 427.151 490.459 427.715C490.989 428.28 491.783 428.562 492.312 427.998C493.371 427.151 494.43 426.304 495.224 425.457C498.4 422.07 500.253 418.119 501.047 413.32C501.047 412.474 500.782 411.909 499.988 411.627L499.723 411.627C498.929 411.627 498.4 412.191 498.4 412.756ZM397.818 426.022C397.554 426.869 397.818 427.433 398.612 427.998C403.112 430.256 408.141 431.949 412.906 433.36C413.435 437.312 414.494 441.263 415.552 445.215C415.817 446.062 416.611 446.344 417.141 446.062C417.935 445.779 418.199 444.933 417.935 444.368C416.611 440.417 415.817 436.465 415.288 432.514C415.288 432.231 415.288 432.231 415.288 431.949C415.023 430.82 415.023 429.409 415.023 428.28C415.023 427.433 414.229 426.869 413.7 426.869C412.906 426.869 412.376 427.715 412.376 428.28C412.376 428.844 412.376 429.691 412.641 430.256C408.406 428.844 403.906 427.151 399.936 425.175C399.671 425.175 399.671 425.175 399.407 425.175C398.613 425.175 398.083 425.457 397.818 426.022ZM476.431 431.949C471.402 433.36 466.108 434.489 461.079 435.054C460.285 435.054 459.755 435.901 460.02 436.747C460.02 437.594 460.814 438.159 461.608 437.876C466.902 437.312 472.196 436.183 477.49 434.772C478.284 434.489 478.548 433.925 478.548 433.078C478.284 432.514 477.754 431.949 477.225 431.949C476.696 431.949 476.695 431.949 476.431 431.949ZM428.258 435.618C428.258 436.465 428.522 437.03 429.316 437.312C434.61 438.159 439.904 438.723 445.198 438.723C445.992 438.723 446.521 438.159 446.521 437.312C446.521 436.465 445.992 435.901 445.198 435.901C439.904 435.901 434.875 435.336 429.581 434.489L429.316 434.489C428.787 434.489 428.258 434.772 428.258 435.618ZM422.964 458.763C422.434 459.045 422.17 459.892 422.434 460.739C425.081 465.537 428.258 470.336 431.963 474.569C432.493 475.134 433.287 475.134 433.816 474.569C434.345 474.005 434.345 473.158 433.816 472.594C430.375 468.36 427.199 463.844 424.552 459.045C424.287 458.481 423.758 458.481 423.493 458.481C423.228 458.481 422.964 458.481 422.964 458.763ZM764.412 461.868C759.383 462.15 753.824 462.997 748.531 463.561C747.737 463.561 747.207 464.408 747.472 465.255C747.472 466.102 748.266 466.666 749.06 466.384C754.354 465.537 759.648 464.973 764.677 464.69C765.471 464.69 766 463.844 766 463.279C766 462.432 765.206 461.868 764.412 461.868C764.677 461.868 764.677 461.868 764.412 461.868ZM732.914 466.384C727.885 467.513 722.591 468.642 717.297 470.053C716.503 470.336 716.239 470.9 716.239 471.747C716.503 472.594 717.033 472.876 717.827 472.876C723.12 471.465 728.149 470.336 733.179 469.207C733.973 468.924 734.237 468.36 734.237 467.513C734.237 466.949 733.708 466.384 732.914 466.384ZM701.945 474.287L700.093 474.852C695.593 476.263 691.093 477.674 686.593 479.085C685.799 479.368 685.535 480.214 685.799 480.779C686.064 481.626 686.858 481.908 687.388 481.626C691.887 480.214 696.387 478.803 700.887 477.392L702.739 476.827C703.533 476.545 703.798 475.981 703.534 475.134C703.269 474.569 702.739 474.005 702.21 474.005C702.21 474.287 701.945 474.287 701.945 474.287ZM443.345 484.448C442.815 485.013 443.08 485.859 443.609 486.424C447.58 490.093 452.079 493.48 456.579 496.303C457.109 496.585 457.903 496.585 458.432 495.738C458.697 495.174 458.697 494.327 457.903 493.763C453.403 490.94 449.168 487.553 445.198 483.884C444.933 483.601 444.668 483.601 444.404 483.601C443.874 483.884 443.609 484.166 443.345 484.448ZM671.506 484.166C667.007 485.859 662.242 487.271 657.742 488.964L656.419 489.529C655.625 489.811 655.36 490.658 655.625 491.222C655.89 492.069 656.684 492.351 657.213 492.069L658.536 491.505C663.036 489.811 667.801 488.4 672.3 486.706C673.094 486.424 673.359 485.577 673.094 485.013C672.83 484.448 672.3 484.166 671.771 484.166L671.506 484.166ZM641.332 494.609C636.303 496.303 631.274 497.996 626.244 499.69C625.45 499.972 625.186 500.819 625.45 501.383C625.715 502.23 626.509 502.512 627.039 502.23C632.068 500.537 637.097 498.843 642.126 497.15C642.92 496.867 643.185 496.021 642.92 495.456C642.655 494.892 642.126 494.609 641.596 494.609C641.596 494.327 641.332 494.327 641.332 494.609ZM470.078 502.512C469.814 503.359 470.078 503.924 470.608 504.488C475.372 506.746 480.401 508.722 485.695 510.698C486.489 510.98 487.018 510.415 487.283 509.851C487.548 509.004 487.018 508.44 486.489 508.157C481.46 506.464 476.431 504.488 471.931 502.23C471.666 502.23 471.666 502.23 471.402 502.23C470.608 501.666 470.078 501.948 470.078 502.512ZM610.893 504.206C605.599 505.899 600.57 507.028 595.541 508.44C594.747 508.722 594.482 509.286 594.482 510.133C594.747 510.98 595.276 511.262 596.07 511.262C601.099 510.133 606.128 508.722 611.422 507.028C612.216 506.746 612.481 506.182 612.481 505.335C612.216 504.77 611.687 504.206 611.157 504.206C611.157 503.924 610.893 504.206 610.893 504.206ZM579.924 511.544C575.689 512.391 571.719 512.956 567.748 513.52C566.69 513.803 565.631 513.803 564.307 514.085C563.513 514.085 562.984 514.932 563.249 515.778C563.249 516.625 564.043 517.19 564.837 516.907C565.896 516.625 566.954 516.625 568.278 516.343C572.248 515.778 576.483 514.932 580.718 514.085C581.512 514.085 582.042 513.238 581.777 512.391C581.512 512.109 580.983 511.544 579.924 511.544C580.189 511.544 580.189 511.544 579.924 511.544ZM499.988 513.238C499.723 514.085 500.253 514.649 501.047 514.932C506.076 516.061 511.37 516.907 516.928 517.472C517.722 517.472 518.252 516.907 518.516 516.343C518.516 515.496 517.987 514.932 517.457 514.649C512.164 514.085 506.87 513.238 501.841 512.109L501.576 512.109C500.782 512.109 500.253 512.391 499.988 513.238ZM548.691 515.778C543.397 516.061 538.103 516.061 532.809 516.061C532.28 516.061 531.486 516.625 531.486 517.472C531.486 518.319 532.015 518.883 532.809 518.883C538.103 519.165 543.397 518.883 548.691 518.601C549.485 518.601 550.014 518.036 550.014 517.19C550.014 516.343 549.485 515.778 548.691 515.778Z" fill="#DDE3FE"/>
<path d="M1519 267C1462 273.5 1440.09 320.606 1468 352.5C1485.5 372.5 1477 279 1406 336.5" stroke="#DDE3FE" stroke-width="3" stroke-linecap="round"/>
<defs>
<linearGradient id="paint0_linear_117_12414" x1="960" y1="0" x2="960" y2="687" gradientUnits="userSpaceOnUse">
<stop stop-color="white"/>
<stop offset="1" stop-color="#F9F9F9"/>
</linearGradient>
</defs>
</svg>
