<svg xmlns="http://www.w3.org/2000/svg" width="22" height="22">
    <path fill-rule="evenodd" d="M11.034-.006C4.972-.006.062 4.905.062 10.969c0 4.857 3.141 8.959 7.502 10.413.549.096.754-.233.754-.522 0-.26-.013-1.125-.013-2.044-2.757.508-3.47-.672-3.69-1.289-.123-.316-.658-1.29-1.124-1.551-.384-.205-.933-.713-.014-.727.864-.013 1.481.796 1.687 1.125.987 1.66 2.565 1.194 3.195.906.096-.714.384-1.194.7-1.468-2.441-.275-4.992-1.221-4.992-5.419 0-1.194.425-2.181 1.124-2.95-.109-.274-.493-1.399.11-2.908 0 0 .919-.288 3.017 1.125a10.181 10.181 0 0 1 2.743-.371c.933 0 1.865.124 2.743.371 2.098-1.427 3.017-1.125 3.017-1.125.604 1.509.22 2.634.11 2.908.699.769 1.124 1.743 1.124 2.95 0 4.212-2.564 5.144-5.005 5.419.397.343.74 1.001.74 2.03 0 1.468-.013 2.648-.013 3.018 0 .289.205.631.754.522a10.992 10.992 0 0 0 7.474-10.413c0-6.064-4.91-10.975-10.971-10.975z"/>
</svg>
