<svg width="162" height="139" viewBox="0 0 162 139" fill="none" xmlns="http://www.w3.org/2000/svg">
<path d="M70.1131 131.04C73.1061 120.101 130.666 126.482 159.072 131.04C164.891 133.572 161.566 136.61 153.252 136.61C124.292 139.311 67.1201 141.978 70.1131 131.04Z" fill="#0C0607" fill-opacity="0.2"/>
<path fill-rule="evenodd" clip-rule="evenodd" d="M116.233 19.3787C116.233 19.3787 114.86 23.4691 110.601 26.9788C104.899 31.6772 102.608 30.2443 99.577 31.9314C96.5943 33.5923 96.074 35.2069 96.074 35.2069C96.074 35.2069 95.6555 33.7806 96.5854 32.0957C96.5854 32.0957 95.6267 31.6173 94.0807 32.9037C94.0807 32.9037 94.1651 30.2361 96.8903 28.0002C96.8903 28.0002 95.3839 28.6043 94.2036 27.7392C94.2036 27.7392 95.5463 27.0609 96.2738 26.2722C97.0013 25.4836 97.1557 24.8892 97.1557 24.8892C97.1557 24.8892 96.6101 25.021 95.615 24.9801C94.6304 24.9402 94.1393 23.9281 94.1393 23.9281C94.1393 23.9281 96.6193 24.066 98.3922 22.4909C98.9126 22.0283 103.15 17.0331 107.989 15.8439C112.828 14.6546 116.233 19.3787 116.233 19.3787Z" fill="#4BCA81"/>
<path fill-rule="evenodd" clip-rule="evenodd" d="M116.879 20.3585C116.879 20.3585 116.021 22.3161 114.943 24.0542C113.892 25.7471 112.081 27.4263 112.081 27.4263C112.081 27.4263 114.035 30.9503 116.362 30.8182C118.69 30.6859 119.178 27.7954 119.163 26.8886C119.117 24.0729 116.879 20.3585 116.879 20.3585Z" fill="#4BCA81"/>
<path fill-rule="evenodd" clip-rule="evenodd" d="M125.037 89.3408C124.969 89.3997 122.218 91.9011 108.666 91.8107C95.1153 91.7202 87.9609 89.8334 87.9609 89.8334C87.9609 89.8334 90.8173 107.362 91.2837 111.405C91.7508 115.448 93.8851 129.433 94.4574 131.011C95.0296 132.589 95.4321 134.2 96.2376 133.98C97.0441 133.76 101.239 119.707 102.73 111.67C104.222 103.634 107.034 102.658 108.645 103.044C110.256 103.43 111.234 105.034 111.932 115.844C112.629 126.654 115.767 133.726 116.828 133.472C117.889 133.217 119.912 130.905 121.423 121.322C122.935 111.739 125.037 89.3408 125.037 89.3408Z" fill="#4C66FF"/>
<path fill-rule="evenodd" clip-rule="evenodd" d="M124.7 90.6274C124.083 101.765 122.502 112.825 119.889 123.667C119.367 125.829 119.084 129.119 117.83 131.007C116.641 132.797 115.973 131.741 115.253 130.304C114.509 128.821 114.022 127.092 113.619 125.483C112.338 120.378 112.208 115.084 111.668 109.871C111.447 107.721 111.617 102.311 108.723 101.723C105.909 101.151 103.844 106.096 103.052 108.036C101.249 112.444 101.537 117.223 100.556 121.863C100.036 124.321 99.4883 126.777 98.7523 129.179C98.4238 130.254 98.1244 132.448 96.9796 132.369C95.7823 132.286 95.2424 129.209 94.9468 128.087C93.3965 122.202 91.9466 115.988 91.2521 109.958C90.5209 103.609 89.7892 97.2603 89.0581 90.9107C88.9783 90.2159 87.8843 90.2077 87.9652 90.9107C88.6559 96.9071 89.3466 102.904 90.0373 108.9C90.6909 114.574 92.2036 120.342 93.3364 125.945C93.649 127.491 94.5446 134.693 97.4173 133.946C98.7692 133.593 99.1435 131.519 99.5036 130.428C100.45 127.565 101.094 124.611 101.714 121.663C102.845 116.289 102.564 110.256 105.519 105.526C105.827 105.034 106.644 103.689 106.968 103.598C107.442 103.759 107.914 103.919 108.387 104.08C109.439 103.984 109.962 104.368 109.958 105.234C110.626 106.3 110.44 108.556 110.576 109.871C110.873 112.763 111.048 115.666 111.361 118.556C111.83 122.887 112.368 128.534 115.017 132.17C117.254 135.241 118.67 132.283 119.419 129.831C123.267 117.237 125.066 103.749 125.792 90.6274C125.832 89.92 124.738 89.9222 124.7 90.6274Z" fill="#3D3D54"/>
<path fill-rule="evenodd" clip-rule="evenodd" d="M100.417 44.9044C99.7457 40.3387 99.6515 35.7499 100.28 31.1671C100.791 27.4342 101.365 23.3177 103.764 20.2944C108.234 14.6596 116.079 19.6094 117.755 25.2264C118.773 28.6389 118.57 32.5291 118.375 36.2707C118.261 38.4603 118.149 40.5991 118.287 42.5614C118.398 44.1395 119.218 45.0437 120.143 46.0637C120.206 46.1336 120.27 46.204 120.334 46.2752L120.345 46.2728L120.346 46.2911L121.16 47.255L121.168 47.2651C121.178 47.278 121.189 47.2909 121.199 47.3041C121.841 48.156 122.409 49.0607 122.93 49.9912L122.942 49.9819L123.573 51.2115L123.578 51.2148L123.645 51.3468C123.738 51.5298 123.831 51.7128 123.919 51.8984C125.488 55.2093 126.637 58.7313 127.396 62.3121C128.983 69.7898 128.788 77.4982 126.967 84.9121L126.966 84.9149C127.05 84.8959 127.134 84.8777 127.218 84.8595C127.325 84.8362 127.433 84.8129 127.54 84.7879C127.841 84.7181 128.124 84.8808 128.218 85.1715C129.346 88.6639 128.258 90.4155 124.642 90.8942C123.263 91.0767 121.881 91.2235 120.495 91.3427C121.062 94.2838 122.216 97.6783 125.899 97.227C126.602 97.1407 126.593 98.2411 125.899 98.3263C121.629 98.8495 120.05 94.9417 119.402 91.4823C119.401 91.4718 119.402 91.4622 119.403 91.4527C119.403 91.4487 119.403 91.4448 119.404 91.4408C119.404 91.4368 119.404 91.4327 119.403 91.4285C116.605 91.6428 113.799 91.7582 110.993 91.8374C111.262 92.0495 111.352 92.525 110.972 92.7685C110.701 92.9424 111.056 94.4691 111.284 95.449C111.36 95.7755 111.422 96.0414 111.442 96.1761C111.54 96.8412 111.58 97.4963 111.469 98.1625C111.276 99.3183 110.732 100.25 109.714 100.849C109.101 101.21 108.547 100.259 109.158 99.8998C110.867 98.8954 110.468 96.8642 110.136 95.1751C110.081 94.8956 110.028 94.6252 109.986 94.3706C109.973 94.2868 109.958 94.2014 109.943 94.1149C109.799 93.2903 109.638 92.3708 110.373 91.8555C109.722 91.8726 109.071 91.8885 108.42 91.9039C107.968 91.9144 107.515 91.9259 107.062 91.9375C104.47 92.0038 101.855 92.0707 99.2598 91.9369C99.3193 93.6814 99.1177 95.4045 97.7443 96.6658C96.5758 97.7393 94.9441 98.2592 93.368 98.1218C92.6656 98.0608 92.6617 96.961 93.368 97.0225C94.6615 97.1358 95.9919 96.7692 96.9653 95.8887C98.1382 94.8284 98.2241 93.3329 98.158 91.8665C96.3957 91.7335 94.6449 91.4961 92.9212 91.0839C92.762 91.0458 92.5961 91.0087 92.4262 90.9706C91.1094 90.6756 89.5477 90.3258 88.9222 89.0684C88.6404 88.5031 88.5562 87.8524 88.5886 87.1907C88.8285 86.0962 89.2111 84.2435 89.1644 84.0083C89.1612 83.992 89.1526 83.947 89.1391 83.8763C89.2359 76.3448 90.1111 68.8341 92.0612 61.5454C92.7354 59.0254 93.5454 56.5439 94.4801 54.109C95.2283 52.1599 95.6102 51.1824 96.4813 49.3487C97.3732 47.4712 98.4523 45.752 100.417 44.9044ZM125.905 84.6203C128.025 75.9901 127.867 66.946 125.257 58.4323C124.229 55.0807 122.88 51.6368 120.852 48.7133C119.39 50.7931 117.521 52.7113 115.215 53.8441C115.127 53.8876 115.035 53.9357 114.941 53.9852C114.462 54.2381 113.918 54.5245 113.384 54.3926C112.998 54.2971 112.674 53.8946 112.361 53.5057C112.011 53.0712 111.674 52.6536 111.28 52.7003C110.865 52.7491 110.569 53.1509 110.262 53.568C109.965 53.9723 109.657 54.391 109.219 54.5163C108.626 54.6859 107.866 54.3273 107.235 54.0296C107.05 53.9424 106.876 53.8604 106.721 53.7985C103.752 52.6135 101.016 51.0064 98.472 49.0816C97.9129 48.6595 98.4627 47.7053 99.0274 48.1324C100.78 49.4581 102.613 50.6475 104.577 51.6368C104.811 51.7547 105.064 51.8974 105.328 52.0465C106.143 52.5067 107.066 53.0284 107.89 53.0757C108.632 53.622 109.244 53.461 109.729 52.5909C109.988 52.2923 110.247 51.9935 110.506 51.6947L110.866 51.2795C111.06 51.0558 111.448 51.0778 111.646 51.2795C113.124 52.7926 114.347 53.2345 116.157 51.9742C117.637 50.9437 118.839 49.6592 119.873 48.2038C119.889 48.1054 119.925 48.0082 120.01 47.918C120.058 47.8675 120.106 47.8169 120.154 47.7669C120.138 47.7461 120.122 47.7255 120.105 47.7049L120.059 47.648C120.017 47.595 119.974 47.5421 119.933 47.4882C119.916 47.4921 119.899 47.4957 119.882 47.4992C119.875 47.5007 119.868 47.5021 119.861 47.5036C119.332 47.6212 119.04 47.032 119.24 46.6781C119.067 46.5062 118.882 46.3379 118.697 46.1687C118.496 45.9859 118.294 45.8017 118.104 45.6101C114.702 51.7011 106.33 51.2575 101.778 46.4879C101.289 45.9757 102.067 45.1974 102.558 45.7107C106.477 49.8181 113.631 50.4628 116.856 45.5442C116.857 45.453 116.888 45.3562 116.962 45.2584C117.061 45.1292 117.16 45.0006 117.258 44.872C117.303 44.8126 117.356 44.7703 117.41 44.7335C117.356 44.6395 117.302 44.545 117.26 44.4444C116.867 43.5138 117.002 42.0427 117.122 40.7455C117.172 40.2063 117.219 39.697 117.224 39.2691C117.235 38.2861 117.272 37.2789 117.31 36.2599C117.442 32.6954 117.579 28.9832 116.634 25.6297C115.121 20.2662 108.839 16.3069 104.694 20.8934C102.608 23.2014 102.141 26.2447 101.686 29.2064C101.63 29.5706 101.574 29.9335 101.516 30.2937L101.512 30.3141C100.716 35.2206 100.783 40.2079 101.548 45.1116C101.597 45.4216 101.47 45.6838 101.164 45.7877C99.4833 46.3581 98.2684 47.9359 97.3369 49.7637C96.557 51.2941 95.9758 52.9998 95.4864 54.4361C95.3342 54.8829 95.1908 55.3035 95.0532 55.6848C93.9866 58.6417 93.1068 61.6652 92.4061 64.7288C90.9143 71.2474 90.2725 77.9072 90.2306 84.5845C90.2614 84.678 90.2719 84.7824 90.2278 84.9055L90.2272 84.9067L90.2267 84.9077C90.2267 84.9593 90.2259 85.0111 90.2251 85.0629C90.2243 85.1148 90.2234 85.1668 90.2234 85.2188C90.2912 85.2029 90.3634 85.1952 90.4449 85.2122C95.8134 86.3351 101.242 86.9391 106.672 87.0254C106.737 86.9556 106.82 86.8979 106.945 86.8765C108.264 86.655 110.154 86.4379 111.561 86.9611C116.415 86.7605 121.255 86.1444 126.043 85.1182C125.924 84.9984 125.853 84.8313 125.905 84.6203ZM126.938 87.9106C127.492 86.8701 127.557 86.7472 127.315 85.9614C126.199 86.2142 125.079 86.4434 123.957 86.6522C124.152 86.938 123.997 87.2766 123.729 87.4173C123.769 87.8393 123.808 88.2612 123.847 88.6832L123.959 89.8912L124.056 89.8824L124.223 89.8677C125.516 89.7548 125.984 89.7139 126.792 88.1857L126.855 88.0677L126.938 87.9106ZM113.017 90.6749C114.707 90.6145 116.397 90.5359 118.084 90.4232C119.681 90.3177 121.277 90.1781 122.868 90.0028L122.866 89.9839C122.771 88.9552 122.675 87.9266 122.579 86.8979C119.38 87.4398 116.162 87.8009 112.936 87.9829C113.505 88.787 113.772 89.9835 113.017 90.6749ZM110.032 90.1647C110.617 90.1642 111.259 90.1637 111.722 90.0033C112.718 89.6587 112.338 88.6672 111.604 88.1901C111.532 88.1433 111.451 88.1104 111.37 88.0775L111.338 88.0648C109.947 88.1181 108.554 88.1324 107.162 88.1181C107.172 88.1895 107.167 88.267 107.143 88.3506C106.911 89.142 106.926 89.8148 107.801 90.1275C108.18 90.263 108.677 90.2258 109.106 90.1937C109.186 90.1878 109.263 90.182 109.336 90.1775C109.546 90.1651 109.784 90.1649 110.032 90.1647ZM96.9218 90.6491C97.4094 90.7008 97.8975 90.7442 98.3856 90.7783C101.183 90.9756 103.995 90.9091 106.798 90.842C105.973 90.2748 105.745 89.2586 106.071 88.0999C103.014 88.0302 99.9573 87.802 96.9124 87.4102C96.5792 88.2967 96.5654 89.2322 96.9648 90.1055C97.0579 90.3083 97.0182 90.498 96.9218 90.6491ZM90.8674 89.3438C91.208 89.5787 91.7824 89.7009 92.2749 89.8056C92.4434 89.8415 92.6027 89.8754 92.7394 89.911C93.7977 90.1858 94.8752 90.3803 95.9599 90.5271C95.5115 89.474 95.4355 88.3429 95.8057 87.2557C93.9156 86.988 92.0298 86.6654 90.1518 86.2724C90.0185 86.2444 89.932 86.1768 89.867 86.096C89.602 87.2695 89.656 88.5083 90.8674 89.3438Z" fill="#3D3D54"/>
<path d="M126.129 84.2788L127.516 83.2541C127.976 83.0555 128.45 83.0288 128.907 83.3438C129.795 83.9554 129.588 85.2758 129.13 86.0803C128.737 86.7725 128.179 87.2362 127.396 86.8473C126.951 86.6266 126.679 86.1695 126.508 85.6147C126.425 85.6763 126.343 85.7362 126.265 85.7933C126.078 85.9296 125.913 86.0503 125.807 86.1408C125.256 86.6125 124.623 85.6795 125.169 85.2127C125.335 85.0708 125.525 84.8794 125.734 84.6697C125.86 84.5438 125.992 84.4112 126.129 84.2788Z" fill="#3D3D54"/>
<path d="M86.1198 95.299L86.1852 93.5673C86.0908 93.0721 85.8472 92.6615 85.3323 92.4565C84.3319 92.0578 83.3624 92.9703 82.9573 93.8028C82.6089 94.5193 82.5402 95.2448 83.2982 95.68C83.7288 95.9276 84.2573 95.8991 84.8089 95.7307C84.8048 95.8345 84.8016 95.9365 84.7985 96.0338C84.791 96.2662 84.7844 96.4717 84.7694 96.6109C84.69 97.3348 85.8119 97.3407 85.8898 96.6236C85.9134 96.4054 85.964 96.1392 86.0194 95.8474C86.0527 95.6722 86.0877 95.4878 86.1198 95.299Z" fill="#3D3D54"/>
<path fill-rule="evenodd" clip-rule="evenodd" d="M109.685 57.2638C109.708 57.2299 109.736 57.2102 109.763 57.1859C109.378 56.8118 109.187 56.2809 109.451 55.7116C109.886 54.7743 110.77 54.1933 111.661 53.7882C111.872 53.6918 112.071 53.7734 112.189 53.915C112.359 53.9077 112.52 53.9941 112.556 54.2189C112.71 55.1898 113.345 56.1462 113.042 57.1576C112.895 57.6461 112.467 57.8258 111.982 57.8561C112.802 59.6466 112.513 61.9364 112.525 63.8422C112.541 66.6314 112.09 69.4668 112.255 72.2432C112.351 73.8385 112.859 74.6538 113.405 76.0387C113.532 76.3612 113.771 76.6546 113.611 77.0157C113.429 77.425 112.794 77.5159 112.456 77.6854C111.217 78.3077 110.631 79.4934 109.683 80.4543C109.567 80.5719 109.434 80.5918 109.312 80.5616C109.159 80.6759 108.94 80.7151 108.754 80.5646C107.228 79.3342 105.804 77.7208 105.13 75.8289C104.615 74.3862 105.293 72.5884 105.505 71.1151C106.174 66.457 107.047 61.232 109.685 57.2638Z" fill="#FFA801"/>
<path fill-rule="evenodd" clip-rule="evenodd" d="M112.554 54.2253C112.682 55.2063 113.268 56.1633 112.961 57.1942C112.66 58.2022 111.29 57.9507 110.59 57.7371C109.818 57.5017 109.171 56.7062 109.58 55.7958C110.01 54.8382 110.859 54.2329 111.713 53.8052C112.185 53.5692 112.574 54.3098 112.099 54.5479C111.604 54.7962 111.168 55.018 110.791 55.4652C110.632 55.655 110.298 55.9826 110.258 56.2365C110.172 56.8027 110.926 56.9402 111.276 56.9816C111.464 57.0034 111.969 57.1204 112.14 57.0026C112.334 56.8681 112.228 56.3221 112.186 56.1153C112.074 55.5558 111.851 55.0426 111.776 54.4707C111.705 53.9258 112.482 53.6763 112.554 54.2253Z" fill="#3D3D54"/>
<path fill-rule="evenodd" clip-rule="evenodd" d="M111.941 57.703C112.859 59.5263 112.54 61.9293 112.544 63.914C112.549 66.7197 112.09 69.5734 112.244 72.3656C112.333 73.97 112.834 74.7881 113.371 76.1791C113.495 76.503 113.732 76.7973 113.571 77.1615C113.389 77.5739 112.759 77.6675 112.423 77.8396C111.19 78.47 110.605 79.6649 109.659 80.6355C109.276 81.0292 108.688 80.4212 109.073 80.0261C109.749 79.3323 110.233 78.4189 110.945 77.7647C111.292 77.4456 111.913 77.3071 112.206 77.0096C112.806 76.4019 112.335 76.2435 112.037 75.571C111.65 74.6957 111.495 73.6856 111.422 72.7277C111.245 70.4298 111.674 68.1113 111.704 65.8104C111.733 63.5809 112.239 60.1751 111.212 58.1374C110.966 57.648 111.693 57.2115 111.941 57.703Z" fill="#3D3D54"/>
<path fill-rule="evenodd" clip-rule="evenodd" d="M108.768 80.5698C107.239 79.3383 105.811 77.723 105.135 75.8304C104.618 74.3865 105.297 72.5887 105.508 71.1144C106.177 66.4548 107.048 61.2279 109.691 57.2594C109.994 56.8046 110.726 57.2327 110.42 57.6924C108.037 61.272 107.349 65.7115 106.557 69.8767C106.281 71.3316 105.834 73.0658 105.815 74.5392C105.786 76.7196 107.824 78.7206 109.371 79.9668C109.796 80.3086 109.19 80.9096 108.768 80.5698Z" fill="#3D3D54"/>
<path d="M105 41.0804C106.097 40.5277 108.84 38.9537 110.485 41.0804" stroke="#E1E1E4" stroke-linecap="round"/>
<path d="M124.785 52.0542C127.528 53.7124 134.001 59.2397 137.95 68.0833C141.9 76.927 133.745 82.0858 129.174 83.5597" stroke="#3D3D54" stroke-linecap="round"/>
<path d="M94.6154 52.0542C90.9585 58.1342 83.6445 71.9524 83.6445 78.5852C83.6445 85.2179 84.3759 90.561 84.7416 92.4034" stroke="#3D3D54" stroke-linecap="round"/>
<path d="M76.8531 40.3982C77.3948 50.174 80.6898 53.0705 82.2695 53.2968L66.0204 51.2606C49.5455 51.0343 14.971 50.7175 8.4713 51.2606C1.97163 51.8037 0.798088 49.2239 1.02377 47.8662V9.16999C1.02377 2.1097 4.18333 0.797205 5.76311 1.0235H70.7597C76.7177 1.0235 77.3045 4.19158 76.8531 5.77562C76.6275 13.2432 76.3115 30.6224 76.8531 40.3982Z" fill="#E1E1E4" stroke="#3D3D54" stroke-linecap="round"/>
<path d="M70.0159 11.2061V16.637C70.0159 18.8094 68.2104 18.9 67.3077 18.6737H20.5914C18.9665 18.6737 18.5603 17.3159 18.5603 16.637V12.5638C18.5603 10.3914 19.9144 9.39572 20.5914 9.16943H67.3077C70.0159 9.16943 70.2416 10.5272 70.0159 11.2061Z" fill="#FF79C6"/>
<path d="M66.6953 13.9219H24.0413" stroke="#3D3D54" stroke-linecap="round"/>
<path d="M70.0055 26.1421V31.5731C70.0055 33.7455 67.9177 33.836 66.8737 33.6097H12.8506C10.9716 33.6097 10.5018 32.252 10.5018 31.5731V27.4998C10.5018 25.3274 12.0677 24.3318 12.8506 24.1055H66.8737C70.0055 24.1055 70.2665 25.4632 70.0055 26.1421Z" fill="#FF79C6"/>
<path d="M66.168 28.8579H16.8425" stroke="#3D3D54" stroke-linecap="round"/>
</svg>
