<svg width="200" height="140" viewBox="0 0 200 140" fill="none" xmlns="http://www.w3.org/2000/svg">
<mask id="mask0_1663_63599" style="mask-type:luminance" maskUnits="userSpaceOnUse" x="18" y="122" width="182" height="18">
<path fill-rule="evenodd" clip-rule="evenodd" d="M18.0781 122.849H199.762V140H18.0781V122.849Z" fill="white"/>
</mask>
<g mask="url(#mask0_1663_63599)">
<path fill-rule="evenodd" clip-rule="evenodd" d="M179.61 124.749C179.469 125.418 179.283 126.202 179.075 126.83C178.62 128.213 176.894 129.323 175.65 129.894C174.405 130.465 169.186 130.628 164.217 130.794C159.247 130.96 144.7 131.446 138.493 131.653C132.287 131.86 103.321 132.589 97.984 132.709C92.6469 132.828 83.9599 132.655 80.617 132.142C77.2741 131.629 75.8579 126.905 75.5984 125.625C75.4712 124.997 75.4692 123.853 75.5 122.849C41.867 123.62 18.0781 125.891 18.0781 131.258C18.0781 137.784 58.7494 140 108.92 140C159.09 140 199.762 136.086 199.762 131.258C199.762 128.129 192.211 126.074 179.61 124.749Z" fill="#191526" fill-opacity="0.5"/>
</g>
<path fill-rule="evenodd" clip-rule="evenodd" d="M11.4922 50.5425L0.296875 53.2367L3.27346 63.6429L14.7141 60.799C14.7141 60.799 13.1137 57.3355 12.7796 56.0363C12.4451 54.7365 11.4922 50.5425 11.4922 50.5425Z" fill="#4BCA81"/>
<path fill-rule="evenodd" clip-rule="evenodd" d="M63.4566 91.9121C63.3951 91.9657 60.8995 94.2443 48.6031 94.1619C36.3078 94.0795 29.8164 92.3608 29.8164 92.3608C29.8164 92.3608 32.4081 108.328 32.8313 112.01C33.255 115.693 35.1916 128.432 35.7109 129.869C36.2301 131.307 36.5952 132.774 37.3261 132.574C38.0579 132.373 41.8637 119.572 43.2171 112.252C44.5705 104.932 47.1218 104.043 48.5835 104.394C50.0456 104.746 50.9325 106.207 51.5659 116.054C52.1988 125.901 55.0454 132.343 56.0085 132.111C56.9716 131.879 58.8064 129.773 60.178 121.044C61.5496 112.314 63.4566 91.9121 63.4566 91.9121Z" fill="#4C66FF"/>
<path fill-rule="evenodd" clip-rule="evenodd" d="M13.3398 54.6635L39.4282 49.1636V51.9133L37.5157 53.4681L14.1207 58.127L13.3398 54.6635Z" fill="#4BCA81"/>
<path fill-rule="evenodd" clip-rule="evenodd" d="M88.8594 38.1313L89.6457 42.2683L93.6651 39.4901L88.8594 38.1313Z" fill="#4BCA81"/>
<path fill-rule="evenodd" clip-rule="evenodd" d="M48.9648 60.211C48.1237 60.0834 47.5559 60.7529 47.6867 61.5218C47.8175 62.2908 48.3579 63.1552 49.1017 62.9113C49.846 62.6669 50.6255 62.0801 50.3616 61.5821C50.0978 61.084 49.4661 60.287 48.9648 60.211Z" fill="#FF79C6"/>
<path fill-rule="evenodd" clip-rule="evenodd" d="M48.3641 64.6861C48.3641 64.6861 47.5514 66.0318 47.2214 68.1663C46.891 70.3013 47.4026 73.9627 46.4205 76.2868C45.4384 78.6109 44.2344 82.3177 44.2344 82.3177L48.3641 87.0853C48.3641 87.0853 51.5913 83.9986 51.7681 82.5082C51.9449 81.0174 50.7732 74.6 50.7511 73.3452C50.7285 72.0903 50.4369 67.9777 50.185 67.3059C49.9326 66.634 49.1351 64.2132 48.8419 64.3366C48.5483 64.46 48.3641 64.6861 48.3641 64.6861Z" fill="#FF79C6"/>
<path fill-rule="evenodd" clip-rule="evenodd" d="M47.3957 31.035C45.2386 31.4851 44.1462 34.559 41.8486 36.2283C39.5509 37.8975 34.823 37.8975 32.7986 35.8984C30.7742 33.8997 30.9192 29.8529 31.8299 27.9848C32.4255 26.7626 35.3903 22.6886 41.5381 22.977C47.6858 23.2658 49.1116 23.9187 52.4147 25.718C53.9866 26.5742 56.2032 29.8346 54.7442 31.4678C51.9085 34.6416 49.5691 30.5814 47.3957 31.035Z" fill="#66D8FF"/>
<path fill-rule="evenodd" clip-rule="evenodd" d="M46.7255 48.3316C47.6591 48.5913 48.6005 48.4847 49.4744 48.0966C50.0459 47.8425 49.5492 47.0255 48.9802 47.2781C48.4542 47.5117 47.866 47.5904 47.2945 47.4904C47.0626 47.4497 46.8214 47.3805 46.6071 47.2876C46.5371 47.2572 46.2004 47.0895 46.0189 46.9819C46.0522 46.7928 45.9406 46.6127 45.786 46.5066C45.6284 46.3985 45.4621 46.3786 45.281 46.4388C45.0775 46.5061 44.9199 46.6786 44.9219 46.8956C44.9302 47.6696 46.0806 48.1525 46.7255 48.3316Z" fill="#E1E1E4"/>
<path fill-rule="evenodd" clip-rule="evenodd" d="M63.1506 93.0841C62.5909 103.229 61.157 113.304 58.7855 123.18C58.3125 125.15 58.0552 128.146 56.9178 129.866C55.8389 131.497 55.233 130.534 54.5796 129.226C53.9048 127.874 53.4625 126.299 53.0966 124.834C51.9344 120.183 51.8164 115.362 51.327 110.613C51.1257 108.654 51.2804 103.726 48.6546 103.191C46.1012 102.67 44.2275 107.175 43.5086 108.941C41.8734 112.957 41.1471 117.31 40.2566 121.537C39.7851 123.775 39.2878 126.012 38.6199 128.201C38.3219 129.18 38.0502 131.178 37.0115 131.106C35.9252 131.031 35.4353 128.228 35.1671 127.206C33.7605 121.845 33.4328 116.185 32.8026 110.693C32.1392 104.909 31.4753 99.126 30.8119 93.3421C30.7395 92.7093 29.7469 92.7018 29.8203 93.3421C30.447 98.8043 31.0737 104.266 31.7004 109.729C32.2934 114.897 32.6781 120.151 33.7059 125.255C33.9895 126.663 34.8022 133.224 37.4087 132.543C38.6353 132.222 38.9749 130.332 39.3017 129.338C40.1604 126.73 40.7445 124.04 41.3072 121.354C42.333 116.459 43.0663 110.964 45.7477 106.655C46.0273 106.207 46.7681 104.981 47.0626 104.899C47.4919 105.046 47.9208 105.191 48.3497 105.338C49.3046 105.251 49.7791 105.601 49.7747 106.389C50.381 107.36 50.2125 109.415 50.3354 110.613C50.6056 113.247 50.7643 115.892 51.0484 118.524C51.4738 122.469 51.9617 127.613 54.3654 130.925C56.3952 133.722 57.6794 131.028 58.3591 128.795C61.8511 117.323 63.4828 105.037 64.1422 93.0841C64.1779 92.4397 63.1858 92.4417 63.1506 93.0841Z" fill="#3D3D54"/>
<path fill-rule="evenodd" clip-rule="evenodd" d="M48.4007 86.4788C47.9367 85.8846 47.4681 85.2944 46.9785 84.7181C46.3023 83.9202 44.7825 82.8516 44.876 81.7094C44.9151 81.2335 45.4381 80.3571 45.5881 79.9443C45.992 78.8329 46.309 77.6922 46.571 76.5426C46.978 74.7626 47.2338 72.9512 47.427 71.1384C47.5529 69.9569 47.5966 68.7676 47.7225 67.5877C47.7374 67.4451 48.0256 65.8205 48.4089 65.0863C51.1341 67.9732 50.2041 72.6511 50.5407 76.2455C50.684 77.7742 51.0879 79.3078 51.1865 80.8301C51.3417 83.2237 49.8671 84.7032 48.4007 86.4788ZM48.1242 61.7432C48.0851 61.2837 48.3687 60.8783 48.6852 60.5489C48.7726 60.5782 48.8502 60.611 48.8687 60.6214C49.0845 60.7407 49.2566 60.9692 49.3573 61.1848C49.5556 61.6096 49.5371 62.2351 49.0115 62.4393C48.5224 62.63 48.1601 62.1735 48.1242 61.7432ZM51.4942 75.3498C51.2415 71.9248 51.8334 68.0343 49.7298 65.1136C49.9441 64.9854 50.0792 64.7266 49.9225 64.4518C49.5798 63.8497 49.5588 63.8517 49.0044 63.4483C49.3758 63.3991 49.7396 63.2232 50.0309 62.9157C50.833 62.0676 50.5329 60.7342 49.717 60.0009C49.4421 59.754 49.0861 59.598 48.7315 59.5523C48.5985 59.4892 48.4417 59.4882 48.2948 59.5627C47.912 59.6253 47.5719 59.8395 47.3992 60.2647C47.3453 60.3979 47.3597 60.5107 47.4064 60.604C47.0596 61.2459 46.9574 61.9777 47.3792 62.6643C47.6459 63.099 48.0595 63.3504 48.5019 63.4284C48.452 63.4522 48.4053 63.4816 48.3647 63.5134C46.4518 65.0097 46.7133 67.6612 46.5258 69.8059C46.1569 74.0158 45.4262 78.1453 43.61 82.0144C43.5108 82.2246 43.5221 82.4422 43.6901 82.6166C45.2063 84.1865 46.6208 85.815 47.95 87.5379C48.1956 87.8559 48.5913 87.8524 48.8374 87.5379C49.9292 86.1429 52.1036 84.3261 52.4376 82.5381C52.5825 81.766 52.229 80.8534 52.0974 80.1231C51.8138 78.5433 51.6114 76.949 51.4942 75.3498Z" fill="#3D3D54"/>
<path fill-rule="evenodd" clip-rule="evenodd" d="M35.6601 32.9863C36.252 32.8656 36.0016 32.0519 35.4096 32.1726C34.6837 32.3204 33.2885 32.8386 32.771 32.1216C32.4432 31.6666 31.6258 32.0891 31.956 32.5474C32.8069 33.727 34.4063 33.2421 35.6601 32.9863Z" fill="#3D3D54"/>
<mask id="mask1_1663_63599" style="mask-type:luminance" maskUnits="userSpaceOnUse" x="74" y="0" width="107" height="133">
<path fill-rule="evenodd" clip-rule="evenodd" d="M74.7617 0H180.496V132.929H74.7617V0Z" fill="white"/>
</mask>
<g mask="url(#mask1_1663_63599)">
<path d="M77.1478 115.8V7.49951L82.9976 1.49951H93.4976H130.998H175.498L181.668 5.99951L182.165 120.331L181.668 124.863L179.677 128.387L174.202 130.401H170.22L155.289 130.905L128.91 131.912L95.0655 132.415H85.6089L81.6272 131.912L79.1386 130.401L77.1478 127.884L76.1523 123.352L77.1478 115.8Z" fill="#E1E1E4"/>
<path fill-rule="evenodd" clip-rule="evenodd" d="M179.785 107.505C179.76 107.344 179.681 107.243 179.578 107.19C179.705 90.6936 179.081 74.208 178.663 57.7198C178.451 49.3502 178.297 40.9782 178.334 32.6061C178.353 28.3407 178.422 24.0758 178.558 19.8123C178.687 15.7501 179.465 11.3704 179.114 7.33207C178.583 1.23693 171.288 0.67293 166.654 0.626512C158.166 0.541663 149.678 0.469292 141.191 0.390932C132.866 0.314069 124.541 0.237206 116.217 0.159843C108.087 0.0844775 99.8677 -0.300337 91.7624 0.490255C86.4751 1.00634 76.7258 1.50095 75.5215 8.18206C74.7806 12.2942 75.3932 16.9654 75.4961 21.13C75.614 25.892 75.7995 30.652 76.0426 35.4096C76.0754 36.0484 77.0704 36.0524 77.0371 35.4096C76.6408 27.6674 76.3942 19.9157 76.3454 12.1635C76.3335 10.3722 76.1669 8.29785 77.0326 6.65428C77.9476 4.91737 79.783 4.02646 81.5522 3.42303C85.0907 2.21618 88.9728 1.72206 92.6764 1.40513C100.004 0.778741 107.404 1.07671 114.748 1.14459C122.42 1.21546 130.091 1.28684 137.763 1.35771C145.271 1.42709 152.78 1.49646 160.288 1.56584C163.676 1.59728 167.132 1.42858 170.507 1.755C172.67 1.96363 174.886 2.53711 176.475 4.12229C178.317 5.96151 178.114 8.06527 177.976 10.469C177.104 25.7103 177.259 40.9871 177.632 56.242C178.057 73.648 178.754 91.0505 178.577 108.464C178.574 108.75 178.77 108.901 178.988 108.933C179.387 111.972 179.569 115.029 179.483 118.097C179.391 121.357 179.615 126.294 176.608 128.394C174.292 130.012 170.814 129.709 168.139 129.799C164.704 129.916 161.269 130.033 157.834 130.149C145.009 130.583 132.184 131.049 119.356 131.401C112.75 131.582 106.142 131.729 99.534 131.81C96.3953 131.849 93.2562 131.873 90.1175 131.88C87.0305 131.886 83.5407 132.254 80.5398 131.349C73.8562 129.334 75.964 120.149 76.1968 114.906C76.4792 108.527 76.6786 102.145 76.795 95.7616C77.0625 81.0288 76.876 66.2911 76.2649 51.5693C76.2385 50.9289 75.244 50.9259 75.2704 51.5693C75.8815 66.2911 76.068 81.0288 75.8004 95.7616C75.6692 102.964 75.4325 110.164 75.0894 117.359C74.8785 121.773 73.6493 128.155 77.874 131.175C79.689 132.472 81.9749 132.754 84.1449 132.848C87.9395 133.012 91.7723 132.881 95.5694 132.85C102.839 132.79 110.107 132.644 117.374 132.452C132.172 132.063 146.965 131.515 161.76 131.014C165.416 130.89 169.151 130.983 172.789 130.577C174.983 130.333 177.204 129.712 178.577 127.849C180.325 125.478 180.315 121.871 180.442 119.051C180.616 115.182 180.358 111.332 179.785 107.505Z" fill="#3D3D54"/>
</g>
<path fill-rule="evenodd" clip-rule="evenodd" d="M172.177 10.6054C170.58 9.0261 168.17 8.56434 166.051 8.23146C158.651 7.07011 151.127 6.45659 143.647 6.15356C128.184 5.52711 112.72 7.79757 97.2908 6.59591C91.7719 6.166 83.2788 5.49775 81.7709 12.535C81.0741 15.7877 81.5007 19.3584 81.5402 22.6504C81.5927 27.1022 81.6457 31.5551 81.6986 36.007C81.7065 36.6469 82.6963 36.6488 82.6884 36.007C82.6077 29.1901 82.2742 22.321 82.4652 15.5061C82.5869 11.1662 84.2443 8.46732 88.767 7.62441C92.153 6.99348 95.629 7.49006 99.0273 7.72691C113.065 8.70466 127.152 6.65313 141.215 7.06463C148.185 7.26864 155.145 7.80802 162.063 8.68526C164.904 9.04551 169.251 9.11566 171.477 11.309C172.939 12.7505 172.723 14.9861 172.654 16.8605C172.58 18.8235 172.509 20.7864 172.455 22.7499C172.054 37.1733 172.265 51.6037 172.449 66.0281C172.549 73.9003 172.643 81.7725 172.625 89.6458C172.617 93.4861 172.574 97.326 172.521 101.166C172.472 104.728 172.236 108.312 173.195 111.781C173.3 112.159 173.697 112.205 173.951 112.042C174.157 114.213 174.247 116.398 174.097 118.575C173.94 120.853 173.756 122.409 171.161 123.278C169.648 123.784 167.899 123.878 166.315 123.97C160.883 124.283 155.375 123.863 149.938 123.798C138.811 123.666 127.681 123.775 116.559 124.125C111.03 124.298 105.504 124.553 99.9785 124.823C97.4907 124.945 94.9995 125.051 92.5078 125.005C91.2666 124.982 90.0225 124.926 88.7863 124.809C85.9135 124.537 83.9439 124.469 83.1174 121.051C82.533 118.634 82.6636 115.781 82.5394 113.301C82.4023 110.551 82.3325 107.798 82.3038 105.044C82.245 99.5317 82.3543 94.019 82.4503 88.5073C82.6691 75.9847 82.8873 63.462 83.106 50.9389C83.1169 50.298 82.1272 50.298 82.1163 50.9389C81.8946 63.6242 81.6734 76.3096 81.4522 88.9949C81.3448 95.154 81.225 101.315 81.3507 107.475C81.4096 110.388 81.5229 113.302 81.7199 116.21C81.8674 118.39 81.5432 121.646 82.7918 123.57C83.692 124.957 85.3429 125.352 86.8676 125.584C89.8043 126.031 92.8126 126.054 95.775 125.984C102.051 125.836 108.322 125.398 114.597 125.184C127.026 124.761 139.466 124.64 151.9 124.819C155.456 124.871 159.011 124.996 162.567 125.031C165.579 125.061 168.875 125.082 171.778 124.146C176.604 122.588 175.286 115.158 174.873 111.308C174.823 110.837 174.26 110.715 174.005 110.947C173.174 107.457 173.476 103.801 173.523 100.238C173.575 96.3796 173.612 92.5208 173.617 88.6621C173.625 80.7888 173.527 72.9166 173.426 65.0438C173.225 49.3113 173.008 33.5688 173.605 17.8418C173.7 15.3275 174.134 12.5415 172.177 10.6054Z" fill="#3D3D54"/>
<path fill-rule="evenodd" clip-rule="evenodd" d="M93.5959 27.0897C97.3335 26.3826 101.069 26.0958 104.868 26.087C106.538 26.0831 108.209 26.1012 109.878 26.1115C110.812 26.1174 111.746 26.1227 112.68 26.1286C112.911 26.1301 114.245 26.0444 115.156 25.8874C115.16 25.9931 115.196 26.1007 115.293 26.1971C115.32 26.224 115.347 26.2509 115.374 26.2779C115.564 26.4658 115.878 26.4633 116.069 26.2779C116.106 26.2412 116.144 26.2045 116.181 26.1682C116.37 25.9847 116.37 25.6598 116.181 25.4758C115.409 24.7227 113.64 25.1558 112.68 25.1499C110.517 25.1367 108.356 25.1181 106.193 25.1107C101.858 25.0961 97.6022 25.3383 93.3351 26.1462C92.7143 26.2637 92.977 27.2067 93.5959 27.0897Z" fill="#3D3D54"/>
<path fill-rule="evenodd" clip-rule="evenodd" d="M93.4616 32.6158C109.618 32.4369 125.774 32.2576 141.93 32.0787C142.57 32.0715 142.572 31.2297 141.93 31.2369C125.774 31.4157 109.618 31.5951 93.4616 31.7739C92.8211 31.7811 92.8191 32.6229 93.4616 32.6158Z" fill="#3D3D54"/>
<path fill-rule="evenodd" clip-rule="evenodd" d="M98.2638 39.4763C112.133 39.3216 126.003 39.3334 139.872 39.5103C140.51 39.5183 140.51 38.2813 139.872 38.2733C126.003 38.0964 112.133 38.0846 98.2638 38.2393C97.6264 38.2461 97.6249 39.4831 98.2638 39.4763Z" fill="#3D3D54"/>
<path fill-rule="evenodd" clip-rule="evenodd" d="M92.7703 51.232C100.462 51.1982 108.153 51.1637 115.844 51.1299C116.48 51.1267 116.482 49.8498 115.844 49.853C108.153 49.8869 100.462 49.9213 92.7703 49.9552C92.1346 49.9584 92.1331 51.2352 92.7703 51.232Z" fill="#3D3D54"/>
<path fill-rule="evenodd" clip-rule="evenodd" d="M141.247 55.372C125.377 57.0638 109.408 57.5452 93.4623 56.8123C92.8191 56.7828 92.8206 57.7653 93.4623 57.7948C109.408 58.5277 125.377 58.0463 141.247 56.3545C141.88 56.2872 141.887 55.3038 141.247 55.372Z" fill="#3D3D54"/>
<path fill-rule="evenodd" clip-rule="evenodd" d="M140.558 63.1827C125.31 63.3228 110.063 63.0169 94.8292 62.2643C94.1916 62.2325 94.1931 63.349 94.8292 63.3808C110.063 64.1333 125.31 64.4393 140.558 64.2991C141.195 64.2936 141.196 63.1771 140.558 63.1827Z" fill="#3D3D54"/>
<path fill-rule="evenodd" clip-rule="evenodd" d="M94.8356 74.6548C102.3 74.7356 109.76 74.5727 117.212 74.166C117.852 74.1308 117.857 73.2613 117.212 73.297C109.76 73.7037 102.3 73.8666 94.8356 73.7858C94.1902 73.7788 94.1902 74.6478 94.8356 74.6548Z" fill="#3D3D54"/>
<path fill-rule="evenodd" clip-rule="evenodd" d="M94.8288 82.9478C110.067 82.2376 125.311 81.6521 140.558 81.1916C141.194 81.1726 141.197 80.1712 140.558 80.1907C125.311 80.6511 110.067 81.2367 94.8288 81.9468C94.1945 81.9764 94.1905 82.9773 94.8288 82.9478Z" fill="#3D3D54"/>
<path fill-rule="evenodd" clip-rule="evenodd" d="M94.1457 89.1536C109.615 88.5969 125.084 88.0403 140.553 87.4836C141.194 87.4608 141.197 86.3735 140.553 86.3964C125.084 86.953 109.615 87.5097 94.1457 88.0664C93.505 88.0892 93.502 89.177 94.1457 89.1536Z" fill="#3D3D54"/>
<path fill-rule="evenodd" clip-rule="evenodd" d="M95.5152 98.5176C94.8836 98.5796 94.8771 99.5558 95.5152 99.4933C102.957 98.7659 110.421 98.403 117.901 98.4035C118.541 98.4035 118.542 97.4277 117.901 97.4277C110.421 97.4272 102.957 97.7902 95.5152 98.5176Z" fill="#3D3D54"/>
<path fill-rule="evenodd" clip-rule="evenodd" d="M141.243 104.395C126.227 104.178 111.211 104.45 96.2073 105.21C95.5678 105.242 95.5648 106.423 96.2073 106.391C111.211 105.631 126.227 105.359 141.243 105.576C141.885 105.586 141.885 104.405 141.243 104.395Z" fill="#3D3D54"/>
<path fill-rule="evenodd" clip-rule="evenodd" d="M94.8321 113.975C110.062 113.14 125.305 112.556 140.554 112.224C141.195 112.21 141.198 111.204 140.554 111.218C125.305 111.55 110.062 112.133 94.8321 112.968C94.1936 113.004 94.1891 114.01 94.8321 113.975Z" fill="#3D3D54"/>
<path fill-rule="evenodd" clip-rule="evenodd" d="M165.205 30.9919C165.118 32.2815 165.029 33.5711 164.941 34.8607C164.863 36.0015 165.131 38.2091 164.643 39.2129C163.367 41.838 158.72 41.3984 156.219 41.5709C153.954 41.7271 149.95 42.6348 148.087 41.2299C146.177 39.7895 146.504 35.0524 146.413 32.6732C146.306 29.8801 146.404 27.0915 146.646 24.3078C146.653 24.2299 146.643 24.1624 146.621 24.1037C147.419 23.9323 149.441 23.814 149.652 23.8046C151.104 23.7425 152.558 23.6804 154.011 23.6184C156.665 23.505 159.611 23.0024 162.245 23.2665C163.352 23.3779 164.426 23.7253 165.084 24.8429C165.405 25.3894 165.332 26.5287 165.358 27.1782C165.409 28.4486 165.291 29.7254 165.205 30.9919ZM166.211 25.5274C165.807 22.9117 164.814 22.1863 162.245 22.2809C157.724 22.4475 153.203 22.6673 148.683 22.8605C147.697 22.9023 144.126 22.7422 145.445 24.7567C145.492 24.8276 145.547 24.8789 145.608 24.9154C145.284 29.0483 145.31 33.1872 145.77 37.3123C145.998 39.3617 145.86 42.2736 148.356 42.7964C150.176 43.1778 152.454 42.7767 154.306 42.6747C156.538 42.5515 158.769 42.3756 160.994 42.1465C162.03 42.04 164.307 42.2159 165.147 41.3087C165.813 40.5893 165.641 39.1213 165.701 38.2461C165.982 34.1304 166.846 29.6313 166.211 25.5274Z" fill="#3D3D54"/>
<path fill-rule="evenodd" clip-rule="evenodd" d="M164.693 59.8526C164.703 60.777 165.107 62.8264 164.731 63.6504C163.791 65.7073 158.664 64.7474 156.778 64.8143C155.515 64.8593 154.252 64.9303 152.992 65.0273C151.935 65.1083 150.236 65.6273 149.218 65.3958C147.454 64.9943 147.894 62.9019 147.763 61.469C147.643 60.1471 147.529 58.8246 147.42 57.5017C147.21 54.9608 147.026 52.4184 146.856 49.8746C146.981 49.8261 147.089 49.7286 147.138 49.5621C147.742 47.5342 153.434 48.3221 155.024 48.3021C156.251 48.2871 157.478 48.2716 158.706 48.2561C159.783 48.2426 161.353 47.9312 162.388 48.2101C165.597 49.0751 164.631 53.5409 164.656 56.0548C164.669 57.3207 164.681 58.5866 164.693 59.8526ZM163.101 47.2326C161.488 46.9137 159.435 47.2471 157.785 47.2676C155.791 47.2926 153.797 47.3176 151.802 47.3426C149.945 47.3656 147.084 46.9752 146.265 49.085C146.035 49.1025 145.825 49.2565 145.845 49.559C146.129 53.8638 146.465 58.1651 146.865 62.4604C147.06 64.5503 146.834 66.3262 149.218 66.3957C151.371 66.4582 153.662 65.9512 155.831 65.8527C157.725 65.7673 159.622 65.7378 161.518 65.7683C164.033 65.8083 165.681 66.1177 165.716 63.1759C165.764 59.1511 165.803 55.0343 165.589 51.0155C165.492 49.192 165.047 47.6171 163.101 47.2326Z" fill="#3D3D54"/>
<path fill-rule="evenodd" clip-rule="evenodd" d="M145.714 73.6898C145.754 73.621 145.783 73.5426 145.785 73.4445C145.818 71.5749 153.156 72.4123 154.281 72.4523C155.531 72.4973 156.781 72.5509 158.031 72.6136C159.132 72.6687 160.737 72.474 161.778 72.8285C164.918 73.8971 164.079 78.6468 164.063 81.275C164.055 82.557 164.019 83.8395 163.956 85.1205C163.918 85.8907 164.152 88.3657 163.685 88.9574C162.964 89.8737 161.151 89.5243 160.105 89.5652C158.776 89.6173 157.446 89.6694 156.116 89.721C154.787 89.7731 153.457 89.8252 152.128 89.8773C151.059 89.9187 149.142 90.3698 148.139 90.033C145.819 89.2552 145.731 84.0939 145.572 82.1236C145.357 79.4463 145.473 76.7767 145.846 74.1191C145.87 73.9426 145.81 73.7985 145.714 73.6898ZM144.652 83.0263C144.868 85.0901 144.976 88.5497 146.262 90.2277C147.587 91.9573 151.301 90.921 153.125 90.8497C156.781 90.7066 160.437 90.5635 164.094 90.4204C164.386 90.4093 164.569 90.1969 164.597 89.9147C165.033 85.4436 165.181 80.9564 164.97 76.4672C164.862 74.1879 164.955 72.3253 162.415 71.8783C158.598 71.2067 154.396 71.4171 150.529 71.3336C148.643 71.2932 144.83 70.5842 144.781 73.4445C144.778 73.5876 144.83 73.6933 144.904 73.7737C144.896 73.8005 144.881 73.8192 144.877 73.8501C144.45 76.9006 144.33 79.9576 144.652 83.0263Z" fill="#3D3D54"/>
<path fill-rule="evenodd" clip-rule="evenodd" d="M146.372 98.3908C147.452 95.8216 152.272 96.4827 154.663 96.4523C155.972 96.4359 157.28 96.4194 158.588 96.403C159.615 96.39 162.347 95.9582 163.096 96.7909C163.81 97.5851 163.694 100.142 163.767 101.126C163.859 102.334 163.873 103.549 163.888 104.759C163.902 105.963 163.906 107.166 163.914 108.369C163.918 108.969 163.922 109.57 163.926 110.17C163.935 111.56 164.025 111.871 163.006 113.054C161.971 114.254 162.008 114.146 160.665 114.253C160.039 114.304 159.414 114.351 158.788 114.397C157.536 114.488 156.284 114.569 155.031 114.641C153.779 114.713 152.525 114.775 151.271 114.829C150.131 114.876 148.401 115.273 147.448 114.612C145.961 113.581 146.351 108.4 146.286 106.582C146.189 103.85 146.232 101.121 146.372 98.3908ZM145.629 111.93C145.821 113.936 145.672 115.735 147.979 115.943C152.06 116.311 156.589 115.577 160.665 115.25C163.311 115.038 164.775 114.829 164.945 111.971C165.171 108.149 165.075 104.03 164.698 100.223C164.584 99.0604 164.633 96.9973 163.89 96.0395C163.275 95.2442 162.516 95.3669 161.533 95.3689C157.302 95.3784 152.998 95.2861 148.775 95.5294C146.235 95.676 145.342 96.8048 145.158 99.2922C145.145 99.4632 145.21 99.5849 145.31 99.6642C145.151 103.757 145.237 107.849 145.629 111.93Z" fill="#3D3D54"/>
<mask id="mask2_1663_63599" style="mask-type:luminance" maskUnits="userSpaceOnUse" x="0" y="24" width="95" height="79">
<path fill-rule="evenodd" clip-rule="evenodd" d="M0.296875 24H94.917V102.019H0.296875V24Z" fill="white"/>
</mask>
<g mask="url(#mask2_1663_63599)">
<path fill-rule="evenodd" clip-rule="evenodd" d="M59.2359 55.6194C58.7667 54.7718 58.2558 53.9477 57.6774 53.1717C57.659 53.1477 57.6407 53.1247 57.6223 53.1006C63.0464 51.8971 68.5172 50.7961 73.9189 49.4729C70.915 54.2591 65.5678 58.0285 59.8282 55.5523C59.6357 55.4692 59.3917 55.4937 59.2359 55.6194ZM61.3317 63.3083C63.6814 71.0634 63.8233 79.3017 61.915 87.1629C61.8684 87.3551 61.9324 87.5073 62.0395 87.6165C57.728 88.5512 53.3699 89.1124 48.9999 89.2952C47.7325 88.8186 46.0311 89.0163 44.8436 89.2181C44.7305 89.2376 44.6556 89.2902 44.5971 89.3537C39.7082 89.2751 34.8203 88.7249 29.9865 87.7021C29.9131 87.6866 29.8481 87.6936 29.7871 87.7081C29.7871 87.6135 29.7901 87.5189 29.7901 87.4247C29.7906 87.4237 29.7906 87.4232 29.7911 87.4227C29.8307 87.3106 29.8213 87.2155 29.7935 87.1304C29.8312 81.0479 30.4091 74.9815 31.7524 69.0438C32.3833 66.2532 33.1755 63.4991 34.1358 60.8056C35.1343 58.0085 36.4637 52.8803 39.6378 51.7904C39.9136 51.6957 40.0277 51.4569 39.984 51.1746C39.2945 46.7077 39.2345 42.1648 39.9518 37.6955C40.1849 36.2436 40.4528 34.5694 40.9339 32.9804C41.2032 33.1326 41.4761 33.3318 41.7533 33.5942C42.2186 34.0342 42.9215 33.3278 42.4547 32.8863C42.0748 32.5268 41.6814 32.2259 41.2707 31.9906C41.7439 30.7335 42.3878 29.581 43.2965 28.6933C43.4904 28.9291 43.6477 29.241 43.7563 29.649C43.921 30.2714 44.8783 30.0075 44.7132 29.3832C44.5708 28.846 44.3863 28.3794 44.1378 27.9989C44.6006 27.6865 45.0644 27.4652 45.5247 27.3215C45.8615 27.6229 46.1988 28.0795 45.9443 28.4625C45.5877 28.9992 46.4468 29.5013 46.801 28.9682C47.1933 28.3769 47.0177 27.676 46.6517 27.1198C47.4007 27.0842 48.1288 27.2409 48.8173 27.5418C48.9775 27.9608 49.0996 28.443 49.1715 29.0032C49.2518 29.6335 50.2449 29.6415 50.1636 29.0032C50.1303 28.7419 50.0797 28.485 50.0177 28.2322C50.4403 28.5376 50.8391 28.8936 51.2082 29.2861C51.0822 29.6646 51.4116 30.1342 51.7861 29.9619C52.6129 31.0198 53.2384 32.2489 53.5673 33.4285C54.6616 37.3566 54.1442 41.8249 54.0981 45.8526C54.0827 47.1799 53.6298 49.3667 54.1308 50.5668C54.1685 50.6584 54.2171 50.7445 54.2657 50.8301C54.2176 50.8637 54.17 50.9022 54.1293 50.9563C54.0405 51.0734 53.9517 51.1906 53.8629 51.3082C53.7955 51.3973 53.7682 51.4855 53.7672 51.5686C50.8635 56.0489 44.4215 55.4616 40.8927 51.7203C40.4513 51.2527 39.7509 51.9616 40.1908 52.4282C44.2891 56.7728 51.8277 57.1769 54.8907 51.6286C55.2211 51.9646 55.5891 52.2755 55.9135 52.6014C55.7335 52.9238 55.9964 53.4605 56.4726 53.3534C56.4944 53.3489 56.5162 53.3444 56.5375 53.3394C56.6025 53.425 56.671 53.5081 56.737 53.5932C56.6933 53.6388 56.6501 53.6848 56.607 53.7309C56.5301 53.813 56.4979 53.9016 56.4835 53.9912C55.5524 55.3169 54.4706 56.487 53.1378 57.4257C51.5078 58.5737 50.4071 58.1712 49.0758 56.7929C48.8982 56.6091 48.548 56.5891 48.3739 56.7929C48.0326 57.1909 47.6913 57.5894 47.3496 57.9874C46.9136 58.78 46.362 58.9266 45.6943 58.429C44.7122 58.3719 43.5723 57.5574 42.7112 57.1183C40.9423 56.2171 39.292 55.1337 37.7142 53.9261C37.2057 53.5371 36.7107 54.4063 37.2142 54.7908C39.5048 56.544 41.9681 58.0079 44.6412 59.0874C45.2588 59.3367 46.2008 59.941 46.8907 59.7412C47.6918 59.5094 48.0098 58.1747 48.7464 58.0871C49.4195 58.0064 49.9041 59.4443 50.6412 59.6286C51.2161 59.7722 51.8029 59.3712 52.2895 59.1289C54.3654 58.0971 56.049 56.3498 57.3654 54.4553C59.1908 57.1183 60.4061 60.2554 61.3317 63.3083ZM63.1843 88.3845C63.4205 89.159 63.3322 89.2266 62.7136 90.4106C61.9383 91.8936 61.5107 91.839 60.163 91.9642C60.0936 91.2127 60.0251 90.4617 59.9557 89.7107C60.1973 89.5826 60.3366 89.2742 60.161 89.0138C61.171 88.8236 62.1794 88.6148 63.1843 88.3845ZM54.8729 92.4489C53.3536 92.5515 51.8323 92.6231 50.3104 92.6782C50.9905 92.0483 50.7499 90.9584 50.238 90.226C53.1423 90.0603 56.0396 89.7313 58.9206 89.2377C59.0069 90.1804 59.0937 91.1231 59.1805 92.0659C57.7474 92.2256 56.3109 92.3527 54.8729 92.4489ZM49.1447 92.0664C48.55 92.2746 47.6288 92.187 46.9964 92.2251C46.5723 92.2511 46.0182 92.3257 45.614 92.1795C44.8263 91.8947 44.8129 91.2819 45.0212 90.5609C45.043 90.4848 45.0475 90.4142 45.0386 90.3491C46.292 90.3622 47.546 90.3491 48.799 90.3006C48.8813 90.3346 48.9651 90.3667 49.0386 90.4147C49.6988 90.8493 50.0415 91.7525 49.1447 92.0664ZM37.1363 92.7723C36.6969 92.7412 36.2574 92.7017 35.8184 92.6546C35.9052 92.517 35.9409 92.3442 35.8571 92.1595C35.4975 91.364 35.5099 90.5118 35.81 89.7043C38.5515 90.0613 41.3035 90.269 44.056 90.3326C43.7628 91.388 43.9682 92.3137 44.7112 92.8304C42.1869 92.8914 39.6552 92.952 37.1363 92.7723ZM32.0524 91.9822C31.5698 91.855 30.7786 91.7529 30.3669 91.4655C29.2761 90.7045 29.2275 89.5761 29.4661 88.5072C29.5246 88.5808 29.6025 88.6423 29.7226 88.6679C31.4135 89.0258 33.1114 89.3197 34.8133 89.5635C34.48 90.5538 34.5484 91.5842 34.9522 92.5434C33.9755 92.4098 33.0053 92.2325 32.0524 91.9822ZM28.8079 86.7364C28.5758 86.0776 28.1576 85.3972 27.8491 84.872C26.0153 81.7514 23.5976 78.9758 22.1075 75.6515C21.241 73.717 20.7231 71.6268 20.6239 69.5045C20.4766 66.3409 21.4086 64.3923 23.9706 62.577C27.2023 60.287 30.8297 58.5012 34.4964 57.0538C34.5237 57.0428 34.5405 57.0237 34.5644 57.0097C33.3148 59.9776 32.2657 63.0286 31.4418 66.1441C29.6646 72.8644 28.8788 79.7919 28.8079 86.7364ZM68.476 38.9111C68.543 37.6494 69.5583 36.5455 70.9071 36.139C72.0995 35.7795 74.919 35.8791 75.8426 37.1673C73.4026 37.8187 70.9463 38.3999 68.476 38.9111ZM74.7717 49.9831C74.8203 49.942 74.8629 49.8859 74.8962 49.8123C74.9125 49.7773 74.9284 49.7422 74.9443 49.7072C75.0256 49.528 74.9993 49.3612 74.9235 49.2276C75.8148 49.0043 76.7042 48.774 77.5901 48.5347C83.9884 46.8089 89.351 43.1952 94.6863 39.3572C95.0028 39.1289 95.0216 38.5367 94.5678 38.4415C91.2796 37.7536 87.9934 37.0567 84.7037 36.3768C81.8302 35.7831 79.7652 36.0965 76.9363 36.8775C76.9066 36.8855 76.8763 36.893 76.8471 36.901C75.787 34.8459 72.0698 34.5895 70.2077 35.326C68.5693 35.9738 67.4656 37.4978 67.483 39.1134C63.7876 39.8494 60.0634 40.4366 56.3153 40.8697C55.6889 40.9423 55.6814 41.9446 56.3153 41.871C60.1144 41.4324 63.8927 40.8502 67.6412 40.1087C67.7459 40.4451 67.8982 40.7791 68.1159 41.1025C68.4731 41.6327 69.3327 41.132 68.9726 40.5973C68.8183 40.3685 68.7027 40.1372 68.6214 39.9064C70.5594 39.5079 72.4904 39.0709 74.4106 38.5837C75.1238 38.402 75.8148 38.2117 76.4939 38.03C76.6253 38.043 76.7613 38.007 76.8694 37.9294C78.1487 37.5914 79.3927 37.297 80.672 37.1674C80.6605 37.227 80.6556 37.2895 80.667 37.3586L81.9983 45.1723C82.106 45.8061 83.0623 45.5373 82.9547 44.9059C82.5117 42.3056 82.0688 39.7052 81.6258 37.1053C82.5301 37.0768 83.4596 37.1398 84.4398 37.3426C87.3689 37.9479 90.295 38.5667 93.2225 39.181C88.0137 42.8838 82.7707 46.1831 76.4954 47.7857C70.0113 49.4413 63.4309 50.7731 56.8992 52.2345C55.9979 51.2227 55.1621 50.3876 55.0554 48.8516C54.6254 42.639 56.9031 34.4849 52.5778 29.1905C52.5703 29.1805 52.5609 29.173 52.553 29.1635C53.0758 28.3199 53.0941 27.246 52.4354 26.3718C52.0539 25.8657 51.1918 26.3638 51.5783 26.877C51.9265 27.3386 52.0336 27.9143 51.8476 28.41C51.1358 27.7276 50.3392 27.2014 49.5024 26.8389C48.796 25.4556 47.5862 24.3927 45.9428 24.0693C42.5708 23.406 38.0688 27.7686 35.1676 25.8932C34.6284 25.5447 34.1304 26.4109 34.6666 26.7578C36.2846 27.8037 38.2127 27.1268 39.8764 26.4795C42.5321 25.4461 46.3293 24.2305 48.1685 26.4114C47.4096 26.2497 46.6422 26.2236 45.8922 26.3398C45.3005 25.9192 44.5837 25.6929 43.8853 25.5162C43.2658 25.3595 43.0014 26.3248 43.6214 26.4815C43.9141 26.5556 44.2097 26.6337 44.4954 26.7368C44.1368 26.8885 43.7876 27.0747 43.4533 27.3035C43.0639 27.0592 42.5743 26.9356 41.9473 26.9621C38.9012 27.0903 36.6934 29.7492 33.4657 28.7214C32.8556 28.5271 32.5942 29.4934 33.2023 29.6871C34.6993 30.1638 36.0798 30.0136 37.5574 29.5194C38.7643 29.1154 40.986 27.7546 42.4602 28.1546C42.1413 28.4846 41.8367 28.8465 41.5634 29.2686C41.0897 29.9985 40.7087 30.7911 40.3883 31.6161C39.7955 31.4484 39.1596 31.4274 38.4557 31.6247C36.2945 32.2294 34.8481 34.3517 32.4617 34.2301C31.8238 34.1975 31.8253 35.1988 32.4617 35.2314C35.2519 35.3735 37.5411 32.1889 40.0232 32.6415C39.4176 34.545 39.0986 36.5766 38.8422 38.4726C38.2762 42.647 38.361 46.8269 38.9652 50.9859C36.7916 51.9346 35.8218 54.0824 34.8893 56.2232C34.8615 56.2858 34.8372 56.3503 34.8104 56.4134C34.7514 56.1631 34.5376 55.9678 34.233 56.0885C33.1571 56.5126 32.0961 56.9691 31.0475 57.4523C31.2549 57.1409 30.9935 56.5736 30.5044 56.6703C21.5783 58.431 12.7013 60.4206 3.87445 62.632C3.05104 59.5235 2.22813 56.4149 1.40521 53.3064C4.89677 52.5624 8.38834 51.8179 11.8799 51.074C12.0853 54.0539 12.8615 56.8905 14.2152 59.56C14.5064 60.1343 15.363 59.6281 15.0724 59.0549C13.7628 56.473 13.0312 53.7505 12.8571 50.8657C21.0198 49.1259 29.1829 47.3862 37.3456 45.6464C37.9701 45.5132 37.7058 44.548 37.0822 44.6807C24.9409 47.2685 12.8 49.8559 0.659181 52.4438C0.395292 52.4998 0.246483 52.8107 0.312455 53.0596C1.22218 56.4955 2.13239 59.931 3.04211 63.367C3.11205 63.6328 3.3933 63.7815 3.65174 63.7164C12.5694 61.4735 21.5396 59.4614 30.5589 57.6786C28.3595 58.7169 26.2266 59.8924 24.1859 61.2342C21.6388 62.9094 19.8799 64.6246 19.6393 67.8328C19.3844 71.2397 20.3794 74.6862 22.0009 77.6441C22.9399 79.3583 24.0793 80.9478 25.172 82.5635C25.5282 83.0891 28.7539 87.5845 27.6001 87.9149C26.9865 88.0901 27.2474 89.0569 27.8635 88.8807C28.0951 88.8141 28.2727 88.7245 28.424 88.6233C28.2544 89.5105 28.238 90.4487 28.6155 91.2147C29.2514 92.5079 30.9617 92.7472 32.2162 93.0506C33.7683 93.4261 35.3446 93.6424 36.9314 93.7635C36.991 95.0993 36.9136 96.4615 35.8575 97.4273C34.9811 98.2293 33.7831 98.5633 32.6185 98.4601C31.9825 98.4041 31.986 99.4059 32.6185 99.4614C34.0376 99.5866 35.5068 99.113 36.5589 98.1352C37.7955 96.9862 37.9771 95.4167 37.9235 93.8276C40.669 93.9708 43.4399 93.8617 46.171 93.7976C46.7573 93.7836 47.3436 93.769 47.9299 93.7535C47.1983 94.2722 47.4518 95.24 47.5817 96.0445C47.8441 97.6776 48.6293 100.015 46.8357 101.081C46.2861 101.408 46.7841 102.274 47.3362 101.946C48.2534 101.4 48.7429 100.551 48.9165 99.4985C49.0163 98.8917 48.9805 98.2949 48.8922 97.6891C48.8208 97.198 48.1442 94.7964 48.4691 94.5851C48.8109 94.3633 48.7305 93.9302 48.4885 93.737C51.0143 93.6649 53.5415 93.5598 56.0609 93.3645C56.0624 93.3815 56.0569 93.396 56.0599 93.4136C56.6432 96.5647 58.0644 100.124 61.9096 99.6477C62.5346 99.5701 62.5425 98.5678 61.9096 98.6464C58.5936 99.0574 57.5544 95.9654 57.044 93.2864C58.2915 93.1778 59.5361 93.0441 60.7776 92.8779C64.0331 92.4418 65.0128 90.8462 63.9979 87.6651C63.9131 87.4002 63.6581 87.2521 63.3873 87.3156C63.2151 87.3562 63.043 87.3917 62.8704 87.4313C62.8709 87.4303 62.8714 87.4298 62.8714 87.4288C64.5108 80.6755 64.6859 73.6539 63.2573 66.8425C62.5738 63.5807 61.5395 60.3726 60.1264 57.3566C60.0237 57.1369 59.9131 56.9211 59.8049 56.7043C59.8506 56.6943 59.8952 56.6803 59.9359 56.6592C65.9691 58.8696 71.5524 55.1217 74.7717 49.9831Z" fill="#3D3D54"/>
</g>
<path fill-rule="evenodd" clip-rule="evenodd" d="M81.3258 40.8896L54.829 46.436L54.5352 49.8531L81.9966 44.3795L81.3258 40.8896Z" fill="#4BCA81"/>
<path d="M169.723 118.317H144.34L90.5869 117.814L90.0892 49.3408L98.0526 40.2781L93.5732 34.2364L89.0938 17.6216H171.714L169.723 118.317Z" fill="#E1E1E4"/>
<path d="M94.5703 24.6706C102.108 24.835 109.964 25.5541 117.479 24.5308C119.881 24.2037 122.262 23.6983 124.668 23.4119C126.856 23.1516 129.006 23.1602 131.208 23.1602C135.607 23.1602 139.933 23.6637 144.342 23.6637C147.877 23.6637 151.323 23.4119 154.877 23.4119C156.414 23.4119 157.948 23.8563 159.467 23.9154C160.094 23.9398 161.976 23.5933 162.259 24.1671" stroke="#3D3D54" stroke-linecap="round"/>
<path d="M93.8242 32.9776C101.062 32.9033 108.373 32.4663 115.599 31.9707C118.594 31.7653 121.678 31.2155 124.669 31.2155C128.109 31.2155 131.556 30.1464 134.996 30.7679C140.225 31.7124 145.372 31.9707 150.674 31.9707C152.212 31.9707 153.552 31.4672 155.043 31.4672" stroke="#3D3D54" stroke-linecap="round"/>
<path d="M101.539 38.768C107.936 38.768 114.332 38.768 120.729 38.768C124.171 38.768 127.711 39.0075 131.139 38.6282C134.887 38.2135 138.543 37.5093 142.324 37.5093C145.19 37.5093 148.057 37.5093 150.923 37.5093C151.991 37.5093 153.687 37.842 154.684 37.3835C155.688 36.9219 157.52 37.5093 158.638 37.5093C159.845 37.5093 161.053 37.5093 162.26 37.5093" stroke="#3D3D54" stroke-linecap="round"/>
<path d="M88.1016 50.096C97.932 48.7725 107.741 47.5786 117.66 47.5786C120.478 47.5786 123.148 48.0703 125.928 48.3898C129.32 48.7798 132.717 49.0266 136.131 49.2848C137.718 49.4049 139.324 49.3408 140.914 49.3408C142.316 49.3408 143.788 49.6922 145.173 49.5366C148.703 49.1398 152.364 49.0023 155.846 48.3898C157.855 48.0364 159.977 48.6428 162.012 48.5856C163.249 48.5508 164.478 48.3338 165.745 48.3338" stroke="#3D3D54" stroke-linecap="round"/>
<path d="M90.3398 56.6414C98.311 56.411 106.282 55.482 114.258 56.0121C118.458 56.2912 122.639 56.9167 126.839 57.1309C135.286 57.5617 143.863 57.7269 152.305 57.4106C156.606 57.2495 162.359 57.8498 166.241 55.8862" stroke="#3D3D54" stroke-linecap="round"/>
<path d="M90.8359 65.2007C105.452 63.8146 120.157 66.3304 134.759 64.8231C136.86 64.6062 138.871 64.9726 140.967 64.949C142.998 64.9262 145.013 64.6973 147.05 64.6973C149.474 64.6973 151.863 64.949 154.294 64.949" stroke="#3D3D54" stroke-linecap="round"/>
<path d="M89.5938 73.256C98.643 72.9329 107.771 72.0055 116.83 72.6406C122.075 73.0084 127.34 73.4479 132.591 73.7036C136.183 73.8785 139.734 74.0762 143.319 74.3888C146.474 74.6639 149.643 74.4103 152.803 74.5287C155.723 74.6381 159.363 75.4546 162.26 74.6406C163.499 74.2923 165.189 74.263 166.49 74.263" stroke="#3D3D54" stroke-linecap="round"/>
<path d="M89.3438 84.3328C99.6904 84.0057 110.004 83.5409 120.34 84.2768C126.154 84.6907 132.002 84.8362 137.829 84.8362C142.409 84.8362 146.951 84.081 151.544 84.081C156.517 84.081 161.504 84.3328 166.489 84.3328" stroke="#3D3D54" stroke-linecap="round"/>
<path d="M89.0938 96.9198C97.292 96.8597 105.477 96.4639 113.675 96.4163C119.544 96.3822 125.361 95.8339 131.233 96.1086C138.015 96.4258 144.871 95.7063 151.64 96.1785C156.792 96.538 162.039 96.9198 167.235 96.9198" stroke="#3D3D54" stroke-linecap="round"/>
<path d="M110.496 103.465C123.858 102.922 137.133 102.458 150.493 102.458C155.895 102.458 161.363 102.961 166.738 102.961" stroke="#3D3D54" stroke-linecap="round"/>
<path d="M91.0859 104.472C96.0548 104.76 101.133 104.22 106.017 104.22" stroke="#3D3D54" stroke-linecap="round"/>
<path d="M88.1016 112.528C98.8326 110.899 109.653 109.507 120.522 109.507C121.528 109.507 122.456 109.759 123.439 109.759" stroke="#3D3D54" stroke-linecap="round"/>
<path d="M129.906 110.262C140.687 110.995 151.57 110.514 162.382 110.514C163.556 110.514 164.785 110.01 165.99 110.01" stroke="#3D3D54" stroke-linecap="round"/>
</svg>
