<?xml version="1.0" encoding="UTF-8"?>
<svg width="24px" height="25px" viewBox="0 0 24 25" version="1.1" xmlns="http://www.w3.org/2000/svg" xmlns:xlink="http://www.w3.org/1999/xlink">
    <!-- Generator: sketchtool 52.1 (67048) - http://www.bohemiancoding.com/sketch -->
    <title>0D1064E6-6FFD-4CF9-A9CA-D9E62C765C4D</title>
    <desc>Created with sketchtool.</desc>
    <defs>
        <path d="M0.3594375,9.145125 C-1.2440625,15.573375 2.6683125,22.0848281 9.09501563,23.687625 C10.0690313,23.9304844 11.0447344,24.0467344 12.0051094,24.046875 L12.0081563,24.046875 C17.3860781,24.0460313 22.2786563,20.4032812 23.6383125,14.94975 C23.8795313,13.9821094 23.9958281,13.012125 23.9974219,12.05775 L23.9974219,12.019125 C23.9886094,6.64809375 20.3480625,1.76395312 14.9000156,0.40575 C13.9259531,0.16284375 12.9501094,0.046640625 11.9895938,0.046640625 C6.61195313,0.046734375 1.718625,3.69009375 0.3594375,9.145125" id="path-1"></path>
        <linearGradient x1="50.0000209%" y1="-3.67183914e-05%" x2="50.0000209%" y2="100%" id="linearGradient-3">
            <stop stop-color="#F9AA4B" offset="0%"></stop>
            <stop stop-color="#F6931A" offset="100%"></stop>
        </linearGradient>
    </defs>
    <g id="Peeranha" stroke="none" stroke-width="1" fill="none" fill-rule="evenodd">
        <g id="Tip_popup" transform="translate(-53.000000, -204.000000)">
            <g id="Group-4" transform="translate(38.000000, 196.000000)">
                <g id="Group-6" transform="translate(15.000000, 8.000000)">
                    <g id="Group-3" transform="translate(0.000000, 0.000234)">
                        <mask id="mask-2" fill="white">
                            <use xlink:href="#path-1"></use>
                        </mask>
                        <g id="Clip-2"></g>
                        <path d="M0.3594375,9.145125 C-1.2440625,15.573375 2.6683125,22.0848281 9.09501563,23.687625 C10.0690313,23.9304844 11.0447344,24.0467344 12.0051094,24.046875 L12.0081563,24.046875 C17.3860781,24.0460313 22.2786563,20.4032812 23.6383125,14.94975 C23.8795313,13.9821094 23.9958281,13.012125 23.9974219,12.05775 L23.9974219,12.019125 C23.9886094,6.64809375 20.3480625,1.76395312 14.9000156,0.40575 C13.9259531,0.16284375 12.9501094,0.046640625 11.9895938,0.046640625 C6.61195313,0.046734375 1.718625,3.69009375 0.3594375,9.145125" id="Fill-1" fill="url(#linearGradient-3)" mask="url(#mask-2)"></path>
                    </g>
                    <path d="M14.6866781,10.3138359 C14.3154281,11.8010859 12.0241781,11.0454609 11.2809281,10.8602109 L11.9364281,8.23146094 C12.6796781,8.41671094 15.0733031,8.76246094 14.6866781,10.3138359 Z M14.2794281,14.5558359 C13.8725531,16.1908359 11.1196781,15.3069609 10.2271781,15.0853359 L10.9501781,12.1869609 C11.8426781,12.4097109 14.7046781,12.8507109 14.2794281,14.5558359 Z M17.2876781,10.3374609 C17.5265531,8.74071094 16.3107562,7.88233594 14.6484281,7.30971094 L15.1876781,5.14671094 L13.8710531,4.81858594 L13.3460062,6.92458594 C12.9999281,6.83833594 12.6444281,6.75696094 12.2911781,6.67633594 L12.8199281,4.55646094 L11.5040531,4.22833594 L10.9644281,6.39058594 C10.6779281,6.32533594 10.3966781,6.26083594 10.1236781,6.19296094 L10.1251781,6.18621094 L8.30942813,5.73283594 L7.95917813,7.13908594 C7.95917813,7.13908594 8.93605313,7.36296094 8.91542813,7.37683594 C9.44867813,7.50996094 9.54505313,7.86283594 9.52892813,8.14258594 L8.91467813,10.6067109 C8.95142812,10.6160859 8.99905312,10.6295859 9.05155312,10.6505859 C9.00767813,10.6397109 8.96080313,10.6277109 8.91242813,10.6160859 L8.05142813,14.0679609 C7.98617813,14.2299609 7.82080313,14.4729609 7.44805313,14.3807109 C7.46117813,14.3998359 6.49105313,14.1418359 6.49105313,14.1418359 L5.83742813,15.6489609 L7.55080313,16.0760859 C7.86955313,16.1559609 8.18192813,16.2396328 8.48942812,16.3183359 L7.94455313,18.5060859 L9.25967813,18.8342109 L9.79930312,16.6697109 C10.1585531,16.7672109 10.5073031,16.8572109 10.8485531,16.9419609 L10.3108031,19.0963359 L11.6274281,19.4244609 L12.1722562,17.2408359 C14.4174281,17.6657109 16.1056312,17.4943359 16.8163031,15.4637109 C17.3888812,13.8287109 16.7878031,12.8855859 15.6065531,12.2705859 C16.4668031,12.0722109 17.1148031,11.5063359 17.2876312,10.3374609 L17.2876781,10.3374609 Z" id="Fill-4" fill="#FFFFFF"></path>
                </g>
            </g>
        </g>
    </g>
</svg>