<svg id="Layer_1" data-name="Layer 1" xmlns="http://www.w3.org/2000/svg" width="142.55" height="66.29" viewBox="0 0 142.55 66.29"><defs><style>.cls-1{fill:salmon;}.cls-2{fill:#dce4ff;fill-rule:evenodd;}.cls-3{fill:none;stroke:#7699ff;stroke-linecap:round;stroke-linejoin:round;stroke-width:1.5px;}.cls-4{fill:#7699ff;}.cls-5{fill:#e4ebff;}</style></defs><title>Ico_03</title><path class="cls-1" d="M21.46,21.09c3.86,0,3.87-6,0-6s-3.86,6,0,6Z"/><path class="cls-2" d="M51.35,37.12c-2-.72-2.74-2.25-2.81-9.49S47.27,16.3,50.83,15.3s27.4-1.76,30.75-1.54,14.86-1.84,15.73,1.56.38,7.79.38,12.24.55,9.38-1.85,9.72-36.56.14-37.93.2S53.37,37.85,51.35,37.12Z"/><path class="cls-1" d="M134.41,16.08c3.86,0,3.87-6,0-6s-3.86,6,0,6Z"/><path class="cls-3" d="M90.29,58.75h-41c-2,0-5,0-5-8v-45c0-5,4-5,6-5h46c4,0,5.5,1,5.5,5.5v39.5"/><path class="cls-4" d="M44.29,10.63c19.17-.19,38.34-.16,57.5-.63a.75.75,0,0,0,0-1.5c-19.16.47-38.33.44-57.5.63a.75.75,0,0,0,0,1.5Z"/><path class="cls-4" d="M49.88,4.25a1.47,1.47,0,0,0-1,.16,1.11,1.11,0,0,0-.26.07,1.06,1.06,0,0,0-.48,1.27h0a.62.62,0,0,0,.21.39,1.43,1.43,0,0,0,2.15.13A1.18,1.18,0,0,0,49.88,4.25Z"/><path class="cls-4" d="M53.46,4.34l-.14,0a.65.65,0,0,0-.38.12,1.14,1.14,0,0,0-.46,1.41,1.12,1.12,0,0,0,1.44.72A1.19,1.19,0,0,0,53.46,4.34Z"/><path class="cls-4" d="M58.54,4.29a1.31,1.31,0,0,0-1.62.3,1.17,1.17,0,0,0-.17,1.5,1.31,1.31,0,1,0,1.79-1.8Z"/><path class="cls-4" d="M55.26,21.72c-1.74,1.7-2.82,4.91-1,6.93a6.3,6.3,0,0,0,7.83.72,4.82,4.82,0,0,0,1.07-6.81c-2-2.45-5.72-2.52-8.26-.93-.82.52-.07,1.81.75,1.3a5.06,5.06,0,0,1,5.66,0,3.21,3.21,0,0,1-.16,5.28,4.82,4.82,0,0,1-5.27-.12c-1.89-1.29-.92-4,.4-5.28C57,22.1,56,21,55.26,21.72Z"/><path class="cls-4" d="M72.79,20.5c-2.94.33-5.74,2.76-5.39,6,.31,2.95,4.49,4.78,7.14,4.36a5.12,5.12,0,0,0,4-6.4c-.85-3.18-4.14-4.59-7.17-3.91-1,.22-.55,1.66.39,1.45a4.37,4.37,0,0,1,5,2.05,3.66,3.66,0,0,1-2.15,5.26c-1.68.46-5.19-.74-5.7-2.61-.66-2.37,1.75-4.47,3.84-4.7.95-.11,1-1.61,0-1.5Z"/><path class="cls-4" d="M89,20.53a5.54,5.54,0,0,0-6.71,4.74c-.63,3.84,4,6,7.26,5.5,2.92-.42,5.34-3.22,4.54-6.23-1-3.68-5.11-4.53-8.35-3.8-.94.21-.54,1.66.4,1.44,2.21-.49,4.88-.27,6.14,1.92a3.53,3.53,0,0,1-2.26,5c-2,.64-6.14-.38-6.32-3s2.47-4.5,4.9-4.13c1,.15,1.35-1.3.4-1.44Z"/><path class="cls-4" d="M54.28,46.4c2.84-.18,5.68-.22,8.51-.4,1-.06,1-1.56,0-1.5-2.83.18-5.67.22-8.51.4-1,.06-1,1.56,0,1.5Z"/><path class="cls-4" d="M69.38,46.33h7.24a.75.75,0,0,0,0-1.5H69.38a.75.75,0,0,0,0,1.5Z"/><path class="cls-4" d="M83.45,46.39c2.84-.08,5.67-.09,8.51,0a.75.75,0,0,0,0-1.5c-2.84-.05-5.67,0-8.51,0a.75.75,0,0,0,0,1.5Z"/><path class="cls-4" d="M54.12,51.18,57.79,51c1,0,1-1.55,0-1.5l-3.67.18c-1,0-1,1.55,0,1.5Z"/><path class="cls-4" d="M61.46,50.9l21.33-.1a.75.75,0,0,0,0-1.5l-21.33.1a.75.75,0,0,0,0,1.5Z"/><path class="cls-4" d="M87.29,51.31l4,.2c1,.05,1-1.45,0-1.5l-4-.2c-1-.05-1,1.45,0,1.5Z"/><path class="cls-1" d="M110.37,48.08c-3.75-5.83-10.2-2.89-14.28,1.07s-8.1,9.51-4,14.48,9.53,2,13.58-1.54c3.73-3.22,8.66-10.24,4.14-14.76-.69-.68-1.75.38-1.06,1.06,3.6,3.61-.54,9.28-3.25,11.85-3.34,3.16-8.14,6.93-12.19,2.45-5.79-6.38,10.3-22.42,15.81-13.85.52.81,1.82.06,1.29-.76Z"/><path class="cls-1" d="M124.42,43.67c-3.75-5.83-10.21-2.89-14.29,1.07-3.92,3.82-8.09,9.51-4,14.48s9.53,2,13.58-1.54c3.73-3.22,8.65-10.24,4.13-14.76A.75.75,0,0,0,122.75,44c3.61,3.61-.54,9.28-3.25,11.85-3.33,3.16-8.13,6.93-12.19,2.45-5.78-6.38,10.3-22.42,15.81-13.85.52.81,1.82.06,1.3-.76Z"/><path class="cls-5" d="M1.8,33.59c6.63-2.64,14.1,1,20.79-1.46,1.79-.67,1-3.57-.8-2.89C15.14,31.73,7.69,28,1,30.7c-1.77.71-1,3.61.8,2.89Z"/><path class="cls-5" d="M16.8,39.12c5.25-1.3,10.5,1.57,15.74-.26,1.81-.63,1-3.53-.79-2.89-5.13,1.79-10.49-1-15.75.26-1.87.46-1.08,3.35.8,2.89Z"/><path class="cls-5" d="M124.05,6.53c5.16-2.49,11.52,1.2,17.08.48,1.89-.25,1.91-3.25,0-3-6.36.82-12.48-3-18.6-.07-1.74.84-.22,3.42,1.52,2.59Z"/></svg>