<svg id="Layer_1" data-name="Layer 1" xmlns="http://www.w3.org/2000/svg" width="150.29" height="64.45" viewBox="0 0 150.29 64.45"><defs><style>.cls-1{fill:#dce4ff;fill-rule:evenodd;}.cls-2{fill:none;stroke:#7699ff;stroke-miterlimit:10;stroke-width:1.5px;}.cls-3{fill:#7699ff;}.cls-4{fill:salmon;}.cls-5{fill:#e4ebff;}</style></defs><title>Ico_01</title><path class="cls-1" d="M41.2,3.23c-4.44,3.12-8.6,4.45-7.63,17.28s-2.81,17.69.77,22.19S53.52,44.3,62.79,44s32.58,2.76,35.39-.26,3.13-16.72,2.38-23.29S102.81,4,97.21,2.06,73.67-.06,66.06.77,45.65.11,41.2,3.23Z"/><path class="cls-2" d="M46.91,56.62c-5,0-6-4-6-7v-36c0-3,3-5,7-5h53a4.72,4.72,0,0,1,5,5v38c0,2-1,4.5-4.5,4.5S46.91,56.62,46.91,56.62Z"/><path class="cls-3" d="M59.15,58.57l0,0a.76.76,0,0,0,0-1.06l0-.06a.76.76,0,0,0-1.06,0c-.51.51-.3,1.51-.3,2.16q0,1.65,0,3.3a.75.75,0,0,0,1.5,0l0-2.39v-1.1c0-.11.06-1.11-.14-.9H58.08l.05,0V57.48l0,0c-.7.66.36,1.72,1.06,1.06Z"/><path class="cls-3" d="M90.16,57.62c.19,1.71.11,3.42.3,5.12.1.95,1.61,1,1.5,0-.19-1.7-.11-3.41-.3-5.12-.1-.94-1.6-.95-1.5,0Z"/><path class="cls-3" d="M53.91,64.38c14-.42,28,.29,42,0,1,0,1-1.53,0-1.5-14,.29-28-.42-42,0a.75.75,0,0,0,0,1.5Z"/><path class="cls-3" d="M41.4,48.81c21.42.68,42.9.38,64.34.06a.75.75,0,0,0,0-1.5c-21.44.32-42.92.62-64.34-.06a.75.75,0,0,0,0,1.5Z"/><path class="cls-4" d="M76.62,18.91q-3,10.5-6.43,20.9c-.3.92,1.15,1.32,1.45.4Q75,29.82,78.07,19.31a.75.75,0,0,0-1.45-.4Z"/><path class="cls-4" d="M79.51,25.86A21,21,0,0,0,81.83,28c.93.71,2.26,1.19,3.11,2l.86,1.45-.73.47A11.55,11.55,0,0,1,83.26,33l-4,2.6c-.81.53-.06,1.83.76,1.3,1.93-1.27,3.88-2.51,5.81-3.79.83-.56,1.85-1,1.85-2.19s-1.07-1.82-2-2.32a21.64,21.64,0,0,1-5.13-3.84c-.68-.69-1.74.37-1.06,1.06Z"/><path class="cls-4" d="M66,25.59c-2,2.27-5,3.56-7.11,5.74A.77.77,0,0,0,59,32.51a35.26,35.26,0,0,0,7.78,4.54c.88.37,1.65-.92.76-1.3a34.43,34.43,0,0,1-7.78-4.54L60,32.39c2.15-2.19,5.11-3.44,7.11-5.74.63-.73-.42-1.79-1.06-1.06Z"/><path class="cls-4" d="M129.29,57c3.86,0,3.86-6,0-6s-3.87,6,0,6Z"/><path class="cls-4" d="M21.29,6c3.86,0,3.86-6,0-6s-3.87,6,0,6Z"/><path class="cls-5" d="M129.72,44.19c6.08-3.26,13.06,2.4,19.56-.11,1.79-.68,1-3.58-.79-2.89-6.75,2.6-13.54-3.21-20.28.41-1.71.91-.19,3.5,1.51,2.59Z"/><path class="cls-5" d="M2.3,17.21C9.8,14,18.18,18.26,26,16.75c1.89-.37,1.09-3.26-.8-2.89-8.3,1.59-16.33-2.72-24.43.76C-1,15.38.54,18,2.3,17.21Z"/></svg>