<svg id="Layer_1" data-name="Layer 1" xmlns="http://www.w3.org/2000/svg" width="134" height="63.5" viewBox="0 0 134 63.5"><defs><style>.cls-1{fill:salmon;}.cls-2{fill:#e4ebff;}.cls-3{fill:#7699ff;}.cls-4{fill:#fff;}.cls-5{fill:#dce4ff;fill-rule:evenodd;}</style></defs><title>Ico_02</title><path class="cls-1" d="M21.29,24.62c3.86,0,3.86-6,0-6s-3.87,6,0,6Z"/><path class="cls-2" d="M2.3,11.83C9.8,8.61,18.18,12.88,26,11.37c1.89-.36,1.09-3.25-.8-2.89-8.3,1.6-16.33-2.72-24.43.76C-1,10,.54,12.59,2.3,11.83Z"/><path class="cls-3" d="M48.91,42a267,267,0,0,0,32.25-.77c1-.08,1-1.58,0-1.5a267,267,0,0,1-32.25.77c-1,0-1,1.47,0,1.5Z"/><path class="cls-3" d="M49.15,50.18C59.71,50,70.28,50,80.84,49.91a.75.75,0,0,0,0-1.5c-10.56.08-21.13.1-31.69.27a.75.75,0,0,0,0,1.5Z"/><path class="cls-3" d="M49.91,54c10.08-.22,20.17,0,30.26-.4,1,0,1-1.53,0-1.5-10.09.36-20.18.18-30.26.4a.75.75,0,0,0,0,1.5Z"/><path class="cls-3" d="M49.16,46c.92,0,1.83,0,2.75,0s1-1.47,0-1.5-1.83,0-2.75,0-1,1.45,0,1.5Z"/><path class="cls-3" d="M55.91,46q12.89-.11,25.76-.53c1,0,1-1.53,0-1.5q-12.89.41-25.76.53a.75.75,0,0,0,0,1.5Z"/><path class="cls-3" d="M45.4,11.25c15.17.29,30.34-.23,45.51-.25a.75.75,0,0,0,0-1.5c-15.17,0-30.34.54-45.51.25a.75.75,0,0,0,0,1.5Z"/><path class="cls-3" d="M81.91,60h-34c-1.75,0-3.75-.77-3.75-6.75,0-1.13-.06-3.32-.14-6.1-.14-5.32-.36-13.37-.36-21.4,0-7.62.29-15.62.43-19.46,0-1.11.07-1.84.07-2A3.38,3.38,0,0,1,47.91.5L50.45.42c4-.13,12.4-.42,20-.42,5.75,0,10.94.25,14,.4,1.21.06,2.07.1,2.45.1,3.68,0,5.25,1.57,5.25,5.25,0,1.48.09,7.57.27,17.61.12,6.78.23,12.88.23,12.88a.75.75,0,0,1-.74.76.78.78,0,0,1-.76-.74s-.11-6.1-.23-12.87c-.12-7-.27-15.76-.27-17.64,0-2.84-.91-3.75-3.75-3.75-.39,0-1.27,0-2.53-.1-3.09-.15-8.26-.4-14-.4-7.53,0-15.89.28-19.91.42L47.91,2c-1.58,0-2.25.67-2.25,2.25,0,.21,0,1-.07,2.09-.14,3.84-.43,11.82-.43,19.41,0,8,.22,16,.36,21.36.08,2.79.14,5,.14,6.14,0,5.25,1.46,5.25,2.25,5.25h34a.75.75,0,0,1,0,1.5Z"/><ellipse class="cls-4" cx="93.41" cy="56.75" rx="11" ry="6"/><path class="cls-1" d="M93.41,63.5c-5.47,0-11.75-.77-11.75-6.75,0-3.36,3.63-6.75,11.75-6.75,7.14,0,11.75,2.65,11.75,6.75C105.16,59.27,103.63,63.5,93.41,63.5Zm0-12c-6,0-10.25,2.16-10.25,5.25,0,2.6,1.22,5.25,10.25,5.25,6.61,0,10.25-1.86,10.25-5.25C103.66,52.88,98.14,51.5,93.41,51.5Z"/><ellipse class="cls-4" cx="93.41" cy="51.75" rx="11" ry="6"/><path class="cls-1" d="M93.41,58.5c-5.47,0-11.75-.77-11.75-6.75,0-3.36,3.63-6.75,11.75-6.75,7.14,0,11.75,2.65,11.75,6.75C105.16,54.27,103.63,58.5,93.41,58.5Zm0-12c-6,0-10.25,2.16-10.25,5.25,0,2.6,1.22,5.25,10.25,5.25,6.61,0,10.25-1.86,10.25-5.25C103.66,47.88,98.14,46.5,93.41,46.5Z"/><ellipse class="cls-4" cx="93.41" cy="46.75" rx="11" ry="6"/><path class="cls-1" d="M93.41,53.5c-5.47,0-11.75-.77-11.75-6.75,0-3.36,3.63-6.75,11.75-6.75,7.14,0,11.75,2.65,11.75,6.75C105.16,49.27,103.63,53.5,93.41,53.5Zm0-12c-6,0-10.25,2.16-10.25,5.25,0,2.6,1.22,5.25,10.25,5.25,6.61,0,10.25-1.86,10.25-5.25C103.66,42.88,98.14,41.5,93.41,41.5Z"/><ellipse class="cls-4" cx="93.41" cy="41.75" rx="11" ry="6"/><path class="cls-1" d="M93.41,48.5c-5.47,0-11.75-.77-11.75-6.75,0-3.36,3.63-6.75,11.75-6.75,7.14,0,11.75,2.65,11.75,6.75C105.16,44.27,103.63,48.5,93.41,48.5Zm0-12c-6,0-10.25,2.16-10.25,5.25,0,2.6,1.22,5.25,10.25,5.25,6.61,0,10.25-1.86,10.25-5.25C103.66,37.88,98.14,36.5,93.41,36.5Z"/><path class="cls-2" d="M114.43,26.57a11.7,11.7,0,0,1,9.8-.32c1.75.74,3.29-1.84,1.51-2.59a15,15,0,0,0-12.83.32c-1.73.86-.21,3.45,1.52,2.59Z"/><path class="cls-2" d="M120.44,33.48c2.61-.45,4.91.7,7.49.68a10.31,10.31,0,0,0,5.36-1.61c1.64-1,.14-3.6-1.51-2.59-3.85,2.35-8-.1-12.14.63-1.9.33-1.09,3.22.8,2.89Z"/><path class="cls-5" d="M50,33.36c-.78-2.55-1.39-11.24-1.33-13.52s-1.19-5.45,3.76-5.45,26.62-.41,30.24-.57,4.56,1.2,4.74,3.65.5,10.17.12,12.27.71,3.56-3.36,4-23.09,1.1-26.59.91S50.81,35.9,50,33.36Z"/></svg>