<svg width="24" height="25" viewBox="0 0 24 25" fill="none" xmlns="http://www.w3.org/2000/svg">
<path d="M10.2591 10.3744C10.2591 12.0208 8.9244 13.3555 7.27798 13.3555C5.63156 13.3555 4.29688 12.0208 4.29688 10.3744C4.29688 8.728 5.63156 7.39331 7.27798 7.39331C8.9244 7.39331 10.2591 8.728 10.2591 10.3744Z" stroke="white" stroke-width="2"/>
<path d="M20.4183 7.10415C20.4183 8.75057 19.0836 10.0853 17.4372 10.0853C15.7907 10.0853 14.4561 8.75057 14.4561 7.10415C14.4561 5.45773 15.7907 4.12305 17.4372 4.12305C19.0836 4.12305 20.4183 5.45773 20.4183 7.10415Z" fill="#A5BCFF" stroke="white" stroke-width="2"/>
<path d="M22.5904 14.3424C22.5904 14.9893 22.1841 15.7104 21.2451 16.3179C20.3161 16.919 18.9728 17.3235 17.4378 17.3235C15.9028 17.3235 14.5595 16.919 13.6305 16.3179C12.6915 15.7104 12.2852 14.9893 12.2852 14.3424C12.2852 13.6956 12.6915 12.9745 13.6305 12.3669C14.5595 11.7658 15.9028 11.3613 17.4378 11.3613C18.9728 11.3613 20.3161 11.7658 21.2451 12.3669C22.1841 12.9745 22.5904 13.6956 22.5904 14.3424Z" fill="#A5BCFF" stroke="white" stroke-width="2"/>
<path d="M12.4302 17.6129C12.4302 18.2598 12.0239 18.9809 11.0849 19.5884C10.1559 20.1896 8.81261 20.594 7.27762 20.594C5.74262 20.594 4.39931 20.1896 3.47031 19.5884C2.53133 18.9809 2.125 18.2598 2.125 17.6129C2.125 16.9661 2.53133 16.245 3.47031 15.6374C4.39931 15.0363 5.74262 14.6318 7.27762 14.6318C8.81261 14.6318 10.1559 15.0363 11.0849 15.6374C12.0239 16.245 12.4302 16.9661 12.4302 17.6129Z" stroke="white" stroke-width="2"/>
</svg>
