<svg width="24" height="25" viewBox="0 0 24 25" fill="none" xmlns="http://www.w3.org/2000/svg">
<path d="M23 5.62305V16.623C23 17.1535 22.7893 17.6622 22.4142 18.0373C22.0391 18.4123 21.5304 18.623 21 18.623H19V22.623L13 18.623H12" stroke="white" stroke-width="2" stroke-linecap="round" stroke-linejoin="round"/>
<path d="M17 2.62305H3C2.46957 2.62305 1.96086 2.83376 1.58579 3.20883C1.21071 3.58391 1 4.09261 1 4.62305V12.623C1 13.1535 1.21071 13.6622 1.58579 14.0373C1.96086 14.4123 2.46957 14.623 3 14.623H5V19.623L12 14.623H17C17.5304 14.623 18.0391 14.4123 18.4142 14.0373C18.7893 13.6622 19 13.1535 19 12.623V4.62305C19 4.09261 18.7893 3.58391 18.4142 3.20883C18.0391 2.83376 17.5304 2.62305 17 2.62305Z" fill="#A5BCFF" stroke="white" stroke-width="2" stroke-linecap="round" stroke-linejoin="round"/>
</svg>
