<svg width="24" height="25" viewBox="0 0 24 25" fill="none" xmlns="http://www.w3.org/2000/svg">
<path fill-rule="evenodd" clip-rule="evenodd" d="M20.7269 10.1836C21.7985 10.1836 22.6663 11.0514 22.6663 12.123C22.6663 13.1945 21.7975 14.0624 20.7269 14.0624H19.5032C19.3199 14.7722 19.0406 15.4422 18.677 16.058L19.542 16.923C20.2993 17.6803 20.2993 18.9079 19.542 19.6653C18.7846 20.4226 17.557 20.4226 16.7997 19.6653L15.9347 18.8003C15.318 19.1639 14.6489 19.4432 13.9391 19.6265V20.8502C13.9391 21.9218 13.0712 22.7896 11.9997 22.7896C10.9282 22.7896 10.0603 21.9208 10.0603 20.8502V19.6265C9.35046 19.4432 8.6804 19.1639 8.06464 18.8003L7.19967 19.6653C6.44234 20.4226 5.2147 20.4226 4.45737 19.6653C3.70004 18.9079 3.70004 17.6803 4.45737 16.923L5.32234 16.058C4.9587 15.4413 4.67943 14.7722 4.49616 14.0624H3.2724C2.20089 14.0624 1.33301 13.1945 1.33301 12.123C1.33301 11.0514 2.20186 10.1836 3.2724 10.1836H4.49616C4.67943 9.47375 4.9587 8.80466 5.32234 8.18793L4.45737 7.32297C3.70004 6.56563 3.70004 5.338 4.45737 4.58066C5.2147 3.82333 6.44234 3.82333 7.19967 4.58066L8.06464 5.44563C8.68137 5.082 9.35046 4.80272 10.0603 4.61945V3.39569C10.0603 2.32418 10.9282 1.4563 11.9997 1.4563C13.0712 1.4563 13.9391 2.32515 13.9391 3.39569V4.61945C14.6489 4.80272 15.318 5.082 15.9347 5.44563L16.7997 4.58066C17.557 3.82333 18.7846 3.82333 19.542 4.58066C20.2993 5.338 20.2993 6.56563 19.542 7.32297L18.677 8.18793C19.0406 8.80466 19.3199 9.47375 19.5032 10.1836H20.7269ZM11.9997 15.0321C13.6063 15.0321 14.9088 13.7296 14.9088 12.123C14.9088 10.5163 13.6063 9.21387 11.9997 9.21387C10.393 9.21387 9.09058 10.5163 9.09058 12.123C9.09058 13.7296 10.393 15.0321 11.9997 15.0321Z" fill="#A5BCFF" stroke="white" stroke-width="2" stroke-linecap="round" stroke-linejoin="round"/>
</svg>
