<svg width="18" height="19" viewBox="0 0 18 19" fill="none" xmlns="http://www.w3.org/2000/svg">
<path d="M5 7.7C5 6.5799 5 6.01984 5.21799 5.59202C5.40973 5.21569 5.71569 4.90973 6.09202 4.71799C6.51984 4.5 7.0799 4.5 8.2 4.5L11.5 4.5L16 9V14.3C16 15.4201 16 15.9802 15.782 16.408C15.5903 16.7843 15.2843 17.0903 14.908 17.282C14.4802 17.5 13.9201 17.5 12.8 17.5H8.2C7.07989 17.5 6.51984 17.5 6.09202 17.282C5.71569 17.0903 5.40973 16.7843 5.21799 16.408C5 15.9802 5 15.4201 5 14.3V7.7Z" fill="#7699FF" fill-opacity="0.2" stroke="#576FED"/>
<path d="M11.5 4.5L16 9H14.7C13.5799 9 13.0198 9 12.592 8.78201C12.2157 8.59027 11.9097 8.28431 11.718 7.90798C11.5 7.48016 11.5 6.9201 11.5 5.8V4.5Z" fill="#A5BCFF" stroke="#576FED" stroke-linejoin="round"/>
<path d="M11 1.5L5.2 1.5C4.07989 1.5 3.51984 1.5 3.09202 1.71799C2.71569 1.90973 2.40973 2.21569 2.21799 2.59202C2 3.01984 2 3.57989 2 4.7V13.5" stroke="#576FED"/>
</svg>
