<svg width="24" height="25" viewBox="0 0 24 25" fill="none" xmlns="http://www.w3.org/2000/svg">
<circle cx="12" cy="12.123" r="10" fill="#A5BCFF" stroke="white" stroke-width="2"/>
<rect x="10.7948" y="13.5164" width="3.67442" height="7.44186" rx="1.83721" transform="rotate(-45 10.7948 13.5164)" fill="#A5BCFF" stroke="white" stroke-width="2"/>
<mask id="path-3-outside-1_2998_34265" maskUnits="userSpaceOnUse" x="4.34863" y="4.47192" width="13" height="13" fill="black">
<rect fill="white" x="4.34863" y="4.47192" width="13" height="13"/>
<path fill-rule="evenodd" clip-rule="evenodd" d="M10.5347 14.844C12.8466 14.844 14.7207 12.9699 14.7207 10.658C14.7207 8.34608 12.8466 6.47192 10.5347 6.47192C8.22279 6.47192 6.34863 8.34608 6.34863 10.658C6.34863 12.9699 8.22279 14.844 10.5347 14.844ZM10.5347 13.1696C11.9218 13.1696 13.0463 12.0451 13.0463 10.658C13.0463 9.27084 11.9218 8.14634 10.5347 8.14634C9.14755 8.14634 8.02305 9.27084 8.02305 10.658C8.02305 12.0451 9.14755 13.1696 10.5347 13.1696Z"/>
</mask>
<path fill-rule="evenodd" clip-rule="evenodd" d="M10.5347 14.844C12.8466 14.844 14.7207 12.9699 14.7207 10.658C14.7207 8.34608 12.8466 6.47192 10.5347 6.47192C8.22279 6.47192 6.34863 8.34608 6.34863 10.658C6.34863 12.9699 8.22279 14.844 10.5347 14.844ZM10.5347 13.1696C11.9218 13.1696 13.0463 12.0451 13.0463 10.658C13.0463 9.27084 11.9218 8.14634 10.5347 8.14634C9.14755 8.14634 8.02305 9.27084 8.02305 10.658C8.02305 12.0451 9.14755 13.1696 10.5347 13.1696Z" fill="#A5BCFF"/>
<path d="M12.7207 10.658C12.7207 11.8653 11.742 12.844 10.5347 12.844V16.844C13.9511 16.844 16.7207 14.0744 16.7207 10.658H12.7207ZM10.5347 8.47192C11.742 8.47192 12.7207 9.45065 12.7207 10.658H16.7207C16.7207 7.24151 13.9511 4.47192 10.5347 4.47192V8.47192ZM8.34863 10.658C8.34863 9.45065 9.32736 8.47192 10.5347 8.47192V4.47192C7.11822 4.47192 4.34863 7.24151 4.34863 10.658H8.34863ZM10.5347 12.844C9.32736 12.844 8.34863 11.8653 8.34863 10.658H4.34863C4.34863 14.0744 7.11822 16.844 10.5347 16.844V12.844ZM11.0463 10.658C11.0463 10.9405 10.8172 11.1696 10.5347 11.1696V15.1696C13.0264 15.1696 15.0463 13.1497 15.0463 10.658H11.0463ZM10.5347 10.1463C10.8172 10.1463 11.0463 10.3754 11.0463 10.658H15.0463C15.0463 8.16627 13.0264 6.14634 10.5347 6.14634V10.1463ZM10.0231 10.658C10.0231 10.3754 10.2521 10.1463 10.5347 10.1463V6.14634C8.04298 6.14634 6.02305 8.16627 6.02305 10.658H10.0231ZM10.5347 11.1696C10.2521 11.1696 10.0231 10.9405 10.0231 10.658H6.02305C6.02305 13.1497 8.04298 15.1696 10.5347 15.1696V11.1696Z" fill="white" mask="url(#path-3-outside-1_2998_34265)"/>
</svg>
