<svg xmlns="http://www.w3.org/2000/svg" width="18" height="18" viewBox="0 0 18 18">
    <g fill="none" fill-rule="evenodd">
        <path fill="#576FED" d="M10.763 2.715l5.523 5.523c.476.476.714 1.1.714 1.724 0 .366-.092.728-.256 1.064a2.42 2.42 0 0 1-.458.66l-4.6 4.6a2.435 2.435 0 0 1-2.643.536 2.44 2.44 0 0 1-.806-.536l-5.522-5.523a2.422 2.422 0 0 1-.67-1.256A2.439 2.439 0 0 1 2 9.027l.028-5.536c.004-.636.564-1.276 1.192-1.429.089-.022.18-.034.272-.034L9.026 2a2.439 2.439 0 0 1 1.737.715zm4.62 8.58c.849-.85.849-1.936 0-2.787l-4.925-4.934c-.412-.411-.969-.788-1.55-.785l-4.788.026c-.65.003-1.302.657-1.305 1.307l-.026 4.796c-.003.582.374 1.141.784 1.552l4.925 4.934c.85.85 1.934.85 2.783 0l4.101-4.109z"/>
        <path fill="#576FED" fill-opacity=".1" d="M15.586 11.501l-4.099 4.107c-.848.85-1.931.85-2.781 0l-4.922-4.931c-.41-.411-.787-.97-.784-1.552l.025-4.793c.003-.65.655-1.304 1.305-1.307L9.116 3c.58-.003 1.137.373 1.548.784l4.922 4.931c.85.85.85 1.936 0 2.786z"/>
        <path fill="#576FED" d="M5.707 4.293a.999.999 0 1 0-1.414 1.412.999.999 0 0 0 1.414-1.412zM6 8.788l4.723 4.731.787-.788L6.787 8zM8 6.788l4.723 4.732.788-.789L8.787 6z"/>
    </g>
</svg>
