<svg width="117" height="129" viewBox="0 0 117 129" fill="none" xmlns="http://www.w3.org/2000/svg">
<g id="Group 100">
<path id="Path 17" d="M5.69543 105.13C5.69543 109.311 26.9336 127.602 41.4 128.124C55.8664 128.647 113.383 119.763 115.803 116.627C118.222 113.492 115.521 109.311 113.383 109.311C111.244 109.311 17.0945 103.04 13.9644 103.04C10.8342 103.04 5.69543 100.949 5.69543 105.13Z" fill="#DDE5FF"/>
<path id="Fill 1" fill-rule="evenodd" clip-rule="evenodd" d="M90.3968 30.2056C90.3382 30.24 90.2832 30.2815 90.2337 30.3288C90.2342 30.2838 90.2337 30.2396 90.2351 30.1946C90.2882 30.2043 90.3423 30.2074 90.3968 30.2056ZM91.7856 31.7016C91.7906 31.6465 91.7911 31.5899 91.7811 31.5321C91.6711 30.9148 91.6793 30.4234 91.7684 30.0397C92.9981 29.712 93.9174 29.8498 94.524 30.456C94.4995 30.5081 94.4786 30.5647 94.4672 30.6313C94.1564 32.4532 92.9912 32.0982 91.7856 31.7016ZM98.0117 20.1949C97.9299 20.1083 97.8263 20.0443 97.705 20.0218C95.5219 19.6112 93.4184 20.6938 91.8365 22.1161C90.8014 23.0468 88.83 25.2065 89.4517 26.7841C89.4417 26.8071 89.4253 26.8252 89.4181 26.8495C89.3117 27.2005 89.2068 27.6089 89.1132 28.0461C89.0877 27.8858 89.0654 27.7339 89.0536 27.5979C89.015 27.155 88.482 26.698 88.028 27.0261C86.8078 27.9078 85.5441 28.832 84.9138 30.222C84.6552 30.7925 84.5007 31.4014 84.483 32.0271C84.4626 32.73 84.742 33.3795 84.8302 34.0529C84.8343 34.1906 84.842 34.3284 84.8584 34.4675C84.9206 35 85.4614 35.2071 85.8431 35.0547C86.2916 35.2768 87.0037 34.9249 86.8433 34.2984C86.5793 33.2656 86.5252 32.2637 87.5481 31.6773C87.9398 31.4526 88.4597 31.2958 88.8191 30.9969C88.8769 32.6713 89.4122 34.2251 90.9818 34.7951C92.764 35.4429 94.4708 34.6834 95.6205 33.4104C95.8309 33.459 96.0604 33.4206 96.2381 33.2541C96.3753 33.1821 96.494 33.066 96.5639 32.8943C96.6712 32.6315 96.738 32.477 96.7793 32.3529C98.3594 28.979 95.5406 26.4326 92.0328 26.9523C93.0567 25.6749 93.8565 24.6616 95.2956 23.6756C96.4035 22.917 97.615 22.3178 98.5357 21.3376C98.9915 20.8519 98.5221 20.1847 98.0117 20.1949Z" fill="white"/>
<path id="Fill 3" fill-rule="evenodd" clip-rule="evenodd" d="M22.9208 49.6735C22.9002 49.7163 22.8796 49.7587 22.8621 49.7962C22.8177 49.8323 22.7823 49.8747 22.7523 49.9193C22.7241 49.8796 22.6963 49.8399 22.6685 49.8002C22.7604 49.7752 22.8477 49.7364 22.9208 49.6735ZM21.6135 47.5294C21.6758 47.6039 21.7354 47.6793 21.8003 47.7529C21.8639 47.8256 21.9316 47.8782 22.0001 47.9135C21.8734 48.1869 21.7896 48.38 21.7604 48.6004C21.5956 48.3921 21.4293 48.1842 21.2627 47.9772C21.4361 47.8978 21.566 47.7422 21.6135 47.5294ZM24.7825 48.3956C24.7847 48.371 24.7892 48.3456 24.7906 48.3211C24.8125 48.3492 24.8358 48.3768 24.8564 48.4054C24.8322 48.4009 24.8071 48.3982 24.7825 48.3956ZM21.3458 42.9355C20.8341 42.3441 20.0137 43.0658 20.2785 43.6894C20.1737 43.7375 20.0783 43.8103 20.0052 43.9137C19.5487 44.5574 19.0424 44.9762 18.3591 45.3474C17.9541 45.5677 17.9532 46.0829 18.2233 46.3983C19.0603 47.3764 19.8834 48.3658 20.6827 49.3748C21.2181 50.051 21.9623 51.4846 22.7056 52.0069C23.8589 52.8178 24.6354 50.9551 25.354 50.3378C26.2358 49.5799 27.0172 49.2686 26.294 48.0937C25.0861 46.1297 22.853 44.676 21.3458 42.9355Z" fill="white"/>
<path id="Fill 7" fill-rule="evenodd" clip-rule="evenodd" d="M39.3152 56.4928C39.3361 56.4928 39.3931 56.4823 39.4709 56.4662L39.3152 56.4928Z" fill="white"/>
<path id="Fill 9" fill-rule="evenodd" clip-rule="evenodd" d="M5.69543 69.5991L16.0788 60.1508L6.03872 48.9488L34.9903 43.813L52.4972 41.1199L68.5178 40.8171L72.9586 46.4077L76.3173 49.6977L82.794 44.8337L87.428 41.4162L101.88 49.989L112.384 56.721L112.74 57.9764L103.536 66.5124L113.908 77.8533L103.85 79.6456L103.422 115.062L80.6121 118.414L61.2222 120.893L42.1042 124.35L16.1722 109.258L14.6081 106.361L15.5899 76.9356L5.69543 69.5991Z" fill="white"/>
<path id="Fill 11" fill-rule="evenodd" clip-rule="evenodd" d="M4.76954 42.3316C4.763 42.3259 4.75606 42.3223 4.74952 42.317C4.71888 42.2852 4.68498 42.2551 4.64576 42.2277C3.87246 41.6906 2.78584 41.5637 2.02929 42.164C1.37159 42.2414 0.972482 43.3601 0.95124 43.9688C0.909164 45.2012 1.61751 46.1758 2.72088 46.4456C3.68659 46.6814 4.86962 46.2886 5.43336 45.3543C6.0261 44.3714 5.53181 43.0195 4.76954 42.3316Z" fill="#F76F60"/>
<path id="Fill 13" fill-rule="evenodd" clip-rule="evenodd" d="M31.1582 26.6151C31.1078 26.5975 31.0543 26.5848 30.9943 26.583C30.9381 26.5751 30.8881 26.5782 30.8407 26.5857C29.7105 26.6222 28.6617 27.3966 28.4852 28.7638C28.4646 28.9235 28.481 29.1109 28.5441 29.2658C28.5059 30.0794 29.0648 30.8033 29.7327 31.0981C30.5534 31.4607 31.6924 31.4004 32.429 30.8262C33.1706 30.2475 33.4029 29.1483 33.0827 28.2058C32.7599 27.2567 31.9862 26.7762 31.1582 26.6151Z" fill="#F76F60"/>
<path id="Fill 15" fill-rule="evenodd" clip-rule="evenodd" d="M74.4357 55.1713C74.4288 55.1699 74.4228 55.1704 74.4163 55.169C74.3724 55.1568 74.3252 55.1491 74.2747 55.1469C74.2485 55.1459 74.2247 55.1496 74.1989 55.1496C74.1235 55.1089 74.0384 55.08 73.9432 55.0673C73.5999 55.0212 73.2538 55.1157 72.9307 55.2391C72.9226 55.2418 72.9146 55.2458 72.9061 55.249C72.8141 55.2725 72.7318 55.3118 72.6556 55.3629C72.6479 55.3665 72.6399 55.367 72.6322 55.3706C72.5039 55.4235 72.3845 55.4949 72.274 55.5848C72.2635 55.592 72.2546 55.602 72.245 55.6097C71.3337 56.0951 71.0292 57.2688 71.2736 58.3639C71.5346 59.5323 72.5741 59.9169 73.5499 59.7727C74.5805 59.6204 75.595 58.951 75.8745 57.7606C76.1533 56.5742 75.4982 55.4131 74.4357 55.1713Z" fill="#F76F60"/>
<path id="Fill 17" fill-rule="evenodd" clip-rule="evenodd" d="M96.8233 59.0386C96.7172 58.9284 96.5768 58.8584 96.4193 58.8536C96.05 58.8407 95.7066 58.9505 95.3804 59.1364C95.374 59.14 95.3688 59.1457 95.3624 59.1497C95.1092 59.2772 94.8851 59.4211 94.6889 59.6309C94.3152 59.7181 94.0767 60.1551 94.0301 60.6C93.9611 61.2551 93.8925 62.0719 94.243 62.6421C94.5916 63.2091 95.2185 63.4969 95.8147 63.577C96.9947 63.7364 98.4452 63.0108 98.6857 61.6062C98.919 60.244 97.9419 59.2121 96.8233 59.0386Z" fill="#F76F60"/>
<path id="Fill 19" fill-rule="evenodd" clip-rule="evenodd" d="M109.518 31.0781C109.51 31.068 109.501 31.0606 109.493 31.0509C109.472 31.0183 109.449 30.9858 109.421 30.9544C108.666 30.1326 107.551 30.2538 106.696 30.8922C105.813 31.5521 105.297 32.9099 105.372 33.9787C105.396 34.3189 105.658 34.5504 105.95 34.576C105.959 34.596 105.966 34.6167 105.977 34.6362C106.206 35.0488 106.702 35.12 107.134 35.1216C108.045 35.1249 109.302 34.7164 109.812 33.9165C110.36 33.0572 110.092 31.85 109.518 31.0781Z" fill="#F76F60"/>
<path id="Fill 21" fill-rule="evenodd" clip-rule="evenodd" d="M69.0499 42.909C68.726 41.1413 69.7675 38.2495 70.4343 36.5763C70.821 35.606 75.328 31.5245 75.9718 30.6958C79.4147 26.2656 79.9227 24.4662 80.5863 18.9349C81.5092 11.2451 75.7041 5.58273 73.6645 4.00768C71.755 2.53259 68.2327 0.682062 65.8197 0.388944C59.6861 -0.356514 54.0591 -0.356966 49.2055 3.39385C46.8277 5.23081 45.1083 7.75623 43.6049 10.3323C42.0147 13.0568 41.5961 16.709 41.8241 19.8396C42.0479 22.9128 43.0031 26.5524 45.0543 28.8865C47.1059 31.2205 49.3204 32.1962 51.0532 34.7669C52.786 37.3375 53.8205 40.1611 52.8602 43.0949C52.8602 43.0949 58.5431 44.6139 62.1623 44.6139C65.7814 44.6139 68.9207 43.0036 68.9207 43.0036" fill="white"/>
<path id="Fill 23" fill-rule="evenodd" clip-rule="evenodd" d="M71.8976 42.909C71.5737 41.1413 72.6152 38.2495 73.282 36.5763C73.6687 35.606 78.1757 31.5245 78.8195 30.6958C82.2624 26.2656 82.7704 24.4662 83.434 18.9349C84.3569 11.2451 78.5518 5.58273 76.5122 4.00768C74.6027 2.53259 71.0804 0.682062 68.6675 0.388944C62.5338 -0.356514 56.9068 -0.356966 52.0532 3.39385C49.6754 5.23081 47.956 7.75623 46.4526 10.3323C44.8624 13.0568 44.4439 16.709 44.6718 19.8396C44.8956 22.9128 45.8508 26.5524 47.902 28.8865C49.9536 31.2205 52.1681 32.1962 53.9009 34.7669C55.6337 37.3375 56.6683 40.1611 55.708 43.0949C55.708 43.0949 61.3908 44.6139 65.01 44.6139C68.6292 44.6139 71.7684 43.0036 71.7684 43.0036" fill="#7699FF"/>
<path id="Fill 25" fill-rule="evenodd" clip-rule="evenodd" d="M61.2637 25.0661C61.6053 26.3792 61.2543 28.3009 61.2345 29.643C61.1641 34.4843 61.0611 39.3429 61.3706 44.1769C61.4079 44.7574 62.2663 44.7614 62.2289 44.1769C61.8762 38.6711 62.0573 33.1403 62.1212 27.6277C62.132 26.6871 62.2594 25.7042 62.047 24.8199C64.0427 22.7805 65.8196 20.535 68.1493 18.8967C68.6072 18.5747 68.1776 17.7876 67.7158 18.1123C65.4161 19.7297 63.6328 21.9053 61.677 23.931C61.6444 23.8797 61.6118 23.8284 61.5749 23.7784C60.8602 22.811 59.7242 22.1565 58.804 21.462C57.4456 20.4369 56.0868 19.4113 54.7279 18.3857C54.2773 18.046 53.8485 18.8331 54.2949 19.1706C55.4649 20.0531 56.6348 20.9365 57.8048 21.8195C58.8649 22.6193 60.8912 23.6335 61.2637 25.0661Z" fill="#4B4B78"/>
<path id="Fill 27" fill-rule="evenodd" clip-rule="evenodd" d="M53.4367 16.4678C53.1627 16.1158 53.0556 15.7047 53.1495 15.3682C53.2221 15.1096 53.4308 14.8894 53.6777 14.7876C53.6382 15.2121 53.8424 15.6125 54.2122 15.8235C54.4907 15.9819 54.8229 16.0006 55.0797 15.8711C55.3229 15.7483 55.4685 15.5127 55.4785 15.2248C55.4899 14.8906 55.3315 14.569 55.0325 14.3196C54.9971 14.2899 54.9604 14.2621 54.9222 14.236C55.1287 13.994 55.3124 13.8654 55.4821 13.8428C55.6078 13.8258 55.7585 13.8693 55.8923 13.9568C55.8805 13.9929 55.8696 14.0297 55.8601 14.0673C55.7603 14.4677 55.8574 14.8755 56.1201 15.1579C56.3701 15.4268 56.7517 15.5079 57.0475 15.3567C57.2857 15.2351 57.4758 14.9484 57.2952 14.508C57.2072 14.293 57.1033 14.0566 56.9509 13.8345C56.9872 13.7838 57.0284 13.7307 57.0752 13.6745C57.2685 13.4416 57.4699 13.3557 57.518 13.3759C57.5275 13.3799 57.5629 13.3993 57.6292 13.488C57.6768 13.5513 57.7186 13.6186 57.7535 13.6883C57.6587 14.0463 57.734 14.4201 57.9681 14.6934C58.0797 14.8233 58.2708 14.8803 58.45 14.8383C58.6297 14.7959 58.7612 14.6621 58.7826 14.5009C58.818 14.2305 58.7944 13.9576 58.7159 13.6971C58.813 13.549 58.979 13.4072 59.2109 13.2749C59.3769 13.1807 59.5022 13.1351 59.6047 13.1324C59.7463 13.1272 59.9237 13.2088 60.1056 13.3593C60.2005 13.4381 60.2903 13.5327 60.3643 13.6377C60.2549 13.7553 60.1651 13.8816 60.0961 14.0158C59.9849 14.2328 59.9586 14.4364 60.0181 14.6201C60.1242 14.948 60.5026 15.1515 60.862 15.0716C61.117 15.0149 61.3071 14.8375 61.3978 14.5726C61.4822 14.3271 61.4859 14.0847 61.4346 13.8566C61.6869 13.7141 61.9813 13.6179 62.2359 13.5537C62.406 13.5109 62.4718 13.5169 62.4727 13.5101C62.4786 13.5181 62.4927 13.541 62.5131 13.5985C62.5485 13.6963 62.5712 13.7968 62.5821 13.8986C62.5508 13.9295 62.5204 13.9608 62.4909 13.9929C62.1361 14.3774 61.9659 14.9369 62.3856 15.3198C62.4823 15.4077 62.6188 15.4513 62.759 15.4402C62.8983 15.4279 63.0231 15.3602 63.0975 15.2569C63.3198 14.948 63.4514 14.5932 63.4864 14.2312C63.7468 14.038 64.059 13.8951 64.3888 13.8202C64.3589 13.9921 64.2976 14.1588 64.2101 14.3144C63.9573 14.5033 63.7463 14.7346 63.5984 14.9963C63.5036 15.1642 63.5567 15.367 63.7255 15.4826C63.8943 15.5982 64.1325 15.5947 64.2972 15.4747C64.5435 15.2945 64.7527 15.0775 64.9161 14.8371C65.1874 14.6676 65.5163 14.5659 65.8439 14.5647C66.0014 14.5611 66.1234 14.5979 66.1588 14.63C66.1992 14.6668 66.2337 14.7718 66.2087 14.9567C66.2051 14.9832 66.2001 15.0094 66.1942 15.0347C65.9941 15.188 65.8144 15.361 65.6611 15.5511C65.5549 15.6834 65.5513 15.8584 65.6515 15.9938C65.7527 16.1296 65.9365 16.1989 66.1189 16.1677C66.4964 16.1039 66.804 15.8568 66.976 15.5016C67.3226 15.2818 67.7332 15.1377 68.1584 15.0945C68.2632 15.0834 68.3018 15.0894 68.3009 15.0854C68.3072 15.0925 68.3331 15.1254 68.3553 15.2149C68.452 15.5951 68.3276 16.0124 68.0313 16.3035C67.8653 16.4674 67.8821 16.7177 68.0695 16.863C68.2573 17.008 68.5441 16.9925 68.7101 16.8298C69.1961 16.3518 69.3998 15.6675 69.2414 15.0442C69.1666 14.7464 69.0096 14.5334 68.775 14.4102C68.5223 14.2776 68.241 14.2887 68.0527 14.3077C67.7201 14.3417 67.3943 14.4209 67.0871 14.5385C67.0304 14.3231 66.9179 14.1766 66.8122 14.0804C66.6561 13.9394 66.3557 13.7691 65.8403 13.7727C65.6588 13.7735 65.4782 13.7929 65.3022 13.8289C65.3026 13.8273 65.3026 13.8258 65.3031 13.8238C65.363 13.3236 65.0567 13.126 64.9215 13.0643C64.7196 12.9712 64.5177 12.9886 64.3652 13.0136C64.0172 13.0706 63.6792 13.1823 63.3707 13.3383C63.3221 13.2092 63.2373 13.0342 63.0576 12.9039C62.6683 12.6207 62.1533 12.7502 61.9845 12.7926C61.6383 12.8797 61.3307 12.9914 61.0666 13.126C60.9636 12.9977 60.8484 12.8829 60.73 12.7851C60.3656 12.4829 59.9682 12.3297 59.5748 12.3408C59.2131 12.3511 58.911 12.5004 58.715 12.612C58.548 12.7071 58.401 12.8092 58.2744 12.9177C58.1873 12.8255 58.0702 12.7292 57.9141 12.6635C57.4028 12.4457 56.7998 12.6564 56.3401 13.21C56.3297 13.2223 56.3193 13.2349 56.3088 13.2484C56.008 13.0872 55.6677 13.0167 55.3451 13.0599C54.7734 13.1363 54.3964 13.5193 54.1627 13.8008C54.1269 13.8436 54.0897 13.8895 54.0529 13.9382C53.9876 13.935 53.9222 13.935 53.8569 13.939C53.1246 13.9873 52.4562 14.5092 52.2679 15.1804C52.1119 15.7392 52.2643 16.3704 52.6863 16.9125C52.7738 17.0254 52.9168 17.0864 53.062 17.0864C53.1495 17.0864 53.2385 17.0642 53.316 17.0179C53.5234 16.8951 53.5778 16.6488 53.4367 16.4678Z" fill="#4B4B78"/>
<path id="Fill 41" fill-rule="evenodd" clip-rule="evenodd" d="M102.612 114.245C82.7836 117.875 62.5303 118.872 42.8544 123.367C42.3542 108.144 42.0991 92.8172 43.3274 77.6218C44.8168 79.6976 46.4461 81.6616 48.0412 83.6628C49.1271 85.0251 50.054 86.7914 51.2633 88.0342C51.5825 88.3617 51.8403 88.5689 52.2865 88.7243C53.7805 89.2442 55.683 88.8232 57.1946 88.5725C59.1815 88.2427 61.1294 87.735 63.1027 87.3391C71.8271 85.5886 80.6214 84.1656 89.379 82.5903C94.0791 81.7447 98.7743 80.8744 103.473 80.018C102.778 91.4117 102.47 102.831 102.612 114.245ZM19.072 109.91C18.5105 109.574 17.8908 109.267 17.3679 108.873C15.0273 107.112 15.4504 105.324 15.5103 102.902C15.7196 94.3987 16.0174 85.8981 16.3932 77.4006C19.6712 79.4073 23.0227 81.2975 26.2452 83.2022C27.5862 83.9943 28.929 84.786 30.2922 85.54C30.8133 85.8284 31.4484 86.3056 32.0603 86.3842C33.6768 86.5918 35.5062 84.8265 36.6007 83.8806C38.7002 82.065 40.5881 80.0058 42.3976 77.9034C41.2014 92.9218 41.447 108.068 41.9386 123.113C35.9148 119.681 29.8972 116.237 23.9052 112.75C22.29 111.811 20.6753 110.869 19.072 109.91ZM7.65529 70.2467C6.32432 69.2331 6.84137 69.4937 8.05386 68.3147C10.7784 65.6669 13.7586 63.2918 16.5563 60.7221C24.2007 66.1427 32.4167 70.8097 40.5128 75.5271C41.349 76.0141 41.8683 76.3363 42.4058 76.5066C40.2745 79.0191 38.052 81.538 35.4967 83.6363C34.2134 84.6904 32.9515 85.8272 31.3481 85.0921C27.9798 83.5473 24.7963 81.3098 21.645 79.384C19.8633 78.2953 18.0852 77.1967 16.3184 76.0806C16.2771 76.0406 16.2281 76.0092 16.1731 75.9894C13.9915 74.6096 11.8298 73.2001 9.71349 71.7281C9.0194 71.2456 8.32759 70.7585 7.65529 70.2467ZM56.0386 74.7726C63.3208 73.6839 70.6103 72.6397 77.8862 71.5078C86.3909 70.1851 94.8747 68.7324 103.302 66.9868C103.305 66.9864 103.307 66.9841 103.31 66.9837C103.328 67.0295 103.351 67.0758 103.387 67.1194C106.314 70.7036 109.65 73.9305 112.622 77.4747C98.7854 79.8624 84.97 82.4042 71.1587 84.9329C66.8516 85.7219 62.5773 86.6233 58.282 87.4617C56.9057 87.7304 55.4948 88.0071 54.0867 88.0143C52.0276 88.0251 51.5582 86.798 50.4174 85.2641C48.2439 82.3435 45.8139 79.6243 43.7308 76.6395C44.0145 76.621 44.3354 76.582 44.7145 76.5208C48.4854 75.9134 52.2613 75.3373 56.0386 74.7726ZM68.7581 51.1049C69.1103 48.4706 68.9351 45.6403 68.7585 43.4239C68.8371 43.3529 68.8834 43.245 68.8675 43.1004C68.843 42.8739 68.8293 42.652 68.8212 42.4327C70.755 45.1326 72.9612 47.6016 75.4352 49.8311C74.6912 49.9834 73.8645 50.28 73.2898 50.3829C71.7841 50.6525 70.2724 50.8852 68.7581 51.1049ZM63.1148 57.7574C59.771 58.643 56.1553 57.3215 54.5043 54.3237C54.2165 53.7998 53.9927 53.2445 53.8152 52.6689C57.9198 55.5993 63.0576 55.5683 67.4559 53.1317C66.7967 55.3365 65.5107 57.1225 63.1148 57.7574ZM46.406 30.1499C44.6002 28.4834 43.4404 26.5064 42.7763 24.1542C40.2837 15.3315 44.6892 4.48365 54.031 1.68846C61.2837 -0.481737 69.9118 1.32047 74.9743 7.01509C80.0221 12.6935 80.8465 21.2961 76.8736 27.8346C73.7513 32.9734 67.3539 36.0507 67.9413 42.8651C63.4145 45.3412 57.7515 44.3433 53.0196 42.9967C53.7291 39.7922 52.6101 36.6699 50.5951 34.0881C49.4025 32.5605 47.8205 31.4551 46.406 30.1499ZM68.0584 46.6469C68.0789 47.2095 68.0875 47.7855 68.0793 48.3656C63.553 51.3989 57.9418 51.3688 53.3401 48.4689C53.292 48.4388 53.2439 48.4213 53.1972 48.41C53.1704 47.6543 53.1695 46.8985 53.1735 46.1554C57.7688 48.5947 63.2793 48.6387 68.0584 46.6469ZM67.8892 43.8996C67.9337 44.4626 67.9786 45.0651 68.014 45.6951C63.2816 47.7979 57.6994 47.7174 53.179 45.1312C53.18 44.738 53.1795 44.3507 53.1736 43.9724C57.8801 45.2745 63.3638 46.1053 67.8892 43.8996ZM53.475 51.2704C53.3683 50.6787 53.2998 50.0726 53.2544 49.4615C57.8747 52.1956 63.4705 52.2607 68.0426 49.4552C67.9963 50.2887 67.9042 51.1159 67.7507 51.9112C63.2131 54.7665 57.6668 54.8955 53.4982 51.2835C53.4909 51.2767 53.4823 51.2758 53.475 51.2704ZM113.789 77.4635C110.74 73.7297 107.244 70.3854 104.181 66.6642C105.614 64.8404 107.458 63.3217 109.182 61.7819C110.328 60.7584 112.107 59.5987 112.799 58.1865C113.603 56.5465 110.469 55.2641 109.366 54.547C102.682 50.2013 95.7935 46.1269 88.8826 42.1446C88.5099 41.9298 87.8753 41.3843 87.4355 41.3205C86.5611 41.1943 85.567 42.1751 84.8893 42.6694C81.9391 44.8221 79.4773 47.5431 76.2965 49.3911C73.4775 46.8844 71.003 44.0766 68.8895 40.9535C69.2821 38.0275 71.141 35.732 73.2791 33.6022C75.4208 31.4698 77.3932 29.2421 78.6298 26.4473C81.4706 20.0266 80.6671 12.5639 76.237 7.11103C71.5923 1.39304 64.5012 -0.597874 57.2789 0.151134C49.1355 0.995398 42.3177 7.91935 41.2882 15.9549C40.7393 20.2373 41.3671 25.3159 44.0005 28.8822C45.3946 30.7697 47.4232 31.9914 49.0316 33.6665C50.9531 35.6677 52.305 38.2787 52.3227 41.0011C48.7488 41.5874 45.1685 42.1343 41.5859 42.6671C41.0103 42.753 41.255 43.6188 41.8274 43.5334C45.3156 43.0149 48.8014 42.4816 52.2818 41.9127C52.2378 42.3293 52.1624 42.7471 52.0499 43.1654C51.9772 43.4337 52.1425 43.6246 52.349 43.6925C52.3 43.7599 52.2637 43.8403 52.2655 43.9472C52.3218 47.2663 52.0617 50.8568 53.3509 53.949C49.5559 54.5529 45.7786 55.2623 41.9832 55.8653C41.408 55.957 41.6518 56.8228 42.2247 56.7321C46.0387 56.1259 49.8342 55.4124 53.6487 54.8058C53.6859 54.8005 53.7104 54.7834 53.7408 54.7712C53.9219 55.1136 54.1185 55.4515 54.3477 55.7777C56.1572 58.3554 59.5486 59.2294 62.5969 58.771C66.3642 58.204 67.9848 55.3652 68.6126 52.0295C70.0012 51.83 71.388 51.6211 72.7707 51.3825C73.7658 51.2113 75.1049 50.6748 76.1118 50.7431C76.4817 55.2345 76.5612 59.7932 76.4123 64.2927C76.3932 64.8714 77.3011 64.8705 77.3202 64.2927C77.4654 59.8925 77.3923 55.4362 77.0433 51.0406C77.6901 51.3722 78.3493 51.906 78.9244 52.2798C83.2292 55.0759 87.5508 57.8464 91.9186 60.5449C92.4157 60.8523 92.8719 60.075 92.3767 59.769C87.7378 56.9028 83.1538 53.953 78.5821 50.984C78.1364 50.6942 77.613 50.2404 77.0768 49.9685C79.8328 48.2926 82.068 46.006 84.5924 44.02C84.8843 43.7904 86.6451 42.1999 87.1204 42.176C87.3179 42.1666 87.6629 42.5189 87.849 42.5894C88.4754 42.828 89.0815 43.2998 89.6612 43.6377C93.7848 46.0402 97.8821 48.4894 101.954 50.9759C103.953 52.1962 105.946 53.4251 107.919 54.6863C108.887 55.305 111.213 56.2814 111.796 57.3027C112.152 57.925 111.781 58.0764 111.178 58.709C110.354 59.5731 109.431 60.3513 108.54 61.1466C106.761 62.7358 104.903 64.2985 103.424 66.1762C103.419 66.1735 103.416 66.1686 103.41 66.1659C101.369 65.1006 99.372 63.9606 97.3878 62.7965C96.8839 62.5004 96.4268 63.2772 96.9293 63.572C98.5599 64.5286 100.2 65.4663 101.865 66.3622C84.0191 69.9954 65.9424 72.2891 47.9544 75.1023C46.2598 75.367 43.9338 76.2076 42.3572 75.5579C41.4334 75.1773 40.5441 74.5025 39.6826 73.9992C37.3302 72.6257 34.9824 71.244 32.6441 69.8471C27.598 66.8331 22.5334 63.7993 17.7134 60.4349C24.6842 59.3597 31.669 58.3792 38.638 57.2937C39.2132 57.2038 38.9689 56.338 38.3965 56.427C31.1279 57.5592 23.8416 58.5747 16.5726 59.7052C13.6673 56.1187 10.2387 52.9933 7.29891 49.4374C10.4575 48.6884 13.6328 48.0122 16.8214 47.4002C17.3942 47.2906 17.1518 46.4243 16.5799 46.534C13.1594 47.19 9.75295 47.9174 6.36742 48.7325C6.00381 48.8201 5.96749 49.2339 6.16723 49.4837C9.16645 53.2386 12.7631 56.4679 15.8031 60.1873C12.4816 63.2283 8.92949 66.0221 5.82677 69.2922C5.66743 69.4594 5.63656 69.764 5.82677 69.9275C8.79648 72.4792 12.1021 74.7375 15.5081 76.8555C15.0932 86.1249 14.7287 95.4033 14.5593 104.681C14.5089 107.469 15.1159 108.548 17.4487 109.982C18.9317 110.895 20.4389 111.77 21.9423 112.649C28.663 116.578 35.4236 120.441 42.1892 124.293C42.2896 124.35 42.3853 124.357 42.4748 124.343C42.5206 124.346 42.566 124.351 42.6178 124.339C62.5537 119.725 83.0939 118.763 103.19 115.052C103.419 115.01 103.513 114.846 103.513 114.671C103.515 114.653 103.524 114.638 103.523 114.619C103.369 103.025 103.681 91.4246 104.39 79.8516C107.454 79.2944 110.52 78.7431 113.589 78.2147C113.96 78.1505 113.98 77.6976 113.789 77.4635Z" fill="#4B4B78"/>
<path id="Fill 43" fill-rule="evenodd" clip-rule="evenodd" d="M25.957 44.365C25.3831 44.4926 25.6268 45.6808 26.198 45.5538C30.3227 44.6362 34.4557 43.7931 38.5908 42.9629C39.1652 42.8477 38.9211 41.6595 38.3499 41.7741C34.2147 42.6043 30.0818 43.4473 25.957 44.365Z" fill="#4B4B78"/>
<path id="Fill 45" fill-rule="evenodd" clip-rule="evenodd" d="M69.2781 96.2846C69.4213 95.8709 68.5502 95.6945 68.407 96.1083C68.0179 97.2295 66.2291 97.4424 65.2898 96.5535C64.9342 96.2167 64.2984 96.6891 64.6509 97.0223C66.019 98.3166 68.7377 97.8439 69.2781 96.2846Z" fill="#4B4B78"/>
<path id="Fill 47" fill-rule="evenodd" clip-rule="evenodd" d="M82.6451 92.3115C82.2565 93.4324 80.4678 93.6456 79.5285 92.7568C79.1725 92.4199 78.5373 92.892 78.8892 93.2255C80.2573 94.5198 82.9758 94.0467 83.5166 92.4879C83.6599 92.0742 82.7883 91.8974 82.6451 92.3115Z" fill="#4B4B78"/>
<path id="Fill 49" fill-rule="evenodd" clip-rule="evenodd" d="M81.7647 99.8396C78.5925 103.898 72.6311 104.824 68.0239 102.077C67.564 101.802 67.1334 102.461 67.5902 102.734C72.6169 105.731 79.0713 104.619 82.5069 100.223C82.8224 99.8198 82.0776 99.439 81.7647 99.8396Z" fill="#4B4B78"/>
<path id="Fill 51" fill-rule="evenodd" clip-rule="evenodd" d="M115.493 43.6923C115.633 43.0997 115.145 42.6863 114.604 42.7766C113.759 42.9181 112.911 43.0248 112.056 43.0818C111.791 43.0992 110.219 43.2987 109.958 43.2387C109.905 43.1861 109.855 43.132 109.81 43.0719C109.689 42.9141 109.532 42.8471 109.371 42.8426C108.878 42.4967 108.02 42.8908 108.251 43.6273C108.523 44.4974 108.741 45.3739 108.86 46.2817C108.954 46.999 109.259 48.5411 108.863 49.1744C108.481 49.7839 109.254 50.6188 109.851 50.1934C111.113 49.295 113.622 49.6583 115.08 49.7641C115.434 49.7894 115.852 49.3997 115.802 49.0195C115.584 47.3126 115.094 45.3973 115.493 43.6923Z" fill="#B9FABA"/>
<path id="Fill 53" fill-rule="evenodd" clip-rule="evenodd" d="M12.8316 33.7444C12.8174 33.7076 12.7988 33.6711 12.7778 33.6352C12.9321 33.551 13.065 33.4271 13.1322 33.2651C14.0228 31.131 15.2239 32.0178 16.1879 30.7208C16.2946 30.5775 16.3641 30.4304 16.4108 30.2806C16.457 31.406 16.0203 32.188 15.0649 33.2769C14.742 33.6456 14.481 33.9333 14.28 34.2966C13.8628 34.1787 13.4465 34.1796 13.0307 34.2916C12.9707 34.1123 12.905 33.9315 12.8316 33.7444ZM20.8911 30.1539C19.5037 29.1032 19.2046 28.4054 18.5245 26.9268C17.7773 25.3026 16.5609 24.1345 14.7253 23.7485C14.3586 23.6715 13.9395 23.8513 13.8466 24.2251C13.4656 25.7569 14.5986 27.2783 15.3745 28.6225C15.2702 28.6671 15.1659 28.7122 15.0616 28.7568C14.49 28.831 13.8799 29.1615 13.4832 29.4774C13.4142 29.533 13.3646 29.5912 13.326 29.6513C11.8244 29.7178 10.8909 31.5373 10.5627 32.796C10.1531 34.3674 10.7909 35.9247 12.3606 36.5793C12.4373 36.6112 12.5135 36.6317 12.5873 36.6426C13.4127 37.4943 14.9468 36.71 15.8003 36.1979C17.2472 35.3302 18.1602 33.9705 18.5907 32.4264C18.605 32.3981 18.625 32.3777 18.6369 32.3458C18.7184 32.1259 18.7793 31.9183 18.8317 31.713C19.7871 32.6007 21.0083 33.614 22.0003 33.2885C22.8295 33.0168 22.9395 32.2302 22.6066 31.5614C22.2832 30.9105 21.4531 30.5795 20.8911 30.1539Z" fill="#B9FABA"/>
<path id="Fill 55" fill-rule="evenodd" clip-rule="evenodd" d="M47.9766 61.5576C47.0133 60.326 45.9015 59.2915 44.3854 58.6757C44.2144 58.6064 44.0426 58.6475 43.8988 58.7433C43.8042 58.6874 43.7074 58.6367 43.6088 58.5926C43.672 58.4518 43.6941 58.289 43.6647 58.1348C43.4805 57.1795 43.2502 56.2515 42.967 55.3214C42.8353 54.887 42.3081 54.7718 41.9789 54.9537C41.4522 54.1231 40.7473 53.4926 39.8065 53.5195C39.6577 53.2908 39.3843 53.1215 39.0931 53.1635C38.2965 53.2787 37.7416 53.4593 37.2892 53.9382C36.8708 53.8733 36.406 54.2669 36.5544 54.745C36.9198 55.922 37.6418 55.4301 38.5928 55.5851C39.795 55.7817 39.8581 57.1752 40.4923 57.8083C39.0807 58.0539 37.6909 58.6051 36.9079 59.6752C36.1049 60.7729 35.7198 62.7389 36.4861 63.9393C37.2674 65.1639 39.6014 65.9677 40.9294 65.3813C41.5994 65.0851 41.9026 64.5226 42.3235 63.9597C42.8442 63.2629 43.5291 62.7917 43.8187 61.9633C43.895 61.7464 43.8046 61.4896 43.6545 61.3315C43.2677 60.924 42.9005 60.8405 42.3717 61.0111C41.123 61.4138 41.0126 62.8524 40.0492 63.1733C39.9831 63.117 39.9051 63.0689 39.8057 63.0373C39.5003 62.7545 39.1946 62.4722 38.8884 62.189C38.8875 62.1864 38.885 62.1833 38.8837 62.1803C39.0568 61.6338 39.244 61.0934 39.4504 60.5573C40.1494 60.2515 40.8957 60.0056 41.6309 59.9302C41.6787 60.1355 41.8177 60.3122 42.0668 60.3624C42.1521 60.3797 42.2344 60.3988 42.3167 60.4174C42.3734 60.4399 42.4301 60.4624 42.4868 60.4849C42.793 60.6837 43.1393 60.8188 43.4131 60.8574C43.5082 60.8708 43.5961 60.8664 43.6775 60.8509C44.7334 61.3159 45.5202 62.0491 46.1936 63.2819C46.8529 64.4897 47.0623 65.9447 47.711 67.1209C47.8879 67.4422 48.1208 67.7262 48.3895 67.899C48.5255 68.1705 48.7681 68.3516 49.1955 68.3446C50.3644 68.3264 50.355 66.4661 50.2825 65.6949C50.1205 63.9718 49.2266 62.5977 47.9766 61.5576Z" fill="#B9FABA"/>
<path id="Fill 57" fill-rule="evenodd" clip-rule="evenodd" d="M38.9251 38.0775C38.9499 38.01 38.9757 37.9435 38.9983 37.8752C39.0493 37.9116 39.1003 37.9458 39.1518 37.9813C39.0737 38.0109 38.9979 38.0424 38.9251 38.0775ZM43.9745 38.307C42.1326 38.1744 40.5069 37.4941 39.0921 36.2534C38.7447 35.9485 38.1069 36.0096 37.9992 36.5546C37.6247 38.4483 36.4999 39.8795 35.3049 41.2971C34.9674 41.6971 35.1157 42.2635 35.5935 42.4394C36.6764 42.8381 37.7681 43.1858 38.8798 43.4851C38.977 43.5111 39.0664 43.5143 39.1488 43.5015C39.8071 43.7736 40.6111 43.9248 40.8761 44.2971C41.1765 44.7195 41.9517 44.7705 42.0711 44.134C42.3946 42.4107 42.8349 40.6195 44.3046 39.581C44.8517 39.1942 44.6315 38.3544 43.9745 38.307Z" fill="#FEF0A9"/>
<path id="Fill 59" fill-rule="evenodd" clip-rule="evenodd" d="M81.9554 67.0354C81.8841 66.9677 81.8176 66.8996 81.7507 66.832C81.6975 66.7382 81.62 66.6564 81.5274 66.5941C81.4899 66.5525 81.451 66.511 81.4153 66.4694C81.4377 66.3085 81.412 66.1405 81.3222 65.9746C81.1779 65.7067 80.9798 65.5528 80.7514 65.4684C80.5747 65.0996 80.4512 64.7008 80.3894 64.2494C80.2926 63.5424 79.2439 63.3076 78.9898 64.0734C78.6739 65.0271 75.5658 65.4224 74.7218 65.429C73.9058 65.4348 73.828 66.3823 74.4592 66.6905C74.5081 66.8178 74.6126 66.9323 74.794 67.008C75.1203 67.145 75.4471 67.2808 75.7482 67.4417C75.7553 67.5836 75.8147 67.7079 75.9092 67.8078C75.895 67.9325 75.9225 68.0696 76.0132 68.211C76.5247 69.0105 76.919 69.8302 77.2125 70.7211C77.4324 71.3897 78.3338 71.3079 78.586 70.7211C79.2154 69.2589 82.171 69.6507 82.5519 68.2168C82.6963 67.676 82.3173 67.378 81.9554 67.0354Z" fill="#FEF0A9"/>
<path id="Fill 61" fill-rule="evenodd" clip-rule="evenodd" d="M15.4817 31.9684C15.4441 32.1307 15.3843 32.3167 15.2953 32.543C14.9498 33.4161 13.5329 34.9149 12.9328 33.8688C12.5213 33.1517 14.456 32.2687 15.4817 31.9684ZM12.2804 36.8166C8.24289 34.9086 11.5151 29.9103 14.7793 29.3563C15.0685 29.8099 15.294 30.2948 15.3679 30.8569C15.3954 30.9326 15.4198 31.003 15.4419 31.0716C13.9338 31.4889 11.0425 33.0195 12.5125 34.6688C13.3323 35.5894 14.588 34.7509 15.2112 34.0526C15.8795 33.3036 16.2352 32.4588 16.295 31.578C16.3503 31.449 16.3556 31.3046 16.3069 31.185C16.2865 30.6207 16.1488 30.0456 15.8791 29.4737C15.6018 28.8862 15.1903 28.4155 14.7957 27.9091C14.1477 27.0777 12.5099 24.1729 14.7802 24.8609C16.8783 25.4964 18.0644 28.8377 18.098 30.7301C18.1463 33.4152 15.546 38.3602 12.2804 36.8166ZM13.488 23.8297C12.1832 24.2779 12.5096 25.7507 12.9685 26.7551C13.2745 27.4243 13.7604 27.9957 14.2179 28.5793C10.6392 29.5555 7.46138 34.2199 11.1078 37.1072C14.7264 39.973 18.6585 35.0701 18.9539 31.5316C19.151 29.1749 18.3994 27.2253 16.8935 25.501C16.1136 24.6087 14.8234 23.3712 13.488 23.8297Z" fill="#4B4B78"/>
<path id="Fill 63" fill-rule="evenodd" clip-rule="evenodd" d="M41.6574 59.8326C41.5865 59.9911 41.5137 60.1487 41.463 60.2425C40.2465 62.5027 38.8449 60.9043 40.0191 60.0694C40.4264 59.7797 41.0689 59.762 41.6574 59.8326ZM50.7822 67.0139C49.6667 68.0492 48.9433 67.2243 48.7418 66.0213C48.5516 64.8817 48.1664 63.8313 47.6202 62.775C46.4276 60.4684 42.1031 57.4398 39.4343 59.3643C38.5348 60.0129 38.0294 61.3894 39.0567 62.1574C40.6964 63.3836 42.035 61.2027 42.5888 60.0143C42.7372 60.0539 42.8589 60.0913 42.9387 60.1177C43.3755 60.2648 43.8058 60.4379 44.2149 60.6447C43.3107 62.5837 41.9368 64.525 39.5428 64.5788C36.8087 64.6398 35.7011 62.4758 36.2253 60.1578C36.9726 56.8513 41.0045 57.0057 43.6912 57.6047C43.8114 57.6316 43.9274 57.6648 44.0448 57.6963C44.082 57.7109 44.1195 57.7191 44.159 57.7254C47.1308 58.5535 49.1988 60.7499 50.6211 63.3986C51.1068 64.3019 51.7512 66.1147 50.7822 67.0139ZM39.9973 54.5522C38.9691 53.7724 38.1669 54.6688 37.0702 54.3445C35.7527 53.955 36.6733 52.6997 37.4901 52.3945C38.3214 52.0838 39.313 52.0811 40.1565 52.338C41.9381 52.8805 43.4604 54.8646 43.7319 56.7057C43.1697 56.5696 42.5896 56.4684 41.9907 56.411C41.5623 56.3696 41.1387 56.3587 40.7244 56.3741C40.7239 55.6859 40.5887 55.0004 39.9973 54.5522ZM44.7106 56.9901C44.5171 53.3084 40.427 50.0202 36.7229 51.7187C35.7568 52.1614 35.1701 53.292 35.5891 54.3246C36.0794 55.5344 37.6905 55.2866 38.9624 55.1918C39.5331 55.149 39.7948 55.7111 39.7858 56.4581C36.7422 56.9072 34.4895 58.9961 35.2819 62.5403C35.7187 64.4926 37.5585 65.5807 39.5806 65.5689C42.2297 65.5534 44.0216 63.2468 45.0183 61.1205C45.3921 61.3802 45.7346 61.6813 46.0286 62.0334C46.9675 63.1552 47.4588 64.5978 47.7777 65.9925C47.9365 66.6858 47.945 67.41 48.5377 67.911C49.3357 68.5856 50.5433 68.4212 51.2991 67.7799C52.532 66.7331 52.3329 64.8469 51.7453 63.5237C50.3414 60.3649 47.8712 58.0478 44.7106 56.9901Z" fill="#4B4B78"/>
<path id="Fill 65" fill-rule="evenodd" clip-rule="evenodd" d="M92.7149 31.1292C93.0681 30.9388 94.2013 30.4129 94.4911 31.3287C94.7177 32.0446 93.7807 32.6882 93.2769 32.2394C92.9589 31.9558 92.7945 31.5525 92.7149 31.1292ZM93.4762 27.6061C96.2551 27.5088 98.8605 30.1204 96.9577 33.1961C95.5987 35.3926 92.4309 36.6747 90.9649 34.0384C89.3788 31.1849 90.0139 25.6472 91.9641 23.2222C92.7154 22.2874 93.6368 21.4214 94.6373 20.8238C95.0684 20.5664 95.5182 20.3707 95.9915 20.2282C96.2965 20.126 96.6071 20.0562 96.9242 20.0192C97.8395 19.7199 99.5778 20.4457 98.3859 21.8751C97.9261 22.4261 96.3922 22.9519 95.905 23.2735C95.051 23.8374 94.2227 24.4601 93.5415 25.2539C92.3421 26.6509 91.9128 28.2754 91.8993 30.1613C91.891 31.345 92.1207 33.2926 93.5746 33.3197C94.3902 33.3353 95.3172 32.5843 95.289 31.7245C95.2059 29.2217 93.0186 30.0074 92.6528 30.1565C92.6671 29.7551 92.7167 29.4112 92.7332 29.2307C92.7911 28.5947 92.9433 28.0161 93.1691 27.475C93.2392 27.5567 93.3401 27.6109 93.4762 27.6061ZM87.7201 32.4721C87.339 33.1713 87.4899 33.6729 87.5674 34.366C87.6448 35.0595 87.8754 35.9297 86.9327 35.9098C86.4237 35.8993 85.3923 35.0391 85.374 33.4953C85.3557 31.9514 85.5176 31.7719 85.8878 30.9691C86.5481 29.5365 87.8876 28.4791 89.21 27.8126C89.0882 28.9617 89.0986 30.2162 89.2683 31.4066C88.6014 31.5705 88.0864 31.8004 87.7201 32.4721ZM98.355 23.0507C99.5996 22.3182 100.257 20.6912 98.9706 19.5569C97.7177 18.4525 95.6653 19.1641 94.399 19.8747C92.3909 21.001 90.5734 23.0682 89.7395 25.3535C89.5929 25.7554 89.4715 26.2124 89.3754 26.7035C86.3398 28.064 83.2603 31.6304 84.9734 35.4947C85.4463 36.5621 86.6347 37.3805 87.7253 36.8585C89.7843 35.8719 87.0793 33.0218 89.4389 32.3411C90.0862 35.223 91.7919 37.3838 94.9962 36.0153C96.879 35.2106 98.72 33.1581 98.5247 30.821C98.2898 28.0108 95.9376 26.6185 93.585 26.656C93.8169 26.2722 94.087 25.9041 94.3981 25.5493C95.6288 24.1441 96.8781 23.9204 98.355 23.0507Z" fill="#4B4B78"/>
<path id="Fill 67" fill-rule="evenodd" clip-rule="evenodd" d="M22.0866 42.8373C21.6701 42.4488 21.0478 43.0813 21.4661 43.472C23.2434 45.1309 24.8518 47.0051 26.4848 48.8156C25.4241 49.8976 24.3638 50.9791 23.3031 52.0611C21.574 50.112 19.8454 48.1625 18.1163 46.2134C18.9339 45.3162 19.7519 44.4186 20.5664 43.5182C20.9495 43.0948 20.3303 42.4591 19.9459 42.8839C19.0366 43.8888 18.1238 44.8909 17.211 45.8922C17.0433 46.0756 17.0468 46.3416 17.211 46.5265L22.977 53.0278C23.1368 53.2077 23.4365 53.1929 23.598 53.0278C24.8663 51.7341 26.1346 50.4404 27.4028 49.1467C27.5753 48.9708 27.5643 48.69 27.4028 48.5124C25.6667 46.6014 23.9715 44.5971 22.0866 42.8373Z" fill="#4B4B78"/>
<path id="Fill 69" fill-rule="evenodd" clip-rule="evenodd" d="M3.40793 40.8226C2.91031 40.7431 2.69569 41.5613 3.19766 41.6421C5.25691 41.9709 5.66085 45.2013 3.419 45.6257C2.65735 45.7701 1.75026 45.3721 1.22892 44.7544C0.640398 44.0568 0.592572 42.6175 1.42734 42.0966C1.86686 41.8222 1.46923 41.0872 1.02814 41.3625C0.031714 41.9849 -0.232312 43.488 0.200881 44.5912C0.703242 45.87 2.27752 46.6997 3.52651 46.4762C6.52605 45.9388 6.34661 41.2924 3.40793 40.8226Z" fill="#4B4B78"/>
<path id="Fill 71" fill-rule="evenodd" clip-rule="evenodd" d="M20.3742 34.1652C21.0092 34.2342 21.6086 33.8088 21.7844 33.1366C21.9945 32.3366 21.4728 31.5808 21.0081 31.019C20.3941 30.2758 19.6321 29.7451 18.7498 29.4466C18.2972 29.2936 18.1037 30.0546 18.5544 30.2068C19.5048 30.5285 20.5456 31.3009 20.9706 32.3027C21.3109 33.105 20.7392 33.5549 20.0861 33.2478C19.5401 32.9911 19.0677 32.4833 18.66 32.0283C18.3318 31.6612 17.812 32.2191 18.1398 32.5858C18.7167 33.23 19.5004 34.0702 20.3742 34.1652Z" fill="#4B4B78"/>
<path id="Fill 73" fill-rule="evenodd" clip-rule="evenodd" d="M30.8104 25.7739C30.3364 25.9331 30.5385 26.7638 31.0156 26.6033C33.1335 25.8922 34.4434 28.9419 32.4057 30.1508C31.6528 30.5977 30.4984 30.5814 29.7937 29.9494C28.9316 29.1768 29.2004 27.7464 29.8426 26.9285C30.1682 26.5134 29.6247 25.9021 29.2969 26.3198C28.4792 27.3622 28.1347 28.9883 28.9158 30.1908C29.7574 31.4852 31.6289 31.601 32.7953 30.8937C35.5574 29.2189 33.7862 24.775 30.8104 25.7739Z" fill="#4B4B78"/>
<path id="Fill 75" fill-rule="evenodd" clip-rule="evenodd" d="M41.959 45.1989C39.9858 43.8516 37.9713 42.7095 35.5364 42.4858C36.84 40.796 38.2518 38.818 38.5374 36.728C40.2574 38.4279 42.6057 39.2051 45.108 39.2355C43.582 41.1684 42.1168 42.7135 41.959 45.1989ZM46.0389 38.3343C43.1123 38.509 40.2587 37.6957 38.5117 35.3188C38.4044 35.1731 38.2509 35.1167 38.1005 35.1224C37.9072 35.1122 37.7194 35.197 37.6604 35.3797C37.6182 35.4591 37.6079 35.5513 37.6426 35.648C37.8023 38.223 35.7785 40.6917 34.2468 42.6609C34.0304 42.9385 34.3236 43.3255 34.6509 43.3246C37.6098 43.318 39.909 44.844 42.1833 46.4438C42.4666 46.6433 42.9053 46.3745 42.8875 46.0625C42.7152 42.9539 44.7114 41.3202 46.4435 38.998C46.6434 38.7301 46.3784 38.314 46.0389 38.3343Z" fill="#4B4B78"/>
<path id="Fill 77" fill-rule="evenodd" clip-rule="evenodd" d="M60.7291 62.0855C60.5647 61.5054 59.6969 61.752 59.8627 62.3364C60.4564 64.4283 61.0495 66.5201 61.6432 68.612C60.2609 69.0681 58.8925 69.5605 57.5341 70.0902C56.984 67.3003 56.1877 64.6075 55.151 61.9761C56.3909 61.6365 57.6015 61.2313 58.8009 60.7455C59.3347 60.529 59.1028 59.6168 58.5622 59.8356C57.2056 60.3856 55.8363 60.837 54.4239 61.2007C54.1134 61.2804 54.046 61.6261 54.1552 61.8935C55.3335 64.7816 56.1945 67.7592 56.7674 70.8415C56.811 71.0764 57.1054 71.2566 57.3202 71.1712C58.9698 70.5166 60.633 69.9185 62.3186 69.3728C62.5464 69.2987 62.7032 69.0435 62.6322 68.7926C61.9977 66.5569 61.3636 64.3212 60.7291 62.0855Z" fill="#4B4B78"/>
<path id="Fill 79" fill-rule="evenodd" clip-rule="evenodd" d="M76.888 56.8084C76.8805 55.1173 75.7995 54.2683 74.359 54.109C73.8526 54.0525 73.8561 54.9211 74.359 54.9771C75.4265 55.0951 76.3059 55.8586 76.0668 57.146C75.8949 58.0723 74.888 58.8693 74.0557 58.9244C73.1826 58.9821 72.3245 58.5815 72.0715 57.6222C71.8783 56.8895 71.9939 56.0453 72.557 55.5544C72.9557 55.2071 72.3922 54.596 71.9971 54.9406C71.0717 55.7471 71.0092 57.2797 71.4827 58.3835C71.9983 59.5854 73.5263 60.0238 74.6393 59.697C75.7951 59.358 76.8939 58.1656 76.888 56.8084Z" fill="#4B4B78"/>
<path id="Fill 81" fill-rule="evenodd" clip-rule="evenodd" d="M83.333 67.4731C81.3459 66.0172 80.3789 63.7164 80.5976 61.1938C80.6438 60.6613 79.8815 60.5947 79.7421 61.0716C79.0348 63.4908 75.436 64.0734 73.4027 64.5438C73.0299 64.6302 72.9868 65.1916 73.2982 65.3832C75.2039 66.5556 76.3355 68.4259 76.5014 70.751C76.5437 71.3372 77.4153 71.3418 77.3726 70.751C77.2101 68.4741 76.2519 66.5542 74.6028 65.2068C76.383 64.7892 78.5112 64.1873 79.74 62.8105C79.9303 64.6219 80.72 66.2446 81.9958 67.4997C80.4112 67.8057 78.9685 68.8527 78.1174 70.3104C77.8225 70.8149 78.5761 71.2771 78.8697 70.774C79.7508 69.2653 81.4365 68.2725 83.1135 68.329C83.5743 68.3446 83.6662 67.717 83.333 67.4731Z" fill="#4B4B78"/>
<path id="Fill 83" fill-rule="evenodd" clip-rule="evenodd" d="M95.6688 57.9259C95.0384 57.9901 95.0304 58.8079 95.6688 58.7429C99.1846 58.3855 99.6883 62.5169 96.149 62.7551C94.9139 62.838 93.5817 62.4916 93.1675 61.4185C92.9508 60.8585 93.1339 59.9524 93.5462 59.5333C93.9459 59.1269 93.242 58.5452 92.8388 58.9553C92.0194 59.7886 91.8077 61.1697 92.4606 62.1027C93.4006 63.4462 95.2806 63.8449 97.055 63.4585C98.7258 63.0945 99.8529 61.7424 99.6448 60.336C99.4122 58.7621 97.5352 57.7364 95.6688 57.9259Z" fill="#4B4B78"/>
<g id="Group 87">
<mask id="mask0_8_2020" style="mask-type:luminance" maskUnits="userSpaceOnUse" x="106" y="42" width="11" height="10">
<path id="Clip 86" fill-rule="evenodd" clip-rule="evenodd" d="M106.739 42.173H116.415V51.8969H106.739V42.173Z" fill="white"/>
</mask>
<g mask="url(#mask0_8_2020)">
<path id="Fill 85" fill-rule="evenodd" clip-rule="evenodd" d="M112.578 49.8869C111.271 49.8807 110.011 49.9486 108.843 50.4184C109.442 48.2713 109.249 46.0358 108.315 44.022C110.464 44.8426 112.807 45.098 114.755 43.9447C114.269 45.9955 114.37 48.0757 115.03 50.0805C114.264 49.8574 113.409 49.8906 112.578 49.8869ZM116.368 50.926C115.154 48.2924 115.089 45.4741 116.104 42.7655C116.275 42.3117 115.624 41.9771 115.311 42.3037C113.12 44.5885 109.99 43.8808 107.466 42.6202C107.069 42.4223 106.539 42.8452 106.816 43.27C108.417 45.7242 108.663 48.58 107.544 51.2777C107.447 51.5117 107.549 51.6897 107.718 51.7794C107.849 51.9042 108.043 51.9502 108.241 51.814C109.388 51.0266 110.665 50.8562 112.031 50.8349C113.148 50.8173 114.773 50.6194 115.622 51.5012C116.018 51.9123 116.583 51.3921 116.368 50.926Z" fill="#4B4B78"/>
</g>
</g>
<path id="Fill 88" fill-rule="evenodd" clip-rule="evenodd" d="M108.876 34.9492C110.036 34.5588 111.138 33.4235 111.056 32.1447C110.98 30.9413 109.896 29.6363 108.684 29.4329C108.183 29.3492 107.968 30.1026 108.472 30.1875C109.269 30.3213 109.898 31.0208 110.147 31.7652C110.505 32.8359 109.656 33.8491 108.664 34.1946C107.904 34.4594 106.809 34.4242 106.355 33.6539C105.891 32.8649 106.268 31.6733 106.905 31.1229C107.29 30.7903 106.725 30.2387 106.342 30.5697C105.433 31.3552 105.084 32.8367 105.615 33.9301C106.186 35.1033 107.725 35.3365 108.876 34.9492Z" fill="#4B4B78"/>
<path id="Fill 90" fill-rule="evenodd" clip-rule="evenodd" d="M23.0025 99.6558C26.3243 101.597 29.5174 103.785 32.5878 106.225C33.052 106.594 33.488 105.714 33.0272 105.348C29.9564 102.907 26.7638 100.719 23.4419 98.7787C22.9424 98.4872 22.5012 99.3628 23.0025 99.6558Z" fill="#DDE6FF"/>
<path id="Fill 92" fill-rule="evenodd" clip-rule="evenodd" d="M22.9773 102.082C23.3504 102.216 23.723 102.351 24.0964 102.485C24.5383 102.645 24.9283 102.164 24.4845 102.004C24.1114 101.869 23.7384 101.734 23.3654 101.6C22.9235 101.441 22.5335 101.922 22.9773 102.082Z" fill="#DDE6FF"/>
<path id="Fill 94" fill-rule="evenodd" clip-rule="evenodd" d="M24.917 103.366C27.4128 104.697 29.9363 105.977 32.4889 107.209C33.0434 107.476 33.5349 106.691 32.9789 106.423C30.4258 105.192 27.9023 103.911 25.407 102.58C24.8631 102.291 24.3736 103.076 24.917 103.366Z" fill="#DDE6FF"/>
<path id="Fill 96" fill-rule="evenodd" clip-rule="evenodd" d="M21.9777 103.274C23.8127 104.918 26.4415 106.149 28.6986 107.211C29.2484 107.47 29.7352 106.701 29.1831 106.441C27.0081 105.418 24.422 104.225 22.6571 102.644C22.212 102.246 21.5321 102.875 21.9777 103.274Z" fill="#DDE6FF"/>
<path id="Fill 98" fill-rule="evenodd" clip-rule="evenodd" d="M30.5038 109.11C30.8715 109.549 31.288 109.871 31.7583 110.087C31.9655 110.183 32.2033 109.979 32.2591 109.716C32.3206 109.422 32.1829 109.157 31.9745 109.061C31.6418 108.909 31.3397 108.668 31.0795 108.357C30.6935 107.896 30.1162 108.646 30.5038 109.11Z" fill="#DDE6FF"/>
</g>
</svg>
