<svg width="264" height="311" viewBox="0 0 264 311" fill="none" xmlns="http://www.w3.org/2000/svg">
<ellipse opacity="0.5" cx="148.01" cy="297.025" rx="79.9709" ry="6.86029" fill="#C8D5FF"/>
<path d="M3.52944 73.4292C3.46863 70.2642 5.9293 67.621 9.09062 67.4556L94.6909 62.9775C97.9855 62.8051 100.774 65.3817 100.862 68.6795L102.092 114.653C102.179 117.888 99.6308 120.582 96.3965 120.676L10.4115 123.182C7.14974 123.277 4.43743 120.692 4.37475 117.43L3.52944 73.4292Z" fill="white"/>
<path d="M0.373792 70.2759C0.169569 67.6276 2.20361 65.3381 4.85759 65.229L16.402 64.7546L20.9366 123.56L7.35944 124.118C5.78317 124.183 4.43862 122.988 4.31732 121.415L0.373792 70.2759Z" fill="#757DF0" fill-opacity="0.5"/>
<path d="M12.6455 72.1228C12.0523 71.8944 11.4254 71.7437 10.7772 71.6804C10.7098 71.8311 10.6331 72.0327 10.5818 72.1924C9.89392 72.1409 9.22038 72.1931 8.56113 72.3489C8.48593 72.199 8.37706 72.0118 8.28665 71.8733C7.65519 72.0357 7.05817 72.2819 6.50722 72.5996C5.49056 74.4649 5.31155 76.221 5.59982 77.9162C6.41008 78.439 7.17906 78.7352 7.92608 78.9101C8.08662 78.6438 8.22646 78.3631 8.34294 78.0697C8.07163 77.9881 7.80959 77.8818 7.5599 77.7542C7.61946 77.7016 7.67747 77.6469 7.73328 77.5909C9.24092 78.1711 10.8209 78.0487 12.2041 77.2447C12.2685 77.2913 12.3343 77.3364 12.4005 77.3793C12.1727 77.5446 11.9294 77.69 11.6739 77.8124C11.834 78.0837 12.0146 78.3403 12.2149 78.5787C12.9268 78.2908 13.6419 77.8797 14.3621 77.2376C14.3928 75.2442 13.7632 73.5667 12.6455 72.1228ZM8.43184 76.6406C7.99533 76.6744 7.60529 76.2871 7.56624 75.7816C7.5272 75.2762 7.84541 74.8332 8.28957 74.7988C8.73374 74.7644 9.12377 75.1518 9.15523 75.6586C9.19496 76.164 8.87601 76.6062 8.43184 76.6406ZM11.3679 76.4132C10.9314 76.447 10.5414 76.0597 10.5023 75.5542C10.4633 75.0488 10.7815 74.6058 11.2256 74.5714C11.6698 74.537 12.0598 74.9244 12.0913 75.4312C12.1303 75.9366 11.8121 76.3788 11.3679 76.4132Z" fill="white"/>
<path d="M46.0762 122.269L12.3372 125.146C9.82268 125.36 7.58969 123.546 7.28445 121.041L1.25532 71.5615C0.926626 68.8639 2.95233 66.4523 5.66612 66.3103L94.0147 61.6884C96.7159 61.5471 98.9759 63.7141 98.9481 66.4189L98.8546 75.5341M83.6415 118.627L94.0242 118.084C96.4957 117.954 98.4415 115.927 98.4692 113.452L98.812 82.7559M73.972 119.133L70.8954 119.294" stroke="#4B4B78" stroke-width="1.46698" stroke-linecap="round"/>
<ellipse rx="1.75877" ry="1.75995" transform="matrix(0.998633 -0.0522741 0.0520512 0.998644 85.7767 66.8185)" fill="white"/>
<ellipse rx="1.75877" ry="1.75994" transform="matrix(0.998633 -0.0522741 0.0520513 0.998644 92.2161 66.482)" fill="white"/>
<ellipse rx="1.75877" ry="1.75994" transform="matrix(0.998633 -0.0522741 0.0520513 0.998644 79.3372 67.1552)" fill="white"/>
<path d="M67.3501 69.4622L37.9316 71.1038C37.705 71.1165 37.4927 71.2187 37.3413 71.388C37.19 71.5573 37.1121 71.7798 37.1247 72.0065L37.6405 81.2894C37.6531 81.5162 37.7552 81.7286 37.9244 81.88C38.0935 82.0314 38.3159 82.1094 38.5425 82.0967L39.397 82.049L39.5157 84.1865L42.3876 81.8821L67.9609 80.455C68.1876 80.4424 68.3999 80.3402 68.5512 80.1709C68.7026 80.0016 68.7805 79.7791 68.7679 79.5524L68.2521 70.2695C68.2395 70.0427 68.1374 69.8303 67.9682 69.6789C67.799 69.5275 67.5767 69.4495 67.3501 69.4622Z" fill="#C8D5FF" fill-opacity="0.3"/>
<path d="M47.532 85.2125L76.9502 83.5709C77.1768 83.5583 77.3992 83.6362 77.5683 83.7876C77.7375 83.939 77.8396 84.1514 77.8522 84.3782L78.2051 90.7294C78.2177 90.9561 78.1398 91.1786 77.9885 91.3479C77.8371 91.5172 77.6248 91.6194 77.3982 91.632L76.5437 91.6797L76.6625 93.8171L73.5531 91.8466L47.98 93.2736C47.7533 93.2863 47.531 93.2083 47.3618 93.0569C47.1927 92.9055 47.0906 92.6931 47.078 92.4663L46.725 86.1152C46.7124 85.8884 46.7904 85.6659 46.9417 85.4966C47.093 85.3274 47.3054 85.2252 47.532 85.2125Z" fill="#C8D5FF" fill-opacity="0.3"/>
<path d="M68.8115 95.7274L39.3926 97.3692C39.166 97.3818 38.9536 97.484 38.8023 97.6533C38.6509 97.8226 38.573 98.0451 38.5856 98.2719L39.4272 113.418C39.4398 113.645 39.542 113.858 39.7111 114.009C39.8803 114.16 40.1026 114.238 40.3292 114.226L41.1837 114.178L41.3025 116.316L44.1745 114.011L69.7481 112.584C69.9748 112.571 70.1871 112.469 70.3384 112.3C70.4898 112.131 70.5677 111.908 70.5551 111.681L69.7135 96.5348C69.7009 96.308 69.5988 96.0955 69.4296 95.9441C69.2604 95.7927 69.0381 95.7147 68.8115 95.7274Z" fill="#C8D5FF" fill-opacity="0.3"/>
<path d="M82.3177 68.7076C82.286 67.9073 82.902 67.2294 83.7017 67.1846L93.0411 66.6611C93.8736 66.6144 94.5775 67.2702 94.5897 68.104L95.2365 112.16C95.248 112.943 94.6421 113.597 93.8602 113.646L85.621 114.156C84.7997 114.207 84.0973 113.572 84.0646 112.75L82.3177 68.7076Z" fill="#C8D5FF" fill-opacity="0.3"/>
<path d="M19.8847 71.9932C19.8191 71.1719 20.4426 70.4576 21.2652 70.4115L30.6074 69.8878C31.4162 69.8425 32.1086 70.4614 32.1539 71.2703L34.7343 117.388C34.7794 118.194 34.1654 118.885 33.3601 118.935L25.1208 119.445C24.3224 119.495 23.6317 118.896 23.568 118.098L19.8847 71.9932Z" fill="#C8D5FF" fill-opacity="0.3"/>
<path fill-rule="evenodd" clip-rule="evenodd" d="M216.066 57.4876C216.066 57.4876 214.652 59.9745 209.565 60.1413C204.478 60.3081 199.041 58.7592 199.041 58.7592L197.459 63.5315L193.172 56.9894C193.172 56.9894 184.074 52.8276 181.359 45.445C178.644 38.0625 184.838 32.9317 184.838 32.9317C184.838 32.9317 191.505 29.7482 196.559 30.6153C201.614 31.4827 211.486 34.7335 211.486 34.7335L216.066 57.4876Z" fill="#FEF0A9"/>
<path fill-rule="evenodd" clip-rule="evenodd" d="M218.936 68.1026C218.936 68.1026 222.271 67.8885 223.534 67.1377C224.797 66.387 226.74 64.9562 226.74 64.9562C226.74 64.9562 235.691 67.3607 242.188 66.714C256.842 65.2556 262.816 47.0186 251.414 37.4664C241.925 29.5175 229.837 27.5889 223.653 27.9893C217.469 28.3898 212.09 30.3732 209.186 37.6257C204.776 48.6404 212.863 57.2215 221.889 62.2762L218.936 68.1026Z" fill="#B8F9B9"/>
<path fill-rule="evenodd" clip-rule="evenodd" d="M192.325 56.5751C194.191 58.4583 195.562 60.5339 196.597 62.968C196.823 63.501 197.601 63.5056 197.829 62.9775C198.531 61.3526 198.648 60.3754 199.049 58.6535L199.416 58.6535C204.993 60.379 212.033 61.5796 216.849 57.5425C217.503 56.9947 216.7 55.9293 216.045 56.4788C211.74 60.0865 204.103 58.8503 199.056 57.2893C198.613 57.1523 198.242 57.3653 198.138 57.814C197.877 58.9345 197.166 61.0459 197.166 61.0459C197.166 61.0459 194.799 57.2015 193.146 55.5346C192.543 54.9252 191.728 55.9731 192.325 56.5751Z" fill="#4B4B78"/>
<path fill-rule="evenodd" clip-rule="evenodd" d="M211.438 32.7199C203.215 29.0273 189.257 24.3875 181.645 31.9798C173.017 40.5874 183.758 52.8309 192.05 56.336C192.839 56.6701 193.355 55.4443 192.564 55.1097C189.561 53.8403 187.109 51.9225 184.9 49.5462C183.517 48.0577 181.855 46.4703 181.033 44.5906C178.915 39.7487 179.944 34.1551 184.647 31.3531C187.169 29.8501 190.213 29.2112 193.134 29.3859C199.286 29.7539 205.319 31.4291 210.924 33.9462C211.706 34.2977 212.22 33.0712 211.438 32.7199Z" fill="#4B4B78"/>
<path fill-rule="evenodd" clip-rule="evenodd" d="M224.008 60.7569C217.881 57.9671 209.453 52.2986 208.743 44.7541C208.344 40.5012 210.102 35.293 213.198 32.3351C216.475 29.2045 223.041 27.9674 227.395 28.2423C241.753 29.1494 261.892 38.6246 257.922 56.149C255.127 68.4888 238.452 65.9337 229.536 63.6342C228.801 63.445 228.65 64.6323 229.38 64.82C237.7 66.9659 251.925 69.4098 257.559 60.4486C262.183 53.0907 259.206 43.1287 253.422 37.6135C242.348 27.0526 211.692 19.2238 207.82 40.8005C206.018 50.8446 215.516 58.2035 223.545 61.8602C224.238 62.1761 224.7 61.0726 224.008 60.7569Z" fill="#4B4B78"/>
<path fill-rule="evenodd" clip-rule="evenodd" d="M226.899 37.3956L247.311 45.4842C248.022 45.7658 248.49 44.6549 247.777 44.3722L227.365 36.2836C226.654 36.002 226.186 37.1131 226.899 37.3956Z" fill="#4B4B78"/>
<path fill-rule="evenodd" clip-rule="evenodd" d="M219.274 39.5661L249.598 51.778C250.301 52.061 250.755 50.9833 250.051 50.6994L219.726 38.4875C219.023 38.2045 218.57 39.2825 219.274 39.5661Z" fill="#4B4B78"/>
<path fill-rule="evenodd" clip-rule="evenodd" d="M218.447 43.6958C228.326 48.2889 238.328 52.6016 248.448 56.6323C249.163 56.9173 249.644 55.7761 248.927 55.4902C238.807 51.4594 228.805 47.1468 218.926 42.5536C218.227 42.2285 217.749 43.3716 218.447 43.6958Z" fill="#4B4B78"/>
<path fill-rule="evenodd" clip-rule="evenodd" d="M216.47 48.4186C226.477 52.7094 236.485 57.0004 246.493 61.2918C247.203 61.5963 247.748 60.3004 247.036 59.9955C237.029 55.704 227.021 51.413 217.013 47.1223C216.303 46.8178 215.758 48.1137 216.47 48.4186Z" fill="#4B4B78"/>
<path fill-rule="evenodd" clip-rule="evenodd" d="M193.434 36.3246C197.651 37.9523 201.869 39.5794 206.086 41.207C206.89 41.517 207.378 40.3624 206.57 40.051C202.353 38.4233 198.136 36.7962 193.919 35.1686C193.115 34.8583 192.627 36.0135 193.434 36.3246Z" fill="#4B4B78"/>
<path fill-rule="evenodd" clip-rule="evenodd" d="M187.882 38.9158C193.94 41.078 199.932 43.4258 205.867 45.9631C206.676 46.3092 206.972 45.6047 206.162 45.2583C200.228 42.7211 194.236 40.3733 188.178 38.2111C187.358 37.9186 187.056 38.6205 187.882 38.9158Z" fill="#4B4B78"/>
<path fill-rule="evenodd" clip-rule="evenodd" d="M185.953 43.4791C192.514 45.921 199.024 48.4954 205.481 51.2013C206.269 51.5315 206.738 50.4165 205.949 50.0859C199.491 47.38 192.982 44.8056 186.421 42.3637C185.624 42.0669 185.152 43.1809 185.953 43.4791Z" fill="#4B4B78"/>
<path fill-rule="evenodd" clip-rule="evenodd" d="M59.5777 178.318L6.87127 161.21C6.96128 160.676 7.09135 160.142 7.26335 159.61C9.08729 153.977 14.9351 150.828 20.3249 152.578C20.6629 152.687 20.9911 152.814 21.3089 152.956C26.1444 146.409 34.5378 143.312 42.4029 145.866C49.6814 148.228 54.4912 154.775 55.2315 162.192C60.2165 164.186 62.8148 169.923 61.0627 175.334C60.7085 176.428 60.2026 177.429 59.5777 178.318Z" fill="#B8F9B9"/>
<path d="M57.2435 179.488L57.0154 180.171L57.5131 180.338L57.824 179.915L57.2435 179.488ZM5.00668 162.023L4.29642 161.901L4.19217 162.511L4.77861 162.707L5.00668 162.023ZM5.38816 160.503L6.07172 160.732L5.38816 160.503ZM18.2867 154.062L18.5148 153.379L18.5148 153.379L18.2867 154.062ZM19.2619 154.444L18.9657 155.101L19.484 155.335L19.8318 154.886L19.2619 154.444ZM40.1101 148.12L40.3382 147.436L40.1101 148.12ZM52.8745 163.989L52.1581 164.066L52.2041 164.494L52.6033 164.657L52.8745 163.989ZM58.7011 176.669L59.3847 176.897L59.3847 176.897L58.7011 176.669ZM57.4715 178.804L5.23475 161.339L4.77861 162.707L57.0154 180.171L57.4715 178.804ZM5.71694 162.145C5.79766 161.673 5.91529 161.201 6.07172 160.732L4.70461 160.275C4.52491 160.814 4.38946 161.357 4.29642 161.901L5.71694 162.145ZM6.07172 160.732C7.72776 155.766 13.0945 153.086 18.0586 154.746L18.5148 153.379C12.7955 151.466 6.6125 154.554 4.70461 160.275L6.07172 160.732ZM18.0586 154.746C18.3703 154.85 18.6729 154.969 18.9657 155.101L19.5581 153.787C19.2209 153.635 18.8729 153.498 18.5148 153.379L18.0586 154.746ZM19.8318 154.886C24.4092 148.969 32.3866 146.297 39.882 148.803L40.3382 147.436C32.2439 144.729 23.6324 147.617 18.692 154.003L19.8318 154.886ZM39.882 148.803C46.8182 151.123 51.4235 157.235 52.1581 164.066L53.591 163.912C52.7984 156.541 47.8288 149.941 40.3382 147.436L39.882 148.803ZM52.6033 164.657C57.1961 166.525 59.6084 171.67 58.0176 176.441L59.3847 176.897C61.2176 171.401 58.4383 165.475 53.1457 163.321L52.6033 164.657ZM58.0176 176.441C57.6956 177.406 57.2339 178.284 56.663 179.06L57.824 179.915C58.4828 179.019 59.0145 178.007 59.3847 176.897L58.0176 176.441Z" fill="#4B4B78"/>
<path fill-rule="evenodd" clip-rule="evenodd" d="M41.0008 154.375L35.0486 152.384L32.582 159.78L30.353 159.004L33.8579 166.027L40.7013 162.608L38.5095 161.845L41.0008 154.375Z" fill="white"/>
<path d="M33.3631 152.39L33.5912 151.706L32.9076 151.478L32.6795 152.161L33.3631 152.39ZM39.3153 154.38L39.9989 154.609L40.2269 153.925L39.5434 153.696L39.3153 154.38ZM30.8966 159.786L30.66 160.466L31.3492 160.706L31.5801 160.014L30.8966 159.786ZM28.6676 159.009L28.9041 158.328L27.232 157.746L28.0229 159.331L28.6676 159.009ZM32.1724 166.032L31.5277 166.354L31.8498 167L32.4946 166.677L32.1724 166.032ZM39.0159 162.613L39.3381 163.258L40.8665 162.495L39.2524 161.933L39.0159 162.613ZM36.824 161.85L36.1405 161.621L35.9153 162.297L36.5875 162.531L36.824 161.85ZM33.135 153.074L39.0872 155.064L39.5434 153.696L33.5912 151.706L33.135 153.074ZM31.5801 160.014L34.0466 152.618L32.6795 152.161L30.213 159.557L31.5801 160.014ZM28.431 159.69L30.66 160.466L31.1332 159.105L28.9041 158.328L28.431 159.69ZM32.8171 165.711L29.3122 158.688L28.0229 159.331L31.5277 166.354L32.8171 165.711ZM38.6936 161.968L31.8502 165.388L32.4946 166.677L39.3381 163.258L38.6936 161.968ZM36.5875 162.531L38.7793 163.294L39.2524 161.933L37.0606 161.169L36.5875 162.531ZM38.6318 154.152L36.1405 161.621L37.5076 162.078L39.9989 154.609L38.6318 154.152Z" fill="#4B4B78"/>
<path d="M201.412 192.316C199.409 194.97 200.059 198.765 202.831 200.602L231.388 219.526C234.148 221.355 237.876 220.487 239.546 217.628L248.794 201.791C250.296 199.218 249.592 195.923 247.169 194.189L221.111 175.538C218.569 173.718 215.041 174.257 213.158 176.752L201.412 192.316Z" fill="white"/>
<path d="M203.869 195.095C202.179 197.958 203.254 201.655 206.215 203.167L236.726 218.738C239.675 220.243 243.282 218.96 244.618 215.93L252.018 199.148C253.22 196.421 252.148 193.227 249.544 191.778L221.547 176.195C218.816 174.675 215.372 175.609 213.783 178.301L203.869 195.095Z" stroke="#4B4B78" stroke-width="1.80367"/>
<path d="M227.733 187.474C228.258 186.443 229.722 186.42 230.279 187.434L235.822 197.515C236.312 198.408 235.749 199.514 234.739 199.641L223.331 201.071C222.183 201.215 221.342 200.016 221.867 198.985L227.733 187.474Z" fill="#7699FF"/>
<rect width="26.6449" height="1.70156" rx="0.850781" transform="matrix(0.890709 0.454573 -0.45398 0.891012 213.188 198.447)" fill="#C8D5FF"/>
<rect width="13.6059" height="1.70156" rx="0.850782" transform="matrix(0.890709 0.454574 -0.453979 0.891012 213.188 198.447)" fill="#4B4B78"/>
<path fill-rule="evenodd" clip-rule="evenodd" d="M117.058 162.617C116.456 166.054 115.47 170.158 115.464 173.625C115.457 178.525 119.807 182.931 123.349 185.797C124.837 184.161 125.924 182.081 127.518 180.562C128.318 179.799 129.765 179.446 130.439 178.737C131.818 177.288 130.712 176.94 129.992 175.38C129.053 173.35 128.657 170.993 128.449 168.756C127.951 163.389 128.869 157.946 128.854 152.563C128.839 147.346 129.898 139.356 127.424 134.636C127.291 134.384 127.285 134.14 127.341 133.92C126.845 133.836 126.38 133.725 125.999 133.618C125.916 133.595 125.835 133.566 125.753 133.538C125.728 133.605 125.719 133.672 125.676 133.74C120.254 142.293 118.78 152.775 117.058 162.617ZM129.794 129.833C129.521 128.707 129.058 127.657 128.79 126.534C127.876 127 127.05 127.5 126.335 128.34C125.957 128.783 125.165 129.547 125.088 130.137C124.915 131.452 126.772 131.763 127.63 131.855C128.092 131.903 129.336 132.169 129.744 131.894C130.21 131.579 129.911 130.313 129.794 129.833ZM124.152 132.575C123.247 131.716 122.79 130.477 123.387 129.123C124.37 126.894 126.405 125.478 128.461 124.476C128.949 124.239 129.411 124.419 129.691 124.746C130.085 124.719 130.461 124.913 130.549 125.44C130.935 127.718 132.436 129.933 131.76 132.33C131.434 133.487 130.445 133.933 129.322 134.031C131.272 138.199 130.669 143.604 130.749 148.088C130.865 154.651 129.897 161.348 130.358 167.872C130.624 171.62 131.826 173.511 133.13 176.74C133.434 177.493 133.998 178.17 133.636 179.029C133.226 180.002 131.756 180.251 130.976 180.668C128.118 182.2 126.793 185.023 124.619 187.335C124.353 187.619 124.045 187.672 123.761 187.608C123.409 187.886 122.903 187.99 122.466 187.645C118.891 184.834 115.542 181.115 113.924 176.7C112.69 173.333 114.211 169.065 114.662 165.587C116.085 154.588 117.962 142.245 123.974 132.763C124.025 132.682 124.091 132.634 124.152 132.575Z" fill="white"/>
<path fill-rule="evenodd" clip-rule="evenodd" d="M163.287 202.503C163.91 206.984 168.188 209.71 171.975 212.042C173.038 212.697 172.121 214.263 171.048 213.602C166.584 210.853 162.053 207.717 161.331 202.508C161.17 201.344 163.127 201.348 163.287 202.503Z" fill="white"/>
<path fill-rule="evenodd" clip-rule="evenodd" d="M109.15 215.936C112.073 214.791 114.116 211.962 114.345 208.696C114.437 207.408 116.345 207.323 116.253 208.619C115.958 212.829 113.436 216.383 109.659 217.863C108.495 218.319 107.993 216.39 109.15 215.936Z" fill="white"/>
<path fill-rule="evenodd" clip-rule="evenodd" d="M114.497 120.792C116.789 115.723 119.576 110.977 123.106 106.907C123.232 106.76 124.201 105.455 124.346 105.405C121.161 100.218 119.258 94.3933 118.458 88.4967C117.507 81.4866 117.962 74.4578 118.725 67.4528C119.795 57.6325 122.84 46.3641 133.192 42.5189C143.178 38.8104 150.84 51.7694 153.979 59.0288C156.734 65.403 158.674 72.1862 159.578 79.0826C160.61 86.9755 159.243 95.326 158.701 103.225C158.658 103.858 158.146 104.19 157.65 104.213C157.832 104.26 158.004 104.351 158.142 104.495C158.494 104.136 159.084 103.993 159.567 104.426C163.533 107.995 166.23 112.651 167.35 117.866C170.248 118.997 173.125 120.175 175.977 121.414C176.564 121.667 176.615 122.221 176.379 122.658C176.488 122.849 176.549 123.077 176.493 123.35C176.286 124.346 176.046 125.417 175.744 126.493L175.101 128.475C174.832 129.191 174.519 129.883 174.159 130.539C174.281 130.639 174.384 130.768 174.458 130.936C182.407 149.177 188.19 167.432 190.281 187.229C190.288 187.305 190.267 187.362 190.26 187.43C190.586 187.939 190.504 188.743 189.755 188.983C189.476 189.071 189.198 189.156 188.92 189.243C183.289 221.258 173.17 253.36 159.397 282.862C158.419 284.956 152.11 300.268 147.651 297.292C147.151 296.958 146.834 296.275 146.623 295.47C144.318 301.856 138.593 292.208 136.254 288.133C131.981 280.686 128.104 272.993 123.997 265.454C119.179 256.61 115.05 247.326 110.93 238.143C105.99 227.131 103.326 215.438 100.432 203.762C99.9959 203.777 99.5601 203.796 99.126 203.808C98.7397 203.82 98.4774 203.64 98.3163 203.394C98.1955 203.246 98.1027 203.066 98.0928 202.825C97.7107 193.737 99.5949 184.805 100.909 175.858C102.158 167.36 103.637 158.915 105.524 150.534C107.54 141.586 109.866 131.708 113.657 122.707C113.652 122.704 113.64 122.699 113.645 122.701C113.657 122.707 114.497 120.792 114.497 120.792Z" fill="white"/>
<path fill-rule="evenodd" clip-rule="evenodd" d="M120.053 43.3174C120.053 43.3174 122.223 47.7899 124.906 51.7546C127.519 55.6163 131.948 59.4315 131.948 59.4315C131.948 59.4315 127.507 67.5513 121.944 67.2939C116.38 67.0363 115.032 60.4173 115.011 58.3373C114.944 51.8794 120.053 43.3174 120.053 43.3174Z" fill="#C8D5FF"/>
<path fill-rule="evenodd" clip-rule="evenodd" d="M120.925 40.4341C120.925 40.4341 124.326 49.4507 134.326 57.1268C147.712 67.4027 152.893 64.1895 159.96 67.86C166.914 71.4736 168.207 75.033 168.207 75.033C168.207 75.033 169.084 71.8715 166.845 68.1644C166.845 68.1644 169.02 67.088 172.651 69.9017C172.651 69.9017 172.297 64.0056 165.899 59.1157C165.899 59.1157 169.398 60.4217 172.059 58.4857C172.059 58.4857 168.932 57.0125 167.213 55.2832C165.494 53.5539 165.103 52.2426 165.103 52.2426C165.103 52.2426 166.365 52.5233 168.65 52.4135C170.91 52.3059 171.978 50.0586 171.978 50.0586C171.978 50.0586 166.287 50.4121 162.118 46.9646C160.894 45.9519 150.856 34.9912 139.663 32.4569C128.469 29.9226 120.925 40.4341 120.925 40.4341Z" fill="#C8D5FF"/>
<path fill-rule="evenodd" clip-rule="evenodd" d="M123.763 132.291C123.816 132.212 123.884 132.167 123.947 132.11C123.075 131.218 122.663 129.964 123.309 128.632C124.372 126.44 126.457 125.1 128.549 124.173C129.171 123.897 130.509 124.517 130.601 125.214C130.902 127.502 132.32 129.772 131.558 132.142C131.189 133.287 130.186 133.697 129.058 133.753C130.856 137.991 130.054 143.369 129.971 147.853C129.847 154.416 128.635 161.073 128.857 167.609C128.986 171.366 130.118 173.299 131.304 176.573C131.58 177.336 132.117 178.033 131.725 178.878C131.279 179.836 129.8 180.03 129.007 180.419C126.095 181.846 124.667 184.618 122.411 186.85C122.135 187.123 121.825 187.166 121.544 187.091C121.183 187.356 120.672 187.442 120.249 187.082C116.779 184.141 113.568 180.303 112.113 175.832C111.002 172.422 112.68 168.213 113.257 164.753C115.082 153.814 117.409 141.548 123.763 132.291Z" fill="#A5BCFF"/>
<path fill-rule="evenodd" clip-rule="evenodd" d="M158.709 101.682C159.466 89.5336 160.488 78.4531 156.828 66.5262C155.203 61.234 153.041 55.7624 149.941 51.088C146.669 46.1576 140.095 40.3464 133.754 43.0224C123.355 47.4118 121.806 59.4921 120.993 69.1441C120.529 74.6664 120.348 80.1786 121.096 85.7061C121.895 91.6204 123.172 99.2202 126.641 104.282C127.39 105.373 125.615 106.394 124.868 105.306C121.263 100.046 120.048 92.6912 119.142 86.581C118.101 79.5629 118.512 72.5389 119.24 65.5403C120.26 55.7297 123.307 44.488 133.956 40.7313C144.226 37.1074 152.242 50.1308 155.541 57.415C158.44 63.8133 160.497 70.6123 161.488 77.5151C162.621 85.417 161.28 93.7558 160.787 101.649C160.707 102.935 158.628 102.976 158.709 101.682Z" fill="#4B4B78"/>
<path fill-rule="evenodd" clip-rule="evenodd" d="M169.345 132.576C173.316 131.618 174.367 126.49 175.082 123.029C175.335 121.807 177.213 122.278 176.961 123.498C176.095 127.69 174.651 133.288 169.888 134.437C168.678 134.729 168.131 132.868 169.345 132.576Z" fill="#4B4B78"/>
<path fill-rule="evenodd" clip-rule="evenodd" d="M176.006 122.276C173.169 120.979 170.308 119.74 167.421 118.568C166.226 118.084 166.76 115.87 167.971 116.361C171.025 117.6 174.056 118.905 177.059 120.279C178.247 120.822 177.188 122.818 176.006 122.276Z" fill="#4B4B78"/>
<path fill-rule="evenodd" clip-rule="evenodd" d="M164.789 116.976C163.645 111.821 160.953 107.297 156.891 103.75C155.855 102.844 157.342 101.365 158.38 102.271C162.688 106.036 165.632 110.936 166.846 116.409C167.136 117.717 165.081 118.293 164.789 116.976Z" fill="#4B4B78"/>
<path fill-rule="evenodd" clip-rule="evenodd" d="M158.201 103.724C153.546 109.408 144.693 114.748 137.293 115.321C130.952 115.811 122.895 114.014 122.236 106.556C122.118 105.222 124.188 105.179 124.305 106.503C125.094 115.438 138.367 113.796 143.797 111.293C148.516 109.118 153.395 106.338 156.722 102.276C157.567 101.244 159.043 102.696 158.201 103.724Z" fill="#4B4B78"/>
<path fill-rule="evenodd" clip-rule="evenodd" d="M164.853 109.028C162.578 114.336 157.799 117.14 152.867 119.752C146.717 123.01 140.339 125.783 133.816 128.21C133.226 128.429 132.453 127.883 132.492 127.246C132.579 125.842 132.665 124.281 132.293 122.909C132.152 122.415 132.012 121.92 131.871 121.425C131.376 119.705 130.66 119.532 129.724 120.906C127.557 121.922 125.451 124.79 123.778 126.455C123.414 126.819 122.683 126.903 122.318 126.471C119.664 123.322 117.544 119.649 116.119 115.79C115.658 114.543 117.642 113.975 118.1 115.214C119.384 118.691 120.355 121.019 122.752 123.862C123.171 124.206 123.351 124.026 123.516 123.862C126.249 121.14 127.713 119.537 130.998 117.475C131.456 117.187 132.15 117.348 132.414 117.828C134.074 120.838 134.811 121.586 134.598 125.011C134.587 125.187 134.715 125.472 134.98 125.394C140.753 123.247 144.659 121.658 150.142 118.85C155.242 116.237 160.684 113.545 163.052 108.014C163.573 106.801 165.37 107.82 164.853 109.028Z" fill="#4B4B78"/>
<path fill-rule="evenodd" clip-rule="evenodd" d="M188.499 187.736C186.603 167.771 181.004 149.368 173.361 131.034C172.858 129.826 174.782 129.249 175.279 130.441C183 148.963 188.579 167.516 190.492 187.669C190.617 188.985 188.622 189.041 188.499 187.736Z" fill="#4B4B78"/>
<path fill-rule="evenodd" clip-rule="evenodd" d="M131.977 125.784C132.43 128.042 134.069 130.261 133.397 132.618C132.741 134.922 129.149 134.294 127.303 133.778C125.266 133.209 123.489 131.359 124.44 129.283C125.44 127.099 127.574 125.74 129.74 124.789C130.379 124.509 131.832 125.063 131.977 125.784ZM126.257 130.32C126.329 129.738 127.156 128.998 127.547 128.568C128.29 127.754 129.148 127.276 130.108 126.833C130.414 127.95 130.94 128.992 131.253 130.112C131.386 130.588 131.728 131.846 131.24 132.148C130.811 132.412 129.485 132.125 128.994 132.068C128.079 131.96 126.101 131.617 126.257 130.32Z" fill="#4B4B78"/>
<path fill-rule="evenodd" clip-rule="evenodd" d="M131.056 133.089C133.276 137.407 132.589 143.185 132.654 147.942C132.745 154.667 131.741 161.533 132.182 168.216C132.436 172.057 133.643 173.99 134.949 177.294C135.253 178.063 135.82 178.755 135.45 179.637C135.032 180.636 133.546 180.895 132.757 181.327C129.864 182.907 128.514 185.804 126.309 188.184C125.414 189.149 124.009 187.725 124.906 186.756C126.483 185.055 127.601 182.839 129.264 181.231C130.075 180.446 131.537 180.079 132.222 179.35C133.621 177.859 132.505 177.506 131.783 175.911C130.843 173.835 130.45 171.423 130.25 169.131C129.767 163.633 130.716 158.051 130.723 152.535C130.728 147.189 131.829 138.997 129.347 134.171C128.751 133.012 130.457 131.925 131.056 133.089Z" fill="#4B4B78"/>
<path fill-rule="evenodd" clip-rule="evenodd" d="M123.819 187.982C119.857 185.037 116.124 181.167 114.272 176.619C112.859 173.148 114.445 168.81 114.873 165.256C116.226 154.026 118.049 141.427 124.448 131.833C125.182 130.734 127.068 131.755 126.327 132.866C120.555 141.519 119.139 152.22 117.439 162.261C116.844 165.769 115.842 169.951 115.901 173.5C115.987 178.751 121.292 183.541 125.301 186.521C126.402 187.339 124.913 188.794 123.819 187.982Z" fill="#4B4B78"/>
<path fill-rule="evenodd" clip-rule="evenodd" d="M189.781 188.772C175.244 193.252 160.995 196.962 145.888 199.221C129.862 201.619 113.678 202.743 97.4574 203.123C96.134 203.153 96.0753 201.137 97.3967 201.105C112.941 200.742 128.464 199.712 143.837 197.497C159.46 195.247 174.18 191.459 189.193 186.833C190.455 186.444 191.037 188.384 189.781 188.772Z" fill="#4B4B78"/>
<path fill-rule="evenodd" clip-rule="evenodd" d="M123.908 106.946C112.737 118.721 108.873 136.45 105.621 151.538C103.963 159.225 102.667 166.969 101.601 174.768C100.354 183.885 98.4541 192.993 99.1263 202.296C99.2216 203.619 96.9719 203.611 96.8756 202.292C96.2071 193.045 98.0737 184.019 99.3032 174.959C100.47 166.356 101.898 157.811 103.783 149.346C107.09 134.487 111.24 117.089 122.257 105.475C123.181 104.501 124.829 105.973 123.908 106.946Z" fill="#4B4B78"/>
<path fill-rule="evenodd" clip-rule="evenodd" d="M189.524 187.767C183.875 220.537 173.489 253.388 159.245 283.538C158.241 285.664 151.765 301.222 147.111 298.165C145.634 297.195 145.647 293.429 145.451 291.977C144.698 286.389 144.341 280.747 143.964 275.13C142.888 259.085 142.253 243.018 141.435 226.962C141.368 225.638 143.465 225.604 143.531 226.924C144.166 239.377 144.7 251.835 145.402 264.286C145.968 274.347 146.083 284.766 147.984 294.713C148.045 295.035 148.09 295.889 148.331 296.168C148.957 296.896 147.746 296.488 148.662 296.198C149.954 295.789 151.163 293.706 151.848 292.717C154.588 288.756 156.632 284.288 158.609 279.924C164.303 267.351 168.959 254.302 173.447 241.266C179.569 223.483 184.287 205.82 187.486 187.258C187.711 185.957 189.747 186.472 189.524 187.767Z" fill="#4B4B78"/>
<path fill-rule="evenodd" clip-rule="evenodd" d="M102.05 202.875C104.672 213.571 106.871 224.562 111.282 234.69C114.796 242.758 118.507 250.755 122.388 258.65C125.227 264.425 128.438 270 131.391 275.717C133.504 279.811 135.63 283.903 137.94 287.887C138.919 289.574 139.907 291.281 141.041 292.868C143.073 295.718 144.177 295.775 144.704 291.808C144.873 290.522 146.817 291.018 146.649 292.294C145.082 304.102 138.268 292.533 135.67 287.97C131.428 280.522 127.582 272.826 123.508 265.285C118.727 256.438 114.632 247.15 110.546 237.961C105.631 226.909 102.998 215.167 100.124 203.444C99.8155 202.185 101.74 201.612 102.05 202.875Z" fill="#4B4B78"/>
<path fill-rule="evenodd" clip-rule="evenodd" d="M172.903 214.054C168.517 210.997 164.08 207.483 163.593 201.327C163.484 199.952 165.465 199.865 165.573 201.229C165.992 206.526 170.192 209.563 173.915 212.157C174.958 212.885 173.958 214.789 172.903 214.054Z" fill="#4B4B78"/>
<path fill-rule="evenodd" clip-rule="evenodd" d="M116.253 208.619C115.958 212.828 113.436 216.383 109.658 217.863C108.495 218.319 107.993 216.39 109.149 215.937C112.072 214.791 114.117 211.962 114.346 208.697C114.436 207.409 116.344 207.322 116.253 208.619Z" fill="#4B4B78"/>
<path fill-rule="evenodd" clip-rule="evenodd" d="M188.409 194.38C160.777 204.564 131.481 208.127 102.089 208.226C100.773 208.231 100.719 206.197 102.035 206.193C131.251 206.093 160.364 202.55 187.832 192.427C189.067 191.972 189.636 193.928 188.409 194.38Z" fill="#4B4B78"/>
<path fill-rule="evenodd" clip-rule="evenodd" d="M141.47 91.7414C139.34 94.1871 136.191 97.1362 133.09 97.5229C130.157 97.8885 129.258 95.1921 127.859 92.9837C127.146 91.8607 128.867 90.6834 129.575 91.7983C130.021 92.5032 130.345 93.3567 130.83 94.0212C131.888 95.4731 133.227 95.4331 134.705 94.6803C136.756 93.6345 138.531 92.0576 140.107 90.2494C141.016 89.205 142.381 90.694 141.47 91.7414Z" fill="#4B4B78"/>
<path fill-rule="evenodd" clip-rule="evenodd" d="M138.806 72.1821C140.845 70.8004 143.562 72.905 145.146 74.1054C146.236 74.9332 145.153 77.025 144.049 76.1876C143.367 75.6706 142.666 75.1998 141.921 74.7965C141.467 74.5512 140.395 73.8025 139.851 74.1711C138.654 74.9812 137.609 72.9945 138.806 72.1821Z" fill="#4B4B78"/>
<path fill-rule="evenodd" clip-rule="evenodd" d="M125.996 70.7237C128.277 70.6271 130.392 71.5586 131.887 73.3945C132.813 74.5298 131.23 76.353 130.298 75.2111C129.175 73.833 127.707 73.1168 125.981 73.1906C124.561 73.2498 124.575 70.7838 125.996 70.7237Z" fill="#4B4B78"/>
<path d="M116.247 114.302C116.247 114.302 97.5532 147.179 86.8474 158.644C73.3451 173.103 64.8804 127.169 61.0505 119.902C57.2206 112.636 54.9447 113.023 52.653 116.08M176.231 125.781C176.231 125.781 200.454 147.252 211.15 144.819C221.845 142.386 195.752 86.1156 193.842 81.9106C191.932 77.7057 193.077 73.5004 198.043 72.3544" stroke="#4B4B78" stroke-width="1.98403" stroke-linecap="round" stroke-linejoin="round"/>
<path d="M142.446 142.709C142.312 141.522 143.165 140.451 144.352 140.317L165.938 137.877C167.125 137.743 168.195 138.597 168.329 139.783L169.729 152.188C169.869 153.427 168.934 154.528 167.688 154.59L145.947 155.671C144.807 155.727 143.82 154.888 143.692 153.754L142.446 142.709Z" fill="#C8D5FF" fill-opacity="0.55"/>
<path d="M160.206 140.54L154.419 141.173L145.508 141.989C144.265 142.103 143.377 143.241 143.568 144.474L144.983 153.586C145.151 154.668 146.101 155.453 147.194 155.415L165.651 154.775C166.945 154.73 167.91 153.566 167.714 152.286L166.012 141.173" stroke="#4B4B78" stroke-width="1.44145" stroke-linecap="round"/>
<path d="M152.817 136.607C151.672 133.631 156.047 132.757 154.631 140.576" stroke="#4B4B78" stroke-width="1.44145" stroke-linecap="round" stroke-linejoin="round"/>
<path d="M151.945 152.187C151.826 152.75 151.346 153.577 151.346 153.577C152.079 153.507 152.76 153.133 153.204 152.511C154.038 151.474 153.761 150.517 153.761 150.517C153.761 150.517 154.043 150.509 154.489 150.482C154.483 150.633 154.456 150.78 154.42 150.927C154.308 151.281 154.162 151.617 153.995 151.955C154.007 152.268 153.913 152.589 153.72 152.855C153.72 152.855 155.229 152.023 155.296 150.877C155.304 150.731 155.296 150.578 155.285 150.424C156.388 150.33 157.859 150.149 158.894 149.804C160.754 149.186 161.03 148.29 161.03 148.29C160.937 147.967 160.768 147.683 160.551 147.434C160.217 147.088 159.805 146.749 159.805 146.749L159.599 147.937L159.01 147.207L158.55 148.181L158.214 147.931C158.214 147.931 158.57 145.506 158.206 144.864C157.842 144.223 157.117 144.271 157.117 144.271C157.069 143.721 156.803 143.21 156.39 142.87C156.373 143.33 156.385 143.776 156.417 144.231C156.417 144.231 155.963 143.022 155.244 143.016C155.604 143.732 155.338 143.914 155.338 143.914C155.338 143.914 154.917 143.458 154.492 143.375C154.753 143.822 154.528 144.022 154.347 144.004C154.167 143.987 153.985 143.948 153.812 143.898C153.179 143.832 152.565 144.169 152.248 144.76C151.701 145.762 151.844 146.944 151.844 146.944C151.61 146.6 151.358 146.269 151.077 145.962C150.711 145.576 149.925 145.458 149.925 145.458L150.521 147.967C150.521 147.967 150.237 148.469 150.029 148.901C149.82 149.333 149.568 150.28 149.568 150.28C149.568 150.28 150.351 149.94 150.785 149.585C151.113 149.293 151.409 148.971 151.693 148.617C151.693 148.617 151.752 149.444 151.942 149.886C152.231 150.587 153.089 150.603 153.089 150.603C153.089 150.603 152.329 151.825 151.945 152.187Z" fill="#7699FF"/>
<path fill-rule="evenodd" clip-rule="evenodd" d="M155.146 145.562C156.054 145.493 156.846 146.175 156.915 147.084C156.983 147.993 156.302 148.785 155.394 148.854C154.486 148.923 153.694 148.242 153.625 147.333C153.557 146.424 154.237 145.631 155.146 145.562Z" fill="#1D1D1B"/>
<ellipse opacity="0.1" cx="55.9567" cy="115.298" rx="18.7663" ry="18.7817" fill="#576FED"/>
<ellipse opacity="0.1" cx="55.9567" cy="115.298" rx="13.1364" ry="13.1472" fill="#576FED"/>
<ellipse opacity="0.2" cx="55.9577" cy="115.299" rx="7.50651" ry="7.51268" fill="#576FED"/>
<ellipse opacity="0.1" cx="199.932" cy="66.14" rx="18.7663" ry="18.7817" fill="#576FED"/>
<ellipse opacity="0.1" cx="199.933" cy="66.1399" rx="13.1364" ry="13.1472" fill="#576FED"/>
<ellipse opacity="0.2" cx="199.932" cy="66.1401" rx="7.50651" ry="7.51268" fill="#576FED"/>
<path fill-rule="evenodd" clip-rule="evenodd" d="M91.5225 37.8639C90.803 38.2256 89.8866 38.3992 88.9947 38.5009C88.859 38.4151 88.6671 38.4413 88.5228 38.5487C88.1299 38.5842 87.7486 38.6109 87.4014 38.6361C86.1132 38.7301 84.8335 38.6623 83.5699 38.4763C83.9056 37.3645 84.345 36.2938 84.9889 35.3284C86.499 33.0653 90.8917 30.4574 93.0387 33.297C94.37 35.0566 93.4421 36.899 91.5225 37.8639ZM81.9676 41.7691C81.0642 40.7806 80.1918 39.7387 79.7574 38.4697C80.6568 38.7574 81.5828 38.9948 82.5232 39.1761C82.3013 40.0413 82.1224 40.9157 81.9676 41.7691ZM94.0962 33.0104C92.805 30.7303 89.4625 31.0278 87.4377 31.9967C87.0584 30.4981 86.9477 28.986 87.103 27.436C87.1582 26.8796 86.3099 26.8837 86.2548 27.436C86.0854 29.1309 86.2297 30.7894 86.6716 32.4252C86.4151 32.5896 86.1701 32.7658 85.9411 32.9559C85.3564 31.4809 85.0613 29.9637 85.0648 28.37C85.0658 27.8105 84.218 27.8095 84.217 28.37C84.2135 30.0418 84.5116 31.6479 85.1269 33.1974C85.182 33.3356 85.2822 33.4157 85.395 33.4553C84.0982 34.7649 83.3026 36.5025 82.7549 38.3387C81.6125 38.1224 80.4847 37.8136 79.3784 37.4288C79.3242 37.3969 79.2641 37.3815 79.2005 37.38C78.9615 37.3265 78.7956 37.4894 78.751 37.6949C78.7285 37.7627 78.716 37.8367 78.7315 37.9215C79.1028 40.0048 80.5613 41.5091 81.9322 42.9996C82.1381 43.2231 82.5851 43.1321 82.6412 42.8079C82.8401 41.6556 83.044 40.4724 83.3356 39.3179C84.3528 39.4756 85.3814 39.5655 86.4086 39.5681C86.8931 41.018 87.5254 42.3985 88.3166 43.6998C88.6047 44.174 89.3387 43.7379 89.0486 43.2611C88.3341 42.0846 87.7549 40.8505 87.3025 39.5476C87.6747 39.5306 88.046 39.4982 88.4158 39.4571C88.6723 40.7405 89.2255 41.9017 90.0362 42.9302C90.3789 43.3659 90.9757 42.7473 90.6354 42.3158C89.9415 41.4341 89.49 40.4302 89.2571 39.341C90.2141 39.1828 91.1565 38.9434 92.0694 38.5992C94.3372 37.7442 95.3899 35.2951 94.0962 33.0104Z" fill="white"/>
<rect width="27.2926" height="23.2016" rx="7.24452" transform="matrix(0.977466 0.211093 -0.210761 0.977538 236.933 132.124)" fill="#C8D5FF"/>
<path d="M242.101 138.772L249.529 140.376" stroke="white" stroke-width="2.41484" stroke-linecap="round" stroke-linejoin="round"/>
<path d="M240.562 143.756L255.908 147.07" stroke="white" stroke-width="1.20742" stroke-linecap="round" stroke-linejoin="round"/>
<path d="M239.748 147.533L255.094 150.847" stroke="white" stroke-width="1.20742" stroke-linecap="round" stroke-linejoin="round"/>
<path d="M238.934 151.31L246.509 152.946" stroke="white" stroke-width="1.20742" stroke-linecap="round" stroke-linejoin="round"/>
<path d="M36.9092 52.2299C51.8407 18.9834 109.129 -4.22649 170.988 24.4445" stroke="#C8D5FF" stroke-width="1.44293" stroke-linecap="round" stroke-linejoin="round" stroke-dasharray="7.21 7.21"/>
<path d="M243.874 166.172C242.792 169.24 241.169 171.587 238.644 174.656" stroke="#C8D5FF" stroke-width="1.44293" stroke-linecap="round" stroke-linejoin="round" stroke-dasharray="7.21 7.21"/>
<path fill-rule="evenodd" clip-rule="evenodd" d="M75.1091 226.942C76.001 227.409 76.8274 227.992 77.5669 228.675L80.1731 227.74L82.6418 231.641L80.7229 233.6C81.0254 234.562 81.1992 235.559 81.2398 236.566L83.758 237.761L82.7463 242.267H79.9312C79.4664 243.161 78.8838 243.988 78.1992 244.727L79.1339 247.357L75.2246 249.85L73.2617 247.908C72.303 248.211 71.3082 248.385 70.3036 248.425L69.105 250.945L64.6073 249.933V247.143C63.7143 246.678 62.8877 246.095 62.1496 245.409L59.5269 246.345L57.0471 242.405L59.0155 240.424C58.7099 239.465 58.5361 238.469 58.4987 237.463L55.9805 236.28L56.9922 231.779H59.7743C60.2396 230.884 60.8221 230.055 61.5063 229.314L60.5716 226.683L64.4699 224.213L66.4273 226.183C67.3873 225.877 68.3842 225.703 69.3909 225.665L70.6005 223.145L75.1036 224.157V226.942H75.1091ZM71.1393 232.247C70.1843 232.033 69.1874 232.108 68.2747 232.461C67.362 232.815 66.5745 233.431 66.0118 234.232C65.449 235.033 65.1363 235.984 65.1132 236.963C65.09 237.942 65.3575 238.906 65.8818 239.733C66.406 240.56 67.1635 241.213 68.0585 241.609C68.9535 242.006 69.9457 242.127 70.9098 241.959C71.8739 241.791 72.7665 241.34 73.4749 240.665C74.1832 239.989 74.6754 239.118 74.8892 238.162C75.0312 237.527 75.0469 236.871 74.9353 236.23C74.8237 235.589 74.587 234.976 74.2388 234.427C73.8906 233.878 73.4376 233.402 72.9058 233.028C72.374 232.654 71.7737 232.389 71.1393 232.247Z" fill="white"/>
<path fill-rule="evenodd" clip-rule="evenodd" d="M75.8827 224.881C76.8163 225.259 77.6958 225.759 78.4987 226.367L81.0025 225.181L83.8407 228.825L82.1209 230.963C82.5158 231.891 82.786 232.867 82.9245 233.866L85.5482 234.809L84.9799 239.395L82.1769 239.67C81.8012 240.605 81.3018 241.486 80.692 242.288L81.879 244.816L78.2294 247.679L76.0857 245.937C75.1607 246.332 74.1872 246.602 73.1908 246.74L72.2429 249.367L67.666 248.797L67.3942 246.02C66.4597 245.644 65.5799 245.144 64.7782 244.533L62.258 245.721L59.4051 242.04L61.172 239.875C60.7744 238.95 60.5042 237.976 60.369 236.978L57.7464 236.046L58.3152 231.465L61.0854 231.194C61.4614 230.257 61.9606 229.375 62.5697 228.57L61.3828 226.042L65.0235 223.202L67.1644 224.972C68.0905 224.574 69.0662 224.304 70.0648 224.168L71.0237 221.541L75.606 222.109L75.8773 224.882L75.8827 224.881ZM72.4469 230.55C71.4751 230.431 70.4898 230.602 69.6155 231.043C68.7412 231.484 68.0171 232.175 67.5349 233.028C67.0526 233.88 66.8338 234.857 66.9062 235.834C66.9785 236.811 67.3388 237.745 67.9413 238.518C68.5439 239.29 69.3617 239.866 70.2914 240.173C71.2211 240.48 72.221 240.505 73.1645 240.243C74.108 239.982 74.9529 239.446 75.5924 238.704C76.2318 237.962 76.637 237.047 76.7568 236.074C76.8364 235.428 76.788 234.773 76.6145 234.146C76.4409 233.519 76.1456 232.932 75.7454 232.419C75.3451 231.906 74.8478 231.477 74.2818 231.156C73.7159 230.836 73.0923 230.63 72.4469 230.55V230.55Z" stroke="#C8D5FF" stroke-width="1.80367" stroke-linejoin="round"/>
<ellipse rx="5.33118" ry="5.33386" transform="matrix(0.99984 0.000200807 0.000200293 1.00016 5.3314 203.522)" fill="#C8D5FF"/>
<ellipse rx="5.33118" ry="5.33387" transform="matrix(0.99984 0.000200807 0.000200292 1.00016 12.9486 190.818)" fill="#C8D5FF"/>
<ellipse rx="5.33118" ry="5.33386" transform="matrix(0.99984 0.000200807 0.000200293 1.00016 28.181 196.408)" fill="#C8D5FF"/>
<ellipse rx="5.33118" ry="5.33386" transform="matrix(0.99984 0.000200807 0.000200293 1.00016 25.1341 208.604)" fill="#C8D5FF"/>
<ellipse rx="5.33118" ry="5.33386" transform="matrix(0.99984 0.000200807 0.000200293 1.00016 20.057 220.8)" fill="#C8D5FF"/>
<ellipse rx="5.33118" ry="5.33386" transform="matrix(0.99984 0.000200807 0.000200293 1.00016 43.4134 216.735)" fill="#C8D5FF"/>
<ellipse rx="5.33118" ry="5.33386" transform="matrix(0.99984 0.000200807 0.000200293 1.00016 43.4134 198.44)" fill="#C8D5FF"/>
<ellipse rx="5.33118" ry="5.33387" transform="matrix(0.99984 0.000200807 0.000200292 1.00016 54.0765 190.818)" fill="#C8D5FF"/>
<ellipse rx="5.33118" ry="5.33386" transform="matrix(0.99984 0.000200807 0.000200293 1.00016 56.1068 208.604)" fill="#C8D5FF"/>
<ellipse rx="5.33118" ry="5.33386" transform="matrix(0.99984 0.000200807 0.000200293 1.00016 23.6107 181.671)" fill="#C8D5FF"/>
<path d="M35.2844 178.627L30.2082 179.896M19.2948 185.737L17.7721 187.007M37.5727 197.68L34.5267 197.172M51.2807 204.542L48.4882 202.509M51.0284 212.163L48.7442 213.178M37.576 213.938L30.7221 211.143M39.86 211.906L31.9892 201.236M36.5615 218.257L26.9166 220.541M15.4934 215.966L9.14636 208.852M22.0895 198.947L18.8358 200.217M18.8358 200.217L11.6835 203.01M18.8358 200.217L21.0751 203.52M18.8358 200.217L16.251 196.406M9.14371 195.642L8.12882 197.674M47.978 189.807L29.4476 184.469" stroke="#C8D5FF" stroke-width="1.01546" stroke-linecap="round" stroke-linejoin="round"/>
<ellipse rx="10.1577" ry="10.1607" transform="matrix(0.823807 -0.566871 0.566238 0.824242 222.299 100.089)" fill="#C8D5FF"/>
<ellipse rx="6.65338" ry="6.65534" transform="matrix(0.823807 -0.566871 0.566237 0.824242 235.708 84.4663)" fill="#C8D5FF"/>
<path d="M223.642 94.0971C222.705 94.2764 221.772 94.5747 220.874 94.9968C220.857 95.0044 220.847 95.0209 220.848 95.039C220.865 95.2763 220.906 95.5725 220.948 95.7989C219.995 96.2719 219.131 96.8663 218.366 97.576C218.167 97.4518 217.904 97.3136 217.688 97.2132C217.672 97.206 217.653 97.2097 217.64 97.2219C216.924 97.9101 216.312 98.6744 215.809 99.4867C215.805 99.4936 215.803 99.5016 215.803 99.5096C215.777 102.611 216.779 104.93 218.361 106.812C218.369 106.821 218.381 106.826 218.393 106.827C219.826 106.841 221.045 106.609 222.152 106.25C222.169 106.244 222.181 106.229 222.183 106.211C222.205 105.777 222.193 105.344 222.143 104.915C222.14 104.89 222.115 104.875 222.09 104.881C221.707 104.981 221.321 105.046 220.933 105.085C220.902 105.088 220.88 105.059 220.89 105.03C220.92 104.947 220.949 104.862 220.975 104.779C220.979 104.764 220.992 104.752 221.008 104.749C223.412 104.284 225.413 102.907 226.685 100.842C226.694 100.828 226.709 100.82 226.725 100.821C226.812 100.827 226.902 100.831 226.991 100.832C227.022 100.833 227.041 100.864 227.028 100.892C226.854 101.243 226.653 101.577 226.422 101.9C226.407 101.921 226.413 101.949 226.436 101.961C226.821 102.159 227.221 102.325 227.629 102.462C227.646 102.468 227.666 102.462 227.678 102.448C228.413 101.539 229.066 100.483 229.565 99.1391C229.57 99.1273 229.569 99.1146 229.563 99.1041C228.196 96.61 226.175 95.0178 223.665 94.0999C223.658 94.096 223.65 94.0954 223.642 94.0971ZM221.246 103.018C220.689 103.401 219.895 103.227 219.482 102.627C219.069 102.026 219.183 101.228 219.749 100.838C220.319 100.446 221.112 100.627 221.512 101.23C221.925 101.83 221.811 102.629 221.246 103.018ZM225 100.435C224.443 100.818 223.648 100.644 223.236 100.044C222.823 99.4432 222.937 98.6447 223.502 98.2555C224.072 97.8633 224.865 98.0441 225.266 98.6466C225.679 99.2472 225.569 100.043 225 100.435Z" fill="white"/>
<ellipse rx="7.77391" ry="7.7762" transform="matrix(0.823807 -0.566871 0.566238 0.824242 244.278 110.905)" fill="white"/>
<path d="M246.592 107.796C246.592 107.796 247.395 107.483 247.328 108.243C247.306 108.556 247.105 109.651 246.949 110.835L246.413 114.343C246.413 114.343 246.368 114.857 245.966 114.946C245.565 115.036 244.962 114.634 244.85 114.544C244.761 114.477 243.176 113.472 242.617 112.98C242.461 112.846 242.282 112.578 242.64 112.265L244.984 110.03C245.252 109.762 245.52 109.137 244.404 109.896L241.278 112.019C241.278 112.019 240.92 112.243 240.251 112.042L238.799 111.595C238.799 111.595 238.264 111.259 239.179 110.924C241.412 109.874 244.158 108.801 246.592 107.796Z" fill="#C8D5FF"/>
<path fill-rule="evenodd" clip-rule="evenodd" d="M234.513 80.2909C234.064 80.2912 233.7 80.6552 233.701 81.1038C233.7 81.5523 234.064 81.9163 234.513 81.9167H235.326V81.1041C235.326 80.6555 234.962 80.2915 234.513 80.2909C234.513 80.2909 234.513 80.2909 234.513 80.2909M234.513 82.4591H232.347C231.898 82.4594 231.534 82.8234 231.534 83.272C231.534 83.7205 231.897 84.0845 232.346 84.0852H234.513C234.962 84.0849 235.326 83.7209 235.325 83.2723C235.326 82.8234 234.962 82.4594 234.513 82.4591Z" fill="white"/>
<path fill-rule="evenodd" clip-rule="evenodd" d="M239.659 83.272C239.66 82.8234 239.296 82.4594 238.847 82.4591C238.398 82.4594 238.034 82.8234 238.034 83.272V84.0852H238.847C239.296 84.0849 239.66 83.7209 239.659 83.272ZM237.493 83.272V81.1038C237.493 80.6555 237.13 80.2915 236.681 80.2909C236.232 80.2912 235.868 80.6552 235.868 81.1038V83.272C235.868 83.7205 236.231 84.0845 236.68 84.0852C237.129 84.0849 237.493 83.7209 237.493 83.272Z" fill="white"/>
<path fill-rule="evenodd" clip-rule="evenodd" d="M236.68 88.4216C237.129 88.4213 237.493 88.0573 237.492 87.6087C237.493 87.1602 237.129 86.7961 236.68 86.7958H235.867V87.6087C235.867 88.0569 236.231 88.421 236.68 88.4216ZM236.68 86.2531H238.846C239.295 86.2528 239.659 85.8888 239.659 85.4402C239.659 84.9916 239.296 84.6276 238.846 84.627H236.68C236.231 84.6273 235.867 84.9913 235.868 85.4399C235.867 85.8888 236.231 86.2528 236.68 86.2531Z" fill="white"/>
<path fill-rule="evenodd" clip-rule="evenodd" d="M231.534 85.4401C231.534 85.8887 231.898 86.2527 232.347 86.253C232.796 86.2527 233.16 85.8887 233.159 85.4401V84.6272H232.347C231.898 84.6275 231.534 84.9915 231.534 85.4401ZM233.701 85.4401V87.6083C233.7 88.0569 234.064 88.4209 234.513 88.4215C234.962 88.4212 235.326 88.0572 235.325 87.6086V85.4408C235.326 84.9922 234.962 84.6282 234.513 84.6275C234.064 84.6275 233.7 84.9915 233.701 85.4401C233.701 85.4401 233.701 85.4404 233.701 85.4401Z" fill="white"/>
</svg>
