<svg width="286" height="195" viewBox="0 0 286 195" fill="none" xmlns="http://www.w3.org/2000/svg">
<path fill-rule="evenodd" clip-rule="evenodd" d="M216.874 166.324C216.874 173.231 186.114 178.831 148.169 178.831C110.224 178.831 79.4639 177.65 79.4639 166.324C79.4639 153.816 110.224 153.816 148.169 153.816C186.114 153.816 216.874 153.057 216.874 166.324Z" fill="#DDE5FF"/>
<path fill-rule="evenodd" clip-rule="evenodd" d="M232.598 159.665C232.598 165.118 219.633 169.537 203.64 169.537C187.646 169.537 174.681 168.605 174.681 159.665C174.681 149.794 187.646 149.794 203.64 149.794C219.633 149.794 232.598 149.194 232.598 159.665Z" fill="#DDE5FF"/>
<path fill-rule="evenodd" clip-rule="evenodd" d="M117.221 157.665C117.221 163.118 103.052 167.537 85.5738 167.537C68.0959 167.537 53.927 166.605 53.927 157.665C53.927 147.794 68.0959 147.794 85.5738 147.794C103.052 147.794 117.221 147.194 117.221 157.665Z" fill="#DDE5FF"/>
<path d="M221.886 113.067C209.705 117.514 190.781 118.711 182.842 118.753C182.842 119.132 182.842 121.28 184.042 124.755C185.002 127.535 187.138 133.495 188.085 136.127C191.034 142.129 197.259 154.739 198.573 157.166C199.786 159.44 200.847 159.882 201.227 159.819L201.858 158.05H202.553L202.996 159.819H203.817C204.596 158.913 206.256 156.875 206.66 155.965C218.095 133.726 221.696 114.457 221.886 113.067Z" fill="#B9FABA"/>
<path fill-rule="evenodd" clip-rule="evenodd" d="M210.158 46.1625C210.158 46.1625 210.976 47.5403 207.451 50.2592C203.926 52.9781 198.888 55.5178 195.958 56.3409C193.029 57.164 190.318 58.7021 189.965 59.6322C189.613 60.5624 188.352 55.3392 189.194 52.3341C190.036 49.329 193.773 43.7482 197.721 42.4603C201.669 41.1724 204.913 41.9388 206.464 42.8792C208.015 43.8197 210.158 46.1625 210.158 46.1625Z" fill="#C8D5FF"/>
<path fill-rule="evenodd" clip-rule="evenodd" d="M209.906 47.3921C209.906 47.3921 208.648 49.7364 206.816 51.2824C204.985 52.8284 203.372 53.8122 203.513 55.0772C203.653 56.3421 205.615 58.38 208.139 59.153C210.662 59.926 211.363 59.7152 211.363 59.7152C211.363 59.7152 210.382 56.1313 210.872 52.5473C211.267 49.6644 209.906 47.3921 209.906 47.3921Z" fill="#C8D5FF"/>
<path fill-rule="evenodd" clip-rule="evenodd" d="M190.266 99.303C189.974 100.84 189.499 102.672 189.485 104.231C189.466 106.433 191.484 108.47 193.13 109.804C193.831 109.088 194.346 108.166 195.095 107.504C195.472 107.171 196.149 107.032 196.467 106.722C197.116 106.088 196.6 105.917 196.269 105.207C195.837 104.282 195.66 103.218 195.57 102.21C195.355 99.7904 195.802 97.3558 195.813 94.9356C195.823 92.5903 196.345 89.0123 195.204 86.8589C195.143 86.7441 195.141 86.6342 195.168 86.5358C194.936 86.4919 194.719 86.4361 194.541 86.3831C194.503 86.3714 194.465 86.3574 194.427 86.3439C194.415 86.3736 194.41 86.4035 194.39 86.4339C191.828 90.2083 191.104 94.9011 190.266 99.303ZM196.325 84.7305C196.201 84.221 195.988 83.7429 195.867 83.2346C195.438 83.4325 195.05 83.6467 194.713 84.0148C194.535 84.2093 194.162 84.5422 194.124 84.8068C194.039 85.3954 194.906 85.5595 195.307 85.6116C195.523 85.6394 196.103 85.775 196.295 85.6564C196.514 85.5212 196.378 84.9478 196.325 84.7305ZM193.682 85.8905C193.262 85.4926 193.052 84.9299 193.336 84.329C193.803 83.3396 194.759 82.7293 195.723 82.3052C195.952 82.2051 196.167 82.292 196.297 82.4424C196.481 82.4355 196.656 82.5277 196.696 82.7658C196.868 83.7947 197.562 84.8094 197.239 85.8782C197.082 86.3942 196.619 86.5819 196.093 86.6116C196.991 88.5101 196.691 90.9321 196.714 92.9485C196.746 95.9001 196.271 98.8982 196.465 101.837C196.577 103.525 197.133 104.391 197.731 105.859C197.871 106.201 198.132 106.513 197.96 106.894C197.765 107.326 197.078 107.419 196.711 107.597C195.371 108.248 194.742 109.5 193.718 110.512C193.593 110.636 193.449 110.656 193.317 110.623C193.151 110.744 192.914 110.784 192.711 110.623C191.05 109.314 189.497 107.598 188.755 105.593C188.19 104.064 188.915 102.165 189.137 100.607C189.839 95.6816 190.757 90.1572 193.598 85.9726C193.622 85.937 193.654 85.9162 193.682 85.8905Z" fill="white"/>
<path fill-rule="evenodd" clip-rule="evenodd" d="M210.845 117.001C211.088 119.124 213.053 120.439 214.792 121.566C215.28 121.882 214.837 122.616 214.344 122.297C212.294 120.97 210.216 119.459 209.934 116.991C209.871 116.44 210.782 116.454 210.845 117.001Z" fill="white"/>
<path fill-rule="evenodd" clip-rule="evenodd" d="M186.188 123.261C187.617 122.808 188.609 121.585 188.709 120.131C188.749 119.557 189.684 119.558 189.644 120.135C189.515 122.01 188.291 123.547 186.444 124.132C185.875 124.313 185.622 123.441 186.188 123.261Z" fill="white"/>
<path fill-rule="evenodd" clip-rule="evenodd" d="M193.723 85.5076C193.747 85.4711 193.779 85.4499 193.808 85.4237C193.389 85.0204 193.182 84.4482 193.469 83.8346C193.941 82.8243 194.901 82.1981 195.869 81.7614C196.098 81.6575 196.314 81.7454 196.443 81.8981C196.627 81.8902 196.802 81.9834 196.841 82.2256C197.008 83.2721 197.698 84.303 197.368 85.3932C197.209 85.9197 196.745 86.1134 196.218 86.146C197.108 88.076 196.795 90.5441 196.808 92.5982C196.825 95.6047 196.335 98.6609 196.515 101.653C196.618 103.373 197.17 104.252 197.763 105.744C197.901 106.092 198.16 106.408 197.986 106.798C197.789 107.239 197.099 107.337 196.733 107.519C195.386 108.19 194.751 109.468 193.721 110.504C193.595 110.631 193.45 110.652 193.318 110.62C193.152 110.743 192.914 110.785 192.712 110.623C191.054 109.297 189.508 107.558 188.776 105.518C188.216 103.963 188.953 102.025 189.183 100.437C189.91 95.4167 190.857 89.7848 193.723 85.5076Z" fill="#FEF0A9"/>
<path fill-rule="evenodd" clip-rule="evenodd" d="M208.783 71.8298C209.255 66.2978 209.833 61.2537 208.337 55.8014C207.672 53.3821 206.772 50.8784 205.444 48.7336C204.044 46.4712 201.183 43.7916 198.333 44.9806C193.658 46.9307 192.835 52.4279 192.366 56.8221C192.098 59.3363 191.957 61.8472 192.228 64.3695C192.518 67.0683 193.001 70.5374 194.489 72.8606C194.81 73.3615 194.008 73.8182 193.688 73.3185C192.143 70.9046 191.684 67.5473 191.349 64.7587C190.964 61.5558 191.225 58.3571 191.626 55.1716C192.189 50.7061 193.669 45.5982 198.448 43.9375C203.057 42.3356 206.478 48.3084 207.865 51.6435C209.084 54.5729 209.924 57.6809 210.287 60.8311C210.704 64.4372 210.015 68.2305 209.708 71.8248C209.658 72.4102 208.733 72.419 208.783 71.8298Z" fill="#4B4B78"/>
<path fill-rule="evenodd" clip-rule="evenodd" d="M213.88 85.614C215.834 85.2272 216.36 82.8504 216.717 81.246C216.843 80.6794 217.766 80.9277 217.64 81.4935C217.207 83.4364 216.487 86.0271 214.144 86.4905C213.549 86.6085 213.283 85.7318 213.88 85.614Z" fill="#4B4B78"/>
<path fill-rule="evenodd" clip-rule="evenodd" d="M216.539 81.3254C215.29 80.7272 214.029 80.1554 212.756 79.6127C212.229 79.3883 212.484 78.4098 213.017 78.6371C214.364 79.2111 215.7 79.8135 217.023 80.4469C217.546 80.697 217.06 81.5747 216.539 81.3254Z" fill="#4B4B78"/>
<path fill-rule="evenodd" clip-rule="evenodd" d="M212.256 78.7804C211.811 76.5932 210.707 74.6611 209.015 73.1315C208.584 72.7411 209.224 72.1271 209.656 72.5177C211.45 74.1407 212.658 76.2335 213.13 78.5558C213.243 79.1111 212.37 79.3391 212.256 78.7804Z" fill="#4B4B78"/>
<path fill-rule="evenodd" clip-rule="evenodd" d="M209.324 73.0979C207.211 75.5845 203.237 77.8856 199.947 78.0824C197.127 78.2505 193.562 77.3906 193.329 74.0751C193.287 73.4825 194.207 73.4792 194.248 74.0678C194.528 78.0396 200.435 77.4141 202.867 76.3453C204.98 75.4167 207.169 74.2208 208.678 72.4435C209.061 71.9921 209.706 72.6481 209.324 73.0979Z" fill="#4B4B78"/>
<path fill-rule="evenodd" clip-rule="evenodd" d="M211.688 75.3686C210.621 77.7611 208.466 79.0056 206.246 80.162C203.477 81.6044 200.612 82.8261 197.686 83.8898C197.421 83.9861 197.083 83.7345 197.107 83.4461C197.16 82.8102 197.215 82.1035 197.064 81.4801C197.006 81.2553 196.949 81.0302 196.891 80.8054C196.689 80.0232 196.373 79.9407 195.942 80.5586C194.968 81.0069 194.001 82.2946 193.24 83.0398C193.074 83.2028 192.748 83.2372 192.591 83.0392C191.443 81.5979 190.538 79.9225 189.945 78.1662C189.753 77.5984 190.641 77.3523 190.832 77.9159C191.367 79.4983 192.21 81.0791 193.247 82.3804C193.03 82.3804 192.814 82.3803 192.598 82.3798C193.841 81.1611 195.062 79.9272 196.544 79.0108C196.751 78.883 197.058 78.9595 197.17 79.1787C197.877 80.5512 198.156 81.8847 198.025 83.4352C197.833 83.2874 197.64 83.1396 197.447 82.991C200.037 82.0498 202.576 80.9809 205.044 79.7385C207.339 78.5824 209.787 77.3924 210.898 74.8996C211.142 74.3526 211.931 74.8242 211.688 75.3686Z" fill="#4B4B78"/>
<path fill-rule="evenodd" clip-rule="evenodd" d="M222.357 110.682C221.554 101.775 219.037 93.5178 215.577 85.2654C215.349 84.7218 216.239 84.4888 216.464 85.0254C219.959 93.3621 222.467 101.686 223.277 110.677C223.329 111.264 222.409 111.264 222.357 110.682Z" fill="#4B4B78"/>
<path fill-rule="evenodd" clip-rule="evenodd" d="M196.84 82.2319C196.98 83.2893 197.615 84.3208 197.282 85.432C196.956 86.5185 195.468 86.2474 194.708 86.0172C193.869 85.7635 193.167 84.906 193.611 83.9247C194.077 82.8926 195 82.2401 195.927 81.7791C196.439 81.5248 196.863 82.3231 196.346 82.5797C195.809 82.8473 195.335 83.0863 194.926 83.5683C194.753 83.773 194.39 84.126 194.347 84.3997C194.253 85.01 195.073 85.1582 195.453 85.2028C195.657 85.2263 196.205 85.3525 196.39 85.2255C196.601 85.0806 196.486 84.492 196.441 84.2691C196.319 83.666 196.077 83.1129 195.995 82.4964C195.918 81.9091 196.762 81.6402 196.84 82.2319Z" fill="#4B4B78"/>
<path fill-rule="evenodd" clip-rule="evenodd" d="M196.174 85.9793C197.172 87.9445 196.824 90.5347 196.829 92.6739C196.835 95.6981 196.336 98.774 196.503 101.784C196.6 103.513 197.144 104.395 197.727 105.894C197.862 106.243 198.119 106.56 197.945 106.953C197.747 107.397 197.063 107.498 196.697 107.684C195.359 108.363 194.723 109.651 193.696 110.697C193.28 111.122 192.641 110.466 193.059 110.041C193.793 109.293 194.319 108.308 195.092 107.603C195.469 107.259 196.143 107.11 196.462 106.789C197.113 106.134 196.602 105.963 196.279 105.239C195.858 104.295 195.69 103.206 195.61 102.174C195.418 99.6971 195.884 97.198 195.917 94.718C195.948 92.3149 196.498 88.6439 195.383 86.4475C195.115 85.92 195.905 85.4495 196.174 85.9793Z" fill="#4B4B78"/>
<path fill-rule="evenodd" clip-rule="evenodd" d="M192.725 110.626C191.065 109.299 189.514 107.557 188.779 105.518C188.218 103.961 188.955 102.023 189.185 100.434C189.912 95.4118 190.858 89.778 193.727 85.5004C194.056 85.0102 194.852 85.4717 194.52 85.9672C191.931 89.8254 191.184 94.6106 190.324 99.1002C190.024 100.668 189.539 102.538 189.518 104.126C189.487 106.476 191.7 108.633 193.38 109.976C193.842 110.344 193.184 110.992 192.725 110.626Z" fill="#4B4B78"/>
<path fill-rule="evenodd" clip-rule="evenodd" d="M222.873 111.456C216.27 113.422 209.805 115.037 202.968 115.983C195.715 116.986 188.403 117.406 181.083 117.483C180.485 117.489 180.479 116.565 181.076 116.559C188.091 116.484 195.104 116.105 202.06 115.181C209.13 114.243 215.808 112.595 222.627 110.564C223.2 110.394 223.443 111.286 222.873 111.456Z" fill="#4B4B78"/>
<path fill-rule="evenodd" clip-rule="evenodd" d="M193.796 74.1992C188.941 79.5131 187.031 87.4927 185.421 94.2838C184.6 97.7438 183.929 101.229 183.352 104.738C182.678 108.84 181.732 112.939 181.855 117.122C181.872 117.717 180.935 117.717 180.917 117.124C180.795 112.967 181.726 108.904 182.392 104.827C183.024 100.956 183.763 97.1114 184.692 93.3008C186.322 86.6131 188.346 78.7817 193.133 73.5405C193.534 73.1009 194.196 73.7603 193.796 74.1992Z" fill="#4B4B78"/>
<path fill-rule="evenodd" clip-rule="evenodd" d="M222.775 110.988C219.967 125.639 215.053 140.295 208.45 153.714C207.984 154.66 204.965 161.591 202.925 160.189C202.278 159.745 202.318 158.057 202.244 157.405C201.96 154.895 201.853 152.364 201.737 149.844C201.405 142.644 201.269 135.439 201.053 128.237C201.035 127.643 201.967 127.641 201.984 128.233C202.153 133.819 202.276 139.407 202.475 144.993C202.634 149.506 202.59 154.177 203.345 158.648C203.369 158.793 203.381 159.176 203.485 159.303C203.757 159.633 203.223 159.442 203.632 159.318C204.21 159.144 204.766 158.218 205.079 157.779C206.333 156.022 207.282 154.033 208.2 152.09C210.844 146.492 213.032 140.674 215.145 134.861C218.027 126.931 220.284 119.045 221.875 110.746C221.986 110.165 222.886 110.409 222.775 110.988Z" fill="#4B4B78"/>
<path fill-rule="evenodd" clip-rule="evenodd" d="M182.669 116.995C183.786 121.876 184.707 126.888 186.644 131.527C188.188 135.221 189.822 138.886 191.535 142.506C192.787 145.153 194.212 147.713 195.517 150.335C196.451 152.213 197.39 154.09 198.415 155.92C198.849 156.694 199.288 157.478 199.793 158.209C200.7 159.521 201.203 159.556 201.474 157.759C201.561 157.176 202.445 157.418 202.358 157.996C201.554 163.346 198.53 158.033 197.378 155.938C195.497 152.518 193.799 148.989 191.996 145.529C189.88 141.469 188.08 137.215 186.284 133.006C184.123 127.944 183.009 122.587 181.786 117.237C181.654 116.663 182.538 116.419 182.669 116.995Z" fill="#4B4B78"/>
<path fill-rule="evenodd" clip-rule="evenodd" d="M214.744 122.987C212.719 121.569 210.671 119.947 210.463 117.2C210.416 116.587 211.336 116.574 211.382 117.183C211.56 119.546 213.5 120.952 215.219 122.156C215.701 122.494 215.231 123.328 214.744 122.987Z" fill="#4B4B78"/>
<path fill-rule="evenodd" clip-rule="evenodd" d="M189.644 120.135C189.515 122.01 188.291 123.547 186.444 124.133C185.875 124.313 185.623 123.441 186.188 123.262C187.617 122.808 188.609 121.586 188.709 120.131C188.749 119.557 189.684 119.557 189.644 120.135Z" fill="#4B4B78"/>
<path d="M172.56 49.675C172.343 49.9359 172.14 50.1789 171.969 50.3839C171.918 50.413 171.864 50.4437 171.808 50.4757C171.972 51.0849 172.091 51.6703 172.177 52.0943C172.226 52.3345 172.264 52.5229 172.294 52.6345C172.629 53.8839 173.014 55.1198 173.434 56.3434C174.39 59.1261 175.531 61.8501 176.832 64.4904C179.731 70.3724 183.478 76.0164 188.581 80.2298C189.034 80.604 189.69 79.9627 189.234 79.5865C182.789 74.2643 178.429 66.6574 175.388 58.9892C174.179 55.9373 173.329 52.8538 172.56 49.675Z" fill="#4B4B78"/>
<path fill-rule="evenodd" clip-rule="evenodd" d="M221.752 113.503C209.285 117.911 196.133 119.319 182.97 119.164C182.381 119.157 182.375 118.239 182.964 118.246C196.049 118.4 209.118 116.999 221.511 112.617C222.068 112.42 222.305 113.307 221.752 113.503Z" fill="#4B4B78"/>
<path fill-rule="evenodd" clip-rule="evenodd" d="M201.998 67.6021C201.024 68.5804 199.582 69.7483 198.151 69.8477C196.798 69.9416 196.37 68.7981 195.714 67.8483C195.38 67.3653 196.169 66.9083 196.502 67.3878C196.711 67.691 196.864 68.0537 197.092 68.3408C197.587 68.968 198.205 68.9781 198.885 68.6935C199.828 68.298 200.641 67.6753 201.361 66.9521C201.777 66.5343 202.414 67.1832 201.998 67.6021Z" fill="#4B4B78"/>
<path fill-rule="evenodd" clip-rule="evenodd" d="M152.972 48.9911C152.972 48.9911 151.481 53.4 146.854 57.183C140.662 62.2473 138.173 60.7028 134.881 62.5212C131.642 64.3115 131.077 66.0517 131.077 66.0517C131.077 66.0517 130.622 64.5145 131.632 62.6983C131.632 62.6983 130.591 62.1827 128.912 63.5692C128.912 63.5692 129.004 60.6939 131.963 58.2839C131.963 58.2839 130.327 58.935 129.045 58.0025C129.045 58.0025 130.504 57.2715 131.294 56.4214C132.084 55.5714 132.252 54.9306 132.252 54.9306C132.252 54.9306 131.659 55.0727 130.578 55.0287C129.509 54.9857 128.976 53.8948 128.976 53.8948C128.976 53.8948 131.669 54.0434 133.595 52.3457C134.16 51.847 138.762 46.4628 144.018 45.181C149.273 43.8992 152.972 48.9911 152.972 48.9911Z" fill="#C8D5FF"/>
<path fill-rule="evenodd" clip-rule="evenodd" d="M153.671 50.0473C153.671 50.0473 152.74 52.1574 151.569 54.0308C150.428 55.8555 148.461 57.6655 148.461 57.6655C148.461 57.6655 150.583 61.4639 153.11 61.3215C155.639 61.1789 156.169 58.0634 156.153 57.0859C156.102 54.051 153.671 50.0473 153.671 50.0473Z" fill="#C8D5FF"/>
<path fill-rule="evenodd" clip-rule="evenodd" d="M165.056 124.4C164.982 124.463 161.971 127.16 147.139 127.062C132.308 126.965 124.478 124.931 124.478 124.931C124.478 124.931 127.604 143.824 128.115 148.182C128.626 152.54 130.962 167.614 131.588 169.315C132.215 171.016 132.655 172.752 133.537 172.515C134.419 172.278 139.01 157.131 140.643 148.468C142.275 139.806 145.352 138.754 147.116 139.17C148.879 139.586 149.949 141.316 150.713 152.967C151.476 164.619 154.91 172.241 156.072 171.967C157.234 171.693 159.447 169.201 161.101 158.871C162.756 148.542 165.056 124.4 165.056 124.4Z" fill="#7699FF"/>
<path fill-rule="evenodd" clip-rule="evenodd" d="M164.687 125.787C164.012 137.792 162.282 149.713 159.422 161.399C158.851 163.73 158.541 167.276 157.169 169.311C155.867 171.24 155.136 170.101 154.348 168.553C153.534 166.954 153.001 165.091 152.559 163.356C151.158 157.854 151.015 152.148 150.425 146.529C150.182 144.211 150.369 138.38 147.201 137.746C144.121 137.13 141.861 142.46 140.994 144.551C139.022 149.303 139.337 154.454 138.263 159.455C137.694 162.104 137.094 164.751 136.289 167.341C135.929 168.499 135.602 170.864 134.349 170.779C133.038 170.69 132.447 167.372 132.124 166.163C130.427 159.82 128.84 153.123 128.08 146.623C127.28 139.78 126.479 132.936 125.679 126.092C125.592 125.343 124.394 125.335 124.483 126.092C125.239 132.556 125.995 139.019 126.751 145.482C127.466 151.598 129.122 157.816 130.361 163.855C130.704 165.521 131.684 173.284 134.828 172.478C136.307 172.098 136.717 169.863 137.111 168.687C138.147 165.601 138.852 162.417 139.53 159.239C140.768 153.447 140.461 146.944 143.695 141.845C144.032 141.315 144.926 139.865 145.281 139.768C145.799 139.941 146.316 140.114 146.834 140.287C147.985 140.184 148.558 140.598 148.552 141.531C149.284 142.68 149.081 145.112 149.229 146.529C149.555 149.646 149.746 152.775 150.089 155.89C150.602 160.558 151.19 166.645 154.09 170.565C156.538 173.874 158.087 170.686 158.907 168.043C163.119 154.469 165.088 139.93 165.883 125.787C165.926 125.024 164.729 125.027 164.687 125.787Z" fill="#4B4B78"/>
<path fill-rule="evenodd" clip-rule="evenodd" d="M143.276 109.199C143.377 108.898 143.458 108.598 143.479 108.279C143.905 108.298 144.433 108.298 145.001 108.298C145.001 108.617 145.001 108.936 144.96 109.236C144.676 111.282 141.672 112.558 141.672 112.558C142.078 112.108 142.302 111.545 142.322 110.982C142.687 110.4 143.012 109.818 143.276 109.199Z" fill="#576FED"/>
<mask id="mask0_59_12739" style="mask-type:alpha" maskUnits="userSpaceOnUse" x="134" y="95" width="23" height="19">
<path fill-rule="evenodd" clip-rule="evenodd" d="M134.064 95.0227H156.298V113.509H134.064V95.0227Z" fill="white"/>
</mask>
<g mask="url(#mask0_59_12739)">
<path fill-rule="evenodd" clip-rule="evenodd" d="M137.025 113.509C137.025 113.509 138.057 112.095 138.362 111.101C139.145 110.508 140.769 108.424 140.769 108.424C140.769 108.424 139.126 108.271 138.668 106.971C138.362 106.149 138.362 104.658 138.362 104.658C137.77 105.251 137.159 105.786 136.49 106.264C135.612 106.837 134.064 107.334 134.064 107.334C134.064 107.334 134.676 105.671 135.134 104.926C135.593 104.18 136.204 103.32 136.204 103.32L135.402 98.7315C135.402 98.7315 136.891 99.0565 137.541 99.8021C138.037 100.395 138.477 101.026 138.878 101.676C138.878 101.676 138.763 99.5344 139.947 97.8139C140.635 96.8006 141.858 96.2845 143.061 96.4948C143.386 96.6095 143.729 96.705 144.073 96.7624C144.417 96.8197 144.875 96.4948 144.436 95.6536C145.238 95.8639 145.983 96.7433 145.983 96.7433C145.983 96.7433 146.518 96.4565 145.926 95.1183C147.301 95.233 148.008 97.4697 148.008 97.4697C148.008 96.6477 148.046 95.8448 148.142 95.0227C148.887 95.6918 149.326 96.6477 149.345 97.6418C149.345 97.6418 150.739 97.6609 151.351 98.8653C151.962 100.07 150.949 104.371 150.949 104.371L151.561 104.868L152.573 103.186L153.604 104.581L154.158 102.479C154.158 102.479 154.903 103.148 155.495 103.817C155.877 104.295 156.164 104.83 156.298 105.423C156.298 105.423 155.648 106.99 152 107.831C148.352 108.673 142.068 108.367 142.068 108.367C142.068 108.367 142.469 110.126 140.731 111.865C139.795 112.917 138.439 113.49 137.025 113.509Z" fill="#7699FF"/>
</g>
<path fill-rule="evenodd" clip-rule="evenodd" d="M145.238 99.7201C146.945 99.7201 148.329 101.104 148.329 102.811C148.329 104.518 146.945 105.901 145.238 105.901C143.531 105.901 142.148 104.518 142.148 102.811C142.148 101.104 143.531 99.7201 145.238 99.7201Z" fill="#1D1D1B"/>
<path opacity="0.3" fill-rule="evenodd" clip-rule="evenodd" d="M146.621 104.475C147.019 104.106 147.277 103.608 147.357 103.073C147.535 102.059 146.78 101.1 145.666 100.934C145.547 100.916 145.428 100.916 145.308 100.916C143.996 100.953 142.883 101.856 142.704 103.073C142.684 103.184 142.684 103.276 142.684 103.387C142.624 103.129 142.604 102.852 142.644 102.594C142.843 101.248 144.076 100.234 145.547 100.197C146.78 100.16 147.814 101.082 147.854 102.225C147.854 102.373 147.854 102.483 147.834 102.612C147.714 103.369 147.297 104.032 146.621 104.475Z" fill="white"/>
<path fill-rule="evenodd" clip-rule="evenodd" d="M146.319 100.32C146.918 100.482 147.598 101.022 147.31 101.508C147.103 101.868 146.464 101.274 145.866 101.13C145.267 100.986 144.38 100.986 144.545 100.608C144.813 100.068 145.721 100.158 146.319 100.32Z" fill="white"/>
<path fill-rule="evenodd" clip-rule="evenodd" d="M153.636 104.787C152.362 104.981 151.049 104.999 149.755 104.857L150.702 103.405L151.512 104.556L152.439 103.228L153.482 104.521L154.042 102.573L155.394 103.813C155.529 103.937 155.664 104.45 153.636 104.787Z" fill="#F76F60"/>
<path d="M132.776 102.836L146.944 84.5555L156.806 100.728C158.126 102.893 157.943 105.653 156.35 107.624L144.898 121.789L133.099 109.338C131.402 107.547 131.265 104.786 132.776 102.836Z" stroke="#4B4B78"/>
<path fill-rule="evenodd" clip-rule="evenodd" d="M142.085 71.3545C142.106 71.3604 142.128 71.3664 142.149 71.3723C142.169 71.3777 142.187 71.3708 142.206 71.3739C142.371 71.6799 142.639 72.4814 142.721 72.6392C142.922 73.0289 143.132 73.3975 143.439 73.6849C143.923 74.1356 144.491 74.281 145.145 74.175C146.873 73.8945 148.417 72.1557 149.315 70.4861C149.724 69.7254 148.8 69.0229 148.389 69.787C147.667 71.1291 145.541 73.8943 144.118 72.503C143.492 71.8903 143.44 70.2108 142.554 69.9664C142.272 69.8891 141.895 70.0537 141.793 70.4222C141.783 70.4575 141.774 70.4929 141.764 70.5276C141.67 70.8652 141.769 71.2691 142.085 71.3545Z" fill="#4B4B78"/>
<path fill-rule="evenodd" clip-rule="evenodd" d="M135.515 76.5035C134.787 71.5822 134.684 66.6361 135.367 61.6965C135.922 57.6728 136.546 53.2359 139.151 49.9771C144.005 43.9036 152.526 49.2388 154.346 55.2932C155.452 58.9714 155.232 63.1645 155.02 67.1974C154.896 69.5576 154.775 71.8629 154.924 73.978C155.044 75.679 155.935 76.6536 156.94 77.753C157.009 77.8283 157.078 77.9042 157.148 77.981L157.16 77.9784L157.16 77.9981L158.044 79.0371L158.053 79.0479C158.064 79.0618 158.076 79.0758 158.087 79.09C158.784 80.0082 159.401 80.9833 159.967 81.9863L159.98 81.9762L160.665 83.3017L160.671 83.3052L160.743 83.4475C160.844 83.6447 160.945 83.8419 161.041 84.042C162.745 87.6108 163.993 91.407 164.817 95.2666C166.54 103.327 166.329 111.635 164.352 119.626L164.35 119.629C164.442 119.609 164.533 119.589 164.624 119.57C164.74 119.545 164.857 119.519 164.974 119.493C165.301 119.417 165.608 119.593 165.71 119.906C166.935 123.67 165.753 125.558 161.826 126.074C160.329 126.271 158.827 126.429 157.323 126.558C157.938 129.728 159.192 133.387 163.192 132.9C163.955 132.807 163.945 133.993 163.192 134.085C158.553 134.649 156.839 130.437 156.135 126.708C156.133 126.697 156.135 126.687 156.136 126.676C156.136 126.672 156.137 126.668 156.137 126.663C156.137 126.659 156.137 126.655 156.137 126.65C153.098 126.881 150.049 127.006 147.003 127.091C147.295 127.32 147.392 127.832 146.979 128.094C146.685 128.282 147.071 129.928 147.318 130.984C147.401 131.336 147.468 131.622 147.49 131.767C147.596 132.484 147.639 133.19 147.519 133.909C147.31 135.154 146.719 136.159 145.613 136.804C144.947 137.193 144.346 136.168 145.009 135.781C146.865 134.699 146.432 132.509 146.071 130.689C146.012 130.387 145.954 130.096 145.909 129.821C145.894 129.731 145.878 129.639 145.861 129.546C145.705 128.657 145.53 127.666 146.329 127.11C145.622 127.129 144.914 127.146 144.207 127.163C143.717 127.174 143.225 127.186 142.732 127.199C139.918 127.27 137.077 127.342 134.259 127.198C134.324 129.078 134.105 130.936 132.613 132.295C131.344 133.452 129.572 134.013 127.86 133.865C127.097 133.799 127.093 132.613 127.86 132.68C129.265 132.802 130.71 132.407 131.767 131.458C133.041 130.315 133.134 128.703 133.062 127.122C131.148 126.979 129.247 126.723 127.375 126.279C127.202 126.238 127.022 126.198 126.837 126.157C125.407 125.839 123.711 125.462 123.031 124.106C122.725 123.497 122.634 122.796 122.669 122.082C122.93 120.903 123.345 118.906 123.294 118.652C123.291 118.635 123.282 118.586 123.267 118.51C123.372 110.392 124.323 102.296 126.441 94.4402C127.173 91.724 128.052 89.0492 129.068 86.4247C129.88 84.3239 130.295 83.2703 131.241 81.2938C132.21 79.2701 133.382 77.417 135.515 76.5035ZM163.198 119.312C165.5 110.01 165.329 100.261 162.494 91.0847C161.378 87.4721 159.912 83.76 157.71 80.6089C156.122 82.8507 154.092 84.9182 151.588 86.1392C151.492 86.1861 151.392 86.238 151.29 86.2913C150.769 86.5639 150.179 86.8726 149.599 86.7304C149.179 86.6275 148.827 86.1936 148.487 85.7745C148.107 85.3061 147.742 84.856 147.314 84.9064C146.863 84.959 146.542 85.3921 146.209 85.8416C145.886 86.2774 145.551 86.7287 145.075 86.8637C144.432 87.0466 143.606 86.6601 142.92 86.3391C142.719 86.2452 142.531 86.1568 142.362 86.09C139.138 84.8128 136.166 83.0805 133.403 81.0059C132.796 80.5509 133.393 79.5224 134.006 79.9827C135.91 81.4117 137.9 82.6937 140.034 83.76C140.288 83.8872 140.562 84.0409 140.849 84.2016C141.734 84.6976 142.737 85.26 143.632 85.311C144.438 85.8999 145.103 85.7263 145.629 84.7885C145.911 84.4666 146.192 84.1445 146.473 83.8224L146.864 83.375C147.074 83.1338 147.497 83.1575 147.711 83.375C149.317 85.0059 150.645 85.4822 152.611 84.1238C154.218 83.013 155.523 81.6285 156.646 80.0598C156.664 79.9537 156.703 79.8489 156.795 79.7517C156.847 79.6972 156.9 79.6427 156.952 79.5888C156.935 79.5664 156.917 79.5442 156.899 79.522L156.849 79.4606C156.803 79.4035 156.757 79.3465 156.712 79.2884C156.694 79.2926 156.675 79.2965 156.657 79.3002C156.649 79.3018 156.641 79.3034 156.633 79.305C156.059 79.4318 155.742 78.7967 155.959 78.4152C155.771 78.23 155.571 78.0485 155.369 77.8662C155.151 77.6691 154.932 77.4706 154.725 77.2641C151.031 83.8293 141.937 83.3513 136.994 78.2102C136.463 77.6581 137.308 76.8192 137.84 77.3725C142.097 81.7997 149.867 82.4946 153.37 77.193C153.371 77.0947 153.404 76.9904 153.485 76.885C153.593 76.7458 153.7 76.6071 153.807 76.4685C153.856 76.4045 153.913 76.3589 153.971 76.3192C153.913 76.2179 153.854 76.116 153.809 76.0076C153.382 75.0046 153.529 73.4189 153.659 72.0207C153.713 71.4395 153.764 70.8905 153.769 70.4294C153.781 69.3698 153.822 68.2841 153.863 67.1858C154.006 63.3438 154.155 59.3425 153.129 55.7278C151.486 49.9467 144.662 45.6791 140.16 50.6228C137.895 53.1104 137.388 56.3908 136.894 59.5831C136.833 59.9756 136.773 60.3668 136.709 60.755L136.705 60.777C135.84 66.0656 135.913 71.4412 136.744 76.7268C136.797 77.0609 136.659 77.3435 136.327 77.4555C134.502 78.0703 133.182 79.771 132.17 81.7411C131.323 83.3907 130.692 85.2292 130.161 86.7774C129.995 87.2589 129.84 87.7123 129.69 88.1232C128.532 91.3104 127.576 94.5693 126.815 97.8715C125.195 104.898 124.498 112.076 124.452 119.273C124.486 119.374 124.497 119.487 124.449 119.619L124.449 119.621L124.448 119.622C124.448 119.677 124.447 119.733 124.446 119.789C124.445 119.845 124.445 119.901 124.445 119.957C124.518 119.94 124.597 119.931 124.685 119.95C130.516 121.16 136.412 121.811 142.309 121.904C142.379 121.829 142.47 121.767 142.606 121.744C144.039 121.505 146.091 121.271 147.619 121.835C152.891 121.619 158.148 120.955 163.348 119.849C163.219 119.719 163.142 119.539 163.198 119.312ZM164.32 122.858C164.921 121.737 164.992 121.604 164.729 120.757C163.517 121.03 162.301 121.277 161.082 121.502C161.294 121.81 161.126 122.175 160.835 122.327C160.878 122.781 160.92 123.236 160.963 123.691L161.085 124.993L161.19 124.984L161.372 124.968C162.775 124.846 163.284 124.802 164.161 123.155L164.229 123.028L164.32 122.858ZM149.2 125.838C151.036 125.773 152.871 125.688 154.704 125.567C156.438 125.453 158.171 125.302 159.9 125.113L159.898 125.093C159.794 123.984 159.689 122.876 159.586 121.767C156.111 122.351 152.616 122.74 149.113 122.936C149.73 123.803 150.021 125.093 149.2 125.838ZM145.959 125.288C146.594 125.287 147.291 125.287 147.794 125.114C148.876 124.743 148.463 123.674 147.666 123.16C147.588 123.109 147.499 123.074 147.411 123.038L147.377 123.025C145.866 123.082 144.353 123.097 142.841 123.082C142.852 123.159 142.847 123.243 142.82 123.333C142.569 124.186 142.585 124.911 143.535 125.248C143.947 125.394 144.487 125.354 144.953 125.319C145.039 125.313 145.123 125.307 145.203 125.302C145.43 125.288 145.689 125.288 145.959 125.288ZM131.72 125.81C132.249 125.866 132.779 125.913 133.309 125.949C136.348 126.162 139.401 126.09 142.446 126.018C141.55 125.407 141.302 124.311 141.656 123.062C138.336 122.987 135.016 122.741 131.709 122.319C131.347 123.275 131.332 124.283 131.766 125.224C131.867 125.443 131.824 125.647 131.72 125.81ZM125.144 124.403C125.514 124.656 126.138 124.788 126.673 124.901C126.856 124.94 127.029 124.976 127.177 125.014C128.326 125.311 129.497 125.52 130.675 125.679C130.188 124.544 130.105 123.324 130.507 122.152C128.455 121.864 126.406 121.516 124.367 121.093C124.222 121.062 124.128 120.99 124.057 120.902C123.77 122.167 123.828 123.503 125.144 124.403Z" fill="#4B4B78"/>
<path fill-rule="evenodd" clip-rule="evenodd" d="M148.449 85.6038C148.024 84.7811 146.83 84.2825 146.213 84.8486C145.595 85.4147 144.611 86.4225 144.611 86.4225C144.611 86.4225 140.21 89.1232 137.518 90.2014C134.826 91.2791 129.224 92.7792 126.872 92.488C124.52 92.1968 123.438 93.1868 123.438 93.1868C123.438 93.1868 122.546 95.5707 121.714 96.848C120.881 98.1249 120.539 99.1099 120.539 99.1099C120.539 99.1099 123.81 99.8792 124.881 100.038C125.952 100.197 128.156 100.485 131.636 98.1043C135.117 95.7237 139.964 92.4272 141.112 91.281C142.259 90.1348 145.521 87.8736 145.521 87.8736C145.521 87.8736 146.464 88.1769 146.917 87.9093C147.37 87.6421 148.082 86.2481 148.313 86.1415C148.545 86.035 148.449 85.6038 148.449 85.6038Z" fill="#F76F60"/>
<path fill-rule="evenodd" clip-rule="evenodd" d="M129.707 93.6653C134.909 92.9437 139.692 90.6267 144.158 88.0313C144.193 88.1571 144.239 88.2761 144.296 88.3928C144.205 88.4124 144.115 88.449 144.029 88.5227C140.156 91.8697 136.099 94.9979 131.801 97.7908C129.653 99.1867 127.734 100.319 125.012 99.7938C123.67 99.5344 122.47 99.0735 121.172 98.859C121.583 98.3211 121.957 97.7623 122.269 97.1409C122.661 96.3646 122.798 94.5823 123.315 94.0358C124.125 93.1784 128.198 93.8746 129.707 93.6653ZM146.881 87.9053C146.499 88.3061 145.75 88.5501 145.404 87.9405C145.106 87.4135 145.407 86.869 145.85 86.5756C146.175 86.3599 146.54 86.2954 146.915 86.2789C147.106 86.4011 147.35 86.4269 147.574 86.284C147.587 86.2848 147.6 86.2847 147.614 86.2851C147.481 86.4322 147.439 86.8352 147.374 87.0203C147.265 87.3315 147.111 87.6639 146.881 87.9053ZM119.559 98.8953C119.241 99.2585 119.376 99.955 119.956 99.9665C122.225 100.014 124.29 101.255 126.553 101.249C128.392 101.244 129.995 100.382 131.5 99.4512C136.235 96.5246 140.663 93.073 144.865 89.4411C144.937 89.3791 144.986 89.311 145.019 89.2401C145.276 89.4072 145.577 89.5145 145.912 89.5362C147.408 89.6353 148.383 88.2655 148.678 86.9507C148.805 86.3795 148.752 85.7314 148.258 85.3313C148.201 85.2849 148.139 85.2634 148.079 85.2289C147.986 85.1382 147.864 85.0705 147.698 85.063C146.348 85.0001 144.807 85.2564 144.242 86.6071C144.168 86.6156 144.091 86.6374 144.013 86.6837C137.616 90.4414 130.559 93.5955 122.863 92.3402C122.514 92.2838 122.27 92.6154 122.231 92.9149C121.935 95.2231 121.069 97.1656 119.559 98.8953Z" fill="#4B4B78"/>
<path d="M158.677 105.282C180.563 107.308 180.553 107.282 175.884 98.5359C172.06 91.3749 162.641 82.1644 159.352 79.0615C158.624 78.3741 157.622 78.077 156.632 78.2315V78.2315" stroke="#4B4B78" stroke-linecap="round" stroke-linejoin="round"/>
<path d="M204.589 98.7631C204.589 98.7631 214.586 99.6562 223.588 97.1586C232.589 94.661 232.614 94.6506 217.009 81.0354" stroke="#4B4B78" stroke-linecap="round" stroke-linejoin="round"/>
<path d="M131.644 78.3753C131.644 78.3753 117.114 89.7904 112.444 98.5362C107.775 107.282 108.849 107.402 130.736 105.375" stroke="#4B4B78" stroke-linecap="round" stroke-linejoin="round"/>
<path d="M131.825 103.436L130.3 104.515C129.939 104.921 129.748 105.4 129.913 105.978C130.233 107.102 131.654 107.34 132.634 107.143C133.477 106.974 134.143 106.558 134.015 105.619C133.942 105.085 133.569 104.649 133.06 104.283C133.152 104.219 133.241 104.155 133.326 104.094C133.53 103.948 133.71 103.819 133.839 103.74C134.511 103.334 133.775 102.363 133.11 102.766C132.908 102.889 132.647 103.02 132.36 103.163C132.189 103.249 132.008 103.34 131.825 103.436Z" fill="#4B4B78"/>
<path d="M157.707 102.959L159.232 104.038C159.594 104.444 159.784 104.923 159.619 105.502C159.3 106.625 157.879 106.863 156.899 106.667C156.056 106.497 155.39 106.081 155.518 105.142C155.59 104.609 155.964 104.172 156.472 103.806C156.381 103.742 156.291 103.678 156.206 103.617C156.002 103.471 155.822 103.342 155.693 103.264C155.021 102.857 155.757 101.886 156.422 102.289C156.625 102.412 156.886 102.543 157.172 102.686C157.344 102.773 157.525 102.863 157.707 102.959Z" fill="#4B4B78"/>
<path d="M73.7582 133.232C73.7357 133.345 73.5206 139.793 73.4159 143.004L72.2052 151.819C72.076 153.143 72.0405 155.984 72.9317 156.759C73.8229 157.534 74.5622 156.21 74.8205 155.451C75.2887 153.692 76.2929 150.094 76.5641 149.785C76.9032 149.397 79.4702 144.311 79.8092 143.537C79.9617 143.188 80.6043 142.055 81.2741 140.875C82.093 139.431 82.9526 137.916 83.0058 137.676C83.03 137.567 83.0995 137.325 83.188 137.018C83.4536 136.094 83.8898 134.576 83.7808 134.286C83.6355 133.898 73.7814 132.758 73.7582 133.232Z" fill="white"/>
<path d="M90.416 135.109C90.9811 136.029 92.1307 137.957 92.2083 138.306C92.2557 138.519 92.93 140.241 93.6343 142.041C94.3688 143.917 95.136 145.877 95.2597 146.297C95.5018 147.121 97.2939 153.03 97.5845 153.708C97.6663 153.899 97.8095 154.308 97.9839 154.807C98.4289 156.08 99.077 157.934 99.425 158.212C99.8039 158.515 100.42 158.344 100.74 158.255C100.829 158.23 100.895 158.212 100.926 158.212C101.072 158.212 101.459 156.565 101.508 156.178C101.527 156.025 101.493 155.46 101.443 154.607C101.365 153.291 101.246 151.29 101.217 149.058C101.185 146.593 101.065 140.957 100.99 137.401C100.953 135.646 100.926 134.398 100.926 134.286C100.886 134.3 100.844 134.316 100.798 134.333C99.8057 134.707 97.5025 135.572 90.416 135.109Z" fill="white"/>
<path fill-rule="evenodd" clip-rule="evenodd" d="M83.7484 52.2699C83.7484 52.2699 85.8223 57.321 92.9937 55.5761C100.166 53.8312 98.6895 49.7784 98.1615 47.9883C97.6335 46.1982 94.2907 42.6162 85.1594 42.8508C76.028 43.0854 73.1634 51.5466 72.531 54.6833C71.8986 57.82 68.5181 67.7379 72.3144 70.64C76.1107 73.5416 82.2072 73.4982 82.2072 73.4982C82.2072 73.4982 81.2338 65.1415 81.7097 60.0968C82.1857 55.0526 83.7484 52.2699 83.7484 52.2699Z" fill="#B9FABA"/>
<path fill-rule="evenodd" clip-rule="evenodd" d="M97.3775 78.626C97.7876 78.9073 102.39 89.2863 103.679 96.0148C104.968 102.744 107.462 123.532 107.462 123.532L106.652 130.839C106.652 130.839 104.993 134.022 99.7644 135.276C94.5349 136.53 84.6441 134.863 82.2878 134.517C79.9326 134.171 72.4191 133.647 68.5555 133.284C64.692 132.921 64.2436 129.4 64.2811 128.55C64.3186 127.7 64.781 117.683 67.8256 109.556C70.8707 101.428 71.7561 93.037 72.173 91.5418C72.5901 90.0471 75.4055 82.9842 76.6573 81.1293C77.909 79.2744 78.599 78.3504 78.599 78.3504C78.599 78.3504 81.7573 82.1732 83.0802 82.5945C84.4031 83.0153 87.3213 80.2654 87.3213 80.2654C87.3213 80.2654 90.2236 83.5504 91.5668 83.4402C92.9106 83.33 97.3775 78.626 97.3775 78.626Z" fill="#FEF0A9"/>
<path fill-rule="evenodd" clip-rule="evenodd" d="M91.0277 71.8842C90.1561 72.7076 89.0699 73.1818 87.9222 72.858C86.6637 72.5024 85.7436 71.2552 85.5396 69.7402C85.4375 68.9842 86.41 68.9074 86.5119 69.6605C86.8918 72.4854 89.6566 71.993 90.8465 70.4855C91.1014 70.1627 91.7188 70.2797 91.7105 70.8349L91.7041 71.2997C91.6973 71.7716 91.3112 71.9816 91.0277 71.8842Z" fill="#4B4B78"/>
<path fill-rule="evenodd" clip-rule="evenodd" d="M96.6772 95.3093C96.6548 96.4418 96.2429 97.5729 95.6454 98.5106C93.9385 101.19 90.4981 102.22 87.5461 102.475C82.0926 102.946 78.5222 97.8799 77.5649 92.717C74.7339 92.5906 72.3403 88.3441 75.2511 86.5203C76.5462 85.7081 78.4897 86.2786 79.5884 87.2244C80.7358 88.2117 80.5407 90.6888 79.9489 91.9337C79.6587 92.5416 78.7318 92.0859 79.0223 91.4747C79.3936 90.6955 79.5504 89.2384 79.1955 88.3984C78.7869 87.4315 76.8591 86.9641 76.0114 87.3096C73.7001 88.2511 75.5169 91.3422 77.4041 91.6408C77.3054 90.7814 77.2787 89.9294 77.3324 89.1104C77.3764 88.4353 78.3843 88.6381 78.3406 89.3095C78.0815 93.289 79.6826 97.4951 82.7456 100.08C85.7692 102.631 91.9728 101.458 94.4252 98.4353C95.1335 97.5627 95.5828 96.4609 95.6042 95.3237C95.6262 94.1732 94.991 93.3535 94.6587 92.3369C94.4729 91.7717 94.215 91.4179 94.2836 90.799C94.387 89.8706 95.101 89.0044 96.0295 89.3933C96.2495 89.4854 96.3377 89.7446 96.3128 89.968C96.3069 90.0214 96.3014 90.0743 96.295 90.1273C96.2211 90.8011 95.2124 90.6011 95.2868 89.9282C95.0813 91.7949 96.7145 93.3991 96.6772 95.3093Z" fill="#4B4B78"/>
<path fill-rule="evenodd" clip-rule="evenodd" d="M110.931 96.3531L110.694 93.4705C110.219 91.8666 109.301 90.2976 108.557 89.1466C106.493 85.9538 103.522 83.5281 100.055 81.989C99.8672 81.9051 99.6995 81.9437 99.5687 82.0341C98.2797 79.3194 96.753 76.6884 94.9351 74.0988C97.041 68.5074 98.56 62.4854 97.1911 56.529C96.3172 52.7248 93.6595 46.9315 89.0866 46.609C84.2394 46.2676 81.2571 51.8394 80.4076 55.8144C79.0275 62.2751 79.8288 69.5074 80.6281 76.0429C80.433 75.9254 80.1742 75.911 79.9773 76.1258C79.3312 76.8302 78.7228 77.563 78.1326 78.3089C77.8882 78.3305 77.7408 78.5733 77.7315 78.8204C75.1461 82.201 73.1321 85.974 71.8545 90.0612C70.8885 93.1531 70.1826 96.3231 69.4761 99.4956C68.8362 102.369 68.1959 105.244 67.3616 108.065C67.2891 108.311 67.2166 108.556 67.144 108.801C65.4954 114.371 63.8312 119.993 63.4765 125.818C63.2171 130.072 64.2884 133.166 69.0706 133.259C69.737 133.272 69.6459 132.244 68.9863 132.231C64.5287 132.144 64.2685 128.571 64.5637 125.04C64.7643 122.64 65.1881 120.263 65.7218 117.916C66.4125 114.88 67.2992 111.895 68.1859 108.91C68.6843 107.233 69.1827 105.555 69.6462 103.869C70.1907 101.887 70.6094 99.8669 71.0283 97.8459C71.6633 94.7821 72.2985 91.7172 73.3721 88.7866C74.575 85.5044 76.272 82.4636 78.3606 79.6898C78.5833 79.9132 78.8157 80.1566 79.0566 80.4091C80.3355 81.7492 81.8565 83.343 83.4618 83.5344C85.0491 83.7235 86.2589 82.5708 87.1992 81.4258C88.2367 82.7336 89.86 84.3509 91.5225 84.2089C93.1083 84.0733 94.6865 82.3516 95.959 80.9633C96.357 80.5291 96.7251 80.1275 97.0542 79.8173C97.1111 79.764 97.1491 79.7071 97.1734 79.6497C100.257 85.2782 102.156 91.2015 103.496 97.745C103.518 97.8552 103.539 97.9657 103.56 98.0763C103.581 98.1857 103.602 98.2951 103.624 98.4045C102.581 98.1242 101.617 97.6134 100.906 96.8382C99.7115 95.5359 99.8201 94.3301 99.9443 92.9512C99.983 92.5208 100.023 92.0736 100.026 91.6012C100.033 90.3692 99.4349 89.7011 98.2266 89.6869C97.559 89.679 97.65 90.7069 98.3109 90.7148C99.2477 90.7258 98.9016 92.2127 98.6869 93.1351C98.6231 93.4091 98.5709 93.6333 98.5674 93.7542C98.5463 94.4596 98.7018 95.1464 98.9655 95.7969C99.5514 97.2416 100.725 98.3405 102.137 98.9781C102.64 99.2044 103.222 99.3874 103.84 99.5173C105.41 107.609 106.418 115.8 106.928 124.026C107.077 126.466 107.459 123.821 107.844 122.294C107.313 114.708 106.365 107.151 104.928 99.6827C107.034 99.8805 109.306 99.3966 110.4 97.6905C110.669 97.2717 110.839 96.8221 110.931 96.3531ZM86.2658 80.8944C84.859 82.3871 83.51 82.4874 81.4264 81.0403C80.7369 80.5615 80.0985 79.9358 79.4723 79.322C79.3607 79.2126 79.2495 79.1036 79.1384 78.9958C79.1352 78.9179 79.1178 78.8397 79.0854 78.7673C79.6165 78.105 80.163 77.4537 80.7389 76.825C80.8507 77.2509 81.3951 77.3077 81.6367 77.0426C81.7664 77.185 81.8988 77.3323 82.034 77.4826C83.2339 78.8166 84.6494 80.3903 86.2658 80.8944ZM95.2506 80.1532C94.5403 80.8717 93.8167 81.6036 93.033 82.1825C91.0544 83.6439 89.414 82.4844 88.1502 80.9567C89.2067 80.7193 90.3107 80.1356 91.2595 79.6339C91.3954 79.5621 91.528 79.492 91.6569 79.4248C92.2638 79.1083 92.8327 78.6425 93.396 78.1814C93.909 77.7615 94.4173 77.3454 94.9454 77.0493C95.017 77.0553 95.0932 77.047 95.1753 77.0154C95.197 77.0074 95.2191 76.9989 95.2408 76.9904C95.3521 76.9481 95.4275 76.8731 95.4827 76.7864C95.9547 77.5315 96.4026 78.2807 96.829 79.0348C96.6498 78.9709 96.4377 78.9882 96.2651 79.1504C95.9265 79.4695 95.5901 79.8098 95.2506 80.1532ZM104.713 98.6039C104.531 97.6849 104.346 96.7661 104.148 95.8505C103.172 91.3314 101.872 87.1435 100.084 83.1472C102.846 84.458 105.235 86.3286 107.065 88.8003C108.891 91.2665 112.396 97.7638 106.823 98.585C106.147 98.6844 105.427 98.6877 104.713 98.6039ZM80.8901 61.5279C81.0011 56.6479 81.8681 50.0994 87.1293 48.078C92.9861 45.8267 96.1306 54.8201 96.5781 59.1311C97.099 64.1533 95.7258 69.0964 93.9644 73.7521C93.9595 73.766 93.9584 73.7792 93.9572 73.7923C93.9564 73.8028 93.9555 73.8132 93.9527 73.8239C93.8082 73.9812 93.7506 74.2105 93.9104 74.4359C94.261 74.9297 94.5976 75.4247 94.9267 75.9218C94.9178 75.924 94.9087 75.9248 94.8996 75.9256C94.8862 75.9267 94.8731 75.9278 94.8611 75.9334C94.4043 76.1473 94.0345 76.4935 93.6641 76.8402C93.4326 77.057 93.2008 77.2739 92.9475 77.4589C91.8389 78.2684 90.5563 78.8486 89.2988 79.3874C86.4733 80.5986 84.3816 78.4074 82.5273 76.4649C82.2171 76.14 81.9135 75.8219 81.6143 75.528C81.0824 70.8854 80.784 66.2005 80.8901 61.5279Z" fill="#4B4B78"/>
<path fill-rule="evenodd" clip-rule="evenodd" d="M101.474 134.726C101.492 134.777 101.51 134.829 101.511 134.894L101.757 151.579C101.76 151.727 101.785 152.011 101.82 152.386C102.03 154.686 102.555 160.426 99.846 159.491C99.1112 159.238 98.7073 158.177 98.4107 157.398C98.3431 157.22 98.281 157.057 98.2219 156.922C97.2684 154.733 96.511 152.464 95.788 150.189C95.621 149.664 95.4558 149.138 95.2906 148.612C93.8638 144.071 92.4417 139.545 89.9345 135.448C88.0196 135.285 86.1136 135.035 84.21 134.765C84.2402 136.539 83.4642 137.958 82.5733 139.503C81.2634 141.777 79.9958 144.075 78.8401 146.432C77.6876 148.783 76.6392 151.188 75.7477 153.65C75.6983 153.787 75.6383 154.031 75.5634 154.337C75.2782 155.5 74.7775 157.542 73.8234 157.838C70.9716 158.723 71.7961 151.219 71.9283 150.051C72.0855 148.663 72.2819 147.28 72.478 145.899C73.0621 141.786 73.6438 137.691 73.1791 133.518C72.2121 133.482 71.2432 133.474 70.2695 133.507C69.606 133.53 69.5175 132.502 70.1852 132.479C71.2537 132.443 72.3177 132.452 73.3778 132.495C73.5395 132.421 73.7418 132.43 73.9015 132.521C77.0319 132.682 80.1344 133.125 83.2425 133.57C84.4712 133.746 85.7008 133.922 86.9333 134.08L87.0008 134.089C92.1599 134.752 103.939 136.267 105.691 129.504C105.737 129.326 105.849 129.215 105.984 129.159C106.226 129.466 106.473 129.839 106.493 130.082C106.698 132.59 104.862 133.608 101.474 134.726ZM91.182 135.541C91.5825 135.567 91.9838 135.589 92.3851 135.605C94.746 135.695 97.7857 135.69 100.479 135.013C100.513 137.274 100.546 139.535 100.579 141.796C100.611 143.906 100.642 146.015 100.673 148.124L100.763 154.191C100.766 154.415 100.796 154.687 100.828 154.977C100.94 155.982 101.074 157.194 100.183 157.304C99.3377 157.407 99.1146 156.681 98.8848 155.932C98.822 155.727 98.7586 155.521 98.6819 155.33C97.713 152.91 96.9243 150.427 96.1367 147.948C94.7843 143.691 93.435 139.443 91.182 135.541ZM73.5223 146C73.6351 145.239 73.748 144.478 73.8528 143.716C74.3189 140.33 74.5897 136.967 74.2238 133.57C77.1223 133.742 79.9975 134.158 82.8736 134.573L83.1751 134.617C83.2708 136.487 82.2162 138.213 81.227 139.831C80.9707 140.25 80.7189 140.662 80.4925 141.068C79.5894 142.685 78.7212 144.322 77.907 145.985C77.0937 147.647 76.3308 149.333 75.6393 151.048C75.4735 151.459 75.331 152.011 75.1803 152.595C74.8958 153.697 74.5816 154.914 74.0246 155.516C72.6785 156.971 72.7004 154.826 72.7118 153.718C72.7132 153.575 72.7145 153.45 72.7127 153.351C72.6919 152.303 72.8217 151.237 72.9492 150.19C72.966 150.052 72.9828 149.914 72.9992 149.776C73.1494 148.515 73.3358 147.257 73.5223 146Z" fill="#4B4B78"/>
<path fill-rule="evenodd" clip-rule="evenodd" d="M91.8923 90.0321C91.0815 89.8367 90.2709 89.6417 89.4601 89.4464C88.9686 89.328 88.6903 90.219 89.1852 90.3381C89.9959 90.5334 90.8066 90.7284 91.6173 90.9238C92.1091 91.0422 92.3872 90.1511 91.8923 90.0321Z" fill="#4B4B78"/>
<path fill-rule="evenodd" clip-rule="evenodd" d="M95.7018 87.1192C95.2907 86.3936 94.8795 85.6683 94.4685 84.9426C94.2192 84.5027 93.3783 84.908 93.6293 85.3508C94.0404 86.0764 94.4516 86.8017 94.8626 87.5273C95.112 87.9675 95.9528 87.562 95.7018 87.1192Z" fill="#4B4B78"/>
<path fill-rule="evenodd" clip-rule="evenodd" d="M98.8925 87.9292C99.1107 87.1243 99.3285 86.3195 99.5467 85.5146C99.679 85.0266 98.7962 84.7232 98.6632 85.2145C98.445 86.0194 98.2271 86.8242 98.0089 87.6291C97.8766 88.1174 98.7595 88.4206 98.8925 87.9292Z" fill="#4B4B78"/>
<path fill-rule="evenodd" clip-rule="evenodd" d="M92.8646 94.2457C92.2226 94.7781 91.5811 95.3105 90.9392 95.8429C90.55 96.1657 91.097 96.9222 91.4887 96.5971C92.1306 96.0647 92.7722 95.5322 93.4141 94.9998C93.8035 94.6769 93.2563 93.9206 92.8646 94.2457Z" fill="#4B4B78"/>
<path d="M173.924 48.3564L173.332 50.1278C173.047 50.591 172.644 50.9116 172.042 50.9209C170.874 50.9394 170.236 49.6474 170.141 48.6525C170.06 47.7964 170.266 47.0384 171.202 46.8902C171.734 46.8056 172.26 47.0371 172.757 47.4184C172.792 47.3122 172.827 47.208 172.861 47.1087C172.942 46.8715 173.014 46.6617 173.051 46.5156C173.246 45.7552 174.388 46.1794 174.195 46.9325C174.136 47.1615 174.086 47.4494 174.031 47.765C173.998 47.9544 173.964 48.1538 173.924 48.3564Z" fill="#4B4B78"/>
<path d="M205.98 97.4868L205.993 99.2467C205.881 99.7463 205.618 100.155 205.085 100.347C204.05 100.72 203.087 99.7631 202.699 98.9052C202.365 98.1669 202.317 97.4282 203.106 97.0105C203.555 96.7728 204.094 96.8186 204.653 97.007C204.652 96.9015 204.652 96.7978 204.652 96.6989C204.652 96.4628 204.651 96.254 204.64 96.1122C204.582 95.3749 205.73 95.4045 205.787 96.1349C205.804 96.3571 205.847 96.629 205.895 96.927C205.923 97.1058 205.953 97.2941 205.98 97.4868Z" fill="#4B4B78"/>
<path fill-rule="evenodd" clip-rule="evenodd" d="M224.735 26.8372C224.726 26.8261 224.716 26.8181 224.708 26.8074C224.685 26.7719 224.66 26.7363 224.629 26.7021C223.804 25.8042 222.586 25.9366 221.652 26.6341C220.687 27.3551 220.124 28.8384 220.206 30.0061C220.232 30.3777 220.518 30.6307 220.837 30.6587C220.847 30.6804 220.855 30.7031 220.866 30.7244C221.116 31.1752 221.659 31.253 222.131 31.2547C223.126 31.2583 224.499 30.812 225.056 29.9381C225.655 28.9993 225.362 27.6804 224.735 26.8372Z" fill="#F76F60"/>
<path fill-rule="evenodd" clip-rule="evenodd" d="M224.033 31.0661C225.301 30.6396 226.505 29.3993 226.416 28.0022C226.332 26.6876 225.148 25.2618 223.824 25.0396C223.277 24.9481 223.042 25.7712 223.593 25.864C224.464 26.0101 225.15 26.7743 225.422 27.5876C225.814 28.7574 224.886 29.8643 223.802 30.2417C222.972 30.531 221.775 30.4926 221.28 29.651C220.772 28.789 221.184 27.4872 221.88 26.8859C222.301 26.5226 221.684 25.92 221.266 26.2815C220.272 27.1397 219.891 28.7582 220.471 29.9528C221.095 31.2345 222.776 31.4892 224.033 31.0661Z" fill="#4B4B78"/>
<path fill-rule="evenodd" clip-rule="evenodd" d="M116.015 56.5296C116.161 56.0502 115.783 55.6842 115.334 55.7294C114.632 55.8002 113.929 55.8422 113.224 55.8431C113.005 55.8431 111.702 55.9225 111.491 55.8591C111.451 55.8131 111.413 55.7659 111.378 55.7141C111.288 55.5779 111.163 55.5144 111.03 55.5021C110.644 55.1913 109.918 55.469 110.068 56.0866C110.245 56.8161 110.377 57.548 110.425 58.3003C110.464 58.8946 110.632 60.178 110.272 60.6771C109.926 61.1573 110.516 61.8848 111.03 61.5675C112.114 60.8972 114.157 61.3307 115.348 61.496C115.638 61.5359 116.002 61.2382 115.982 60.9232C115.894 59.509 115.595 57.9089 116.015 56.5296Z" fill="#B9FABA"/>
<path fill-rule="evenodd" clip-rule="evenodd" d="M151.87 22.4972C152.307 22.3065 152.337 21.8067 152.027 21.5106C151.542 21.0473 151.077 20.5659 150.64 20.057C150.505 19.8987 149.643 19.0073 149.558 18.8154C149.567 18.7582 149.577 18.7014 149.593 18.6445C149.636 18.495 149.604 18.3652 149.531 18.2619C149.517 17.7908 148.868 17.4384 148.514 17.9284C148.097 18.5071 147.65 19.0546 147.136 19.5546C146.731 19.9499 145.908 20.8642 145.325 20.913C144.764 20.96 144.604 21.8355 145.15 22.0105C146.305 22.3794 147.254 24.1225 147.871 25.0852C148.022 25.3193 148.461 25.3981 148.677 25.189C149.644 24.2514 150.614 23.0464 151.87 22.4972Z" fill="#FEF0A9"/>
<path fill-rule="evenodd" clip-rule="evenodd" d="M113.286 61.4624C112.213 61.3871 111.174 61.3751 110.19 61.6983C110.797 59.9664 110.758 58.1193 110.099 56.4145C111.821 57.2043 113.732 57.5401 115.395 56.6974C114.885 58.3562 114.857 60.0708 115.29 61.7534C114.673 61.529 113.969 61.5103 113.286 61.4624ZM116.344 62.5199C115.489 60.2908 115.587 57.9717 116.567 55.8009C116.731 55.4373 116.215 55.1274 115.94 55.3788C114.017 57.1382 111.483 56.3884 109.477 55.2169C109.162 55.0329 108.703 55.3518 108.908 55.7158C110.092 57.8183 110.14 60.1779 109.076 62.3342C108.983 62.5212 109.058 62.673 109.191 62.7557C109.293 62.8654 109.449 62.9136 109.62 62.8124C110.604 62.2271 111.663 62.1558 112.786 62.2117C113.705 62.2574 115.051 62.1822 115.701 62.9524C116.004 63.3115 116.496 62.9144 116.344 62.5199Z" fill="#4B4B78"/>
<path fill-rule="evenodd" clip-rule="evenodd" d="M146.621 23.5752C146.012 22.7532 145.378 21.9957 144.536 21.4845C146.163 20.8526 147.473 19.6832 148.297 18.1535C148.791 19.8853 149.729 21.473 151.366 22.153C149.853 22.8103 148.596 23.8492 147.649 25.2024C147.43 24.6181 147.008 24.098 146.621 23.5752ZM147.747 26.4372C148.828 24.4417 150.564 23.079 152.737 22.4452C153.101 22.3392 153.006 21.7745 152.655 21.7316C150.195 21.43 149.171 19.137 148.777 16.9639C148.715 16.6225 148.201 16.4886 148.065 16.8615C147.278 19.0156 145.604 20.5092 143.389 21.073C143.197 21.1218 143.133 21.2695 143.156 21.4171C143.139 21.5581 143.201 21.7007 143.38 21.7614C144.411 22.1107 145.117 22.8311 145.77 23.6768C146.305 24.3686 147.191 25.2941 147.037 26.2397C146.965 26.6808 147.556 26.7905 147.747 26.4372Z" fill="#4B4B78"/>
<mask id="mask1_59_12739" style="mask-type:alpha" maskUnits="userSpaceOnUse" x="119" y="23" width="13" height="14">
<path fill-rule="evenodd" clip-rule="evenodd" d="M130.805 23.6566L131.455 36.1167L119.844 36.7228L119.193 24.2627L130.805 23.6566Z" fill="white"/>
</mask>
<g mask="url(#mask1_59_12739)">
<path fill-rule="evenodd" clip-rule="evenodd" d="M121.95 32.9954C121.529 33.1574 120.713 33.5398 120.6 32.7386C120.526 32.2236 121.489 31.665 121.843 31.5044C122.446 31.2312 123.07 31.0978 123.694 31.0754C123.509 31.9512 122.935 32.6167 121.95 32.9954ZM131.402 35.5689C130.385 32.9425 128.06 30.9483 125.21 30.3994C125.078 30.3737 124.931 30.3526 124.774 30.336C124.712 28.0953 122.939 25.6026 121.542 24.2801C121.118 23.878 120.502 24.5459 120.926 24.9471C122.309 26.2566 123.545 28.0811 123.742 30.0042C123.752 30.1027 123.757 30.1994 123.76 30.2943C121.857 30.3315 119.434 30.986 119.655 33.0257C119.905 35.3418 123.433 33.5094 124.16 32.4809C124.455 32.0634 124.632 31.6098 124.716 31.1366C127.274 31.5282 129.671 33.6377 130.529 35.8532C130.737 36.3905 131.612 36.1106 131.402 35.5689Z" fill="#4B4B78"/>
</g>
<path fill-rule="evenodd" clip-rule="evenodd" d="M161.68 34.2747C162.128 33.9044 161.56 33.32 161.114 33.688C159.579 34.9552 158.291 36.4188 157.229 38.0877C156.919 38.575 157.636 38.9755 157.947 38.4863C158.968 36.8828 160.207 35.4903 161.68 34.2747Z" fill="#4B4B78"/>
<path fill-rule="evenodd" clip-rule="evenodd" d="M98.7206 34.7265C99.1483 35.1208 99.6502 34.4784 99.2251 34.0866C97.7613 32.7375 96.1364 31.6603 94.3389 30.8344C93.8139 30.5931 93.5145 31.3581 94.0414 31.6002C95.7686 32.3938 97.3163 33.4324 98.7206 34.7265Z" fill="#4B4B78"/>
<path fill-rule="evenodd" clip-rule="evenodd" d="M170.918 34.1608C168.301 34.8386 165.937 36.1085 163.909 37.9117C163.477 38.2962 164.05 38.8226 164.483 38.4371C166.399 36.733 168.601 35.5632 171.071 34.9236C171.631 34.7787 171.475 34.0164 170.918 34.1608Z" fill="#4B4B78"/>
</svg>
