<?xml version="1.0" standalone="no"?>
<!DOCTYPE svg PUBLIC "-//W3C//DTD SVG 20010904//EN"
 "http://www.w3.org/TR/2001/REC-SVG-20010904/DTD/svg10.dtd">
<svg version="1.0" xmlns="http://www.w3.org/2000/svg"
 width="256.000000pt" height="256.000000pt" viewBox="0 0 256.000000 256.000000"
 preserveAspectRatio="xMidYMid meet">

  <g transform="translate(0.000000,256.000000) scale(0.100000,-0.100000)" fill="#000000" stroke="none">
    <path d="M17 2542 c-16 -17 -17 -120 -17 -1269 0 -1041 2 -1252 14 -1262 10
    -8 351 -10 1277 -9 l1264 3 3 1264 c1 926 -1 1267 -9 1277 -10 12 -221 14
    -1264 14 -1200 0 -1253 -1 -1268 -18z m518 -602 c80 -28 211 -100 323 -178
    l94 -65 81 19 c116 27 388 27 503 0 l81 -18 114 77 c137 92 296 172 361 181
    167 23 181 -129 44 -459 l-55 -130 24 -47 c45 -89 58 -154 53 -269 -6 -120
    -24 -180 -84 -270 -79 -119 -223 -231 -383 -296 -42 -17 -104 -50 -139 -72
    -93 -62 -149 -78 -267 -78 -119 0 -178 18 -269 79 -33 23 -83 50 -111 60 -174
    64 -325 180 -419 322 -94 143 -102 363 -20 526 l24 46 -49 114 c-61 143 -90
    236 -98 314 -13 144 51 192 192 144z"/>
    <path d="M746 1179 c-22 -5 -48 -17 -58 -25 -16 -16 -16 -18 2 -54 28 -54 82
    -97 148 -116 49 -15 68 -15 136 -6 44 7 84 16 89 21 29 29 -41 142 -106 172
    -46 20 -142 24 -211 8z"/>
    <path d="M1613 1169 c-24 -12 -54 -34 -68 -50 -30 -36 -53 -105 -39 -119 6 -6
    46 -15 90 -22 67 -9 87 -9 134 5 66 20 123 65 151 119 20 38 20 40 2 53 -51
    38 -205 46 -270 14z"/>
    <path d="M1172 813 c-37 -18 -66 -55 -60 -74 2 -7 20 -18 39 -24 19 -6 39 -22
    46 -36 15 -29 36 -38 88 -38 52 0 73 9 88 38 7 14 27 30 46 36 19 6 36 16 39
    23 6 20 -18 52 -58 72 -51 26 -179 28 -228 3z"/>
  </g>
</svg>
