<?xml version="1.0" standalone="no"?>
<!DOCTYPE svg PUBLIC "-//W3C//DTD SVG 20010904//EN"
 "http://www.w3.org/TR/2001/REC-SVG-20010904/DTD/svg10.dtd">

<svg viewBox="0 0 174 51" fill="#222" xmlns="http://www.w3.org/2000/svg" width="76">
  <path d="M35.85 0L24.4 18.15 29.5 36H20l-3.75-13.2H12.3L9.95 36h-9L7.3 0h9l-2.65 15h3.2l9.5-15h9.5zM44.013 36.7c-6.934 0-10.4-2.4-10.4-7.2 0-.667.066-1.383.2-2.15l1.05-6.2c.566-3.2 2.033-5.65 4.4-7.35 2.4-1.733 5.566-2.6 9.5-2.6 6.7 0 10.05 2.533 10.05 7.6 0 .733-.067 1.533-.2 2.4l-.6 3.55h-15.25l-.2 1.15c-.067.4-.1.767-.1 1.1 0 1.833 1.083 2.75 3.25 2.75.8 0 1.483-.25 2.05-.75.566-.5.9-1.083 1-1.75l8.3.1c-1.1 6.233-5.45 9.35-13.05 9.35zm6-15a6.82 6.82 0 00.2-1.55c0-.5-.217-1-.65-1.5-.434-.5-1.134-.75-2.1-.75-.934 0-1.8.317-2.6.95-.767.633-1.3 1.583-1.6 2.85h6.75zM71.05 25.25c-.1.6-.15 1.2-.15 1.8 0 1.6.9 2.4 2.7 2.4 1.467 0 2.684-.517 3.65-1.55l2.8-15.95h8.5l-4.4 24.85c-.733 4.233-2.416 7.583-5.05 10.05-2.6 2.467-5.583 3.7-8.95 3.7-3.366 0-5.8-.617-7.3-1.85-1.466-1.233-2.2-2.85-2.2-4.85 0-2.833 1.75-5.35 5.25-7.55-1.9-.467-3.1-1.417-3.6-2.85-.3-.8-.45-1.7-.45-2.7 0-1 .084-2.017.25-3.05l2.8-15.75h8.5l-2.35 13.3zm.25 18.15c2.167 0 3.584-1.967 4.25-5.9l.5-2.9c-4.633 2.167-6.95 4.35-6.95 6.55 0 .667.184 1.2.55 1.6.4.433.95.65 1.65.65zM100.116 36.7c-6.933 0-10.4-2.4-10.4-7.2 0-.667.067-1.383.2-2.15l1.05-6.2c.533-3.2 1.983-5.65 4.35-7.35 2.4-1.7 5.433-2.567 9.1-2.6 7.1 0 10.65 2.467 10.65 7.4 0 1.067-.133 2.033-.4 2.9-.233.833-.483 1.4-.75 1.7l-.4.5h-8.5c.833-.733 1.25-1.6 1.25-2.6 0-1.8-.9-2.7-2.7-2.7-1.067 0-1.983.317-2.75.95-.767.633-1.267 1.6-1.5 2.9l-.65 3.65c-.067.333-.1.65-.1.95 0 1.767 1.1 2.65 3.3 2.65.733 0 1.383-.233 1.95-.7.6-.467.95-.983 1.05-1.55l8.3.1c-1.1 6.233-5.45 9.35-13.05 9.35zM140.956 28.3c0 .867.434 1.3 1.3 1.3.9 0 1.65-.167 2.25-.5l-.25 5.65c-1.6 1.3-3.4 1.95-5.4 1.95-3.666 0-5.7-1.333-6.1-4-1.666 2.667-4.116 4-7.35 4-5.466 0-8.2-2.35-8.2-7.05 0-.8.084-1.683.25-2.65l1.05-5.85c.534-3 1.75-5.383 3.65-7.15 1.934-1.8 4.434-2.7 7.5-2.7 3.1 0 5.2.717 6.3 2.15l.25-1.5h7.6l-2.8 15.75c-.033.2-.05.4-.05.6zm-14.8-2.4c-.066.3-.1.717-.1 1.25s.25 1.067.75 1.6c.5.5 1.334.75 2.5.75 1.2 0 2.234-.467 3.1-1.4l1.5-8.4c-.366-.833-1.233-1.25-2.6-1.25-2.566 0-4.066 1.233-4.5 3.7l-.65 3.75zM158.284 36.7c-3.866 0-6.65-.867-8.35-2.6-1.266-1.267-1.9-2.967-1.9-5.1 0-.7.067-1.45.2-2.25l3.4-19.35 9.15-3.8-1.45 8.35h13.8l-1.25 7.05h-13.8l-1 5.65a8.37 8.37 0 00-.2 1.7c0 2.1 1 3.15 3 3.15 1.067 0 1.95-.45 2.65-1.35.734-.9 1.234-2.1 1.5-3.6h8.3c-1.4 8.1-6.083 12.15-14.05 12.15z">
  </path>
</svg>

