<svg width="62" height="56" viewBox="0 0 62 56" fill="none" xmlns="http://www.w3.org/2000/svg">
<path d="M49.9568 5.06058L49.9572 5.06078C53.4893 6.71533 55.6253 10.5715 57.8421 13.5671L57.8456 13.5718C58.0933 13.9135 58.3186 14.271 58.5199 14.6419C62.2389 21.4001 57.859 29.9244 53.8235 35.3639C47.005 44.5806 35.6873 52.3516 25.205 54.9904C19.99 56.3311 13.4784 56.7808 8.97396 53.3059L8.97234 53.3047C6.29566 51.2253 3.88008 47.679 2.30241 44.7884L2.29914 44.7823L2.29573 44.7758C1.30473 42.8535 0.868084 40.6935 1.03461 38.5373C1.45056 32.5221 4.79668 26.8737 8.56545 22.303L8.5684 22.2995C15.1571 14.4322 23.7833 8.52919 33.5026 5.23661C33.5072 5.23503 33.5119 5.23351 33.5166 5.23204C38.7223 3.60913 44.8333 2.66536 49.9568 5.06058Z" fill="#FCEDA8"/>
<path d="M4.05957 43.1665L8.19884 48.7927C8.69746 49.4655 9.28561 50.0672 9.94698 50.581C10.1814 50.7618 10.4225 50.9326 10.6703 51.0934C11.9474 51.8913 13.361 52.4465 14.8398 52.731C15.3823 52.8415 15.9449 52.9319 16.5276 52.9922C17.135 53.0571 17.7453 53.0907 18.3561 53.0927C19.1812 53.1028 20.0061 53.0692 20.8276 52.9922C21.7318 52.9118 22.636 52.7913 23.5603 52.6205C24.2536 52.4899 24.9568 52.3392 25.6601 52.1583C35.9982 49.5562 47.2004 41.8704 53.9418 32.758C54.4039 32.1351 54.8359 31.5122 55.2478 30.8793C55.8507 29.9751 56.4032 29.0608 56.8955 28.1365C57.3074 27.383 57.6691 26.6395 57.9906 25.9162C58.3121 25.1928 58.513 24.6603 58.7341 24.0475C58.9551 23.4346 59.1259 22.8419 59.2866 22.2591C59.7212 20.6695 59.9143 19.0235 59.8593 17.3764C59.8593 17.0549 59.8091 16.7334 59.7789 16.3717C59.6244 15.0779 59.2219 13.826 58.5934 12.6846C58.4045 12.3363 58.1931 12.0007 57.9605 11.6799L54.0422 6.38525" stroke="#354A89" stroke-width="3" stroke-linecap="round" stroke-linejoin="round"/>
<path d="M16.739 47.4966C15.9175 47.574 15.0925 47.6075 14.2675 47.5971C13.6567 47.595 13.0463 47.5615 12.439 47.4966C11.8563 47.4363 11.2936 47.3459 10.7511 47.2354C9.27284 46.9491 7.85963 46.3941 6.5817 45.5977C6.32719 45.437 6.08606 45.2662 5.85834 45.0854C4.86327 44.3193 4.03866 43.3545 3.43707 42.2522C2.49706 40.4289 2.08309 38.3799 2.2415 36.3346C2.35666 34.6662 2.69455 33.0207 3.24618 31.4419C3.7752 29.8922 4.43392 28.3899 5.21534 26.9509C5.76792 25.9463 6.37072 24.9416 7.03381 23.9369C7.82415 22.7514 8.69153 21.586 9.63592 20.4406C16.1535 12.6583 24.6864 6.81909 34.3007 3.56207C35.6044 3.15564 36.9292 2.82025 38.2692 2.55739C39.2656 2.36076 40.2717 2.21655 41.2832 2.12538C42.8461 1.95821 44.4223 1.95821 45.9851 2.12538C47.4816 2.30568 48.9398 2.7228 50.3052 3.36114C52.0658 4.18585 53.5264 5.53758 54.4847 7.22914C55.1257 8.37032 55.5354 9.62668 55.6903 10.9264C55.7707 11.2378 55.7707 11.5593 55.7707 11.8808C55.8302 13.5281 55.637 15.1747 55.198 16.7635C55.0473 17.3462 54.8564 17.939 54.6454 18.5518C54.4345 19.1647 54.2235 19.6771 53.902 20.4105C53.5805 21.1439 53.2188 21.8874 52.8069 22.6409C52.3146 23.5652 51.762 24.4794 51.1693 25.3837C50.7573 26.0166 50.3153 26.6395 49.8531 27.2624C43.1218 36.3748 31.9096 44.0606 21.5715 46.6627" stroke="#354A89" stroke-width="3" stroke-linecap="round" stroke-linejoin="round"/>
<path d="M38.2389 7.8621C48.0144 7.01817 51.8121 13.8902 46.7284 23.2638C41.6447 32.6374 29.5886 40.8758 19.8131 41.7197L18.6477 41.78C9.74625 41.991 6.44086 35.2797 11.2834 26.308C14.5272 20.4029 20.5322 14.9297 26.9789 11.4893" stroke="#354A89" stroke-width="3" stroke-linecap="round" stroke-linejoin="round"/>
<path fill-rule="evenodd" clip-rule="evenodd" d="M33.2006 24.1466C32.3594 24.9244 31.2626 25.5462 30.1892 26.0649C30.0169 26.0137 29.7863 26.1309 29.6207 26.3316C29.147 26.5481 28.6867 26.7483 28.2675 26.9317C26.7124 27.6129 25.1533 28.0824 23.6033 28.3931C23.9122 26.8183 24.3507 25.2511 25.0466 23.7304C26.679 20.165 31.7791 14.9027 34.6363 17.618C36.4078 19.3003 35.4448 22.0716 33.2006 24.1466ZM21.9497 33.3219C20.7657 32.4446 19.6148 31.485 18.9752 30.0432C20.0922 30.0217 21.2369 29.9239 22.3944 29.7479C22.2016 30.9563 22.062 32.1579 21.9497 33.3219ZM35.894 16.7897C34.1251 14.4211 30.0948 16.2574 27.7234 18.3834C27.1303 16.6225 26.862 16.3386 26.9133 14.279C26.9309 13.54 25.9017 13.9143 25.8838 14.648C25.8283 16.8999 26.1503 17.3573 26.8315 19.2674C26.5348 19.5902 26.253 19.9233 25.9919 20.2672C25.1517 18.6259 24.6591 18.4157 24.5223 16.366C24.4739 15.6466 23.445 16.014 23.4934 16.7348C23.6372 18.8848 24.1412 19.208 25.0252 20.9317C25.1043 21.0853 25.233 21.1447 25.3733 21.1465C23.9156 23.3936 23.1038 25.9727 22.6018 28.5707C21.1962 28.7897 19.8 28.8835 18.4233 28.8702C18.3548 28.8529 18.2805 28.8592 18.2031 28.8849C17.9083 28.9202 17.7215 29.2016 17.6855 29.4851C17.6642 29.5821 17.6555 29.6826 17.6819 29.7848C18.317 32.3007 20.2204 33.5994 22.0161 34.9185C22.2858 35.1161 22.8202 34.8048 22.8596 34.3638C22.9989 32.7963 23.1416 31.187 23.3933 29.5766C24.6417 29.3368 25.898 29.0049 27.1449 28.5614C27.8613 30.2138 28.7509 31.7129 29.8264 33.0412C30.218 33.5252 31.0702 32.6454 30.6759 32.1589C29.7046 30.9577 28.8924 29.6237 28.2279 28.1461C28.6782 27.9624 29.1259 27.7593 29.571 27.5456C29.996 29.0833 30.7702 30.3349 31.8452 31.3041C32.2997 31.7149 32.9691 30.6603 32.518 30.2537C31.5978 29.4226 30.961 28.3288 30.5817 27.0304C31.7292 26.4108 32.8518 25.6931 33.9292 24.8536C36.6057 22.7684 37.6665 19.163 35.894 16.7897Z" fill="#354A89" stroke="#354A89"/>
</svg>
