<svg xmlns="http://www.w3.org/2000/svg" xmlns:xlink="http://www.w3.org/1999/xlink" width="170" height="140" viewBox="0 0 170 140">
    <defs>
        <path id="a" d="M.154.277h4.472v12.52H.154z"/>
        <path id="c" d="M.09.176h18.782v17.502H.09z"/>
        <path id="e" d="M0 .32h18.638v14.657H0z"/>
    </defs>
    <g fill="none" fill-rule="evenodd">
        <path fill="#C8D5FF" d="M62.493 27s-4.38 5.769-8.607 9.26C49.659 39.75 43.743 44 43.743 44s15.445-.454 17.06-.605c1.613-.152 2.714-2.505 2.817-4.403C63.723 37.095 62.493 27 62.493 27"/>
        <path fill="#DDE5FF" d="M142.164 129.503c0 5.798-25.816 10.497-57.661 10.497-31.845 0-57.66-.99-57.66-10.497 0-10.496 25.815-10.496 57.66-10.496 31.845 0 57.66-.638 57.66 10.496"/>
        <path fill="#7699FF" d="M39.766 75.986s1.116 18.954 1.173 23.396c.057 4.442.621 31.272.621 31.272s34.416-.05 45.422 0S129.648 132 129.648 132s.766-28.18.546-31.411c-.22-3.23-1.597-25.589-1.597-25.589l-27.536 24.382-31.223-1.369s-9.487-8.683-12.924-11.235c-4.067-3.02-17.148-10.792-17.148-10.792"/>
        <path fill="#4B4B78" d="M38.444 129.525c29.055-.044 58.108.447 87.148 1.475.888.031.887-1.492 0-1.523a2362.931 2362.931 0 0 0-87.148-1.474c-.888.001-.89 1.523 0 1.522"/>
        <path fill="#4B4B78" d="M126.82 120.772a.733.733 0 0 0-.113-.155c-1.831-1.91-3.978-3.388-6.081-4.963a110.839 110.839 0 0 1-7.644-6.286c-4.501-4.05-8.657-8.47-12.479-13.186a.788.788 0 0 0-.092-.093 760.936 760.936 0 0 1 12.431-11.322 735.738 735.738 0 0 1 9.707-8.49l1.35-1.157 1.015-.865c.125-.077.228-.165.313-.264.189.105.382.203.575.3a685.932 685.932 0 0 1 1.017 46.481m-4.865-49.225c.585.57 1.209 1.094 1.873 1.563-.827.702-1.594 1.596-2.173 2.114.105-1.223.205-2.449.3-3.677M58.8 41.61c-2.578.659-5.62.41-8.27.558-1.989.111-3.977.206-5.957.409 2.733-2.908 6.466-4.97 9.38-7.656 2.815-2.595 5.247-5.518 7.629-8.505-.066.693-.142 1.369-.146 1.64a77.326 77.326 0 0 0 .065 4.534c.128 2.973 1.147 8.038-2.7 9.02m8.083 54.57a.68.68 0 0 0 .23.169c-4.242 4.482-9.408 7.535-14.259 11.295-4.656 3.61-8.85 7.757-12.569 12.351a472.361 472.361 0 0 0-1.06-45.777.758.758 0 0 0-.068-.262l4.15-3.786.196 5.824a910.739 910.739 0 0 0-3.127-2.004c-.75-.478-1.439.729-.692 1.205 9.663 6.165 19.37 12.437 27.199 20.986m60.15-22.337c.048-.249-.04-.509-.34-.654l-.055-.028c.045-.156.04-.325.008-.547-.03-.218-.272-.447-.479-.487-.35-.068-.711.002-1.074.154a14.513 14.513 0 0 1-3-2.6c.935-12.815 1.267-25.889.078-38.613-.209-2.233-.773-4.443-2.658-5.813-2.123-1.542-4.988-1.518-7.48-1.58a858.42 858.42 0 0 0-22.372-.258c-4.326.004-8.651.04-12.977.108-4.311.067-8.804.54-13.032-.504a.638.638 0 0 0-.571.118c-.233-.15-.533-.154-.763.137a4.178 4.178 0 0 0-.041.052.793.793 0 0 0-.661.183l-.138.12c-.248.217-.234.563-.098.83-2.796 3.526-5.62 6.99-8.978 10-3.19 2.86-7.138 4.989-9.845 8.364l-.069.009c-.465.07-.573.485-.444.838-.005.242.16.449.384.56l.832 24.575a.653.653 0 0 0-.673.147l-4.591 4.19c-.275.25-.264.566-.112.807a.706.706 0 0 0-.03.266 472.448 472.448 0 0 1 .783 54.162c-.038.898 1.333.896 1.371 0 .103-2.375.184-4.75.25-7.126.241.199.582.237.84-.082 4.01-4.985 8.581-9.477 13.702-13.274 4.884-3.622 9.873-6.71 13.97-11.309a940.43 940.43 0 0 0 29.94 1.443c.882.029.88-1.366 0-1.395a942.041 942.041 0 0 1-29.942-1.443.598.598 0 0 0-.429.126.557.557 0 0 0-.344.102.734.734 0 0 0-.142-.228c-6.687-7.3-14.734-12.962-22.96-18.301a.706.706 0 0 0 .008-.127l-1.108-32.71c3.812-.49 7.697-.546 11.526-.76 2.278-.126 4.88.019 6.445-1.988 1.913-2.453 1.233-5.842 1.107-8.718a76.559 76.559 0 0 1-.016-6.348c.02-.498.117-1.045.104-1.563l.264-.334c.022.007.041.017.064.022 3.949.976 8.029.645 12.055.576a890.918 890.918 0 0 1 26.848-.055c4.202.055 8.535-.124 12.718.311 2.38.248 4.633 1.087 5.478 3.58.728 2.149.576 4.747.679 6.991.207 4.528.312 9.061.315 13.595a303.33 303.33 0 0 1-.65 19.851c-.198.238-.272.596-.06.907-.145 2.13-.31 4.259-.497 6.385a742.175 742.175 0 0 0-6.304 5.502 759.562 759.562 0 0 0-14.82 13.454c-.447.418-.13 1.013.325 1.149a.712.712 0 0 0 .16.556c3.822 4.716 7.977 9.136 12.479 13.186a114.717 114.717 0 0 0 6.32 5.28c2.504 1.947 5.195 3.664 7.404 5.969.374.39.875.18 1.076-.187a681.365 681.365 0 0 1-.142 7.91c-.022.898 1.35.897 1.371 0 .448-18.37.157-36.749-.87-55.094a.703.703 0 0 0-.138-.39"/>
        <path fill="#4B4B78" d="M74.002 36.46c.338-1.268 1.74-1.216 2.218-.102.385.897 1.635.119 1.252-.774-1.02-2.375-4.22-1.965-4.868.467-.254.952 1.145 1.358 1.398.408M91.79 36.666c.294-.467.683-1.007 1.228-1.169.393-.116 1.007.038 1.023.55.028.931 1.426.935 1.397 0-.035-1.14-.968-2.01-2.06-2.046-1.239-.04-2.167.936-2.795 1.933-.492.784.717 1.512 1.208.732M72.779 42.12c2.871 2.695 6.737 3.395 10.597 3.683 2.156.161 4.423.383 6.555-.081 2.303-.503 4.277-1.84 6.17-3.14.382-.262.499-.901 0-1.138l-.189-.089c-.268-.127-.607-.119-.825.103l-.145.148a.662.662 0 0 0-.166.276c-1.391.952-2.84 1.893-4.477 2.38-2.017.6-4.172.404-6.246.27-3.701-.238-7.532-.736-10.31-3.343-.63-.59-1.595.34-.964.932M54.574 16.127c.943 1.56 1.547 3.41 2.896 4.68.643.607 1.618-.36.974-.967-1.547-1.457-2.295-3.888-3.474-5.65-1.2-1.794-2.58-3.442-4.091-4.984-.62-.632-1.592.336-.973.967 1.777 1.813 3.356 3.782 4.668 5.954"/>
        <g transform="translate(71.579)">
            <mask id="b" fill="#fff">
                <use xlink:href="#a"/>
            </mask>
            <path fill="#4B4B78" d="M2.015 8.655c.28 1.139.268 3.321 1.392 4.042.358.23.794.034 1.02-.25l.096-.12c.179-.225.117-.665-.117-.844l-.092-.07-.017-.01a8.149 8.149 0 0 0-.23-.615l-.41-1.668-.613-2.504-1.43-5.84C1.4-.099-.038.27.176 1.145l1.84 7.51" mask="url(#b)"/>
        </g>
        <path fill="#4B4B78" d="M94.791 15.488a63.86 63.86 0 0 1 4.547-13.4c.387-.824-.793-1.55-1.182-.723a65.594 65.594 0 0 0-4.686 13.743c-.197.896 1.122 1.278 1.321.38M109.53 19.78a60.586 60.586 0 0 1 9.467-8.467c.716-.515.023-1.705-.7-1.184a62.262 62.262 0 0 0-9.75 8.682c-.595.656.384 1.628.983.97M60.316 61l44.397-.331c.888-.007.89-1.676 0-1.669l-44.397.331c-.888.007-.89 1.676 0 1.669M61.314 65a956.857 956.857 0 0 1 45.384-.57c.894.01.894-1.36 0-1.37a956.857 956.857 0 0 0-45.384.569c-.892.032-.896 1.403 0 1.37M61.306 67.67c7.177.331 14.358.413 21.539.245.883-.02.887-1.69 0-1.67-7.181.168-14.362.086-21.539-.244-.884-.04-.883 1.63 0 1.67M62.312 71.932L102.73 72c.883.001.884-1.706 0-1.707l-38.705-.065c-.148-.164-.349-.262-.59-.217l-1.304.245c-.779.146-.571 1.675.182 1.676"/>
        <g transform="translate(151.111 56)">
            <mask id="d" fill="#fff">
                <use xlink:href="#c"/>
            </mask>
            <path fill="#4B4B78" d="M13.434 14.219c.21.646.721 1.902-.492 2.01-.78.07-1.544-1.421-1.758-1.967a7.336 7.336 0 0 1-.5-2.816c1.303.348 2.258 1.263 2.75 2.773M18.044.212a12.572 12.572 0 0 0-8.256 8.902 7.75 7.75 0 0 0-.13.652c-3.373-.083-7.26 2.386-9.357 4.382-.637.607.318 1.584.955.979 2.076-1.976 4.916-3.691 7.822-3.836.15-.007.295-.008.438-.005-.094 2.864.7 6.558 3.783 6.386 3.502-.195 1.024-5.642-.465-6.815a4.97 4.97 0 0 0-1.977-.942c.79-3.813 4.148-7.251 7.546-8.367.824-.27.472-1.608-.359-1.336" mask="url(#d)"/>
        </g>
        <g transform="translate(0 54)">
            <mask id="f" fill="#fff">
                <use xlink:href="#e"/>
            </mask>
            <path fill="#4B4B78" d="M8.27 8.83c-.068.561-.148 1.264-.47 1.752-.623.946-2.488.995-1.5-1.033A3.79 3.79 0 0 1 8.31 7.667c.018.384.007.772-.04 1.162m2.708-2.879a6.791 6.791 0 0 0-1.565.02C8.37 2.038 4.487-.185.488.418c-.855.13-.491 1.443.359 1.315 2.819-.425 5.641.892 6.88 3.54.157.333.277.676.371 1.023-.993.362-1.883.984-2.536 1.894-.836 1.164-1.562 3.336-.523 4.612.871 1.07 2.307.687 3.131-.203 1.235-1.333 1.635-3.465 1.479-5.264 1.331-.137 2.766.208 3.884.866 2.184 1.284 3.508 3.624 3.752 6.125.085.865 1.435.874 1.35 0-.406-4.15-3.371-7.938-7.656-8.375" mask="url(#f)"/>
        </g>
        <path fill="#4B4B78" d="M17.199 95.001l-4.574.288c-.924.058-.93 1.768 0 1.71l4.574-.288c.925-.058.93-1.768 0-1.71M14.245 100.005a34.642 34.642 0 0 0-10.776 1.526c-.854.261-.49 1.7.368 1.437a33.46 33.46 0 0 1 10.408-1.473c.89.015.89-1.476 0-1.49M152.447 96.311c.873.068.867-1.16 0-1.226-2.988-.23-5.912.01-8.807.709-.845.204-.486 1.387.362 1.182a26.847 26.847 0 0 1 8.445-.665M158.589 99.857a25.32 25.32 0 0 0-11.963-.269c-.851.185-.49 1.299.363 1.114a23.645 23.645 0 0 1 11.236.268c.84.224 1.2-.89.364-1.113"/>
        <path fill="#F76F60" d="M63.868 80.539c-.67 1.623-.059 4.055 3.226 4.336 3.286.281 29.657 0 31.664 0 2.007 0 4.634-.558 4.634-2.797 0-2.238-1.827-3.078-3.883-3.078H67.52c-1.938 0-3.215.484-3.652 1.539"/>
    </g>
</svg>
