<svg width="478" height="328" viewBox="0 0 478 328" fill="none" xmlns="http://www.w3.org/2000/svg">
<path fill-rule="evenodd" clip-rule="evenodd" d="M186.017 62.7334C186.017 62.7334 175.779 76.2753 165.9 84.4708C156.022 92.6674 142.195 102.641 142.195 102.641C142.195 102.641 178.293 101.576 182.065 101.22C185.837 100.864 188.41 95.3401 188.65 90.8852C188.891 86.4315 186.017 62.7334 186.017 62.7334Z" fill="#C8D5FF"/>
<path fill-rule="evenodd" clip-rule="evenodd" d="M372.217 303.359C372.217 316.969 311.884 328 237.457 328C163.032 328 102.697 325.674 102.697 303.359C102.697 278.718 163.032 278.718 237.457 278.718C311.884 278.718 372.217 277.221 372.217 303.359Z" fill="#DDE5FF"/>
<path fill-rule="evenodd" clip-rule="evenodd" d="M132.901 177.728C132.901 177.728 135.509 222.22 135.642 232.648C135.776 243.077 137.094 306.059 137.094 306.059C137.094 306.059 217.528 305.941 243.249 306.059C268.971 306.178 342.965 309.22 342.965 309.22C342.965 309.22 344.756 243.067 344.242 235.483C343.728 227.899 340.509 175.413 340.509 175.413L276.154 232.648L203.183 229.436C203.183 229.436 181.011 209.051 172.978 203.061C163.473 195.972 132.901 177.728 132.901 177.728Z" fill="#7699FF"/>
<path fill-rule="evenodd" clip-rule="evenodd" d="M129.812 303.409C197.716 303.306 265.617 304.459 333.485 306.871C335.56 306.945 335.558 303.37 333.485 303.297C265.617 300.885 197.716 299.732 129.812 299.836C127.736 299.84 127.733 303.413 129.812 303.409Z" fill="#4B4B78"/>
<path fill-rule="evenodd" clip-rule="evenodd" d="M336.353 282.863C336.284 282.739 336.201 282.616 336.09 282.5C331.81 278.016 326.792 274.546 321.878 270.847C315.712 266.206 309.754 261.277 304.015 256.093C293.494 246.586 283.782 236.209 274.849 225.138C274.78 225.053 274.707 224.985 274.635 224.921C284.226 215.956 293.904 207.087 303.687 198.34C308.604 193.944 313.545 189.578 318.513 185.238C321.126 182.956 323.745 180.681 326.373 178.412C327.425 177.506 328.476 176.6 329.528 175.696C330.319 175.018 331.109 174.341 331.9 173.664C332.193 173.485 332.432 173.276 332.632 173.046C333.073 173.293 333.525 173.522 333.976 173.751C336 210.086 336.783 246.476 336.353 282.863ZM324.987 167.307C326.353 168.647 327.811 169.875 329.363 170.976C327.431 172.625 325.64 174.724 324.285 175.939C324.531 173.068 324.765 170.192 324.987 167.307ZM177.387 97.0319C171.36 98.5776 164.252 97.9958 158.058 98.3418C153.409 98.6027 148.763 98.8254 144.135 99.3014C150.522 92.4742 159.247 87.6339 166.056 81.3296C172.636 75.2372 178.321 68.3751 183.886 61.3635C183.734 62.99 183.556 64.5773 183.547 65.2115C183.493 68.7604 183.543 72.3116 183.697 75.8572C183.997 82.835 186.378 94.7252 177.387 97.0319ZM196.275 225.135C196.445 225.322 196.628 225.448 196.815 225.53C186.898 236.051 174.824 243.218 163.488 252.045C152.606 260.518 142.805 270.254 134.113 281.04C135.01 245.201 134.197 209.342 131.635 173.578C131.618 173.346 131.559 173.144 131.477 172.963C134.709 170 137.94 167.038 141.174 164.075C141.327 168.632 141.481 173.189 141.634 177.747C139.2 176.172 136.763 174.606 134.326 173.044C132.573 171.92 130.963 174.753 132.708 175.871C155.292 190.344 177.976 205.068 196.275 225.135ZM336.855 172.698C336.965 172.115 336.759 171.505 336.06 171.164C336.017 171.144 335.975 171.119 335.931 171.098C336.035 170.733 336.022 170.335 335.95 169.814C335.881 169.302 335.315 168.764 334.831 168.67C334.011 168.512 333.167 168.675 332.32 169.033C329.724 167.337 327.386 165.302 325.31 162.929C327.493 132.845 328.27 102.155 325.49 72.2853C325.002 67.0432 323.684 61.8557 319.278 58.6397C314.317 55.0187 307.62 55.0766 301.798 54.9303C284.374 54.4926 266.941 54.3048 249.511 54.3233C239.401 54.3343 229.292 54.4183 219.182 54.5777C209.107 54.736 198.605 55.8462 188.725 53.3955C188.184 53.2612 187.731 53.3976 187.39 53.6716C186.845 53.319 186.144 53.3114 185.608 53.9926C185.575 54.0341 185.543 54.0745 185.511 54.1159C184.977 54.0002 184.371 54.1913 183.966 54.546L183.644 54.8277C183.065 55.3353 183.096 56.1475 183.415 56.7752C176.881 65.0531 170.281 73.1826 162.433 80.2488C154.975 86.9657 145.75 91.9611 139.424 99.8853C139.371 99.893 139.316 99.8973 139.263 99.905C138.175 100.069 137.923 101.045 138.226 101.873C138.214 102.441 138.597 102.927 139.122 103.185C139.769 122.416 140.419 141.646 141.067 160.877C140.567 160.705 139.993 160.765 139.494 161.222C135.917 164.5 132.34 167.778 128.763 171.056C128.121 171.645 128.148 172.387 128.502 172.953C128.445 173.136 128.414 173.341 128.431 173.577C131.462 215.889 132.073 258.336 130.262 300.722C130.173 302.83 133.378 302.824 133.467 300.722C133.707 295.147 133.896 289.571 134.051 283.993C134.615 284.461 135.412 284.551 136.012 283.802C145.383 272.1 156.069 261.555 168.036 252.64C179.452 244.137 191.112 236.887 200.687 226.094C223.992 227.596 247.317 228.726 270.657 229.481C272.72 229.548 272.718 226.273 270.657 226.206C247.316 225.45 223.988 224.321 200.681 222.819C200.259 222.791 199.929 222.911 199.679 223.115C199.41 223.1 199.135 223.176 198.874 223.352C198.802 223.169 198.698 222.989 198.543 222.819C182.916 205.683 164.108 192.39 144.882 179.856C144.895 179.761 144.906 179.665 144.902 179.559L142.313 102.771C151.221 101.62 160.301 101.491 169.251 100.99C174.574 100.692 180.655 101.033 184.312 96.3222C188.783 90.5627 187.194 82.6068 186.9 75.856C186.682 70.8934 186.67 65.9177 186.862 60.954C186.907 59.7859 187.137 58.5 187.106 57.285C187.311 57.023 187.517 56.761 187.723 56.5001C187.773 56.5165 187.818 56.5394 187.873 56.5525C197.101 58.8428 206.636 58.0666 216.046 57.9039C226.502 57.7238 236.961 57.6234 247.419 57.6016C257.878 57.5797 268.336 57.6376 278.794 57.7751C288.614 57.9039 298.739 57.4848 308.517 58.5065C314.081 59.0884 319.344 61.0566 321.32 66.91C323.02 71.9534 322.666 78.0535 322.905 83.3207C323.389 93.9511 323.635 104.592 323.641 115.234C323.649 130.783 323.127 146.324 322.122 161.835C321.66 162.393 321.487 163.233 321.983 163.964C321.643 168.963 321.259 173.961 320.821 178.953C315.888 183.232 310.973 187.532 306.087 191.868C294.404 202.238 282.865 212.773 271.453 223.453C270.407 224.433 271.15 225.829 272.211 226.148C272.152 226.577 272.249 227.039 272.584 227.454C281.517 238.524 291.229 248.9 301.75 258.407C306.525 262.723 311.457 266.85 316.522 270.805C322.372 275.375 328.662 279.405 333.825 284.814C334.698 285.729 335.869 285.239 336.339 284.375C336.261 290.565 336.157 296.755 336.007 302.944C335.956 305.052 339.161 305.051 339.212 302.944C340.258 259.822 339.579 216.678 337.177 173.613C337.155 173.241 337.035 172.938 336.855 172.698Z" fill="#4B4B78"/>
<path fill-rule="evenodd" clip-rule="evenodd" d="M212.914 84.9389C213.703 81.9634 216.978 82.0858 218.097 84.7012C218.997 86.8077 221.919 84.9797 221.022 82.884C218.639 77.3099 211.162 78.2713 209.646 83.981C209.053 86.2148 212.323 87.169 212.914 84.9389Z" fill="#4B4B78"/>
<path fill-rule="evenodd" clip-rule="evenodd" d="M254.492 85.4247C255.178 84.3285 256.086 83.0599 257.361 82.6809C258.28 82.4085 259.714 82.7694 259.751 83.9722C259.818 86.1577 263.085 86.1668 263.017 83.9722C262.934 81.2931 260.754 79.2528 258.2 79.1688C255.307 79.0746 253.136 81.3646 251.671 83.7067C250.52 85.5461 253.345 87.255 254.492 85.4247Z" fill="#4B4B78"/>
<path fill-rule="evenodd" clip-rule="evenodd" d="M210.055 98.2291C216.765 104.554 225.8 106.197 234.823 106.874C239.861 107.252 245.159 107.773 250.141 106.683C255.525 105.502 260.137 102.364 264.562 99.3125C265.454 98.6971 265.727 97.1961 264.562 96.6414L264.12 96.4322C263.494 96.1332 262.701 96.1528 262.192 96.6744C262.079 96.7889 261.966 96.9043 261.853 97.0198C261.653 97.2249 261.533 97.4456 261.466 97.6682C258.213 99.9043 254.826 102.113 251.002 103.255C246.287 104.664 241.251 104.204 236.405 103.89C227.754 103.33 218.8 102.162 212.307 96.0415C210.835 94.6549 208.58 96.8394 210.055 98.2291Z" fill="#4B4B78"/>
<path fill-rule="evenodd" clip-rule="evenodd" d="M167.51 37.2078C169.712 40.8702 171.126 45.2127 174.278 48.1962C175.78 49.6183 178.059 47.3512 176.553 45.9248C172.94 42.5033 171.192 36.7976 168.435 32.6608C165.629 28.45 162.407 24.5798 158.874 20.9602C157.427 19.4771 155.153 21.7495 156.599 23.2316C160.752 27.4873 164.443 32.1082 167.51 37.2078Z" fill="#4B4B78"/>
<mask id="mask0_2315_50101" style="mask-type:alpha" maskUnits="userSpaceOnUse" x="207" y="0" width="12" height="30">
<path fill-rule="evenodd" clip-rule="evenodd" d="M207.616 0H218.067V29.3933H207.616V0Z" fill="white"/>
</mask>
<g mask="url(#mask0_2315_50101)">
<path fill-rule="evenodd" clip-rule="evenodd" d="M211.965 19.6696C212.617 22.342 212.59 27.4646 215.218 29.1572C216.055 29.6956 217.075 29.2368 217.602 28.5708C217.676 28.4771 217.751 28.3823 217.825 28.2885C218.243 27.761 218.099 26.7267 217.553 26.3071C217.481 26.2526 217.409 26.1981 217.337 26.1425C217.324 26.1327 217.312 26.1273 217.298 26.1185C217.192 25.7785 217.018 25.3098 216.76 24.6766L215.804 20.7595C215.326 18.8009 214.848 16.8413 214.37 14.8827C213.256 10.3127 212.141 5.74164 211.027 1.17058C210.527 -0.879539 207.166 -0.0119736 207.667 2.04032C209.099 7.9171 210.533 13.7928 211.965 19.6696Z" fill="#4B4B78"/>
</g>
<path fill-rule="evenodd" clip-rule="evenodd" d="M261.504 35.7084C263.907 24.7901 267.429 14.3151 272.131 4.25113C273.035 2.31738 270.276 0.613171 269.367 2.55588C264.548 12.8707 260.883 23.6177 258.417 34.816C257.955 36.92 261.039 37.8169 261.504 35.7084Z" fill="#4B4B78"/>
<path fill-rule="evenodd" clip-rule="evenodd" d="M295.95 45.7857C302.628 38.3997 309.993 31.7551 318.077 25.9088C319.749 24.6996 318.131 21.9057 316.439 23.1288C308.131 29.1372 300.521 35.9159 293.655 43.51C292.264 45.0486 294.552 47.3317 295.95 45.7857Z" fill="#4B4B78"/>
<path fill-rule="evenodd" clip-rule="evenodd" d="M180.929 142.548C215.516 142.288 250.104 142.03 284.691 141.77C286.766 141.754 286.771 137.837 284.691 137.853C250.104 138.113 215.516 138.371 180.929 138.631C178.854 138.647 178.848 142.564 180.929 142.548Z" fill="#4B4B78"/>
<path fill-rule="evenodd" clip-rule="evenodd" d="M183.261 151.936C218.601 150.648 253.966 150.203 289.329 150.6C291.418 150.623 291.42 147.405 289.329 147.383C253.966 146.986 218.601 147.431 183.261 148.719C181.178 148.795 181.167 152.012 183.261 151.936Z" fill="#4B4B78"/>
<path fill-rule="evenodd" clip-rule="evenodd" d="M183.244 158.208C200.018 158.984 216.799 159.177 233.582 158.782C235.647 158.734 235.655 154.813 233.582 154.862C216.799 155.256 200.018 155.064 183.244 154.288C181.176 154.192 181.179 158.113 183.244 158.208Z" fill="#4B4B78"/>
<path fill-rule="evenodd" clip-rule="evenodd" d="M185.594 168.211L280.052 168.37C282.117 168.373 282.12 164.365 280.052 164.363C249.9 164.312 219.747 164.261 189.596 164.21C189.249 163.824 188.78 163.595 188.217 163.702C187.2 163.893 186.184 164.084 185.168 164.276C183.348 164.618 183.834 168.209 185.594 168.211Z" fill="#4B4B78"/>
<mask id="mask1_2315_50101" style="mask-type:alpha" maskUnits="userSpaceOnUse" x="404" y="131" width="45" height="42">
<path fill-rule="evenodd" clip-rule="evenodd" d="M404.643 131.223H448.536V172.308H404.643V131.223Z" fill="white"/>
</mask>
<g mask="url(#mask1_2315_50101)">
<path fill-rule="evenodd" clip-rule="evenodd" d="M435.831 164.191C436.323 165.708 437.517 168.656 434.681 168.909C432.858 169.073 431.072 165.575 430.573 164.294C429.724 162.117 429.37 159.892 429.405 157.683C432.448 158.5 434.681 160.647 435.831 164.191ZM446.603 131.31C437.19 134.417 429.758 142.254 427.307 152.208C427.192 152.669 427.091 153.185 427.004 153.736C419.121 153.543 410.038 159.338 405.136 164.024C403.646 165.449 405.879 167.743 407.367 166.322C412.22 161.683 418.857 157.658 425.649 157.317C425.997 157.3 426.338 157.298 426.672 157.305C426.453 164.029 428.308 172.699 435.515 172.296C443.697 171.839 437.907 159.053 434.427 156.298C433.014 155.179 431.453 154.471 429.806 154.086C431.651 145.135 439.501 137.064 447.442 134.444C449.368 133.81 448.545 130.671 446.603 131.31Z" fill="#4B4B78"/>
</g>
<mask id="mask2_2315_50101" style="mask-type:alpha" maskUnits="userSpaceOnUse" x="28" y="126" width="45" height="36">
<path fill-rule="evenodd" clip-rule="evenodd" d="M28.6621 126.862H72.2221V161.271H28.6621V126.862Z" fill="white"/>
</mask>
<g mask="url(#mask2_2315_50101)">
<path fill-rule="evenodd" clip-rule="evenodd" d="M47.991 146.838C47.8313 148.157 47.6431 149.808 46.8916 150.953C45.4337 153.172 41.077 153.289 43.3831 148.527C44.4447 146.338 46.1275 144.921 48.0856 144.109C48.1277 145.012 48.1003 145.923 47.991 146.838ZM54.3208 140.079C53.0942 139.953 51.8665 139.97 50.664 140.127C48.2234 130.893 39.1484 125.674 29.8032 127.09C27.804 127.393 28.6544 130.478 30.642 130.177C37.2301 129.178 43.8257 132.27 46.7225 138.486C47.0872 139.269 47.3689 140.072 47.5886 140.889C45.2678 141.738 43.1887 143.197 41.6615 145.334C39.7076 148.067 38.0111 153.165 40.4381 156.161C42.4751 158.673 45.8301 157.774 47.7578 155.683C50.642 152.556 51.5785 147.549 51.2127 143.327C54.3239 143.006 57.6779 143.816 60.2909 145.361C65.3939 148.375 68.4894 153.868 69.0601 159.738C69.2577 161.769 72.4131 161.79 72.2134 159.738C71.2663 149.997 64.3355 141.103 54.3208 140.079Z" fill="#4B4B78"/>
</g>
<path fill-rule="evenodd" clip-rule="evenodd" d="M68.8578 222.366C65.2945 222.59 61.7322 222.817 58.1689 223.041C56.0086 223.178 55.994 227.192 58.1689 227.054C61.7322 226.829 65.2945 226.603 68.8578 226.378C71.0192 226.242 71.0327 222.228 68.8578 222.366Z" fill="#4B4B78"/>
<path fill-rule="evenodd" clip-rule="evenodd" d="M61.954 234.111C53.3792 233.971 45.0218 235.16 36.77 237.693C34.7743 238.307 35.6225 241.683 37.629 241.067C45.5988 238.621 53.6741 237.474 61.954 237.609C64.0336 237.643 64.0336 234.144 61.954 234.111Z" fill="#4B4B78"/>
<path fill-rule="evenodd" clip-rule="evenodd" d="M407.553 225.441C409.594 225.599 409.581 222.719 407.553 222.561C400.571 222.02 393.736 222.585 386.971 224.226C384.995 224.705 385.834 227.482 387.817 227.002C394.317 225.426 400.855 224.922 407.553 225.441Z" fill="#4B4B78"/>
<path fill-rule="evenodd" clip-rule="evenodd" d="M421.907 233.764C412.718 231.305 403.279 231.106 393.949 233.133C391.96 233.566 392.804 236.181 394.799 235.747C403.615 233.831 412.383 234.055 421.058 236.378C423.023 236.903 423.863 234.287 421.907 233.764Z" fill="#4B4B78"/>
<path fill-rule="evenodd" clip-rule="evenodd" d="M189.23 188.415C187.662 192.224 189.092 197.934 196.77 198.594C204.448 199.254 266.08 198.594 270.771 198.594C275.463 198.594 281.601 197.284 281.601 192.028C281.601 186.773 277.332 184.802 272.526 184.802H197.765C193.235 184.802 190.25 185.938 189.23 188.415Z" fill="#F76F60"/>
<path fill-rule="evenodd" clip-rule="evenodd" d="M475.085 47.3875C475.525 45.508 473.981 44.1967 472.272 44.4832C469.598 44.9318 466.915 45.2703 464.21 45.4513C463.37 45.5064 458.397 46.1392 457.571 45.9488C457.406 45.7819 457.248 45.6103 457.103 45.4198C456.722 44.9192 456.225 44.7067 455.714 44.6926C454.155 43.5954 451.442 44.8453 452.173 47.1813C453.034 49.9409 453.723 52.7208 454.098 55.6C454.395 57.8747 455.36 62.7657 454.107 64.7743C452.901 66.7074 455.345 69.3551 457.236 68.0061C461.225 65.1568 469.165 66.3091 473.775 66.6444C474.897 66.7247 476.217 65.489 476.062 64.2832C475.37 58.8696 473.821 52.7948 475.085 47.3875Z" fill="#C8D5FF"/>
<mask id="mask3_2315_50101" style="mask-type:alpha" maskUnits="userSpaceOnUse" x="447" y="42" width="31" height="32">
<path fill-rule="evenodd" clip-rule="evenodd" d="M447.388 42.5688H478V73.4089H447.388V42.5688Z" fill="white"/>
</mask>
<g mask="url(#mask3_2315_50101)">
<path fill-rule="evenodd" clip-rule="evenodd" d="M465.861 67.0351C461.726 67.0155 457.741 67.2308 454.047 68.721C455.94 61.9111 455.329 54.8213 452.374 48.4344C459.175 51.037 466.586 51.8468 472.75 48.189C471.212 54.6933 471.532 61.291 473.618 67.6493C471.196 66.9418 468.492 67.0471 465.861 67.0351ZM477.85 70.3298C474.011 61.977 473.803 53.0386 477.017 44.448C477.556 43.0089 475.497 41.9477 474.508 42.9833C467.575 50.2298 457.674 47.9854 449.688 43.9874C448.432 43.3597 446.755 44.7009 447.632 46.0481C452.697 53.8319 453.476 62.8892 449.935 71.4452C449.628 72.1873 449.952 72.7517 450.485 73.0362C450.901 73.4321 451.512 73.5781 452.141 73.1461C455.769 70.6489 459.809 70.1085 464.129 70.0407C467.664 69.985 472.805 69.3573 475.491 72.1542C476.745 73.4577 478.53 71.8079 477.85 70.3298Z" fill="#4B4B78"/>
</g>
<path fill-rule="evenodd" clip-rule="evenodd" d="M59.7299 75.7343C58.7528 74.0704 56.7326 74.1923 55.6948 75.5833C54.0712 77.7599 52.365 79.8633 50.5349 81.8676C49.9657 82.4893 46.8072 86.3917 46.0787 86.8264C45.8447 86.8198 45.6118 86.8056 45.3758 86.7683C44.7553 86.6704 44.2495 86.8611 43.8706 87.2046C41.987 87.4919 40.8881 90.2741 43.0262 91.4569C45.551 92.855 47.9653 94.3872 50.221 96.2087C52.0038 97.6471 56.0727 100.514 56.5514 102.834C57.0122 105.067 60.6037 105.288 61.0403 103.003C61.9602 98.1799 68.4935 93.5128 72.057 90.5616C72.9234 89.8424 73.0259 88.0346 72.0823 87.2706C67.8505 83.8368 62.5436 80.5185 59.7299 75.7343Z" fill="#B8F9B9"/>
<mask id="mask4_2315_50101" style="mask-type:alpha" maskUnits="userSpaceOnUse" x="36" y="70" width="44" height="44">
<path fill-rule="evenodd" clip-rule="evenodd" d="M36.3887 91.4365L58.5154 70.2314L79.7734 92.5247L57.6466 113.73L36.3887 91.4365Z" fill="white"/>
</mask>
<g mask="url(#mask4_2315_50101)">
<path fill-rule="evenodd" clip-rule="evenodd" d="M66.6053 96.3266C63.6028 99.177 60.8707 102.093 59.2279 105.729C55.9025 99.4948 50.5738 94.7931 44.0354 92.2232C50.7448 89.3938 56.6603 84.8452 58.5943 77.9313C61.9663 83.6981 66.7452 88.2458 72.6355 91.3973C70.3972 92.5636 68.5151 94.513 66.6053 96.3266ZM77.5427 90.4025C69.01 87.0242 62.699 80.7065 59.1002 72.2707C58.4979 70.8571 56.2784 71.516 56.277 72.95C56.2609 82.9905 47.5572 88.2268 39.0284 90.8692C37.6884 91.285 37.4006 93.4163 38.9631 93.7827C47.9892 95.901 54.7957 101.908 58.1341 110.546C58.4231 111.296 59.0466 111.479 59.628 111.315C60.2015 111.313 60.7439 110.996 60.9009 110.248C61.8017 105.929 64.3499 102.74 67.4257 99.6983C69.9422 97.2096 73.2257 93.1944 77.0952 93.3554C78.9 93.4292 79.0533 90.9999 77.5427 90.4025Z" fill="#4B4B78"/>
</g>
<path fill-rule="evenodd" clip-rule="evenodd" d="M13.1373 30.0419C13.1124 30.0097 13.0836 29.9865 13.0587 29.9555C12.9933 29.8523 12.9213 29.749 12.831 29.6497C10.4426 27.043 6.91436 27.4275 4.21058 29.4522C1.41649 31.5453 -0.214159 35.8514 0.0227168 39.2414C0.097313 40.3202 0.925724 41.0544 1.85098 41.1357C1.87977 41.199 1.90202 41.2648 1.93474 41.3267C2.65976 42.6352 4.23021 42.861 5.5965 42.8662C8.47958 42.8765 12.4541 41.5809 14.0677 39.044C15.8031 36.3186 14.9537 32.4899 13.1373 30.0419Z" fill="#F76F60"/>
<path fill-rule="evenodd" clip-rule="evenodd" d="M11.1064 42.3196C14.7762 41.0814 18.2624 37.4808 18.0047 33.4249C17.7633 29.6085 14.3349 25.4694 10.4992 24.8243C8.91636 24.5588 8.23621 26.9484 9.83035 27.2176C12.3523 27.6419 14.3399 29.8603 15.1282 32.2214C16.2622 35.6173 13.5756 38.8307 10.4376 39.9263C8.0338 40.7662 4.56769 40.6546 3.13322 38.2116C1.66354 35.7091 2.85537 31.9299 4.87067 30.1842C6.0889 29.1296 4.30367 27.3801 3.09173 28.4298C0.215245 30.9212 -0.889838 35.6197 0.791045 39.0876C2.59765 42.8085 7.46554 43.5479 11.1064 42.3196Z" fill="#4B4B78"/>
<path fill-rule="evenodd" clip-rule="evenodd" d="M389.474 92.0204C389.508 92.0429 389.543 92.0555 389.576 92.0767C389.672 92.1531 389.773 92.2274 389.891 92.292C392.993 93.982 396.206 92.4714 398.107 89.677C400.071 86.7885 400.219 82.1843 398.897 79.054C398.477 78.0575 397.456 77.6321 396.555 77.8559C396.507 77.8054 396.464 77.7504 396.413 77.7024C395.304 76.7001 393.746 76.9968 392.452 77.436C389.722 78.3633 386.383 80.881 385.679 83.8058C384.92 86.9484 386.963 90.2948 389.474 92.0204Z" fill="#B8F9B9"/>
<path fill-rule="evenodd" clip-rule="evenodd" d="M387.417 79.7431C384.348 82.1074 382.217 86.6471 383.774 90.4008C385.239 93.9332 389.821 96.7349 393.657 96.0986C395.24 95.8354 395.11 93.3534 393.515 93.6168C390.993 94.0351 388.394 92.5822 386.884 90.6045C384.712 87.7602 386.212 83.8466 388.825 81.7901C390.826 80.2141 394.14 79.1932 396.288 81.0383C398.488 82.9283 398.585 86.8914 397.244 89.198C396.434 90.5918 398.689 91.6667 399.495 90.2797C401.408 86.9876 400.932 82.1829 398.219 79.4483C395.306 76.515 390.463 77.3976 387.417 79.7431Z" fill="#4B4B78"/>
</svg>
