<svg width="170" height="140" viewBox="0 0 170 140" fill="none" xmlns="http://www.w3.org/2000/svg">
<g id="Group 50">
<path id="Fill 1" fill-rule="evenodd" clip-rule="evenodd" d="M62.5 26.7766C62.5 26.7766 58.1192 32.5567 53.892 36.0547C49.6653 39.5533 43.7485 43.8102 43.7485 43.8102C43.7485 43.8102 59.195 43.3557 60.809 43.2038C62.4229 43.0518 63.5241 40.6941 63.6265 38.7926C63.7298 36.8916 62.5 26.7766 62.5 26.7766Z" fill="#C8D5FF"/>
<path id="Fill 3" fill-rule="evenodd" clip-rule="evenodd" d="M142.175 129.483C142.175 135.292 116.358 140 84.5111 140C52.6644 140 26.8472 139.008 26.8472 129.483C26.8472 118.965 52.6644 118.965 84.5111 118.965C116.358 118.965 142.175 118.326 142.175 129.483Z" fill="#DDE5FF"/>
<path id="Fill 5" fill-rule="evenodd" clip-rule="evenodd" d="M39.7715 75.8598C39.7715 75.8598 40.8874 94.8506 40.9446 99.3014C41.0018 103.753 41.5658 130.636 41.5658 130.636C41.5658 130.636 75.9834 130.585 86.9895 130.636C97.9961 130.686 129.658 131.985 129.658 131.985C129.658 131.985 130.425 103.748 130.205 100.511C129.985 97.2742 128.607 74.8716 128.607 74.8716L101.07 99.3014L69.8451 97.9303C69.8451 97.9303 60.3577 89.2297 56.9205 86.6728C52.8534 83.6468 39.7715 75.8598 39.7715 75.8598Z" fill="#7699FF"/>
<path id="Fill 7" fill-rule="evenodd" clip-rule="evenodd" d="M38.4497 129.505C67.506 129.46 96.5608 129.952 125.602 130.982C126.49 131.014 126.489 129.488 125.602 129.457C96.5608 128.427 67.506 127.935 38.4497 127.979C37.5617 127.981 37.5603 129.506 38.4497 129.505Z" fill="#4B4B78"/>
<path id="Fill 9" fill-rule="evenodd" clip-rule="evenodd" d="M126.829 120.734C126.8 120.681 126.764 120.629 126.716 120.579C124.885 118.665 122.738 117.184 120.635 115.606C117.996 113.624 115.447 111.521 112.991 109.308C108.489 105.25 104.334 100.821 100.511 96.0954C100.482 96.0591 100.451 96.0302 100.42 96.0027C104.524 92.1764 108.665 88.3905 112.851 84.6574C114.955 82.781 117.069 80.9172 119.195 79.0651C120.313 78.0908 121.434 77.1198 122.558 76.1515C123.009 75.7648 123.458 75.378 123.909 74.9922C124.247 74.7029 124.585 74.4135 124.924 74.1246C125.049 74.0482 125.151 73.9592 125.237 73.8609C125.425 73.9662 125.619 74.0641 125.812 74.1619C126.678 89.671 127.013 105.203 126.829 120.734ZM121.965 71.4117C122.55 71.9835 123.174 72.5077 123.838 72.9778C123.011 73.6814 122.244 74.5774 121.665 75.096C121.77 73.8705 121.87 72.6428 121.965 71.4117ZM58.807 41.4159C56.2283 42.0756 53.1865 41.8273 50.5365 41.975C48.547 42.0864 46.5589 42.1814 44.5786 42.3846C47.3118 39.4705 51.0453 37.4045 53.9586 34.7137C56.7741 32.1132 59.207 29.1843 61.5883 26.1915C61.5229 26.8858 61.447 27.5633 61.4429 27.834C61.42 29.3488 61.4415 30.8645 61.5073 32.3779C61.6358 35.3562 62.6543 40.4313 58.807 41.4159ZM66.8895 96.0943C66.9622 96.174 67.0404 96.2281 67.1204 96.263C62.8772 100.754 57.7107 103.813 52.86 107.58C48.2036 111.197 44.0098 115.352 40.2901 119.956C40.674 104.659 40.3262 89.3535 39.2299 74.0881C39.2226 73.9894 39.1975 73.9032 39.1623 73.8258C40.5451 72.5612 41.928 71.2966 43.3117 70.0321C43.3771 71.9774 43.4429 73.9223 43.5083 75.8676C42.4669 75.1957 41.4242 74.5271 40.3815 73.8603C39.6313 73.3808 38.9424 74.59 39.6889 75.0671C49.3528 81.2446 59.0592 87.5293 66.8895 96.0943ZM127.044 73.7129C127.091 73.4641 127.003 73.2036 126.704 73.0582C126.685 73.0494 126.667 73.0391 126.649 73.0298C126.693 72.8742 126.687 72.7041 126.657 72.4818C126.627 72.2633 126.385 72.0336 126.178 71.9935C125.827 71.926 125.466 71.9959 125.103 72.1487C123.993 71.4246 122.992 70.5561 122.104 69.5431C123.038 56.7025 123.37 43.6029 122.181 30.8537C121.972 28.6162 121.408 26.402 119.523 25.0293C117.4 23.4838 114.534 23.5085 112.043 23.446C104.587 23.2592 97.1275 23.1791 89.6693 23.187C85.3434 23.1916 81.0175 23.2275 76.6916 23.2955C72.3803 23.3631 67.8866 23.837 63.659 22.7909C63.4272 22.7336 63.2334 22.7919 63.0876 22.9088C62.8545 22.7583 62.5546 22.755 62.3251 23.0458C62.3109 23.0635 62.2972 23.0807 62.2835 23.0984C62.0549 23.0491 61.7957 23.1306 61.6225 23.282L61.4849 23.4022C61.2371 23.6189 61.2504 23.9656 61.3866 24.2335C58.5907 27.7668 55.7665 31.2367 52.4084 34.2528C49.2171 37.1197 45.2697 39.2519 42.563 42.6342C42.5402 42.6375 42.5168 42.6393 42.494 42.6426C42.0286 42.7125 41.9207 43.129 42.0501 43.4827C42.0451 43.725 42.2092 43.9323 42.4336 44.0428C42.7107 52.2509 42.9886 60.459 43.2661 68.6671C43.0521 68.594 42.8062 68.6196 42.5927 68.8144C41.0622 70.2136 39.5317 71.6128 38.0012 73.0121C37.7265 73.2632 37.7379 73.5801 37.8892 73.8219C37.865 73.8997 37.8517 73.9873 37.8591 74.088C39.156 92.1481 39.4174 110.266 38.6426 128.357C38.6042 129.257 39.9756 129.255 40.014 128.357C40.1164 125.978 40.1973 123.598 40.2636 121.217C40.505 121.417 40.846 121.455 41.1029 121.136C45.1129 116.141 49.6852 111.64 54.8061 107.835C59.6911 104.205 64.6803 101.111 68.7776 96.5037C78.7496 97.1449 88.7303 97.6271 98.7178 97.9496C99.6006 97.978 99.5997 96.5801 98.7178 96.5517C88.7298 96.2288 78.7478 95.747 68.7748 95.1059C68.5943 95.0942 68.453 95.1455 68.346 95.2322C68.2308 95.2261 68.1134 95.2583 68.0018 95.3337C67.9707 95.2555 67.9264 95.1786 67.8601 95.1059C61.1731 87.7919 53.1252 82.1181 44.8985 76.7681C44.904 76.7275 44.9086 76.6865 44.9068 76.6413L43.7991 43.8657C47.6107 43.3746 51.4964 43.3196 55.3258 43.1057C57.6038 42.9785 60.2058 43.1239 61.7706 41.1134C63.6837 38.655 63.0039 35.2592 62.8778 32.3778C62.7845 30.2596 62.7795 28.1358 62.8618 26.0171C62.881 25.5186 62.9792 24.9697 62.966 24.4511C63.0538 24.3393 63.142 24.2274 63.2302 24.1161C63.2517 24.1231 63.2709 24.1328 63.2942 24.1384C67.243 25.116 71.3229 24.7847 75.3494 24.7153C79.8239 24.6384 84.2992 24.5955 88.7742 24.5862C93.2496 24.5769 97.7245 24.6016 102.199 24.6603C106.401 24.7153 110.734 24.5364 114.918 24.9725C117.299 25.2208 119.551 26.0609 120.396 28.5593C121.124 30.712 120.972 33.3157 121.075 35.5639C121.282 40.1013 121.387 44.6434 121.39 49.1854C121.393 55.8224 121.17 62.4556 120.74 69.0762C120.542 69.3143 120.468 69.6731 120.68 69.9848C120.535 72.1189 120.37 74.252 120.183 76.3827C118.072 78.2093 115.969 80.0446 113.878 81.8954C108.879 86.3214 103.942 90.8182 99.0584 95.3766C98.6109 95.795 98.9286 96.391 99.3825 96.527C99.3574 96.7101 99.399 96.9072 99.5421 97.0843C103.365 101.809 107.52 106.238 112.022 110.296C114.066 112.138 116.176 113.9 118.343 115.588C120.847 117.538 123.538 119.259 125.747 121.567C126.121 121.958 126.622 121.749 126.823 121.38C126.79 124.022 126.745 126.664 126.681 129.306C126.659 130.206 128.03 130.205 128.052 129.306C128.5 110.9 128.21 92.4849 127.182 74.1033C127.172 73.9444 127.121 73.8154 127.044 73.7129Z" fill="#4B4B78"/>
<path id="Fill 11" fill-rule="evenodd" clip-rule="evenodd" d="M74.0091 36.2544C74.347 34.9844 75.7483 35.0367 76.2268 36.153C76.6121 37.0521 77.8626 36.2719 77.4788 35.3773C76.4589 32.9981 73.2594 33.4085 72.6107 35.8456C72.3569 36.799 73.7563 37.2063 74.0091 36.2544Z" fill="#4B4B78"/>
<path id="Fill 13" fill-rule="evenodd" clip-rule="evenodd" d="M91.8003 36.4618C92.0938 35.9939 92.4823 35.4524 93.0279 35.2907C93.4211 35.1744 94.0346 35.3284 94.0505 35.8418C94.0794 36.7747 95.4775 36.7786 95.4481 35.8418C95.4127 34.6983 94.48 33.8274 93.3871 33.7916C92.1492 33.7514 91.2203 34.7288 90.5932 35.7285C90.1008 36.5136 91.3097 37.243 91.8003 36.4618Z" fill="#4B4B78"/>
<path id="Fill 15" fill-rule="evenodd" clip-rule="evenodd" d="M72.7856 41.9272C75.6572 44.6268 79.5233 45.3282 83.3839 45.6173C85.5397 45.7783 87.8068 46.001 89.9385 45.5355C92.2424 45.0316 94.2161 43.6922 96.1094 42.3897C96.4913 42.127 96.608 41.4863 96.1094 41.2496L95.9205 41.1603C95.6525 41.0327 95.3133 41.041 95.0953 41.2637C95.0471 41.3125 94.9985 41.3618 94.9504 41.4111C94.8646 41.4987 94.8133 41.5928 94.7846 41.6879C93.3927 42.6423 91.9435 43.5848 90.3073 44.0724C88.2895 44.6739 86.1346 44.4776 84.061 44.3434C80.3593 44.1045 76.5277 43.6059 73.7493 40.9935C73.1194 40.4017 72.1548 41.3341 72.7856 41.9272Z" fill="#4B4B78"/>
<path id="Fill 17" fill-rule="evenodd" clip-rule="evenodd" d="M54.5809 15.8819C55.5231 17.4451 56.128 19.2986 57.4769 20.5721C58.1195 21.1791 59.0948 20.2114 58.4504 19.6026C56.9041 18.1422 56.156 15.7068 54.9765 13.9411C53.7759 12.1438 52.3972 10.4919 50.8854 8.94693C50.2662 8.31387 49.2932 9.28381 49.9119 9.91642C51.689 11.7329 53.2683 13.7052 54.5809 15.8819Z" fill="#4B4B78"/>
<g id="Group 21">
<mask id="mask0_2_16328" style="mask-type:luminance" maskUnits="userSpaceOnUse" x="71" y="0" width="6" height="13">
<path id="Clip 20" fill-rule="evenodd" clip-rule="evenodd" d="M71.7422 0H76.2142V12.546H71.7422V0Z" fill="white"/>
</mask>
<g mask="url(#mask0_2_16328)">
<path id="Fill 19" fill-rule="evenodd" clip-rule="evenodd" d="M73.6032 8.39557C73.882 9.53625 73.8706 11.7227 74.9951 12.4452C75.353 12.675 75.7894 12.4791 76.0151 12.1949C76.0469 12.1549 76.0787 12.1144 76.1106 12.0744C76.2895 11.8492 76.2279 11.4078 75.9942 11.2287C75.9634 11.2054 75.9326 11.1821 75.9018 11.1584C75.8963 11.1542 75.8908 11.1519 75.8849 11.1482C75.8396 11.003 75.7651 10.803 75.6547 10.5327L75.2456 8.86077C75.0413 8.0248 74.8365 7.18836 74.6322 6.35238C74.1554 4.40178 73.6782 2.45071 73.2015 0.499637C72.9877 -0.375414 71.5496 -0.00511071 71.7639 0.870871C72.3768 3.37926 72.9902 5.88718 73.6032 8.39557Z" fill="#4B4B78"/>
</g>
</g>
<path id="Fill 22" fill-rule="evenodd" clip-rule="evenodd" d="M94.8007 15.2414C95.8293 10.5812 97.3362 6.11013 99.3485 1.81451C99.7351 0.989125 98.5546 0.261718 98.1657 1.09092C96.1036 5.4936 94.5351 10.0808 93.4801 14.8605C93.2824 15.7586 94.6022 16.1414 94.8007 15.2414Z" fill="#4B4B78"/>
<path id="Fill 24" fill-rule="evenodd" clip-rule="evenodd" d="M109.54 19.5429C112.398 16.3903 115.549 13.5542 119.008 11.0588C119.724 10.5427 119.032 9.35021 118.307 9.87228C114.752 12.4368 111.496 15.3302 108.558 18.5716C107.963 19.2283 108.942 20.2028 109.54 19.5429Z" fill="#4B4B78"/>
<path id="Fill 26" fill-rule="evenodd" clip-rule="evenodd" d="M60.3226 60.8439C75.1224 60.733 89.9226 60.6226 104.722 60.5117C105.61 60.5051 105.613 58.8333 104.722 58.84C89.9226 58.9509 75.1224 59.0612 60.3226 59.1721C59.4346 59.1788 59.4323 60.8506 60.3226 60.8439Z" fill="#4B4B78"/>
<path id="Fill 28" fill-rule="evenodd" clip-rule="evenodd" d="M61.3202 64.8512C76.4424 64.3015 91.5748 64.1115 106.707 64.2809C107.601 64.2905 107.601 62.9173 106.707 62.9077C91.5748 62.7383 76.4424 62.9283 61.3202 63.478C60.4288 63.5105 60.4241 64.8837 61.3202 64.8512Z" fill="#4B4B78"/>
<path id="Fill 30" fill-rule="evenodd" clip-rule="evenodd" d="M61.3131 67.5279C68.4905 67.8592 75.6712 67.9412 82.8527 67.7727C83.7363 67.7521 83.7396 66.0787 82.8527 66.0994C75.6712 66.2678 68.4905 66.1858 61.3131 65.8545C60.4281 65.8138 60.4295 67.4871 61.3131 67.5279Z" fill="#4B4B78"/>
<path id="Fill 32" fill-rule="evenodd" clip-rule="evenodd" d="M62.319 71.7978L102.738 71.8657C103.621 71.8668 103.622 70.1563 102.738 70.1552C89.8357 70.1335 76.9332 70.1118 64.0312 70.0902C63.883 69.9254 63.6822 69.8273 63.4411 69.8729C63.0061 69.9545 62.5715 70.036 62.1365 70.1181C61.3579 70.2641 61.5656 71.7967 62.319 71.7978Z" fill="#4B4B78"/>
<g id="Group 36">
<mask id="mask1_2_16328" style="mask-type:luminance" maskUnits="userSpaceOnUse" x="151" y="56" width="19" height="18">
<path id="Clip 35" fill-rule="evenodd" clip-rule="evenodd" d="M151.214 56.0105H169.996V73.5468H151.214V56.0105Z" fill="white"/>
</mask>
<g mask="url(#mask1_2_16328)">
<path id="Fill 34" fill-rule="evenodd" clip-rule="evenodd" d="M164.559 70.0816C164.77 70.729 165.281 71.9874 164.067 72.0956C163.287 72.1654 162.523 70.6722 162.309 70.1255C161.946 69.1965 161.794 68.2466 161.81 67.3037C163.112 67.6524 164.067 68.5689 164.559 70.0816ZM169.169 56.0473C165.141 57.3736 161.96 60.7185 160.912 64.9671C160.863 65.1641 160.819 65.3842 160.782 65.6196C157.409 65.5368 153.522 68.0105 151.425 70.0106C150.787 70.6187 151.743 71.5982 152.379 70.9914C154.456 69.0112 157.296 67.2932 160.202 67.148C160.351 67.1406 160.497 67.1397 160.64 67.1429C160.546 70.0129 161.34 73.7134 164.424 73.5414C167.925 73.3462 165.447 67.8888 163.958 66.7128C163.354 66.2351 162.686 65.9331 161.981 65.769C162.77 61.9482 166.13 58.5034 169.528 57.3852C170.352 57.1142 169.999 55.7744 169.169 56.0473Z" fill="#4B4B78"/>
</g>
</g>
<g id="Group 39">
<mask id="mask2_2_16328" style="mask-type:luminance" maskUnits="userSpaceOnUse" x="0" y="54" width="19" height="15">
<path id="Clip 38" fill-rule="evenodd" clip-rule="evenodd" d="M0.00390625 54.1486H18.6433V68.8355H0.00390625V54.1486Z" fill="white"/>
</mask>
<g mask="url(#mask2_2_16328)">
<path id="Fill 37" fill-rule="evenodd" clip-rule="evenodd" d="M8.27432 62.6755C8.20595 63.2384 8.12545 63.943 7.80387 64.4317C7.18005 65.379 5.3158 65.4286 6.30257 63.3964C6.75683 62.4619 7.47689 61.857 8.3148 61.5104C8.33279 61.8957 8.32109 62.2847 8.27432 62.6755ZM10.9832 59.7905C10.4583 59.7368 9.93298 59.744 9.41846 59.811C8.37411 55.8696 4.49089 53.642 0.492071 54.2464C-0.363372 54.3757 0.000483484 55.6924 0.85098 55.564C3.67008 55.1377 6.49232 56.4576 7.73186 59.1105C7.88792 59.4448 8.00846 59.7878 8.10246 60.1362C7.10939 60.4987 6.21976 61.1213 5.56626 62.0336C4.73016 63.2 4.00425 65.3761 5.04274 66.655C5.91438 67.7271 7.35001 67.3432 8.17487 66.4509C9.40901 65.116 9.80975 62.9791 9.65323 61.1769C10.9845 61.0398 12.4197 61.3855 13.5378 62.045C15.7214 63.3316 17.0459 65.6762 17.2902 68.1816C17.3747 69.0483 18.7249 69.0575 18.6394 68.1816C18.2342 64.0239 15.2685 60.2277 10.9832 59.7905Z" fill="#4B4B78"/>
</g>
</g>
<path id="Fill 40" fill-rule="evenodd" clip-rule="evenodd" d="M17.2035 94.9127C15.6787 95.0086 14.1545 95.1051 12.6297 95.201C11.7053 95.2592 11.6991 96.9725 12.6297 96.9137C14.1545 96.8178 15.6787 96.7213 17.2035 96.6254C18.1284 96.5672 18.1341 94.8539 17.2035 94.9127Z" fill="#4B4B78"/>
<path id="Fill 42" fill-rule="evenodd" clip-rule="evenodd" d="M14.2494 99.9259C10.5802 99.8661 7.00411 100.374 3.47314 101.455C2.61918 101.717 2.98213 103.158 3.8407 102.895C7.251 101.851 10.7064 101.361 14.2494 101.419C15.1393 101.434 15.1393 99.9403 14.2494 99.9259Z" fill="#4B4B78"/>
<path id="Fill 44" fill-rule="evenodd" clip-rule="evenodd" d="M152.459 96.2253C153.332 96.2929 153.327 95.0634 152.459 94.9962C149.471 94.7651 146.547 95.0064 143.652 95.7066C142.807 95.911 143.166 97.0967 144.014 96.8914C146.795 96.2187 149.593 96.0036 152.459 96.2253Z" fill="#4B4B78"/>
<path id="Fill 46" fill-rule="evenodd" clip-rule="evenodd" d="M158.601 99.7779C154.669 98.7284 150.63 98.6435 146.638 99.5088C145.787 99.6935 146.148 100.809 147.001 100.624C150.774 99.8065 154.526 99.9021 158.238 100.893C159.078 101.118 159.438 100.001 158.601 99.7779Z" fill="#4B4B78"/>
<path id="Fill 48" fill-rule="evenodd" clip-rule="evenodd" d="M63.875 80.4214C63.2037 82.0473 63.8156 84.4845 67.1011 84.7662C70.3866 85.048 96.7592 84.7662 98.7662 84.7662C100.774 84.7662 103.401 84.2071 103.401 81.9638C103.401 79.7208 101.574 78.8795 99.5174 78.8795H67.5269C65.5886 78.8795 64.3114 79.3643 63.875 80.4214Z" fill="#F76F60"/>
</g>
</svg>
