<svg xmlns="http://www.w3.org/2000/svg" width="20.03" height="20.031" viewBox="0 0 20.03 20.031">
  <metadata><?xpacket begin="﻿" id="W5M0MpCehiHzreSzNTczkc9d"?>
<x:xmpmeta xmlns:x="adobe:ns:meta/" x:xmptk="Adobe XMP Core 5.6-c140 79.160451, 2017/05/06-01:08:21        ">
   <rdf:RDF xmlns:rdf="http://www.w3.org/1999/02/22-rdf-syntax-ns#">
      <rdf:Description rdf:about=""/>
   </rdf:RDF>
</x:xmpmeta>
                                                                                                    
                                                                                                    
                                                                                                    
                                                                                                    
                                                                                                    
                                                                                                    
                                                                                                    
                                                                                                    
                                                                                                    
                                                                                                    
                                                                                                    
                                                                                                    
                                                                                                    
                                                                                                    
                                                                                                    
                                                                                                    
                                                                                                    
                                                                                                    
                                                                                                    
                                                                                                    
                           
<?xpacket end="w"?></metadata>
<defs>
    <style>
      .cls-1 {
        fill: #fff;
        fill-rule: evenodd;
        opacity: 0.5;
      }
    </style>
  </defs>
  <path class="cls-1" d="M2000.01,58.017a10,10,0,1,1,10.01-10A10,10,0,0,1,2000.01,58.017Zm5.69-3.055a6.967,6.967,0,0,0-11.4,0A8.988,8.988,0,0,0,2005.7,54.961ZM2000,39a9,9,0,0,0-6.44,15.28,7.962,7.962,0,0,1,12.88,0A9,9,0,0,0,2000,39Zm-0.01,10a3.5,3.5,0,1,1,3.5-3.5A3.5,3.5,0,0,1,1999.99,49Zm0-6a2.5,2.5,0,1,0,2.5,2.5A2.5,2.5,0,0,0,1999.99,43Z" transform="translate(-1990 -38)"/>
</svg>
