<svg width="268" height="173" viewBox="0 0 268 173" fill="none" xmlns="http://www.w3.org/2000/svg">
<path fill-rule="evenodd" clip-rule="evenodd" d="M108.139 61.4968C108.139 61.4968 108.124 58.8245 107.502 57.193C106.88 55.5615 101.615 51.4285 101.617 50.0707C101.62 48.7133 101.996 43.0919 104.731 40.8398C107.466 38.5882 110.396 37.8169 114.042 38.0089C117.689 38.201 121.271 41.006 122.67 44.7017C124.07 48.3979 123.697 50.5142 121.407 53.5113C119.118 56.5084 117.628 58.5514 117.325 59.7657C117.022 60.9805 116.967 61.9966 115.765 62.5867C114.563 63.1769 111.945 62.9197 110.631 62.6399C109.319 62.3606 108.139 61.4968 108.139 61.4968Z" fill="#FFA801"/>
<path fill-rule="evenodd" clip-rule="evenodd" d="M105.46 40.8373C107.883 39.1032 112.51 38.4188 115.459 39.1233C118.407 39.8279 121.212 43.5773 122.097 46.3006C123.205 49.7129 121.145 52.4014 119.125 54.9653C117.742 56.7211 116.645 58.3992 115.998 60.5205C115.527 62.0644 114.875 62.1249 113.235 62.1941C112.956 58.9837 112.401 55.6305 112.544 52.4085C114.262 52.4327 115.265 50.0652 115.859 48.8246C116.14 48.2392 115.243 47.7259 114.961 48.3149C114.675 48.914 114.375 49.5115 114.012 50.0707C113.84 50.3352 113.552 50.9378 113.265 51.0665C112.589 51.3693 111.701 50.9645 111.208 50.5633C110.779 50.2141 110.334 49.888 109.858 49.6019C109.264 49.244 108.333 49.0144 107.939 48.4289C107.574 47.8874 106.673 48.3926 107.041 48.9382C107.631 49.8143 108.677 50.045 109.552 50.6047C110.203 51.0211 110.801 51.7181 111.515 52.1122C111.33 55.2933 111.861 58.6102 112.159 61.7999C112.133 61.8776 112.119 61.9619 112.138 62.0578C112.146 62.1088 112.156 62.1597 112.166 62.2107C110.775 62.1799 109.412 61.921 108.077 61.5279C108.102 59.5399 107.531 57.7063 106.449 55.9843C105.132 53.8872 102.27 52.1279 101.707 49.6973C101.053 46.8735 103.175 42.472 105.46 40.8373ZM115.316 63.0635C115.35 63.0978 112.886 63.421 112.62 63.4326C112.051 63.4569 111.481 63.4675 110.911 63.4634C110.572 63.4609 109.505 63.5609 109.202 63.4099C108.908 63.264 108.784 62.9994 108.664 62.7287C110.848 63.2498 113.023 63.3124 115.226 62.9246C115.25 62.9716 115.273 63.0191 115.316 63.0635ZM114.742 64.2442C114.678 64.8991 114.335 65.1602 113.713 65.0264C113.529 65.0334 113.345 65.0405 113.161 65.0476C112.517 65.0799 111.872 65.0971 111.227 65.1218C110.173 65.1622 108.794 65.4379 108.649 64.3159C108.701 64.3351 108.746 64.3578 108.806 64.3734C110.115 64.7173 111.854 64.4921 113.19 64.4123C113.494 64.3947 114.102 64.3487 114.713 64.2321C114.724 64.2346 114.731 64.2422 114.742 64.2442ZM112.055 68.9291C111.555 68.9276 111.076 68.7655 110.649 68.5191C110.592 68.4857 110.35 68.3257 110.108 68.1358C110.419 68.1267 110.722 68.1045 110.998 68.0914C111.771 68.055 112.882 68.1646 113.822 68.0287C113.443 68.5837 112.807 68.9316 112.055 68.9291ZM114.675 65.9267C114.645 66.154 114.497 66.3413 114.202 66.4797C113.999 66.9008 113.676 67.0664 113.234 66.977C112.851 67.0674 112.382 67.0174 111.991 67.0356C111.577 67.0553 111.163 67.076 110.749 67.0942C110.647 67.0992 110.116 67.1068 109.61 67.0477C109.497 66.7301 109.046 66.5599 108.775 66.816C108.6 66.6978 108.559 66.5332 108.786 66.2984C108.816 66.2676 108.828 66.2332 108.848 66.2009C109.265 66.2605 109.728 66.1883 110.121 66.1731C111.134 66.1343 112.147 66.0979 113.16 66.0565C113.635 66.0373 114.178 66.0343 114.675 65.9267ZM107.025 62.0446C107.007 62.3383 107.211 62.4913 107.442 62.519C107.441 62.6048 107.466 62.6962 107.532 62.7895C107.69 63.0121 107.782 63.2362 107.87 63.4467C107.739 63.5254 107.636 63.65 107.613 63.8312C107.532 64.4702 107.54 65.2156 107.946 65.7117C107.546 66.2169 107.515 66.8614 107.928 67.4136C108.11 67.6563 108.342 67.8173 108.6 67.9284C108.982 68.9352 110.619 69.7448 111.51 69.8901C113.176 70.1622 114.874 69.1326 115.158 67.4827C115.159 67.4817 115.158 67.4807 115.158 67.4792C115.667 66.9765 115.818 66.1165 115.671 65.4417C115.775 65.3433 115.87 65.2313 115.949 65.0955C116.21 64.6443 116.167 64.1946 115.936 63.8489C116.419 63.594 116.665 63.2256 116.328 62.6942C116.396 62.6775 116.463 62.6664 116.531 62.6492C116.752 62.5927 116.911 62.3822 116.912 62.1622C116.945 56.2512 124.737 53.0363 123.32 46.7861C122.739 44.2248 120.781 41.621 118.834 39.8526C116.761 37.9685 114.352 37.8434 111.632 38.0579C109.23 38.2476 106.693 38.5853 104.732 40.063C102.735 41.568 101.677 43.9916 101.005 46.29C100.385 48.4122 100.436 50.2756 101.816 52.1001C104.279 55.3564 107.315 57.5467 107.025 62.0446Z" fill="#3D3D54"/>
<path fill-rule="evenodd" clip-rule="evenodd" d="M107.509 47.7402C108.221 46.7113 108.645 46.2836 109.752 46.3582C110.011 46.3755 110.231 46.504 110.493 46.4681C111.266 46.3623 111.462 45.7474 112.213 45.9505C112.888 46.1329 113.017 46.2304 113.747 46.1716C114.612 46.1018 115.181 46.9034 116.006 46.8101C116.704 46.732 116.711 45.3493 116.006 45.4281C115.606 45.473 115.281 44.8193 114.921 44.7115C114.468 44.5747 114.307 44.6977 113.858 44.7012C113.52 44.8884 113.174 44.8967 112.818 44.7247C112.724 44.5713 112.628 44.4186 112.531 44.2679C112.334 44.1726 112.197 43.9825 111.956 43.9722C111.666 43.9604 111.616 44.1622 111.345 44.2562C110.737 44.4662 110.017 44.5492 109.432 44.6666C108.286 44.8967 107.484 45.6769 106.732 46.7631C106.269 47.4313 107.044 48.4126 107.509 47.7402Z" fill="#3D3D54"/>
<path fill-rule="evenodd" clip-rule="evenodd" d="M88.056 41.9391C90.0508 42.5277 92.082 42.8678 94.1668 42.9738C94.8239 43.0074 94.8219 42.0345 94.1668 42.0009C92.1724 41.8997 90.2343 41.5641 88.3273 41.0008C87.6983 40.815 87.4285 41.7538 88.056 41.9391Z" fill="#3D3D54"/>
<path fill-rule="evenodd" clip-rule="evenodd" d="M92.9388 32.9694C94.8667 34.0079 96.8218 34.9932 98.8067 35.9259C99.4325 36.2202 99.9824 35.3127 99.3539 35.0169C97.3695 34.0842 95.4139 33.0989 93.486 32.0604C92.8754 31.7314 92.3276 32.6404 92.9388 32.9694Z" fill="#3D3D54"/>
<path fill-rule="evenodd" clip-rule="evenodd" d="M103.753 30.5176C104.177 31.4958 104.592 32.3865 105.705 32.9194C106.367 33.2366 106.961 32.3725 106.3 32.0552C105.021 31.4423 104.686 29.7715 104.229 28.7007L102.794 25.3407C102.537 24.7402 101.396 24.9994 101.655 25.6069C102.354 27.2436 103.044 28.8833 103.753 30.5176Z" fill="#3D3D54"/>
<path fill-rule="evenodd" clip-rule="evenodd" d="M117.851 32.6488C118.257 31.6641 118.662 30.6798 119.067 29.6951C119.254 29.2409 119.441 28.7862 119.628 28.3316C119.77 27.9882 119.863 27.3555 120.125 26.985C120.145 26.9768 120.163 26.9691 120.182 26.9609C120.498 26.8274 120.598 26.528 120.422 26.2992C120.406 26.2789 120.39 26.2581 120.374 26.2378C120.175 25.979 119.607 25.906 119.324 26.1396C118.542 26.7853 118.391 27.9476 118.059 28.7563C117.559 29.9683 117.06 31.1799 116.562 32.3915C116.316 32.9898 117.607 33.2452 117.851 32.6488Z" fill="#3D3D54"/>
<path fill-rule="evenodd" clip-rule="evenodd" d="M125.237 36.9051L131.207 33.0722C131.701 32.7545 131.367 31.834 130.823 32.0125C130.67 32.0624 130.517 32.1128 130.365 32.1632C130.197 32.2183 130.099 32.3435 130.051 32.4902C128.278 33.6281 126.506 34.766 124.734 35.904C124.172 36.2645 124.674 37.2662 125.237 36.9051Z" fill="#3D3D54"/>
<path fill-rule="evenodd" clip-rule="evenodd" d="M125.676 42.6331C126.076 43.4253 127.078 42.6903 126.674 41.893C127.005 42.5451 130.394 41.3341 130.856 41.2344C132.236 40.9351 133.618 40.6608 135.004 40.4033C135.738 40.2669 135.426 38.8527 134.697 38.9884C132.246 39.4446 129.803 39.9596 127.37 40.5515C126.567 40.7473 124.915 41.1302 125.676 42.6331Z" fill="#3D3D54"/>
<path d="M138.592 160.314C140.408 152.501 175.324 157.059 192.556 160.314C196.086 162.123 194.069 164.293 189.025 164.293C171.458 166.222 136.777 168.127 138.592 160.314Z" fill="#191526" fill-opacity="0.5"/>
<path fill-rule="evenodd" clip-rule="evenodd" d="M140.374 116.93C140.445 116.99 143.321 119.575 157.491 119.482C171.66 119.388 179.141 117.439 179.141 117.439C179.141 117.439 176.154 135.551 175.666 139.728C175.178 143.906 172.946 158.357 172.348 159.987C171.75 161.618 171.329 163.283 170.487 163.055C169.643 162.828 165.257 148.307 163.698 140.003C162.138 131.699 159.198 130.691 157.514 131.089C155.829 131.488 154.807 133.146 154.077 144.316C153.347 155.486 150.067 162.793 148.957 162.53C147.847 162.267 145.733 159.878 144.152 149.976C142.571 140.074 140.374 116.93 140.374 116.93Z" fill="#4C66FF"/>
<path d="M155.235 81.7742C156.373 82.9164 157.056 85.201 155.235 85.201C153.414 85.201 153.528 82.3453 155.235 81.7742Z" fill="#FF79C6"/>
<path d="M156.943 93.197C156.487 90.9125 155.615 88.0568 155.235 86.9146C154.287 87.4857 152.389 88.9706 152.389 90.3414V98.9084L151.251 107.475L155.235 112.616L158.65 109.189C159.409 108.427 160.585 106.333 159.219 104.049C157.512 101.193 157.512 96.0527 156.943 93.197Z" fill="#FF79C6"/>
<path d="M172.404 53.2175C165.119 58.2435 159.503 53.0271 157.606 49.7907C157.606 49.7907 156.467 48.0773 154.76 48.0773C153.052 48.0773 149.637 53.2175 147.36 48.6484C144.515 42.9371 150.776 41.2236 153.052 40.0814C155.329 38.9391 164.436 38.368 169.558 40.0814C174.681 41.7948 181.511 46.935 172.404 53.2175Z" fill="#66D8FF"/>
<path d="M178.671 111.473C180.037 117.413 178.102 118.136 176.963 117.756C174.871 119.469 145.089 119.469 140.536 117.756C136.893 116.385 139.018 113.758 140.536 112.615C139.587 111.854 137.918 107.361 138.828 95.4813C139.967 80.6318 147.935 71.4937 149.643 69.7803C151.35 68.0669 147.935 52.0751 152.489 46.3637C157.042 40.6524 161.026 42.9369 165.58 49.7905C170.133 56.6442 164.441 71.4937 166.718 71.4937C168.995 71.4937 171.272 76.6339 173.548 80.6318C175.825 84.6297 178.671 102.906 178.671 111.473Z" stroke="#3D3D54" stroke-linecap="round"/>
<path fill-rule="evenodd" clip-rule="evenodd" d="M140.726 118.259C141.372 129.767 143.024 141.196 145.757 152.399C146.302 154.633 146.598 158.033 147.909 159.983C149.152 161.833 149.851 160.741 150.604 159.257C151.381 157.724 151.891 155.938 152.313 154.275C153.652 149 153.788 143.53 154.352 138.143C154.584 135.922 154.406 130.331 157.432 129.724C160.374 129.133 162.533 134.243 163.362 136.247C165.246 140.802 166.083 145.741 167.109 150.535C167.653 153.074 168.226 155.612 168.995 158.095C169.339 159.205 169.652 161.472 170.849 161.39C172.101 161.305 172.665 158.125 172.975 156.966C174.595 150.885 174.973 144.465 175.699 138.234C176.464 131.673 177.229 125.113 177.993 118.552C178.077 117.834 179.221 117.825 179.136 118.552C178.414 124.748 177.692 130.944 176.97 137.14C176.286 143.003 175.843 148.963 174.658 154.753C174.332 156.35 173.395 163.792 170.391 163.02C168.978 162.656 168.586 160.512 168.21 159.385C167.22 156.427 166.547 153.374 165.899 150.328C164.717 144.776 163.871 138.541 160.781 133.654C160.459 133.145 159.606 131.755 159.266 131.662C158.771 131.828 158.277 131.993 157.783 132.159C156.682 132.06 156.136 132.458 156.141 133.352C155.442 134.453 155.636 136.785 155.495 138.143C155.183 141.131 155 144.132 154.673 147.118C154.183 151.593 153.621 157.428 150.851 161.185C148.511 164.358 147.031 161.302 146.248 158.768C142.224 145.755 140.344 131.818 139.584 118.259C139.543 117.528 140.686 117.53 140.726 118.259Z" fill="#3D3D54"/>
<path d="M175.727 43.5083C174.209 43.5083 170.376 43.1656 167.189 41.7949C163.205 40.0815 156.944 41.7949 158.651 45.7928" stroke="#3D3D54" stroke-linecap="round"/>
<path fill-rule="evenodd" clip-rule="evenodd" d="M155.336 111.801C155.871 111.126 156.411 110.457 156.975 109.803C157.754 108.898 159.506 107.686 159.398 106.39C159.353 105.85 158.75 104.856 158.577 104.388C158.112 103.127 157.746 101.833 157.445 100.529C156.976 98.51 156.681 96.4552 156.458 94.3987C156.313 93.0586 156.263 91.7094 156.118 90.3709C156.1 90.2092 155.768 88.3663 155.327 87.5334C152.186 90.8083 153.258 96.1148 152.87 100.192C152.705 101.926 152.239 103.666 152.126 105.393C151.947 108.108 153.646 109.786 155.336 111.801ZM155.655 83.7411C155.7 83.2198 155.373 82.7599 155.008 82.3863C154.907 82.4195 154.818 82.4567 154.797 82.4686C154.548 82.6038 154.35 82.8631 154.234 83.1077C154.005 83.5895 154.026 84.299 154.632 84.5307C155.196 84.7471 155.613 84.2292 155.655 83.7411ZM151.771 99.1761C152.062 95.2909 151.38 90.8776 153.804 87.5644C153.558 87.419 153.402 87.1254 153.582 86.8137C153.977 86.1307 154.002 86.1329 154.641 85.6753C154.212 85.6195 153.793 85.42 153.457 85.0712C152.533 84.1091 152.879 82.5965 153.819 81.7647C154.136 81.4846 154.546 81.3077 154.955 81.2558C155.108 81.1842 155.289 81.1831 155.458 81.2677C155.899 81.3387 156.291 81.5816 156.49 82.064C156.552 82.215 156.536 82.3429 156.482 82.4489C156.882 83.177 156.999 84.0071 156.513 84.786C156.206 85.2791 155.729 85.5643 155.22 85.6528C155.277 85.6798 155.331 85.7131 155.378 85.7491C157.582 87.4466 157.281 90.4543 157.497 92.8872C157.922 97.6629 158.764 102.347 160.857 106.736C160.971 106.975 160.958 107.222 160.765 107.419C159.017 109.2 157.387 111.048 155.856 113.002C155.572 113.363 155.117 113.359 154.833 113.002C153.575 111.42 151.069 109.359 150.684 107.33C150.517 106.455 150.924 105.419 151.076 104.591C151.403 102.799 151.636 100.99 151.771 99.1761Z" fill="#3D3D54"/>
<path d="M150.114 69.2092C151.442 72.2553 156.148 77.2051 164.344 72.636" stroke="#3D3D54" stroke-linecap="round"/>
<path d="M168.898 74.9207C164.914 77.9667 156.718 82.9165 155.807 78.3475" stroke="#3D3D54" stroke-linecap="round"/>
<path d="M155.805 78.3473C155.425 79.2992 153.797 80.3372 152.39 79.4896C149.544 77.7762 148.595 75.4916 146.698 74.3494" stroke="#3D3D54" stroke-linecap="round"/>
<path d="M176.867 52.6463C176.298 52.456 174.363 51.7325 171.175 50.3618C167.988 48.9911 166.053 50.1714 165.484 50.9329" stroke="#3D3D54" stroke-linecap="round"/>
<path d="M173.449 46.3638C171.552 46.3638 166.961 45.9069 163.773 44.0792C160.586 42.2516 160.548 45.2215 160.927 46.9349" stroke="#3D3D54" stroke-linecap="round"/>
<path d="M153.53 42.366C152.96 43.889 152.391 46.935 154.668 46.935" stroke="#3D3D54" stroke-linecap="round"/>
<path d="M159.789 39.5103C157.512 40.4621 153.642 43.0513 156.374 45.7927" stroke="#3D3D54" stroke-linecap="round"/>
<path d="M160.93 65.7825C159.981 66.544 157.628 67.6101 155.807 65.7825" stroke="#E1E1E4" stroke-linecap="round"/>
<path d="M141.578 112.616C151.064 114.519 171.744 117.07 178.574 112.044" stroke="#3D3D54" stroke-linecap="round"/>
<path d="M168.896 114.9C169.275 115.852 169.806 117.87 168.896 118.327" stroke="#3D3D54" stroke-linecap="round"/>
<path d="M148.406 113.758C147.078 114.329 144.991 116.042 147.268 118.327" stroke="#3D3D54" stroke-linecap="round"/>
<path d="M160.928 118.898C164.115 118.441 161.497 116.042 159.79 114.9C157.058 113.986 155.616 116.423 155.236 117.755C155.805 118.327 157.74 119.355 160.928 118.898Z" stroke="#3D3D54" stroke-linecap="round"/>
<path d="M174.319 77.7761C180.96 79.4895 193.671 84.8582 191.395 92.6256C188.549 102.335 179.442 110.331 181.718 112.615C183.54 114.443 183.616 114.138 183.426 113.758" stroke="#3D3D54" stroke-linecap="round"/>
<path d="M110.484 165.04C106.885 154.101 37.6758 160.482 3.52083 165.04C-3.47601 167.572 0.522282 170.61 10.5184 170.61C45.3399 173.311 114.083 175.978 110.484 165.04Z" fill="#191526" fill-opacity="0.5"/>
<path d="M54.3136 167.5C50.7259 167.5 51.8221 140.833 52.8187 127.5C67.1695 133.1 81.0551 128.167 86.204 125L87.2006 142L86.7023 156.5C86.3701 157.5 85.6061 160 85.2075 162C84.7092 164.5 81.7194 168 80.2246 167.5C79.0287 167.1 76.7365 159.333 75.74 155.5L72.7502 142L70.7571 139.5L67.2691 139L65.2759 142L60.293 158C59.7947 161.167 57.9013 167.5 54.3136 167.5Z" fill="#4051B5"/>
<path d="M54.5799 126.331C50.8679 122.048 53.8942 98.6286 56.6782 88.3856C59.5395 86.5233 60.3138 90.3334 71.526 87.6863C75.47 86.7551 93.3337 111.431 88.6833 122.839C79.6461 132.849 58.2918 130.614 54.5799 126.331Z" fill="#917DE0"/>
<path d="M66.9967 65.179C60.7355 69.4844 55.9092 65.0159 54.2787 62.2435C54.2787 62.2435 53.3004 60.7758 51.833 60.7758C50.3655 60.7758 47.4306 65.179 45.474 61.265C43.0282 56.3726 48.4089 54.9048 50.3655 53.9263C52.3221 52.9478 60.1485 52.4586 64.5509 53.9263C68.9533 55.3941 74.8231 59.7973 66.9967 65.179Z" fill="#4BCA81"/>
<path d="M93.1016 117.651V102.053C100.216 98.5616 114.77 91.9037 116.069 93.2073C117.368 94.511 116.611 103.993 116.069 108.572C108.413 112.529 93.1016 119.885 93.1016 117.651Z" stroke="#3D3D54" stroke-linecap="round"/>
<path d="M52.5018 127.028C51.5739 140.686 50.7851 168 55.0538 168C60.3897 168 64.1016 137.737 68.2776 138.668C72.4535 139.599 72.9175 141.927 73.6135 144.022C74.3095 146.117 77.5574 169.63 81.7334 167.534C85.9093 165.439 87.5333 156.128 87.3013 144.022C87.1157 134.338 86.4507 127.106 86.1413 124.7" stroke="#3D3D54" stroke-linecap="round"/>
<path d="M57.8402 130.288C58.0722 132.616 57.7938 137.551 54.8242 138.668" stroke="#3D3D54" stroke-linecap="round"/>
<path d="M59.2305 70.6922C59.4625 69.761 60.3441 68.1781 62.0144 69.2955" stroke="#E1E1E4" stroke-linecap="round"/>
<path d="M66.1914 69.0629C66.9647 68.2093 68.5578 67.154 68.7434 69.7612" stroke="#E1E1E4" stroke-linecap="round"/>
<path d="M62.7109 80.7024C63.4069 81.4784 65.2165 82.7975 66.8869 81.8664" stroke="#E1E1E4" stroke-linecap="round"/>
<path d="M63.4062 87.4534C64.3342 87.8414 66.5614 88.1983 68.0462 86.5222" stroke="#3D3D54" stroke-linecap="round"/>
<path d="M63.8721 96.998L65.0321 99.7916C64.4134 100.878 62.5729 102.911 60.1602 102.352" stroke="#3D3D54" stroke-linecap="round"/>
<path d="M58.5354 87.2207C53.8955 77.909 47.3995 58.7733 58.5354 56.7248C72.4552 54.164 73.1511 73.2531 71.0632 86.0567" stroke="#3D3D54" stroke-linecap="round"/>
<path d="M71.0629 86.2896C79.1828 94.2821 93.7986 112.735 87.3027 122.605C80.8067 132.476 61.3963 129.667 52.5031 127.028C52.3485 113.526 53.3383 86.662 58.535 87.2207" stroke="#3D3D54" stroke-linecap="round"/>
<path d="M77.3281 93.2733C82.1227 94.7476 92.8719 97.417 97.5119 96.2996C102.152 95.1822 105.168 92.4197 106.096 91.1781C106.328 90.4798 107.256 89.1296 109.112 89.3158" stroke="#3D3D54" stroke-linecap="round"/>
<path d="M64.1055 101.421C68.2814 107.086 81.2732 121.209 95.889 109.569" stroke="#3D3D54" stroke-linecap="round"/>
<path fill-rule="evenodd" clip-rule="evenodd" d="M202.939 60.6991C202.939 60.6991 207.19 61.7497 209.052 61.3127C210.915 60.8758 213.884 59.8593 213.884 59.8593C213.884 59.8593 224.165 66.3934 232.531 68.1541C240.898 69.9148 247.588 68.3931 249.955 65.0949C252.322 61.7962 260.661 49.959 251.803 36.2991C242.945 22.6404 228.563 15.4602 220.681 13.5163C212.798 11.5724 205.324 11.9198 198.954 19.8145C192.583 27.7093 195.271 36.1502 196.022 38.8208C196.772 41.4914 208.832 54.6018 208.832 54.6018L202.939 60.6991Z" fill="#E1E1E4"/>
<path fill-rule="evenodd" clip-rule="evenodd" d="M208.572 54.3055C207.514 55.1187 207.097 56.1458 206.298 57.2135C205.291 58.5564 204.018 59.5006 202.513 60.1733C201.801 60.4902 201.888 61.4481 202.6 61.6128C204.592 62.0719 206.613 62.5197 208.697 62.4351C209.679 62.3952 210.649 62.2116 211.597 61.906C212.369 61.658 213.956 60.6254 214.707 60.748C214.533 60.4032 214.36 60.0577 214.187 59.7133L214.149 59.776C214.478 59.6435 214.807 59.5114 215.137 59.3794C215.122 59.3705 215.108 59.3626 215.092 59.3538C214.286 58.8911 213.64 60.2722 214.443 60.7332C214.457 60.7416 214.473 60.7498 214.487 60.7583C214.852 60.968 215.278 60.6833 215.475 60.3621L215.515 60.2993C215.78 59.8647 215.415 59.3334 214.994 59.2646C214.269 59.1469 213.464 59.6144 212.787 59.8795C211.674 60.3145 210.601 60.7432 209.417 60.8823C207.194 61.1414 205.004 60.6184 202.887 60.1294L202.974 61.5689C204.205 61.0191 205.318 60.3351 206.305 59.3823C207.464 58.2622 208.12 56.4822 209.379 55.5158C210.156 54.9191 209.35 53.7077 208.572 54.3055Z" fill="#3D3D54"/>
<path fill-rule="evenodd" clip-rule="evenodd" d="M208.928 53.3473C202.452 47.5607 194.222 37.3577 196.16 27.8423C197.253 22.4787 201.347 16.7792 206.246 14.3538C211.43 11.7865 219.945 12.811 225.184 14.8316C242.46 21.4961 263.638 40.8911 252.246 60.8206C244.224 74.8537 224.72 65.2747 214.639 59.0098C213.808 58.4938 213.181 59.8896 214.006 60.4017C223.414 66.2481 239.955 74.7437 250.199 65.9463C258.611 58.7227 258.666 45.3689 253.624 36.3767C243.969 19.1578 209.278 -2.28833 196.498 22.6425C190.549 34.248 199.462 46.9353 207.951 54.5198C208.683 55.1748 209.661 54.0018 208.928 53.3473Z" fill="#3D3D54"/>
<path fill-rule="evenodd" clip-rule="evenodd" d="M221.209 26.0581L243.014 43.7015C243.774 44.3158 244.719 43.1888 243.957 42.572L222.151 24.9287C221.391 24.3144 220.447 25.4418 221.209 26.0581Z" fill="#3D3D54"/>
<path fill-rule="evenodd" clip-rule="evenodd" d="M211.109 25.456L243.841 52.2376C244.599 52.8582 245.516 51.7647 244.755 51.1421L212.023 24.3605C211.264 23.7399 210.349 24.8339 211.109 25.456Z" fill="#3D3D54"/>
<path fill-rule="evenodd" clip-rule="evenodd" d="M208.349 30.3714C218.805 39.8253 229.505 48.9962 240.444 57.881C241.217 58.5091 242.187 57.3511 241.411 56.7209C230.473 47.8361 219.773 38.6652 209.317 29.2113C208.577 28.5421 207.61 29.7037 208.349 30.3714Z" fill="#3D3D54"/>
<path fill-rule="evenodd" clip-rule="evenodd" d="M204.347 35.1687C215.061 44.3161 225.775 53.4639 236.489 62.612C237.249 63.2612 238.349 61.9456 237.587 61.2953C226.874 52.1473 216.159 42.9994 205.445 33.852C204.685 33.2028 203.585 34.5184 204.347 35.1687Z" fill="#3D3D54"/>
</svg>
