<svg width="280" height="88" viewBox="0 0 280 88" fill="none" xmlns="http://www.w3.org/2000/svg">
<path d="M103.66 29.4928C103.66 35.7232 98.5974 40.766 92.367 40.7854H79.9256V56.6536H74.2598V18.1611H92.3865C98.6364 18.1806 103.679 23.2428 103.66 29.4928ZM92.3865 35.1196C95.4822 35.0807 97.9939 32.5885 98.0523 29.5122C98.0717 26.397 95.5406 23.8464 92.4254 23.8464C92.4059 23.8464 92.3865 23.8464 92.3865 23.8464H79.945V35.1391H92.3865V35.1196Z" fill="#1D1D1B"/>
<path d="M134.246 42.5179C134.246 50.9485 127.412 57.802 118.962 57.802C110.531 57.802 103.678 50.968 103.678 42.5179C103.678 34.0874 110.512 27.2339 118.962 27.2339C127.373 27.2923 134.187 34.1068 134.246 42.5179ZM128.561 42.5179C128.561 37.2026 124.258 32.8997 118.942 32.8997C113.627 32.8997 109.324 37.2026 109.324 42.5179C109.324 47.8333 113.627 52.1362 118.942 52.1362C124.238 52.1557 128.541 47.8528 128.561 42.5569C128.561 42.5569 128.561 42.5374 128.561 42.5179Z" fill="#1D1D1B"/>
<path d="M140.029 18.1611H145.695V56.6536H140.029V18.1611Z" fill="#1D1D1B"/>
<path d="M179.611 28.2856L166.956 66.6807H160.959L164.327 56.5563H158.389L149.102 32.4912H155.04L164.347 56.5173L173.653 28.2856H179.611Z" fill="#1D1D1B"/>
<path d="M212.186 28.2854V56.0303C212.186 63.2148 205.722 67.9071 198.11 67.9071L198.051 67.8487C193.262 67.8682 188.686 65.9212 185.396 62.436L189.445 58.4836C191.704 60.8005 194.585 62.436 198.11 62.436C203.522 62.2802 206.56 60.0217 206.56 56.0303V47.4051L203.522 56.225C201.478 57.218 199.239 57.7242 196.961 57.7047C188.55 57.5685 181.833 50.6566 181.969 42.2455C182.086 34.0096 188.744 27.3703 196.961 27.2535C199.239 27.234 201.478 27.7402 203.522 28.7137L206.56 37.5337V28.3049H212.186V28.2854ZM196.961 32.8609C191.645 32.8609 187.343 37.1638 187.343 42.4791C187.343 47.7945 191.645 52.0974 196.961 52.0974C202.276 52.0974 206.579 47.7945 206.579 42.4791C206.56 37.1638 202.257 32.8609 196.961 32.8609Z" fill="#1D1D1B"/>
<path d="M246.433 42.5179C246.433 50.9485 239.599 57.802 231.149 57.802C222.699 57.802 215.865 50.968 215.865 42.5179C215.865 34.0679 222.699 27.2339 231.149 27.2339C239.58 27.2923 246.394 34.1068 246.433 42.5179ZM240.768 42.5179C240.768 37.2026 236.465 32.8997 231.149 32.8997C225.834 32.8997 221.531 37.2026 221.531 42.5179C221.531 47.8333 225.834 52.1362 231.149 52.1362C236.445 52.1362 240.748 47.8528 240.768 42.5569C240.768 42.5374 240.768 42.5374 240.768 42.5179Z" fill="#1D1D1B"/>
<path d="M279.999 56.6534H274.333V41.3693C274.431 36.677 270.712 32.8024 266.019 32.7051C261.327 32.6077 257.453 36.3265 257.355 41.0188C257.355 41.1357 257.355 41.2525 257.355 41.3693V56.6534H251.689V28.2854H257.355V36.9496L261.035 28.0128C268.395 25.3648 276.494 29.1615 279.162 36.5212C279.726 38.0788 279.999 39.7143 279.999 41.3498V56.6534Z" fill="#1D1D1B"/>
<path d="M89.9916 81.4003C89.9916 85.2748 86.4675 87.8838 82.262 87.8838C79.2441 87.8838 76.3625 86.6572 74.2598 84.496L76.4599 82.3348C77.9201 83.834 79.7893 84.8465 82.0868 84.8465C85.1825 84.8465 86.9154 83.7756 86.9154 81.4976C86.9154 79.6674 85.3383 78.4214 82.0868 77.9735C77.0635 77.2337 75.058 75.2477 75.058 71.3342C75.058 67.7128 78.6795 65.5711 82.262 65.5711C84.8321 65.5516 87.3048 66.603 89.0571 68.4721L86.8764 70.6917C85.7082 69.3677 84.0338 68.5695 82.262 68.5111C80.0619 68.3942 78.1343 69.5819 78.1343 71.4316C78.1343 73.2812 79.3999 74.5663 81.7752 74.9557C86.7791 75.8318 89.9916 77.0779 89.9916 81.4003Z" fill="#1D1D1B"/>
<path d="M106.794 74.8781H99.1612V87.2806H96.0655V74.8781H91.4121V71.7824H96.0655V66.2334H99.1612V71.7824H106.794V74.8781Z" fill="#1D1D1B"/>
<path d="M105.527 71.7627H108.623V80.1154C108.545 82.666 110.57 84.8077 113.121 84.8856C115.671 84.9634 117.813 82.9385 117.891 80.388C117.891 80.3101 117.891 80.2127 117.891 80.1349V71.7822H121.006V87.2804H117.91V82.5492L115.905 87.4361C111.914 88.8964 107.474 86.852 106.014 82.8607C105.703 82.004 105.527 81.0694 105.547 80.1543L105.527 71.7627Z" fill="#1D1D1B"/>
<path d="M140.575 87.2611H137.499V82.2378L135.844 87.0664C134.714 87.6116 133.488 87.9037 132.222 87.9037C127.608 87.8063 123.928 83.9902 124.025 79.3563C124.123 74.8781 127.725 71.2567 132.222 71.1593C133.468 71.1593 134.714 71.4514 135.844 72.016L137.499 76.8057V66.2334H140.575V87.2611ZM132.222 74.2551C129.321 74.2551 126.965 76.6304 126.965 79.5315C126.965 82.4325 129.341 84.7884 132.242 84.7884C135.143 84.7884 137.499 82.4131 137.499 79.512C137.499 76.611 135.143 74.2551 132.242 74.2551H132.222Z" fill="#1D1D1B"/>
<path d="M144.838 66.2134H148.537V69.9127H144.838V66.2134ZM145.169 71.7624H148.265V87.2606H145.169V71.7624Z" fill="#1D1D1B"/>
<path d="M168.125 79.5504C168.125 84.1649 164.387 87.9031 159.773 87.9031C155.158 87.9031 151.42 84.1649 151.42 79.5504C151.42 74.936 155.158 71.1978 159.773 71.1978C159.773 71.1978 159.773 71.1978 159.792 71.1978C164.387 71.2172 168.106 74.936 168.125 79.5504ZM165.03 79.5504C165.03 76.6494 162.674 74.2935 159.773 74.2935C156.872 74.2935 154.516 76.6494 154.516 79.5504C154.516 82.4515 156.872 84.8074 159.773 84.8074H159.792C162.674 84.7879 165.03 82.432 165.03 79.5504Z" fill="#1D1D1B"/>
<path d="M176.945 87.8644C174.277 87.8644 171.727 86.7935 169.857 84.9049L172.058 82.7437C173.284 84.0093 174.861 84.9049 176.789 84.9049C178.989 84.9049 180.839 84.4182 180.839 82.8021C180.839 81.1277 178.541 80.8746 176.322 80.6799C172.642 80.3878 170.403 78.5576 170.403 75.8318C170.403 73.0476 172.992 71.159 176.75 71.159H176.808C179.067 71.1395 181.247 72.0546 182.805 73.7096L180.605 75.8708C179.631 74.7804 178.269 74.1379 176.808 74.0795H176.789C174.861 74.0795 173.44 74.43 173.44 76.0655C173.518 77.039 174.589 77.701 176.341 77.8567C180.858 78.2656 183.915 79.2002 183.915 82.7048C183.915 86.2094 180.585 87.8644 176.945 87.8644Z" fill="#1D1D1B"/>
<path d="M64.5824 55.972C64.5824 55.972 64.6019 55.9331 64.6214 55.9136L64.6798 55.8358C64.6992 55.8163 64.6992 55.7968 64.6992 55.7968V55.7773C64.7187 55.7579 64.7187 55.7189 64.7382 55.6995V55.6411L64.7771 55.5632L64.8161 55.4853L64.855 55.3879C64.855 55.3685 64.8745 55.3295 64.8745 55.3101V55.2516C64.8745 55.2516 64.8745 55.2322 64.8745 55.2127C64.8745 55.1738 64.8745 55.1543 64.8745 55.1154C64.8745 55.0764 64.8745 55.0569 64.8745 55.018C64.8745 54.9791 64.8745 54.9596 64.8745 54.9207C64.8745 54.8817 64.8745 54.8428 64.8745 54.8233L64.8939 19.5629C64.8939 18.8814 64.524 18.2389 63.9399 17.9079L33.4692 0.287475L33.3913 0.248532C33.3718 0.229062 33.3329 0.209589 33.2939 0.209589C33.255 0.190119 33.2355 0.190123 33.1966 0.170653L33.0992 0.13171L33.0213 0.112239L32.924 0.0927734H32.8266H32.7488C32.7098 0.0927734 32.6709 0.0927734 32.6319 0.0927734H32.5346H32.4762H32.3788H32.262H32.1841H32.0868L31.97 0.112239L31.8921 0.13171L31.7947 0.170653L31.6974 0.209589L31.6 0.248532L31.5416 0.268003L0.954038 17.9079C0.350464 18.2584 0 18.8814 0 19.5824V54.8233C0 54.8622 0 54.8817 0 54.9207C0 54.9596 0 54.9791 0 55.018C0 55.0569 0 55.0764 0 55.1154C0 55.1543 0 55.1738 0 55.2127C0 55.2322 0 55.2322 0 55.2516V55.3101C0 55.3295 0.0194713 55.3685 0.0194713 55.4074L0.058411 55.5048L0.0973506 55.5826L0.136293 55.6605C0.136293 55.6605 0.136293 55.6605 0.136293 55.68C0.136293 55.6995 0.155763 55.7384 0.175233 55.7579V55.7773L0.311523 55.8358L0.369934 55.9136L0.408874 55.9915C0.408874 56.011 0.447815 56.0305 0.467285 56.0694L0.545164 56.1473L0.603575 56.2057C0.623045 56.2252 0.642516 56.2446 0.661986 56.2641L0.700926 56.303L0.759337 56.342L0.837216 56.4004L0.915098 56.4588L1.01245 56.5172L31.5806 73.2421C32.1647 73.5536 32.8461 73.5536 33.4302 73.2421L63.9594 56.5172L64.0567 56.4588L64.1346 56.4004L64.2125 56.342L64.2709 56.303L64.3098 56.2836C64.3293 56.2641 64.3488 56.2446 64.3682 56.2252L64.4267 56.1667L64.5045 56.0889L64.563 56.011C64.563 55.9915 64.5824 55.9915 64.5824 55.972ZM18.9444 29.3564L32.5151 5.79752L58.7803 51.2797L59.7149 52.8958H5.27641L18.9444 29.3564ZM61.1167 47.6388L37.772 7.21884L61.0583 20.6922L61.1167 47.6388ZM27.2582 7.19937L3.85509 47.6583V20.6922L27.2582 7.19937ZM32.5151 69.3675L9.44301 56.7509H55.5288L32.5151 69.3675Z" fill="#1D1D1B"/>
</svg>
