<svg width="191" height="37" viewBox="0 0 191 37" fill="none" xmlns="http://www.w3.org/2000/svg">
<rect width="191" height="37" fill="white"/>
<mask id="mask0_6611_96052" style="mask-type:luminance" maskUnits="userSpaceOnUse" x="40" y="10" width="148" height="15">
<path d="M40 25H187.714V10.7443H40V25Z" fill="white"/>
</mask>
<g mask="url(#mask0_6611_96052)">
<mask id="mask1_6611_96052" style="mask-type:luminance" maskUnits="userSpaceOnUse" x="21" y="10" width="167" height="16">
<path d="M104.804 24.4885H105.965V11.308H104.804V24.4885ZM85.5738 23.701C82.3636 23.701 79.752 21.093 79.752 17.8875C79.752 14.6818 82.3636 12.0739 85.5738 12.0739C87.8935 12.0739 89.895 13.4387 90.8301 15.4036H91.8949C90.8995 12.8867 88.4442 11.0985 85.5738 11.0985C81.8252 11.0985 78.7753 14.1441 78.7753 17.8875C78.7753 21.6308 81.8252 24.6764 85.5738 24.6764C88.5025 24.6764 90.9968 22.8143 91.9519 20.2165H90.9047C90.0035 22.2651 87.9545 23.701 85.5738 23.701ZM92.722 12.3218C94.0838 12.3218 95.4042 12.3218 96.8123 12.3218C96.8123 16.396 96.8123 20.4079 96.8123 24.4376C97.2043 24.4376 97.507 24.4376 97.9357 24.4376C97.9357 20.3735 97.9357 16.3624 97.9357 12.2851C99.3573 12.2851 100.698 12.2851 102.033 12.2851C102.033 11.9244 102.033 11.6334 102.033 11.3366C98.8987 11.3366 95.8145 11.3366 92.722 11.3366C92.722 11.6737 92.722 11.9667 92.722 12.3218ZM116.152 23.7005C112.942 23.7005 110.33 21.0924 110.33 17.887C110.33 14.6817 112.942 12.0734 116.152 12.0734C119.362 12.0734 121.974 14.6817 121.974 17.887C121.974 21.0924 119.362 23.7005 116.152 23.7005ZM116.152 11.098C112.404 11.098 109.353 14.1439 109.353 17.887C109.353 21.63 112.404 24.6761 116.152 24.6761C119.901 24.6761 122.951 21.63 122.951 17.887C122.951 14.1439 119.901 11.098 116.152 11.098ZM172.811 23.2727L171.846 23.2701L165.734 11.3172H163.087C163.087 11.3172 163.087 20.0479 163.087 24.379C163.455 24.379 163.766 24.379 164.133 24.379C164.133 20.3519 164.133 16.3764 164.133 12.3802C164.449 12.3802 164.706 12.3802 165.015 12.3802C167.095 16.4286 169.15 20.4298 171.183 24.386C172.113 24.386 172.974 24.386 173.844 24.386C173.844 19.9985 173.844 11.2999 173.844 11.2999H172.811V23.2727ZM142.812 11.2649H141.746V24.3953H149.091V23.3311H142.812V11.2649ZM151.543 11.3172C151.543 11.3172 151.543 20.0479 151.543 24.379C151.911 24.379 152.222 24.379 152.589 24.379C152.589 20.3519 152.589 16.3764 152.589 12.3802C152.905 12.3802 153.162 12.3802 153.471 12.3802C155.015 15.3854 156.541 18.356 158.059 21.31H154.344V22.3614H158.599C158.945 23.0351 159.294 23.715 159.639 24.386H160.873L154.19 11.3172H151.543ZM185.778 21.3611C184.776 22.665 183.68 23.419 181.049 23.419H177.775V12.2715H181.27C182.792 12.2715 185.092 12.2715 186.356 15.463C186.993 17.0706 186.913 19.8866 185.778 21.3611ZM187.257 15.1082C185.749 11.3043 182.836 11.3043 181.27 11.3043H176.808V24.3863H181.049C184.056 24.3863 185.421 23.412 186.546 21.9486C187.941 20.136 188.001 16.986 187.257 15.1082ZM135.697 23.299L134.732 23.2964L128.62 11.3435H125.973C125.973 11.3435 125.973 20.0744 125.973 24.4053C126.341 24.4053 126.652 24.4053 127.019 24.4053C127.019 20.3782 127.019 16.4027 127.019 12.4065C127.335 12.4065 127.592 12.4065 127.901 12.4065C129.981 16.4549 132.036 20.4561 134.069 24.4123C134.999 24.4123 135.861 24.4123 136.73 24.4123C136.73 20.0248 136.73 11.3262 136.73 11.3262H135.697V23.299ZM75.0714 23.299L74.1064 23.2964L67.9942 11.3435H65.3475C65.3475 11.3435 65.3475 20.0744 65.3475 24.4053C65.7148 24.4053 66.0258 24.4053 66.3935 24.4053C66.3935 20.3782 66.3935 16.4027 66.3935 12.4065C66.7094 12.4065 66.9666 12.4065 67.2756 12.4065C69.3553 16.4549 71.4106 20.4561 73.4432 24.4123C74.3736 24.4123 75.2349 24.4123 76.1043 24.4123C76.1043 20.0248 76.1043 11.3262 76.1043 11.3262H75.0714V23.299ZM42.0762 24.425C42.431 24.425 42.7287 24.425 43.0974 24.425C43.0974 22.4241 43.0974 20.4539 43.0974 18.4041C45.0538 18.4041 46.9398 18.4041 48.8502 18.4041C48.8502 18.0343 48.8502 17.7464 48.8502 17.3843C46.9135 17.3843 45.0286 17.3843 43.1191 17.3843C43.1191 15.6814 43.1191 14.0536 43.1191 12.2982C45.2348 12.2982 47.2937 12.2982 49.3319 12.2982C49.3319 11.9226 49.3319 11.6301 49.3319 11.3483C46.874 11.3483 44.4687 11.3483 42.0762 11.3483C42.0762 15.7459 42.0762 20.0879 42.0762 24.425ZM60.9294 11.3277C60.9294 11.5953 60.9296 11.8289 60.9294 12.0627C60.9279 14.6101 60.9491 17.1579 60.9175 19.7049C60.8949 21.5192 59.8069 22.9683 58.197 23.4485C56.4947 23.9562 54.7449 23.3986 53.773 22.0224C53.2406 21.2685 53.0343 20.4169 53.0379 19.4974C53.0477 17.0153 53.0407 14.5331 53.0404 12.051C53.0404 11.8185 53.0404 11.5861 53.0404 11.3243C52.6402 11.3243 52.3232 11.3243 51.924 11.3243C51.924 14.0161 51.9234 16.6268 51.9251 19.2374C51.9252 19.4985 51.9236 19.7612 51.95 20.0204C52.284 23.3018 55.0823 25.268 58.2928 24.481C60.5592 23.9256 61.9511 22.1624 61.9953 19.6532C62.0412 17.0412 62.0061 11.3277 62.0061 11.3277C62.0061 11.3277 61.2938 11.3277 60.9294 11.3277ZM24.7862 14.3724L21.8652 14.3768C21.7537 14.377 21.6633 14.4673 21.6635 14.5787L21.6616 21.7453C21.6616 22.0201 21.7763 22.2827 21.9782 22.4695L24.6428 24.9373C24.7687 25.069 24.9911 24.9799 24.991 24.7977L24.9883 14.5739C24.9882 14.4625 24.8977 14.3723 24.7862 14.3724ZM32.3026 13.2833L30.4883 11.1086C30.309 10.8938 30.0434 10.7695 29.7633 10.7695H22.1084C21.8616 10.7695 21.6616 10.9692 21.6616 11.2156V13.6888H32.1124C32.3222 13.6888 32.437 13.4443 32.3026 13.2833ZM30.9882 15.6509L26.9329 15.6568C26.8202 15.657 26.7291 15.7483 26.7293 15.8607L26.7352 19.9101C26.7353 20.0224 26.8268 20.1134 26.9394 20.1132L30.9947 20.1073C31.1073 20.1072 31.1984 20.0159 31.1983 19.9034L31.1924 15.8542C31.1921 15.7417 31.1008 15.6507 30.9882 15.6509ZM33.3139 10.8012C33.1878 10.6695 32.9654 10.7586 32.9657 10.9408L32.9682 21.1646C32.9684 21.276 33.059 21.366 33.1706 21.366L36.0915 21.3617C36.203 21.3615 36.2932 21.2711 36.2931 21.1598L36.2949 13.9932C36.2951 13.7184 36.1804 13.4558 35.9786 13.269L33.3139 10.8012ZM25.6502 22.4863L27.4647 24.661C27.6438 24.8758 27.9096 25.0001 28.1895 25.0001H35.8444C36.0913 25.0001 36.2913 24.8004 36.2913 24.554V22.0808H25.8406C25.6306 22.0808 25.516 22.3253 25.6502 22.4863Z" fill="white"/>
</mask>
<g mask="url(#mask1_6611_96052)">
<path d="M24.6525 25V24.9602H24.6126V24.9204H24.5727V24.8805H24.5329V24.8407H24.493V24.8009H24.4132V24.7611H24.3733V24.7213H24.3335V24.6814H24.2936V24.6416H24.2537V24.6018H24.2138V24.562H24.174V24.5222H24.1341V24.4823H24.0942V24.4425H24.0543V24.4027H24.0144V24.3629H23.9746V24.3231H23.9347V24.2832H23.8549V24.2434H23.815V24.2036H23.7752V24.1638H23.7353V24.124H23.6954V24.0841H23.6555V24.0443H23.6157V24.0045H23.5758V23.9647H23.5359V23.9249H23.496V23.885H23.4561V23.8452H23.4163V23.8054H23.3764V23.7656H23.2966V23.7258H23.2568V23.6859H23.2169V23.6461H23.177V23.6063H23.1371V23.5665H23.0972V23.5267H23.0574V23.4868H23.0175V23.447H22.9776V23.4072H22.9377V23.3674H22.8978V23.3275H22.858V23.2877H22.8181V23.2479H22.7383V23.2081H22.6985V23.1683H22.6586V23.1284H22.6187V23.0886H22.5788V23.0488H22.5389V23.009H22.4991V22.9692H22.4592V22.9293H22.4193V22.8895H22.3794V22.8497H22.3396V22.8099H22.2997V22.7701H22.2598V22.7302H22.18V22.6904H22.1402V22.6506H22.1003V22.6108H22.0604V22.571H22.0205V22.5311H21.9806V22.4913H21.9408V22.4515H21.9009V22.4117H21.861V22.332H21.8211V22.2922H21.7813V22.2126H21.7414V22.1329H21.7015V22.0135H21.6616V14.4476H21.7015V14.4078H21.7414V14.368H24.9316V14.4078H24.9715V14.4875H25.0114V24.8805H24.9715V24.9602H24.9316V25H24.6525ZM27.9225 25V24.9602H27.8029V24.9204H27.7231V24.8805H27.6832V24.8407H27.6035V24.8009H27.5636V24.7611H27.4839V24.7213H27.444V24.6416H27.4041V24.6018H27.3642V24.562H27.3243V24.5222H27.2845V24.4823H27.2446V24.4027H27.2047V24.3629H27.1648V24.3231H27.1249V24.2832H27.0851V24.2434H27.0452V24.1638H27.0053V24.124H26.9654V24.0841H26.9256V24.0443H26.8857V24.0045H26.8458V23.9249H26.8059V23.885H26.766V23.8452H26.7262V23.8054H26.6863V23.7656H26.6464V23.6859H26.6065V23.6461H26.5667V23.6063H26.5268V23.5665H26.4869V23.5267H26.447V23.447H26.4071V23.4072H26.3673V23.3674H26.3274V23.3275H26.2875V23.2877H26.2476V23.2081H26.2077V23.1683H26.1679V23.1284H26.128V23.0886H26.0881V23.0488H26.0482V22.9692H26.0084V22.9293H25.9685V22.8895H25.9286V22.8497H25.8887V22.8099H25.8488V22.7302H25.809V22.6904H25.7691V22.6506H25.7292V22.6108H25.6893V22.571H25.6495V22.4913H25.6096V22.4515H25.5697V22.2126H25.6096V22.1329H25.6893V22.0931H25.7292V22.0533H36.297V24.7611H36.2571V24.8009H36.2172V24.8805H36.1773V24.9204H36.0976V24.9602H36.0577V25H27.9225ZM56.5153 24.6814V24.6416H56.1962V24.6018H55.9171V24.562H55.7177V24.5222H55.5582V24.4823H55.3987V24.4425H55.279V24.4027H55.1594V24.3629H55.0796V24.3231H54.96V24.2832H54.8803V24.2434H54.8005V24.2036H54.6809V24.1638H54.6011V24.124H54.5213V24.0841H54.4416V24.0443H54.4017V24.0045H54.322V23.9647H54.2422V23.9249H54.2023V23.885H54.1226V23.8452H54.0827V23.8054H54.0029V23.7656H53.9631V23.7258H53.9232V23.6859H53.8434V23.6461H53.8035V23.6063H53.7637V23.5665H53.7238V23.5267H53.644V23.4868H53.6041V23.447H53.5643V23.4072H53.5244V23.3674H53.4845V23.3275H53.4446V23.2877H53.4048V23.2479H53.3649V23.2081H53.325V23.1683H53.2851V23.1284H53.2452V23.0886H53.2054V23.0488H53.1655V22.9692H53.1256V22.9293H53.0857V22.8895H53.0459V22.8497H53.006V22.8099H52.9661V22.7302H52.9262V22.6904H52.8863V22.6506H52.8465V22.571H52.8066V22.4913H52.7667V22.4515H52.7268V22.3719H52.6869V22.332H52.6471V22.2524H52.6072V22.1728H52.5673V22.0931H52.5274V22.0135H52.4876V21.9338H52.4477V21.8542H52.4078V21.7746H52.3679V21.6949H52.328V21.5755H52.2882V21.4958H52.2483V21.3764H52.2084V21.2569H52.1685V21.1374H52.1286V20.9782H52.0888V20.8189H52.0489V20.6596H52.009V20.4605H51.9691V20.2216H51.9293V19.465H51.8894V11.3018H53.0459V19.7437H53.0857V20.2216H53.1256V20.4207H53.1655V20.6198H53.2054V20.8189H53.2452V20.8985H53.2851V21.018H53.325V21.1374H53.3649V21.2171H53.4048V21.3365H53.4446V21.456H53.4845V21.4958H53.5244V21.5755H53.5643V21.6551H53.6041V21.7347H53.644V21.8144H53.6839V21.894H53.7238V21.9338H53.7637V21.9737H53.8035V22.0533H53.8434V22.0931H53.8833V22.1329H53.9232V22.2126H53.9631V22.2524H54.0029V22.2922H54.0428V22.332H54.0827V22.3719H54.1226V22.4117H54.1624V22.4515H54.2023V22.4913H54.2422V22.5311H54.2821V22.571H54.322V22.6108H54.3618V22.6506H54.4017V22.6904H54.4416V22.7302H54.5213V22.7701H54.5612V22.8099H54.6011V22.8497H54.641V22.8895H54.7207V22.9293H54.7606V22.9692H54.8404V23.009H54.9201V23.0488H54.96V23.0886H55.0398V23.1284H55.0796V23.1683H55.1594V23.2081H55.2392V23.2479H55.3588V23.2877H55.4385V23.3275H55.5582V23.3674H55.6379V23.4072H55.7576V23.447H55.9171V23.4868H56.0766V23.5267H56.2361V23.5665H56.595V23.6063H57.3128V23.5665H57.6717V23.5267H57.8711V23.4868H58.0306V23.447H58.1902V23.4072H58.3098V23.3674H58.4294V23.3275H58.5092V23.2877H58.5889V23.2479H58.7086V23.2081H58.7883V23.1683H58.8681V23.1284H58.908V23.0886H58.9877V23.0488H59.0675V23.009H59.1074V22.9692H59.1871V22.9293H59.2669V22.8895H59.3067V22.8497H59.3466V22.8099H59.3865V22.7701H59.4663V22.7302H59.5061V22.6904H59.546V22.6506H59.5859V22.6108H59.6258V22.571H59.7055V22.5311H59.7454V22.4913H59.7853V22.4515H59.8252V22.3719H59.865V22.332H59.9049V22.2922H59.9448V22.2524H59.9847V22.2126H60.0246V22.1728H60.0644V22.0931H60.1043V22.0533H60.1442V22.0135H60.1841V21.9338H60.2239V21.894H60.2638V21.8144H60.3037V21.7347H60.3436V21.6949H60.3835V21.6153H60.4233V21.5356H60.4632V21.456H60.5031V21.3764H60.543V21.2569H60.5829V21.1773H60.6227V21.0976H60.6626V20.9782H60.7025V20.8189H60.7424V20.6596H60.7822V20.5003H60.8221V20.341H60.862V19.9826H60.9019V11.3018H62.0185V14.9653H62.0583V16.2395H62.0185V20.0225H61.9786V20.3809H61.9387V20.6596H61.8988V20.8189H61.859V20.9782H61.8191V21.1374H61.7792V21.2967H61.7393V21.456H61.6994V21.5356H61.6596V21.6551H61.6197V21.7347H61.5798V21.8144H61.5399V21.9338H61.5001V22.0135H61.4602V22.0931H61.4203V22.1728H61.3804V22.2524H61.3405V22.332H61.3007V22.3719H61.2608V22.4515H61.2209V22.4913H61.181V22.571H61.1411V22.6108H61.1013V22.6904H61.0614V22.7701H61.0215V22.8099H60.9816V22.8497H60.9418V22.8895H60.9019V22.9293H60.862V22.9692H60.8221V23.0488H60.7822V23.0886H60.7424V23.1284H60.7025V23.1683H60.6626V23.2081H60.6227V23.2479H60.5829V23.2877H60.543V23.3275H60.5031V23.3674H60.4632V23.4072H60.4233V23.447H60.3835V23.4868H60.3037V23.5267H60.2638V23.5665H60.2239V23.6063H60.1442V23.6461H60.1043V23.6859H60.0644V23.7258H59.9847V23.7656H59.9448V23.8054H59.9049V23.8452H59.8252V23.885H59.7454V23.9249H59.7055V23.9647H59.6258V24.0045H59.546V24.0443H59.4663V24.0841H59.3865V24.124H59.3067V24.1638H59.227V24.2036H59.1472V24.2434H59.0276V24.2832H58.9478V24.3231H58.8282V24.3629H58.7086V24.4027H58.5889V24.4425H58.4693V24.4823H58.3098V24.5222H58.1503V24.562H57.911V24.6018H57.6717V24.6416H57.2331V24.6814H56.5153ZM84.8687 24.6814V24.6416H84.5896V24.6018H84.3503V24.562H84.1111V24.5222H83.9515V24.4823H83.8319V24.4425H83.6724V24.4027H83.5129V24.3629H83.3932V24.3231H83.3135V24.2832H83.1939V24.2434H83.0742V24.2036H82.9546V24.1638H82.8748V24.124H82.7951V24.0841H82.7153V24.0443H82.6356V24.0045H82.5558V23.9647H82.476V23.9249H82.3963V23.885H82.3165V23.8452H82.2368V23.8054H82.157V23.7656H82.1171V23.7258H82.0374V23.6859H81.9576V23.6461H81.9177V23.6063H81.838V23.5665H81.7582V23.5267H81.7184V23.4868H81.6785V23.447H81.5987V23.4072H81.5588V23.3674H81.519V23.3275H81.4392V23.2877H81.3993V23.2479H81.3594V23.2081H81.2797V23.1683H81.2398V23.1284H81.1999V23.0886H81.1601V23.0488H81.1202V23.009H81.0803V22.9692H81.0005V22.9293H80.9607V22.8895H80.9208V22.8497H80.8809V22.8099H80.841V22.7701H80.8012V22.7302H80.7613V22.6904H80.7214V22.6506H80.6815V22.6108H80.6416V22.571H80.6018V22.5311H80.5619V22.4913H80.522V22.4515H80.4821V22.3719H80.4422V22.332H80.4024V22.2922H80.3625V22.2524H80.3226V22.2126H80.2827V22.1728H80.2429V22.0931H80.203V22.0533H80.1631V22.0135H80.1232V21.9338H80.0833V21.894H80.0435V21.8542H80.0036V21.7746H79.9637V21.7347H79.9238V21.6949H79.884V21.6153H79.8441V21.5356H79.8042V21.4958H79.7643V21.4162H79.7244V21.3365H79.6846V21.2967H79.6447V21.2171H79.6048V21.1374H79.5649V21.0578H79.525V20.9782H79.4852V20.8985H79.4453V20.8189H79.4054V20.7392H79.3655V20.6596H79.3257V20.58H79.2858V20.4605H79.2459V20.3809H79.206V20.2614H79.1661V20.1419H79.1263V20.0623H79.0864V19.9428H79.0465V19.7835H79.0066V19.6243H78.9667V19.465H78.9269V19.3057H78.887V19.1066H78.8471V18.8279H78.8072V18.5491H78.7674V17.235H78.8072V16.9165H78.8471V16.6776H78.887V16.4386H78.9269V16.2794H78.9667V16.1599H79.0066V16.0006H79.0465V15.8413H79.0864V15.7219H79.1263V15.6024H79.1661V15.5228H79.206V15.4033H79.2459V15.2839H79.2858V15.2042H79.3257V15.1246H79.3655V15.0449H79.4054V14.9653H79.4453V14.8857H79.4852V14.7662H79.525V14.6866H79.5649V14.6069H79.6048V14.5671H79.6447V14.4875H79.6846V14.4078H79.7244V14.368H79.7643V14.2884H79.8042V14.2087H79.8441V14.1689H79.884V14.0892H79.9238V14.0494H79.9637V13.9698H80.0036V13.93H80.0435V13.8901H80.0833V13.8105H80.1232V13.7707H80.1631V13.7309H80.203V13.6512H80.2429V13.6114H80.2827V13.5716H80.3226V13.5318H80.3625V13.4521H80.4024V13.4123H80.4422V13.3725H80.4821V13.3327H80.522V13.2928H80.5619V13.253H80.6018V13.2132H80.6416V13.1734H80.6815V13.1336H80.7214V13.0937H80.7613V13.0539H80.8012V13.0141H80.841V12.9743H80.8809V12.9345H80.9208V12.8946H80.9607V12.8548H81.0005V12.815H81.0404V12.7752H81.0803V12.7354H81.1202V12.6955H81.1999V12.6557H81.2398V12.6159H81.2797V12.5761H81.3196V12.5363H81.3993V12.4964H81.4392V12.4566H81.4791V12.4168H81.5588V12.377H81.5987V12.3372H81.6386V12.2973H81.7184V12.2575H81.7582V12.2177H81.838V12.1779H81.8779V12.1381H81.9576V12.0982H82.0374V12.0584H82.0773V12.0186H82.157V11.9788H82.2368V11.939H82.2767V11.8991H82.3564V11.8593H82.4362V11.8195H82.5159V11.7797H82.5957V11.7399H82.6754V11.7H82.7552V11.6602H82.8349V11.6204H82.9546V11.5806H83.0343V11.5408H83.154V11.5009H83.2736V11.4611H83.3932V11.4213H83.473V11.3815H83.6325V11.3417H83.792V11.3018H83.9515V11.262H84.0712V11.2222H84.2706V11.1824H84.5497V11.1425H84.789V11.1027H85.3074V11.0629H85.9056V11.1027H86.3044V11.1425H86.6633V11.1824H86.8228V11.2222H86.9823V11.262H87.1817V11.3018H87.3412V11.3417H87.5007V11.3815H87.6602V11.4213H87.7799V11.4611H87.8596V11.5009H87.9394V11.5408H88.059V11.5806H88.1388V11.6204H88.2584V11.6602H88.3382V11.7H88.4578V11.7399H88.5375V11.7797H88.6173V11.8195H88.6971V11.8593H88.7768V11.8991H88.8167V11.939H88.8965V11.9788H88.9762V12.0186H89.0161V12.0584H89.0958V12.0982H89.1756V12.1381H89.2554V12.1779H89.2952V12.2177H89.375V12.2575H89.4547V12.2973H89.4946V12.3372H89.5345V12.377H89.5744V12.4168H89.6541V12.4566H89.694V12.4964H89.7339V12.5363H89.7738V12.5761H89.8535V12.6159H89.8934V12.6557H89.9333V12.6955H89.9732V12.7354H90.0529V12.7752H90.0928V12.815H90.1327V12.8548H90.1726V12.8946H90.2523V12.9743H90.2922V13.0141H90.3321V13.0539H90.3719V13.0937H90.4118V13.1336H90.4517V13.1734H90.4916V13.2132H90.5315V13.253H90.5713V13.2928H90.6112V13.3327H90.6511V13.3725H90.691V13.4521H90.7309V13.4919H90.7707V13.5318H90.8106V13.5716H90.8505V13.6114H90.8904V13.6512H90.9302V13.691H90.9701V13.7707H91.01V13.8105H91.0499V13.8901H91.0898V13.93H91.1296V14.0096H91.1695V14.0494H91.2094V14.1291H91.2493V14.1689H91.2891V14.2485H91.329V14.2884H91.3689V14.368H91.4088V14.4078H91.4487V14.4476H91.4885V14.5273H91.5284V14.6069H91.5683V14.6866H91.6082V14.7662H91.6481V14.8458H91.6879V14.9255H91.7278V15.0051H91.7677V15.0848H91.8076V15.1644H91.8474V15.244H91.8873V15.3635H91.9272V15.4431H90.8106V15.3635H90.7707V15.2839H90.7309V15.2042H90.691V15.1644H90.6511V15.0848H90.6112V15.0051H90.5713V14.9653H90.5315V14.8857H90.4916V14.806H90.4517V14.7662H90.4118V14.6866H90.3719V14.6467H90.3321V14.5671H90.2922V14.5273H90.2523V14.4875H90.2124V14.4476H90.1726V14.368H90.1327V14.3282H90.0928V14.2884H90.0529V14.2087H90.013V14.1689H89.9732V14.1291H89.9333V14.0494H89.8934V14.0096H89.8535V13.9698H89.8137V13.93H89.7738V13.8901H89.7339V13.8503H89.694V13.8105H89.6541V13.7707H89.5744V13.7309H89.5345V13.691H89.4946V13.6512H89.4547V13.6114H89.4149V13.5716H89.375V13.5318H89.3351V13.4919H89.2952V13.4521H89.2554V13.4123H89.2155V13.3725H89.1357V13.3327H89.0958V13.2928H89.056V13.253H88.9762V13.2132H88.9363V13.1734H88.8965V13.1336H88.8167V13.0937H88.7768V13.0539H88.7369V13.0141H88.6572V12.9743H88.5774V12.9345H88.4977V12.8946H88.4179V12.8548H88.378V12.815H88.2983V12.7752H88.2185V12.7354H88.1388V12.6955H88.059V12.6557H88.0191V12.6159H87.8995V12.5761H87.7799V12.5363H87.7001V12.4964H87.5805V12.4566H87.5007V12.4168H87.3811V12.377H87.2614V12.3372H87.1418V12.2973H86.9424V12.2575H86.7829V12.2177H86.5835V12.1779H86.424V12.1381H86.0252V12.0982H85.0681V12.1381H84.789V12.1779H84.5098V12.2177H84.3104V12.2575H84.1509V12.2973H84.0313V12.3372H83.8718V12.377H83.7521V12.4168H83.6325V12.4566H83.5528V12.4964H83.4331V12.5363H83.3135V12.5761H83.2337V12.6159H83.154V12.6557H83.0742V12.6955H82.9945V12.7354H82.9147V12.7752H82.8349V12.815H82.7552V12.8548H82.6754V12.8946H82.6356V12.9345H82.5558V12.9743H82.476V13.0141H82.4362V13.0539H82.3564V13.0937H82.3165V13.1336H82.2368V13.1734H82.1969V13.2132H82.157V13.253H82.0773V13.2928H82.0374V13.3327H81.9975V13.3725H81.9177V13.4123H81.8779V13.4521H81.838V13.4919H81.7981V13.5318H81.7582V13.5716H81.7184V13.6114H81.6785V13.6512H81.6386V13.691H81.5588V13.7309H81.519V13.7707H81.4791V13.8105H81.4392V13.8503H81.3993V13.8901H81.3594V13.9698H81.3196V14.0096H81.2797V14.0494H81.2398V14.0892H81.1999V14.1291H81.1601V14.1689H81.1202V14.2087H81.0803V14.2485H81.0404V14.3282H81.0005V14.368H80.9607V14.4476H80.9208V14.4875H80.8809V14.5273H80.841V14.6069H80.8012V14.6467H80.7613V14.6866H80.7214V14.7662H80.6815V14.8458H80.6416V14.8857H80.6018V14.9653H80.5619V15.0449H80.522V15.0848H80.4821V15.1644H80.4422V15.244H80.4024V15.3237H80.3625V15.4033H80.3226V15.483H80.2827V15.5626H80.2429V15.6821H80.203V15.7617H80.1631V15.8812H80.1232V16.0006H80.0833V16.1201H80.0435V16.2395H80.0036V16.359H79.9637V16.5183H79.9238V16.6776H79.884V16.9165H79.8441V17.1554H79.8042V17.5934H79.7643V18.1907H79.8042V18.5889H79.8441V18.8677H79.884V19.1066H79.9238V19.2261H79.9637V19.3853H80.0036V19.5446H80.0435V19.6641H80.0833V19.7835H80.1232V19.903H80.1631V19.9826H80.203V20.1021H80.2429V20.1817H80.2827V20.2614H80.3226V20.3809H80.3625V20.4605H80.4024V20.5401H80.4422V20.6198H80.4821V20.6994H80.522V20.7392H80.5619V20.8189H80.6018V20.8587H80.6416V20.9383H80.6815V21.018H80.7214V21.0578H80.7613V21.1374H80.8012V21.1773H80.841V21.2569H80.8809V21.2967H80.9208V21.3365H80.9607V21.4162H81.0005V21.456H81.0404V21.4958H81.0803V21.5755H81.1202V21.6153H81.1601V21.6551H81.1999V21.6949H81.2398V21.7347H81.2797V21.7746H81.3196V21.8144H81.3594V21.8542H81.3993V21.894H81.4392V21.9737H81.4791V22.0135H81.5588V22.0533H81.5987V22.0931H81.6386V22.1329H81.6785V22.1728H81.7184V22.2126H81.7582V22.2524H81.7981V22.2922H81.838V22.332H81.8779V22.3719H81.9576V22.4117H81.9975V22.4515H82.0374V22.4913H82.1171V22.5311H82.157V22.571H82.1969V22.6108H82.2767V22.6506H82.3165V22.6904H82.3963V22.7302H82.4362V22.7701H82.5159V22.8099H82.5957V22.8497H82.6356V22.8895H82.7153V22.9293H82.7552V22.9692H82.8349V23.009H82.9147V23.0488H82.9945V23.0886H83.0742V23.1284H83.154V23.1683H83.2736V23.2081H83.3534V23.2479H83.4331V23.2877H83.5528V23.3275H83.6724V23.3674H83.792V23.4072H83.9117V23.447H84.0313V23.4868H84.1908V23.5267H84.3503V23.5665H84.5896V23.6063H84.8289V23.6461H85.2276V23.6859H85.9056V23.6461H86.3044V23.6063H86.5436V23.5665H86.743V23.5267H86.9025V23.4868H87.0621V23.447H87.2614V23.4072H87.3412V23.3674H87.4608V23.3275H87.5805V23.2877H87.6602V23.2479H87.7799V23.2081H87.8596V23.1683H87.9792V23.1284H88.059V23.0886H88.1388V23.0488H88.2185V23.009H88.2584V22.9692H88.3382V22.9293H88.4179V22.8895H88.4977V22.8497H88.5774V22.8099H88.6173V22.7701H88.6971V22.7302H88.7768V22.6904H88.8167V22.6506H88.8566V22.6108H88.9363V22.571H88.9762V22.5311H89.0161V22.4913H89.0958V22.4515H89.1357V22.4117H89.1756V22.3719H89.2155V22.332H89.2952V22.2922H89.3351V22.2524H89.375V22.2126H89.4547V22.1728H89.4946V22.0931H89.5345V22.0533H89.5744V22.0135H89.6143V21.9737H89.6541V21.9338H89.694V21.894H89.7339V21.8542H89.7738V21.8144H89.8137V21.7746H89.8535V21.7347H89.8934V21.6949H89.9333V21.6551H89.9732V21.6153H90.013V21.5755H90.0529V21.4958H90.0928V21.456H90.1327V21.4162H90.1726V21.3365H90.2124V21.2967H90.2523V21.2569H90.2922V21.1773H90.3321V21.1374H90.3719V21.0578H90.4118V21.018H90.4517V20.9782H90.4916V20.8985H90.5315V20.8189H90.5713V20.7791H90.6112V20.6994H90.6511V20.6198H90.691V20.5401H90.7309V20.4605H90.7707V20.4207H90.8106V20.3012H90.8505V20.2216H90.8904V20.1817H91.9671V20.3012H91.9272V20.4207H91.8873V20.5003H91.8474V20.58H91.8076V20.6994H91.7677V20.7791H91.7278V20.8587H91.6879V20.9383H91.6481V21.018H91.6082V21.0976H91.5683V21.1773H91.5284V21.2171H91.4885V21.2967H91.4487V21.3764H91.4088V21.4162H91.3689V21.4958H91.329V21.5755H91.2891V21.6153H91.2493V21.6949H91.2094V21.7347H91.1695V21.8144H91.1296V21.8542H91.0898V21.894H91.0499V21.9737H91.01V22.0135H90.9701V22.0533H90.9302V22.1329H90.8904V22.1728H90.8505V22.2126H90.8106V22.2524H90.7707V22.2922H90.7309V22.3719H90.691V22.4117H90.6511V22.4515H90.6112V22.4913H90.5713V22.5311H90.5315V22.571H90.4916V22.6108H90.4517V22.6506H90.4118V22.6904H90.3719V22.7302H90.3321V22.7701H90.2922V22.8099H90.2523V22.8497H90.2124V22.8895H90.1726V22.9293H90.1327V22.9692H90.0928V23.009H90.0529V23.0488H90.013V23.0886H89.9333V23.1284H89.8934V23.1683H89.8535V23.2081H89.8137V23.2479H89.7339V23.2877H89.694V23.3275H89.6541V23.3674H89.5744V23.4072H89.5345V23.447H89.4946V23.4868H89.4149V23.5267H89.375V23.5665H89.2952V23.6063H89.2554V23.6461H89.1756V23.6859H89.1357V23.7258H89.056V23.7656H88.9762V23.8054H88.8965V23.8452H88.8167V23.885H88.7768V23.9249H88.6971V23.9647H88.6173V24.0045H88.5375V24.0443H88.4578V24.0841H88.3382V24.124H88.2584V24.1638H88.1786V24.2036H88.059V24.2434H87.9792V24.2832H87.8596V24.3231H87.74V24.3629H87.6203V24.4027H87.5007V24.4425H87.3412V24.4823H87.2216V24.5222H87.0222V24.562H86.8228V24.6018H86.5835V24.6416H86.2645V24.6814H84.8687ZM115.455 24.6814V24.6416H115.176V24.6018H114.937V24.562H114.698V24.5222H114.538V24.4823H114.379V24.4425H114.219V24.4027H114.1V24.3629H113.98V24.3231H113.86V24.2832H113.781V24.2434H113.661V24.2036H113.541V24.1638H113.461V24.124H113.382V24.0841H113.302V24.0443H113.222V24.0045H113.103V23.9647H113.023V23.9249H112.943V23.885H112.863V23.8452H112.823V23.8054H112.744V23.7656H112.664V23.7258H112.624V23.6859H112.544V23.6461H112.465V23.6063H112.425V23.5665H112.345V23.5267H112.305V23.4868H112.225V23.447H112.185V23.4072H112.146V23.3674H112.066V23.3275H112.026V23.2877H111.986V23.2479H111.906V23.2081H111.866V23.1683H111.826V23.1284H111.787V23.0886H111.747V23.0488H111.667V23.009H111.627V22.9692H111.587V22.9293H111.547V22.8895H111.507V22.8497H111.468V22.8099H111.428V22.7701H111.388V22.7302H111.348V22.6904H111.308V22.6506H111.268V22.6108H111.228V22.571H111.188V22.5311H111.149V22.4913H111.109V22.4515H111.069V22.4117H111.029V22.3719H110.989V22.332H110.949V22.2524H110.909V22.2126H110.869V22.1728H110.83V22.1329H110.79V22.0533H110.75V22.0135H110.71V21.9737H110.67V21.894H110.63V21.8542H110.59V21.8144H110.55V21.7347H110.51V21.6949H110.471V21.6153H110.431V21.5755H110.391V21.4958H110.351V21.4162H110.311V21.3764H110.271V21.2967H110.231V21.2171H110.191V21.1773H110.152V21.0976H110.112V21.018H110.072V20.9383H110.032V20.8587H109.992V20.7791H109.952V20.6994H109.912V20.58H109.872V20.5003H109.833V20.3809H109.793V20.3012H109.753V20.1817H109.713V20.0623H109.673V19.9428H109.633V19.8234H109.593V19.6641H109.553V19.5048H109.514V19.3455H109.474V19.1464H109.434V18.9075H109.394V18.6288H109.354V18.1111H109.314V17.6731H109.354V17.1156H109.394V16.8767H109.434V16.5979H109.474V16.3988H109.514V16.2794H109.553V16.1201H109.593V15.9608H109.633V15.8015H109.673V15.7219H109.713V15.6024H109.753V15.483H109.793V15.3635H109.833V15.2839H109.872V15.1644H109.912V15.0848H109.952V15.0051H109.992V14.9255H110.032V14.8458H110.072V14.7662H110.112V14.6866H110.152V14.6069H110.191V14.5273H110.231V14.4875H110.271V14.4078H110.311V14.3282H110.351V14.2884H110.391V14.2087H110.431V14.1291H110.471V14.0892H110.51V14.0096H110.55V13.9698H110.59V13.93H110.63V13.8503H110.67V13.8105H110.71V13.7707H110.75V13.691H110.79V13.6512H110.83V13.6114H110.869V13.5318H110.909V13.4919H110.949V13.4521H110.989V13.4123H111.029V13.3725H111.069V13.3327H111.109V13.2928H111.149V13.253H111.188V13.2132H111.228V13.1734H111.268V13.0937H111.308V13.0539H111.348V13.0141H111.428V12.9743H111.468V12.9345H111.507V12.8946H111.547V12.8548H111.587V12.815H111.627V12.7752H111.667V12.7354H111.707V12.6955H111.747V12.6557H111.787V12.6159H111.866V12.5761H111.906V12.5363H111.946V12.4964H112.026V12.4566H112.066V12.4168H112.106V12.377H112.185V12.3372H112.225V12.2973H112.265V12.2575H112.345V12.2177H112.385V12.1779H112.465V12.1381H112.544V12.0982H112.584V12.0584H112.664V12.0186H112.744V11.9788H112.784V11.939H112.863V11.8991H112.943V11.8593H113.023V11.8195H113.103V11.7797H113.182V11.7399H113.262V11.7H113.342V11.6602H113.422V11.6204H113.501V11.5806H113.621V11.5408H113.741V11.5009H113.86V11.4611H113.94V11.4213H114.06V11.3815H114.179V11.3417H114.339V11.3018H114.498V11.262H114.658V11.2222H114.857V11.1824H115.097V11.1425H115.376V11.1027H115.894V11.0629H116.412V11.1027H116.931V11.1425H117.17V11.1824H117.449V11.2222H117.649V11.262H117.808V11.3018H117.968V11.3417H118.087V11.3815H118.247V11.4213H118.367V11.4611H118.446V11.5009H118.566V11.5408H118.686V11.5806H118.765V11.6204H118.885V11.6602H118.965V11.7H119.044V11.7399H119.124V11.7797H119.204V11.8195H119.284V11.8593H119.363V11.8991H119.443V11.939H119.523V11.9788H119.563V12.0186H119.643V12.0584H119.722V12.0982H119.762V12.1381H119.842V12.1779H119.922V12.2177H119.962V12.2575H120.041V12.2973H120.081V12.3372H120.121V12.377H120.201V12.4168H120.241V12.4566H120.281V12.4964H120.36V12.5363H120.4V12.5761H120.44V12.6159H120.48V12.6557H120.56V12.6955H120.6V12.7354H120.64V12.7752H120.679V12.815H120.719V12.8548H120.759V12.8946H120.799V12.9345H120.839V12.9743H120.879V13.0141H120.959V13.0539H120.998V13.1336H121.038V13.1734H121.078V13.2132H121.118V13.253H121.158V13.2928H121.198V13.3327H121.238V13.3725H121.278V13.4123H121.318V13.4521H121.357V13.4919H121.397V13.5716H121.437V13.6114H121.477V13.6512H121.517V13.7309H121.557V13.7707H121.597V13.8105H121.637V13.8901H121.676V13.93H121.716V13.9698H121.756V14.0494H121.796V14.0892H121.836V14.1689H121.876V14.2087H121.916V14.2884H121.956V14.368H121.995V14.4078H122.035V14.4875H122.075V14.5273H122.115V14.6069H122.155V14.6866H122.195V14.7662H122.235V14.8458H122.275V14.9255H122.314V15.0051H122.354V15.0848H122.394V15.1644H122.434V15.2839H122.474V15.4033H122.514V15.483H122.554V15.6024H122.594V15.7219H122.633V15.8015H122.673V15.9608H122.713V16.1201H122.753V16.2794H122.793V16.4386H122.833V16.6377H122.873V16.8767H122.913V17.1554H122.953V18.6288H122.913V18.8677H122.873V19.1464H122.833V19.3455H122.793V19.5048H122.753V19.6641H122.713V19.8234H122.673V19.9428H122.633V20.0623H122.594V20.1817H122.554V20.2614H122.514V20.3809H122.474V20.5003H122.434V20.58H122.394V20.6596H122.354V20.7392H122.314V20.8189H122.275V20.9383H122.235V21.018H122.195V21.0976H122.155V21.1773H122.115V21.2171H122.075V21.2967H122.035V21.3764H121.995V21.4162H121.956V21.4958H121.916V21.5755H121.876V21.6153H121.836V21.6949H121.796V21.7347H121.756V21.8144H121.716V21.8542H121.676V21.894H121.637V21.9737H121.597V22.0135H121.557V22.0533H121.517V22.1329H121.477V22.1728H121.437V22.2126H121.397V22.2524H121.357V22.2922H121.318V22.3719H121.278V22.4117H121.238V22.4515H121.198V22.4913H121.158V22.5311H121.118V22.571H121.078V22.6108H121.038V22.6506H120.998V22.6904H120.959V22.7302H120.919V22.7701H120.879V22.8099H120.839V22.8497H120.799V22.8895H120.759V22.9293H120.719V22.9692H120.679V23.009H120.64V23.0488H120.56V23.0886H120.52V23.1284H120.48V23.1683H120.44V23.2081H120.4V23.2479H120.321V23.2877H120.281V23.3275H120.241V23.3674H120.161V23.4072H120.121V23.447H120.041V23.4868H120.002V23.5267H119.962V23.5665H119.882V23.6063H119.802V23.6461H119.762V23.6859H119.683V23.7258H119.643V23.7656H119.563V23.8054H119.483V23.8452H119.443V23.885H119.363V23.9249H119.284V23.9647H119.164V24.0045H119.084V24.0443H119.005V24.0841H118.925V24.124H118.845V24.1638H118.765V24.2036H118.646V24.2434H118.526V24.2832H118.446V24.3231H118.327V24.3629H118.207V24.4027H118.047V24.4425H117.928V24.4823H117.768V24.5222H117.609V24.562H117.37V24.6018H117.13V24.6416H116.851V24.6814H115.455ZM104.768 11.3018H106.004V24.5222H104.768V11.3018ZM42.0394 24.4425V11.3417H49.3372V12.3372H43.156V17.3545H48.8586V18.4297H43.1162V24.4425H42.0394ZM65.3284 24.4425V11.3417H68.0401V11.4213H68.08V11.5009H68.1198V11.5806H68.1597V11.6602H68.1996V11.7399H68.2395V11.8195H68.2794V11.8991H68.3192V11.9788H68.3591V12.0186H68.399V12.0982H68.4389V12.1779H68.4788V12.2575H68.5186V12.3372H68.5585V12.4168H68.5984V12.4964H68.6383V12.5761H68.6781V12.6557H68.718V12.7354H68.7579V12.815H68.7978V12.8946H68.8377V12.9743H68.8775V13.0539H68.9174V13.1336H68.9573V13.2132H68.9972V13.2928H69.0371V13.3725H69.0769V13.4521H69.1168V13.5318H69.1567V13.6114H69.1966V13.691H69.2364V13.7707H69.2763V13.8503H69.3162V13.8901H69.3561V13.9698H69.396V14.0494H69.4358V14.1291H69.4757V14.2087H69.5156V14.2884H69.5555V14.368H69.5953V14.4476H69.6352V14.5273H69.6751V14.6069H69.715V14.6866H69.7549V14.7662H69.7947V14.8458H69.8346V14.9255H69.8745V15.0051H69.9144V15.0848H69.9543V15.1644H69.9941V15.244H70.034V15.3237H70.0739V15.4033H70.1138V15.483H70.1536V15.5626H70.1935V15.6422H70.2334V15.7219H70.2733V15.7617H70.3132V15.8413H70.353V15.921H70.3929V16.0006H70.4328V16.0803H70.4727V16.1599H70.5126V16.2395H70.5524V16.3192H70.5923V16.3988H70.6322V16.4785H70.6721V16.5581H70.7119V16.6377H70.7518V16.7174H70.7917V16.797H70.8316V16.8767H70.8715V16.9563H70.9113V17.0359H70.9512V17.1156H70.9911V17.1952H71.031V17.2749H71.0708V17.3545H71.1107V17.4342H71.1506V17.5138H71.1905V17.5934H71.2304V17.6333H71.2702V17.7129H71.3101V17.7925H71.35V17.8722H71.3899V17.9518H71.4298V18.0315H71.4696V18.1111H71.5095V18.1907H71.5494V18.2704H71.5893V18.35H71.6291V18.4297H71.669V18.5093H71.7089V18.5889H71.7488V18.6686H71.7887V18.7482H71.8285V18.8279H71.8684V18.9075H71.9083V18.9871H71.9482V19.0668H71.988V19.1464H72.0279V19.2261H72.0678V19.3057H72.1077V19.3853H72.1476V19.465H72.1874V19.5048H72.2273V19.5844H72.2672V19.6641H72.3071V19.7437H72.347V19.8234H72.3868V19.903H72.4267V19.9826H72.4666V20.0623H72.5065V20.1419H72.5463V20.2216H72.5862V20.3012H72.6261V20.3809H72.666V20.4605H72.7059V20.5401H72.7457V20.6198H72.7856V20.6994H72.8255V20.7791H72.8654V20.8587H72.9052V20.9383H72.9451V21.018H72.985V21.0976H73.0249V21.1773H73.0648V21.2569H73.1046V21.3365H73.1445V21.3764H73.1844V21.456H73.2243V21.5356H73.2642V21.6153H73.304V21.6949H73.3439V21.7746H73.3838V21.8542H73.4237V21.9338H73.4635V22.0135H73.5034V22.0931H73.5433V22.1728H73.5832V22.2524H73.6231V22.332H73.6629V22.4117H73.7028V22.4913H73.7427V22.571H73.7826V22.6506H73.8224V22.7302H73.8623V22.8099H73.9022V22.8895H73.9421V22.9692H73.982V23.0488H74.0218V23.1284H74.0617V23.2081H74.1016V23.2479H74.1415V23.2877H75.0587V11.3018H76.1354V24.4425H73.4237V24.4027H73.3838V24.3231H73.3439V24.2434H73.304V24.1638H73.2642V24.0841H73.2243V24.0045H73.1844V23.9249H73.1445V23.8452H73.1046V23.7656H73.0648V23.6859H73.0249V23.6063H72.985V23.5267H72.9451V23.447H72.9052V23.3674H72.8654V23.2877H72.8255V23.2479H72.7856V23.1683H72.7457V23.0886H72.7059V23.009H72.666V22.9293H72.6261V22.8497H72.5862V22.7701H72.5463V22.6904H72.5065V22.6108H72.4666V22.5311H72.4267V22.4515H72.3868V22.3719H72.347V22.2922H72.3071V22.2126H72.2672V22.1329H72.2273V22.0533H72.1874V21.9737H72.1476V21.894H72.1077V21.8144H72.0678V21.7746H72.0279V21.6949H71.988V21.6153H71.9482V21.5356H71.9083V21.456H71.8684V21.3764H71.8285V21.2967H71.7887V21.2171H71.7488V21.1374H71.7089V21.0578H71.669V20.9782H71.6291V20.8985H71.5893V20.8189H71.5494V20.7392H71.5095V20.6596H71.4696V20.58H71.4298V20.5003H71.3899V20.4207H71.35V20.341H71.3101V20.2614H71.2702V20.2216H71.2304V20.1419H71.1905V20.0623H71.1506V19.9826H71.1107V19.903H71.0708V19.8234H71.031V19.7437H70.9911V19.6641H70.9512V19.5844H70.9113V19.5048H70.8715V19.4252H70.8316V19.3455H70.7917V19.2659H70.7518V19.1862H70.7119V19.1066H70.6721V19.027H70.6322V18.9473H70.5923V18.8677H70.5524V18.788H70.5126V18.7084H70.4727V18.6686H70.4328V18.5889H70.3929V18.5093H70.353V18.4297H70.3132V18.35H70.2733V18.2704H70.2334V18.1907H70.1935V18.1111H70.1536V18.0315H70.1138V17.9518H70.0739V17.8722H70.034V17.7925H69.9941V17.7129H69.9543V17.6333H69.9144V17.5536H69.8745V17.474H69.8346V17.3943H69.7947V17.3147H69.7549V17.235H69.715V17.1554H69.6751V17.1156H69.6352V17.0359H69.5953V16.9563H69.5555V16.8767H69.5156V16.797H69.4757V16.7174H69.4358V16.6377H69.396V16.5581H69.3561V16.4785H69.3162V16.3988H69.2763V16.3192H69.2364V16.2395H69.1966V16.1599H69.1567V16.0803H69.1168V16.0006H69.0769V15.921H69.0371V15.8413H68.9972V15.7617H68.9573V15.6821H68.9174V15.6024H68.8775V15.5626H68.8377V15.483H68.7978V15.4033H68.7579V15.3237H68.718V15.244H68.6781V15.1644H68.6383V15.0848H68.5984V15.0051H68.5585V14.9255H68.5186V14.8458H68.4788V14.7662H68.4389V14.6866H68.399V14.6069H68.3591V14.5273H68.3192V14.4476H68.2794V14.368H68.2395V14.2884H68.1996V14.2087H68.1597V14.1291H68.1198V14.0892H68.08V14.0096H68.0401V13.93H68.0002V13.8503H67.9603V13.7707H67.9205V13.691H67.8806V13.6114H67.8407V13.5318H67.8008V13.4521H67.7609V13.3725H67.7211V13.2928H67.6812V13.2132H67.6413V13.1336H67.6014V13.0539H67.5616V12.9743H67.5217V12.8946H67.4818V12.815H67.4419V12.7354H67.402V12.6557H67.3622V12.5761H67.3223V12.5363H67.2824V12.4566H67.2425V12.4168H66.4051V24.4425H65.3284ZM96.7924 24.4425V12.3372H92.6849V11.3018H102.056V12.2973H97.9488V24.4425H96.7924ZM125.943 24.4425V11.3417H128.655V11.3815H128.695V11.4611H128.735V11.5408H128.775V11.6204H128.815V11.7H128.855V11.7797H128.894V11.8593H128.934V11.939H128.974V12.0186H129.014V12.0982H129.054V12.1779H129.094V12.2575H129.134V12.3372H129.174V12.4168H129.213V12.4964H129.253V12.5761H129.293V12.6557H129.333V12.7354H129.373V12.815H129.413V12.8548H129.453V12.9345H129.493V13.0141H129.532V13.0937H129.572V13.1734H129.612V13.253H129.652V13.3327H129.692V13.4123H129.732V13.4919H129.772V13.5716H129.812V13.6512H129.851V13.7309H129.891V13.8105H129.931V13.8901H129.971V13.9698H130.011V14.0494H130.051V14.1291H130.091V14.2087H130.131V14.2884H130.17V14.368H130.21V14.4476H130.25V14.5273H130.29V14.6069H130.33V14.6866H130.37V14.7264H130.41V14.806H130.45V14.8857H130.49V14.9653H130.529V15.0449H130.569V15.1246H130.609V15.2042H130.649V15.2839H130.689V15.3635H130.729V15.4431H130.769V15.5228H130.809V15.6024H130.848V15.6821H130.888V15.7617H130.928V15.8413H130.968V15.921H131.008V16.0006H131.048V16.0803H131.088V16.1599H131.128V16.2395H131.167V16.3192H131.207V16.3988H131.247V16.4785H131.287V16.5581H131.327V16.5979H131.367V16.6776H131.407V16.7572H131.447V16.8368H131.486V16.9165H131.526V16.9961H131.566V17.0758H131.606V17.1554H131.646V17.235H131.686V17.3147H131.726V17.3943H131.766V17.474H131.806V17.5536H131.845V17.6333H131.885V17.7129H131.925V17.7925H131.965V17.8722H132.005V17.9518H132.045V18.0315H132.085V18.1111H132.125V18.1907H132.164V18.2704H132.204V18.35H132.244V18.4297H132.284V18.4695H132.324V18.5491H132.364V18.6288H132.404V18.7084H132.444V18.788H132.483V18.8677H132.523V18.9473H132.563V19.027H132.603V19.1066H132.643V19.1862H132.683V19.2659H132.723V19.3455H132.763V19.4252H132.802V19.5048H132.842V19.5844H132.882V19.6641H132.922V19.7437H132.962V19.8234H133.002V19.903H133.042V19.9826H133.082V20.0623H133.121V20.1419H133.161V20.2216H133.201V20.3012H133.241V20.341H133.281V20.4207H133.321V20.5003H133.361V20.58H133.401V20.6596H133.441V20.7392H133.48V20.8189H133.52V20.8985H133.56V20.9782H133.6V21.0578H133.64V21.1374H133.68V21.2171H133.72V21.2967H133.76V21.3764H133.799V21.456H133.839V21.5356H133.879V21.6153H133.919V21.6949H133.959V21.7746H133.999V21.8542H134.039V21.9338H134.079V22.0135H134.118V22.0931H134.158V22.1728H134.198V22.2126H134.238V22.2922H134.278V22.3719H134.318V22.4515H134.358V22.5311H134.398V22.6108H134.437V22.6904H134.477V22.7701H134.517V22.8497H134.557V22.9293H134.597V23.009H134.637V23.0886H134.677V23.1683H134.717V23.2479H134.757V23.2877H135.674V11.3018H136.75V24.4425H134.039V24.3629H133.999V24.2832H133.959V24.2036H133.919V24.124H133.879V24.0443H133.839V24.0045H133.799V23.9249H133.76V23.8452H133.72V23.7656H133.68V23.6859H133.64V23.6063H133.6V23.5267H133.56V23.447H133.52V23.3674H133.48V23.2877H133.441V23.2081H133.401V23.1284H133.361V23.0488H133.321V22.9692H133.281V22.8895H133.241V22.8099H133.201V22.7302H133.161V22.6506H133.121V22.571H133.082V22.4913H133.042V22.4515H133.002V22.3719H132.962V22.2922H132.922V22.2126H132.882V22.1329H132.842V22.0533H132.802V21.9737H132.763V21.894H132.723V21.8144H132.683V21.7347H132.643V21.6551H132.603V21.5755H132.563V21.4958H132.523V21.4162H132.483V21.3365H132.444V21.2569H132.404V21.1773H132.364V21.0976H132.324V21.018H132.284V20.9383H132.244V20.8985H132.204V20.8189H132.164V20.7392H132.125V20.6596H132.085V20.58H132.045V20.5003H132.005V20.4207H131.965V20.341H131.925V20.2614H131.885V20.1817H131.845V20.1021H131.806V20.0225H131.766V19.9428H131.726V19.8632H131.686V19.7835H131.646V19.7039H131.606V19.6243H131.566V19.5446H131.526V19.465H131.486V19.4252H131.447V19.3455H131.407V19.2659H131.367V19.1862H131.327V19.1066H131.287V19.027H131.247V18.9473H131.207V18.8677H131.167V18.788H131.128V18.7084H131.088V18.6288H131.048V18.5491H131.008V18.4695H130.968V18.3898H130.928V18.3102H130.888V18.2306H130.848V18.1509H130.809V18.0713H130.769V17.9916H130.729V17.912H130.689V17.8722H130.649V17.7925H130.609V17.7129H130.569V17.6333H130.529V17.5536H130.49V17.474H130.45V17.3943H130.41V17.3147H130.37V17.235H130.33V17.1554H130.29V17.0758H130.25V16.9961H130.21V16.9165H130.17V16.8368H130.131V16.7572H130.091V16.6776H130.051V16.5979H130.011V16.5183H129.971V16.4386H129.931V16.359H129.891V16.3192H129.851V16.2395H129.812V16.1599H129.772V16.0803H129.732V16.0006H129.692V15.921H129.652V15.8413H129.612V15.7617H129.572V15.6821H129.532V15.6024H129.493V15.5228H129.453V15.4431H129.413V15.3635H129.373V15.2839H129.333V15.2042H129.293V15.1246H129.253V15.0449H129.213V14.9653H129.174V14.8857H129.134V14.806H129.094V14.7662H129.054V14.6866H129.014V14.6069H128.974V14.5273H128.934V14.4476H128.894V14.368H128.855V14.2884H128.815V14.2087H128.775V14.1291H128.735V14.0494H128.695V13.9698H128.655V13.8901H128.615V13.8105H128.575V13.7309H128.535V13.6512H128.496V13.5716H128.456V13.4919H128.416V13.4123H128.376V13.3327H128.336V13.253H128.296V13.2132H128.256V13.1336H128.216V13.0539H128.177V12.9743H128.137V12.8946H128.097V12.815H128.057V12.7354H128.017V12.6557H127.977V12.5761H127.937V12.4964H127.897V12.4168H127.02V24.4425H125.943ZM141.735 24.4027V11.262H142.852V23.3275H149.113V24.4027H141.735ZM151.505 24.4027V11.3018H154.217V11.3417H154.257V11.4213H154.297V11.5009H154.337V11.5806H154.377V11.6602H154.417V11.7399H154.456V11.8195H154.496V11.8991H154.536V11.9788H154.576V12.0584H154.616V12.1381H154.656V12.2177H154.696V12.2973H154.736V12.377H154.775V12.4566H154.815V12.5363H154.855V12.6159H154.895V12.6955H154.935V12.7354H154.975V12.815H155.015V12.8946H155.055V12.9743H155.094V13.0539H155.134V13.1336H155.174V13.2132H155.214V13.2928H155.254V13.3725H155.294V13.4521H155.334V13.5318H155.374V13.6114H155.413V13.691H155.453V13.7707H155.493V13.8503H155.533V13.93H155.573V14.0096H155.613V14.0892H155.653V14.1689H155.693V14.2485H155.732V14.3282H155.772V14.4078H155.812V14.4875H155.852V14.5671H155.892V14.6069H155.932V14.6866H155.972V14.7662H156.012V14.8458H156.052V14.9255H156.091V15.0051H156.131V15.0848H156.171V15.1644H156.211V15.244H156.251V15.3237H156.291V15.4033H156.331V15.483H156.371V15.5626H156.41V15.6422H156.45V15.7219H156.49V15.8015H156.53V15.8812H156.57V15.9608H156.61V16.0404H156.65V16.1201H156.69V16.1997H156.729V16.2794H156.769V16.359H156.809V16.4386H156.849V16.4785H156.889V16.5581H156.929V16.6377H156.969V16.7174H157.009V16.797H157.048V16.8767H157.088V16.9563H157.128V17.0359H157.168V17.1156H157.208V17.1952H157.248V17.2749H157.288V17.3545H157.328V17.4342H157.368V17.5138H157.407V17.5934H157.447V17.6731H157.487V17.7527H157.527V17.8324H157.567V17.912H157.607V17.9916H157.647V18.0713H157.687V18.1509H157.726V18.2306H157.766V18.3102H157.806V18.35H157.846V18.4297H157.886V18.5093H157.926V18.5889H157.966V18.6686H158.006V18.7482H158.045V18.8279H158.085V18.9075H158.125V18.9871H158.165V19.0668H158.205V19.1464H158.245V19.2261H158.285V19.3057H158.325V19.3853H158.364V19.465H158.404V19.5446H158.444V19.6243H158.484V19.7039H158.524V19.7835H158.564V19.8632H158.604V19.9428H158.644V20.0225H158.683V20.1021H158.723V20.1817H158.763V20.2216H158.803V20.3012H158.843V20.3809H158.883V20.4605H158.923V20.5401H158.963V20.6198H159.003V20.6994H159.042V20.7791H159.082V20.8587H159.122V20.9383H159.162V21.018H159.202V21.0976H159.242V21.1773H159.282V21.2569H159.322V21.3365H159.361V21.4162H159.401V21.4958H159.441V21.5755H159.481V21.6551H159.521V21.7347H159.561V21.8144H159.601V21.894H159.641V21.9737H159.68V22.0533H159.72V22.0931H159.76V22.1728H159.8V22.2524H159.84V22.332H159.88V22.4117H159.92V22.4913H159.96V22.571H159.999V22.6506H160.039V22.7302H160.079V22.8099H160.119V22.8895H160.159V22.9692H160.199V23.0488H160.239V23.1284H160.279V23.2081H160.319V23.2877H160.358V23.3674H160.398V23.447H160.438V23.5267H160.478V23.6063H160.518V23.6859H160.558V23.7656H160.598V23.8452H160.638V23.9249H160.677V23.9647H160.717V24.0443H160.757V24.124H160.797V24.2036H160.837V24.2832H160.877V24.4027H159.601V24.3231H159.561V24.2434H159.521V24.1638H159.481V24.0841H159.441V24.0045H159.401V23.9249H159.361V23.885H159.322V23.8054H159.282V23.7258H159.242V23.6461H159.202V23.5665H159.162V23.4868H159.122V23.4072H159.082V23.3275H159.042V23.2479H159.003V23.1683H158.963V23.0886H158.923V23.009H158.883V22.9293H158.843V22.8497H158.803V22.7701H158.763V22.6904H158.723V22.6108H158.683V22.5311H158.644V22.4515H158.604V22.3719H154.337V21.2967H158.006V21.2171H157.966V21.1374H157.926V21.0578H157.886V20.9782H157.846V20.8985H157.806V20.8189H157.766V20.7791H157.726V20.6994H157.687V20.6198H157.647V20.5401H157.607V20.4605H157.567V20.3809H157.527V20.3012H157.487V20.2216H157.447V20.1419H157.407V20.0623H157.368V19.9826H157.328V19.903H157.288V19.8234H157.248V19.7437H157.208V19.6641H157.168V19.5844H157.128V19.5048H157.088V19.4252H157.048V19.3455H157.009V19.3057H156.969V19.2261H156.929V19.1464H156.889V19.0668H156.849V18.9871H156.809V18.9075H156.769V18.8279H156.729V18.7482H156.69V18.6686H156.65V18.5889H156.61V18.5093H156.57V18.4297H156.53V18.35H156.49V18.2704H156.45V18.1907H156.41V18.1111H156.371V18.0315H156.331V17.9518H156.291V17.8722H156.251V17.7925H156.211V17.7527H156.171V17.6731H156.131V17.5934H156.091V17.5138H156.052V17.4342H156.012V17.3545H155.972V17.2749H155.932V17.1952H155.892V17.1156H155.852V17.0359H155.812V16.9563H155.772V16.8767H155.732V16.797H155.693V16.7174H155.653V16.6377H155.613V16.5581H155.573V16.4785H155.533V16.3988H155.493V16.3192H155.453V16.2395H155.413V16.1997H155.374V16.1201H155.334V16.0404H155.294V15.9608H155.254V15.8812H155.214V15.8015H155.174V15.7219H155.134V15.6422H155.094V15.5626H155.055V15.483H155.015V15.4033H154.975V15.3237H154.935V15.244H154.895V15.1644H154.855V15.0848H154.815V15.0051H154.775V14.9255H154.736V14.8458H154.696V14.7662H154.656V14.6866H154.616V14.6467H154.576V14.5671H154.536V14.4875H154.496V14.4078H154.456V14.3282H154.417V14.2485H154.377V14.1689H154.337V14.0892H154.297V14.0096H154.257V13.93H154.217V13.8503H154.177V13.7707H154.137V13.691H154.097V13.6114H154.058V13.5318H154.018V13.4521H153.978V13.3725H153.938V13.2928H153.898V13.2132H153.858V13.1336H153.818V13.0937H153.778V13.0141H153.739V12.9345H153.699V12.8548H153.659V12.7752H153.619V12.6955H153.579V12.6159H153.539V12.5363H153.499V12.4566H153.459V12.4168H152.622V24.4027H151.505ZM163.07 24.4027V11.3018H165.782V11.3815H165.822V11.4611H165.862V11.5408H165.901V11.6204H165.941V11.7H165.981V11.7797H166.021V11.8593H166.061V11.939H166.101V12.0186H166.141V12.0982H166.181V12.1779H166.22V12.2575H166.26V12.3372H166.3V12.4168H166.34V12.4964H166.38V12.5761H166.42V12.6557H166.46V12.7354H166.5V12.7752H166.54V12.8548H166.579V12.9345H166.619V13.0141H166.659V13.0937H166.699V13.1734H166.739V13.253H166.779V13.3327H166.819V13.4123H166.859V13.4919H166.898V13.5716H166.938V13.6512H166.978V13.7309H167.018V13.8105H167.058V13.8901H167.098V13.9698H167.138V14.0494H167.178V14.1291H167.217V14.2087H167.257V14.2884H167.297V14.368H167.337V14.4476H167.377V14.5273H167.417V14.6069H167.457V14.6467H167.497V14.7264H167.536V14.806H167.576V14.8857H167.616V14.9653H167.656V15.0449H167.696V15.1246H167.736V15.2042H167.776V15.2839H167.816V15.3635H167.856V15.4431H167.895V15.5228H167.935V15.6024H167.975V15.6821H168.015V15.7617H168.055V15.8413H168.095V15.921H168.135V16.0006H168.175V16.0803H168.214V16.1599H168.254V16.2395H168.294V16.3192H168.334V16.3988H168.374V16.4785H168.414V16.5581H168.454V16.5979H168.494V16.6776H168.533V16.7572H168.573V16.8368H168.613V16.9165H168.653V16.9961H168.693V17.0758H168.733V17.1554H168.773V17.235H168.813V17.3147H168.852V17.3943H168.892V17.474H168.932V17.5536H168.972V17.6333H169.012V17.7129H169.052V17.7925H169.092V17.8722H169.132V17.9518H169.171V18.0315H169.211V18.1111H169.251V18.1907H169.291V18.2704H169.331V18.35H169.371V18.4297H169.411V18.4695H169.451V18.5491H169.491V18.6288H169.53V18.7084H169.57V18.788H169.61V18.8677H169.65V18.9473H169.69V19.027H169.73V19.1066H169.77V19.1862H169.81V19.2659H169.849V19.3455H169.889V19.4252H169.929V19.5048H169.969V19.5844H170.009V19.6641H170.049V19.7437H170.089V19.8234H170.129V19.903H170.168V19.9826H170.208V20.0623H170.248V20.1419H170.288V20.2216H170.328V20.3012H170.368V20.341H170.408V20.4207H170.448V20.5003H170.487V20.58H170.527V20.6596H170.567V20.7392H170.607V20.8189H170.647V20.8985H170.687V20.9782H170.727V21.0578H170.767V21.1374H170.806V21.2171H170.846V21.2967H170.886V21.3764H170.926V21.456H170.966V21.5356H171.006V21.6153H171.046V21.6949H171.086V21.7746H171.126V21.8542H171.165V21.9338H171.205V22.0135H171.245V22.0931H171.285V22.1728H171.325V22.2126H171.365V22.2922H171.405V22.3719H171.445V22.4515H171.484V22.5311H171.524V22.6108H171.564V22.6904H171.604V22.7701H171.644V22.8497H171.684V22.9293H171.724V23.009H171.764V23.0886H171.803V23.1683H171.843V23.2479H172.8V11.262H173.877V24.4027H171.165V24.3629H171.126V24.2832H171.086V24.2036H171.046V24.124H171.006V24.0443H170.966V23.9647H170.926V23.9249H170.886V23.8452H170.846V23.7656H170.806V23.6859H170.767V23.6063H170.727V23.5267H170.687V23.447H170.647V23.3674H170.607V23.2877H170.567V23.2081H170.527V23.1284H170.487V23.0488H170.448V22.9692H170.408V22.8895H170.368V22.8099H170.328V22.7302H170.288V22.6506H170.248V22.571H170.208V22.4913H170.168V22.4515H170.129V22.3719H170.089V22.2922H170.049V22.2126H170.009V22.1329H169.969V22.0533H169.929V21.9737H169.889V21.894H169.849V21.8144H169.81V21.7347H169.77V21.6551H169.73V21.5755H169.69V21.4958H169.65V21.4162H169.61V21.3365H169.57V21.2569H169.53V21.1773H169.491V21.0976H169.451V21.018H169.411V20.9383H169.371V20.8985H169.331V20.8189H169.291V20.7392H169.251V20.6596H169.211V20.58H169.171V20.5003H169.132V20.4207H169.092V20.341H169.052V20.2614H169.012V20.1817H168.972V20.1021H168.932V20.0225H168.892V19.9428H168.852V19.8632H168.813V19.7835H168.773V19.7039H168.733V19.6243H168.693V19.5446H168.653V19.465H168.613V19.3853H168.573V19.3455H168.533V19.2659H168.494V19.1862H168.454V19.1066H168.414V19.027H168.374V18.9473H168.334V18.8677H168.294V18.788H168.254V18.7084H168.214V18.6288H168.175V18.5491H168.135V18.4695H168.095V18.3898H168.055V18.3102H168.015V18.2306H167.975V18.1509H167.935V18.0713H167.895V17.9916H167.856V17.912H167.816V17.8324H167.776V17.7925H167.736V17.7129H167.696V17.6333H167.656V17.5536H167.616V17.474H167.576V17.3943H167.536V17.3147H167.497V17.235H167.457V17.1554H167.417V17.0758H167.377V16.9961H167.337V16.9165H167.297V16.8368H167.257V16.7572H167.217V16.6776H167.178V16.5979H167.138V16.5183H167.098V16.4386H167.058V16.359H167.018V16.2794H166.978V16.2395H166.938V16.1599H166.898V16.0803H166.859V16.0006H166.819V15.921H166.779V15.8413H166.739V15.7617H166.699V15.6821H166.659V15.6024H166.619V15.5228H166.579V15.4431H166.54V15.3635H166.5V15.2839H166.46V15.2042H166.42V15.1246H166.38V15.0449H166.34V14.9653H166.3V14.8857H166.26V14.806H166.22V14.7662H166.181V14.6866H166.141V14.6069H166.101V14.5273H166.061V14.4476H166.021V14.368H165.981V14.2884H165.941V14.2087H165.901V14.1291H165.862V14.0494H165.822V13.9698H165.782V13.8901H165.742V13.8105H165.702V13.7309H165.662V13.6512H165.622V13.5716H165.582V13.4919H165.543V13.4123H165.503V13.3327H165.463V13.253H165.423V13.2132H165.383V13.1336H165.343V13.0539H165.303V12.9743H165.263V12.8946H165.224V12.815H165.184V12.7354H165.144V12.6557H165.104V12.5761H165.064V12.4964H165.024V12.4168H164.147V24.4027H163.07ZM176.788 24.4027V11.3018H182.411V11.3417H182.81V11.3815H183.089V11.4213H183.249V11.4611H183.448V11.5009H183.607V11.5408H183.727V11.5806H183.887V11.6204H184.006V11.6602H184.086V11.7H184.206V11.7399H184.285V11.7797H184.405V11.8195H184.485V11.8593H184.565V11.8991H184.644V11.939H184.724V11.9788H184.764V12.0186H184.844V12.0584H184.923V12.0982H184.963V12.1381H185.043V12.1779H185.123V12.2177H185.163V12.2575H185.203V12.2973H185.282V12.3372H185.322V12.377H185.362V12.4168H185.442V12.4566H185.482V12.4964H185.522V12.5363H185.561V12.5761H185.601V12.6159H185.641V12.6557H185.681V12.6955H185.761V12.7354H185.801V12.7752H185.841V12.815H185.881V12.8548H185.92V12.8946H185.96V12.9345H186V13.0141H186.04V13.0539H186.08V13.0937H186.12V13.1336H186.16V13.1734H186.2V13.2132H186.239V13.2928H186.279V13.3327H186.319V13.3725H186.359V13.4521H186.399V13.4919H186.439V13.5716H186.479V13.6114H186.519V13.6512H186.558V13.7309H186.598V13.7707H186.638V13.8503H186.678V13.93H186.718V13.9698H186.758V14.0494H186.798V14.1291H186.838V14.2087H186.877V14.2884H186.917V14.3282H186.957V14.4078H186.997V14.4875H187.037V14.6069H187.077V14.6866H187.117V14.7662H187.157V14.8458H187.196V14.9255H187.236V15.0449H187.276V15.1246H187.316V15.244H187.356V15.3635H187.396V15.483H187.436V15.6422H187.476V15.7617H187.516V15.9608H187.555V16.1599H187.595V16.359H187.635V16.5979H187.675V16.9563H187.715V18.788H187.675V19.1066H187.635V19.3853H187.595V19.5844H187.555V19.7437H187.516V19.903H187.476V20.0623H187.436V20.2216H187.396V20.3809H187.356V20.5003H187.316V20.58H187.276V20.6596H187.236V20.7791H187.196V20.8587H187.157V20.9782H187.117V21.0578H187.077V21.1773H187.037V21.2569H186.997V21.3365H186.957V21.3764H186.917V21.456H186.877V21.5356H186.838V21.5755H186.798V21.6551H186.758V21.7347H186.718V21.8144H186.678V21.8542H186.638V21.894H186.598V21.9338H186.558V22.0135H186.519V22.0533H186.479V22.0931H186.439V22.1728H186.399V22.2126H186.359V22.2524H186.319V22.2922H186.279V22.332H186.239V22.3719H186.2V22.4515H186.16V22.4913H186.12V22.5311H186.08V22.571H186.04V22.6108H186V22.6506H185.96V22.6904H185.92V22.7302H185.881V22.7701H185.841V22.8099H185.801V22.8497H185.761V22.8895H185.721V22.9293H185.681V22.9692H185.641V23.009H185.561V23.0488H185.522V23.0886H185.482V23.1284H185.442V23.1683H185.362V23.2081H185.322V23.2479H185.282V23.2877H185.203V23.3275H185.163V23.3674H185.123V23.4072H185.043V23.447H184.963V23.4868H184.923V23.5267H184.844V23.5665H184.764V23.6063H184.724V23.6461H184.644V23.6859H184.565V23.7258H184.485V23.7656H184.405V23.8054H184.325V23.8452H184.206V23.885H184.126V23.9249H184.006V23.9647H183.926V24.0045H183.807V24.0443H183.687V24.0841H183.528V24.124H183.368V24.1638H183.209V24.2036H183.049V24.2434H182.81V24.2832H182.531V24.3231H182.252V24.3629H181.733V24.4027H176.788ZM115.814 23.6461V23.6859H116.492V23.6461H116.891V23.6063H117.13V23.5665H117.37V23.5267H117.529V23.4868H117.689V23.447H117.848V23.4072H117.928V23.3674H118.047V23.3275H118.167V23.2877H118.287V23.2479H118.367V23.2081H118.486V23.1683H118.566V23.1284H118.646V23.0886H118.725V23.0488H118.805V23.009H118.885V22.9692H118.965V22.9293H119.005V22.8895H119.084V22.8497H119.164V22.8099H119.204V22.7701H119.284V22.7302H119.363V22.6904H119.403V22.6506H119.443V22.6108H119.523V22.571H119.563V22.5311H119.603V22.4913H119.683V22.4515H119.722V22.4117H119.762V22.3719H119.842V22.332H119.882V22.2922H119.922V22.2524H119.962V22.2126H120.002V22.1728H120.041V22.1329H120.081V22.0931H120.121V22.0533H120.201V22.0135H120.241V21.9737H120.281V21.9338H120.321V21.8542H120.36V21.8144H120.4V21.7746H120.44V21.7347H120.48V21.6949H120.52V21.6551H120.56V21.6153H120.6V21.5755H120.64V21.4958H120.679V21.456H120.719V21.4162H120.759V21.3365H120.799V21.2967H120.839V21.2569H120.879V21.1773H120.919V21.1374H120.959V21.0976H120.998V21.018H121.038V20.9383H121.078V20.8985H121.118V20.8189H121.158V20.7392H121.198V20.6994H121.238V20.6198H121.278V20.5401H121.318V20.4605H121.357V20.3809H121.397V20.3012H121.437V20.2216H121.477V20.1419H121.517V20.0225H121.557V19.903H121.597V19.7835H121.637V19.7039H121.676V19.5844H121.716V19.4252H121.756V19.2659H121.796V19.1066H121.836V18.9075H121.876V18.6288H121.916V18.2704H121.956V17.474H121.916V17.1156H121.876V16.8767H121.836V16.6776H121.796V16.5183H121.756V16.359H121.716V16.1997H121.676V16.0803H121.637V15.9608H121.597V15.8812H121.557V15.7617H121.517V15.6422H121.477V15.5626H121.437V15.483H121.397V15.4033H121.357V15.3237H121.318V15.244H121.278V15.1644H121.238V15.0848H121.198V15.0051H121.158V14.9653H121.118V14.8857H121.078V14.806H121.038V14.7662H120.998V14.6866H120.959V14.6467H120.919V14.5671H120.879V14.5273H120.839V14.4875H120.799V14.4078H120.759V14.368H120.719V14.3282H120.679V14.2485H120.64V14.2087H120.6V14.1689H120.56V14.1291H120.52V14.0892H120.48V14.0494H120.44V13.9698H120.4V13.93H120.36V13.8901H120.321V13.8503H120.281V13.8105H120.241V13.7707H120.201V13.7309H120.161V13.691H120.121V13.6512H120.081V13.6114H120.002V13.5716H119.962V13.5318H119.922V13.4919H119.882V13.4521H119.842V13.4123H119.802V13.3725H119.722V13.3327H119.683V13.2928H119.643V13.253H119.563V13.2132H119.523V13.1734H119.483V13.1336H119.403V13.0937H119.363V13.0539H119.284V13.0141H119.244V12.9743H119.164V12.9345H119.084V12.8946H119.044V12.8548H118.965V12.815H118.885V12.7752H118.805V12.7354H118.725V12.6955H118.646V12.6557H118.566V12.6159H118.486V12.5761H118.406V12.5363H118.287V12.4964H118.207V12.4566H118.087V12.4168H117.968V12.377H117.848V12.3372H117.728V12.2973H117.569V12.2575H117.409V12.2177H117.21V12.1779H116.971V12.1381H116.652V12.0982H115.655V12.1381H115.336V12.1779H115.097V12.2177H114.897V12.2575H114.738V12.2973H114.578V12.3372H114.419V12.377H114.339V12.4168H114.219V12.4566H114.1V12.4964H114.02V12.5363H113.9V12.5761H113.82V12.6159H113.741V12.6557H113.661V12.6955H113.581V12.7354H113.501V12.7752H113.382V12.815H113.342V12.8548H113.262V12.8946H113.222V12.9345H113.142V12.9743H113.063V13.0141H113.023V13.0539H112.943V13.0937H112.903V13.1336H112.823V13.1734H112.784V13.2132H112.744V13.253H112.664V13.2928H112.624V13.3327H112.544V13.3725H112.504V13.4123H112.465V13.4521H112.425V13.4919H112.385V13.5318H112.345V13.5716H112.265V13.6114H112.225V13.6512H112.185V13.691H112.146V13.7309H112.106V13.7707H112.066V13.8105H112.026V13.8503H111.986V13.8901H111.946V13.93H111.906V13.9698H111.866V14.0096H111.826V14.0892H111.787V14.1291H111.747V14.1689H111.707V14.2087H111.667V14.2485H111.627V14.3282H111.587V14.368H111.547V14.4078H111.507V14.4875H111.468V14.5273H111.428V14.5671H111.388V14.6467H111.348V14.6866H111.308V14.7662H111.268V14.806H111.228V14.8857H111.188V14.9653H111.149V15.0051H111.109V15.0848H111.069V15.1644H111.029V15.244H110.989V15.3237H110.949V15.4033H110.909V15.483H110.869V15.5626H110.83V15.6422H110.79V15.7617H110.75V15.8413H110.71V15.9608H110.67V16.0803H110.63V16.1997H110.59V16.359H110.55V16.4785H110.51V16.6377H110.471V16.8368H110.431V17.1156H110.391V17.4342H110.351V18.35H110.391V18.6686H110.431V18.9075H110.471V19.1066H110.51V19.2659H110.55V19.4252H110.59V19.5844H110.63V19.7039H110.67V19.8234H110.71V19.903H110.75V20.0225H110.79V20.1419H110.83V20.2216H110.869V20.3012H110.909V20.3809H110.949V20.4605H110.989V20.5401H111.029V20.6198H111.069V20.6994H111.109V20.7791H111.149V20.8189H111.188V20.8985H111.228V20.9383H111.268V21.018H111.308V21.0976H111.348V21.1374H111.388V21.2171H111.428V21.2569H111.468V21.2967H111.507V21.3764H111.547V21.4162H111.587V21.456H111.627V21.5356H111.667V21.5755H111.707V21.6153H111.747V21.6551H111.787V21.6949H111.826V21.7347H111.866V21.7746H111.906V21.8144H111.946V21.894H111.986V21.9338H112.026V21.9737H112.066V22.0135H112.106V22.0533H112.146V22.0931H112.225V22.1329H112.265V22.1728H112.305V22.2126H112.345V22.2524H112.385V22.2922H112.425V22.332H112.465V22.3719H112.544V22.4117H112.584V22.4515H112.624V22.4913H112.704V22.5311H112.744V22.571H112.784V22.6108H112.863V22.6506H112.903V22.6904H112.943V22.7302H113.023V22.7701H113.103V22.8099H113.142V22.8497H113.222V22.8895H113.302V22.9293H113.342V22.9692H113.422V23.009H113.501V23.0488H113.581V23.0886H113.661V23.1284H113.741V23.1683H113.82V23.2081H113.94V23.2479H114.02V23.2877H114.139V23.3275H114.259V23.3674H114.339V23.4072H114.458V23.447H114.618V23.4868H114.777V23.5267H114.937V23.5665H115.176V23.6063H115.416V23.6461H115.814ZM177.785 23.3674V23.4072H181.494V23.3674H182.092V23.3275H182.371V23.2877H182.69V23.2479H182.85V23.2081H183.049V23.1683H183.209V23.1284H183.368V23.0886H183.488V23.0488H183.568V23.009H183.687V22.9692H183.767V22.9293H183.887V22.8895H183.966V22.8497H184.046V22.8099H184.126V22.7701H184.206V22.7302H184.245V22.6904H184.325V22.6506H184.405V22.6108H184.485V22.571H184.525V22.5311H184.565V22.4913H184.644V22.4515H184.684V22.4117H184.724V22.3719H184.804V22.332H184.844V22.2922H184.884V22.2524H184.923V22.2126H185.003V22.1728H185.043V22.1329H185.083V22.0931H185.123V22.0533H185.163V22.0135H185.203V21.9737H185.242V21.9338H185.282V21.894H185.322V21.8542H185.362V21.8144H185.402V21.7347H185.442V21.6949H185.482V21.6551H185.522V21.6153H185.561V21.5755H185.601V21.4958H185.641V21.456H185.681V21.4162H185.721V21.3764H185.761V21.2967H185.801V21.2569H185.841V21.2171H185.881V21.1374H185.92V21.0578H185.96V21.018H186V20.9383H186.04V20.8587H186.08V20.7791H186.12V20.6994H186.16V20.6198H186.2V20.5003H186.239V20.4207H186.279V20.3012H186.319V20.2216H186.359V20.1021H186.399V20.0225H186.439V19.8632H186.479V19.7039H186.519V19.5446H186.558V19.3853H186.598V19.1862H186.638V18.8677H186.678V18.5491H186.718V17.1952H186.678V16.797H186.638V16.5581H186.598V16.359H186.558V16.1201H186.519V16.0006H186.479V15.8413H186.439V15.7219H186.399V15.6024H186.359V15.483H186.319V15.4033H186.279V15.2839H186.239V15.2042H186.2V15.1246H186.16V15.0449H186.12V14.9653H186.08V14.8857H186.04V14.806H186V14.7264H185.96V14.6467H185.92V14.5671H185.881V14.5273H185.841V14.4476H185.801V14.368H185.761V14.3282H185.721V14.2485H185.681V14.2087H185.641V14.1291H185.601V14.0892H185.561V14.0096H185.522V13.9698H185.482V13.93H185.442V13.8901H185.402V13.8105H185.362V13.7707H185.322V13.7309H185.282V13.691H185.242V13.6512H185.203V13.6114H185.163V13.5716H185.123V13.5318H185.083V13.4919H185.043V13.4521H185.003V13.4123H184.963V13.3725H184.923V13.3327H184.884V13.2928H184.844V13.253H184.764V13.2132H184.724V13.1734H184.684V13.1336H184.644V13.0937H184.565V13.0539H184.525V13.0141H184.445V12.9743H184.405V12.9345H184.325V12.8946H184.245V12.8548H184.166V12.815H184.086V12.7752H184.006V12.7354H183.926V12.6955H183.847V12.6557H183.727V12.6159H183.647V12.5761H183.528V12.5363H183.408V12.4964H183.249V12.4566H183.089V12.4168H182.89V12.377H182.61V12.3372H182.252V12.2973H177.785V23.3674ZM33.0668 21.3764V21.3365H32.9871V21.2569H32.9472V10.824H32.9871V10.7842H33.0269V10.7443H33.3061V10.7842H33.346V10.824H33.3858V10.8638H33.4257V10.9036H33.5055V10.9434H33.5454V10.9833H33.5852V11.0231H33.6251V11.0629H33.665V11.1027H33.7049V11.1425H33.7447V11.1824H33.7846V11.2222H33.8245V11.262H33.8644V11.3018H33.9043V11.3417H33.9441V11.3815H33.984V11.4213H34.0638V11.4611H34.1037V11.5009H34.1435V11.5408H34.1834V11.5806H34.2233V11.6204H34.2632V11.6602H34.303V11.7H34.3429V11.7399H34.3828V11.7797H34.4227V11.8195H34.4626V11.8593H34.5024V11.8991H34.5822V11.939H34.6221V11.9788H34.6619V12.0186H34.7018V12.0584H34.7417V12.0982H34.7816V12.1381H34.8215V12.1779H34.8613V12.2177H34.9012V12.2575H34.9411V12.2973H34.981V12.3372H35.0209V12.377H35.0607V12.4168H35.1405V12.4566H35.1804V12.4964H35.2202V12.5363H35.2601V12.5761H35.3V12.6159H35.3399V12.6557H35.3798V12.6955H35.4196V12.7354H35.4595V12.7752H35.4994V12.815H35.5393V12.8548H35.5792V12.8946H35.619V12.9345H35.6988V12.9743H35.7387V13.0141H35.7785V13.0539H35.8184V13.0937H35.8583V13.1336H35.8982V13.1734H35.9381V13.2132H35.9779V13.253H36.0178V13.2928H36.0577V13.3327H36.0976V13.4123H36.1374V13.4521H36.1773V13.5318H36.2172V13.6114H36.2571V13.7707H36.297V21.2967H36.2571V21.3365H36.2172V21.3764H33.0668ZM26.8458 20.1419V20.1021H26.8059V20.0623H26.766V20.0225H26.7262V15.7219H26.766V15.6821H26.8059V15.6422H31.1128V15.6821H31.1527V15.7219H31.1925V16.0006H31.2324V19.9826H31.1925V20.0623H31.1527V20.1021H31.0729V20.1419H26.8458ZM21.6616 13.691V11.0231H21.7015V10.9434H21.7414V10.9036H21.7813V10.8638H21.8211V10.824H21.9009V10.7842H21.9806V10.7443H29.9164V10.7842H30.0759V10.824H30.1956V10.8638H30.2355V10.9036H30.3152V10.9434H30.3551V10.9833H30.4348V11.0231H30.4747V11.0629H30.5146V11.1027H30.5545V11.1824H30.5944V11.2222H30.6342V11.262H30.6741V11.3018H30.714V11.3417H30.7539V11.4213H30.7938V11.4611H30.8336V11.5009H30.8735V11.5408H30.9134V11.5806H30.9533V11.6602H30.9931V11.7H31.033V11.7399H31.0729V11.7797H31.1128V11.8195H31.1527V11.8991H31.1925V11.939H31.2324V11.9788H31.2723V12.0186H31.3122V12.0584H31.3521V12.1381H31.3919V12.1779H31.4318V12.2177H31.4717V12.2575H31.5116V12.2973H31.5514V12.377H31.5913V12.4168H31.6312V12.4566H31.6711V12.4964H31.711V12.5363H31.7508V12.6159H31.7907V12.6557H31.8306V12.6955H31.8705V12.7354H31.9103V12.7752H31.9502V12.8548H31.9901V12.8946H32.03V12.9345H32.0699V12.9743H32.1097V13.0141H32.1496V13.0937H32.1895V13.1336H32.2294V13.1734H32.2693V13.2132H32.3091V13.253H32.349V13.3725H32.3889V13.5318H32.349V13.6114H32.3091V13.6512H32.2693V13.691" fill="url(#paint0_linear_6611_96052)"/>
</g>
</g>
<path d="M12.9014 8.7105L16.9467 3.83106C17.3464 3.34896 17.9386 3.07011 18.5631 3.07011H35.6307C36.1809 3.07011 36.627 3.51834 36.627 4.07123V9.62038H13.3256C12.8575 9.62038 12.6018 9.07188 12.9014 8.7105ZM27.7337 29.3597L23.6884 34.2391C23.2887 34.7212 22.6965 35 22.0721 35H5.00441C4.4542 35 4.00814 34.5518 4.00814 33.999V28.4498H27.3095C27.7775 28.4498 28.0332 28.9983 27.7337 29.3597ZM15.8323 14.0227L24.874 14.036C25.1251 14.0364 25.3283 14.2412 25.3279 14.4935L25.3147 23.5792C25.3143 23.8315 25.1105 24.0357 24.8594 24.0354L15.8177 24.022C15.5666 24.0216 15.3634 23.8169 15.3637 23.5645L15.377 14.4789C15.3773 14.2266 15.5812 14.0223 15.8323 14.0227ZM4.70553 8.67822L10.6468 3.14146C10.9276 2.84576 11.4236 3.04583 11.423 3.4545L11.4173 26.3941C11.417 26.644 11.215 26.8463 10.9663 26.8459L4.45372 26.8364C4.20501 26.836 4.00369 26.6331 4.004 26.3832L3.99987 10.3035C3.99971 9.68669 4.25542 9.09769 4.70553 8.67822ZM29.6606 11.1544L36.1731 11.164C36.4218 11.1644 36.6232 11.3673 36.6228 11.6172L36.627 27.6969C36.6271 28.3137 36.3714 28.9027 35.9213 29.3221L29.98 34.8589C29.6993 35.1546 29.2032 34.9545 29.2038 34.546L29.2095 11.6063C29.2099 11.3564 29.4118 11.1541 29.6606 11.1544Z" fill="#3DBB91"/>
<defs>
<linearGradient id="paint0_linear_6611_96052" x1="107.885" y1="43.0441" x2="103.105" y2="7.70357" gradientUnits="userSpaceOnUse">
<stop stop-color="#1F3446"/>
<stop offset="0.570997" stop-color="#26785D"/>
<stop offset="1" stop-color="#53BD85"/>
</linearGradient>
</defs>
</svg>
