<svg width="33" height="33" viewBox="0 0 33 33" fill="none" xmlns="http://www.w3.org/2000/svg">
<circle cx="16.6072" cy="16.1218" r="15.9988" fill="#0090FF"/>
<path d="M17.818 14.2634L17.3349 16.8028L21.9243 17.4377L21.6022 18.6281L17.0933 17.9932C16.7713 19.0249 16.6102 20.1359 16.2076 21.0882C15.8051 22.1992 15.4025 23.3102 14.9194 24.3418C14.2753 25.6909 13.148 26.6432 11.6182 26.8813C10.7325 27.04 9.76634 26.9606 9.04169 26.4051C8.80014 26.2464 8.55859 25.929 8.55859 25.6909C8.55859 25.3735 8.71963 24.9767 8.96118 24.818C9.12221 24.7386 9.52479 24.818 9.76634 24.8973C10.0079 25.1354 10.2494 25.4528 10.4105 25.7703C10.8936 26.4051 11.5377 26.4845 12.1818 26.0083C12.9065 25.3735 13.3091 24.5005 13.5506 23.6276C14.0337 21.723 14.5168 19.8978 14.9194 17.9932V17.6758L10.652 17.0409L10.8131 15.8506L15.2415 16.4854L15.8051 14.0253L11.2156 13.3111L11.3767 12.0414L16.1271 12.6762C16.2882 12.2001 16.3687 11.8033 16.5297 11.4065C16.9323 9.97808 17.3349 8.54964 18.3011 7.27992C19.2673 6.0102 20.3945 5.21662 22.0853 5.29598C22.81 5.29598 23.5346 5.53405 24.0177 6.08955C24.0982 6.16891 24.2593 6.32763 24.2593 6.48634C24.2593 6.80377 24.2593 7.20056 24.0177 7.43863C23.6957 7.67671 23.2931 7.59735 22.971 7.27992C22.7295 7.04185 22.5684 6.80377 22.3269 6.5657C21.8438 5.93084 21.1191 5.85148 20.5555 6.40698C20.1529 6.80377 19.7504 7.35928 19.5088 7.91478C18.9452 9.58129 18.5426 11.3272 17.979 13.073L22.4074 13.7079L22.0853 14.8983L17.818 14.2634Z" fill="white"/>
</svg>
