<svg width="237" height="96" viewBox="0 0 237 96" fill="none" xmlns="http://www.w3.org/2000/svg">
<path fill-rule="evenodd" clip-rule="evenodd" d="M107.042 20.4872C107.886 20.4872 110.66 19.7328 111.716 19.2199C113.555 18.2846 116.48 15.8104 122.812 9.83625C126.008 6.84916 129.295 3.86209 130.109 3.19829C131.858 1.81035 134.752 0.392241 136.381 0.181033L137.496 0V20.3665L135.627 20.7587C132.34 21.4225 130.863 22.5389 121.696 31.1682C113.676 38.6812 111.625 40.1295 108.248 40.6726L106.74 40.914V20.4268L105.474 20.638C102.218 21.1208 98.8103 23.6251 91.3626 30.8967C84.2767 37.8364 80.8393 40.2804 77.613 40.6424L76.2863 40.7933V20.5173L77.4321 20.3363C81.4725 19.6423 83.5832 18.1639 91.6641 10.3794C99.4737 2.86639 102.157 0.874999 105.233 0.331893L106.59 0.0905163L106.68 10.2888C106.71 16.3837 106.861 20.4872 107.042 20.4872ZM152.904 17.9527C158.241 19.6423 161.769 25.6165 160.744 31.1984C159.689 36.8105 154.924 40.7329 149.105 40.7329C143.889 40.7329 139.758 37.7459 138.099 32.707C135.084 23.6251 143.677 15.0561 152.904 17.9527ZM12.5737 65.746C13.675 68.4306 14.6971 70.9101 15.4787 72.8065L15.4791 72.8073C16.3664 74.96 16.9439 76.361 16.976 76.4572C17.0363 76.6081 17.187 76.6684 17.3076 76.5779C17.4282 76.4874 19.4485 71.6598 21.8004 65.8667L26.1122 55.3365L34.374 55.1554V87.1987L27.8912 87.0176L27.5897 66.5606L23.5492 76.6986L19.4786 86.8668H14.9256L6.78435 66.4098L6.48282 87.0176L0 87.1987V55.1554L8.29199 55.3365L12.5737 65.746ZM153.779 55.1856V84.453L161.407 84.5133L169.006 84.6038V87.0176L160.05 87.1082L151.065 87.1685V55.1856H153.779ZM199.068 61.552L199.158 67.8882L200.244 66.2891C200.998 65.1425 201.752 64.4486 202.958 63.8451C204.435 63.0606 204.797 62.9701 206.998 63.0908C209.772 63.2417 211.34 63.9055 213.029 65.6555C218.034 70.815 217.401 82.1297 211.883 85.9012C207.812 88.6771 202.747 87.953 200.244 84.2116L199.158 82.6124L198.978 87.1685H196.294V71.3883C196.294 62.6986 196.384 55.4873 196.505 55.3968C196.595 55.2761 197.198 55.1856 197.832 55.1856H199.008L199.068 61.552ZM92.8702 57.5994V63.3322H97.3931V68.1598H92.8702V74.4357C92.8702 81.828 92.9305 82.0392 95.2523 82.0392H96.7298L97.2122 84.1814C97.4836 85.3581 97.6947 86.4444 97.6947 86.5952C97.6947 86.9875 95.5538 87.4702 93.7145 87.4702C90.2168 87.4702 87.292 85.6297 86.5683 83.0349C86.3874 82.4012 86.2366 78.871 86.2366 75.009V68.1598H82.9199V63.3322H86.2366V57.5994H92.8702ZM75.6832 63.5132C78.7889 64.4486 81.2313 66.8322 81.4725 69.2158L81.563 70.121L78.6985 70.2719C77.1305 70.3624 75.7737 70.302 75.7435 70.1814C75.6832 70.0607 75.2912 69.5477 74.8691 69.065C72.9695 66.7718 67.9641 67.5563 68.2053 70.0908C68.3561 71.4184 69.4114 71.9917 73.7534 72.9572C78.1557 73.9529 79.7538 74.6167 80.8996 75.9745C83.0405 78.509 82.5279 82.6426 79.8443 84.9056C77.8542 86.5952 75.8038 87.2892 72.487 87.4099C67.8435 87.5909 64.6172 86.565 62.6573 84.1814C61.813 83.1857 60.6973 80.621 60.9989 80.3495C61.0893 80.259 62.5969 80.1081 64.3157 80.0176L67.4515 79.8366L67.6626 80.6512C67.9641 81.8883 69.4718 82.6426 71.6126 82.6426C74.0851 82.6426 75.3817 81.8581 75.3817 80.3797C75.3817 78.9314 74.5977 78.509 70.3462 77.6038C64.1649 76.3064 61.9637 74.6771 61.6019 71.0865C61.2099 67.4055 63.6824 64.3279 67.7531 63.3624C69.6828 62.9098 73.9344 63.0003 75.6832 63.5132ZM113.887 63.483C117.113 64.4486 119.797 67.1339 120.761 70.3624C121.003 71.2072 121.304 73.0477 121.425 74.4055L121.606 76.9098H105.142L105.353 78.1771C105.655 79.9874 106.56 81.2849 108.067 82.009C110.359 83.1254 113.284 82.5823 114.701 80.7719L115.424 79.8366L118.319 80.0779C120.068 80.1986 121.214 80.4098 121.214 80.621C121.214 81.4961 119.797 83.6685 118.44 84.9056C116.269 86.8366 113.766 87.5909 109.816 87.4099C106.379 87.259 104.298 86.4745 102.127 84.4831C97.0012 79.746 97.7248 68.9443 103.394 65.0218C106.137 63.121 110.51 62.4873 113.887 63.483ZM141.295 63.7546C143.286 64.6899 144.823 66.5305 145.457 68.7331C145.848 70.121 145.939 72.0219 145.939 78.8107V87.1685H139.305V79.5348C139.305 72.6555 139.245 71.8107 138.702 70.6339C137.979 69.065 136.531 68.3107 134.571 68.552C132.853 68.7331 131.827 69.4572 131.134 70.9658C130.621 72.1124 130.561 73.0176 130.561 79.6857V87.1685H123.927V63.3322H130.26V67.677L131.134 66.3193C132.008 64.9313 133.486 63.7848 135.024 63.3322C136.742 62.8192 139.697 63.0003 141.295 63.7546ZM185.017 63.483C186.916 64.0262 188.816 65.6555 189.54 67.315C190.052 68.4615 190.113 69.6684 190.203 77.9055L190.294 87.1987L187.399 87.0176L187.218 83.4874L186.313 84.6943C183.479 88.5866 176.182 88.5564 173.378 84.6943C171.448 82.0392 171.599 78.3883 173.679 76.3064C175.127 74.8581 177.569 74.0434 182.243 73.4098C186.886 72.8064 187.248 72.565 187.248 70.4529C187.248 67.6469 185.499 65.8063 182.544 65.5348C179.861 65.2934 178.323 65.8365 176.574 67.6167L175.127 69.1253L173.951 68.7632L173.864 68.7343L173.827 68.7219C173.204 68.5148 172.916 68.419 172.851 68.2416C172.796 68.0887 172.906 67.8753 173.113 67.4777L173.151 67.4049L173.179 67.3493L173.197 67.315C175.006 63.9055 180.464 62.1253 185.017 63.483ZM232.96 63.8753C234.799 64.8106 237.121 67.8581 236.487 68.4615C236.035 68.9141 233.985 69.1555 233.985 68.7632C233.985 68.0391 232.688 66.621 231.482 66.0175C230.487 65.4744 229.884 65.3839 228.226 65.5046C224.939 65.746 223.25 67.1943 223.311 69.7288C223.371 71.9917 224.848 72.8667 230.909 74.3452C235.01 75.3409 237 77.3926 237 80.6814C237 83.0047 236.156 84.5737 234.166 85.8711C232.356 87.1082 230.758 87.5607 228.195 87.5306C224.306 87.5306 221.562 85.9918 220.235 83.0952L220.175 82.9678C219.833 82.2457 219.657 81.8747 219.768 81.6379C219.885 81.3877 220.322 81.2872 221.22 81.0806L221.308 81.0603L221.381 81.0435C222.074 80.8624 222.225 80.9831 222.798 82.1297C223.13 82.8236 223.914 83.7288 224.547 84.1512C225.512 84.815 225.964 84.9056 228.226 84.9056C231.211 84.9056 232.447 84.3926 233.623 82.6124C234.166 81.828 234.316 81.315 234.196 80.44C233.924 78.3279 232.749 77.5435 227.894 76.2762C226.115 75.8236 224.276 75.2202 223.763 74.9788C219.813 72.927 219.27 67.7374 222.708 64.9011C224.487 63.4227 225.904 63.0305 229.01 63.121C231.06 63.2115 232.025 63.3624 232.96 63.8753ZM45.621 72.1727C46.9779 76.94 48.1538 80.7417 48.2443 80.621C48.3649 80.4702 49.5107 76.5478 50.8374 71.8408L53.2195 63.3322H60.3054L59.9737 64.1468C59.9253 64.2823 59.6752 64.9923 59.2772 66.1223L59.2694 66.1446C58.4252 68.5413 56.9236 72.8047 55.2698 77.4831C52.8576 84.3926 50.6263 90.578 50.2947 91.2418C48.9679 93.8668 46.7065 95.4961 43.7515 95.9185C42.0328 96.1599 38.6859 95.828 38.2939 95.4056C38.1733 95.2849 38.3542 94.1384 38.7462 92.9013L39.4095 90.6383L41.0981 90.7289C42.6057 90.8495 42.8771 90.759 43.5405 90.0349C44.8672 88.6168 44.8069 88.0737 42.5454 81.5866C41.3996 78.2676 39.5 72.8064 38.324 69.427L36.1832 63.302L43.2088 63.483L45.621 72.1727ZM199.731 70.7849C200.425 68.6426 202.294 66.5004 203.983 65.8667C206.666 64.9012 209.832 65.8366 211.581 68.1297C212.938 69.8797 213.481 71.9616 213.481 75.2504C213.481 81.1039 211.189 84.5435 206.998 84.966C203.711 85.2979 200.877 83.2763 199.731 79.7159C198.977 77.3323 198.977 73.1383 199.731 70.7849ZM186.042 75.1296C185.62 75.3106 183.931 75.6425 182.273 75.8537C176.634 76.6684 174.886 77.7546 174.886 80.4701C174.886 83.4572 177.177 85.2374 180.765 84.996C183.389 84.8452 185.258 83.6684 186.404 81.4658C187.128 80.0779 187.248 79.5046 187.248 77.3322C187.248 75.9443 187.158 74.7977 187.037 74.8279C186.886 74.8279 186.464 74.9787 186.042 75.1296ZM107.947 68.5219C106.59 69.2762 105.746 70.3624 105.384 71.8408L105.173 72.6857H115.274L115.063 71.69C114.671 69.6684 113.012 68.2201 110.811 67.9788C109.575 67.8279 109.062 67.9486 107.947 68.5219Z" fill="black"/>
</svg>
