<svg width="308" height="70" viewBox="0 0 308 70" fill="none" xmlns="http://www.w3.org/2000/svg">
<path d="M120.557 22.9053C122.491 24.167 124.048 25.9292 125.065 28.0055C126.288 30.391 126.888 33.048 126.81 35.7287C126.879 38.3799 126.226 40.9998 124.919 43.3062C123.796 45.4256 122.007 47.1155 119.83 48.115C117.454 49.1907 114.874 49.7376 112.268 49.7179C110.723 49.7256 109.191 49.4285 107.76 48.8436C106.338 48.4419 105.038 47.6906 103.979 46.6578V61.2298H95.5449V21.7396H102.816V24.9454C105.719 22.5099 109.356 21.1241 113.14 21.011C115.755 20.7861 118.369 21.4537 120.557 22.9053ZM116.34 40.9747C117.073 40.3202 117.649 39.5089 118.027 38.6008C118.404 37.6927 118.573 36.7111 118.521 35.7287C118.541 34.707 118.358 33.6915 117.984 32.741C117.61 31.7904 117.051 30.9238 116.34 30.1913C115.711 29.5141 114.944 28.9811 114.09 28.629C113.237 28.2768 112.318 28.1139 111.395 28.1513C109.691 28.2435 108.083 28.9712 106.887 30.1913C105.658 30.8139 104.682 31.8437 104.125 33.1058V39.5175C104.552 40.7616 105.368 41.8347 106.451 42.5776C107.654 43.3983 109.068 43.8537 110.523 43.8891C111.644 43.8478 112.743 43.5664 113.746 43.0636C114.75 42.5609 115.634 41.8486 116.34 40.9747Z" fill="#1D1D1B"/>
<path d="M131.754 28.1514C133.078 26.0145 134.932 24.2574 137.135 23.0512C139.699 21.7446 142.547 21.0938 145.423 21.1568C148.161 21.0915 150.868 21.7445 153.276 23.0512C155.443 24.3179 157.247 26.1252 158.511 28.2971C159.811 30.4465 160.467 32.925 160.401 35.4374C160.47 37.9963 159.815 40.5224 158.511 42.7234C157.304 44.9021 155.483 46.6761 153.276 47.8237C150.85 49.083 148.155 49.7331 145.423 49.718C142.723 49.739 140.048 49.1929 137.571 48.1151C135.362 46.9835 133.502 45.2708 132.19 43.1606C130.934 40.7818 130.285 38.1286 130.3 35.4374C130.148 32.9236 130.649 30.4133 131.754 28.1514ZM140.334 40.8291C140.932 41.4642 141.653 41.9701 142.453 42.3159C143.253 42.6617 144.116 42.8401 144.987 42.8401C145.859 42.8401 146.721 42.6617 147.521 42.3159C148.321 41.9701 149.042 41.4642 149.64 40.8291C150.835 39.2925 151.453 37.3841 151.385 35.4374C151.484 33.5309 150.861 31.6574 149.64 30.1915C149.117 29.5772 148.472 29.0786 147.746 28.7274C147.02 28.3762 146.229 28.18 145.423 28.1514C144.452 28.0469 143.469 28.1776 142.558 28.5326C141.647 28.8876 140.834 29.4565 140.188 30.1915C139.015 31.7394 138.4 33.6399 138.443 35.5831C138.413 37.5044 139.086 39.3704 140.334 40.8291Z" fill="#1D1D1B"/>
<path d="M173.635 1.04688V48.9889H165.201V1.04688H173.635Z" fill="#1D1D1B"/>
<path d="M208.244 22.6139L191.085 61.9585H182.942L189.34 47.3864L177.125 22.1768H186.723L193.703 37.9146L200.683 22.1768L208.244 22.6139Z" fill="#1D1D1B"/>
<path d="M240.527 22.6136V48.989C240.558 51.4483 239.793 53.8516 238.345 55.8379C236.901 57.961 234.883 59.6288 232.529 60.6467C230.029 61.8265 227.294 62.4243 224.531 62.3953C222.649 62.646 220.742 62.646 218.86 62.3953L214.933 59.3352C213.612 58.5665 212.391 57.6365 211.298 56.5665L216.242 50.7377C217.311 51.7949 218.538 52.6797 219.878 53.3606C221.284 54.0376 222.825 54.3864 224.385 54.3807C226.303 54.4337 228.188 53.8722 229.766 52.7778C230.533 52.4084 231.199 51.857 231.706 51.1714C232.213 50.4858 232.545 49.6867 232.674 48.8433V44.7631C231.778 46.235 230.461 47.4027 228.893 48.1147C226.988 49.0235 224.896 49.4726 222.786 49.4262C220.42 49.4572 218.096 48.7991 216.097 47.5318C214.054 46.2669 212.355 44.5147 211.152 42.4316C209.921 40.2537 209.27 37.7946 209.262 35.2913C209.244 32.7386 209.896 30.2261 211.152 28.0053C212.376 25.8513 214.128 24.0458 216.242 22.7593C218.19 21.4959 220.466 20.8369 222.786 20.865C224.759 20.838 226.724 21.1334 228.603 21.7393C230.11 22.1948 231.467 23.0508 232.529 24.2165L232.674 22.6136H240.527ZM232.674 38.7886V32.3769C232.124 31.0735 231.151 29.9949 229.911 29.3168C228.536 28.5394 226.982 28.1374 225.403 28.151C223.481 28.0925 221.61 28.7699 220.168 30.0454C219.44 30.7346 218.868 31.5728 218.492 32.5031C218.115 33.4335 217.943 34.4341 217.987 35.437C217.97 36.4365 218.155 37.4292 218.529 38.3556C218.904 39.2821 219.462 40.1232 220.168 40.8287C221.573 42.1976 223.445 42.9791 225.403 43.0145C226.878 43.0086 228.326 42.6153 229.602 41.8738C230.877 41.1323 231.937 40.0685 232.674 38.7886Z" fill="#1D1D1B"/>
<path d="M247.216 28.1516C248.551 25.9854 250.399 24.1833 252.597 22.9057C255.03 21.6675 257.72 21.0187 260.449 21.0113C263.187 20.9459 265.894 21.599 268.302 22.9057C270.469 24.1724 272.273 25.9797 273.537 28.1516C274.793 30.3724 275.445 32.885 275.427 35.4376C275.496 37.9965 274.841 40.5226 273.537 42.7237C272.375 44.9365 270.542 46.7224 268.302 47.8239C265.851 49.0148 263.172 49.661 260.449 49.7182C257.731 49.7616 255.041 49.1625 252.597 47.9696C250.356 46.8844 248.484 45.161 247.216 43.0151C245.884 40.6661 245.229 37.9921 245.326 35.2919C245.276 32.7814 245.931 30.3073 247.216 28.1516ZM255.65 40.8293C256.248 41.4644 256.97 41.9703 257.77 42.3161C258.57 42.662 259.432 42.8403 260.304 42.8403C261.175 42.8403 262.037 42.662 262.838 42.3161C263.638 41.9703 264.359 41.4644 264.957 40.8293C266.152 39.2927 266.769 37.3843 266.702 35.4376C266.883 33.5688 266.364 31.6994 265.248 30.1917C264.664 29.537 263.946 29.0159 263.143 28.6639C262.34 28.3119 261.471 28.1372 260.595 28.1516C259.72 28.1465 258.853 28.3254 258.052 28.6769C257.25 29.0283 256.531 29.5443 255.941 30.1917C255.298 30.8989 254.8 31.7261 254.475 32.6262C254.151 33.5263 254.007 34.4817 254.051 35.4376C254.121 37.3853 254.78 39.2655 255.941 40.8293H255.65Z" fill="#1D1D1B"/>
<path d="M305.382 23.3425C306.197 24.0483 306.852 24.9204 307.304 25.9006C307.755 26.8807 307.992 27.9461 308 29.0256V48.9893H299.565V32.3772C299.565 29.7542 298.257 28.4427 295.639 28.4427C294.685 28.4356 293.748 28.6898 292.928 29.1778C292.108 29.6657 291.436 30.3689 290.986 31.2114C289.764 33.3338 289.159 35.7569 289.241 38.206V48.9893H280.807V22.6139H288.514V26.6941C289.446 25.0025 290.865 23.6314 292.585 22.7596C294.412 21.617 296.542 21.0579 298.693 21.1567C301.115 21.0389 303.495 21.8167 305.382 23.3425Z" fill="#1D1D1B"/>
<path d="M59.4822 22.1767C58.7306 21.7419 57.878 21.5129 57.0102 21.5129C56.1423 21.5129 55.2897 21.7419 54.5381 22.1767L43.6318 28.7341L35.9247 33.2515L24.5821 39.9546C23.8305 40.3895 22.9779 40.6184 22.11 40.6184C21.2422 40.6184 20.3896 40.3895 19.638 39.9546L10.1858 34.563C9.41161 34.1335 8.77096 33.4979 8.33468 32.7264C7.89841 31.9549 7.68351 31.0776 7.71375 30.1913V19.9909C7.66629 19.1018 7.87387 18.2176 8.31194 17.4429C8.75002 16.6682 9.40027 16.0354 10.1858 15.6193L19.0563 10.6648C19.8079 10.2299 20.6605 10.001 21.5284 10.001C22.3963 10.001 23.2489 10.2299 24.0005 10.6648L32.8709 15.6193C33.6131 16.0486 34.2312 16.6638 34.6646 17.4047C35.098 18.1455 35.3317 18.9865 35.343 19.8452V26.5483L43.6318 22.3224V15.6193C43.6437 14.6795 43.3531 13.761 42.803 12.9998C42.2529 12.2386 41.4727 11.6753 40.578 11.3934L24.1459 1.04724C23.3724 0.683305 22.5283 0.494629 21.6738 0.494629C20.8193 0.494629 19.9752 0.683305 19.2017 1.04724L2.47874 11.2477C1.69316 11.6638 1.04291 12.2966 0.604833 13.0713C0.166759 13.846 -0.040817 14.7301 0.00664411 15.6193V34.8544C-0.0130225 35.7192 0.207777 36.5725 0.644351 37.3188C1.08092 38.0651 1.71606 38.675 2.47874 39.0803L19.2017 48.6978C19.9533 49.1327 20.8059 49.3616 21.6738 49.3616C22.5417 49.3616 23.3943 49.1327 24.1459 48.6978L35.4884 42.1404L43.6318 37.6231L54.9743 31.0657C55.7259 30.6308 56.5785 30.4019 57.4464 30.4019C58.3143 30.4019 59.1669 30.6308 59.9185 31.0657L68.7889 36.1659C69.5311 36.5952 70.1492 37.2104 70.5826 37.9513C71.016 38.6921 71.2498 39.5331 71.261 40.3918V50.7379C71.2807 51.6028 71.0599 52.4561 70.6233 53.2024C70.1868 53.9487 69.5516 54.5586 68.7889 54.9638L59.9185 60.3555C59.1669 60.7903 58.3143 61.0193 57.4464 61.0193C56.5785 61.0193 55.7259 60.7903 54.9743 60.3555L46.1039 55.2553C45.3798 54.8056 44.7762 54.1856 44.3454 53.4492C43.9146 52.7128 43.6696 51.8822 43.6318 51.0294V44.7634L35.9247 49.135V55.9839C36.0184 56.652 36.2473 57.2939 36.5974 57.8702C36.9475 58.4465 37.4113 58.9451 37.9605 59.3354L54.6835 68.953C55.457 69.3169 56.301 69.5056 57.1556 69.5056C58.0101 69.5056 58.8541 69.3169 59.6277 68.953L76.3506 59.3354C77.0928 58.9062 77.7109 58.2909 78.1443 57.5501C78.5777 56.8092 78.8115 55.9682 78.8227 55.1096V36.1659C78.8424 35.301 78.6216 34.4478 78.185 33.7015C77.7484 32.9552 77.1133 32.3453 76.3506 31.94L59.4822 22.1767Z" fill="#8247E5"/>
</svg>
