<svg id="64b5386e-dc69-4f8b-abb7-7b284c54a2a9" data-name="Layer 1" xmlns="http://www.w3.org/2000/svg" viewBox="0 0 648.31 96.7">
  <title>Peeranha_Logo_Horizontal</title>
  <g>
    <path id="7b505434-05e4-4733-bd03-7559c80e23bc" data-name="Rectangle 7 copy 5" d="M47.1,74.9a20.32,20.32,0,0,0,1-4.9c2.1.1,4.7.1,7.5.1a41,41,0,0,1-.2,5C54,86,39.2,92.8,39.2,92.8a13.91,13.91,0,0,0,3.2-8.4A69.85,69.85,0,0,0,47.1,74.9Z" fill="#576fed"/>
    <path id="1a5106a6-deb3-4185-b01c-a80421d90d97" data-name="Rectangle 5 copy 5" d="M15.5,96.7s5.4-7.4,7-12.6c4.1-3.1,12.6-14,12.6-14s-8.6-.8-11-7.6c-1.6-4.3-1.6-12.1-1.6-12.1a77.71,77.71,0,0,1-9.8,8.4C8.1,61.8,0,64.4,0,64.4s3.2-8.7,5.6-12.6,5.6-8.4,5.6-8.4L7,19.4s7.8,1.7,11.2,5.6a83.29,83.29,0,0,1,7,9.8s-.6-11.2,5.6-20.2A16.34,16.34,0,0,1,47.1,7.7a31.8,31.8,0,0,0,5.3,1.4c1.8.3,4.2-1.4,1.9-5.8C58.5,4.4,62.4,9,62.4,9s2.8-1.5-.3-8.5C69.3,1.1,73,12.8,73,12.8A109.81,109.81,0,0,1,73.7,0,19,19,0,0,1,80,13.7s7.3.1,10.5,6.4-2.1,28.8-2.1,28.8l3.2,2.6,5.3-8.8,5.4,7.3,2.9-11s3.9,3.5,7,7a20.81,20.81,0,0,1,4.2,8.4S113,62.6,93.9,67s-52,2.8-52,2.8,2.1,9.2-7,18.3A26.34,26.34,0,0,1,15.5,96.7Z" fill="#7699ff"/>
    <circle id="24f5393d-4d01-4e9a-994e-955807d4b8cf" data-name="Ellipse 1 copy 5" cx="58.9" cy="40.3" r="16.7" fill="#1d1d1b"/>
    <path id="ee505f71-9a0b-4df3-b358-d6d65d15bb5a" data-name="Ellipse 1 copy 16" d="M71.9,39.9A14.78,14.78,0,0,1,65.8,50a13.34,13.34,0,0,0,3.7-7.6A10.15,10.15,0,0,0,61,30.8a10.87,10.87,0,0,0-1.8-.1A13.61,13.61,0,0,0,46.1,42.4a9.7,9.7,0,0,0-.1,1.7h0a12.46,12.46,0,0,1-.2-4.3,15.12,15.12,0,0,1,14.6-13A11.36,11.36,0,0,1,72,37.8,14.08,14.08,0,0,1,71.9,39.9Z" fill="#fff" opacity="0.1" style="isolation: isolate"/>
    <path id="4e30afb6-9b67-4416-9a10-73eb83fa54dc" data-name="Ellipse 2 copy 5" d="M64.6,27.4c2.9.9,6.2,3.9,4.8,6.6-1,2-4.1-1.3-7-2.1S55.2,31.1,56,29C57.3,26,61.7,26.5,64.6,27.4Z" fill="#fff"/>
    <path id="4067f20d-e99a-4389-8852-6fcb31bee618" data-name="Rectangle 5 copy 9" d="M103.3,50.7a71.2,71.2,0,0,1-20.1.4l4.9-8.2,4.2,6.5,4.8-7.5,5.4,7.3,2.9-11,7,7C113.1,45.9,113.8,48.8,103.3,50.7Z" fill="#f76f60"/>
    <g>
      <g>
        <path d="M160.12,63.2a11.59,11.59,0,0,1-10.11-6V75h-3.09a6.86,6.86,0,0,1-7-6.93V43.73c0-13.39,6-22.57,20.13-22.57,10.67,0,18.26,9.74,18.26,19.85C178.29,53.84,171.83,63.2,160.12,63.2ZM158.44,30c-5.53,0-8.62,4.78-8.62,11.71,0,8,3.94,12.64,9.93,12.64,4.87,0,8.24-4.31,8.24-10.77C168,34.08,164.81,30,158.44,30Z" fill="#282828"/>
        <path d="M199.63,46.44h-6.55c.75,5.06,5.34,8.24,11.24,8.24,4.21,0,9.08-.84,12.26-3.84H217v3.09c0,5.15-3.47,9.09-14.52,9.09a19.8,19.8,0,0,1-19.75-20.23c0-13.39,8.24-21.81,19.66-21.81,8.33,0,16.1,6,16.1,15.54C218.55,44.1,212.93,46.44,199.63,46.44Zm1.88-16.94c-4.87,0-8.24,3.93-8.43,8.61L193,39.42h4.49c9.46,0,11.61-1,11.61-3.84C209.09,31.46,206.19,29.5,201.51,29.5Z" fill="#282828"/>
        <path d="M239.8,46.44h-6.55c.75,5.06,5.33,8.24,11.23,8.24,4.22,0,9.08-.84,12.27-3.84h.37v3.09c0,5.15-3.46,9.09-14.51,9.09a19.8,19.8,0,0,1-19.76-20.23c0-13.39,8.24-21.81,19.67-21.81,8.33,0,16.1,6,16.1,15.54C258.62,44.1,253.1,46.44,239.8,46.44Zm1.87-16.94c-4.86,0-8.24,3.93-8.42,8.61l-.1,1.31h4.5c9.45,0,11.61-1,11.61-3.84C249.26,31.46,246.26,29.5,241.67,29.5Z" fill="#282828"/>
        <path d="M287.65,31.74a15,15,0,0,0-5.81-1.21c-4.49,0-6.93,2.43-6.93,8.61V62.27H272.2c-4.5,0-7.31-2.25-7.31-6.46V37.36c0-8,4.22-15.73,14.89-15.73,6.18,0,8.33,3.47,8.33,6.56v3.55Z" fill="#282828"/>
      </g>
      <g>
        <path d="M312,62.92h-2.06c-9.55,0-16.11-5.33-16.11-12.73,0-7.12,5.25-12.64,19.95-12.64h3.46V37c0-5.71-2.71-7.4-8.61-7.4-7.21,0-11.24,2.72-12.74,4.59h-.37V31c0-4.49,4-9.83,14.61-9.83,9,0,17,4.22,17,18.07V48.5C327.25,57,321,62.92,312,62.92Zm5.43-18.16h-3.56c-7.58,0-9.74,1.78-9.74,5.05,0,3.09,2.53,5,6.93,5s6.37-2.06,6.37-6.18Z" fill="#7699ff"/>
        <path d="M364.89,62.27c-4.5,0-7.3-2.81-7.3-6.56V39.8c0-6.75-3-9.74-8.15-9.74-4.31,0-7.3,3.28-7.3,9V62.36h-3c-4.21,0-7-2.81-7-6.55V38.3c0-8.52,5.62-17.23,18.16-17.23,9.46,0,17.32,6.37,17.32,17.79V62.27Z" fill="#7699ff"/>
        <path d="M406.83,62.27c-4.21,0-6.74-2.34-6.74-6.74V39.14c0-6.55-3.56-9.18-8-9.18-3.09,0-7.21,2.35-7.21,9.46V62.27h-3.37c-4.68,0-6.83-2.63-6.83-6.74V3h3.09c4.77,0,7.11,2.72,7.11,6.46V26.59c1.5-2.34,5-5.33,8.71-5.33,10.39,0,16.48,6.18,16.48,17.6V62.45h-3.28Z" fill="#7699ff"/>
        <path d="M433.14,62.92h-2.06c-9.55,0-16.1-5.33-16.1-12.73,0-7.12,5.24-12.64,19.94-12.64h3.47V37c0-5.71-2.72-7.4-8.62-7.4-7.21,0-11.23,2.72-12.73,4.59h-.38V31c0-4.49,4-9.83,14.61-9.83,9,0,17,4.22,17,18.07V48.5C448.31,57,442,62.92,433.14,62.92Zm5.43-18.16H435c-7.59,0-9.74,1.78-9.74,5.05,0,3.09,2.53,5,6.93,5s6.46-2.06,6.46-6.18V44.76Z" fill="#7699ff"/>
      </g>
    </g>
  </g>
</svg>
