<svg width="180" height="44" viewBox="0 0 180 44" fill="none" xmlns="http://www.w3.org/2000/svg">
<path fill-rule="evenodd" clip-rule="evenodd" d="M19.372 34.9342C19.5854 34.3026 19.7561 33.6711 19.7988 33C20.6951 33.0395 21.8049 33.0395 23 33.0395C23 33.7105 23 34.3816 22.9146 35.0132C22.3171 39.3158 16 42 16 42C16.8537 41.0526 17.3232 39.8684 17.3659 38.6842C18.1341 37.4605 18.8171 36.2368 19.372 34.9342Z" fill="#576FED"/>
<mask id="mask0_3966_61652" style="mask-type:alpha" maskUnits="userSpaceOnUse" x="0" y="5" width="47" height="39">
<path fill-rule="evenodd" clip-rule="evenodd" d="M0 5.12067H46.7589V44H0V5.12067Z" fill="white"/>
</mask>
<g mask="url(#mask0_3966_61652)">
<path fill-rule="evenodd" clip-rule="evenodd" d="M6.22641 44C6.22641 44 8.39564 41.0248 9.03838 38.9341C10.6854 37.6877 14.0999 33.3052 14.0999 33.3052C14.0999 33.3052 10.6452 32.9836 9.68111 30.2495C9.03838 28.5207 9.03838 25.3846 9.03838 25.3846C7.79308 26.631 6.50761 27.7567 5.10163 28.7619C3.25376 29.9681 -8.39233e-05 31.0135 -8.39233e-05 31.0135C-8.39233e-05 31.0135 1.28539 27.5155 2.24949 25.9475C3.21359 24.3794 4.49906 22.5702 4.49906 22.5702L2.81188 12.9207C2.81188 12.9207 5.94522 13.6042 7.31103 15.1722C8.35547 16.4186 9.2794 17.7454 10.123 19.1124C10.123 19.1124 9.88197 14.6093 12.3726 10.9908C13.8187 8.85984 16.3897 7.77427 18.9204 8.21654C19.6033 8.45778 20.3264 8.65881 21.0495 8.77943C21.7726 8.90005 22.7367 8.21654 21.8127 6.44747C23.4999 6.88974 25.0666 8.73922 25.0666 8.73922C25.0666 8.73922 26.1914 8.13613 24.9461 5.3217C27.8384 5.56293 29.3247 10.2671 29.3247 10.2671C29.3247 8.53819 29.405 6.84953 29.6059 5.12067C31.1726 6.52788 32.0965 8.53819 32.1367 10.6289C32.1367 10.6289 35.0691 10.6691 36.3546 13.2021C37.6401 15.7351 35.511 24.7815 35.511 24.7815L36.7965 25.8269L38.9256 22.2887L41.0948 25.2238L42.2597 20.8011C42.2597 20.8011 43.8264 22.2083 45.0717 23.6155C45.8751 24.6207 46.4777 25.7464 46.7589 26.9928C46.7589 26.9928 45.3931 30.2897 37.7204 32.0588C30.0478 33.8279 16.8315 33.1846 16.8315 33.1846C16.8315 33.1846 17.6751 36.8836 14.0196 40.5423C12.0512 42.7537 9.19906 43.9598 6.22641 44Z" fill="#7699FF"/>
</g>
<path fill-rule="evenodd" clip-rule="evenodd" d="M23.5 15C27.0898 15 30 17.9102 30 21.5C30 25.0898 27.0898 28 23.5 28C19.9102 28 17 25.0898 17 21.5C17 17.9102 19.9102 15 23.5 15Z" fill="#1D1D1B"/>
<path opacity="0.3" fill-rule="evenodd" clip-rule="evenodd" d="M26.4072 25C27.2436 24.2243 27.7873 23.1772 27.9545 22.0525C28.3309 19.9194 26.7418 17.9026 24.3999 17.5536C24.149 17.5148 23.8981 17.5148 23.6472 17.5148C20.8872 17.5924 18.5453 19.4928 18.169 22.0525C18.1272 22.2852 18.1272 22.4791 18.1272 22.7118C18.0017 22.1688 17.9599 21.5871 18.0435 21.0441C18.4617 18.2129 21.0545 16.0798 24.149 16.0022C26.7418 15.9247 28.9164 17.8639 29 20.2684C29 20.5787 29 20.8114 28.9582 21.0829C28.7073 22.673 27.8291 24.0692 26.4072 25Z" fill="white"/>
<path fill-rule="evenodd" clip-rule="evenodd" d="M25.7734 16.2622C27.0316 16.6028 28.4633 17.7382 27.8559 18.7601C27.4221 19.517 26.0771 18.2681 24.819 17.9653C23.5608 17.6625 21.6952 17.6625 22.0423 16.8677C22.6063 15.7323 24.5153 15.9216 25.7734 16.2622Z" fill="white"/>
<path fill-rule="evenodd" clip-rule="evenodd" d="M41.1624 25.6555C38.4822 26.0652 35.7208 26.1025 33 25.8045L34.9898 22.7505L36.6954 25.1714L38.6447 22.378L40.8376 25.0969L42.0152 21L44.8579 23.6071C45.1421 23.8678 45.4264 24.9479 41.1624 25.6555Z" fill="#F76F60"/>
<path fill-rule="evenodd" clip-rule="evenodd" d="M63.2439 17.433C61.0853 17.433 59.8779 19.2956 59.8779 21.9985C59.8779 25.1393 61.4147 26.9286 63.7561 26.9286C65.6587 26.9286 66.9756 25.2489 66.9756 22.7287C66.9756 19.0401 65.7318 17.433 63.2439 17.433ZM63.9027 30.3983C62.1462 30.3983 60.7196 29.4122 59.9513 28.061V35H58.7439C57.3536 35 56 33.9776 56 32.2976V22.802C56 17.5793 58.3414 14 63.8659 14C68.0365 14 71 17.7985 71 21.7426C71 26.746 68.4757 30.3983 63.9027 30.3983Z" fill="#282828"/>
<path fill-rule="evenodd" clip-rule="evenodd" d="M80.3661 17.4454C78.4603 17.4454 77.1412 19.0358 77.068 20.9288L77.0312 21.4589H78.7903C82.4919 21.4589 83.3347 21.0424 83.3347 19.9065C83.3347 18.2404 82.1988 17.4454 80.3661 17.4454ZM79.633 24.2985H77.068C77.3612 26.3431 79.157 27.6302 81.4656 27.6302C83.1147 27.6302 85.0205 27.2898 86.2664 26.0782H86.4132V27.3274C86.4132 29.41 85.0569 31 80.7329 31C76.8113 31 73 27.8195 73 22.8217C73 17.4078 76.2249 14 80.6961 14C83.9578 14 86.9995 16.4231 86.9995 20.285C87.0363 23.3518 84.8373 24.2985 79.633 24.2985Z" fill="#282828"/>
<path fill-rule="evenodd" clip-rule="evenodd" d="M97.3664 17.4454C95.4605 17.4454 94.1414 19.0358 94.0682 20.9288L94.0314 21.4589H95.7905C99.4923 21.4589 100.335 21.0424 100.335 19.9065C100.335 18.2404 99.1623 17.4454 97.3664 17.4454ZM96.6332 24.2985H94.0682C94.3613 26.3431 96.1572 27.6302 98.4659 27.6302C100.115 27.6302 102.021 27.2898 103.267 26.0782H103.414V27.3274C103.414 29.41 102.057 31 97.7332 31C93.8114 31 90 27.8195 90 22.8217C90 17.4078 93.225 14 97.6964 14C100.958 14 104 16.4231 104 20.285C104 23.3518 101.838 24.2985 96.6332 24.2985Z" fill="#282828"/>
<path fill-rule="evenodd" clip-rule="evenodd" d="M114.819 17.9816C114.238 17.7603 113.584 17.5024 112.569 17.5024C110.827 17.5024 109.883 18.4608 109.883 20.8942V30H108.831C107.089 30 106 29.1152 106 27.456V20.1937C106 17.0232 107.633 14 111.77 14C114.165 14 115 15.3643 115 16.5806V17.9816H114.819Z" fill="#282828"/>
<path fill-rule="evenodd" clip-rule="evenodd" d="M127.202 23.6053H125.814C122.856 23.6053 122.017 24.3295 122.017 25.6636C122.017 26.9216 123.003 27.6837 124.719 27.6837C126.399 27.6837 127.202 26.8451 127.202 25.1682V23.6053ZM125.084 31H124.281C120.556 31 118 28.8273 118 25.8159C118 22.9189 120.045 20.6705 125.778 20.6705H127.129V20.4417C127.129 18.1167 126.07 17.4303 123.769 17.4303C120.958 17.4303 119.388 18.5356 118.803 19.2981H118.657V18.0019C118.657 16.1723 120.227 14 124.354 14C127.86 14 131 15.7151 131 21.3564V25.1299C131.036 28.5985 128.59 31 125.084 31Z" fill="#7699FF"/>
<path fill-rule="evenodd" clip-rule="evenodd" d="M145.929 29.9636C144.156 29.9636 143.048 28.8751 143.048 27.4239V21.256C143.048 18.6438 141.866 17.4829 139.834 17.4829C138.134 17.4829 136.952 18.7527 136.952 20.9658V30H135.77C134.108 30 133 28.9115 133 27.4603V20.6755C133 17.374 135.216 14 140.166 14C143.897 14 147 16.4668 147 20.8933V29.9636H145.929Z" fill="#7699FF"/>
<path fill-rule="evenodd" clip-rule="evenodd" d="M162.704 29.9245C161.037 29.9245 160.037 28.9795 160.037 27.2034V20.5892C160.037 17.9435 158.63 16.8851 156.889 16.8851C155.667 16.8851 154.037 17.8301 154.037 20.7026V29.9245H152.704C150.852 29.9245 150 28.8661 150 27.2034V6H151.222C153.111 6 154.037 7.09638 154.037 8.60813V15.5247C154.63 14.5797 156 13.3703 157.481 13.3703C161.593 13.3703 164 15.8646 164 20.4757V30H162.704V29.9245Z" fill="#7699FF"/>
<path fill-rule="evenodd" clip-rule="evenodd" d="M176.202 23.6053H174.815C171.857 23.6053 171.017 24.3295 171.017 25.6636C171.017 26.9216 172.003 27.6837 173.719 27.6837C175.399 27.6837 176.239 26.8451 176.239 25.1682V23.6053H176.202ZM174.084 31H173.281C169.556 31 167 28.8273 167 25.8159C167 22.9189 169.045 20.6705 174.778 20.6705H176.129V20.4417C176.129 18.1167 175.07 17.4303 172.77 17.4303C169.958 17.4303 168.388 18.5356 167.803 19.2981H167.657V18.0019C167.657 16.1723 169.227 14 173.354 14C176.86 14 180 15.7151 180 21.3564V25.1299C180 28.5985 177.553 31 174.084 31Z" fill="#7699FF"/>
<path d="M19.5154 10.5479C17.2851 11.3633 12.2633 14.1955 10.0186 19.0015C15.6265 13.5081 28.1706 11.4234 33.8422 11.0577C29.3318 8.35757 22.4116 9.59278 19.5154 10.5479Z" fill="#344D96" fill-opacity="0.3"/>
<path d="M18 2C24.4 -0.399994 30.6667 5.33334 33 8.5L27 9.49997C21.3333 12 10 17.1 10 17.5C10 17.9 7.66667 21 6.5 22.5C6.33333 22.5 6 22.3 6 21.5C7.5 14.5 10 5 18 2Z" fill="#ED0705"/>
<path d="M32.4294 8.5951L27 9.49997C21.3333 12 10 17.1 10 17.5C10 17.8344 8.36906 20.056 7.15249 21.6521C5.35607 22.6592 9.07379 11.5957 14.37 8.59509C18.8604 6.05102 29.9501 3.2345 32.7753 8.26457L32.4294 8.5951Z" fill="#6F0100" fill-opacity="0.3"/>
<path d="M10.7925 8.08084C15.8338 2.62502 21.5127 -0.254434 30.0471 5.33812C26.9981 2.6799 22.5325 0.300325 18 2C14.8249 3.19065 12.5162 5.40514 10.7925 8.08084Z" fill="#FF2C2B"/>
<path d="M34 11C21.6 11.4 18.5466 12.3484 10 19C10 19 9.16544 18.8757 9.5 17.5C13 4.99999 29.5893 4.14826 33.0204 6.99584C34.1747 7.95379 34.5262 10.2147 34 11Z" fill="#DFE6FF"/>
<path d="M33.3018 9.44102C22.8055 9.68686 20.2209 10.2698 12.9864 14.3578C12.9864 14.3578 12.28 14.2814 12.5631 13.4359C15.5258 5.75341 29.5683 5.22994 32.4726 6.98006C33.4497 7.56882 33.7472 8.95835 33.3018 9.44102Z" fill="white"/>
<circle cx="6" cy="22" r="3.42087" fill="#DFE6FF"/>
<circle cx="5.81408" cy="21.7397" r="2.43897" fill="white"/>
<path d="M28.3331 7.01184C33.3239 7.28464 34.4419 10.1462 34.6795 11.1938L35.332 13.138L35.0683 14.6609L29.3331 13.5592L27.6977 11.8101C27.7193 11.4969 29.2365 10.8841 27.7886 8.94798C29.5059 8.94798 30.991 10.0113 31.0234 10.5622C31.0234 9.64824 29.9834 8.38765 28.3331 7.01184Z" fill="#7699FF"/>
<path d="M154.562 41V36H155.962L156.082 36.61H156.122C156.362 36.3767 156.596 36.1967 156.822 36.07C157.049 35.9433 157.316 35.88 157.622 35.88C158.262 35.88 158.722 36.1467 159.002 36.68C159.249 36.4267 159.489 36.23 159.722 36.09C159.962 35.95 160.236 35.88 160.542 35.88C161.076 35.88 161.472 36.06 161.732 36.42C161.992 36.78 162.122 37.28 162.122 37.92V41H160.402V38.14C160.402 37.8333 160.362 37.6233 160.282 37.51C160.209 37.3967 160.082 37.34 159.902 37.34C159.689 37.34 159.456 37.4667 159.202 37.72V41H157.482V38.14C157.482 37.8333 157.442 37.6233 157.362 37.51C157.289 37.3967 157.162 37.34 156.982 37.34C156.769 37.34 156.536 37.4667 156.282 37.72V41H154.562ZM166.564 41.12C165.811 41.12 165.191 40.8867 164.704 40.42C164.224 39.9467 163.984 39.3067 163.984 38.5C163.984 37.72 164.224 37.09 164.704 36.61C165.184 36.1233 165.744 35.88 166.384 35.88C167.091 35.88 167.631 36.1067 168.004 36.56C168.377 37.0133 168.564 37.5933 168.564 38.3C168.564 38.5933 168.541 38.8333 168.494 39.02H165.644C165.784 39.5533 166.171 39.82 166.804 39.82C167.124 39.82 167.464 39.72 167.824 39.52L168.384 40.54C167.837 40.9267 167.231 41.12 166.564 41.12ZM165.624 37.9H167.104C167.104 37.42 166.877 37.18 166.424 37.18C166.224 37.18 166.051 37.24 165.904 37.36C165.764 37.48 165.671 37.66 165.624 37.9ZM172.47 41.12C171.843 41.12 171.38 40.94 171.08 40.58C170.78 40.22 170.63 39.72 170.63 39.08V37.34H169.97V36.06L170.73 36L170.93 34.7H172.35V36H173.49V37.34H172.35V39.05C172.35 39.5367 172.55 39.78 172.95 39.78C173.083 39.78 173.23 39.7533 173.39 39.7L173.65 40.94C173.263 41.06 172.87 41.12 172.47 41.12ZM176.519 41.12C176.065 41.12 175.702 40.97 175.429 40.67C175.155 40.37 175.019 40.0067 175.019 39.58C175.019 39.0533 175.232 38.6433 175.659 38.35C176.092 38.0567 176.785 37.86 177.739 37.76C177.699 37.4133 177.465 37.24 177.039 37.24C176.719 37.24 176.299 37.38 175.779 37.66L175.179 36.54C175.912 36.1 176.645 35.88 177.379 35.88C178.765 35.88 179.459 36.66 179.459 38.22V41H178.059L177.939 40.52H177.899C177.452 40.92 176.992 41.12 176.519 41.12ZM177.119 39.8C177.325 39.8 177.532 39.6867 177.739 39.46V38.78C177.019 38.8867 176.659 39.1067 176.659 39.44C176.659 39.68 176.812 39.8 177.119 39.8Z" fill="#F76F60"/>
</svg>
