<svg id="Layer_1" data-name="Layer 1" xmlns="http://www.w3.org/2000/svg" viewBox="0 0 447.63 96.56"><defs><style>.cls-1,.cls-6{fill:#fff;}.cls-2{fill:#7699ff;}.cls-3{fill:#f76f60;}.cls-4{fill:#576fed;}.cls-5{fill:#1d1d1b;}.cls-6{opacity:0.1;isolation:isolate;}</style></defs><title>Logo</title><path id="peer_copy" data-name="peer copy" class="cls-1" d="M180.94,38.26c0-10.92-8.18-21.36-19.66-21.36-15.26,0-21.68,10-21.68,24.33V67.4a7.35,7.35,0,0,0,7.26,7.46h3.66V55.76a12.66,12.66,0,0,0,10.92,6.42C174,62.18,180.94,52.14,180.94,38.26Zm-11.07,2.81c0,6.9-3.62,11.56-8.84,11.56-6.42,0-10.67-4.9-10.67-13.57,0-7.47,3.29-12.61,9.23-12.61,6.9,0,10.28,4.42,10.28,14.62Zm54.4-7.39c0-10.36-8.34-16.78-17.34-16.78-12.36,0-21.19,9.07-21.19,23.52a21.37,21.37,0,0,0,20.95,21.76H207c11.89,0,15.66-4.26,15.66-9.8V49h-.4c-3.45,3.21-8.75,4.1-13.25,4.1-6.34,0-11.32-3.46-12.12-8.91H204c14.29,0,20.31-2.57,20.31-10.52Zm-10.11-1.29c0,3.06-2.33,4.18-12.52,4.18h-4.82l.08-1.45c.24-5,3.85-9.23,9.07-9.23,5,0,8.19,2.17,8.19,6.5Zm53.29,1.29c0-10.36-8.35-16.78-17.34-16.78-12.37,0-21.2,9.07-21.2,23.52a21.37,21.37,0,0,0,21,21.76h.33c11.88,0,15.65-4.26,15.65-9.8V49h-.4c-3.45,3.21-8.75,4.1-13.25,4.1-6.34,0-11.32-3.46-12.12-8.91h7.07c14.29,0,20.31-2.57,20.31-10.52Zm-10.12-1.29c0,3.06-2.33,4.18-12.52,4.18H240l.08-1.45c.24-5,3.86-9.23,9.07-9.23,5,0,8.19,2.17,8.19,6.5Zm41.73-4V24.53c0-3.29-2.33-7.07-9-7.07-11.4,0-16,8.27-16,16.94V54.31c0,4.5,3.05,6.91,7.87,6.91h3V36.33c0-6.58,2.65-9.23,7.47-9.23a15.69,15.69,0,0,1,6.26,1.28Z" transform="translate(-0.02 0)"/><path id="ania" class="cls-2" d="M339.56,46.44V36.49c0-14.93-8.67-19.43-18.31-19.43-11.39,0-15.73,5.78-15.73,10.6v3.45h.4c1.61-2,5.94-5,13.73-5,6.42,0,9.31,1.85,9.31,8v.56h-3.77c-15.9,0-21.52,5.86-21.52,13.57,0,7.95,7.07,13.73,17.34,13.73h2.17C332.81,61.94,339.56,55.6,339.56,46.44ZM329,46.52c0,4.42-2.25,6.67-6.9,6.67s-7.47-2-7.47-5.38c0-3.53,2.33-5.46,10.52-5.46H329v4.17ZM383,61.22V36c0-12.29-8.43-19.11-18.62-19.11-13.49,0-19.51,9.39-19.51,18.55v18.7c0,4,3,7.07,7.55,7.07h3.21v-25c0-6.18,3.21-9.72,7.86-9.72,5.54,0,8.76,3.22,8.76,10.52V54.15c0,4,3,7.07,7.86,7.07Zm24.71-6.11V52.79h-2c-4.73,0-6.58-1.37-6.58-5.7V26.86c0-5.46-2.89-8-7.71-8h-3.05v29.3c0,8.75,4.58,13.49,12.93,13.49,4.57,0,6.42-1.85,6.42-6.51Zm40-8.67V36.49c0-14.93-8.67-19.43-18.3-19.43-11.4,0-15.74,5.78-15.74,10.6v3.45h.4c1.61-2,5.94-5,13.73-5,6.42,0,9.31,1.85,9.31,8v.56h-3.77c-15.9,0-21.52,5.86-21.52,13.57,0,7.95,7.07,13.73,17.34,13.73h2.17c9.64,0,16.38-6.34,16.38-15.5Zm-10.52.08c0,4.42-2.25,6.67-6.9,6.67s-7.47-2-7.47-5.38c0-3.53,2.33-5.46,10.52-5.46h3.85v4.17Z" transform="translate(-0.02 0)"/><circle id="Ellipse_3_copy_2" data-name="Ellipse 3 copy 2" class="cls-3" cx="393.61" cy="7.49" r="5.25"/><path id="Rectangle_7_copy_5" data-name="Rectangle 7 copy 5" class="cls-4" d="M47.1,75a18.74,18.74,0,0,0,1-4.91c2.11,0,4.67.09,7.54.09a36.6,36.6,0,0,1-.22,5C54.05,86.08,39.2,92.9,39.2,92.9a14,14,0,0,0,3.17-8.44A59.77,59.77,0,0,0,47.1,75Z" transform="translate(-0.02 0)"/><path id="Rectangle_5_copy_5" data-name="Rectangle 5 copy 5" class="cls-2" d="M15.46,96.56s5.39-7.36,7-12.64c4.1-3.14,12.64-14,12.64-14s-8.56-.82-11-7.56c-1.6-4.35-1.61-12.1-1.61-12.1a83.11,83.11,0,0,1-9.83,8.43C8.12,61.73,0,64.26,0,64.26s3.23-8.65,5.61-12.63,5.62-8.43,5.62-8.43L7,19.33S14.8,21,18.27,25a79.06,79.06,0,0,1,7,9.83s-.62-11.17,5.64-20.25A16.4,16.4,0,0,1,47.26,7.62a46.45,46.45,0,0,0,5.32,1.45c1.76.3,4.17-1.36,1.91-5.81,4.23,1.09,8.11,5.66,8.11,5.66S65.36,7.4,62.26.46C69.29,1,73,12.75,73,12.75A118,118,0,0,1,73.75,0a19.35,19.35,0,0,1,6.31,13.71s7.34.09,10.48,6.36-2.06,28.75-2.06,28.75l3.25,2.62L97,42.68l5.44,7.3,2.85-11s3.89,3.52,7,7a21.19,21.19,0,0,1,4.22,8.42s-3.45,8.2-22.47,12.64-52,2.81-52,2.81,2.06,9.2-7,18.26A27.78,27.78,0,0,1,15.46,96.56Z" transform="translate(-0.02 0)"/><circle id="Ellipse_1_copy_5" data-name="Ellipse 1 copy 5" class="cls-5" cx="58.84" cy="40.19" r="16.73"/><path id="Ellipse_1_copy_16" data-name="Ellipse 1 copy 16" class="cls-6" d="M71.89,39.8a15.06,15.06,0,0,1-6.07,10.13,13.17,13.17,0,0,0,3.71-7.57A10.15,10.15,0,0,0,61,30.79a9.74,9.74,0,0,0-1.79-.12A13.58,13.58,0,0,0,46.14,42.36a12.36,12.36,0,0,0-.06,1.72h0a12.56,12.56,0,0,1-.22-4.28,15.13,15.13,0,0,1,14.61-13,11.3,11.3,0,0,1,11.46,13Z" transform="translate(-0.02 0)"/><path id="Ellipse_2_copy_5" data-name="Ellipse 2 copy 5" class="cls-1" d="M64.56,27.26c2.86.86,6.19,3.88,4.84,6.57-1,2-4.15-1.27-7-2.13S55.17,31,56,28.91C57.33,25.88,61.7,26.4,64.56,27.26Z" transform="translate(-0.02 0)"/><path id="Rectangle_5_copy_9" data-name="Rectangle 5 copy 9" class="cls-3" d="M103.27,50.57a70.16,70.16,0,0,1-20,.37l4.87-8.25,4.19,6.49L97,41.68l5.44,7.3,2.85-11s3.69,3.71,7,7C113.15,45.8,113.78,48.68,103.27,50.57Z" transform="translate(-0.02 0)"/></svg>