<svg width="233" height="76" viewBox="0 0 233 76" fill="none" xmlns="http://www.w3.org/2000/svg">
<path d="M118.862 15.0609C118.862 10.1857 115.209 7.56061 110.878 7.56061H100.424V31.4239H105.769V23.3097H110.302C115.851 23.3097 118.861 19.5602 118.861 15.0604H118.862V15.0609ZM113.279 15.402C113.279 17.4475 111.96 18.8118 110.167 18.8118H105.735V12.0618H110.167C111.96 12.0618 113.279 13.2215 113.279 15.4034V15.402ZM132.799 17.8224V12.5723H131.175C129.315 12.5723 127.522 13.3908 126.608 14.9588V12.5723H121.568V31.4244H126.778V21.4016C126.778 18.7765 128.3 17.7886 130.871 17.7886C131.582 17.7886 132.799 17.8224 132.799 17.8224ZM143.387 31.6629C148.8 31.6629 152.656 28.39 152.656 22.0155C152.656 15.6066 148.8 12.3337 143.387 12.3337C138.008 12.3337 134.152 15.6066 134.152 22.0155C134.152 28.39 138.008 31.6629 143.387 31.6629ZM143.387 16.5946C145.653 16.5946 147.344 18.1282 147.344 22.0155C147.344 25.8675 145.653 27.4021 143.387 27.4021C141.188 27.4021 139.463 25.8684 139.463 22.0155C139.463 18.1296 141.188 16.5946 143.387 16.5946ZM165.511 31.3562V26.9928C165.511 26.9928 164.328 27.0954 163.245 27.0954C162.128 27.0954 161.791 26.7882 161.791 25.6299V16.8011H165.748V12.5741H161.791V7.56297H156.547V12.5741H153.84V16.8011H156.547V25.9028C156.547 29.4147 157.055 31.5622 161.419 31.5622C163.786 31.5622 165.511 31.3576 165.511 31.3576V31.3566V31.3562ZM176.336 31.6629C181.749 31.6629 185.605 28.39 185.605 22.0155C185.605 15.6066 181.749 12.3337 176.336 12.3337C170.957 12.3337 167.101 15.6066 167.101 22.0155C167.101 28.39 170.957 31.6629 176.336 31.6629ZM176.336 16.5946C178.603 16.5946 180.294 18.1282 180.294 22.0155C180.294 25.8675 178.602 27.4021 176.336 27.4021C174.137 27.4021 172.413 25.8684 172.413 22.0155C172.413 18.1296 174.137 16.5946 176.336 16.5946ZM200.017 24.299C199.678 26.5487 198.156 27.4016 196.499 27.4016C194.368 27.4016 192.677 25.868 192.677 22.015C192.677 18.1292 194.334 16.5941 196.566 16.5941C198.325 16.5941 199.679 17.4809 199.95 19.7992H205.194C204.754 14.8219 201.236 12.3333 196.534 12.3333C191.155 12.3333 187.299 15.7087 187.299 22.0832C187.299 28.4921 191.256 31.6624 196.636 31.6624C201.44 31.6624 204.687 29.1738 205.228 24.299H200.017H200.017ZM215.984 31.6624C221.397 31.6624 225.253 28.3896 225.253 22.015C225.253 15.6062 221.397 12.3333 215.984 12.3333C210.604 12.3333 206.748 15.6062 206.748 22.015C206.748 28.3896 210.604 31.6624 215.984 31.6624ZM215.984 16.5941C218.25 16.5941 219.941 18.1277 219.941 22.015C219.941 25.867 218.25 27.4016 215.984 27.4016C213.785 27.4016 212.06 25.868 212.06 22.015C212.06 18.1292 213.785 16.5941 215.984 16.5941ZM233 31.4239V6.19726H227.79V31.4239H233ZM117.204 68.9231V64.2186H105.771V45.0598H100.425V68.9231H117.204ZM131.311 61.6956C131.311 63.2975 130.228 65.3425 127.15 65.3425C125.155 65.3425 124.613 64.0817 124.613 63.2288C124.613 62.0362 125.527 61.2859 126.778 61.0474C128.063 60.7745 131.311 60.3652 131.311 60.3652V61.6952L131.311 61.6956ZM119.877 56.2408H124.918C124.918 55.4905 125.121 53.9229 128.2 53.9229C130.703 53.9229 131.313 54.8097 131.313 56.1049V56.7527L125.156 57.6395C123.431 57.8784 119.27 58.9341 119.27 63.2307C119.27 67.0145 122.146 69.1621 126.002 69.1621C129.216 69.1621 130.637 68.0706 131.449 67.2191V68.9235H136.963C136.963 68.9235 136.557 67.492 136.557 66.1282V55.9689C136.557 53.2417 135.069 49.8329 128.202 49.8329C121.098 49.8329 119.949 53.4798 119.881 56.2418H119.878L119.877 56.2408ZM145.147 68.9231V67.0822C146.095 68.2748 147.752 69.1616 149.815 69.1616C154.89 69.1616 158.373 65.8882 158.373 59.5137C158.373 53.1053 154.822 49.832 150.12 49.832C148.056 49.832 146.094 50.7187 145.147 51.9113V43.695H139.937V68.9217H145.147V68.9226V68.9231ZM149.104 54.0932C151.371 54.0932 153.062 55.6269 153.062 59.5137C153.062 63.3657 151.371 64.9003 149.104 64.9003C146.567 64.9003 145.181 63.7077 145.181 59.5137C145.181 55.2868 146.567 54.0932 149.104 54.0932ZM171.397 55.6608H176.505C176.505 54.1953 175.761 49.831 168.453 49.831C163.988 49.831 160.435 51.8422 160.435 55.728C160.435 60.1253 163.953 61.0464 167.979 61.5921L168.995 61.7286C170.449 61.9332 171.803 62.2404 171.803 63.3986C171.803 64.762 170.349 65.3077 168.69 65.3077C166.898 65.3077 165.307 64.762 165.307 62.9555H160.063C160.063 63.9444 160.503 69.1597 168.384 69.1597C175.387 69.1597 177.078 65.7161 177.078 62.8191C177.078 55.2167 165.644 58.251 165.644 55.3531C165.644 54.0584 167.064 53.6487 168.384 53.6487C170.177 53.6487 171.395 54.3652 171.395 55.6598L171.397 55.6608H171.397ZM35.0436 55.8621C35.8456 56.3288 36.4968 57.4696 36.4968 58.3988V74.455C36.4968 75.3889 35.8418 75.7652 35.044 75.3018L21.256 67.2817C20.4544 66.8146 19.8032 65.6742 19.8032 64.7451V48.6888C19.8032 47.7549 20.4582 47.3786 21.256 47.842L35.044 55.8616L35.0436 55.8621ZM56.3117 41.698C56.3117 42.6318 55.6567 43.7689 54.8584 44.2346L41.0648 52.258C40.2628 52.7252 39.612 52.3418 39.612 51.4127V35.3611C39.612 34.4272 40.267 33.2897 41.0648 32.824L54.8584 24.8005C55.6605 24.3339 56.3117 24.7168 56.3117 25.6459L56.3103 41.6989L56.3117 41.698ZM53.2819 20.3868C54.098 20.861 54.1036 21.6264 53.3053 22.0912L39.5042 30.118C38.7012 30.5851 37.3871 30.5767 36.5748 30.1039L3.01997 10.5851C2.20394 10.1109 2.19833 9.34548 2.99756 8.88115L16.7996 0.853011C17.6025 0.38633 18.9167 0.394327 19.729 0.867124L53.2819 20.3896L53.2805 20.3882L53.2815 20.3873L53.2819 20.3868ZM16.688 62.9244C16.688 63.8606 16.033 64.2379 15.2371 63.7736L1.45046 55.7539C0.648903 55.2868 0 54.1365 0 53.1923V14.1501C0 13.2012 0.665242 12.8188 1.47614 13.2916L35.0221 32.8047C35.8381 33.2784 36.4982 34.4254 36.4982 35.3545V51.4094C36.4982 52.3432 35.839 52.7172 35.0417 52.2529L18.1455 42.4262C17.3402 41.9591 16.6889 42.3462 16.6889 43.273V62.9226L16.688 62.9235V62.9244ZM59.4152 23.8432C59.4152 22.907 60.0702 21.7685 60.8685 21.3042L74.6598 13.2808C75.4618 12.8141 76.113 13.2092 76.113 14.1534V53.1956C76.113 54.1445 75.4478 55.3009 74.6364 55.7713L41.091 75.284C40.2749 75.7582 39.6148 75.3818 39.6148 74.4527V58.3964C39.6148 57.4626 40.2731 56.3217 41.0714 55.8584L57.9592 46.0355C58.7621 45.5683 59.4157 44.4218 59.4157 43.4937L59.4166 23.8418V23.8427H59.4157L59.4152 23.8432ZM42.6128 10.5649C41.8099 10.0982 41.8146 9.33936 42.6128 8.87362L56.4111 0.848777C57.2132 0.382096 58.5189 0.385389 59.3172 0.848777L73.1155 8.87598C73.9175 9.34266 73.9138 10.1015 73.1155 10.5672L59.3181 18.594C58.5161 19.0606 57.2104 19.0573 56.4121 18.594L42.6138 10.5658H42.6128V10.5644V10.5649Z" fill="#252A2E"/>
</svg>
