<svg width="144" height="84" viewBox="0 0 144 84" fill="none" xmlns="http://www.w3.org/2000/svg">
<path d="M80.0439 40.9042C80.0509 41.5114 80.2196 42.1054 80.5321 42.6234C80.8447 43.1415 81.2895 43.5643 81.8196 43.8473C83.1643 44.6236 84.6058 45.2133 86.1054 45.6006C87.7788 46.0181 89.4524 46.5191 91.1261 47.1036C92.7918 47.6405 94.2765 48.6382 95.413 49.9841C96.6343 51.4254 97.269 53.2835 97.1884 55.1816C97.2268 56.4996 96.952 57.8075 96.3873 58.9953C95.8226 60.183 94.9845 61.2158 93.9435 62.0066C91.5828 63.7964 88.684 64.7035 85.7387 64.5741C83.052 64.6525 80.3984 63.9577 78.0853 62.5703C76.0493 61.3366 74.4602 59.4702 73.554 57.2483L78.146 54.5554C78.6198 56.0379 79.596 57.3026 80.9017 58.1254C82.3534 59.0314 84.0344 59.4884 85.7387 59.4404C87.2494 59.499 88.7486 59.1535 90.0858 58.4385C90.6381 58.1066 91.09 57.6275 91.3923 57.0533C91.6945 56.4791 91.8356 55.8319 91.8001 55.1821C91.797 54.5822 91.6293 53.9951 91.3157 53.4863C91.0021 52.9776 90.555 52.5673 90.0245 52.3015C88.6966 51.4904 87.25 50.8986 85.7387 50.5482C84.0652 50.089 82.3917 49.5672 80.7181 48.9826C79.068 48.4138 77.5914 47.4214 76.4323 46.1021C75.218 44.6814 74.5831 42.8453 74.6567 40.9672C74.6294 39.6877 74.8911 38.4188 75.4216 37.2576C75.9522 36.0963 76.7377 35.0733 77.718 34.2667C79.9146 32.4728 82.6744 31.5393 85.4938 31.6364C87.8154 31.5914 90.104 32.1983 92.1064 33.3899C94.0268 34.4752 95.5671 36.1382 96.5146 38.1492L92.045 40.7166C91.524 39.4228 90.605 38.3338 89.4246 37.6116C88.2442 36.8894 86.8654 36.5725 85.4931 36.7079C84.1228 36.6664 82.774 37.0606 81.6358 37.8352C81.1272 38.1592 80.712 38.6137 80.4325 39.1526C80.1529 39.6915 80.0189 40.2958 80.0439 40.9042Z" fill="#1D2947"/>
<path d="M124.318 32.4502H129.645V63.7612H124.318V59.2525C123.3 60.9711 121.838 62.3751 120.09 63.3131C118.342 64.2511 116.375 64.6874 114.4 64.5749C112.803 64.6475 111.209 64.3784 109.721 63.785C108.234 63.1916 106.887 62.2873 105.767 61.1309C103.508 58.5295 102.343 55.1356 102.522 51.6751V32.4502H107.849V51.3617C107.718 53.5377 108.445 55.6773 109.869 57.3108C110.61 58.0217 111.486 58.5717 112.444 58.927C113.402 59.2824 114.422 59.4357 115.441 59.3774C116.624 59.4284 117.806 59.2324 118.912 58.8015C120.017 58.3706 121.024 57.7141 121.869 56.8726C123.663 54.6877 124.542 51.8781 124.318 49.0448V32.4502Z" fill="#1D2947"/>
<path d="M140.449 26.7516C139.738 26.7563 139.042 26.547 138.449 26.1504C137.856 25.7538 137.392 25.1876 137.117 24.5237C136.842 23.8597 136.767 23.1278 136.902 22.4208C137.038 21.7137 137.377 21.0633 137.877 20.552C138.202 20.1888 138.599 19.9003 139.043 19.7059C139.486 19.5114 139.966 19.4156 140.449 19.4249C140.922 19.4202 141.391 19.5183 141.824 19.7127C142.257 19.9071 142.644 20.1933 142.959 20.552C143.626 21.2356 144 22.1582 144 23.1196C144 24.0809 143.626 25.0035 142.959 25.6871C142.635 26.0299 142.245 26.3013 141.813 26.4845C141.382 26.6676 140.917 26.7586 140.449 26.7516ZM137.755 63.7608V32.4497H143.082V63.7608H137.755Z" fill="#1D2947"/>
<path fill-rule="evenodd" clip-rule="evenodd" d="M3.85623 69.4136C6.31792 73.8397 9.89632 77.523 14.2248 80.0862C18.5533 82.6493 23.4762 84 28.4893 84C33.5024 84 38.4253 82.6493 42.7538 80.0862C47.0823 77.523 50.6607 73.8397 53.1224 69.4136C55.6487 64.9791 56.9786 59.9487 56.9786 54.8281C56.9786 49.7075 55.6487 44.6771 53.1224 40.2426L31.4572 1.7572C31.1605 1.22398 30.7294 0.780255 30.2079 0.471486C29.6864 0.162718 29.0933 0 28.4893 0C27.8854 0 27.2922 0.162718 26.7707 0.471486C26.2492 0.780255 25.8181 1.22398 25.5215 1.7572L3.85623 40.2426C1.32997 44.6771 0 49.7075 0 54.8281C0 59.9487 1.32997 64.9791 3.85623 69.4136ZM22.3862 20.0665L27.0054 11.8607C27.1537 11.5941 27.3693 11.3722 27.63 11.2179C27.8908 11.0635 28.1873 10.9821 28.4893 10.9821C28.7913 10.9821 29.0878 11.0635 29.3486 11.2179C29.6093 11.3722 29.8249 11.5941 29.9732 11.8607L47.7439 43.4279C49.3391 46.2268 50.3281 49.3379 50.6451 52.5542C50.962 55.7705 50.5998 59.0184 49.5823 62.0818C49.3613 61.0376 49.0572 60.0132 48.6731 59.0188C46.2185 52.6654 40.6684 47.7627 32.1736 44.4462C26.3335 42.1742 22.6054 38.8327 21.0906 34.5132C19.1397 28.948 21.1774 22.8777 22.3862 20.0665ZM14.5095 34.0586L9.23477 43.4279C7.25994 46.8942 6.22026 50.8264 6.22026 54.829C6.22026 58.8317 7.25994 62.7639 9.23477 66.2302C10.8311 69.0964 13.0305 71.5714 15.6768 73.4792C18.323 75.3871 21.3512 76.6811 24.5463 77.2694C27.7414 77.8577 31.0252 77.7258 34.1644 76.8831C37.3036 76.0405 40.2213 74.5077 42.7103 72.3937C44.0857 68.8296 44.1348 64.88 42.8485 61.2819C41.0459 56.6917 36.706 53.0272 29.9502 50.388C22.3137 47.4171 17.3528 42.779 15.2069 36.6067C14.9179 35.7743 14.6849 34.9229 14.5095 34.0586Z" fill="#1D2947"/>
</svg>
