<svg width="104" height="34" viewBox="0 0 104 34" fill="none" xmlns="http://www.w3.org/2000/svg">
<path d="M33.2999 19.4C31.9999 28.3 23.6999 34.5 14.7999 33.2C5.8999 31.9 -0.300101 23.5 0.999899 14.6C2.2999 5.70001 10.5999 -0.499991 19.4999 0.800009C28.3999 2.20001 34.5999 10.5 33.2999 19.4Z" fill="#0090FF"/>
<path d="M24.4997 7.19998C21.1997 5.09998 18.7997 9.69998 18.7997 9.79998C18.1997 10.9 17.6997 12.7 17.3997 14L13.0997 13.4L12.8997 14.6L17.0997 15.2C16.9997 15.8 16.8997 16.2 16.8997 16.2L16.6997 17.5V17.6L12.4997 17L12.2997 18.2L16.4997 18.8C15.3997 24.3 14.5997 26 13.7997 26.9C13.5997 27.1 12.4997 27.9 11.8997 26.5C11.4997 25.5 10.6997 25.7 10.6997 25.7C10.4997 25.7 9.49966 26.3 11.0997 27.4C14.3997 29.5 16.7997 24.9 16.7997 24.8C17.3997 23.7 18.1997 20.6 18.4997 19.2L22.7997 19.8L22.9997 18.6L18.6997 18C18.7997 17.4 18.8997 17 18.8997 17L19.0997 15.7V15.6L23.2997 16.2L23.4997 15L19.2997 14.4C20.3997 8.89998 20.8997 8.59998 21.6997 7.59998C21.8997 7.39998 22.9997 6.59998 23.5997 7.99998C23.9997 8.99998 24.7997 8.79998 24.7997 8.79998C25.0997 8.89998 26.0997 8.19998 24.4997 7.19998Z" fill="#FEFEFE"/>
<path fill-rule="evenodd" clip-rule="evenodd" d="M47.8001 16.1H41.8001V11.2H48.0001L48.1001 9.70004H40.1001V24.2H41.8001V17.5H47.8001V16.1ZM51.7001 9.70004H50.1001V11.6H51.7001V9.70004ZM51.7001 13.5H50.1001V24.2H51.7001V13.5ZM56.1001 9.60004L54.5001 9.80004V19.7C54.5001 23.2 54.6001 24.5 57.2001 24.5C57.6001 24.5 57.9001 24.4 58.3001 24.4L58.2001 23C57.7001 23 57.6001 23.1 57.3001 23.1C56.2001 23.1 56.1001 22.4 56.1001 20.1V9.60004ZM64.1001 24.4C61.1001 24.4 59.2001 22.2 59.2001 18.8C59.2001 15.6 61.1001 13.3 63.9001 13.2C66.5001 13.2 68.2001 15.2 68.2001 18.3C68.2001 18.5 68.2001 18.9 68.2001 19H60.9001C60.9001 21.4 62.3001 22.9 64.2001 22.9C65.4001 22.9 66.6001 22.5 67.6001 21.8L68.1001 23C67.1001 23.9 65.8001 24.4 64.1001 24.4ZM60.9001 18H66.6001C66.6001 15.7 65.5001 14.6 63.9001 14.6C62.3001 14.6 61.1001 16 60.9001 18ZM77.7001 23.5C77.0001 24.2 75.9001 24.5 74.8001 24.5C71.5001 24.5 69.7001 21.9 69.7001 18.9C69.7001 15.9 71.6001 13.3 74.8001 13.3C76.0001 13.3 77.1001 13.7 77.7001 14.2L77.3001 15.4C76.6001 14.9 75.7001 14.7 74.8001 14.7C72.9001 14.7 71.4001 16.5 71.4001 19C71.4001 21.5 72.8001 23.2 75.0001 23.2C75.9001 23.2 76.7001 22.9 77.4001 22.4L77.7001 23.5ZM87.2001 18.9C87.2001 16.6 86.4001 14.6 84.0001 14.6C81.7001 14.6 80.7001 16.7 80.7001 18.9C80.7001 21.1 81.8001 23.1 84.1001 23.1C86.4001 23.1 87.2001 21.1 87.2001 18.9ZM88.9001 18.9C88.9001 21.8 87.2001 24.5 84.0001 24.5C80.8001 24.5 79.0001 22 79.0001 19C79.0001 16 80.8001 13.4 84.1001 13.4C87.2001 13.3 88.9001 15.8 88.9001 18.9ZM92.8001 9.70004H91.2001V11.6H92.8001V9.70004ZM92.8001 13.5H91.2001V24.2H92.8001V13.5ZM100.5 13.3C99.0001 13.3 97.5001 14 96.7001 15.1L96.6001 13.5H95.2001V16.1V24.2H96.8001V16.9C97.1001 15.9 98.3001 14.7 100.1 14.7C102.1 14.7 102.2 16.1 102.2 18.9V24.2H103.8V17.8C103.9 14.8 102.9 13.3 100.5 13.3Z" fill="#333333"/>
</svg>
