<svg width="288" height="52" viewBox="0 0 288 52" fill="none" xmlns="http://www.w3.org/2000/svg">
<path d="M5.04084 2.57229H14.8345V11.3097H21.8916V18.2709H14.8345V32.6253C14.8345 35.6498 15.7946 36.2259 19.0592 36.2259H21.8916V43.3311H15.6506C7.72929 43.3311 5.04084 41.7948 5.04084 34.3536V18.2709H0V11.3097H5.04084V2.57229ZM55.1132 33.3454C52.2327 40.9307 45.5116 44.1952 39.1265 44.1952C28.7088 44.1952 21.5556 37.9062 21.5556 27.2004C21.5556 16.9267 29.3329 10.4456 38.7424 10.4456C49.4002 10.4456 55.9293 18.5109 55.2572 29.8888H31.4932C31.7813 34.4496 35.3339 36.5139 38.8865 36.5139C42.6311 36.5139 44.9835 35.1697 46.0877 33.2974L55.1132 33.3454ZM31.6373 23.9358H45.5116C45.3195 19.9032 42.5351 17.8868 38.7905 17.8868C35.2379 17.8868 32.1653 19.7111 31.6373 23.9358ZM88.9588 23.0717H79.8373C78.9731 19.3271 76.6207 18.0309 73.7403 18.0309C70.2357 18.0309 66.7791 20.4313 66.7791 27.2964C66.7791 34.2575 70.2357 36.5619 73.7403 36.5619C77.3409 36.5619 79.5972 34.6896 80.3174 31.6171H89.4389C87.2305 41.1227 79.5492 44.1472 73.1162 44.1472C62.5544 44.1472 56.7454 37.3781 56.7454 27.1524C56.7454 16.9267 63.4185 10.3976 73.1162 10.3976C79.7413 10.3976 87.0385 13.4221 88.9588 23.0717ZM100.337 15.5824C101.729 13.1821 105.234 10.6376 110.274 10.6376C118.484 10.6376 121.076 15.4864 121.076 24.1759V43.4271H111.283V26.6723C111.283 22.1115 111.138 18.3669 106.386 18.3669C102.161 18.3669 100.385 21.1034 100.385 27.1044V43.5231H90.5911V0.315918H100.385L100.337 15.5824ZM143.64 20.7673C142.968 18.3669 140.471 17.6948 137.399 17.6948C133.99 17.6948 132.31 18.5109 132.31 20.0952C132.31 21.5834 133.462 22.4476 136.247 22.9757L142.248 24.0319C149.929 25.4241 153.626 27.7285 153.626 33.3454C153.626 40.5466 147 44.1952 138.119 44.1952C129.574 44.1952 123.525 40.5946 122.42 33.0094H131.542C132.406 36.0819 134.902 37.042 138.263 37.042C141.768 37.042 144.216 36.0819 144.216 34.1615C144.216 32.7693 142.968 31.8091 139.175 31.185L133.462 30.2249C127.269 29.2167 123.044 26.0962 123.044 20.4313C123.044 14.0462 129.766 10.5416 137.687 10.5416C144.984 10.5416 151.657 13.4701 152.857 20.8153L143.64 20.7673ZM158.666 2.57229H168.46V11.3097H175.517V18.2709H168.46V32.6253C168.46 35.6498 169.42 36.2259 172.685 36.2259H175.469V43.3311H169.276C161.355 43.3311 158.666 41.7948 158.666 34.3536V18.2709H153.626V11.3097H158.666V2.57229ZM197.889 22.1115C197.889 18.2709 196.065 17.0227 192.464 17.0227C189.295 17.0227 187.183 18.655 186.751 21.7275H177.582C178.062 15.6785 183.775 10.3496 193.28 10.3496C202.546 10.3496 207.779 14.0942 207.587 23.8398L207.442 30.801V34.1615C207.442 37.6661 207.683 41.4588 208.163 43.4271H198.513L198.369 39.5384C195.969 42.947 192.176 44.1952 187.567 44.1952C181.47 44.1952 176.477 40.6426 176.477 34.7856C176.477 26.9123 185.359 24.3679 197.793 23.4078L197.889 22.1115ZM198.177 29.1687C191.312 29.8408 186.751 30.5129 186.751 34.0655C186.751 36.1299 188.719 37.5221 191.264 37.5221C195.2 37.5221 198.177 35.8418 198.177 29.9368V29.1687ZM230.054 20.7673C229.19 20.6233 228.23 20.5273 227.366 20.5753C222.613 20.5753 220.165 22.3036 220.165 27.2964V43.3791H210.323V11.3097H219.781V17.4068C221.269 13.5661 223.957 11.3097 228.518 11.1177H229.238C229.526 11.1177 229.766 11.1177 230.054 11.1657V20.7673ZM251.754 20.7673C251.082 18.3669 248.585 17.6948 245.513 17.6948C242.104 17.6948 240.424 18.5109 240.424 20.0952C240.424 21.5834 241.576 22.4476 244.361 22.9757L250.314 24.0319C257.995 25.4241 261.691 27.7285 261.691 33.3454C261.691 40.5466 255.066 44.1952 246.185 44.1952C237.688 44.1952 231.59 40.5946 230.486 33.0094H239.608C240.472 36.0819 242.968 37.042 246.329 37.042C249.834 37.042 252.282 36.0819 252.282 34.1615C252.282 32.7693 251.034 31.8091 247.241 31.185L241.528 30.2249C235.335 29.2167 231.158 26.0962 231.158 20.4313C231.158 14.0462 237.88 10.5416 245.801 10.5416C253.098 10.5416 259.771 13.4701 260.971 20.8153L251.754 20.7673Z" fill="black"/>
<path d="M261.5 51.6841V43.4268H288V51.6841H261.5Z" fill="#39C463"/>
</svg>
