<svg width="296" height="74" viewBox="0 0 296 74" fill="none" xmlns="http://www.w3.org/2000/svg">
<path fill-rule="evenodd" clip-rule="evenodd" d="M179.763 1.02739C181.869 3.12325 180.217 6.57526 177.079 6.57526C175.758 6.57526 173.776 4.60268 173.776 3.24654C173.776 1.52053 175.386 0 177.285 0C178.318 0 179.102 0.328767 179.763 1.02739ZM192.646 1.06848C192.935 1.47944 193.183 2.50682 193.183 3.32873C193.183 6.2465 189.673 7.64374 187.608 5.54788C186.287 4.27391 186.205 2.01368 187.443 0.780818C188.187 0.0411041 188.682 -0.0410947 190.21 0.123294C191.366 0.246578 192.316 0.61643 192.646 1.06848ZM124.968 8.0136C125.092 14.3012 125.134 14.5477 125.794 13.7258C129.676 8.91769 135.622 1.7671 135.952 1.56163C136.53 1.15067 142.807 1.15067 142.807 1.52053C142.807 1.8082 139.751 5.54788 136.035 9.86289C135.842 10.1076 135.544 10.4713 135.208 10.8812L135.207 10.8825C134.754 11.436 134.232 12.0736 133.805 12.6163L132.401 14.3834L135.457 18.1641C141.981 26.301 145.325 30.8215 145.078 31.2325C144.954 31.4379 143.426 31.6434 141.733 31.6434H138.677L136.448 28.8489C135.209 27.3284 132.649 24.1641 130.749 21.7805C128.107 18.4107 127.074 17.4244 126.207 17.3422L125.051 17.2189V23.7942C125.051 27.3695 124.927 30.616 124.803 30.9859C124.597 31.479 123.977 31.6434 122.367 31.6434C122.064 31.6434 121.788 31.6523 121.534 31.6605C120.797 31.6843 120.26 31.7017 119.871 31.4722C118.835 30.8613 118.839 28.5014 118.853 19.8606C118.855 18.734 118.857 17.5007 118.857 16.1505V1.19177L124.845 1.43834L124.968 8.0136ZM51.6339 6.45197L56.1347 9.45193L58.7361 9.20535C67.8616 8.26017 78.5563 13.6437 85.452 22.6846C89.416 27.8215 91.5632 32.3009 93.9169 40.068C94.9905 43.6843 94.9905 53.876 93.9169 57.328C91.7697 64.1909 88.136 68.3415 82.4377 70.5196C78.1846 72.1223 72.858 72.1223 66.9532 70.5196L62.7001 69.3689L60.14 71.2593C58.7361 72.2867 57.167 73.1497 56.6715 73.1497C55.8044 73.1497 54.0701 71.3004 53.492 69.7388C53.3681 69.3689 52.9552 69.0402 52.6249 69.0402C51.5513 69.0402 51.4274 67.4785 52.4184 66.0813C53.3268 64.8073 53.3268 64.7662 52.5423 64.232C52.1294 63.9443 49.4454 62.1361 46.5962 60.2869C40.6089 56.3417 33.2589 50.9171 33.548 50.6705C33.6718 50.5473 35.9429 51.6157 38.6269 53.0541C57.4973 62.9991 65.9622 66.4512 72.8167 66.8621C77.6065 67.1498 79.5473 66.6155 81.8596 64.3964C88.136 58.3965 85.6585 41.4241 77.0285 31.3557C70.2153 23.4243 62.0395 19.6847 54.1527 20.9586C45.8943 22.2326 38.2965 28.4791 31.6898 39.4515C29.8317 42.5337 23.8856 54.2047 23.8856 54.7801C23.8856 54.9445 23.0185 56.8759 21.9862 59.0129C19.839 63.5334 18.0222 65.7114 15.6272 66.7799C14.1407 67.4374 13.7278 67.4785 12.4065 67.0265C9.92894 66.1635 7.90563 64.6841 6.17136 62.3827C2.70284 57.78 0.431776 51.8212 0.0601484 46.2733C-0.187605 41.8761 0.307899 39.5748 1.95958 37.7255C4.56098 34.8077 11.209 36.1639 19.4674 41.2597C20.3758 41.835 20.3758 42.4926 19.4674 42.1227C17.4854 41.3008 12.6955 40.2734 10.8787 40.2734C9.72248 40.2734 8.19467 40.6022 7.36883 41.0131C6.17136 41.5885 5.79974 42.1227 5.13907 44.1364C4.4371 46.2733 4.39581 46.8487 4.85002 49.2733C6.21266 56.6294 9.92894 62.4649 13.2323 62.4649C15.8337 62.4649 17.2789 60.2458 21.5733 49.7254C28.3865 32.9174 31.3182 27.2873 36.3558 21.3285C37.223 20.3011 37.9249 19.3559 37.9249 19.1915C37.9249 19.0682 37.4707 18.2463 36.8926 17.4244C35.3235 15.082 35.53 13.1505 37.512 12.1231C38.3791 11.6711 38.6269 11.3012 38.4617 10.6848C38.1727 9.57522 39.3701 7.84921 40.8567 7.31497C41.5173 7.1095 42.0541 6.65744 42.0541 6.32869C42.0541 5.38349 43.3342 3.65748 44.2839 3.28763C45.6878 2.75339 46.8853 3.24654 51.6339 6.45197ZM164.485 9.82178C167.086 11.5478 168.408 13.1505 169.316 15.7806C170.803 20.1367 169.977 24.9038 167.128 28.1092C164.774 30.7804 162.709 31.7256 158.828 31.9722C153.13 32.3009 148.918 30.164 146.647 25.7257C145.738 23.9586 145.532 23.0545 145.532 20.1367C145.491 17.26 145.656 16.3148 146.44 14.7943C148.133 11.5889 150.115 9.90398 153.955 8.46564C154.286 8.34236 156.35 8.30126 158.498 8.34236C162.173 8.46564 162.544 8.54783 164.485 9.82178ZM181.126 19.8901C181.208 28.4791 181.084 31.027 180.713 31.3146C180.093 31.6845 176.625 31.7667 175.675 31.3968C175.097 31.1914 175.014 29.9996 175.014 22.397V13.6026L173.693 13.4793C172.333 13.3562 172.33 13.315 172.207 10.9837L172.207 10.9725L172.083 8.58892L181.002 8.8355L181.126 19.8901ZM193.513 19.8901C193.596 28.4791 193.472 31.027 193.1 31.3146C192.357 31.7667 189.136 31.7256 188.187 31.2325C187.443 30.8215 187.402 30.2873 187.402 22.1915V13.6026L186.081 13.4793C184.801 13.356 184.718 13.2738 184.594 11.5478C184.506 10.2895 184.456 9.5663 184.792 9.16014C185.246 8.61122 186.407 8.64136 189.136 8.71222L193.389 8.8355L193.513 19.8901ZM71.9082 35.9584C73.849 36.9036 74.7987 38.4241 74.7574 40.52C74.7161 45.3282 69.0591 47.3007 66.0035 43.6432C63.8976 41.0953 64.517 37.8899 67.4487 36.1228C68.9765 35.1776 70.2153 35.1365 71.9082 35.9584ZM134.796 55.1499C138.099 61.7663 140.99 67.3552 141.196 67.5607C141.403 67.8073 141.568 62.8348 141.568 55.5609V43.1501H147.349V73.1908L137.356 72.9442L131.08 60.6156L124.845 48.287L124.432 72.9442L118.857 73.1908V43.1501H128.726L134.796 55.1499ZM279.896 52.0267C279.896 58.2321 280.02 60.78 280.35 60.6156C280.598 60.4512 282.539 58.1088 284.686 55.4376L288.609 50.5473H291.458C293.151 50.5473 294.348 50.7116 294.348 50.9582C294.348 51.2048 292.779 53.3417 290.839 55.7253C288.898 58.1088 287.329 60.2047 287.329 60.328C287.329 60.4923 289.269 63.2457 291.664 66.4922C294.059 69.6977 296 72.5333 296 72.7387C296 72.9853 294.637 73.1497 292.82 73.1086H289.6L286.049 68.095C282.91 63.6567 282.374 63.0813 281.3 63.0813H280.103L279.855 73.1497H274.115V43.1501H279.896V52.0267ZM184.305 44.5884L184.553 50.5473H191.118V55.0677H188.145C186.494 55.0677 184.883 55.2321 184.594 55.4376C184.14 55.6842 184.057 56.9992 184.181 61.1499C184.346 67.8484 184.594 68.2182 188.517 68.2182H191.118V73.6839L187.485 73.4785C183.149 73.2319 181.167 72.41 179.887 70.3141C179.02 68.9991 178.937 68.1772 178.731 62.054L178.524 55.2732L174.973 55.0267L175.221 50.7527L176.996 50.6295L178.731 50.5062V44.3419L184.305 44.5884ZM166.591 50.3829C170.844 51.8212 173.363 54.9445 174.23 59.9581L174.277 60.2146C174.512 61.4831 174.661 62.2899 174.339 62.8029C173.775 63.6992 171.772 63.6989 166.267 63.6978L165.268 63.6977C159.834 63.6973 157.966 63.6972 157.675 64.3717C157.522 64.7248 157.802 65.263 158.228 66.0829L158.291 66.2046C159.2 67.9306 161.223 69.0402 163.453 69.0402C165.393 69.0402 167.83 67.8895 168.243 66.7799C168.449 66.3279 169.192 66.1635 171.174 66.1635H173.858L173.61 67.2731C172.702 71.0949 168.903 73.6839 163.866 73.8894C158.911 74.136 155.236 72.0812 153.13 67.9306C151.932 65.5882 151.519 60.9855 152.262 58.0677C153.832 51.9856 160.521 48.3692 166.591 50.3829ZM244.591 50.3007C247.564 51.0815 248.968 51.9034 250.868 53.9582C253.015 56.2595 253.676 58.191 253.676 62.2594C253.634 66.2046 252.561 68.7114 249.918 71.0538C246.739 73.8072 241.164 74.7935 236.829 73.3141C234.475 72.5333 231.584 70.0265 230.304 67.7251C229.024 65.3416 228.9 58.9718 230.098 56.7116C232.039 53.1363 234.227 51.4103 238.109 50.3418C240.669 49.6432 242.073 49.6021 244.591 50.3007ZM199.624 55.6842C200.368 58.3965 201.4 62.3416 201.896 64.3964C202.432 66.4922 202.969 68.2182 203.176 68.2182C203.54 68.2182 203.587 67.9806 204.876 61.4091L204.876 61.4086L204.951 61.0266C205.478 58.1215 206.164 54.8202 206.424 53.5732L206.424 53.5693L206.438 53.5061L206.933 51.3692H210.154C211.971 51.3692 213.499 51.5746 213.622 51.8212C213.788 52.0267 214.448 54.6979 215.109 57.6567C216.183 62.5882 216.884 65.4649 217.421 67.5607C217.752 68.7936 218.288 67.7662 219.032 64.5197C219.403 62.8348 219.94 60.4101 220.229 59.1773C220.248 59.0979 220.267 59.0144 220.288 58.927L220.334 58.7296L220.362 58.6098L220.363 58.6082L220.38 58.5352L220.383 58.5216C220.683 57.2474 221.107 55.4435 221.385 54.1637C221.716 52.6431 222.129 51.2459 222.294 50.9993C222.418 50.7527 223.656 50.5473 225.019 50.5473C226.96 50.5473 227.455 50.6705 227.455 51.2048C227.455 51.5746 226.629 55.2321 225.638 59.3417C225.403 60.3079 225.158 61.3159 224.916 62.3145L224.915 62.3189C224.137 65.523 223.383 68.6288 223.037 69.9443L222.294 73.1497H213.829L213.581 71.999C213.457 71.3826 213.086 69.9443 212.797 68.8347C212.508 67.684 211.847 64.9717 211.31 62.7526C210.815 60.5334 210.278 58.8896 210.113 59.054C209.824 59.3828 208.956 63.4101 207.883 69.4511C207.594 70.9305 207.222 72.3689 207.057 72.6565C206.851 72.9853 205.405 73.1497 202.68 73.1497H198.592L198.097 71.3826C197.88 70.557 197.506 69.2299 197.223 68.2226L197.106 67.8073C196.713 66.4716 196.294 64.9292 195.191 60.8665C194.903 59.8045 194.568 58.5703 194.174 57.1225C193.844 55.8897 193.389 54.2869 193.183 53.5883C192.935 52.8897 192.77 51.9445 192.77 51.4103C192.77 50.5473 192.935 50.5062 195.495 50.6295L198.262 50.7527L199.624 55.6842ZM262.347 50.7527L262.595 56.0129L263.421 54.3691C264.618 51.9445 266.352 50.8349 269.119 50.7938L271.431 50.7527V55.2321L269.16 55.6842C264.205 56.6705 263.792 57.5335 263.792 66.5333V73.1497H257.598V62.1361C257.598 56.054 257.722 50.9582 257.887 50.7938C258.053 50.6295 259.126 50.5473 260.282 50.6295L262.347 50.7527ZM151.726 17.7532C152.056 16.2327 154.368 13.6847 155.69 13.4382C161.512 12.3286 165.352 16.7258 163.659 22.5202C162.792 25.438 160.934 26.8352 157.961 26.8352C155.112 26.8763 153.419 25.9312 152.345 23.712C151.478 21.9038 151.272 20.0134 151.726 17.7532ZM238.646 55.7664C236.416 56.917 235.549 58.3965 235.383 61.3553C235.136 65.5471 236.787 68.095 240.297 68.8347C242.981 69.4511 246.285 67.5607 247.193 64.9717C248.267 61.8896 247.234 57.5335 245.087 56.0951C243.477 55.0677 240.297 54.9034 238.646 55.7664ZM161.594 55.15C160.934 55.3966 160.025 55.8897 159.571 56.2596C158.869 56.876 157.672 58.8486 157.672 59.3828C157.672 59.5061 160.108 59.5883 163.04 59.5883C166.508 59.5883 168.408 59.4239 168.408 59.1773C168.408 58.9308 168.119 58.191 167.788 57.5335C166.756 55.5609 163.783 54.4103 161.594 55.15Z" fill="black"/>
</svg>
