<svg xmlns="http://www.w3.org/2000/svg" width="43" height="43" viewBox="0 0 43 43">
    <g fill="none" fill-rule="nonzero">
        <path stroke="#BBBEC8" stroke-width="2" d="M33 14.864L27.02 9H13.564c-.662 0-.864.039-1.07.149a.818.818 0 0 0-.345.346c-.11.205-.149.407-.149 1.069v23.872c0 .662.039.864.149 1.07a.818.818 0 0 0 .346.345c.205.11.407.149 1.069.149h16.59c1.068 0 1.449-.073 1.84-.283.314-.168.555-.409.723-.723.21-.391.283-.772.283-1.84v-18.29z"/>
        <path fill="#FFF" stroke="#576FED" d="M32.5 13.654L26.224 7.5h-13.66c-.737 0-1.017.054-1.305.208a1.317 1.317 0 0 0-.551.551c-.154.288-.208.568-.208 1.305v23.872c0 .737.054 1.017.208 1.305.128.239.312.423.551.551.288.154.568.208 1.305.208h17.872c.737 0 1.017-.054 1.305-.208.239-.128.423-.312.551-.551.154-.288.208-.568.208-1.305V13.654z"/>
        <path fill="#A5BCFF" stroke="#576FED" d="M25.5 7.5V13a1.5 1.5 0 0 0 1.51 1.5l5.49-.034v-.668L26.057 7.5H25.5z"/>
        <path fill="#576FED" d="M15 17h12v2H15zM15 22h12v2H15zM15 27h12v2H15z"/>
    </g>
</svg>
