<svg xmlns="http://www.w3.org/2000/svg" xmlns:xlink="http://www.w3.org/1999/xlink" width="202" height="139" viewBox="0 0 202 139">
    <defs>
        <path id="a" d="M.024.086h183.924v17.032H.024z"/>
        <path id="c" d="M0 .105h95.787v77.48H0z"/>
        <path id="e" d="M.324.477H107.36v132.01H.324z"/>
    </defs>
    <g fill="none" fill-rule="evenodd">
        <g transform="translate(17.375 121.882)">
            <mask id="b" fill="#fff">
                <use xlink:href="#a"/>
            </mask>
            <path fill="#DDE5FF" d="M163.548 1.972c-.143.665-.331 1.443-.541 2.068-.461 1.372-2.208 2.475-3.468 3.042-1.26.567-6.544.728-11.574.893l-26.041.854c-6.283.205-35.606.93-41.009 1.048-5.402.119-14.197-.053-17.58-.563-3.385-.51-4.818-5.2-5.081-6.472-.129-.623-.13-1.76-.1-2.756C24.107.852.024 3.106.024 8.436c0 6.481 41.173 8.682 91.962 8.682 50.79 0 91.962-3.886 91.962-8.681 0-3.108-7.643-5.148-20.4-6.465" mask="url(#b)"/>
        </g>
        <path fill="#B9FABA" d="M11.333 50.67L0 53.346 3.013 63.68l11.582-2.824s-1.62-3.44-1.958-4.73c-.339-1.291-1.304-5.456-1.304-5.456M82.026 41.084l-26.823 5.508-.298 3.393 27.8-5.436z"/>
        <path fill="#7699FF" d="M63.94 91.754c-.062.053-2.589 2.316-15.037 2.234-12.447-.082-19.018-1.789-19.018-1.789s2.624 15.857 3.052 19.514c.429 3.657 2.39 16.308 2.915 17.736.526 1.427.895 2.884 1.635 2.685.741-.199 4.594-12.911 5.964-20.181 1.37-7.27 3.953-8.152 5.432-7.803 1.48.349 2.378 1.8 3.02 11.579.64 9.779 3.522 16.176 4.497 15.946.975-.23 2.832-2.322 4.22-10.991 1.39-8.669 3.32-28.93 3.32-28.93"/>
        <path fill="#B9FABA" d="M13.205 54.762l26.41-5.462v2.731l-1.936 1.544-23.683 4.627zM89.655 38.345l.796 4.108 4.069-2.759z"/>
        <path fill="#FEF0A9" d="M49.268 60.272c-.852-.127-1.426.538-1.294 1.302.132.763.68 1.622 1.432 1.38.754-.243 1.543-.826 1.276-1.32-.267-.495-.907-1.287-1.414-1.362M48.66 64.716s-.822 1.337-1.156 3.456c-.335 2.12.183 5.757-.81 8.065-.995 2.308-2.214 5.989-2.214 5.989l4.18 4.735s3.268-3.066 3.447-4.546c.179-1.48-1.008-7.853-1.03-9.1-.023-1.246-.318-5.33-.573-5.997-.256-.667-1.063-3.072-1.36-2.949a1.372 1.372 0 0 0-.483.347M47.68 31.298c-2.185.447-3.29 3.5-5.616 5.157-2.326 1.658-7.113 1.658-9.162-.328-2.05-1.984-1.903-6.003-.98-7.859.602-1.213 3.604-5.26 9.827-4.973 6.224.287 7.667.935 11.011 2.722 1.591.85 3.835 4.088 2.358 5.71-2.87 3.152-5.239-.88-7.439-.43"/>
        <path fill="#4B4B78" d="M47 48.475c.946.258 1.899.152 2.784-.234.578-.252.075-1.063-.5-.813a3.009 3.009 0 0 1-1.707.211 3.21 3.21 0 0 1-.696-.201 8.536 8.536 0 0 1-.595-.304c.033-.188-.08-.366-.236-.472a.557.557 0 0 0-.511-.067c-.206.067-.366.238-.364.454.008.768 1.173 1.248 1.826 1.426M63.63 92.918c-.566 10.075-2.018 20.08-4.419 29.887-.479 1.956-.74 4.933-1.89 6.64-1.093 1.62-1.706.664-2.368-.636-.683-1.342-1.13-2.906-1.5-4.361-1.177-4.618-1.297-9.407-1.792-14.123-.204-1.945-.047-6.839-2.706-7.37-2.584-.518-4.481 3.956-5.209 5.71-1.655 3.988-2.39 8.311-3.292 12.509-.477 2.223-.98 4.444-1.657 6.618-.302.972-.577 2.957-1.628 2.885-1.1-.075-1.596-2.859-1.867-3.873-1.424-5.324-1.756-10.945-2.394-16.4l-2.015-17.23c-.074-.629-1.078-.636-1.004 0l1.903 16.273c.6 5.132.99 10.35 2.03 15.42.288 1.397 1.11 7.913 3.749 7.237 1.242-.32 1.585-2.196 1.916-3.183.87-2.59 1.46-5.262 2.03-7.929 1.039-4.86 1.781-10.318 4.496-14.597.283-.445 1.033-1.662 1.33-1.744l1.304.436c.966-.087 1.447.26 1.442 1.044.614.964.444 3.005.568 4.194.274 2.616.434 5.243.722 7.857.43 3.918.924 9.026 3.358 12.315 2.054 2.778 3.354.102 4.043-2.115 3.535-11.393 5.186-23.594 5.854-35.464.036-.64-.968-.638-1.004 0"/>
        <g transform="translate(0 24.65)">
            <mask id="d" fill="#fff">
                <use xlink:href="#c"/>
            </mask>
            <path fill="#4B4B78" d="M59.666 31.506a21.333 21.333 0 0 0-1.578-2.431l-.056-.07c5.491-1.196 11.03-2.29 16.498-3.603-3.041 4.753-8.454 8.496-14.265 6.037a.616.616 0 0 0-.6.067m2.122 7.636c2.379 7.701 2.522 15.882.59 23.69a.455.455 0 0 0 .127.45 78.997 78.997 0 0 1-13.2 1.667c-1.284-.474-3.006-.277-4.208-.077a.424.424 0 0 0-.25.135 78.862 78.862 0 0 1-14.79-1.64.455.455 0 0 0-.202.006l.003-.282v-.002a.424.424 0 0 0 .003-.29c.038-6.04.623-12.065 1.983-17.962a69.936 69.936 0 0 1 2.413-8.18c1.01-2.779 2.357-7.871 5.57-8.954.279-.094.394-.331.35-.611-.698-4.436-.758-8.948-.032-13.386.236-1.442.507-3.105.994-4.683.273.151.549.35.83.61.47.437 1.182-.265.71-.703a6.335 6.335 0 0 0-1.2-.89c.48-1.248 1.132-2.393 2.052-3.274.196.234.355.544.465.949.167.618 1.136.356.969-.264-.144-.534-.331-.997-.583-1.375.469-.31.938-.53 1.404-.673.341.3.683.753.425 1.133-.361.533.509 1.032.867.503.397-.588.22-1.284-.15-1.836a4.953 4.953 0 0 1 2.192.42c.162.415.285.894.358 1.45.081.626 1.087.634 1.004 0a6.717 6.717 0 0 0-.147-.765c.428.303.831.657 1.205 1.046-.128.376.206.843.585.672.837 1.05 1.47 2.27 1.803 3.442 1.108 3.901.584 8.339.537 12.338-.015 1.318-.474 3.49.034 4.682.038.091.087.176.136.262a.578.578 0 0 0-.138.125l-.27.35a.426.426 0 0 0-.097.258c-2.94 4.45-9.46 3.866-13.033.15-.447-.464-1.156.24-.71.704 4.148 4.314 11.78 4.715 14.88-.794.335.333.708.642 1.036.966-.182.32.084.853.566.746l.066-.014c.066.085.135.168.202.253l-.132.136a.467.467 0 0 0-.125.259c-.942 1.316-2.038 2.478-3.387 3.41-1.65 1.14-2.764.74-4.112-.628-.18-.182-.534-.202-.71 0l-1.037 1.186c-.442.787-1 .933-1.676.439-.994-.057-2.148-.866-3.02-1.302-1.79-.895-3.461-1.97-5.059-3.17-.514-.386-1.015.477-.506.859 2.32 1.741 4.813 3.195 7.519 4.267.625.247 1.579.847 2.277.649.811-.23 1.133-1.556 1.879-1.643.681-.08 1.172 1.348 1.918 1.531.582.143 1.176-.255 1.669-.496 2.101-1.025 3.805-2.76 5.138-4.641 1.848 2.644 3.078 5.76 4.015 8.792m1.876 24.902c.239.77.15.837-.477 2.013-.785 1.472-1.218 1.418-2.582 1.542l-.21-2.238c.245-.127.386-.433.208-.692a81.371 81.371 0 0 0 3.06-.625m-8.413 4.037c-1.538.101-3.078.173-4.619.227.688-.625.445-1.708-.073-2.435a79.975 79.975 0 0 0 8.79-.981l.262 2.808c-1.45.159-2.905.285-4.36.38m-5.8-.38c-.601.208-1.534.12-2.174.158-.43.026-.99.1-1.4-.045-.797-.283-.81-.891-.6-1.607a.498.498 0 0 0 .018-.21c1.27.012 2.539 0 3.807-.049.083.034.168.066.242.113.669.432 1.016 1.329.108 1.64m-12.157.702c-.444-.031-.89-.07-1.334-.117a.493.493 0 0 0 .04-.492c-.365-.79-.352-1.636-.048-2.438a80.22 80.22 0 0 0 8.347.624c-.296 1.048-.088 1.967.664 2.48-2.556.061-5.119.121-7.669-.057m-5.146-.785c-.489-.126-1.29-.228-1.706-.513-1.105-.756-1.154-1.876-.912-2.938.059.073.138.134.26.16 1.711.355 3.43.647 5.153.89-.338.983-.268 2.006.14 2.959a25.177 25.177 0 0 1-2.935-.558m-3.285-5.21c-.235-.654-.658-1.33-.97-1.85-1.857-3.1-4.304-5.856-5.813-9.158a16.64 16.64 0 0 1-1.501-6.104c-.15-3.142.794-5.077 3.387-6.88 3.272-2.274 6.944-4.048 10.656-5.485.028-.01.045-.03.069-.044a67.673 67.673 0 0 0-3.161 9.072c-1.8 6.673-2.595 13.553-2.667 20.45M69.02 14.913c.067-1.253 1.095-2.35 2.46-2.753 1.208-.357 4.062-.258 4.997 1.021-2.47.647-4.957 1.224-7.457 1.732m6.373 10.995a.473.473 0 0 0 .126-.17l.049-.104a.5.5 0 0 0-.022-.476c.903-.222 1.803-.45 2.7-.688 6.477-1.714 11.906-5.303 17.307-9.114.32-.227.34-.815-.12-.91-3.329-.683-6.655-1.375-9.986-2.05-2.909-.59-4.999-.278-7.863.497l-.09.024c-1.073-2.041-4.836-2.296-6.721-1.565-1.659.644-2.776 2.157-2.759 3.762-3.74.73-7.51 1.314-11.305 1.744-.634.072-.642 1.067 0 .994 3.846-.435 7.67-1.014 11.465-1.75.106.334.26.666.481.987.362.527 1.232.03.867-.502a3.005 3.005 0 0 1-.355-.686c1.962-.395 3.916-.83 5.86-1.313.722-.18 1.422-.37 2.11-.55a.57.57 0 0 0 .38-.1c1.294-.336 2.554-.628 3.849-.757a.52.52 0 0 0-.005.19l1.348 7.76c.109.63 1.077.362.968-.265l-1.345-7.747a12.27 12.27 0 0 1 2.848.236c2.965.601 5.928 1.216 8.891 1.826-5.273 3.677-10.58 6.954-16.933 8.545-6.564 1.644-13.226 2.967-19.838 4.418-.912-1.005-1.759-1.834-1.866-3.36-.436-6.169 1.87-14.267-2.509-19.525-.007-.01-.017-.017-.025-.026.53-.838.548-1.905-.119-2.773-.386-.502-1.259-.008-.868.502.353.458.461 1.03.273 1.522a8.09 8.09 0 0 0-2.374-1.56c-.715-1.374-1.94-2.43-3.603-2.75-3.414-.66-7.971 3.673-10.909 1.81-.545-.345-1.05.515-.507.86 1.638 1.038 3.59.366 5.274-.277C42.756 1.541 46.6.334 48.462 2.5a6.482 6.482 0 0 0-2.305-.07c-.599-.418-1.324-.643-2.031-.818-.628-.156-.895.802-.267.958.296.074.595.151.884.254-.363.15-.716.335-1.055.562-.394-.242-.89-.365-1.524-.339-3.084.128-5.319 2.768-8.586 1.748-.618-.193-.883.766-.267.959 1.515.473 2.913.324 4.409-.167 1.222-.401 3.47-1.753 4.963-1.355a7.296 7.296 0 0 0-.908 1.106 12.64 12.64 0 0 0-1.19 2.331 3.586 3.586 0 0 0-1.956.009c-2.188.6-3.652 2.708-6.068 2.587-.646-.032-.644.962 0 .995 2.825.14 5.142-3.022 7.655-2.572-.613 1.89-.936 3.907-1.196 5.79-.573 4.146-.487 8.297.125 12.427-2.2.942-3.182 3.075-4.126 5.201-.028.062-.053.127-.08.19-.06-.25-.276-.443-.585-.323-1.089.42-2.163.874-3.224 1.354.21-.31-.055-.873-.55-.777a553.8 553.8 0 0 0-26.958 5.92l-2.5-9.26c3.534-.74 7.07-1.479 10.604-2.217.208 2.959.993 5.776 2.364 8.427.295.57 1.162.068.867-.502a20.19 20.19 0 0 1-2.242-8.132l24.79-5.183c.633-.133.365-1.091-.266-.96L.367 28.353c-.268.056-.418.364-.351.612L2.779 39.2c.07.264.355.411.617.347a553.724 553.724 0 0 1 27.239-5.996 52.87 52.87 0 0 0-6.452 3.53c-2.578 1.664-4.359 3.368-4.602 6.554-.258 3.383.749 6.806 2.39 9.743.951 1.702 2.104 3.281 3.21 4.886.361.522 3.627 4.986 2.459 5.314-.621.174-.357 1.134.266.96.235-.067.415-.156.568-.256-.172.88-.189 1.812.194 2.573.643 1.284 2.375 1.522 3.645 1.823 1.57.373 3.167.588 4.773.708.06 1.327-.018 2.68-1.087 3.639-.887.796-2.1 1.128-3.28 1.025-.643-.055-.64.94 0 .995 1.438.124 2.925-.346 3.99-1.317 1.252-1.141 1.436-2.7 1.381-4.278 2.78.142 5.585.034 8.35-.03.593-.014 1.187-.028 1.78-.044-.74.515-.484 1.476-.352 2.275.265 1.622 1.06 3.943-.756 5.002-.556.325-.052 1.185.507.859.929-.542 1.424-1.385 1.6-2.43.1-.603.065-1.196-.025-1.797-.072-.488-.757-2.873-.428-3.083.346-.22.265-.65.02-.842 2.557-.072 5.115-.176 7.665-.37.002.017-.004.031 0 .049.59 3.129 2.029 6.664 5.921 6.19.633-.076.64-1.072 0-.994-3.357.409-4.409-2.662-4.925-5.323a83.79 83.79 0 0 0 3.78-.405c3.295-.433 4.287-2.018 3.26-5.177a.515.515 0 0 0-.619-.347c-.174.04-.348.075-.523.115v-.003c1.66-6.706 1.838-13.68.392-20.444-.692-3.239-1.74-6.425-3.17-9.42-.104-.218-.216-.433-.325-.648a.547.547 0 0 0 .132-.045c6.108 2.195 11.76-1.527 15.019-6.63" mask="url(#d)"/>
        </g>
        <path fill="#4B4B78" d="M48.699 86.358c-.47-.59-.944-1.176-1.44-1.749-.685-.792-2.223-1.853-2.129-2.987.04-.473.57-1.343.721-1.753.41-1.104.73-2.237.995-3.379.412-1.767.671-3.566.867-5.366.127-1.174.172-2.355.299-3.527.015-.141.307-1.755.695-2.484 2.759 2.867 1.817 7.513 2.158 11.082.145 1.519.554 3.042.654 4.553.157 2.377-1.336 3.847-2.82 5.61m-.28-24.565c-.04-.456.247-.859.568-1.186.088.03.167.062.185.072.219.119.393.346.495.56.2.422.182 1.043-.35 1.246-.495.189-.862-.264-.898-.692m3.411 13.513c-.256-3.401.344-7.265-1.786-10.166.217-.127.354-.384.195-.657-.347-.598-.368-.596-.93-.996a1.756 1.756 0 0 0 1.04-.53c.812-.841.508-2.166-.318-2.894a1.888 1.888 0 0 0-.997-.445.503.503 0 0 0-.443.01c-.387.062-.731.275-.906.697a.385.385 0 0 0 .007.337c-.35.637-.454 1.364-.027 2.046.27.432.688.681 1.136.759a.76.76 0 0 0-.139.084c-1.936 1.486-1.672 4.12-1.861 6.25-.374 4.18-1.113 8.281-2.952 12.123-.1.21-.09.425.081.598a58.44 58.44 0 0 1 4.312 4.888c.25.316.65.312.899 0 1.105-1.386 3.306-3.19 3.644-4.966.147-.766-.21-1.673-.344-2.398a44.929 44.929 0 0 1-.61-4.74M35.798 33.235c.599-.12.345-.928-.254-.808-.735.147-2.147.661-2.67-.05-.333-.453-1.16-.033-.826.422.861 1.172 2.48.69 3.75.436"/>
        <g transform="translate(75.06)">
            <mask id="f" fill="#fff">
                <use xlink:href="#e"/>
            </mask>
            <path fill="#4B4B78" d="M106.642 107.238a.398.398 0 0 0-.21-.312c.13-16.382-.502-32.754-.926-49.128-.215-8.312-.37-16.626-.333-24.94.02-4.236.09-8.472.227-12.706.13-4.034.918-8.383.562-12.394-.537-6.053-7.922-6.613-12.613-6.66-8.592-.083-17.185-.155-25.777-.233L42.29.635C34.06.561 25.74.178 17.534.964c-5.352.512-15.222 1.003-16.44 7.638-.751 4.084-.13 8.723-.027 12.859.12 4.729.307 9.456.554 14.18.033.635 1.04.639 1.006 0a505.197 505.197 0 0 1-.7-23.085c-.012-1.779-.18-3.839.696-5.471.926-1.725 2.784-2.61 4.575-3.209 3.582-1.198 7.512-1.69 11.261-2.004 7.419-.622 14.91-.326 22.344-.259l23.299.212 22.803.207c3.43.03 6.928-.137 10.345.188 2.19.207 4.433.776 6.04 2.35 1.866 1.827 1.66 3.916 1.521 6.303-.883 15.136-.726 30.308-.349 45.457.431 17.286 1.136 34.568.957 51.862-.003.283.196.433.416.465.404 3.018.588 6.054.5 9.1-.092 3.238.135 8.14-2.91 10.226-2.344 1.607-5.865 1.306-8.572 1.396l-10.433.347c-12.983.431-25.966.894-38.952 1.243-6.688.18-13.377.326-20.066.407-3.178.039-6.356.063-9.533.07-3.125.006-6.658.37-9.696-.528-6.766-2-4.632-11.122-4.396-16.33.286-6.334.487-12.672.605-19.011.271-14.631.082-29.267-.536-43.887-.027-.636-1.034-.64-1.007 0 .619 14.62.807 29.256.536 43.887a715.547 715.547 0 0 1-.72 21.448c-.213 4.383-1.457 10.721 2.82 13.72 1.837 1.288 4.151 1.569 6.348 1.662 3.841.162 7.721.032 11.565.001 7.36-.06 14.717-.204 22.074-.394 14.98-.387 29.956-.931 44.933-1.429 3.7-.123 7.481-.03 11.165-.434 2.221-.242 4.469-.859 5.859-2.709 1.77-2.354 1.76-5.936 1.888-8.737.177-3.843-.085-7.666-.665-11.467" mask="url(#f)"/>
        </g>
        <path fill="#4B4B78" d="M174.01 10.694c-1.616-1.568-4.056-2.027-6.201-2.357-7.492-1.153-15.108-1.763-22.68-2.064-15.654-.622-31.308 1.633-46.928.44-5.587-.427-14.185-1.09-15.711 5.898-.706 3.23-.274 6.776-.234 10.045l.16 13.264c.009.636 1.01.638 1.003 0-.082-6.77-.42-13.59-.226-20.359.123-4.31 1.8-6.99 6.38-7.827 3.427-.627 6.946-.133 10.386.102 14.21.97 28.472-1.067 42.708-.658 7.056.203 14.101.738 21.105 1.61 2.876.357 7.276.427 9.53 2.605 1.48 1.432 1.262 3.652 1.191 5.513-.074 1.95-.146 3.9-.201 5.849-.406 14.324-.192 28.654-.006 42.98.101 7.817.196 15.635.179 23.454a957.012 957.012 0 0 1-.107 11.44c-.05 3.538-.288 7.096.683 10.542.106.375.508.42.766.26.208 2.155.3 4.325.148 6.487-.16 2.262-.346 3.807-2.973 4.67-1.531.503-3.302.597-4.905.688-5.5.31-11.076-.107-16.58-.17a796.588 796.588 0 0 0-33.79.323c-5.598.173-11.191.426-16.785.694-2.518.121-5.04.226-7.563.18a50.736 50.736 0 0 1-3.767-.194c-2.908-.27-4.902-.338-5.739-3.732-.592-2.4-.46-5.234-.585-7.697-.139-2.731-.21-5.465-.239-8.2-.06-5.474.051-10.948.149-16.422l.663-37.309c.011-.636-.99-.636-1.001 0l-.673 37.793c-.109 6.117-.23 12.235-.103 18.352.06 2.894.175 5.788.374 8.675.15 2.165-.179 5.399 1.085 7.31.912 1.376 2.583 1.769 4.126 2 2.973.443 6.019.466 9.018.397 6.353-.147 12.702-.583 19.053-.795 12.583-.42 25.176-.54 37.764-.362 3.6.051 7.199.176 10.798.21 3.05.03 6.386.051 9.325-.879 4.886-1.547 3.551-8.925 3.133-12.75-.05-.466-.62-.587-.88-.357-.84-3.466-.535-7.097-.487-10.635.052-3.832.09-7.664.095-11.496.009-7.82-.09-15.637-.193-23.455-.204-15.624-.423-31.258.182-46.876.096-2.497.535-5.264-1.447-7.187"/>
        <path fill="#4B4B78" d="M94.448 27.38c3.784-.703 7.565-.988 11.41-.997 1.692-.003 3.383.015 5.073.025.946.006 1.89.01 2.836.017.234.001 1.585-.084 2.507-.24.004.105.04.212.139.308l.082.08c.192.187.51.184.703 0l.114-.109a.485.485 0 0 0 0-.688c-.782-.747-2.573-.317-3.545-.323-2.189-.013-4.377-.032-6.566-.04-4.39-.014-8.697.227-13.017 1.03-.628.116-.362 1.052.264.936M94.312 32.867l49.066-.533c.648-.008.65-.844 0-.836l-49.066.533c-.648.007-.65.843 0 .836M99.175 39.68c14.04-.153 28.08-.141 42.12.034.646.008.647-1.22 0-1.228-14.04-.176-28.08-.188-42.12-.034-.646.007-.647 1.235 0 1.228M93.613 51.355l23.359-.102c.643-.003.645-1.27 0-1.268l-23.359.102c-.643.003-.645 1.27 0 1.268M142.687 55.466a324.51 324.51 0 0 1-48.374 1.43c-.651-.029-.65.947 0 .976a324.51 324.51 0 0 0 48.374-1.43c.64-.067.647-1.043 0-.976M141.99 63.223c-15.435.14-30.87-.165-46.291-.912-.646-.032-.644 1.077 0 1.109a806.195 806.195 0 0 0 46.292.912c.645-.006.646-1.115 0-1.109M95.705 74.616c7.557.08 15.109-.082 22.652-.486.649-.035.653-.898 0-.863-7.543.404-15.095.566-22.652.486-.653-.007-.653.856 0 .863M95.698 82.852a2882.587 2882.587 0 0 1 46.293-1.744c.644-.02.647-1.014 0-.994a2882.588 2882.588 0 0 0-46.293 1.744c-.642.029-.646 1.023 0 .994M95.008 89.014l46.98-1.658c.648-.023.651-1.102 0-1.08l-46.98 1.659c-.649.022-.652 1.103 0 1.08M96.392 98.314c-.64.061-.646 1.03 0 .969a237.156 237.156 0 0 1 22.661-1.082c.648 0 .65-.97 0-.97-7.572 0-15.127.36-22.661 1.083M142.683 104.15a714.22 714.22 0 0 0-45.591.81c-.648.032-.65 1.205 0 1.172a714.22 714.22 0 0 1 45.59-.808c.65.009.65-1.164 0-1.173M95.702 113.664c15.417-.83 30.848-1.409 46.285-1.738.65-.014.652-1.014 0-1-15.437.33-30.868.91-46.285 1.739-.647.035-.651 1.034 0 1M166.94 31.255c-.087 1.28-.177 2.561-.267 3.842-.078 1.133.193 3.325-.301 4.322-1.292 2.607-5.996 2.17-8.528 2.342-2.293.155-6.347 1.056-8.232-.339-1.934-1.43-1.603-6.135-1.695-8.498-.108-2.773-.01-5.543.236-8.307a.457.457 0 0 0-.025-.203c.808-.17 2.854-.288 3.068-.297l4.412-.185c2.688-.112 5.67-.612 8.336-.35 1.121.111 2.208.456 2.874 1.566.326.543.25 1.674.278 2.32.052 1.261-.068 2.529-.155 3.787m1.018-5.427c-.409-2.598-1.414-3.318-4.015-3.224-4.577.165-9.153.384-13.73.576-.997.041-4.612-.118-3.277 1.883.048.07.104.121.166.157-.33 4.105-.303 8.215.163 12.311.231 2.036.091 4.927 2.619 5.447 1.842.378 4.147-.02 6.022-.121a145.64 145.64 0 0 0 6.77-.525c1.05-.105 3.354.07 4.205-.832.674-.714.5-2.172.56-3.041.286-4.087 1.16-8.555.517-12.631M166.422 59.915c.01.919.42 2.954.038 3.772-.951 2.043-6.142 1.09-8.05 1.156-1.28.045-2.558.115-3.834.211-1.07.08-2.79.596-3.82.366-1.786-.398-1.34-2.476-1.473-3.9a471.292 471.292 0 0 1-.348-3.94 478.619 478.619 0 0 1-.57-7.574.461.461 0 0 0 .285-.31c.612-2.014 6.374-1.231 7.983-1.251l3.727-.046c1.091-.013 2.68-.323 3.729-.046 3.248.86 2.27 5.294 2.295 7.79l.038 3.772m-1.612-12.532c-1.633-.317-3.71.014-5.381.035l-6.058.074c-1.88.023-4.775-.365-5.604 1.73-.234.018-.446.17-.426.471.288 4.275.627 8.547 1.033 12.812.197 2.076-.031 3.84 2.382 3.908 2.18.063 4.498-.441 6.694-.539a95.938 95.938 0 0 1 5.757-.084c2.547.04 4.215.347 4.25-2.574.048-3.997.088-8.086-.128-12.077-.099-1.81-.549-3.374-2.519-3.756M147.21 73.658a.482.482 0 0 0 .073-.244c.032-1.857 7.462-1.025 8.6-.985 1.266.044 2.531.098 3.796.16 1.115.055 2.74-.139 3.794.213 3.178 1.061 2.33 5.778 2.312 8.388a87.782 87.782 0 0 1-.107 3.82c-.038.764.197 3.222-.275 3.81-.73.91-2.565.563-3.624.603l-4.038.155-4.038.155c-1.082.041-3.022.49-4.038.155-2.348-.773-2.438-5.898-2.598-7.855-.217-2.659-.1-5.31.277-7.95a.512.512 0 0 0-.133-.425m-1.076 9.272c.219 2.05.328 5.485 1.63 7.151 1.341 1.718 5.102.689 6.948.618l11.105-.426c.294-.012.48-.222.508-.503.441-4.44.592-8.896.378-13.354-.11-2.264-.015-4.113-2.587-4.557-3.864-.667-8.117-.458-12.032-.541-1.91-.04-5.77-.745-5.819 2.096a.444.444 0 0 0 .125.327c-.009.027-.023.045-.028.076-.432 3.03-.554 6.065-.228 9.113M147.876 98.188c1.093-2.552 5.973-1.895 8.393-1.925l3.973-.05c1.04-.012 3.806-.441 4.563.386.724.789.606 3.328.68 4.305.093 1.2.108 2.406.123 3.608.014 1.195.017 2.39.026 3.585l.012 1.788c.01 1.381.1 1.69-.932 2.864-1.047 1.192-1.01 1.085-2.37 1.192a243.17 243.17 0 0 1-5.702.385c-1.268.071-2.537.133-3.807.186-1.154.048-2.905.441-3.87-.215-1.506-1.024-1.111-6.17-1.177-7.975a92.175 92.175 0 0 1 .088-8.134m-.753 13.446c.195 1.991.044 3.778 2.38 3.985 4.131.366 8.716-.363 12.842-.688 2.678-.21 4.161-.418 4.332-3.257.23-3.796.133-7.886-.249-11.667-.116-1.154-.066-3.203-.818-4.154-.623-.79-1.391-.668-2.387-.666-4.283.01-8.64-.082-12.915.16-2.571.145-3.474 1.266-3.661 3.736-.013.17.052.29.153.37-.16 4.063-.073 8.128.323 12.18"/>
        <path fill="#B9FABA" d="M150.993 30.641a23.248 23.248 0 0 0 6.545 5.553c.35.2.804.08 1.012-.266a194.534 194.534 0 0 1 6.075-9.496l-1.277-.748-.27.553c-.418.853.857 1.605 1.276.748l.271-.553c.42-.858-.739-1.537-1.277-.748a195.269 195.269 0 0 0-6.075 9.496l1.012-.265a22.18 22.18 0 0 1-6.246-5.32c-.601-.74-1.642.313-1.046 1.046M151.32 54.892c1.328.49 2.133 2.868 2.928 3.934.866 1.164 1.833 2.24 2.861 3.27.424.424 1.054.168 1.25-.321 1.526-3.825 3.117-7.59 6.137-10.545.68-.665-.377-1.695-1.057-1.03-3.197 3.13-4.905 7.137-6.522 11.187l1.25-.32a28.154 28.154 0 0 1-4.232-5.393c-.615-1.022-1.066-1.761-2.218-2.186-.9-.332-1.29 1.074-.397 1.404M150.2 78.2c.842 1.806 3.87 8.913 6.894 7.994 1.39-.422 2.144-3.255 2.812-4.353 1.475-2.425 3.262-4.601 5.278-6.592.697-.69-.377-1.766-1.075-1.077-2.398 2.369-4.496 5.018-6.141 7.969-.205.368-.802 1.973-1.128 2.204-.805.57-1.313-.406-1.837-1.011-1.474-1.702-2.548-3.88-3.491-5.903-.415-.887-1.725-.114-1.313.769M149.599 102.497a190.075 190.075 0 0 0 4.775 5.892c.795.938 1.71 2.33 3.075 1.69 1.359-.638 1.798-3.307 2.366-4.5 1.116-2.344 2.5-4.525 4.058-6.586.58-.768-.703-1.52-1.277-.761a39.182 39.182 0 0 0-5.002 8.74c-.5 1.211-.421 1.946-1.597 1.029-.658-.514-1.187-1.4-1.723-2.047a192.502 192.502 0 0 1-3.63-4.524c-.592-.76-1.632.314-1.045 1.067"/>
    </g>
</svg>
