<svg xmlns="http://www.w3.org/2000/svg" xmlns:xlink="http://www.w3.org/1999/xlink" width="160" height="175" viewBox="0 0 160 175">
    <defs>
        <path id="a" d="M0 .353h15.696v27.416H0z"/>
        <path id="c" d="M.403.337h6.438v7.172H.403z"/>
    </defs>
    <g fill="none" fill-rule="evenodd">
        <path fill="#C8D5FF" d="M92.776 66s-1.92 3.417-4.718 5.67c-2.797 2.254-5.259 3.688-5.045 5.532.215 1.843 3.212 4.813 7.064 5.94 3.853 1.127 4.923.82 4.923.82s-1.498-5.224-.75-10.448C94.854 69.312 92.776 66 92.776 66M90.877 64.59s1.228 2.07-4.061 6.157-12.846 7.904-17.24 9.142c-4.396 1.236-8.462 3.548-8.991 4.947-.53 1.398-2.422-6.453-1.158-10.97 1.263-4.517 6.87-12.906 12.793-14.842 5.923-1.935 10.788-.784 13.115.63 2.327 1.414 5.542 4.935 5.542 4.935M75.167 124.001c-1.902-.044-2.985.956-2.823 1.785.16.83 1.6 1.893 1.6 1.893s-.48 6.992-3.944 13.04c-3.462 6.047-7.43 10.454-9.203 11.99-1.774 1.535-1.797 2.037-1.797 2.037s.978 1.655 1.772 3.727.841 5.527.841 5.527 4.46-1.996 6.938-3.181c2.477-1.186 4.958-2.778 5.762-5.125.804-2.347 3.258-13.778 3.142-18.125-.116-4.347-1.856-9.339-1.856-9.339s1.959-.533 2.365-1.782c.407-1.249-2.797-2.447-2.797-2.447"/>
        <path fill="#4B4B78" d="M74.137 114.7c-4.14-.308-8.304-6.561-9.355-10.045-.758-2.512-.45-5.508-.455-8.123-.004-2.545.033-5.092.223-7.63.439-5.872 1.697-11.954 5.138-16.844 3.247-4.615 10.3-8.205 15.367-4.023 4.484 3.7 5.515 11.72 5.649 17.21.139 5.692-.503 11.629-2.36 17.027-2.016 5.864-6.483 12.074-13.193 12.428-.825.043-.83 1.342 0 1.298 10.495-.554 15.002-12.345 16.249-21.225 1.009-7.191.932-14.898-1.689-21.768-1.02-2.672-2.543-5.483-5.144-6.884-3.223-1.737-7.823-1.348-10.933.427-9.02 5.144-10.425 17.953-10.577 27.26-.099 5.958-.451 11.277 3.19 16.287 1.759 2.419 4.67 5.663 7.89 5.903.828.062.824-1.237 0-1.298M98.953 115.87c2.146-1.605 5.036-1.918 7.566-2.677a68.639 68.639 0 0 0 6.476-2.29c3.65-1.506 6.732-3.428 8.964-6.698 2.332-3.414 3.323-7.503 3.448-11.571.08-2.63-.468-5.258-.32-7.88.116-2.047 2.108-9.629 5.272-9.444.856.051.853-1.255 0-1.305-3.165-.185-5.17 4.769-5.973 7.212-1.722 5.23.375 10.87-.928 16.257-1.544 6.386-5.832 10.23-11.88 12.596a71.305 71.305 0 0 1-7.62 2.485c-2.04.543-3.97.91-5.678 2.189-.672.503-.009 1.637.673 1.127"/>
        <path fill="#4B4B78" d="M53.003 111.903c-3.275-3.378-5.115-7.554-6.286-12.02-1.18-4.5-2.5-9.748-.768-14.225 1.863-4.813 5.467-8.95 10.98-9.354 5.944-.434 10.02 2.039 11.783 7.62.246.78 1.504.447 1.256-.34-1.485-4.697-4.287-7.907-9.47-8.466-5.58-.603-10.193 1.084-13.358 5.685-3.678 5.346-3.626 10.322-2.363 16.45 1.18 5.726 3.13 11.243 7.305 15.552.578.595 1.498-.306.92-.902"/>
        <path fill="#4B4B78" d="M69.015 84.334c.198 1.04 1.229 1.798 2.267 1.647 1.032-.15 1.823-1.181 1.707-2.232-.044-.405-.308-.744-.74-.749-.366-.004-.784.348-.74.749.09.827-.908 1.022-1.066.186-.18-.945-1.606-.545-1.428.399M71.014 101.605c-.116 1.354.498 2.696 1.69 3.522 1.356.942 3.186.986 4.799.758.87-.122.501-1.336-.365-1.215-2.327.328-4.966-.535-4.751-3.065.068-.809-1.305-.805-1.373 0M61.894 108.212c-.592.664-6.634 6.978-6.817 3.264-.028-.573-.703-.913-1.118-.48-1.903 1.98-3.905 4.717-6.51 5.655-.791.285-.45 1.596.349 1.308 2.943-1.06 4.95-3.78 7.087-6.004l-1.118-.48c.33 6.675 7.184-.21 9.053-2.304.572-.64-.353-1.601-.926-.959"/>
        <path fill="#4B4B78" d="M47.38 118.217c2.812 1.671 4.875 3.628 4.15 7.263-.522 2.615-1.937 5.01-2.934 7.456-1.59 3.901-2.831 7.94-3.864 12.028-1.121 4.44-1.994 8.939-2.818 13.443-.556 3.04-1.627 6.32-.214 9.246l.871-.892-.359-.258c-.671-.484-1.309.644-.642 1.124l.359.259c.564.406 1.128-.36.872-.891-1.269-2.624-.049-6.122.45-8.83.467-2.547.952-5.092 1.495-7.624 1.042-4.851 2.277-9.667 3.957-14.331 1.402-3.894 4.375-8.283 4.295-12.58-.06-3.242-2.448-5.036-4.976-6.537-.71-.422-1.352.703-.643 1.124M87.168 110.141c2.345 2.728 7.065 8.498 10.956 5.159-.368-.155-.737-.31-1.107-.464-.007 2.073 1.651 3.467 2.902 4.947.543.643 1.456-.288.916-.927-.897-1.06-2.527-2.524-2.521-4.02.002-.603-.694-.818-1.107-.463-1.026.88-2.913.477-3.915-.176-.817-.531-1.556-1.27-2.27-1.93a37.334 37.334 0 0 1-2.938-3.053c-.548-.638-1.462.292-.916.927"/>
        <path fill="#4B4B78" d="M100.223 120.204c-1.637 1.722-3.41 2.753-5.732 3.34-.418.106-.62.598-.402.957 4.741 7.743 4.205 16.43 5.624 25.004.982 5.931.984 11.864.925 17.866-.01.838 1.335.839 1.343 0 .062-6.127.027-12.16-.972-18.213-1.438-8.714-.943-17.448-5.76-25.315l-.401.957c2.526-.638 4.559-1.818 6.325-3.675.585-.615-.362-1.539-.95-.92M61.283 115.304c1.913 1.467 3.757 3.007 5.505 4.675.934.892 2.057 2.746 3.364 3.146 1.8.552 5.278-2.82 6.562-3.747l-.912-.243c.526 1.116 1.497 4.037 2.671 4.69.899.5 1.898-.198 2.764-.56 3.866-1.614 7.37-3.566 10.544-6.348.651-.57-.295-1.526-.943-.96-2.121 1.86-4.367 3.39-6.888 4.63-1.37.673-2.96 1.932-4.477 1.341-1.468-.572-1.845-2.045-2.52-3.478-.146-.31-.635-.443-.911-.243-1.109.8-2.909 2.6-4.244 2.882-1.821.385-2.915-.97-4.067-2.069-1.832-1.745-3.772-3.352-5.775-4.888-.686-.526-1.35.652-.673 1.172"/>
        <path fill="#4B4B78" d="M75.277 123.123c-1.513-.65-3.52 1.414-3.253 3.153.336 2.194 3.344 3.107 4.997 2.577 1.466-.47 2.585-2.52 1.616-4.073-1.224-1.962-4.223-1.905-6-1.204-.789.312-.45 1.725.347 1.41.955-.376 1.941-.516 2.938-.27.876.214 2.31.844 1.533 2.11-.66 1.077-2.123.724-3.015.314-.574-.264-1.409-.718-.977-1.691.226-.511.933-1.146 1.467-.917.786.339 1.127-1.074.347-1.41"/>
        <path fill="#4B4B78" d="M72.815 127.974c-1.622 7.67-4.238 15.418-9.928 21.142-1.201 1.21-2.828 2.054-3.968 3.265-.438.465-.875.658-.917 1.387-.046.798.839 1.611 1.205 2.273 1.277 2.3 1.636 4.75 1.416 7.333-.046.536.58.745.99.56 3.366-1.528 7.625-2.749 10.546-5.028 2.661-2.076 3.467-5.895 4.2-8.98.92-3.874 1.344-7.86 1.53-11.828.074-1.586.198-3.223.018-4.806-.234-2.07-1.199-3.894-1.869-5.845-.27-.786-1.542-.449-1.269.344 1.158 3.373 1.976 6.056 1.827 9.72-.147 3.663-.492 7.33-1.251 10.924-.72 3.406-1.538 8.012-4.76 9.945-2.976 1.785-6.473 2.999-9.637 4.435l.991.56c.282-3.314-.886-5.447-1.854-8.452-.785-.545-.804-1.043-.057-1.496.366-.504.82-.916 1.361-1.238.298-.263.626-.497.927-.756a28.295 28.295 0 0 0 3.6-3.77c4.482-5.606 6.71-12.45 8.168-19.344.172-.815-1.096-1.162-1.27-.345"/>
        <path fill="#F1F1F1" d="M42.094 168.859c18.143 7.338 41.44 9.227 59.094-.635 1.847-1.031.215-4.043-1.63-3.012-16.875 9.427-39.318 7.275-56.606.283-1.948-.788-2.79 2.582-.858 3.364"/>
        <g transform="rotate(22 15.05 173.556)">
            <mask id="b" fill="#fff">
                <use xlink:href="#a"/>
            </mask>
            <path fill="#F1F1F1" d="M3.2 8.534c.126-4.496 7.32-6.872 8.989-2.165 1.282 3.616-1.3 6.975-2.772 10.058-1.948 4.083-.958 8.313 2.618 11.028 1.651 1.253 3.249-1.571 1.615-2.811-4.878-3.703.509-9.077 1.639-13.323.813-3.053.491-6.516-1.733-8.905C8.906-2.578.175 2.294.001 8.534c-.059 2.096 3.141 2.094 3.2 0" mask="url(#b)"/>
        </g>
        <path fill="#F1F1F1" d="M69.944 45.737l.519-.183c.898-.317 1.364-1.562.973-2.408-.438-.946-1.4-1.29-2.358-.952-.172.062-.345.122-.518.183-.898.317-1.365 1.562-.973 2.408.438.946 1.398 1.29 2.357.952M3.102 103.858c1.343-3.878 7.984-3.4 7.787 1.169-.13 3.001-2.85 5.001-4.713 6.921-2.806 2.89-3.558 6.849-1.229 10.333 1.133 1.694 3.834.084 2.69-1.627-3.09-4.62 2.321-7.275 4.559-10.586 1.712-2.534 2.496-5.862 1.044-8.732C10.447 95.82 1.94 97.683.099 103c-.678 1.957 2.331 2.8 3.003.858M8.248 130.915l.448-.2c.447-.198.806-.402 1.06-.865.223-.403.317-.998.18-1.45-.139-.456-.405-.896-.815-1.126-.392-.219-.94-.38-1.369-.19l-.448.2c-.447.198-.805.402-1.06.865-.223.404-.318.999-.18 1.451.14.456.405.895.816 1.126.391.219.94.38 1.368.19M133.646 113.949c3.909-2.391 11.042 1.763 8.467 6.427-2.106 3.816-7.172 3.791-10.992 4.209-5.115.559-8.879 3.649-9.119 8.859-.095 2.077 3.22 2.073 3.315 0 .3-6.521 7.557-5.273 12.244-6.423 3.588-.88 7.02-3.037 8.125-6.66 2.2-7.206-7.67-12.897-13.712-9.2-1.804 1.102-.142 3.897 1.672 2.788M119.26 141.767c.186.056.371.112.557.17.874.267 1.926-.331 2.135-1.342.21-1.015-.276-2.076-1.213-2.362l-.556-.17c-.874-.267-1.927.331-2.135 1.342-.209 1.015.276 2.075 1.212 2.362"/>
        <g fill="#F1F1F1">
            <path d="M7.774 36.894c.006-5.253 7.696-7.812 11.203-4.209 3.649 3.747 2.254 9.22.065 13.265-1.603 2.963-3.517 5.63-3.36 9.16.15 3.386 1.876 6.41 4.394 8.593 1.554 1.349 3.634-1.071 2.074-2.424-2.534-2.198-3.941-5.473-2.923-8.786.754-2.458 2.5-4.548 3.559-6.88 1.945-4.292 2.389-9.116-.126-13.295-4.746-7.883-18.057-4.534-18.068 4.771-.003 2.065 3.179 1.856 3.182-.195M28.053 74.38l.51-.414c.689-.56.957-1.713.36-2.56-.556-.788-1.642-1.165-2.38-.564l-.51.416c-.688.56-.957 1.712-.36 2.56.556.787 1.642 1.164 2.38.563"/>
        </g>
        <path fill="#FC9C83" d="M126.25 20.146c5.466-8.84 25.587-4.094 20.494 7.091-2.138 4.696-7.269 7.372-10.797 10.97-3.829 3.905-5.904 8.782-5.684 14.186.14 3.467 5.74 3.485 5.6 0-.334-8.205 6.132-11.716 11.447-16.863 4.433-4.294 7.254-10.103 4.754-16.076-4.893-11.694-24.037-12.732-30.65-2.036-1.85 2.994 2.988 5.717 4.836 2.728"/>
        <circle cx="133" cy="64" r="3" fill="#FC9C83" fill-rule="nonzero"/>
        <path fill="#FC9C83" d="M130 63.896v.208c0 3.858 6 3.864 6 0v-.208c0-3.858-6-3.864-6 0v.208c0 3.858 6 3.864 6 0v-.208c0-3.858-6-3.864-6 0"/>
        <g transform="translate(153 9)">
            <mask id="d" fill="#fff">
                <use xlink:href="#c"/>
            </mask>
            <path fill="#FC9C83" d="M1.474 7.193C2.005 6.03 3.077 5.116 3.932 4.21c.9-.954 1.812-1.895 2.732-2.828.542-.55-.284-1.42-.826-.87a180.912 180.912 0 0 0-3.03 3.146C1.968 4.552.992 5.42.467 6.572c-.324.711.681 1.336 1.007.621" mask="url(#d)"/>
        </g>
        <path fill="#FC9C83" d="M145.582 9.442c.31-2.212-.378-4.594 1.295-6.579.538-.639-.826-1.225-1.362-.589-1.847 2.19-1.168 4.728-1.51 7.168-.105.747 1.473.741 1.577 0M127.097.804a19.907 19.907 0 0 1 2.91 6.798c.157.698 1.133.402.976-.298-.58-2.57-1.585-4.937-3.012-7.064-.384-.572-1.263-.015-.874.564M114.113 8.857l.022-.094-.545.44c.433-.04 1.288.58 1.674.8.41.232.808.481 1.2.745.912.616 1.756 1.32 2.556 2.09.538.518 1.341-.326.8-.847a20.575 20.575 0 0 0-3.122-2.499c-.782-.504-2.148-1.577-3.108-1.487-.248.024-.48.17-.547.44a2.8 2.8 0 0 1-.023.093c-.182.747.91 1.065 1.093.319"/>
    </g>
</svg>
