<?xml version="1.0" encoding="UTF-8"?>
<svg width="18px" height="20px" viewBox="0 0 18 20" version="1.1" xmlns="http://www.w3.org/2000/svg" xmlns:xlink="http://www.w3.org/1999/xlink">
    <!-- Generator: sketchtool 52.1 (67048) - http://www.bohemiancoding.com/sketch -->
    <title>86520DEA-6906-4F5C-8341-353F4CDF1057</title>
    <desc>Created with sketchtool.</desc>
    <g id="Peeranha" stroke="none" stroke-width="1" fill="none" fill-rule="evenodd">
        <g id="Peeranha_LK_notifications" transform="translate(-879.000000, -28.000000)" stroke="#576FED">
            <g id="Header_energy_full">
                <g id="Group-10" transform="translate(865.000000, 7.000000)">
                    <g id="ico_Notification_Full-Copy-2-ico_Notification_Full" transform="translate(14.000000, 21.000000)">
                        <g id="Group-5-Copy" transform="translate(-3.000000, -2.000000)">
                            <path class="stroke fill" d="M3.44178573,18.5 L17.5582143,18.5 C18.0778678,18.5 18.3289607,18.3185773 18.4397277,17.9705039 C18.5432432,17.6452174 18.5083156,17.1824002 18.3722356,16.8069025 C18.1368496,16.1573481 17.9024374,15.6624198 17.6409934,15.2253511 C17.5019641,14.992929 17.078632,14.371105 17.0320714,14.2964374 C16.6509387,13.6852289 16.5,13.111387 16.5,12.0952389 L16.5,7.66666667 C16.5,4.23569963 13.9694108,2.5 10.5,2.5 C7.0305892,2.5 4.5,4.23569963 4.5,7.66666667 L4.5,12.0952389 C4.5,13.111387 4.34906126,13.6852289 3.96792864,14.2964374 C3.92136797,14.371105 3.49803591,14.992929 3.35900659,15.2253511 C3.09756263,15.6624198 2.86315039,16.1573481 2.62776167,16.80691 C2.49168444,17.1824002 2.45675679,17.6452174 2.56027228,17.9705039 C2.67103925,18.3185773 2.92213224,18.5 3.44178573,18.5 Z" id="Stroke-1" fill-opacity="0.2" fill="#7699FF" transform="translate(10.500000, 10.500000) rotate(-15.000000) translate(-10.500000, -10.500000) "></path>
                            <path class="stroke" d="M13,19 C13,20.1040778 11.8806899,21 10.5,21 C9.1193101,21 8,20.1043148 8,19" id="Stroke-3" stroke-linecap="round" stroke-linejoin="round" transform="translate(10.500000, 20.000000) rotate(-15.000000) translate(-10.500000, -20.000000) "></path>
                        </g>
                    </g>
                </g>
            </g>
        </g>
    </g>
</svg>