<?xml version="1.0" encoding="UTF-8"?>
<svg width="17px" height="20px" viewBox="0 0 17 20" version="1.1" xmlns="http://www.w3.org/2000/svg" xmlns:xlink="http://www.w3.org/1999/xlink">
    <!-- Generator: sketchtool 52.1 (67048) - http://www.bohemiancoding.com/sketch -->
    <title>9140B1C0-2257-4B97-9798-F37529360E1F</title>
    <desc>Created with sketchtool.</desc>
    <g id="Symbols" stroke="none" stroke-width="1" fill="none" fill-rule="evenodd">
        <g id="-Header_energy_empty" transform="translate(-920.000000, -28.000000)" stroke="#BDBDBD">
            <g id="Group-20" transform="translate(905.000000, 14.000000)">
                <g id="ico_Notification_empty" transform="translate(15.000000, 14.000000)">
                    <g>
                        <path d="M1.44178573,16.5 L15.5582143,16.5 C16.0778678,16.5 16.3289607,16.3185773 16.4397277,15.9705039 C16.5432432,15.6452174 16.5083156,15.1824002 16.3722356,14.8069025 C16.1368496,14.1573481 15.9024374,13.6624198 15.6409934,13.2253511 C15.5019641,12.992929 15.078632,12.371105 15.0320714,12.2964374 C14.6509387,11.6852289 14.5,11.111387 14.5,10.0952389 L14.5,5.66666667 C14.5,2.23569963 11.9694108,0.5 8.5,0.5 C5.0305892,0.5 2.5,2.23569963 2.5,5.66666667 L2.5,10.0952389 C2.5,11.111387 2.34906126,11.6852289 1.96792864,12.2964374 C1.92136797,12.371105 1.49803591,12.992929 1.35900659,13.2253511 C1.09756263,13.6624198 0.863150393,14.1573481 0.627761669,14.80691 C0.491684435,15.1824002 0.45675679,15.6452174 0.560272278,15.9705039 C0.671039253,16.3185773 0.922132243,16.5 1.44178573,16.5 Z" id="Stroke-1"></path>
                        <path d="M11,17 C11,18.1040778 9.8806899,19 8.5,19 C7.1193101,19 6,18.1043148 6,17" id="Stroke-3" stroke-linecap="round" stroke-linejoin="round"></path>
                    </g>
                </g>
            </g>
        </g>
    </g>
</svg>