<?xml version="1.0" encoding="UTF-8"?>
<svg width="26px" height="26px" viewBox="0 0 26 26" version="1.1" xmlns="http://www.w3.org/2000/svg" xmlns:xlink="http://www.w3.org/1999/xlink">
    <g id="Peeranha" stroke="none" stroke-width="1" fill="none" fill-rule="evenodd">
        <g id="Peeranha_LK_notifications" transform="translate(-277.000000, -201.000000)">
            <g id="MyFeed-ico_Notification_Full-BIG" transform="translate(267.000000, 192.000000)">
                <g id="Group-5-Copy" transform="translate(6.000000, 6.000000)">
                    <path class="fill stroke" d="M17.9999956,26.0155508 C18.0027979,27.6673694 16.6619008,29.0042838 15.0050741,28.9999897 C13.3482475,28.9956955 12.0028029,27.6521733 12,26" id="Stroke-3" fill="#BBBEC8" transform="translate(15.000000, 27.500000) rotate(-15.000000) translate(-15.000000, -27.500000) "></path>
                    <path class="fill stroke" d="M15.9860341,25.983025 L6.87219747,25.9661309 C4.78159207,25.9622555 4.8236749,23.9538957 5.20016456,22.9068287 C6.49601582,19.3027139 7.57441982,19.9527678 7.56464722,17.0387844 L7.54544173,11.3121085 C7.52653299,5.67391955 12.2659575,3.9932237 15.9326183,4.00002051 C19.5992792,4.00681733 24.3500357,5.70510493 24.3689445,11.3432939 L24.38815,17.0699698 C24.3979226,19.9839532 25.4719798,19.3378892 26.7920215,22.9468531 C27.175539,23.9953289 27.2310932,26.0038697 25.1404878,25.9999944 L16.0266512,25.9831003 L15.9860341,25.983025 Z" id="Stroke-1" fill="#BBBEC8" transform="translate(16.000000, 15.000000) rotate(-15.000000) translate(-16.000000, -15.000000) "></path>
                    <path class="fill stroke" d="M15.9999956,25.0155508 C16.0027979,26.6673694 14.6619008,28.0042838 13.0050741,27.9999897 C11.3482475,27.9956955 10.0028029,26.6521733 10,25" id="Stroke-3" stroke="#576FED" fill="#A5BCFF" stroke-linecap="round" stroke-linejoin="round" transform="translate(13.000000, 26.500000) rotate(-15.000000) translate(-13.000000, -26.500000) "></path>
                    <path class="stroke" d="M4.87312431,24.4661317 L23.1414147,24.4999953 C23.8769466,24.5013587 24.2564881,24.227379 24.4171933,23.7176993 C24.5603251,23.2637536 24.5105717,22.6329112 24.322447,22.1186082 C24.0116735,21.2689606 23.7019743,20.6196479 23.3566651,20.0454665 C23.173019,19.7400992 22.6216369,18.9337848 22.5629981,18.8401881 C22.0829608,18.0739744 21.8924692,17.3587211 21.8881528,16.0716466 L21.8689473,10.3449707 C21.8537444,5.81179686 18.4943616,3.50847738 13.9316915,3.50001965 C9.37063578,3.49156492 6.03024526,5.78000271 6.04543892,10.3104317 L6.06464441,16.0371076 C6.06896472,17.3253335 5.88291537,18.0405272 5.40673987,18.8065835 C5.3496082,18.8984951 4.80323574,19.7034128 4.62154804,20.0083231 C4.28051783,20.5806436 3.97547662,21.2282668 3.67067331,22.0760077 C3.48616323,22.5891543 3.44065825,23.2195746 3.58700567,23.674582 C3.75194246,24.1873853 4.13608226,24.4647655 4.87312431,24.4661317 Z" id="Stroke-1" stroke="#576FED" fill="#FFFFFF" transform="translate(14.000000, 14.000000) rotate(-15.000000) translate(-14.000000, -14.000000) "></path>
                </g>
            </g>
        </g>
    </g>
</svg>