<?xml version="1.0" encoding="UTF-8"?>
<svg width="15px" height="16px" viewBox="0 0 15 16" version="1.1" xmlns="http://www.w3.org/2000/svg" xmlns:xlink="http://www.w3.org/1999/xlink">
  <!-- Generator: sketchtool 52.1 (67048) - http://www.bohemiancoding.com/sketch -->
  <desc>Created with sketchtool.</desc>
  <g id="Peeranha" stroke="none" stroke-width="1" fill="none" fill-rule="evenodd" fill-opacity="0.2">
    <g id="Peerania_Notifications_01" transform="translate(-27.000000, -407.000000)" fill="#7699FF" fill-rule="nonzero" stroke="#576FED">
      <g id="ico_see_all" transform="translate(25.000000, 406.000000)">
        <g id="Group-5-Copy-2" transform="translate(2.000000, 1.000000)">
          <path class="fill stroke" d="M1.20619982,13.5 L13.0160224,13.5 C13.4153738,13.5 13.5938232,13.3710646 13.6756453,13.1139473 C13.7562296,12.8607198 13.7283652,12.4914952 13.6202223,12.1930867 C13.4520452,11.7289973 13.2633502,11.3771879 13.0461988,11.0920605 C12.9359874,10.9473491 12.8202906,10.8214873 12.6802785,10.6890402 C12.6016154,10.6146273 12.3322124,10.3758658 12.2990939,10.3454301 C11.747181,9.83822649 11.5160224,9.34879588 11.5160224,8.44569008 L11.5160224,4.74074074 C11.5160224,1.97020462 9.52789788,0.5 7.12713351,0.5 C4.65368253,0.5 2.5160224,1.99647666 2.5160224,4.74074074 L2.5160224,8.44569008 C2.5160224,9.33773961 2.31956373,9.82162652 1.83920838,10.3231358 C1.84064951,10.3216312 1.50394835,10.6591251 1.40721595,10.7671772 C1.24508196,10.9482842 1.10686606,11.1371253 0.973308296,11.3713598 C0.841467127,11.6025837 0.71815144,11.8725634 0.601997221,12.1930943 C0.493857064,12.4914952 0.465992613,12.8607198 0.546576879,13.1139473 C0.628398977,13.3710646 0.806848435,13.5 1.20619982,13.5 Z" id="Stroke-1"></path>
          <path class="fill stroke" d="M8.41458279,14.5 L5.58538718,14.5 C5.79134836,15.0825253 6.34700034,15.5 7,15.5 C7.65290637,15.5 8.20858461,15.0824621 8.41458279,14.5 Z" id="Stroke-3"></path>
        </g>
      </g>
    </g>
  </g>
</svg>
