<?xml version="1.0"?>
<svg viewBox="0 0 270 270" xmlns="http://www.w3.org/2000/svg" xmlns:svg="http://www.w3.org/2000/svg">
 <defs>
  <clipPath id="a">
   <path d="m0,0l454,0l0,337l-454,0l0,-337z" fill="#fff" id="svg_1"/>
  </clipPath>
 </defs>
 <g class="layer">
  <title>Layer 1</title>
  <g clip-path="url(#a)" id="svg_2">
   <path d="m110.11,198.23a42.15,42.15 0 0 0 2.19,-11.15a693.82,693.82 0 0 0 17.15,0.21a79.67,79.67 0 0 1 -0.51,11.39c-3.02,24.73 -36.79,40.2 -36.79,40.2a31.71,31.71 0 0 0 7.21,-19.15a135.61,135.61 0 0 0 10.75,-21.5z" fill="#576FED" id="svg_3"/>
   <path d="m38.17,247.2s12.26,-16.7 15.9,-28.7c9.28,-7.12 28.75,-31.87 28.75,-31.87s-19.45,-1.86 -25.07,-17.19c-3.65,-9.89 -3.68,-27.48 -3.68,-27.48a185.57,185.57 0 0 1 -22.35,19.14c-10.3,6.99 -28.72,12.74 -28.72,12.74s7.34,-19.64 12.76,-28.68c5.42,-9.03 12.78,-19.13 12.78,-19.13l-9.57,-54.23s17.64,3.86 25.53,12.76a178.12,178.12 0 0 1 15.98,22.32s-1.42,-25.36 12.81,-45.98a37.32,37.32 0 0 1 16.26,-13.26a37.4,37.4 0 0 1 20.85,-2.42a108.86,108.86 0 0 0 12.1,3.28c3.98,0.69 9.48,-3.08 4.35,-13.22c9.61,2.47 18.43,12.85 18.43,12.85s6.38,-3.33 -0.71,-19.08c15.98,1.32 24.49,27.89 24.49,27.89c0.04,-9.67 0.6,-19.33 1.68,-28.94a43.9,43.9 0 0 1 14.36,31.13s16.68,0.19 23.85,14.43c7.17,14.23 -4.74,65.27 -4.74,65.27l7.38,5.95l12.09,-19.84l12.36,16.57l6.49,-24.95s8.85,7.94 15.9,15.88a47.99,47.99 0 0 1 9.6,19.11s-7.85,18.61 -51.11,28.69c-43.26,10.08 -118.18,6.38 -118.18,6.38s4.69,20.89 -15.91,41.46a63.3,63.3 0 0 1 -20.42,14.01a63.4,63.4 0 0 1 -24.24,5.11z" fill="#7699FF" id="svg_4"/>
   <path d="m136.88,157.2c21.02,0 38.05,-17 38.05,-37.98c0,-20.97 -17.03,-37.98 -38.05,-37.98s-38.05,17.01 -38.05,37.98c0,20.98 17.04,37.98 38.05,37.98z" fill="#1D1D1B" id="svg_5"/>
   <path d="m166.52,118.35a34.06,34.06 0 0 1 -4.55,12.9a34.14,34.14 0 0 1 -9.26,10.09a29.91,29.91 0 0 0 8.44,-17.2c0.93,-6.04 -0.58,-12.2 -4.21,-17.12a23.09,23.09 0 0 0 -15.1,-9.15a23.43,23.43 0 0 0 -4.08,-0.26a30.93,30.93 0 0 0 -19.78,7.81a30.82,30.82 0 0 0 -10.03,18.72a25.67,25.67 0 0 0 -0.15,3.97l-0.09,0a28.56,28.56 0 0 1 -0.49,-9.72a34.3,34.3 0 0 1 11.17,-20.88a34.42,34.42 0 0 1 22.06,-8.7a25.75,25.75 0 0 1 18.37,7.06a25.65,25.65 0 0 1 7.99,17.95a26.24,26.24 0 0 1 -0.29,4.53z" fill="#fff" id="svg_6" opacity="0.1"/>
   <path d="m149.87,89.88c6.51,1.96 14.08,8.81 11,14.92c-2.26,4.57 -9.44,-2.88 -15.9,-4.84c-6.47,-1.96 -16.41,-1.68 -14.42,-6.33c2.85,-6.88 12.79,-5.69 19.32,-3.75z" fill="#fff" id="svg_7"/>
   <path d="m237.89,142.79a159.67,159.67 0 0 1 -45.61,0.85l11.08,-18.73l9.53,14.73l10.83,-17.02l12.36,16.56l6.49,-24.95s8.38,8.43 15.9,15.88c1.88,1.86 3.31,8.4 -20.58,12.68z" fill="#F76F60" id="svg_8"/>
  </g>
 </g>
</svg>