<svg xmlns="http://www.w3.org/2000/svg" xmlns:xlink="http://www.w3.org/1999/xlink" width="483" height="307" viewBox="0 0 483 307">
    <defs>
        <path id="a" d="M.236.199H410.66V307H.236z"/>
        <path id="c" d="M0 .21h117.628v131.167H0z"/>
    </defs>
    <g fill="none" fill-rule="evenodd">
        <g transform="translate(45)">
            <mask id="b" fill="#fff">
                <use xlink:href="#a"/>
            </mask>
            <path fill="#F9F9F9" d="M205.508.324c-46.95-1.634-92.06 13.077-120.27 24.11C57.028 35.468 39.39 40.4 28.987 52.223 9.164 74.749-3.89 115.973 1.428 176.863c0 0-4.834 57.63 24.658 86.026 29.491 28.396 60.95 38.204 90.667 39.43 29.718 1.226 89.873-1.226 110.802 0 20.93 1.226 76.248 11.034 103.946-2.044 27.699-13.076 48.488-42.567 57.674-76.247s32.393-64.483 15.47-87.495c-16.92-23.012-38.795-70.149-85.875-89.898-47.08-19.749-66.272-39.773-83.75-43.042C217.54.324 205.508.324 205.508.324" mask="url(#b)"/>
        </g>
        <path fill="#D1D1D1" d="M311.959 268c-11.626 1.17-36.183 2.864-40.543 9.693-1.579 2.472 1.397 6.179 7.876 6.179 6.48 0 21.042.288 29.343 0 8.3-.288 31.467-2.481 32.183-5.155 1.457-5.437-6.229-8.775-9.522-8.584-3.293.19-19.337-2.133-19.337-2.133"/>
        <path fill="#FFF" d="M108.054 208s-.549 3.498 1.863 5.247c2.412 1.749 10.523 5.356 17.32 5.793 6.795.438 9.848.843 9.848.843s.994 2.766 1.436 5.279c.444 2.514 1.43 11.907 1.321 16.065-.11 4.158-3.727 20.773-3.727 20.773h11.729s-2.914-10.166-2.992-13.445c-.077-3.28-.406-17.6.58-20.879.987-3.28 1.535-6.517 1.535-6.517s10.523.371 16.333 0c5.81-.37 13.526-1.893 15.258-2.826 1.732-.932 1.42-2.463 1.42-2.463L108.054 208zM250.662 171.456L250 271.033s1.82 3.161 4.715 2.958c2.895-.204 4.285-1.989 4.285-1.989V171l-8.338.456zM349.186 171L349 270.186s.302 4.026 3.665 3.805c3.363-.22 4.958-3.339 4.958-3.339L358 171h-8.814zM266 267.63l5.648-1.51s-.839-8.58 1.239-11.977c2.077-3.398 7.588-7.08 7.588-7.08s-1.178-6.128-.03-6.86c1.15-.731 4.76.733 5.275.88.516.146 3.978 3.367 3.978 3.367l2.459 2.013s2.752-2.496 6.372-3.682 8.261-3.068 18.502-1.943c10.24 1.123 18.872 7.116 20.303 12.977 1.43 5.86 1.578 19.989-10.357 24.161-11.935 4.173-26.228 1.465-26.228 1.465s-1.62-1.026-2.578-.22c-.958.806-5.157 3.221-6.483 2.708-1.327-.512-4.936-2.122-4.42-3.733.515-1.61 1.104-3.227 1.104-3.227l-5.01.372s1.326 1.611 1.032 2.929c-.294 1.317-1.292 2.332-3.04 2.226-1.749-.104-4.721-1.017-4.856-3.013-.134-1.995 1.598-3.586 1.598-3.586l-4.204-2.336s-5.605-1.434-6.489-2.193c-.884-.758-1.403-1.738-1.403-1.738"/>
        <path fill="#D1D1D1" d="M159.194 265.273c-24.4.344-50.857 1.378-57.324 2.123-6.466.743-7.643 2.52-6.466 3.466 1.175.946 4.096 4.825 20.862 4.032 16.765-.794 72.551-1.822 83.168-2.11 10.616-.289 41.481-1.44 43.834-3.501 2.352-2.061 3.527-5.968-4.704-6.26-8.231-.292-79.37 2.25-79.37 2.25"/>
        <g transform="translate(0 10)">
            <mask id="d" fill="#fff">
                <use xlink:href="#c"/>
            </mask>
            <path fill="#E0E0E0" d="M83.345 65.203c0-22.962-9.34-36.193-24.53-36.193-15.192 0-24.54 13.231-24.54 36.193 0 22.969 9.348 37.366 24.54 37.366 15.19 0 24.53-14.397 24.53-37.366M0 65.203C0 23.56 23.754.21 58.814.21c35.052 0 58.814 23.547 58.814 64.993 0 41.652-23.762 66.174-58.814 66.174C23.754 131.377 0 106.855 0 65.203" mask="url(#d)"/>
        </g>
        <path fill="#E0E0E0" d="M217.609 75.91c0-22.932-9.37-36.146-24.609-36.146-15.239 0-24.617 13.214-24.617 36.146 0 22.94 9.378 37.318 24.617 37.318 15.24 0 24.609-14.378 24.609-37.318m-83.609 0C134 34.32 157.83 11 193 11c35.164 0 59 23.517 59 64.91 0 41.6-23.836 66.09-59 66.09-35.17 0-59-24.49-59-66.09M322.663 73.183c13.279 0 19.53-6.642 19.53-17.977s-7.03-15.63-19.53-15.63h-14.066v33.607h14.066zM275 13h49.221C351.567 13 375 23.165 375 55.206c0 31.062-24.213 44.545-50.779 44.545h-15.624V140H275V13zM405.012 100.987c8.925 7.192 20.18 12.241 29.492 12.241 10.087 0 14.352-3.3 14.352-8.933 0-6.03-6.397-7.969-17.069-12.25l-15.718-6.607c-13.577-5.445-25.408-16.91-25.408-35.182 0-21.57 19.398-39.256 46.948-39.256 14.351 0 30.258 5.436 41.9 16.91l-16.681 20.985c-8.538-6.022-15.907-9.131-25.22-9.131-8.15 0-13.198 2.911-13.198 8.554 0 6.022 7.18 8.158 18.625 12.63l15.33 6.029c15.71 6.219 24.635 17.1 24.635 34.596 0 21.38-17.841 40.427-49.277 40.427-15.908 0-34.145-5.832-47.723-18.082l19.012-22.931z"/>
        <path fill="#FFF" d="M160.223 213.902s-29.003 1.014-42.791-3.472c-13.788-4.487-13.126-6.85-13.126-6.85s-15.111-45.956-17.98-60.561C83.46 128.414 80 109.611 80 109.611s16.695.244 21.88.134c5.184-.11 18.232-1.247 18.232-1.247s.957 8.492 1.358 10.917c.4 2.425 6.423 20.948 6.423 20.948s14.026-16.891 22.63-21.943C159.125 113.37 179 99.284 179 99.284s-.353-10.053 3.784-18.684c4.138-8.631 10.535-18.954 20.132-25.872 9.596-6.919 18.861-2.087 18.861-2.087s9.045 5.82 8.162 14.715c-.882 8.895-2.1 14.766-5.073 23.171-3.971 11.227-15.383 22.842-15.383 22.842s-1.596 16.593-2.775 23.27c-1.179 6.676-3.572 17.032-3.572 17.032s-1.875 9.115-2.537 11.201c-.662 2.087-1.91 9.771-2.09 11.641-.18 1.87-.092 9.663-.092 9.663l-38.194 27.726zM240.3 170.548s-7.19 1.31-9.49-2.406c-2.3-3.717.94-6.51 1.832-6.702.893-.193 28.677-.208 28.677-.208s-.136-4.826.067-5.674c.202-.848 2.288-2.576 3.933-2.614 1.645-.036 23.82 0 23.82 0l-.774-3.94s-7.134-.106-7.683-3.55c-.549-3.444 3.968-5.334 4.837-5.646.87-.312 4.987-1.149 4.987-1.149l.052-6.599 21.044-.416.57 21.211 12.04.028s6.4-29.57 7.498-34.272c1.097-4.701 6.53-19.864 7.338-22.2.809-2.337 3.373-5.054 6.028-4.275 2.655.78 3.753 3.077 3.753 3.077L342.244 122l-9.656 39.23 36.73.223s2.36.159 2.536 1.227c.175 1.068.144 5.027.144 5.027s-1.222 3.168-3.527 3.278c-2.304.109-128.172-.438-128.172-.438"/>
        <path fill="#7699FF" d="M188.584 217s2.082 4.488 2.895 8.35c2.092 9.943-8.17 17.493-10.68 29.026-1.354 6.227-1.02 10.901 1.25 11.934 2.27 1.034 6.246 1.73 11.667-4.252 5.42-5.984 11.937-16.88 11.937-16.88l6.347-15.52s-2.24-5.487-8.673-8.195c-6.432-2.708-14.743-4.463-14.743-4.463"/>
        <path fill="#7699FF" d="M114.345 167s-5.81 13.448.86 24.493c6.667 11.046 13.54 19.776 37.373 22.99 23.834 3.216 50.682 1.553 58.45 12.108 7.768 10.553 3.45 20.208 3.863 31.097.154 4.055 3.905 11.06 8.505 11.297 4.6.238 4.657-2.433 6.272-7.8 1.614-5.365 2.928-25.689 2.052-35.356-.636-7.02-6.343-18.928-14.128-25.268-13.096-10.666-21.36-12.443-21.36-12.443s-24.046-1.27-40.776-4.62C134.247 179.247 114.345 167 114.345 167"/>
        <path fill="#C8D5FF" d="M217.024 67.165s14.73 10.968 22.976-3.4c-4.727 3.29-5.566.526-5.566.526s5.041-11.385-3.339-16.101c-8.38-4.717-12.642-5.594-18.579-5.046-8.904 1.207-17.7 5.594-23.526 12.723-5.826 7.13-8.541 11.256-14.071 12.175-6.597 1.097-10.884-2.852-10.884-2.852s-1.32 3.51 1.32 5.247c-4.288 2.54-7.147-1.846-7.147-1.846s-2.39 13.543 9.015 17.33c12.553 4.167 20.615 2.35 32.76-8.007 5.96-5.084 6.978-7.182 8.957-6.634 1.98.548 0 4.22 0 4.22l8.084-8.335z"/>
        <path fill="#4B4B78" d="M186.475 130.595l11.183 5.756v-1.484c-3.16 2.175-5.905 4.76-7.982 7.93-.474.725-.807 1.66-1.352 2.325-1.22 1.489-1.858 1.624-3.923 1.008-2.673-.796-5.57-2.786-8.045-4.024-1.023-.512-1.931.972-.906 1.485 2.925 1.463 5.842 2.943 8.776 4.39 1.359.67 2.304 1.426 3.71.763 1.6-.753 2.096-3.144 2.937-4.505 1.966-3.183 4.568-5.738 7.691-7.888.517-.355.642-1.154 0-1.484l-11.182-5.757c-1.019-.523-1.926.96-.907 1.485M114.769 164.406c11.617-29.817 39.082-48.055 64.823-64.733.952-.616.066-2.149-.893-1.528-26.18 16.964-53.83 35.492-65.635 65.79-.413 1.062 1.295 1.521 1.705.471"/>
        <path fill="#4B4B78" d="M179.751 99.05c.593-13.093 5.357-24.598 13.606-34.68 3.973-4.857 8.796-9.423 14.729-11.703 5.963-2.291 14.402-.532 17.944 5.292 3.829 6.298 2.129 17.816.27 24.508-3.204 11.532-8.823 22.09-17.818 30.06-.846.749.395 1.988 1.238 1.243 9.562-8.474 16.084-20.452 18.8-32.963 1.755-8.095 3.331-20.972-3.885-26.842-10.858-8.831-23.308-1.403-31.193 7.59-9.356 10.671-14.796 23.254-15.44 37.494-.053 1.132 1.697 1.13 1.749 0"/>
        <path fill="#4B4B78" d="M198.948 187.156c-1.146-12.608 3.25-24.795 5.815-36.977 2.457-11.663 4.165-23.466 5.233-35.335.101-1.128-1.66-1.122-1.762 0-1.155 12.839-3.089 25.586-5.885 38.17-2.504 11.273-6.226 22.453-5.163 34.142.102 1.12 1.865 1.131 1.762 0"/>
        <path fill="#4B4B78" d="M198.682 187.934c8.871 2.635 16.134 6.61 22.76 13.041 2.85 2.765 5.727 5.308 7.49 8.916 1.713 3.507 3.062 7.294 4.086 11.062 1.976 7.285 1.136 16.575.456 24.016-.463 5.069-1.066 10.468-2.159 15.454-.664 3.027-2.947 8.399-7.049 6.41-1.933-.939-3.111-3.463-3.948-5.348-5.431-12.24 3.495-31.32-10.07-39.35-8.045-4.764-17.387-5.951-26.523-6.732-10.875-.931-21.792-1.305-32.529-3.436-10.78-2.14-20.817-5.792-28.097-14.424-7.18-8.513-11.144-20.66-5.888-31.206.504-1.012-1.013-1.905-1.52-.89-8.385 16.826 4.125 36.427 19.608 43.615 10.402 4.827 22.517 6.088 33.821 7.011 12.478 1.021 26.04.62 37.564 6.163 6.051 2.912 8.895 6.512 9.348 13.224.319 4.733.435 9.487.557 14.23.157 6.072.711 14.23 6.136 18.215 2.015 1.48 4.2 1.424 6.26.047 4.323-2.894 4.253-8.587 4.947-13.172 1.533-10.133 2.974-21.527 1.359-31.753-2.986-18.9-18.623-31.59-36.14-36.793-1.089-.323-1.553 1.379-.469 1.7"/>
        <path fill="#4B4B78" d="M113.376 164.657c23.909 17.508 55.815 21.25 84.775 22.342 1.133.043 1.13-1.684 0-1.726-28.666-1.08-60.217-4.773-83.886-22.107-.908-.664-1.788.833-.889 1.491M190.412 142.436c11.093 7.053 24.32 7.191 36.96 5.996 6.79-.641 13.521-1.815 20.19-3.256 7.278-1.57 20.844-7.88 23.717 3.013.294 1.113 1.981.64 1.687-.477-1.324-5.018-5.338-8.025-10.41-7.686-7.35.492-14.826 3.416-22.082 4.75-15.88 2.92-34.795 5.256-49.179-3.889-.959-.61-1.839.941-.883 1.55M209.847 135.998c11.534-.648 23.112-2.559 34.07-6.303 7.88-2.693 17.535-6.682 19.634-15.7 1.865-8.019-2.29-15.894-8.582-20.65-3.456-2.612-7.484-4.368-11.626-5.552-2.71-.777-5.481-1.3-8.219-1.966-.64-.155-5.032-1.066-5.15-1.53-.525-2.042 4.915-2.469 5.406-2.525 1.112-.127 1.124-1.894 0-1.765-2.724.31-5.136.979-7.63 2.12-.272.125-.439.477-.436.762.02 1.945 1.164 2.694 2.902 3.42 4.2 1.755 9.051 2.066 13.4 3.395 9.173 2.805 18.452 9.603 18.602 20.143.162 11.381-11.82 15.989-20.902 18.838-10.204 3.2-20.806 4.95-31.469 5.548-1.126.063-1.133 1.829 0 1.765"/>
        <path fill="#4B4B78" d="M80.012 109.11c3.32 21.691 8.48 42.847 14.388 63.946 2.302 8.22 4.537 16.513 7.37 24.57 1.022 2.909 2.125 6.268 4.103 8.63 3.333 3.982 10.019 4.2 14.73 5.173 17.285 3.569 34.964 4 52.55 4.369v-1.766l-1.57.194c-1.11.136-1.125 1.904 0 1.766l1.57-.194c1.094-.134 1.165-1.742 0-1.766-15.181-.32-30.445-.625-45.463-3.079-3.374-.55-6.705-1.286-10.058-1.945-3.467-.681-7.46-1.064-10.018-3.694-2.41-2.476-3.542-6.33-4.636-9.59-5.184-15.461-9.343-31.368-13.344-47.174-3.326-13.136-5.874-26.52-7.924-39.91-.171-1.12-1.869-.645-1.698.47"/>
        <path fill="#4B4B78" d="M79.846 110.418c6.845.41 13.698.593 20.555.48 3.143-.05 6.283-.16 9.42-.326 1.733-.091 8.546-1.45 9.829-.38 1.226 1.021.823 6.474 1.043 8.169.34 2.628.81 5.24 1.413 7.822 1.235 5.295 3.05 10.409 5.291 15.363.463 1.023 1.977.136 1.517-.88-4.546-10.048-6.951-20.774-7.105-31.791-.006-.439-.399-.917-.878-.872a269.754 269.754 0 0 1-41.085.671c-1.13-.068-1.126 1.676 0 1.744M107.108 211.308c2.083 3.956 6.617 4.99 10.673 6.023 6.686 1.702 13.545 2.672 20.414 3.28 12.986 1.15 27.796 3.114 40.218-1.691 1.037-.402.586-2.076-.465-1.67-10.946 4.234-23.351 2.756-34.837 2.005-6.193-.405-12.378-1.04-18.479-2.188-4.95-.93-13.42-1.706-16.014-6.633-.52-.988-2.031-.114-1.51.874"/>
        <path fill="#4B4B78" d="M136.513 221.089c4.577 12.73 2.133 25.944-.494 38.795-.228 1.12 1.634 1.6 1.864.474 2.688-13.153 5.175-26.716.493-39.743-.389-1.082-2.255-.618-1.863.474M146.155 221.61c-2.541 7.193-2.09 14.447-2.152 21.931-.052 6.45.466 12.044 3.295 18 .492 1.035 2.1.138 1.61-.892-2.894-6.093-3.087-12.092-3.024-18.656.067-6.798-.246-13.359 2.07-19.914.381-1.08-1.42-1.543-1.8-.47"/>
        <path fill="#4B4B78" d="M112.843 261.795c19.867 2.117 39.817 1.437 59.52-1.979 1.116-.193.642-1.994-.47-1.802-19.545 3.388-39.346 4.011-59.05 1.911-1.128-.12-1.12 1.75 0 1.87"/>
        <path fill="#FFF" d="M105.424 265.453a5.588 5.588 0 0 0-.394 2.724c.203 1.947 1.43 3.557 2.873 4.274 1.441.716 3.06.654 4.577.258 1.082-.282 2.204-.784 2.885-1.889.792-1.286.794-3.153.277-4.649-.809-2.339-2.753-3.87-4.756-4.137-2.004-.267-4.748 1.056-5.462 3.42M167.424 263.45a5.604 5.604 0 0 0-.394 2.725c.203 1.947 1.43 3.558 2.872 4.275 1.442.717 3.06.655 4.578.259 1.082-.282 2.204-.784 2.885-1.89.792-1.287.794-3.155.277-4.651-.808-2.341-2.752-3.872-4.756-4.14-2.004-.268-4.732 1.413-5.462 3.421"/>
        <path fill="#4B4B78" d="M104.398 265.172c-1.185 3.37.33 7.363 3.82 8.48 3.316 1.063 7.933-.307 8.664-4.146.67-3.527-1.584-7.255-4.943-8.262-3.117-.935-6.387.914-7.54 3.928-.459 1.195 1.427 1.714 1.88.53 2.001-5.233 9.39-1.972 8.72 3.058-.368 2.764-3.566 3.659-5.937 3.056-2.7-.685-3.654-3.642-2.784-6.114.425-1.21-1.458-1.73-1.88-.53M166.398 263.138c-1.184 3.385.329 7.393 3.816 8.517 3.036.978 7.428-.102 8.494-3.505 1.063-3.39-.893-7.242-3.978-8.651-3.085-1.41-6.834.31-8.234 3.399-.526 1.161 1.152 2.18 1.681 1.011.834-1.84 2.932-3.313 4.965-2.869 2.4.524 4.171 3.236 3.844 5.701-.367 2.776-3.562 3.675-5.93 3.07-2.697-.689-3.65-3.658-2.78-6.142.424-1.214-1.457-1.737-1.878-.531M191.151 217.322c3.236 5.678 4.156 11.935 1.048 17.856-1.864 3.551-3.972 6.975-5.864 10.514-1.762 3.294-3.003 6.545-3.637 10.259-.452 2.65-1.243 6.334-.133 8.916 1.158 2.693 4.552 3.518 7.197 2.975 4.382-.898 8.244-5.614 11.008-8.789 7.107-8.166 12.533-17.648 15.2-28.173.278-1.101-1.42-1.572-1.701-.469-2.527 9.978-7.607 19.021-14.27 26.833-2.825 3.313-8.51 10.661-13.517 8.76-4.532-1.721-2.229-9.769-1.328-13.08 1.64-6.032 5.63-11.406 8.568-16.855 3.468-6.43 2.498-13.414-1.048-19.639-.563-.987-2.087-.098-1.523.892M175.05 103.094c1.866 5.704 6.514 9.082 12.016 10.784 6.647 2.056 14.556 2.97 21.31 1.126 1.093-.298.63-2.026-.467-1.727-9.64 2.633-27.493.558-31.164-10.659-.355-1.087-2.054-.62-1.696.476M207.097 103.95a21.151 21.151 0 0 1 8.04-1.07c1.152.066 1.149-1.774 0-1.84-2.908-.17-5.746.209-8.517 1.135-1.09.366-.624 2.143.477 1.775M261.908 160.134c-.234-3.049-.462-5.736 3.719-6.232 2.215-.262 4.687-.023 6.915.009 5.534.08 11.06.41 16.595.45 1.15.009 1.151-1.794 0-1.802-7.993-.06-16.04-.836-24.032-.453-5.21.25-5.346 3.316-4.984 8.028.088 1.15 1.876 1.16 1.787 0M311.864 153.937c4.091-.007 8.182.145 12.273 0 1.149-.04 1.153-1.977 0-1.936-4.09.145-8.182-.007-12.273 0-1.151.002-1.153 1.938 0 1.936"/>
        <path fill="#4B4B78" d="M325.687 153.824c1.931-9.83 3.81-19.686 6.215-29.409 1.318-5.327 2.86-10.594 4.51-15.821a548.39 548.39 0 0 1 2.796-8.562c1.022-3.06 1.078-7.1 5.115-7.115 1.109-.006 2.39.468 3.125 1.282 1.184 1.31.629 2.426.323 4.019-.561 2.934-1.412 5.838-2.122 8.738l-4.078 16.648-8.89 36.297c-.27 1.103 1.396 1.574 1.667.47l10.86-44.342c.764-3.12 1.53-6.24 2.293-9.359.786-3.21 2.532-7.408 2.499-10.725-.039-3.817-3.12-4.693-6.425-4.925-3.357-.235-3.697 1.61-4.697 4.563-2.288 6.76-4.537 13.535-6.506 20.4-3.521 12.268-5.892 24.846-8.352 37.37-.218 1.111 1.448 1.586 1.667.47M290.995 161.161l-1.078-11.318c-.045-.47-.349-.882-.84-.877-2.142.016-9.558-.116-5.058-6.225 1.122-1.521 4.534-1.807 6.107-1.982 1.064-.118 1.076-1.873 0-1.753-3.546.393-8.44 1.34-9.066 5.853-.678 4.881 4.512 5.887 8.017 5.86l-.84-.876 1.078 11.318c.106 1.113 1.787 1.124 1.68 0"/>
        <path fill="#4B4B78" d="M292 139.18v-6.36c0-1.092-2-1.094-2 0v6.36c0 1.092 2 1.094 2 0"/>
        <path fill="#4B4B78" d="M291.775 133.378c.239-.612 9.313-.482 10.02-.494 3.46-.06 6.905.082 10.356.349 1.135.087 1.13-1.794 0-1.88-5.308-.41-10.62-.486-15.931-.104-1.778.129-5.31-.521-6.15 1.628-.435 1.117 1.275 1.604 1.705.5"/>
        <path fill="#4B4B78" d="M311.096 131.864c.253 9.42.86 18.898-.09 28.284-.115 1.141 1.365 1.13 1.48 0 .95-9.384.341-18.864.089-28.284-.031-1.15-1.51-1.155-1.48 0M288.495 142.393c-1.353-.532-2.723.892-2.463 2.434.316 1.883 2.177 2.478 3.647 2.032 1.263-.383 2.686-1.624 2.236-3.27-.4-1.46-1.946-1.69-3.11-1.556-1.086.124-1.097 2.036 0 1.911.432-.05 2.135-.114 1.143.708-.39.324-.986.522-1.471.46-.245-.031-.676-.197-.732-.512-.049-.267.019-.472.294-.363 1.042.409 1.49-1.437.456-1.844"/>
        <path fill="#4B4B78" d="M233.853 163h135.294c1.136 0 1.138-2 0-2H233.853c-1.136 0-1.138 2 0 2"/>
        <path fill="#4B4B78" d="M368.748 163.132c2.642-.932 2.595 2.086 2.511 3.845-.1 2.08-1.02 4.462-3.43 4.18-1.11-.13-1.101 1.681 0 1.81 3.642.426 5.223-3.462 5.17-6.641-.024-1.345.013-3.199-.806-4.337-.968-1.347-2.573-1.074-3.908-.603-1.054.371-.602 2.121.463 1.746M233.53 161.006c-2.702.313-4.808 2.738-4.5 5.805.352 3.502 3.246 5.084 6.166 5.188 1.072.04 1.072-1.783 0-1.822-1.866-.067-3.813-.757-4.393-2.943-.556-2.095.755-4.178 2.728-4.406 1.056-.122 1.067-1.945 0-1.822"/>
        <path fill="#4B4B78" d="M235.848 172h131.304c1.13 0 1.132-2 0-2H235.848c-1.13 0-1.132 2 0 2"/>
        <path fill="#4B4B78" d="M250 170.85v98.3c0 1.132 2 1.134 2 0v-98.3c0-1.132-2-1.134-2 0"/>
        <path fill="#4B4B78" d="M250.155 271.261c1.406 2.036 3.537 3.58 6.025 3.73 2.242.136 4.14-1.398 3.775-3.799-.169-1.103-1.8-.634-1.633.463.37 2.432-3.139 1.478-4.067 1.033-1.083-.52-1.948-1.305-2.639-2.305-.625-.906-2.093-.037-1.461.878"/>
        <path fill="#4B4B78" d="M260 271.148v-98.296c0-1.135-2-1.137-2 0v98.296c0 1.135 2 1.137 2 0M348 171.849v97.302c0 1.131 2 1.133 2 0V171.85c0-1.131-2-1.133-2 0"/>
        <path fill="#4B4B78" d="M348.029 270.083c1.245 5.035 7.809 5.165 9.883.683.468-1.012-1.063-1.897-1.534-.878-1.422 3.072-5.719 3.44-6.635-.267-.27-1.088-1.984-.627-1.714.462"/>
        <path fill="#4B4B78" d="M356 171.852v98.296c0 1.135 2 1.137 2 0v-98.296c0-1.135-2-1.137-2 0M274.583 271.272c-1.872-1.125-4.12-1.252-6.067-2.255-.358-.184-.923-.363-1.202-.69-.455-.183-.484-.305-.09-.368.268-.105.539-.203.812-.29 1.205-.401 2.434-.656 3.684-.802 1.068-.126 1.079-1.988 0-1.86-1.417.165-7.525.63-6.631 3.364.432 1.322 2.075 2.023 3.122 2.524 1.761.842 3.855.981 5.521 1.983.953.573 1.805-1.032.85-1.606"/>
        <path fill="#4B4B78" d="M272.226 264.899c-1.797-7.4 1.94-14.483 9.167-17.135 1.07-.393.607-2.102-.476-1.704-8.149 2.99-12.45 10.94-10.417 19.309.268 1.106 1.994.637 1.726-.47"/>
        <path fill="#4B4B78" d="M280.876 246.182c-.03-1.273-.237-2.657-.093-3.92.222-1.941 1.289-1.597 2.734-1.158 1.096.334 2.21.794 3.1 1.53.77.637 1.113 1.59 1.877 2.198.851.677 2.072-.514 1.213-1.197-.61-.485-.945-1.305-1.503-1.86-.53-.525-1.171-.97-1.828-1.328-1.294-.707-2.899-1.303-4.376-1.43-3.92-.34-2.895 4.755-2.838 7.165.025 1.088 1.74 1.093 1.714 0"/>
        <path fill="#4B4B78" d="M274.305 272.179c8.373 6.457 17.646 4.622 22.63-4.682 4.621-8.624 1.184-18.774-7.316-23.383-.989-.536-1.874.96-.884 1.497 6.794 3.683 10.374 11.42 7.673 18.85-3.449 9.487-12.561 12.895-20.864 6.491-.879-.677-2.127.541-1.239 1.227"/>
        <path fill="#4B4B78" d="M277.14 274.278c-2.996 3.182.488 6.934 3.83 7.594 1.71.338 3.732.073 4.673-1.598.972-1.728-.217-3.354-1.457-4.517-.846-.793-2.123.483-1.273 1.278.771.725 1.621 1.614.872 2.623-.684.922-2.367.534-3.272.227-1.673-.568-3.762-2.564-2.099-4.328.796-.846-.475-2.126-1.274-1.279"/>
        <path fill="#4B4B78" d="M294.59 274.768c-2.365-.74-5.1-1.41-7.209.34-1.46 1.212-1.8 3.189-.838 4.834 1.083 1.852 3.864 3.085 5.946 3.058 1.288-.017 2.152-.61 3.193-1.283 2.073-1.34 3.956-2.054 6.457-2.109 1.146-.025 1.15-1.816 0-1.79-2.368.051-4.59.58-6.617 1.852-1.777 1.114-3.984 2.128-5.958.53-1.239-.29-1.506-1.063-.8-2.317-.357-1.588.212-2.208 1.706-1.861 1.534-.143 2.214.025 3.647.472 1.098.344 1.568-1.384.474-1.726M299.834 272.995c11.103-1.075 21.71 1.008 31.755-5.32.952-.6.078-2.14-.88-1.537-9.752 6.144-20.125 4.037-30.875 5.077-1.107.108-1.117 1.889 0 1.78"/>
        <path fill="#4B4B78" d="M294.264 245.72c7.145-5.305 17.518-5.372 25.95-3.859 4.657.836 10.821 4.575 13.847 8.232 5.712 6.906 3.326 20.724-4.319 25.335-4.36 2.63-9.983 3.11-14.92 3.546-4.864.43-9.686.375-14.518-.372-1.106-.17-1.541 1.314-.466 1.715l.81.303c1.06.395 1.517-1.322.466-1.716-.27-.1-.54-.2-.81-.302l-.466 1.715c5.816.9 11.602.86 17.442.176 4.98-.584 10.299-1.278 14.5-4.283 6.724-4.808 8.939-16.612 5.852-24.094-2.15-5.214-10.251-10.148-15.427-11.694-8.738-2.608-21.355-1.784-28.826 3.763-.901.67-.028 2.213.885 1.535M281.506 266.698c-.001.002.161-.173.08-.099-.082.075.082-.056.104-.068.07-.042.142-.08.216-.116-.083.041-.05.021.015-.007.316-.134.645-.243.942-.417.754-.442 1.113-1.202 1.137-2.086.031-1.207-1.765-1.206-1.797 0-.002.09-.028.256-.034.276.023-.091-.073.116-.009.027.053-.072-.046.053-.06.067-.072.07.1-.057-.039.033-.045.03-.092.057-.14.085-.047.029-.098.051-.147.076.116-.058.002 0-.056.023-.535.215-1.09.42-1.481.88-.765.9.502 2.23 1.27 1.326M286.737 259c.654-.03 1.18-.4 1.513-1.07.135-.274.228-.578.327-.87l.061-.182c-.031.085.01-.023.022-.048.029-.07.06-.139.091-.208.011-.024.107-.179.033-.072.263-.38.312-.916 0-1.286-.27-.321-.818-.381-1.08 0-.308.445-.46.923-.647 1.448-.02.058-.02.06-.003.007a4.024 4.024 0 0 1-.068.17c-.018.042-.129.255-.103.217.065-.097-.168.226-.055.059.07-.025.06-.021-.031.012.065 0 .045.002-.06.004-.98.045-.985 1.864 0 1.818M286.615 265.624c2.039.4 2.414 3.054.326 3.724-1.038.334-.593 1.942.454 1.606 3.575-1.147 3.474-6.19-.326-6.935-1.073-.21-1.532 1.394-.454 1.605"/>
        <path fill="#4B4B78" d="M287.001 262.311c-.116 3.877 7.848 3.49 6.924-.7-.235-1.07-1.947-.617-1.711.452.367 1.666-3.48 1.656-3.437.248.033-1.094-1.743-1.093-1.776 0"/>
        <path fill="#C8D5FF" d="M291.006 203.837c-3.406 1.38-6.02 4.718-8.264 8.143-.65.992-1.295 2.036-1.578 3.26-.276 1.2-.178 2.492.103 3.69.793 3.391 2.997 6.094 5.544 7.747 2.546 1.653 5.424 2.373 8.28 2.857 3.35.568 6.838.826 10.05-.471 3.769-1.522 6.804-5.066 9.033-9.086 1.084-1.953 2.04-4.229 1.784-6.57-.209-1.895-1.19-3.537-2.315-4.865-2.746-3.243-6.457-5.076-10.229-5.783-3.772-.706-2.313-1.073-6.09-.415-1.29.224-5.194.688-6.318 1.493"/>
        <path fill="#FFF" d="M288.02 219.678c.673 2.623 2.642 4.395 4.534 6.165.366.343.876.084.921-.393.34-3.567.682-7.393 2.721-10.43 1.821-2.713 8.516-6.752 10.413-1.465 2.848 7.936-14.49 6.361-17.924 5.439-.673-.18-.961.891-.287 1.073 5.376 1.443 11.438 1.591 16.6-.818 2.818-1.314 3.962-4.537 2.074-7.34-2.095-3.111-6.998-1.905-9.457-.016-4.105 3.153-4.755 8.69-5.22 13.557l.922-.394c-1.73-1.618-3.634-3.247-4.255-5.674-.178-.691-1.22-.398-1.042.296"/>
        <path fill="#FFF" d="M294.002 207.533c.178 2.176.8 4.236 1.875 6.186.352.638 1.403.077 1.052-.56a13.863 13.863 0 0 1-1.708-5.626c-.058-.708-1.277-.714-1.219 0M297.005 205.5c-.05 2.122.28 4.167 1.003 6.15.225.617 1.185.35.957-.275a15.843 15.843 0 0 1-.968-5.875c.016-.667-.976-.666-.992 0M298.05 220.834a24.378 24.378 0 0 0 2.883 4.931c.42.559 1.386.017.961-.548a24.408 24.408 0 0 1-2.882-4.932c-.28-.641-1.24-.087-.962.55M300.017 219.727c.462 1.932 1.462 3.657 2.922 5.094.555.546 1.44-.279.885-.824a9.394 9.394 0 0 1-2.599-4.58c-.175-.73-1.383-.421-1.208.31"/>
        <path fill="#C8D5FF" d="M273.842 230.906c-.448.388-.756 1.006-.828 1.668-.026.227-.022.47.069.671.11.244.327.386.54.486 1.113.514 2.365.21 3.497-.236.728-.287 1.51-.708 1.815-1.557.057-.16.094-.347.035-.507-.05-.137-.163-.642-.268-.721-.647-.479-1.054-.774-2.07-.698-.785.058-2.303.22-2.79.894M271.42 239.68c-.223.29-.377.755-.413 1.25-.013.17-.011.353.034.503a.66.66 0 0 0 .27.365c.557.387 1.182.157 1.749-.177.364-.215.755-.53.908-1.168a.861.861 0 0 0 .018-.38c-.026-.102-.083-.482-.135-.54-.324-.36-.527-.581-1.035-.524-.393.043-1.152.166-1.395.67"/>
    </g>
</svg>
