<svg id="Paralax_01" xmlns="http://www.w3.org/2000/svg" width="1920" height="800" viewBox="0 0 1920 800">
  <metadata><?xpacket begin="﻿" id="W5M0MpCehiHzreSzNTczkc9d"?>
<x:xmpmeta xmlns:x="adobe:ns:meta/" x:xmptk="Adobe XMP Core 5.6-c140 79.160451, 2017/05/06-01:08:21        ">
   <rdf:RDF xmlns:rdf="http://www.w3.org/1999/02/22-rdf-syntax-ns#">
      <rdf:Description rdf:about=""/>
   </rdf:RDF>
</x:xmpmeta>
                                                                                                    
                                                                                                    
                                                                                                    
                                                                                                    
                                                                                                    
                                                                                                    
                                                                                                    
                                                                                                    
                                                                                                    
                                                                                                    
                                                                                                    
                                                                                                    
                                                                                                    
                                                                                                    
                                                                                                    
                                                                                                    
                                                                                                    
                                                                                                    
                                                                                                    
                                                                                                    
                           
<?xpacket end="w"?></metadata>
<defs>
    <style>
      .cls-1 {
        opacity: 0;
      }

      .cls-2, .cls-3 {
        fill: #fff;
      }

      .cls-2 {
        fill-rule: evenodd;
      }
    </style>
  </defs>
  <rect class="cls-1" width="1920" height="800"/>
  <path class="cls-2" d="M1562.81,526.255a7.508,7.508,0,0,0,1.3-1.464c0.69,0.444,1.57.952,2.52,1.5a15.7,15.7,0,0,1-1.04,1.655c-2.61,3.418-8.95,2.827-8.95,2.827a5.452,5.452,0,0,0,2.72-2.22A26.688,26.688,0,0,0,1562.81,526.255Zm14.03-13.614-0.12-.068a5.916,5.916,0,0,0-7.49,1.548,4.857,4.857,0,0,0-.77,1.5,3.4,3.4,0,0,1,.37-0.556,5.315,5.315,0,0,1,6.72-1.4,4.125,4.125,0,0,1,.59.386,3.971,3.971,0,0,1,.61,5.591,5.2,5.2,0,0,1-2.74,1.851,5.772,5.772,0,0,0,4.04-2.228,4.978,4.978,0,0,0,.45-0.692,4.444,4.444,0,0,0-1.66-5.926m1.19,0.956c0.8,0.872,1.33,2.534.33,3.174-0.73.482-1.13-1.242-1.96-2.08s-2.28-1.679-1.6-2.234C1575.83,511.7,1577.22,512.725,1578.03,513.6Zm12.52,15.9a0.538,0.538,0,0,0,.19-0.523c-0.48-1.764-1.01-3.741-1.01-3.741l-3.13,3.159-0.4-3.528-3.09,1.6-0.15-2.333-3.27,1.13s1.91-1.085,3.27-1.82a10.551,10.551,0,0,0,2.33-1.94c1.09-1.447,2.73-3.535,2.94-5.313,0.31-2.746-2.31-4.222-2.31-4.222a7.469,7.469,0,0,0,.55-5.873,42.821,42.821,0,0,0-2.74,4.2s1.03-4.687-1.29-6.3c-0.32,2.978-1.56,2.938-1.56,2.938a7.735,7.735,0,0,0-1.63-3.514c-0.08,1.94-1.23,2.046-1.78,1.593a12.688,12.688,0,0,1-1.52-1.511,6.388,6.388,0,0,0-6.87-.851,14.214,14.214,0,0,0-5.85,5.747,32.281,32.281,0,0,0-.45-4.688c-0.39-1.986-2.7-4.087-2.7-4.087l-3.27,8.95s-1.97.9-3.54,1.751a37.71,37.71,0,0,0-4.36,3.173,25.885,25.885,0,0,0,5.4.586,30.577,30.577,0,0,0,4.96-.928,17.624,17.624,0,0,0-1.83,4.411c-0.51,2.773,2.24,4.726,2.24,4.726a45.7,45.7,0,0,1-7,2.278,22.331,22.331,0,0,1-4.84,2.9,10.3,10.3,0,0,0,8.25.881c4.87-1.3,5.95-4.83,5.95-4.83s10.84,6.976,18.17,9.221,10.08,0.132,10.08.132A8.011,8.011,0,0,0,1590.55,529.5Zm-20.24-6.989a6.532,6.532,0,1,1,8.92-2.391A6.521,6.521,0,0,1,1570.31,522.509Z"/>
  <path id="Shape_12_copy" data-name="Shape 12 copy" class="cls-2" d="M564.467,601.041a7.964,7.964,0,0,0-.118-1.953c0.8-.175,1.786-0.438,2.843-0.721a15.75,15.75,0,0,1,.431,1.909c0.574,4.26-4.328,8.327-4.328,8.327a5.444,5.444,0,0,0,.358-3.5A27.366,27.366,0,0,0,564.467,601.041Zm0.294-19.547c-0.045.012-.091,0.025-0.135,0.039a5.913,5.913,0,0,0-4.2,6.389,4.9,4.9,0,0,0,.511,1.605,3.879,3.879,0,0,1-.134-0.653,5.322,5.322,0,0,1,3.765-5.746,4.23,4.23,0,0,1,.69-0.145,3.971,3.971,0,0,1,4.386,3.522,5.221,5.221,0,0,1-.629,3.246,5.777,5.777,0,0,0,1.282-4.433,5.5,5.5,0,0,0-.174-0.8,4.445,4.445,0,0,0-5.361-3.02m1.512-.16c1.187,0.047,2.737.846,2.482,2.008-0.176.857-1.681-.076-2.858-0.085s-2.8.427-2.711-.448C563.373,581.544,565.086,581.288,566.273,581.334Zm20.1,2.389a0.519,0.519,0,0,0-.238-0.5l-3.353-1.936,0.018,4.45-2.779-2.211-1.055,3.319-1.754-1.545-1.512,3.108s0.58-2.113,1.021-3.594A10.272,10.272,0,0,0,577,581.79c-0.248-1.8-.564-4.433-1.678-5.836C573.6,573.79,570.7,574.6,570.7,574.6a7.425,7.425,0,0,0-3.767-4.538,42.918,42.918,0,0,0,1.032,4.907s-2.583-4.046-5.364-3.544c1.88,2.331.974,3.181,0.974,3.181a7.759,7.759,0,0,0-3.637-1.333c1.314,1.429.58,2.315-.131,2.383a12.284,12.284,0,0,1-2.144.008,6.393,6.393,0,0,0-5.46,4.257,14.2,14.2,0,0,0-.07,8.2,32.624,32.624,0,0,0-3.637-2.994c-1.68-1.13-4.8-.982-4.8-0.982l4.016,8.642s-0.754,2.024-1.265,3.741a38.281,38.281,0,0,0-.841,5.327,25.943,25.943,0,0,0,4.232-3.4,30.485,30.485,0,0,0,2.852-4.166,17.622,17.622,0,0,0,1.829,4.409c1.6,2.326,4.925,1.758,4.925,1.758a45.715,45.715,0,0,1-3.343,6.565,22.286,22.286,0,0,1-1.369,5.469,10.3,10.3,0,0,0,6.459-5.213c2.517-4.36.792-7.623,0.792-7.623s12.592-2.726,19.362-6.322,7.225-7.038,7.225-7.038A7.982,7.982,0,0,0,586.372,583.723Zm-19.256,9.371a6.532,6.532,0,1,1,4.619-8A6.532,6.532,0,0,1,567.116,593.094Z"/>
  <circle class="cls-3" cx="408.188" cy="355" r="4"/>
  <circle id="Ellipse_7_copy_6" data-name="Ellipse 7 copy 6" class="cls-3" cx="611.188" cy="447" r="4"/>
  <circle id="Ellipse_7_copy_7" data-name="Ellipse 7 copy 7" class="cls-3" cx="1689.19" cy="101" r="4"/>
  <circle id="Ellipse_7_copy_2" data-name="Ellipse 7 copy 2" class="cls-3" cx="199.188" cy="777" r="4"/>
  <circle id="Ellipse_7_copy_4" data-name="Ellipse 7 copy 4" class="cls-3" cx="1694.19" cy="347" r="4"/>
  <circle id="Ellipse_7_copy_5" data-name="Ellipse 7 copy 5" class="cls-3" cx="863.188" cy="38" r="4"/>
  <circle id="Ellipse_7_copy" data-name="Ellipse 7 copy" class="cls-3" cx="397.188" cy="365" r="2"/>
  <path class="cls-2" d="M1243.49,725.6a8.462,8.462,0,0,1-3.83-3.048,6.8,6.8,0,0,1-.45-6.42,10.642,10.642,0,0,1,5.11-5.085,31.5,31.5,0,0,0-15.49-1.965,1.269,1.269,0,1,1-.31-2.518,34.062,34.062,0,0,1,16.91,2.191q1.14,0.457,2.13.929a30.316,30.316,0,0,1,17.11-.056,1.268,1.268,0,1,1-.67,2.446,29.329,29.329,0,0,0-13.21-.58c5.52,3.686,5.51,7.554,5.14,9.29a7.709,7.709,0,0,1-7.6,5.841A13.624,13.624,0,0,1,1243.49,725.6Zm3.9-13.159c-2.95,1.1-5.07,2.748-5.83,4.633a4.285,4.285,0,0,0,.22,4.093c1.12,1.72,3.6,2.813,6.64,2.923a5.157,5.157,0,0,0,5.03-3.829C1254.02,717.574,1251.79,714.754,1247.39,712.44Zm-31.5.544a1.27,1.27,0,0,1-.18-2.236,28.725,28.725,0,0,1,5.48-2.485,1.269,1.269,0,0,1,.83,2.4,26.625,26.625,0,0,0-4.95,2.23A1.274,1.274,0,0,1,1215.89,712.984Z"/>
  <path id="Shape_8_copy" data-name="Shape 8 copy" class="cls-2" d="M209.283,191.238a8.433,8.433,0,0,1,1.268,4.732,6.829,6.829,0,0,1-3.457,5.427,10.674,10.674,0,0,1-7.136,1.045,31.511,31.511,0,0,0,11.284,10.8,1.269,1.269,0,0,1-1.25,2.208,34.036,34.036,0,0,1-12.285-11.821c-0.434-.7-0.82-1.373-1.165-2.018a30.313,30.313,0,0,1-13.784-10.134,1.269,1.269,0,0,1,2-1.567,29.308,29.308,0,0,0,10.271,8.325c-2.24-6.244.067-9.348,1.394-10.526a7.721,7.721,0,0,1,9.589-.169A13.608,13.608,0,0,1,209.283,191.238Zm-10.965,8.255c3.028,0.871,5.715.813,7.443-.254a4.257,4.257,0,0,0,2.257-3.422c0.124-2.048-1.219-4.4-3.592-6.3a5.16,5.16,0,0,0-6.323.083C196.05,191.427,196.163,195.02,198.318,199.493ZM223.959,217.8a1.268,1.268,0,0,1-1.186,1.905,28.447,28.447,0,0,1-5.879-1.262,1.268,1.268,0,0,1,.76-2.42,26.394,26.394,0,0,0,5.3,1.151A1.27,1.27,0,0,1,223.959,217.8Z"/>
  <path id="Rounded_Rectangle_3_copy_14" data-name="Rounded Rectangle 3 copy 14" class="cls-2" d="M437.375,701h20.25A2.375,2.375,0,0,1,460,703.375v0.25A2.375,2.375,0,0,1,457.625,706h-20.25A2.375,2.375,0,0,1,435,703.625v-0.25A2.375,2.375,0,0,1,437.375,701Zm13-8h20.244A2.378,2.378,0,0,1,473,695.378v0.244A2.378,2.378,0,0,1,470.622,698H450.378A2.378,2.378,0,0,1,448,695.622v-0.244A2.378,2.378,0,0,1,450.378,693Z"/>
  <path id="Rounded_Rectangle_3_copy_15" data-name="Rounded Rectangle 3 copy 15" class="cls-2" d="M905.375,259h20.25A2.375,2.375,0,0,1,928,261.375v0.25A2.375,2.375,0,0,1,925.625,264h-20.25A2.375,2.375,0,0,1,903,261.625v-0.25A2.375,2.375,0,0,1,905.375,259Zm13-8h20.244A2.378,2.378,0,0,1,941,253.378v0.244A2.378,2.378,0,0,1,938.622,256H918.378A2.378,2.378,0,0,1,916,253.622v-0.244A2.378,2.378,0,0,1,918.378,251Z"/>
  <path id="Rounded_Rectangle_3_copy_16" data-name="Rounded Rectangle 3 copy 16" class="cls-2" d="M1877.37,559h20.25a2.374,2.374,0,0,1,2.38,2.375v0.25a2.374,2.374,0,0,1-2.38,2.375h-20.25a2.372,2.372,0,0,1-2.37-2.375v-0.25A2.372,2.372,0,0,1,1877.37,559Zm13.01-8h20.24a2.376,2.376,0,0,1,2.38,2.378v0.244a2.376,2.376,0,0,1-2.38,2.378h-20.24a2.376,2.376,0,0,1-2.38-2.378v-0.244A2.376,2.376,0,0,1,1890.38,551Z"/>
  <path id="_" data-name="&lt;/&gt;" class="cls-2" d="M745.9,740.5l-6.519-6.647,8.934-2.573a1.3,1.3,0,0,0,.944-0.987,1.178,1.178,0,0,0-.153-0.987,1.375,1.375,0,0,0-.834-0.589,1.757,1.757,0,0,0-.708-0.021l-10.969,3.22a1.446,1.446,0,0,0-1,.974,1.383,1.383,0,0,0,.384,1.363l7.99,8.157a1.212,1.212,0,0,0,.6.348,1.393,1.393,0,0,0,1.022-.13,1.254,1.254,0,0,0,.657-0.83,1.323,1.323,0,0,0-.347-1.3h0Zm14.289-12.23-12.793,17.314a1.527,1.527,0,0,0-.277.531,1.261,1.261,0,0,0,.147,1.013,1.326,1.326,0,0,0,.827.614,1.465,1.465,0,0,0,.769,0,1.162,1.162,0,0,0,.639-0.45l12.794-17.314a1.7,1.7,0,0,0,.251-0.538,1.315,1.315,0,0,0-.948-1.62,1.384,1.384,0,0,0-.773.017,1.252,1.252,0,0,0-.636.437h0Zm13.258,13.3-7.983-8.183a1.774,1.774,0,0,0-.628-0.329,1.379,1.379,0,0,0-1.015.105,1.179,1.179,0,0,0-.617.785,1.3,1.3,0,0,0,.339,1.324l6.527,6.621-8.941,2.6a1.322,1.322,0,0,0-.938.962,1.251,1.251,0,0,0,.166,1.045,1.385,1.385,0,0,0,.827.615,1.212,1.212,0,0,0,.689-0.012l10.962-3.194a1.382,1.382,0,0,0,1-1,1.447,1.447,0,0,0-.391-1.337h0Z"/>
  <path id="_copy_2" data-name="&lt;/&gt; copy 2" class="cls-2" d="M1530.43,197.555l-8.97-2.5,6.45-6.695a1.3,1.3,0,0,0,.33-1.327,1.183,1.183,0,0,0-.63-0.778,1.36,1.36,0,0,0-1.01-.093,1.733,1.733,0,0,0-.63.336l-7.89,8.273a1.453,1.453,0,0,0-.37,1.341,1.367,1.367,0,0,0,1.01.988l11,3.07a1.208,1.208,0,0,0,.69,0,1.4,1.4,0,0,0,.82-0.624,1.243,1.243,0,0,0,.15-1.046,1.322,1.322,0,0,0-.95-0.951h0Zm6.26-17.736-2.42,21.391a1.452,1.452,0,0,0,.03.6,1.272,1.272,0,0,0,.63.8,1.317,1.317,0,0,0,1.02.119,1.484,1.484,0,0,0,.67-0.389,1.251,1.251,0,0,0,.33-0.709l2.42-21.391a1.662,1.662,0,0,0-.05-0.592,1.307,1.307,0,0,0-.62-0.807,1.291,1.291,0,0,0-1.01-.122,1.353,1.353,0,0,0-.66.4,1.245,1.245,0,0,0-.34.7h0Zm18.13,4.886-11-3.095a1.767,1.767,0,0,0-.71.029,1.4,1.4,0,0,0-.83.6,1.182,1.182,0,0,0-.14.989,1.3,1.3,0,0,0,.96.976l8.96,2.471-6.44,6.721a1.309,1.309,0,0,0-.34,1.3,1.28,1.28,0,0,0,.67.822,1.379,1.379,0,0,0,1.02.119,1.184,1.184,0,0,0,.59-0.355l7.9-8.248a1.376,1.376,0,0,0,.37-1.367,1.45,1.45,0,0,0-1.01-.962h0Z"/>
  <path id="_copy_3" data-name="&lt;/&gt; copy 3" class="cls-2" d="M551.434,165.555l-8.97-2.5,6.45-6.695a1.3,1.3,0,0,0,.325-1.327,1.175,1.175,0,0,0-.626-0.778,1.374,1.374,0,0,0-1.017-.093,1.748,1.748,0,0,0-.623.336l-7.89,8.273a1.449,1.449,0,0,0-.376,1.341,1.382,1.382,0,0,0,1.014.988l11,3.07a1.2,1.2,0,0,0,.689,0,1.386,1.386,0,0,0,.82-0.624,1.251,1.251,0,0,0,.153-1.046,1.32,1.32,0,0,0-.948-0.951h0Zm6.259-17.736L555.27,169.21a1.529,1.529,0,0,0,.027.6,1.257,1.257,0,0,0,.633.8,1.328,1.328,0,0,0,1.023.119,1.473,1.473,0,0,0,.665-0.389,1.166,1.166,0,0,0,.328-0.709l2.423-21.391a1.685,1.685,0,0,0-.052-0.592,1.314,1.314,0,0,0-1.631-.929,1.4,1.4,0,0,0-.661.4,1.254,1.254,0,0,0-.332.7h0Zm18.13,4.886-11-3.095a1.764,1.764,0,0,0-.708.029,1.375,1.375,0,0,0-.827.6,1.179,1.179,0,0,0-.142.989,1.3,1.3,0,0,0,.956.976l8.962,2.471-6.443,6.721a1.322,1.322,0,0,0-.332,1.3,1.252,1.252,0,0,0,.666.822,1.389,1.389,0,0,0,1.024.119,1.218,1.218,0,0,0,.591-0.355l7.9-8.248a1.379,1.379,0,0,0,.369-1.367,1.449,1.449,0,0,0-1.007-.962h0Z"/>
  <path class="cls-2" d="M253.059,528.2l-9.9-3.554a2.238,2.238,0,0,1-1.348-2.858l5.249-14.619a2.238,2.238,0,0,1,2.858-1.348l9.9,3.555a2.236,2.236,0,0,1,1.347,2.858l-5.248,14.618A2.236,2.236,0,0,1,253.059,528.2Zm-9.018-5.717,9.932,3.905,5.407-15.059-10.353-3.717Z"/>
  <path id="Shape_10_copy" data-name="Shape 10 copy" class="cls-2" d="M1340.52,423.806l-9.52,4.488a2.235,2.235,0,0,1-2.97-1.068l-6.63-14.048a2.247,2.247,0,0,1,1.07-2.974l9.52-4.487a2.236,2.236,0,0,1,2.97,1.068l6.62,14.048A2.232,2.232,0,0,1,1340.52,423.806Zm-10.42,2.334,9.78-4.261-6.82-14.472-9.95,4.692Z"/>
  <path id="Rounded_Rectangle_7" data-name="Rounded Rectangle 7" class="cls-2" d="M1221.7,579.84a1.506,1.506,0,0,1,1.84,1.061l3.62,13.523a1.5,1.5,0,0,1-2.9.776l-3.62-13.523A1.5,1.5,0,0,1,1221.7,579.84Zm7.07-12.247,13.52-3.624a1.5,1.5,0,1,1,.78,2.9l-13.52,3.624A1.5,1.5,0,1,1,1228.77,567.593Zm13.83,17.528a1.5,1.5,0,0,1-2.05.55l-12.12-7a1.5,1.5,0,1,1,1.5-2.6l12.12,7A1.5,1.5,0,0,1,1242.6,585.121Z"/>
  <path id="Rounded_Rectangle_7_copy_2" data-name="Rounded Rectangle 7 copy 2" class="cls-2" d="M78.224,426.908a1.5,1.5,0,0,1-2.112-.2l-8.919-10.791a1.5,1.5,0,1,1,2.312-1.911l8.92,10.79A1.5,1.5,0,0,1,78.224,426.908Zm-1.336,14.079L66.1,449.907a1.5,1.5,0,0,1-1.911-2.313l10.791-8.919A1.5,1.5,0,1,1,76.887,440.987ZM57.021,430.8a1.5,1.5,0,0,1,1.635-1.352l13.937,1.324a1.5,1.5,0,1,1-.284,2.986l-13.937-1.323A1.5,1.5,0,0,1,57.021,430.8Z"/>
  <path id="Rounded_Rectangle_7_copy" data-name="Rounded Rectangle 7 copy" class="cls-2" d="M1716.82,733.492a1.5,1.5,0,0,1-1.06-1.837l3.62-13.523a1.5,1.5,0,0,1,2.9.776l-3.63,13.523A1.491,1.491,0,0,1,1716.82,733.492Zm-12.25,7.071-13.52-3.623a1.5,1.5,0,1,1,.77-2.9l13.53,3.623A1.5,1.5,0,1,1,1704.57,740.563Zm-3.21-22.1a1.5,1.5,0,0,1,2.05.55l7,12.124a1.5,1.5,0,0,1-2.6,1.5l-7-12.124A1.494,1.494,0,0,1,1701.36,718.468Z"/>
  <circle id="Ellipse_7_copy_3" data-name="Ellipse 7 copy 3" class="cls-3" cx="1758.19" cy="34" r="4"/>
  <circle id="Ellipse_7_copy_3-2" data-name="Ellipse 7 copy 3" class="cls-3" cx="1747.19" cy="44" r="2"/>
</svg>
