<svg id="Paralax_03" xmlns="http://www.w3.org/2000/svg" width="1920" height="800" viewBox="0 0 1920 800">
  <metadata><?xpacket begin="﻿" id="W5M0MpCehiHzreSzNTczkc9d"?>
<x:xmpmeta xmlns:x="adobe:ns:meta/" x:xmptk="Adobe XMP Core 5.6-c140 79.160451, 2017/05/06-01:08:21        ">
   <rdf:RDF xmlns:rdf="http://www.w3.org/1999/02/22-rdf-syntax-ns#">
      <rdf:Description rdf:about=""/>
   </rdf:RDF>
</x:xmpmeta>
                                                                                                    
                                                                                                    
                                                                                                    
                                                                                                    
                                                                                                    
                                                                                                    
                                                                                                    
                                                                                                    
                                                                                                    
                                                                                                    
                                                                                                    
                                                                                                    
                                                                                                    
                                                                                                    
                                                                                                    
                                                                                                    
                                                                                                    
                                                                                                    
                                                                                                    
                                                                                                    
                           
<?xpacket end="w"?></metadata>
<defs>
    <style>
      .cls-1 {
        opacity: 0;
      }

      .cls-2, .cls-3 {
        fill: #afc3ff;
      }

      .cls-3 {
        fill-rule: evenodd;
      }
    </style>
  </defs>
  <rect class="cls-1" width="1920" height="800"/>
  <circle class="cls-2" cx="1088.19" cy="651" r="4"/>
  <circle id="Ellipse_7_copy_2" data-name="Ellipse 7 copy 2" class="cls-2" cx="278.188" cy="409" r="4"/>
  <circle id="Ellipse_7_copy_4" data-name="Ellipse 7 copy 4" class="cls-2" cx="560.188" cy="698" r="4"/>
  <circle id="Ellipse_7_copy_7" data-name="Ellipse 7 copy 7" class="cls-2" cx="1295.19" cy="529" r="4"/>
  <circle id="Ellipse_7_copy_8" data-name="Ellipse 7 copy 8" class="cls-2" cx="270.188" cy="122" r="4"/>
  <circle id="Ellipse_7_copy_5" data-name="Ellipse 7 copy 5" class="cls-2" cx="813.188" cy="8" r="4"/>
  <circle id="Ellipse_7_copy_6" data-name="Ellipse 7 copy 6" class="cls-2" cx="1096.19" cy="130" r="4"/>
  <circle id="Ellipse_7_copy" data-name="Ellipse 7 copy" class="cls-2" cx="1077.19" cy="661" r="2"/>
  <path class="cls-3" d="M367.492,242.6a8.432,8.432,0,0,1-3.834-3.049,6.83,6.83,0,0,1-.451-6.419,10.679,10.679,0,0,1,5.114-5.085,31.516,31.516,0,0,0-15.493-1.965,1.269,1.269,0,0,1-.31-2.518,34.034,34.034,0,0,1,16.907,2.191q1.147,0.458,2.137.929a30.3,30.3,0,0,1,17.109-.056,1.268,1.268,0,0,1-.672,2.446,29.307,29.307,0,0,0-13.209-.579c5.515,3.685,5.508,7.553,5.143,9.289a7.72,7.72,0,0,1-7.607,5.841A13.61,13.61,0,0,1,367.492,242.6Zm3.9-13.159c-2.952,1.1-5.077,2.748-5.831,4.633a4.255,4.255,0,0,0,.222,4.093c1.119,1.72,3.6,2.813,6.632,2.923a5.16,5.16,0,0,0,5.033-3.828C378.016,234.574,375.788,231.753,371.394,229.44Zm-31.5.544a1.268,1.268,0,0,1-.18-2.237,28.424,28.424,0,0,1,5.475-2.484,1.269,1.269,0,0,1,.829,2.4,26.447,26.447,0,0,0-4.947,2.23A1.267,1.267,0,0,1,339.894,229.984Z"/>
  <path id="Shape_8_copy" data-name="Shape 8 copy" class="cls-3" d="M1382.28,673.238a8.458,8.458,0,0,1,1.27,4.732,6.815,6.815,0,0,1-3.46,5.427,10.652,10.652,0,0,1-7.13,1.045,31.464,31.464,0,0,0,11.28,10.8,1.269,1.269,0,1,1-1.25,2.209,33.982,33.982,0,0,1-12.28-11.821c-0.44-.7-0.82-1.373-1.17-2.018a30.294,30.294,0,0,1-13.78-10.134,1.266,1.266,0,1,1,1.99-1.567,29.447,29.447,0,0,0,10.27,8.325c-2.24-6.243.07-9.348,1.4-10.526a7.722,7.722,0,0,1,9.59-.169A13.486,13.486,0,0,1,1382.28,673.238Zm-10.96,8.255c3.03,0.871,5.71.812,7.44-.254a4.282,4.282,0,0,0,2.26-3.422c0.12-2.048-1.22-4.4-3.59-6.295a5.17,5.17,0,0,0-6.33.082C1369.05,673.427,1369.16,677.02,1371.32,681.493Zm25.64,18.3a1.3,1.3,0,0,1,.17.733,1.27,1.27,0,0,1-1.36,1.172,28.562,28.562,0,0,1-5.88-1.261,1.269,1.269,0,0,1,.76-2.421,26.443,26.443,0,0,0,5.31,1.151A1.265,1.265,0,0,1,1396.96,699.8Z"/>
  <path id="Rounded_Rectangle_3_copy_14" data-name="Rounded Rectangle 3 copy 14" class="cls-3" d="M761.375,467h20.25A2.375,2.375,0,0,1,784,469.375v0.25A2.375,2.375,0,0,1,781.625,472h-20.25A2.375,2.375,0,0,1,759,469.625v-0.25A2.375,2.375,0,0,1,761.375,467Zm13-8h20.244A2.378,2.378,0,0,1,797,461.378v0.244A2.378,2.378,0,0,1,794.622,464H774.378A2.378,2.378,0,0,1,772,461.622v-0.244A2.378,2.378,0,0,1,774.378,459Z"/>
  <path id="Rounded_Rectangle_3_copy_15" data-name="Rounded Rectangle 3 copy 15" class="cls-3" d="M1586.37,642h20.25a2.374,2.374,0,0,1,2.38,2.375v0.25a2.374,2.374,0,0,1-2.38,2.375h-20.25a2.372,2.372,0,0,1-2.37-2.375v-0.25A2.372,2.372,0,0,1,1586.37,642Zm13.01-8h20.24a2.376,2.376,0,0,1,2.38,2.378v0.244a2.376,2.376,0,0,1-2.38,2.378h-20.24a2.376,2.376,0,0,1-2.38-2.378v-0.244A2.376,2.376,0,0,1,1599.38,634Z"/>
  <path id="_" data-name="&lt;/&gt;" class="cls-3" d="M1422.9,447.5l-6.52-6.647,8.93-2.573a1.3,1.3,0,0,0,.94-0.987,1.143,1.143,0,0,0-.15-0.987,1.378,1.378,0,0,0-.83-0.589,1.768,1.768,0,0,0-.71-0.021l-10.97,3.22a1.456,1.456,0,0,0-1,.974,1.377,1.377,0,0,0,.39,1.363l7.99,8.157a1.166,1.166,0,0,0,.59.348,1.409,1.409,0,0,0,1.03-.13,1.274,1.274,0,0,0,.65-0.83,1.321,1.321,0,0,0-.34-1.3h0Zm14.28-12.23-12.79,17.314a1.63,1.63,0,0,0-.28.531,1.286,1.286,0,0,0,.15,1.013,1.327,1.327,0,0,0,.83.614,1.469,1.469,0,0,0,.77,0,1.186,1.186,0,0,0,.64-0.45l12.79-17.314a1.654,1.654,0,0,0,.25-0.538,1.269,1.269,0,0,0-.13-1.009,1.31,1.31,0,0,0-.82-0.611,1.375,1.375,0,0,0-.77.017,1.27,1.27,0,0,0-.64.437h0Zm13.26,13.3-7.98-8.183a1.725,1.725,0,0,0-.63-0.329,1.362,1.362,0,0,0-1.01.1,1.163,1.163,0,0,0-.62.785,1.294,1.294,0,0,0,.34,1.324l6.52,6.621-8.94,2.6a1.3,1.3,0,0,0-.93.962,1.241,1.241,0,0,0,.16,1.045,1.405,1.405,0,0,0,.83.615,1.215,1.215,0,0,0,.69-0.012l10.96-3.194a1.376,1.376,0,0,0,1-1,1.431,1.431,0,0,0-.39-1.337h0Z"/>
  <path id="_copy_2" data-name="&lt;/&gt; copy 2" class="cls-3" d="M195.961,589.318l-4.577-8.108,9.3-.173a1.3,1.3,0,0,0,1.168-.709,1.175,1.175,0,0,0,.107-0.993,1.377,1.377,0,0,0-.653-0.784,1.752,1.752,0,0,0-.678-0.2l-11.429.271a1.451,1.451,0,0,0-1.214.683,1.384,1.384,0,0,0,.018,1.416l5.607,9.947a1.2,1.2,0,0,0,.484.49,1.383,1.383,0,0,0,1.021.139,1.252,1.252,0,0,0,.849-0.632,1.321,1.321,0,0,0,0-1.343h0Zm16.967-8.115-16.839,13.413a1.51,1.51,0,0,0-.4.442,1.258,1.258,0,0,0-.121,1.016,1.328,1.328,0,0,0,.64.807,1.457,1.457,0,0,0,.744.2,1.161,1.161,0,0,0,.734-0.269l16.839-13.413a1.7,1.7,0,0,0,.382-0.455,1.314,1.314,0,0,0-.5-1.81,1.4,1.4,0,0,0-.751-0.184,1.257,1.257,0,0,0-.727.258h0Zm9.365,16.274-5.594-9.97a1.757,1.757,0,0,0-.521-0.48,1.372,1.372,0,0,0-1.007-.161,1.177,1.177,0,0,0-.8.6,1.3,1.3,0,0,0-.014,1.367l4.59,8.084-9.309.2a1.319,1.319,0,0,0-1.154.687,1.251,1.251,0,0,0-.111,1.052,1.384,1.384,0,0,0,.64.807,1.2,1.2,0,0,0,.668.167l11.416-.248a1.38,1.38,0,0,0,1.227-.706,1.447,1.447,0,0,0-.031-1.393h0Z"/>
  <path class="cls-3" d="M1724.06,189.2l-9.9-3.554a2.234,2.234,0,0,1-1.35-2.858l5.25-14.619a2.24,2.24,0,0,1,2.86-1.347l9.9,3.554a2.229,2.229,0,0,1,1.34,2.858l-5.24,14.618A2.24,2.24,0,0,1,1724.06,189.2Zm-9.02-5.717,9.93,3.905,5.41-15.059-10.35-3.717Z"/>
  <path id="Shape_10_copy" data-name="Shape 10 copy" class="cls-3" d="M640.517,229.807L631,234.294a2.237,2.237,0,0,1-2.973-1.068L621.4,219.178a2.237,2.237,0,0,1,1.067-2.974l9.514-4.487a2.237,2.237,0,0,1,2.974,1.068l6.626,14.048A2.238,2.238,0,0,1,640.517,229.807ZM630.1,232.14l9.785-4.262-6.826-14.471-9.949,4.693Z"/>
  <path id="Rounded_Rectangle_7" data-name="Rounded Rectangle 7" class="cls-3" d="M876.49,55.54a1.5,1.5,0,0,1,0,2.121l-9.9,9.9a1.5,1.5,0,0,1-2.121-2.121l9.9-9.9A1.5,1.5,0,0,1,876.49,55.54Zm14.142,0,9.9,9.9a1.5,1.5,0,0,1-2.121,2.121l-9.9-9.9A1.5,1.5,0,1,1,890.632,55.54Zm-8.266,20.74a1.5,1.5,0,0,1-1.5-1.5v-14a1.5,1.5,0,1,1,3,0v14A1.5,1.5,0,0,1,882.366,76.28Z"/>
  <path id="Rounded_Rectangle_7_copy" data-name="Rounded Rectangle 7 copy" class="cls-3" d="M531.816,378.492a1.5,1.5,0,0,1-1.061-1.837l3.624-13.523a1.5,1.5,0,1,1,2.9.776l-3.624,13.523A1.5,1.5,0,0,1,531.816,378.492Zm-12.247,7.071-13.524-3.624a1.5,1.5,0,0,1,.777-2.9l13.523,3.623A1.5,1.5,0,1,1,519.569,385.563Zm-3.212-22.095a1.5,1.5,0,0,1,2.049.549l7,12.125a1.5,1.5,0,1,1-2.6,1.5l-7-12.125A1.5,1.5,0,0,1,516.357,363.468Z"/>
  <circle id="Ellipse_7_copy_3" data-name="Ellipse 7 copy 3" class="cls-2" cx="1708.19" cy="4" r="4"/>
  <circle id="Ellipse_7_copy_3-2" data-name="Ellipse 7 copy 3" class="cls-2" cx="1697.19" cy="14" r="2"/>
  <path id="Shape_12_copy" data-name="Shape 12 copy" class="cls-3" d="M1319.47,216.041a8.542,8.542,0,0,0-.12-1.953c0.8-.175,1.78-0.438,2.84-0.721a15.2,15.2,0,0,1,.43,1.909c0.58,4.26-4.33,8.327-4.33,8.327a5.369,5.369,0,0,0,.36-3.5A27.22,27.22,0,0,0,1319.47,216.041Zm0.29-19.547c-0.04.012-.09,0.025-0.13,0.039a5.9,5.9,0,0,0-4.2,6.389,4.633,4.633,0,0,0,.51,1.6,4.736,4.736,0,0,1-.14-0.653,5.316,5.316,0,0,1,3.77-5.746,3.943,3.943,0,0,1,5.07,3.377,5.122,5.122,0,0,1-.63,3.246,5.785,5.785,0,0,0,1.29-4.433,6.814,6.814,0,0,0-.18-0.8,4.445,4.445,0,0,0-5.36-3.021m1.51-.16c1.19,0.047,2.74.846,2.48,2.008-0.17.857-1.68-.076-2.85-0.085s-2.8.427-2.71-.448C1318.37,196.544,1320.09,196.288,1321.27,196.334Zm20.1,2.389a0.518,0.518,0,0,0-.24-0.5c-1.58-.912-3.35-1.936-3.35-1.936l0.02,4.45-2.78-2.212-1.05,3.32-1.76-1.545-1.51,3.108s0.58-2.113,1.02-3.594a10.583,10.583,0,0,0,.28-3.021c-0.25-1.8-.57-4.433-1.68-5.835-1.72-2.165-4.62-1.356-4.62-1.356a7.4,7.4,0,0,0-3.76-4.538,40.676,40.676,0,0,0,1.03,4.907s-2.58-4.046-5.36-3.544c1.88,2.331.97,3.181,0.97,3.181a7.766,7.766,0,0,0-3.64-1.333c1.32,1.429.58,2.315-.13,2.384a12.337,12.337,0,0,1-2.14.007,6.387,6.387,0,0,0-5.46,4.257,14.207,14.207,0,0,0-.07,8.2,32.476,32.476,0,0,0-3.64-2.994c-1.68-1.129-4.8-.982-4.8-0.982l4.02,8.642s-0.76,2.024-1.27,3.741a38.546,38.546,0,0,0-.84,5.327,25.7,25.7,0,0,0,4.23-3.4,30.553,30.553,0,0,0,2.86-4.165,17.655,17.655,0,0,0,1.83,4.409c1.59,2.326,4.92,1.758,4.92,1.758a46.155,46.155,0,0,1-3.34,6.565,22.381,22.381,0,0,1-1.37,5.469,10.335,10.335,0,0,0,6.46-5.213c2.51-4.36.79-7.623,0.79-7.623s12.59-2.726,19.36-6.322,7.23-7.038,7.23-7.038A8.05,8.05,0,0,0,1341.37,198.723Zm-19.25,9.371a6.533,6.533,0,1,1,4.61-8A6.528,6.528,0,0,1,1322.12,208.094Z"/>
  <path id="Shape_12_copy_2" data-name="Shape 12 copy 2" class="cls-3" d="M313.81,743.9a7.993,7.993,0,0,0,.873-1.75c0.784,0.251,1.766.514,2.824,0.8a15.868,15.868,0,0,1-.582,1.869c-1.632,3.976-7.912,5.047-7.912,5.047a5.438,5.438,0,0,0,2.059-2.85A27.318,27.318,0,0,0,313.81,743.9Zm10.027-16.781-0.137-.034a5.914,5.914,0,0,0-6.832,3.434,4.864,4.864,0,0,0-.359,1.644,3.808,3.808,0,0,1,.21-0.632,5.323,5.323,0,0,1,6.134-3.094,4.222,4.222,0,0,1,.669.22,3.97,3.97,0,0,1,2.037,5.243,5.214,5.214,0,0,1-2.167,2.5,5.779,5.779,0,0,0,3.327-3.2,5.349,5.349,0,0,0,.25-0.784,4.444,4.444,0,0,0-3.132-5.3m1.39,0.618c1,0.634,1.947,2.1,1.145,2.979-0.58.655-1.417-.906-2.432-1.5s-2.639-1.031-2.124-1.743C322.61,726.473,324.222,727.107,325.227,727.741Zm16.212,12.118a0.519,0.519,0,0,0,.045-0.554l-1.936-3.354-2.209,3.863-1.3-3.3-2.572,2.348-0.747-2.215-2.863,1.936s1.558-1.541,2.681-2.6a10.293,10.293,0,0,0,1.75-2.478c0.684-1.681,1.728-4.122,1.465-5.893-0.406-2.734-3.319-3.481-3.319-3.481a7.43,7.43,0,0,0-.993-5.814,42.924,42.924,0,0,0-1.561,4.766s-0.213-4.8-2.873-5.751c0.463,2.958-.747,3.242-0.747,3.242a7.768,7.768,0,0,0-2.483-2.974c0.424,1.9-.655,2.3-1.3,2a12.378,12.378,0,0,1-1.861-1.065,6.387,6.387,0,0,0-6.856.957,14.192,14.192,0,0,0-4.161,7.064,32.645,32.645,0,0,0-1.652-4.411c-0.89-1.817-3.665-3.249-3.665-3.249l-0.843,9.492s-1.664,1.376-2.966,2.607a38.277,38.277,0,0,0-3.391,4.193,25.889,25.889,0,0,0,5.365-.83,30.428,30.428,0,0,0,4.553-2.181,17.639,17.639,0,0,0-.621,4.733c0.219,2.812,3.387,3.985,3.387,3.985a45.74,45.74,0,0,1-6.178,4.014,22.307,22.307,0,0,1-3.92,4.051,10.3,10.3,0,0,0,8.2-1.285c4.359-2.517,4.5-6.205,4.5-6.205s12.268,3.935,19.929,4.206,9.777-2.482,9.777-2.482A8.009,8.009,0,0,0,341.439,739.859Zm-21.362-1.512a6.532,6.532,0,1,1,8-4.619A6.531,6.531,0,0,1,320.077,738.347Z"/>
</svg>
