<svg id="Paralax_02" xmlns="http://www.w3.org/2000/svg" width="1920" height="800" viewBox="0 0 1920 800">
  <metadata><?xpacket begin="﻿" id="W5M0MpCehiHzreSzNTczkc9d"?>
<x:xmpmeta xmlns:x="adobe:ns:meta/" x:xmptk="Adobe XMP Core 5.6-c140 79.160451, 2017/05/06-01:08:21        ">
   <rdf:RDF xmlns:rdf="http://www.w3.org/1999/02/22-rdf-syntax-ns#">
      <rdf:Description rdf:about=""/>
   </rdf:RDF>
</x:xmpmeta>
                                                                                                    
                                                                                                    
                                                                                                    
                                                                                                    
                                                                                                    
                                                                                                    
                                                                                                    
                                                                                                    
                                                                                                    
                                                                                                    
                                                                                                    
                                                                                                    
                                                                                                    
                                                                                                    
                                                                                                    
                                                                                                    
                                                                                                    
                                                                                                    
                                                                                                    
                                                                                                    
                           
<?xpacket end="w"?></metadata>
<defs>
    <style>
      .cls-1 {
        opacity: 0;
      }

      .cls-2, .cls-3 {
        fill: #a6bdff;
      }

      .cls-3 {
        fill-rule: evenodd;
      }
    </style>
  </defs>
  <rect class="cls-1" width="1920" height="800"/>
  <circle class="cls-2" cx="1540.19" cy="759" r="4"/>
  <circle id="Ellipse_7_copy_2" data-name="Ellipse 7 copy 2" class="cls-2" cx="287.188" cy="4" r="4"/>
  <circle id="Ellipse_7_copy_4" data-name="Ellipse 7 copy 4" class="cls-2" cx="1486.19" cy="587" r="4"/>
  <circle id="Ellipse_7_copy_9" data-name="Ellipse 7 copy 9" class="cls-2" cx="1854.19" cy="383" r="4"/>
  <circle id="Ellipse_7_copy_5" data-name="Ellipse 7 copy 5" class="cls-2" cx="951.188" cy="743" r="4"/>
  <circle id="Ellipse_7_copy_6" data-name="Ellipse 7 copy 6" class="cls-2" cx="422.188" cy="700" r="4"/>
  <circle id="Ellipse_7_copy_7" data-name="Ellipse 7 copy 7" class="cls-2" cx="1332.19" cy="356" r="4"/>
  <circle id="Ellipse_7_copy_8" data-name="Ellipse 7 copy 8" class="cls-2" cx="385.188" cy="120" r="4"/>
  <circle id="Ellipse_7_copy" data-name="Ellipse 7 copy" class="cls-2" cx="1529.19" cy="749" r="2"/>
  <path class="cls-3" d="M1331.49,55.4a8.458,8.458,0,0,0-3.83,3.049,6.8,6.8,0,0,0-.45,6.419,10.642,10.642,0,0,0,5.11,5.085,31.483,31.483,0,0,1-15.49,1.965,1.269,1.269,0,1,0-.31,2.518,34.046,34.046,0,0,0,16.91-2.191q1.14-.456,2.13-0.929a30.313,30.313,0,0,0,17.11.056,1.268,1.268,0,1,0-.67-2.447,29.323,29.323,0,0,1-13.21.58c5.52-3.685,5.51-7.553,5.14-9.29a7.709,7.709,0,0,0-7.6-5.841A13.631,13.631,0,0,0,1331.49,55.4Zm3.9,13.159c-2.95-1.1-5.07-2.748-5.83-4.633a4.285,4.285,0,0,1,.22-4.093c1.12-1.72,3.6-2.813,6.64-2.923a5.157,5.157,0,0,1,5.03,3.828C1342.02,63.426,1339.79,66.247,1335.39,68.56Zm-31.5-.544a1.271,1.271,0,0,0-.18,2.237,28.778,28.778,0,0,0,5.48,2.484,1.269,1.269,0,0,0,.83-2.4,26.612,26.612,0,0,1-4.95-2.231A1.276,1.276,0,0,0,1303.89,68.016Z"/>
  <path id="Shape_8_copy" data-name="Shape 8 copy" class="cls-3" d="M1636.28,327.762a8.458,8.458,0,0,0,1.27-4.732,6.815,6.815,0,0,0-3.46-5.427,10.652,10.652,0,0,0-7.13-1.045,31.464,31.464,0,0,1,11.28-10.8,1.269,1.269,0,1,0-1.25-2.209,33.982,33.982,0,0,0-12.28,11.821c-0.44.7-.82,1.373-1.17,2.018a30.294,30.294,0,0,0-13.78,10.134,1.266,1.266,0,1,0,1.99,1.567,29.447,29.447,0,0,1,10.27-8.325c-2.24,6.243.07,9.348,1.4,10.526a7.722,7.722,0,0,0,9.59.169A13.486,13.486,0,0,0,1636.28,327.762Zm-10.96-8.255c3.03-.871,5.71-0.812,7.44.254a4.282,4.282,0,0,1,2.26,3.422c0.12,2.048-1.22,4.4-3.59,6.3a5.17,5.17,0,0,1-6.33-.082C1623.05,327.573,1623.16,323.98,1625.32,319.507Zm25.64-18.305a1.3,1.3,0,0,0,.17-0.733,1.27,1.27,0,0,0-1.36-1.172,28.562,28.562,0,0,0-5.88,1.261,1.269,1.269,0,0,0,.76,2.421,26.443,26.443,0,0,1,5.31-1.151A1.265,1.265,0,0,0,1650.96,301.2Z"/>
  <path id="Rounded_Rectangle_3_copy_14" data-name="Rounded Rectangle 3 copy 14" class="cls-3" d="M525.375,75h20.25A2.375,2.375,0,0,1,548,77.375v0.25A2.375,2.375,0,0,1,545.625,80h-20.25A2.375,2.375,0,0,1,523,77.625v-0.25A2.375,2.375,0,0,1,525.375,75Zm13,8h20.244A2.378,2.378,0,0,1,561,85.378v0.244A2.378,2.378,0,0,1,558.622,88H538.378A2.378,2.378,0,0,1,536,85.622V85.378A2.378,2.378,0,0,1,538.378,83Z"/>
  <path id="Rounded_Rectangle_3_copy_15" data-name="Rounded Rectangle 3 copy 15" class="cls-3" d="M453.375,493h20.25A2.375,2.375,0,0,1,476,495.375v0.25A2.375,2.375,0,0,1,473.625,498h-20.25A2.375,2.375,0,0,1,451,495.625v-0.25A2.375,2.375,0,0,1,453.375,493Zm13,8h20.244A2.378,2.378,0,0,1,489,503.378v0.244A2.378,2.378,0,0,1,486.622,506H466.378A2.378,2.378,0,0,1,464,503.622v-0.244A2.378,2.378,0,0,1,466.378,501Z"/>
  <path id="_" data-name="&lt;/&gt;" class="cls-3" d="M833.9,40.5l-6.519,6.647,8.934,2.573a1.3,1.3,0,0,1,.944.987,1.179,1.179,0,0,1-.153.987,1.378,1.378,0,0,1-.834.589,1.763,1.763,0,0,1-.708.021l-10.969-3.22a1.447,1.447,0,0,1-1-.974,1.382,1.382,0,0,1,.384-1.363l7.99-8.157a1.208,1.208,0,0,1,.6-0.348,1.386,1.386,0,0,1,1.022.13,1.253,1.253,0,0,1,.657.83,1.323,1.323,0,0,1-.347,1.3h0Zm14.289,12.23L835.391,35.413a1.526,1.526,0,0,1-.277-0.531,1.26,1.26,0,0,1,.147-1.012,1.326,1.326,0,0,1,.827-0.614,1.462,1.462,0,0,1,.769,0,1.164,1.164,0,0,1,.639.45L850.29,51.023a1.707,1.707,0,0,1,.251.538,1.315,1.315,0,0,1-.948,1.62,1.4,1.4,0,0,1-.773-0.017,1.253,1.253,0,0,1-.636-0.437h0Zm13.258-13.3-7.983,8.183a1.761,1.761,0,0,1-.628.329,1.379,1.379,0,0,1-1.015-.1,1.177,1.177,0,0,1-.617-0.785,1.3,1.3,0,0,1,.339-1.324l6.527-6.621-8.941-2.6a1.321,1.321,0,0,1-.938-0.962,1.25,1.25,0,0,1,.166-1.045,1.383,1.383,0,0,1,.827-0.614,1.209,1.209,0,0,1,.689.012l10.962,3.194a1.381,1.381,0,0,1,1,1,1.448,1.448,0,0,1-.391,1.337h0Z"/>
  <path id="_copy_2" data-name="&lt;/&gt; copy 2" class="cls-3" d="M310.961,306.682l-4.577,8.108,9.295,0.173a1.3,1.3,0,0,1,1.168.709,1.175,1.175,0,0,1,.107.993,1.377,1.377,0,0,1-.653.784,1.752,1.752,0,0,1-.678.2l-11.429-.271a1.451,1.451,0,0,1-1.214-.683,1.384,1.384,0,0,1,.018-1.416l5.607-9.947a1.2,1.2,0,0,1,.484-0.49,1.383,1.383,0,0,1,1.021-.139,1.252,1.252,0,0,1,.849.632,1.321,1.321,0,0,1,0,1.343h0Zm16.967,8.115-16.839-13.413a1.51,1.51,0,0,1-.4-0.442,1.258,1.258,0,0,1-.121-1.016,1.328,1.328,0,0,1,.64-0.807,1.457,1.457,0,0,1,.744-0.2,1.161,1.161,0,0,1,.734.269l16.839,13.413a1.7,1.7,0,0,1,.382.455,1.314,1.314,0,0,1-.5,1.81,1.4,1.4,0,0,1-.751.184,1.257,1.257,0,0,1-.727-0.258h0Zm9.365-16.274-5.594,9.97a1.757,1.757,0,0,1-.521.48,1.372,1.372,0,0,1-1.007.161,1.177,1.177,0,0,1-.8-0.6,1.3,1.3,0,0,1-.014-1.367l4.59-8.084-9.309-.2a1.319,1.319,0,0,1-1.154-.687,1.251,1.251,0,0,1-.111-1.052,1.384,1.384,0,0,1,.64-0.807,1.2,1.2,0,0,1,.668-0.167l11.416,0.248a1.38,1.38,0,0,1,1.227.706,1.447,1.447,0,0,1-.031,1.393h0Z"/>
  <path class="cls-3" d="M821.059,623.8l-9.9,3.554a2.237,2.237,0,0,0-1.348,2.858l5.249,14.619a2.235,2.235,0,0,0,2.857,1.347l9.9-3.554a2.237,2.237,0,0,0,1.348-2.858l-5.249-14.618A2.236,2.236,0,0,0,821.059,623.8Zm-9.018,5.717,9.932-3.905,5.407,15.059-10.353,3.717Z"/>
  <path id="Shape_10_copy_2" data-name="Shape 10 copy 2" class="cls-3" d="M45.059,74.8l-9.9,3.554a2.237,2.237,0,0,0-1.348,2.858l5.249,14.619a2.237,2.237,0,0,0,2.858,1.348l9.9-3.554a2.237,2.237,0,0,0,1.348-2.858L47.916,76.148A2.237,2.237,0,0,0,45.059,74.8Zm-9.018,5.717,9.933-3.905L51.38,91.671,41.027,95.388Z"/>
  <path id="Shape_10_copy" data-name="Shape 10 copy" class="cls-3" d="M1754.52,521.193l-9.52-4.487a2.235,2.235,0,0,0-2.97,1.068l-6.63,14.048a2.247,2.247,0,0,0,1.07,2.974l9.52,4.487a2.236,2.236,0,0,0,2.97-1.068l6.62-14.048A2.234,2.234,0,0,0,1754.52,521.193Zm-10.42-2.333,9.78,4.262-6.82,14.471-9.95-4.693Z"/>
  <path id="Rounded_Rectangle_7" data-name="Rounded Rectangle 7" class="cls-3" d="M1063.49,193.46a1.492,1.492,0,0,0,0-2.121l-9.9-9.9a1.5,1.5,0,1,0-2.12,2.122l9.9,9.9A1.5,1.5,0,0,0,1063.49,193.46Zm14.14,0,9.9-9.9a1.5,1.5,0,0,0-2.12-2.122l-9.9,9.9A1.5,1.5,0,0,0,1077.63,193.46Zm-8.26-20.74a1.5,1.5,0,0,0-1.5,1.5v14a1.5,1.5,0,1,0,3,0v-14A1.506,1.506,0,0,0,1069.37,172.72Z"/>
  <path id="Rounded_Rectangle_7_copy" data-name="Rounded Rectangle 7 copy" class="cls-3" d="M1804.82,47.508a1.5,1.5,0,0,0-1.06,1.837l3.62,13.523a1.5,1.5,0,0,0,2.9-.776l-3.63-13.523A1.491,1.491,0,0,0,1804.82,47.508Zm-12.25-7.071-13.52,3.624a1.5,1.5,0,1,0,.77,2.9l13.52-3.623A1.5,1.5,0,1,0,1792.57,40.437Zm-3.21,22.095a1.5,1.5,0,0,0,2.05-.549l7-12.124a1.5,1.5,0,0,0-2.6-1.5l-7,12.124A1.493,1.493,0,0,0,1789.36,62.532Z"/>
  <circle id="Ellipse_7_copy_3" data-name="Ellipse 7 copy 3" class="cls-2" cx="1846.19" cy="747" r="4"/>
  <circle id="Ellipse_7_copy_3-2" data-name="Ellipse 7 copy 3" class="cls-2" cx="1835.19" cy="737" r="2"/>
  <path class="cls-3" d="M1848.47,182.041a8.542,8.542,0,0,0-.12-1.953c0.8-.175,1.78-0.438,2.84-0.721a15.2,15.2,0,0,1,.43,1.909c0.58,4.26-4.33,8.327-4.33,8.327a5.369,5.369,0,0,0,.36-3.5A27.22,27.22,0,0,0,1848.47,182.041Zm0.29-19.547c-0.04.012-.09,0.025-0.13,0.039a5.9,5.9,0,0,0-4.2,6.389,4.633,4.633,0,0,0,.51,1.6,4.736,4.736,0,0,1-.14-0.653,5.316,5.316,0,0,1,3.77-5.746,4.019,4.019,0,0,1,.69-0.145,3.965,3.965,0,0,1,4.38,3.522,5.122,5.122,0,0,1-.63,3.246,5.785,5.785,0,0,0,1.29-4.433,6.814,6.814,0,0,0-.18-0.8,4.445,4.445,0,0,0-5.36-3.021m1.51-.16c1.19,0.047,2.74.846,2.48,2.008-0.17.857-1.68-.076-2.85-0.085s-2.8.427-2.71-.448C1847.37,162.544,1849.09,162.288,1850.27,162.334Zm20.1,2.389a0.518,0.518,0,0,0-.24-0.5c-1.58-.912-3.35-1.936-3.35-1.936l0.02,4.45-2.78-2.212-1.05,3.32-1.76-1.545-1.51,3.108s0.58-2.113,1.02-3.594a10.583,10.583,0,0,0,.28-3.021c-0.25-1.8-.57-4.433-1.68-5.835-1.72-2.165-4.62-1.356-4.62-1.356a7.4,7.4,0,0,0-3.76-4.538,40.676,40.676,0,0,0,1.03,4.907s-2.58-4.046-5.36-3.544c1.88,2.331.97,3.181,0.97,3.181a7.766,7.766,0,0,0-3.64-1.333c1.32,1.429.58,2.315-.13,2.384a12.337,12.337,0,0,1-2.14.007,6.387,6.387,0,0,0-5.46,4.257,14.207,14.207,0,0,0-.07,8.2,32.476,32.476,0,0,0-3.64-2.994c-1.68-1.129-4.8-.982-4.8-0.982l4.02,8.642s-0.76,2.024-1.27,3.741a38.546,38.546,0,0,0-.84,5.327,25.726,25.726,0,0,0,4.23-3.4,30.625,30.625,0,0,0,2.86-4.166,17.64,17.64,0,0,0,1.83,4.409c1.59,2.326,4.92,1.758,4.92,1.758a46.155,46.155,0,0,1-3.34,6.565,22.381,22.381,0,0,1-1.37,5.469,10.335,10.335,0,0,0,6.46-5.213c2.51-4.36.79-7.623,0.79-7.623s12.59-2.726,19.36-6.322,7.23-7.038,7.23-7.038A8.05,8.05,0,0,0,1870.37,164.723Zm-19.25,9.371a6.533,6.533,0,1,1,4.61-8A6.528,6.528,0,0,1,1851.12,174.094Z"/>
  <path id="Shape_12_copy" data-name="Shape 12 copy" class="cls-3" d="M817.467,199.041a7.961,7.961,0,0,0-.118-1.953c0.8-.175,1.786-0.438,2.844-0.721a15.935,15.935,0,0,1,.43,1.909c0.575,4.26-4.328,8.327-4.328,8.327a5.446,5.446,0,0,0,.358-3.5A27.328,27.328,0,0,0,817.467,199.041Zm0.294-19.547-0.135.039a5.911,5.911,0,0,0-4.2,6.389,4.857,4.857,0,0,0,.511,1.6,3.785,3.785,0,0,1-.135-0.653,5.322,5.322,0,0,1,3.765-5.746,4.125,4.125,0,0,1,.69-0.144,3.969,3.969,0,0,1,4.386,3.521,5.221,5.221,0,0,1-.629,3.246,5.776,5.776,0,0,0,1.282-4.433,5.464,5.464,0,0,0-.174-0.8,4.445,4.445,0,0,0-5.361-3.021m1.512-.16c1.187,0.047,2.737.846,2.482,2.008-0.176.857-1.681-.076-2.858-0.085s-2.8.427-2.711-.448C816.373,179.544,818.086,179.288,819.273,179.334Zm20.1,2.389a0.519,0.519,0,0,0-.238-0.5l-3.353-1.936,0.018,4.45-2.779-2.212-1.055,3.32-1.753-1.545-1.512,3.108s0.579-2.113,1.021-3.594A10.3,10.3,0,0,0,830,179.79c-0.248-1.8-.564-4.433-1.678-5.835C826.6,171.79,823.7,172.6,823.7,172.6a7.428,7.428,0,0,0-3.767-4.538,42.918,42.918,0,0,0,1.032,4.907s-2.583-4.046-5.364-3.544c1.88,2.331.974,3.181,0.974,3.181a7.759,7.759,0,0,0-3.637-1.333c1.314,1.429.58,2.315-.131,2.384a12.382,12.382,0,0,1-2.144.007,6.391,6.391,0,0,0-5.46,4.257,14.2,14.2,0,0,0-.07,8.2,32.624,32.624,0,0,0-3.637-2.994c-1.679-1.129-4.8-.982-4.8-0.982l4.016,8.642s-0.753,2.024-1.265,3.741a38.227,38.227,0,0,0-.84,5.327,25.894,25.894,0,0,0,4.231-3.4,30.485,30.485,0,0,0,2.852-4.166,17.622,17.622,0,0,0,1.829,4.409c1.6,2.326,4.926,1.758,4.926,1.758a45.642,45.642,0,0,1-3.344,6.565,22.3,22.3,0,0,1-1.369,5.469,10.3,10.3,0,0,0,6.459-5.213c2.517-4.36.792-7.623,0.792-7.623s12.592-2.726,19.363-6.322,7.225-7.038,7.225-7.038A8,8,0,0,0,839.372,181.723Zm-19.256,9.371a6.532,6.532,0,1,1,4.619-8A6.532,6.532,0,0,1,820.116,191.094Z"/>
  <path id="Shape_12_copy_2" data-name="Shape 12 copy 2" class="cls-3" d="M125.467,580.041a7.961,7.961,0,0,0-.118-1.953c0.8-.175,1.786-0.438,2.844-0.721a15.935,15.935,0,0,1,.43,1.909c0.575,4.26-4.328,8.327-4.328,8.327a5.446,5.446,0,0,0,.358-3.5A27.328,27.328,0,0,0,125.467,580.041Zm0.294-19.547c-0.045.012-.091,0.025-0.135,0.039a5.911,5.911,0,0,0-4.2,6.389,4.857,4.857,0,0,0,.511,1.605,3.785,3.785,0,0,1-.135-0.653,5.322,5.322,0,0,1,3.765-5.746,4.125,4.125,0,0,1,.69-0.144,3.969,3.969,0,0,1,4.386,3.521,5.221,5.221,0,0,1-.629,3.246,5.776,5.776,0,0,0,1.282-4.433,5.464,5.464,0,0,0-.174-0.8,4.445,4.445,0,0,0-5.361-3.021m1.512-.16c1.187,0.047,2.737.846,2.482,2.008-0.176.857-1.681-.076-2.858-0.085s-2.8.427-2.711-.448C124.373,560.544,126.086,560.288,127.273,560.334Zm20.1,2.389a0.519,0.519,0,0,0-.238-0.5l-3.353-1.936,0.018,4.45-2.779-2.212-1.055,3.32-1.754-1.545-1.512,3.108s0.58-2.113,1.022-3.594A10.3,10.3,0,0,0,138,560.79c-0.248-1.8-.564-4.433-1.678-5.835C134.6,552.79,131.7,553.6,131.7,553.6a7.428,7.428,0,0,0-3.767-4.538,42.918,42.918,0,0,0,1.032,4.907s-2.583-4.046-5.364-3.544c1.88,2.331.974,3.181,0.974,3.181a7.759,7.759,0,0,0-3.637-1.333c1.314,1.429.58,2.315-.131,2.384a12.382,12.382,0,0,1-2.144.007,6.391,6.391,0,0,0-5.46,4.257,14.2,14.2,0,0,0-.07,8.2,32.624,32.624,0,0,0-3.637-2.994c-1.679-1.129-4.8-.982-4.8-0.982l4.016,8.642s-0.753,2.024-1.265,3.741a38.227,38.227,0,0,0-.84,5.327,25.894,25.894,0,0,0,4.231-3.4,30.485,30.485,0,0,0,2.852-4.166,17.622,17.622,0,0,0,1.829,4.409c1.595,2.326,4.926,1.758,4.926,1.758a45.642,45.642,0,0,1-3.344,6.565,22.3,22.3,0,0,1-1.369,5.469,10.3,10.3,0,0,0,6.459-5.213c2.517-4.36.792-7.623,0.792-7.623s12.592-2.726,19.362-6.322,7.226-7.038,7.226-7.038A8,8,0,0,0,147.372,562.723Zm-19.256,9.371a6.532,6.532,0,1,1,4.619-8A6.532,6.532,0,0,1,128.116,572.094Z"/>
</svg>
