<svg id="Paralax_03" data-name="Paralax 03" xmlns="http://www.w3.org/2000/svg" width="1920" height="800" viewBox="0 0 1920 800"><defs><style>.cls-1{fill-opacity:0;}.cls-2{fill:#afc3ff;}</style></defs><title>Paralax_03_1</title><rect class="cls-1" width="1920" height="800"/><circle class="cls-2" cx="1088.19" cy="651" r="4"/><circle id="Ellipse_7_copy_2" data-name="Ellipse 7 copy 2" class="cls-2" cx="278.19" cy="409" r="4"/><circle id="Ellipse_7_copy_4" data-name="Ellipse 7 copy 4" class="cls-2" cx="560.19" cy="698" r="4"/><circle id="Ellipse_7_copy_7" data-name="Ellipse 7 copy 7" class="cls-2" cx="1295.19" cy="529" r="4"/><circle id="Ellipse_7_copy_8" data-name="Ellipse 7 copy 8" class="cls-2" cx="270.19" cy="122" r="4"/><circle id="Ellipse_7_copy_5" data-name="Ellipse 7 copy 5" class="cls-2" cx="813.19" cy="8" r="4"/><circle id="Ellipse_7_copy_6" data-name="Ellipse 7 copy 6" class="cls-2" cx="1096.19" cy="130" r="4"/><circle id="Ellipse_7_copy" data-name="Ellipse 7 copy" class="cls-2" cx="1077.19" cy="661" r="2"/><path class="cls-2" d="M367.49,242.6a8.43,8.43,0,0,1-3.83-3,6.84,6.84,0,0,1-.45-6.42,10.68,10.68,0,0,1,5.11-5.08,31.5,31.5,0,0,0-15.49-2,1.27,1.27,0,0,1-.31-2.52,34.15,34.15,0,0,1,16.91,2.19q1.14.47,2.13.93a30.28,30.28,0,0,1,17.11-.05,1.27,1.27,0,1,1-.67,2.44h0a29.49,29.49,0,0,0-13.21-.58c5.52,3.69,5.51,7.56,5.14,9.29a7.7,7.7,0,0,1-7.6,5.84A13.66,13.66,0,0,1,367.49,242.6Zm3.9-13.16c-2.95,1.1-5.07,2.75-5.83,4.63a4.27,4.27,0,0,0,.22,4.1c1.12,1.72,3.6,2.81,6.63,2.92a5.16,5.16,0,0,0,5-3.83c.57-2.69-1.66-5.51-6.06-7.82Zm-31.5.55a1.29,1.29,0,0,1-.67-1.67,1.36,1.36,0,0,1,.49-.57,28.8,28.8,0,0,1,5.48-2.49,1.28,1.28,0,0,1,1.61.79,1.26,1.26,0,0,1-.78,1.61h0a26.87,26.87,0,0,0-4.95,2.23,1.24,1.24,0,0,1-1.18.09Z"/><path id="Shape_8_copy" data-name="Shape 8 copy" class="cls-2" d="M1382.28,673.24a8.48,8.48,0,0,1,1.27,4.73,6.82,6.82,0,0,1-3.46,5.43,10.68,10.68,0,0,1-7.13,1,31.39,31.39,0,0,0,11.28,10.8,1.27,1.27,0,0,1-1.25,2.21,33.94,33.94,0,0,1-12.28-11.82c-.44-.7-.82-1.37-1.17-2a30.25,30.25,0,0,1-13.78-10.13,1.27,1.27,0,0,1,2-1.57,29.44,29.44,0,0,0,10.27,8.33c-2.24-6.25.07-9.35,1.4-10.53a7.71,7.71,0,0,1,9.59-.17A13.31,13.31,0,0,1,1382.28,673.24Zm-11,8.25c3,.87,5.71.81,7.44-.25a4.26,4.26,0,0,0,2.26-3.42c.12-2.05-1.22-4.4-3.59-6.3a5.18,5.18,0,0,0-6.33.08c-2,1.83-1.94,5.42.22,9.89Zm25.64,18.3a1.27,1.27,0,0,1-1.19,1.91,28.8,28.8,0,0,1-5.88-1.26,1.28,1.28,0,0,1-.8-1.61,1.26,1.26,0,0,1,1.56-.81,26.9,26.9,0,0,0,5.31,1.15,1.26,1.26,0,0,1,1,.63Z"/><path id="Rounded_Rectangle_3_copy_14" data-name="Rounded Rectangle 3 copy 14" class="cls-2" d="M761.38,467h20.24a2.37,2.37,0,0,1,2.38,2.38v.24a2.37,2.37,0,0,1-2.38,2.38H761.38a2.37,2.37,0,0,1-2.38-2.38v-.24A2.37,2.37,0,0,1,761.38,467Zm13-8h20.24a2.38,2.38,0,0,1,2.38,2.38h0v.24a2.37,2.37,0,0,1-2.38,2.38H774.38a2.37,2.37,0,0,1-2.38-2.38v-.24a2.37,2.37,0,0,1,2.38-2.38Z"/><path id="Rounded_Rectangle_3_copy_15" data-name="Rounded Rectangle 3 copy 15" class="cls-2" d="M1586.37,642h20.25a2.38,2.38,0,0,1,2.38,2.37h0v.24a2.37,2.37,0,0,1-2.37,2.38h-20.26a2.37,2.37,0,0,1-2.37-2.37h0v-.24a2.38,2.38,0,0,1,2.37-2.38Zm13-8h20.24a2.38,2.38,0,0,1,2.38,2.37h0v.24a2.38,2.38,0,0,1-2.37,2.38h-20.25a2.38,2.38,0,0,1-2.38-2.37h0v-.24a2.38,2.38,0,0,1,2.37-2.38Z"/><path id="_" data-name=" " class="cls-2" d="M1422.9,447.5l-6.52-6.65,8.93-2.57a1.32,1.32,0,0,0,.94-1,1.13,1.13,0,0,0-.15-1,1.35,1.35,0,0,0-.83-.59,1.55,1.55,0,0,0-.71,0l-11,3.22a1.45,1.45,0,0,0-1,1,1.38,1.38,0,0,0,.39,1.36l8,8.16a1.23,1.23,0,0,0,.59.35,1.42,1.42,0,0,0,1-.13,1.27,1.27,0,0,0,.65-.83,1.33,1.33,0,0,0-.34-1.3Zm14.28-12.23-12.79,17.31a1.59,1.59,0,0,0-.28.53,1.34,1.34,0,0,0,1,1.63,1.44,1.44,0,0,0,.77,0,1.17,1.17,0,0,0,.64-.45L1439.29,437a1.56,1.56,0,0,0,.25-.54,1.28,1.28,0,0,0-.13-1,1.3,1.3,0,0,0-.82-.61,1.35,1.35,0,0,0-.77,0,1.28,1.28,0,0,0-.64.43Zm13.26,13.3-8-8.18a1.53,1.53,0,0,0-.63-.33,1.36,1.36,0,0,0-1,.1,1.17,1.17,0,0,0-.62.78,1.29,1.29,0,0,0,.34,1.33l6.52,6.62-8.94,2.6a1.3,1.3,0,0,0-.93,1,1.2,1.2,0,0,0,.16,1,1.39,1.39,0,0,0,.83.62,1.24,1.24,0,0,0,.69,0l11-3.2a1.36,1.36,0,0,0,1-1,1.43,1.43,0,0,0-.39-1.33Z"/><path id="_copy_2" data-name=" copy 2" class="cls-2" d="M196,589.32l-4.58-8.11,9.3-.17a1.3,1.3,0,0,0,1.17-.71,1.19,1.19,0,0,0,.11-1,1.38,1.38,0,0,0-.65-.79,1.78,1.78,0,0,0-.68-.2l-11.43.27a1.45,1.45,0,0,0-1.21.69,1.37,1.37,0,0,0,0,1.41l5.61,9.95a1.19,1.19,0,0,0,.48.49,1.45,1.45,0,0,0,1,.14,1.25,1.25,0,0,0,.85-.63,1.31,1.31,0,0,0,0-1.35Zm17-8.12-16.84,13.42a1.53,1.53,0,0,0-.4.44,1.23,1.23,0,0,0-.12,1,1.27,1.27,0,0,0,.64.81,1.47,1.47,0,0,0,.74.2,1.18,1.18,0,0,0,.74-.27l16.83-13.41a1.57,1.57,0,0,0,.39-.46,1.31,1.31,0,0,0-.48-1.79l0,0a1.41,1.41,0,0,0-.75-.18,1.27,1.27,0,0,0-.73.26h0Zm9.36,16.28-5.59-10a1.7,1.7,0,0,0-.52-.48,1.37,1.37,0,0,0-1-.16,1.19,1.19,0,0,0-.8.6,1.28,1.28,0,0,0,0,1.36l4.59,8.09-9.31.2a1.32,1.32,0,0,0-1.16.68,1.27,1.27,0,0,0-.11,1.06,1.35,1.35,0,0,0,.64.8,1.22,1.22,0,0,0,.67.17l11.42-.25a1.37,1.37,0,0,0,1.22-.7,1.45,1.45,0,0,0,0-1.4Z"/><path class="cls-2" d="M1724.06,189.2l-9.9-3.55a2.24,2.24,0,0,1-1.35-2.86h0l5.25-14.62a2.25,2.25,0,0,1,2.86-1.35l9.9,3.56a2.22,2.22,0,0,1,1.34,2.85h0l-5.24,14.62A2.25,2.25,0,0,1,1724.06,189.2Zm-9-5.72,9.93,3.91,5.41-15.06L1720,168.61Z"/><path id="Shape_10_copy" data-name="Shape 10 copy" class="cls-2" d="M640.52,229.81,631,234.29a2.23,2.23,0,0,1-3-1.06l-6.63-14a2.24,2.24,0,0,1,1.07-3l9.51-4.48a2.24,2.24,0,0,1,3,1.06l6.62,14.05A2.24,2.24,0,0,1,640.52,229.81Zm-10.42,2.33,9.78-4.26-6.82-14.47-9.95,4.69Z"/><path id="Rounded_Rectangle_7" data-name="Rounded Rectangle 7" class="cls-2" d="M876.49,55.54a1.49,1.49,0,0,1,0,2.12l-9.9,9.9a1.5,1.5,0,0,1-2.12-2.12l9.9-9.9A1.49,1.49,0,0,1,876.49,55.54Zm14.14,0,9.9,9.9a1.5,1.5,0,0,1-2.12,2.12l-9.9-9.9a1.5,1.5,0,0,1,2.08-2.16Zm-8.26,20.74a1.5,1.5,0,0,1-1.5-1.5v-14a1.5,1.5,0,1,1,3,0h0v14A1.5,1.5,0,0,1,882.37,76.28Z"/><path id="Rounded_Rectangle_7_copy" data-name="Rounded Rectangle 7 copy" class="cls-2" d="M531.82,378.49a1.49,1.49,0,0,1-1.06-1.83h0l3.62-13.52a1.5,1.5,0,1,1,2.9.78l-3.62,13.52a1.5,1.5,0,0,1-1.84,1.06Zm-12.25,7.07L506,381.94a1.5,1.5,0,0,1,.78-2.9h0l13.52,3.62a1.5,1.5,0,1,1-.77,2.9Zm-3.21-22.09a1.5,1.5,0,0,1,2,.55l7,12.12a1.51,1.51,0,0,1-.55,2.05,1.49,1.49,0,0,1-2.05-.55h0l-7-12.12a1.49,1.49,0,0,1,.55-2Z"/><circle id="Ellipse_7_copy_3" data-name="Ellipse 7 copy 3" class="cls-2" cx="1708.19" cy="4" r="4"/><circle id="Ellipse_7_copy_3-2" data-name="Ellipse 7 copy 3-2" class="cls-2" cx="1697.19" cy="14" r="2"/><path id="Shape_12_copy" data-name="Shape 12 copy" class="cls-2" d="M1410.87,216a8,8,0,0,0-.12-1.95c.8-.18,1.78-.44,2.84-.72a13.55,13.55,0,0,1,.43,1.91c.58,4.26-4.33,8.32-4.33,8.32a5.34,5.34,0,0,0,.36-3.5A26.79,26.79,0,0,0,1410.87,216Zm.29-19.55-.13,0a5.91,5.91,0,0,0-4.2,6.39,4.76,4.76,0,0,0,.51,1.6,4.69,4.69,0,0,1-.14-.65,5.33,5.33,0,0,1,3.77-5.75,4,4,0,0,1,4.92,2.63,3.22,3.22,0,0,1,.15.75,5.07,5.07,0,0,1-.63,3.25,5.54,5.54,0,0,0,1.11-5.24,4.45,4.45,0,0,0-5.36-3m1.51-.16c1.19,0,2.74.85,2.48,2-.17.86-1.68-.08-2.85-.09s-2.8.43-2.71-.44c.18-1.27,1.9-1.52,3.08-1.48Zm20.1,2.39a.51.51,0,0,0-.24-.5l-3.35-1.93,0,4.45-2.78-2.22-1.05,3.32-1.76-1.54-1.51,3.11s.58-2.12,1-3.6a10.23,10.23,0,0,0,.28-3c-.25-1.8-.57-4.43-1.68-5.83-1.72-2.17-4.62-1.36-4.62-1.36a7.4,7.4,0,0,0-3.76-4.54,42.79,42.79,0,0,0,1,4.91s-2.58-4.05-5.36-3.54c1.88,2.33,1,3.18,1,3.18a7.71,7.71,0,0,0-3.64-1.34c1.32,1.43.58,2.32-.13,2.39a12.74,12.74,0,0,1-2.14,0,6.41,6.41,0,0,0-5.46,4.26,14.22,14.22,0,0,0-.07,8.2,32.69,32.69,0,0,0-3.64-3c-1.68-1.13-4.8-1-4.8-1l4,8.64s-.76,2-1.27,3.74a39.68,39.68,0,0,0-.84,5.33,26.26,26.26,0,0,0,4.23-3.4,30.19,30.19,0,0,0,2.86-4.17,17.94,17.94,0,0,0,1.83,4.41c1.59,2.33,4.92,1.76,4.92,1.76a45,45,0,0,1-3.34,6.56,21.94,21.94,0,0,1-1.37,5.47,10.34,10.34,0,0,0,6.46-5.21c2.51-4.36.79-7.62.79-7.62s12.59-2.73,19.36-6.33,7.23-7,7.23-7a8,8,0,0,0-2.21-2.58Zm-19.25,9.37a6.53,6.53,0,1,1,4.61-8h0a6.52,6.52,0,0,1-4.6,8Z"/><path id="Shape_12_copy_2" data-name="Shape 12 copy 2" class="cls-2" d="M34.35,776.44a7.52,7.52,0,0,0,.87-1.75c.79.25,1.77.52,2.83.8a16.88,16.88,0,0,1-.58,1.87c-1.64,4-7.92,5-7.92,5a5.42,5.42,0,0,0,2.06-2.85A27.07,27.07,0,0,0,34.35,776.44Zm10-16.78-.14,0a5.91,5.91,0,0,0-6.83,3.43,4.88,4.88,0,0,0-.36,1.64,3.88,3.88,0,0,1,.21-.63A5.32,5.32,0,0,1,43.39,761a3.75,3.75,0,0,1,.67.22,4,4,0,0,1,2,5.23h0a5.14,5.14,0,0,1-2.17,2.5,5.79,5.79,0,0,0,3.33-3.2,5.44,5.44,0,0,0,.25-.78,4.44,4.44,0,0,0-3.13-5.3m1.39.62c1,.63,1.95,2.1,1.14,3-.58.66-1.41-.9-2.43-1.5s-2.64-1-2.12-1.74c.79-1,2.4-.36,3.41.27ZM62,772.39a.52.52,0,0,0,.05-.55l-1.94-3.35-2.21,3.86-1.3-3.3L54,771.4l-.75-2.22-2.86,1.94s1.56-1.54,2.68-2.6A10.5,10.5,0,0,0,54.83,766c.68-1.68,1.73-4.12,1.46-5.89-.4-2.74-3.31-3.48-3.31-3.48a7.46,7.46,0,0,0-1-5.82,44.28,44.28,0,0,0-1.56,4.77s-.21-4.8-2.87-5.75c.46,3-.75,3.24-.75,3.24a7.8,7.8,0,0,0-2.48-3c.42,1.9-.66,2.3-1.3,2a12.22,12.22,0,0,1-1.86-1.06,6.38,6.38,0,0,0-6.86,1,14.17,14.17,0,0,0-4.16,7.06,31.61,31.61,0,0,0-1.65-4.41c-.89-1.82-3.67-3.25-3.67-3.25L24,760.92s-1.66,1.38-3,2.61a40,40,0,0,0-3.39,4.19,25.66,25.66,0,0,0,5.37-.83,30.65,30.65,0,0,0,4.55-2.18,17.61,17.61,0,0,0-.62,4.73c.22,2.82,3.39,4,3.39,4a46.33,46.33,0,0,1-6.18,4,22.44,22.44,0,0,1-3.92,4,10.3,10.3,0,0,0,8.2-1.28c4.36-2.52,4.5-6.21,4.5-6.21s12.27,3.94,19.93,4.21,9.78-2.48,9.78-2.48A8.1,8.1,0,0,0,62,772.4Zm-21.36-1.51a6.53,6.53,0,1,1,8-4.62,6.53,6.53,0,0,1-8,4.62h0Z"/></svg>