<svg width="48" height="40" viewBox="0 0 48 40" fill="none" xmlns="http://www.w3.org/2000/svg">
<path d="M19.6408 30.4395C19.8539 29.816 19.9879 29.1688 20.0399 28.5129C20.8781 28.5522 21.9158 28.5522 23.0333 28.5522C23.0473 29.2085 23.0207 29.8651 22.9535 30.5182C22.3947 34.804 16.4878 37.4778 16.4878 37.4778C17.2728 36.5464 17.722 35.3848 17.7649 34.1749C18.4854 32.9784 19.1124 31.7297 19.6408 30.4395Z" fill="#4660E4"/>
<path d="M7.02904 39.0112C7.02904 39.0112 9.18427 36.1015 9.82286 34.0569C11.4592 32.8379 14.8517 28.5521 14.8517 28.5521C14.8517 28.5521 11.4193 28.2375 10.4615 25.5638C9.82286 23.873 9.82286 20.8061 9.82286 20.8061C8.6143 22.012 7.30601 23.1167 5.91151 24.1089C4.07557 25.2885 0.842712 26.3108 0.842712 26.3108C0.842712 26.3108 2.11989 22.89 3.07777 21.3565C4.03566 19.8231 5.31283 18.0537 5.31283 18.0537L3.63654 8.6169C3.63654 8.6169 6.74966 9.28534 8.10666 10.8188C9.13109 12.0352 10.0648 13.323 10.9005 14.6722C10.9005 14.6722 10.661 10.2683 13.1355 6.72955C13.8408 5.70949 14.8295 4.91116 15.9832 4.43003C17.1369 3.9489 18.4068 3.80532 19.6412 4.01648C20.3289 4.25961 21.0366 4.44379 21.7565 4.56695C22.4749 4.68491 23.4328 4.01648 22.5148 2.2864C24.1911 2.71892 25.7477 4.52763 25.7477 4.52763C25.7477 4.52763 26.8652 3.93784 25.6279 1.18545C28.5016 1.42136 29.9783 6.02179 29.9783 6.02179C29.9719 4.34021 30.0652 2.6597 30.2577 0.988846C31.0278 1.67016 31.6481 2.49956 32.0806 3.42599C32.513 4.35242 32.7484 5.35625 32.7721 6.37567C32.7721 6.37567 35.6857 6.41499 36.9629 8.89214C38.2401 11.3693 36.1247 20.2163 36.1247 20.2163L37.4019 21.2386L39.5172 17.7784L41.6725 20.6488L42.8299 16.3236C42.8299 16.3236 44.3865 17.6998 45.6237 19.076C46.4307 20.0367 47.004 21.1664 47.3 22.3789C47.3 22.3789 45.943 25.6031 38.3199 27.3332C30.6967 29.0632 17.5658 28.4341 17.5658 28.4341C17.5658 28.4341 18.4039 32.0515 14.7719 35.6297C13.7899 36.6915 12.5944 37.5404 11.2614 38.1226C9.92845 38.7047 8.48712 39.0073 7.02904 39.0112Z" fill="#7699FF"/>
<path d="M24.3508 23.4012C28.0319 23.4012 31.0161 20.4613 31.0161 16.8348C31.0161 13.2082 28.0319 10.2684 24.3508 10.2684C20.6697 10.2684 17.6855 13.2082 17.6855 16.8348C17.6855 20.4613 20.6697 23.4012 24.3508 23.4012Z" fill="#1D1D1B"/>
<path opacity="0.1" d="M29.5402 16.6772C29.433 17.4684 29.1614 18.2294 28.7426 18.9126C28.3237 19.5959 27.7665 20.1868 27.1056 20.6485C27.9136 19.8365 28.4319 18.7877 28.5823 17.6602C28.6646 17.1412 28.642 16.6112 28.5159 16.1008C28.3898 15.5903 28.1626 15.1094 27.8474 14.6857C27.5322 14.2619 27.1352 13.9036 26.6792 13.6314C26.2231 13.3591 25.717 13.1782 25.1898 13.0991C24.9518 13.0664 24.7115 13.0533 24.4714 13.0598C23.1887 13.0947 21.9601 13.5758 21.0031 14.4179C20.0461 15.26 19.4225 16.4086 19.2429 17.6602C19.2098 17.8815 19.1964 18.1051 19.203 18.3287C19.0771 17.7739 19.05 17.2018 19.1232 16.6379C19.3231 15.2442 20.0184 13.9656 21.0855 13.0296C22.1525 12.0936 23.522 11.5609 24.9503 11.5263C26.1448 11.5009 27.3012 11.9409 28.1681 12.7509C29.0351 13.5608 29.5425 14.6751 29.5801 15.8515C29.5877 16.1273 29.5744 16.4034 29.5402 16.6772Z" fill="white"/>
<path d="M26.6251 11.7628C27.7825 12.1167 29.0996 13.2963 28.5408 14.3579C28.1417 15.1443 26.9044 13.8468 25.747 13.5322C24.5896 13.2177 22.8733 13.2177 23.1926 12.3919C23.7115 11.2123 25.4676 11.4089 26.6251 11.7628Z" fill="white"/>
<path d="M42.0733 20.9245C39.4202 21.3504 36.7192 21.4034 34.051 21.0818L36.0067 17.8575L37.683 20.4133L39.5987 17.4643L41.754 20.3347L42.9114 16.0095L45.7052 18.7619C45.9846 19.0371 46.264 20.1774 42.0733 20.9245Z" fill="#F76F60"/>
</svg>
