<svg width="56" height="56" viewBox="0 0 56 56" fill="none" xmlns="http://www.w3.org/2000/svg">
<path d="M22.6774 40.5972C22.9321 39.8404 23.0924 39.0549 23.1546 38.2588C24.1568 38.3065 25.3976 38.3065 26.7338 38.3065C26.7506 39.1031 26.7188 39.9 26.6384 40.6927C25.9703 45.8945 18.9072 49.1397 18.9072 49.1397C19.8459 48.0093 20.383 46.5994 20.4344 45.1309C21.2958 43.6787 22.0456 42.1631 22.6774 40.5972V40.5972Z" fill="#576FED"/>
<path d="M7.59731 51.0488C7.59731 51.0488 10.1744 47.5173 10.9379 45.0357C12.8946 43.5563 16.9511 38.3544 16.9511 38.3544C16.9511 38.3544 12.8469 37.9727 11.7015 34.7275C10.9379 32.6754 10.9379 28.9529 10.9379 28.9529C9.49284 30.4166 7.92849 31.7575 6.26106 32.9617C4.06578 34.3934 0.200195 35.6342 0.200195 35.6342C0.200195 35.6342 1.72734 31.4823 2.8727 29.6211C4.01806 27.7599 5.54521 25.6123 5.54521 25.6123L3.54083 14.1587C3.54083 14.1587 7.26325 14.97 8.88584 16.8312C10.1108 18.3075 11.2272 19.8706 12.2265 21.5081C12.2265 21.5081 11.9401 16.1631 14.899 11.868C15.7423 10.6299 16.9244 9.66099 18.3039 9.07702C19.6834 8.49306 21.202 8.3188 22.6779 8.57509C23.5002 8.87019 24.3464 9.09372 25.2072 9.24321C26.0662 9.38638 27.2116 8.57509 26.114 6.47526C28.1183 7.00022 29.9795 9.19549 29.9795 9.19549C29.9795 9.19549 31.3158 8.47964 29.8364 5.13901C33.2725 5.42535 35.0382 11.009 35.0382 11.009C35.0305 8.96801 35.1421 6.92834 35.3723 4.90039C36.2931 5.72731 37.0349 6.73398 37.5519 7.8584C38.069 8.98283 38.3504 10.2012 38.3789 11.4385C38.3789 11.4385 41.8627 11.4862 43.3898 14.4928C44.9169 17.4993 42.3876 28.2371 42.3876 28.2371L43.9148 29.4779L46.4441 25.2783L49.0212 28.7621L50.4051 23.5125C50.4051 23.5125 52.2663 25.1828 53.7458 26.8531C54.7106 28.0192 55.3962 29.3904 55.7501 30.8619C55.7501 30.8619 54.1275 34.7752 45.0124 36.875C35.8972 38.9748 20.1963 38.2113 20.1963 38.2113C20.1963 38.2113 21.1985 42.6018 16.8556 46.9446C15.6814 48.2334 14.2519 49.2638 12.6581 49.9704C11.0642 50.6769 9.34077 51.0442 7.59731 51.0488V51.0488Z" fill="#7699FF"/>
<path d="M28.3091 32.1037C32.7107 32.1037 36.2789 28.5355 36.2789 24.1339C36.2789 19.7323 32.7107 16.1641 28.3091 16.1641C23.9076 16.1641 20.3394 19.7323 20.3394 24.1339C20.3394 28.5355 23.9076 32.1037 28.3091 32.1037Z" fill="#1D1D1B"/>
<path opacity="0.1" d="M34.5131 23.9425C34.3848 24.9028 34.0602 25.8263 33.5593 26.6556C33.0585 27.4849 32.3922 28.2021 31.6019 28.7625C32.5681 27.7769 33.1878 26.504 33.3677 25.1356C33.4661 24.5056 33.4391 23.8624 33.2883 23.2428C33.1375 22.6233 32.8659 22.0396 32.489 21.5253C32.1121 21.011 31.6374 20.5761 31.0921 20.2456C30.5468 19.9152 29.9416 19.6957 29.3112 19.5997C29.0267 19.56 28.7394 19.544 28.4522 19.5519C26.9185 19.5943 25.4494 20.1783 24.3051 21.2003C23.1607 22.2223 22.4152 23.6164 22.2004 25.1356C22.1608 25.4041 22.1448 25.6755 22.1527 25.9469V25.9469C22.0021 25.2735 21.9698 24.5791 22.0573 23.8948C22.2963 22.2032 23.1277 20.6513 24.4036 19.5153C25.6795 18.3792 27.317 17.7327 29.0249 17.6907C30.4531 17.6598 31.8359 18.1939 32.8725 19.1769C33.9091 20.16 34.5158 21.5124 34.5608 22.9403C34.5699 23.2751 34.5539 23.6101 34.5131 23.9425Z" fill="white"/>
<path d="M31.0287 17.9771C32.4126 18.4066 33.9875 19.8383 33.3194 21.1268C32.8422 22.0813 31.3627 20.5064 29.9788 20.1247C28.5948 19.7429 26.5427 19.7429 26.9245 18.7407C27.5449 17.309 29.6447 17.5476 31.0287 17.9771Z" fill="white"/>
<path d="M49.4977 29.0973C46.3253 29.6143 43.0957 29.6785 39.9053 29.2881L42.2437 25.3748L44.2481 28.4768L46.5388 24.8976L49.1159 28.3814L50.4999 23.1318L53.8405 26.4725C54.1746 26.8065 54.5086 28.1905 49.4977 29.0973Z" fill="#F76F60"/>
</svg>
