<svg width="449" height="97" viewBox="0 0 449 97" fill="none" xmlns="http://www.w3.org/2000/svg">
<g clip-path="url(#clip0_699_108)">
<path d="M47.1 74.9C47.6338 73.3141 47.9697 71.6683 48.1 70C50.2 70.1 52.8 70.1 55.6 70.1C55.6352 71.7692 55.5684 73.439 55.4 75.1C54 86 39.2 92.8 39.2 92.8C41.1669 90.4313 42.2923 87.477 42.4 84.4C44.205 81.3569 45.7762 78.1811 47.1 74.9V74.9Z" fill="#576FED"/>
<path d="M15.5 96.75C15.5 96.75 20.9 89.35 22.5 84.15C26.6 81.05 35.1 70.15 35.1 70.15C35.1 70.15 26.5 69.35 24.1 62.55C22.5 58.25 22.5 50.45 22.5 50.45C19.4719 53.517 16.194 56.3267 12.7 58.8501C8.10001 61.8501 0 64.45 0 64.45C0 64.45 3.20004 55.7501 5.60004 51.8501C8.00004 47.9501 11.2 43.45 11.2 43.45L7 19.45C7 19.45 14.8 21.15 18.2 25.05C20.7668 28.1435 23.1062 31.4188 25.2 34.8501C25.2 34.8501 24.6 23.65 30.8 14.65C32.5672 12.0558 35.0442 10.0255 37.9348 8.80182C40.8254 7.57818 44.0074 7.21303 47.1 7.75005C48.8231 8.3684 50.5964 8.8368 52.4 9.15004C54.2 9.45004 56.6 7.75005 54.3 3.35005C58.5 4.45005 62.4 9.05005 62.4 9.05005C62.4 9.05005 65.2 7.55005 62.1 0.550049C69.3 1.15005 73 12.8501 73 12.8501C72.9839 8.57339 73.2176 4.29944 73.7 0.0500488C75.6295 1.78279 77.1839 3.89218 78.2673 6.24831C79.3508 8.60444 79.9404 11.1574 80 13.75C80 13.75 87.3 13.85 90.5 20.15C93.7 26.45 88.4 48.95 88.4 48.95L91.6 51.55L96.9 42.75L102.3 50.05L105.2 39.05C105.2 39.05 109.1 42.55 112.2 46.05C114.222 48.4934 115.658 51.3666 116.4 54.45C116.4 54.45 113 62.65 93.9 67.05C74.8 71.45 41.9 69.8501 41.9 69.8501C41.9 69.8501 44 79.05 34.9 88.15C32.4396 90.8505 29.4443 93.0096 26.1044 94.4902C22.7646 95.9707 19.1533 96.7403 15.5 96.75Z" fill="#7699FF"/>
<path d="M58.9 57.0001C68.1231 57.0001 75.5999 49.5233 75.5999 40.3001C75.5999 31.0769 68.1231 23.6001 58.9 23.6001C49.6768 23.6001 42.2 31.0769 42.2 40.3001C42.2 49.5233 49.6768 57.0001 58.9 57.0001Z" fill="#1D1D1B"/>
<path opacity="0.1" d="M71.9 39.9C71.6314 41.9122 70.9511 43.8474 69.9016 45.5851C68.8521 47.3228 67.4559 48.8257 65.8 50C67.8246 47.9347 69.1231 45.2674 69.5 42.4C69.7061 41.0799 69.6496 39.7321 69.3336 38.4339C69.0176 37.1357 68.4484 35.9127 67.6587 34.835C66.869 33.7573 65.8743 32.8461 64.7317 32.1536C63.589 31.4612 62.3208 31.0012 61 30.8C60.4038 30.7169 59.8017 30.6835 59.2 30.7C55.9863 30.7888 52.9079 32.0124 50.5101 34.154C48.1123 36.2955 46.55 39.2167 46.1 42.4C46.0169 42.9627 45.9834 43.5315 46 44.1V44.1C45.6844 42.6891 45.6167 41.2341 45.8 39.8C46.3009 36.2555 48.043 33.0037 50.7165 30.6232C53.39 28.2427 56.8214 26.8879 60.4 26.8C63.3928 26.7353 66.2902 27.8545 68.4623 29.9143C70.6345 31.9741 71.9058 34.808 72 37.8C72.019 38.5015 71.9856 39.2035 71.9 39.9V39.9Z" fill="white"/>
<path d="M64.6 27.4C67.5 28.3 70.8 31.3001 69.4 34.0001C68.4 36.0001 65.3 32.7 62.4 31.9C59.5 31.1 55.2 31.1001 56 29.0001C57.3 26.0001 61.7 26.5 64.6 27.4Z" fill="white"/>
<path d="M103.3 50.75C96.6526 51.8333 89.8851 51.968 83.2 51.15L88.1 42.95L92.3 49.45L97.1 41.95L102.5 49.25L105.4 38.25L112.4 45.25C113.1 45.9 113.8 48.8 103.3 50.75Z" fill="#F76F60"/>
<path d="M160.12 63.1999C158.053 63.1933 156.025 62.6334 154.247 61.5783C152.469 60.5232 151.006 59.0114 150.01 57.1999V74.9899H146.92C146.002 75.0087 145.089 74.8429 144.235 74.5021C143.382 74.1614 142.606 73.6528 141.953 73.0064C141.301 72.3601 140.784 71.5892 140.435 70.7395C140.086 69.8898 139.91 68.9786 139.92 68.0599V43.7499C139.92 30.3599 145.92 21.1799 160.05 21.1799C170.72 21.1799 178.3 30.9199 178.3 41.0299C178.28 53.8399 171.82 63.1999 160.12 63.1999ZM158.43 29.9599C152.91 29.9599 149.82 34.7399 149.82 41.6699C149.82 49.7199 153.75 54.3099 159.75 54.3099C164.61 54.3099 167.98 49.9999 167.98 43.5399C167.98 34.0799 164.8 29.9599 158.43 29.9599V29.9599Z" fill="#282828"/>
<path d="M199.63 46.4399H193.08C193.83 51.4999 198.41 54.6799 204.31 54.6799C208.53 54.6799 213.39 53.8399 216.58 50.8399H216.95V53.9299C216.95 59.0799 213.49 63.0099 202.44 63.0099C199.804 63.0067 197.195 62.4767 194.766 61.4511C192.337 60.4255 190.138 58.925 188.297 57.0377C186.456 55.1504 185.011 52.9142 184.047 50.4607C183.082 48.0071 182.617 45.3856 182.68 42.7499C182.68 29.3599 190.92 20.9299 202.35 20.9299C210.68 20.9299 218.45 26.9299 218.45 36.4799C218.54 44.0999 212.93 46.4399 199.63 46.4399ZM201.5 29.4899C196.63 29.4899 193.26 33.4299 193.08 38.1099L192.98 39.4199H197.48C206.93 39.4199 209.09 38.4199 209.09 35.5799C209.09 31.4599 206.21 29.4899 201.5 29.4899Z" fill="#282828"/>
<path d="M239.8 46.4399H233.21C233.96 51.4999 238.55 54.6799 244.45 54.6799C248.66 54.6799 253.53 53.8399 256.71 50.8399H257.09V53.9299C257.09 59.0799 253.62 63.0099 242.58 63.0099C239.946 63.0027 237.34 62.4698 234.915 61.4424C232.49 60.415 230.294 58.9139 228.457 57.027C226.619 55.1401 225.177 52.9053 224.214 50.4537C223.251 48.0021 222.788 45.383 222.85 42.7499C222.85 29.3599 231.09 20.9299 242.51 20.9299C250.85 20.9299 258.62 26.9299 258.62 36.4799C258.62 44.0999 253.09 46.4399 239.8 46.4399ZM241.67 29.4899C236.8 29.4899 233.43 33.4299 233.24 38.1099L233.15 39.4199H237.64C247.1 39.4199 249.25 38.4199 249.25 35.5799C249.21 31.4599 246.26 29.4899 241.67 29.4899Z" fill="#282828"/>
<path d="M287.64 31.7499C285.807 30.9615 283.835 30.5468 281.84 30.5299C277.34 30.5299 274.91 32.9699 274.91 39.1499V62.2699H272.21C267.72 62.2699 264.91 60.0299 264.91 55.8099V37.3699C264.91 29.3199 269.12 21.6399 279.8 21.6399C285.98 21.6399 288.13 25.0999 288.13 28.1899V31.7499H287.64Z" fill="#282828"/>
<path d="M311.98 62.9199H309.92C300.37 62.9199 293.82 57.5799 293.82 50.1899C293.82 43.0699 299.06 37.5499 313.76 37.5499H317.21V36.9799C317.21 31.2699 314.49 29.5899 308.59 29.5899C301.38 29.5899 297.36 32.2999 295.86 34.1799H295.49V30.9899C295.49 26.4999 299.49 21.1599 310.09 21.1599C319.09 21.1599 327.09 25.3699 327.09 39.2299V48.4999C327.21 57.0199 320.97 62.9199 311.98 62.9199ZM317.41 44.7499H313.86C306.27 44.7499 304.12 46.5199 304.12 49.7999C304.12 52.8899 306.65 54.7999 311.05 54.7999C315.45 54.7999 317.41 52.7399 317.41 48.6199V44.7499Z" fill="#7699FF"/>
<path d="M364.88 62.26C360.39 62.26 357.58 59.4501 357.58 55.7101V39.75C357.58 33.01 354.58 30.0201 349.44 30.0201C345.13 30.0201 342.13 33.2901 342.13 39.0201V62.34H339.13C334.91 62.34 332.13 59.53 332.13 55.78V38.2701C332.13 29.75 337.75 21.05 350.3 21.05C359.75 21.05 367.62 27.41 367.62 38.84V62.2401L364.88 62.26Z" fill="#7699FF"/>
<path d="M406.83 62.26C402.62 62.26 400.09 59.92 400.09 55.52V39.14C400.09 32.58 396.53 29.96 392.09 29.96C389 29.96 384.88 32.3 384.88 39.42V62.26H381.51C376.83 62.26 374.68 59.64 374.68 55.52V3H377.76C382.54 3 384.88 5.71001 384.88 9.46001V26.59C386.38 24.25 389.88 21.25 393.59 21.25C403.98 21.25 410.07 27.43 410.07 38.86V62.45H406.79L406.83 62.26Z" fill="#7699FF"/>
<path d="M433.14 62.9199H431.08C421.53 62.9199 414.98 57.5799 414.98 50.1899C414.98 43.0699 420.22 37.5499 434.92 37.5499H438.38V36.9799C438.38 31.2699 435.67 29.5899 429.77 29.5899C422.56 29.5899 418.53 32.2999 417.04 34.1799H416.66V30.9899C416.66 26.4999 420.66 21.1599 431.27 21.1599C440.27 21.1599 448.27 25.3699 448.27 39.2299V48.4999C448.31 57.0199 442.03 62.9199 433.14 62.9199ZM438.57 44.7599H435.01C427.43 44.7599 425.27 46.5299 425.27 49.8099C425.27 52.8999 427.8 54.8099 432.2 54.8099C436.6 54.8099 438.66 52.7499 438.66 48.6299V44.7499L438.57 44.7599Z" fill="#7699FF"/>
<path d="M393.264 77.896C394.88 77.896 396.16 78.376 397.104 79.336C398.064 80.28 398.544 81.704 398.544 83.608V91H394.8V84.184C394.8 83.16 394.584 82.4 394.152 81.904C393.736 81.392 393.136 81.136 392.352 81.136C391.472 81.136 390.776 81.424 390.264 82C389.752 82.56 389.496 83.4 389.496 84.52V91H385.752V84.184C385.752 82.152 384.936 81.136 383.304 81.136C382.44 81.136 381.752 81.424 381.24 82C380.728 82.56 380.472 83.4 380.472 84.52V91H376.728V78.088H380.304V79.576C380.784 79.032 381.368 78.616 382.056 78.328C382.76 78.04 383.528 77.896 384.36 77.896C385.272 77.896 386.096 78.08 386.832 78.448C387.568 78.8 388.16 79.32 388.608 80.008C389.136 79.336 389.8 78.816 390.6 78.448C391.416 78.08 392.304 77.896 393.264 77.896ZM417.089 84.592C417.089 84.64 417.065 84.976 417.016 85.6H407.248C407.424 86.4 407.84 87.032 408.496 87.496C409.152 87.96 409.968 88.192 410.945 88.192C411.617 88.192 412.209 88.096 412.721 87.904C413.249 87.696 413.737 87.376 414.184 86.944L416.177 89.104C414.961 90.496 413.184 91.192 410.849 91.192C409.392 91.192 408.104 90.912 406.984 90.352C405.864 89.776 405 88.984 404.392 87.976C403.784 86.968 403.48 85.824 403.48 84.544C403.48 83.28 403.776 82.144 404.368 81.136C404.976 80.112 405.8 79.32 406.84 78.76C407.896 78.184 409.072 77.896 410.368 77.896C411.633 77.896 412.777 78.168 413.8 78.712C414.825 79.256 415.625 80.04 416.201 81.064C416.793 82.072 417.089 83.248 417.089 84.592ZM410.393 80.728C409.545 80.728 408.832 80.968 408.256 81.448C407.68 81.928 407.328 82.584 407.2 83.416H413.561C413.433 82.6 413.081 81.952 412.505 81.472C411.928 80.976 411.224 80.728 410.393 80.728ZM430.309 90.376C429.941 90.648 429.485 90.856 428.941 91C428.413 91.128 427.853 91.192 427.261 91.192C425.725 91.192 424.533 90.8 423.685 90.016C422.853 89.232 422.437 88.08 422.437 86.56V81.256H420.445V78.376H422.437V75.232H426.181V78.376H429.397V81.256H426.181V86.512C426.181 87.056 426.317 87.48 426.589 87.784C426.877 88.072 427.277 88.216 427.789 88.216C428.381 88.216 428.885 88.056 429.301 87.736L430.309 90.376ZM440.019 77.896C442.019 77.896 443.555 78.376 444.627 79.336C445.699 80.28 446.235 81.712 446.235 83.632V91H442.731V89.392C442.027 90.592 440.715 91.192 438.795 91.192C437.803 91.192 436.939 91.024 436.203 90.688C435.483 90.352 434.931 89.888 434.547 89.296C434.163 88.704 433.971 88.032 433.971 87.28C433.971 86.08 434.419 85.136 435.315 84.448C436.227 83.76 437.627 83.416 439.515 83.416H442.491C442.491 82.6 442.243 81.976 441.747 81.544C441.251 81.096 440.507 80.872 439.515 80.872C438.827 80.872 438.147 80.984 437.475 81.208C436.819 81.416 436.259 81.704 435.795 82.072L434.451 79.456C435.155 78.96 435.995 78.576 436.971 78.304C437.963 78.032 438.979 77.896 440.019 77.896ZM439.731 88.672C440.371 88.672 440.939 88.528 441.435 88.24C441.931 87.936 442.283 87.496 442.491 86.92V85.6H439.923C438.387 85.6 437.619 86.104 437.619 87.112C437.619 87.592 437.803 87.976 438.171 88.264C438.555 88.536 439.075 88.672 439.731 88.672Z" fill="#F76F60"/>
</g>
<defs>
<clipPath id="clip0_699_108">
<rect width="448.31" height="96.7" fill="white"/>
</clipPath>
</defs>
</svg>
