<svg id="Layer_1" data-name="Layer 1" xmlns="http://www.w3.org/2000/svg" width="1964.27" height="800" viewBox="0 0 1964.27 800"><defs><style>.cls-1{fill:none;stroke:#fff;stroke-linecap:round;stroke-linejoin:round;stroke-width:2px;}.cls-2{fill:#fff;}</style></defs><title>QA_01</title><path class="cls-1" d="M469.84,317.87s-7.41-3.85-7.41-9.69V264.39c0-4.34-.28-9.18-5.7-9.18-2.52,0-16.78-.58-30.86-.58-16.15,0-32.37.58-35.49.58-5.84,0-6.55,3.55-6.55,5.55,0,.76-.15,12.37-.15,21.1,0,14.13.15,28,.15,30.45,0,4,4.84,4.13,7.69,4.13,1.18,0,14.47.88,25.81.88,15.85,0,31.25-.88,34-.88,4.67,0,18.51,1.43,18.51,1.43Z"/><path class="cls-1" d="M383.68,287.93c-4.24.14-8.72.24-13,.24-20.4,0-40.2-1.13-43.72-1.13-6,0-23.81,1.83-23.81,1.83s9.52-4.94,9.52-12.45V220.11c0-5.59.37-11.81,7.33-11.81,3.24,0,21.58-.76,39.69-.76,20.77,0,41.63.76,45.64.76,7.51,0,8.43,4.56,8.43,7.13,0,1,.18,15.91.18,27.14v12.06"/><path class="cls-2" d="M356.14,238.06c-2.28-2.05-4.51-4.06-4.5-7.5,0-5.33,5.34-8.35,10.18-7.13a15.36,15.36,0,0,1,7.57,5.16c3.17,3.68,3.08,7-.15,10.48-5.17,5.5-12.39,7.75-15.78,15-.82,1.75,1.8,3.29,2.62,1.53,3.66-7.87,12.89-9.85,17.29-16.87,3.78-6-.91-12.18-6.06-15.55s-12.73-3.67-16.32,2.14c-3,4.83-1.21,12.1,4.7,13.52.42.1.8-.44.45-.76ZM354,265.21c-1.18-.48-2.21.64-2.29,1.77-.11,1.52,1.44,2.36,2.78,2.18s3-1.65,2.13-3.17-3-1.39-4.27-.41c-.72.56-.36,1.9.67,1.59.53-.16,1.23-.54,1.77-.36s-.28.47-.55.51-.76,0-.88-.36a.73.73,0,0,1,.53-.87.45.45,0,0,0,.43-.47A.46.46,0,0,0,354,265.21ZM421.71,268c-.2,6.41-.43,13.74.77,20,.22,1.15,1.89.8,1.95-.27.38-6.36-.83-13.6-1.85-19.9-.08-.51-.86-.36-.87.12Zm1.68,27.94a2.87,2.87,0,0,0-.95,3.81,3,3,0,0,0,4,1.47l.28-.15a2.66,2.66,0,0,0,.06-4.39c-1.58-1.09-4.08.11-3.87,2.11a.79.79,0,0,0,1.55.21c.21-.55,1.06-1.14,1.47-.47s-.44,1.31-1.15,1.17c-1.43-.3-1.6-2.33-1-3.36a.3.3,0,0,0-.4-.4Z"/><path class="cls-1" d="M1284.09,108.41s6.13-3.18,6.13-8V64.11c0-3.6.24-7.61,4.72-7.61,2.09,0,13.91-.48,25.57-.48,13.39,0,26.83.48,29.41.48,4.84,0,5.43,2.94,5.43,4.6,0,.63.12,10.25.12,17.48,0,11.71-.12,23.19-.12,25.23,0,3.3-4,3.42-6.37,3.42-1,0-12,.73-21.39.73-13.14,0-25.89-.73-28.17-.73C1295.53,107.23,1284.09,108.41,1284.09,108.41Z"/><path class="cls-2" d="M1318.51,77.44c-1.35-1.3-2.77-2.62-2.76-4.72,0-4.42,5.29-5.2,8.23-3.55,2.15,1.2,2.81,2.48,3.38,4.83.73,3,0,3.47-2.19,5.21-3.22,2.54-6.69,4.49-8.54,8.32-.64,1.31,1.33,2.46,2,1.14,2.46-5.1,9-6.41,11.35-11.4,1.93-4.22-1.94-8.35-5.56-10.07s-8.13-.89-9.78,3c-1.3,3.12.2,7,3.58,7.77a.34.34,0,0,0,.33-.57Zm-1.28,17.24a1.19,1.19,0,0,0-1.54.65,1.37,1.37,0,0,0-.08.35,1.5,1.5,0,0,0,1.33,1.67,1.31,1.31,0,0,0,.44,0c1-.08,2.1-1.1,1.52-2.17s-2.11-.93-3-.2c-.52.43,0,1.24.63,1.09a3.82,3.82,0,0,1,1-.23h0a1,1,0,0,1-.33.13c-.14,0-.34,0-.4-.17s.09-.45.25-.46.51-.48.16-.63Z"/><path class="cls-1" d="M1594.8,622.71s-8.51-4.43-8.51-11.14V561.2c0-5-.33-10.57-6.55-10.57-2.9,0-19.31-.67-35.51-.67-18.58,0-37.24.67-40.83.67-6.71,0-7.53,4.09-7.53,6.39,0,.87-.16,14.22-.16,24.27,0,16.25.16,32.19.16,35,0,4.58,5.57,4.75,8.84,4.75,1.37,0,16.66,1,29.69,1,18.25,0,36-1,39.11-1,5.41,0,21.29,1.67,21.29,1.67Z"/><path class="cls-1" d="M1495.46,571.68c-2.81.09-5.78.16-8.6.16-13.51,0-26.61-.75-28.95-.75-4,0-15.76,1.21-15.76,1.21s6.3-3.27,6.3-8.24V526.78c0-3.7.25-7.82,4.85-7.82,2.15,0,14.29-.5,26.28-.5,13.76,0,27.57.5,30.22.5,5,0,5.58,3,5.58,4.72,0,.65.12,10.53.12,18v8"/><path class="cls-2" d="M1479.38,539.34c-3.18-2.43-4.16-5.94-1.74-9.28,1.94-2.68,7-1.88,9.41-.52,4.74,2.66,5.18,7.83,1.28,11.38-3.73,3.38-8.17,5.24-10.46,10-.43.88.88,1.65,1.31.77,2.8-5.82,11.18-7.54,13.13-13.62,1.32-4.14-1-7.92-4.67-9.67-4-1.94-9.59-2-11.9,2.46a6.28,6.28,0,0,0,2.55,8.52,5.85,5.85,0,0,0,.92.41c.26.09.36-.27.17-.42ZM1478,558.8a1.17,1.17,0,0,0-1.41.87,1.53,1.53,0,0,0,0,.3,1.46,1.46,0,0,0,1.52,1.4l.24,0c.87-.11,1.83-.91,1.44-1.87-.49-1.21-2-.92-2.82-.34-.38.26-.16,1,.33.79s1-.5,1.44-.23-.2.69-.52.73a.71.71,0,0,1-.8-.4.64.64,0,0,1,.48-.77h.07a.23.23,0,0,0,.2-.26.22.22,0,0,0-.14-.18Zm59.55,4.07c-.07,8.87-.19,18.61,1.25,27.37.19,1.14,1.92.8,2-.27.3-8.83-1.12-18.46-2.33-27.22-.07-.51-.87-.37-.87.12Zm2.19,38.31c-4,2.49.17,9.22,4.32,6.64a3.28,3.28,0,0,0,.07-5.41,3.13,3.13,0,0,0-4.84,2.59.79.79,0,0,0,1.55.21c.34-1.07,1.87-2,2.61-.75s-.7,2.38-2,2.09c-2.12-.49-2.42-3.45-1.34-5,.17-.24-.16-.54-.4-.4ZM1596.46,541l-.1.07c-.71.53.22,1.5.69.9,4.83-6.16,8.12-13.74,11.53-20.74h-1.76l.09.11.34-1.28-.09.07a.88.88,0,0,0-.29,1.22.85.85,0,0,0,.5.39h.1a.94.94,0,0,0,1.06-.43v-.11c.39-.73-.26-1.81-1.15-1.5-1.14.41-1.22,1-1.76,2.11-1.11,2.31-2.15,4.65-3.28,7-2.06,4.21-4.53,8.28-6.29,12.62h1.1v-.13c-.1-.25-.42-.48-.69-.28Zm1.54,4c8.47-5.89,16.84-12,25.21-18,.56-.41.25-1.52-.52-1.23-3.94,1.47-7.22,4.76-10.52,7.31-4.86,3.78-9.76,7.53-14.57,11.39-.28.23.1.73.4.51Zm.25,6.89q4.68-1.8,9.32-3.7c2.9-1.17,7.24-3.91,10.45-2.73,1.2.44,1.66-1.42.52-1.88-2.84-1.17-5.48.33-8.08,1.52q-6.32,2.91-12.54,6c-.43.21-.13,1,.33.79ZM294.63,194.2a15.62,15.62,0,0,0,1.9,2,26.4,26.4,0,0,1,2.21,1.74c.93.93,2.24-.73,1.1-1.42-.85-.51-1.59-1.2-2.44-1.73a11.1,11.1,0,0,0-2.54-1c-.24-.08-.38.23-.23.4Zm-48.76-18a17.17,17.17,0,0,1,18,7.19c2.54,3.65,4.15,8.47,2.17,12.75s-6.11,5.71-10.46,4.17c-1.91-.68-3.6-1.71-4.12-3.82a6.48,6.48,0,0,1,2.21-6.42c3.06-2.57,7.93-3.55,11.8-3.85,8.1-.62,16.31,1.94,23.47,5.54,1,.53,2-1.05.91-1.56-7.71-3.76-16.58-6.5-25.25-5.6-6.07.62-15.55,3.25-15,11.05.49,6.52,9.72,8.87,14.47,5.34,6.33-4.71,4.53-13.32.28-18.75a17.9,17.9,0,0,0-18.66-6.51c-.3.07-.17.53.13.47Z"/><path class="cls-1" d="M974.35,177c-2.13.08-4.45.13-6.64.13-8.94,0-17.61-.49-19.16-.49-2.65,0-10.43.8-10.43.8s4.17-2.16,4.17-5.45V147.3c0-2.45.16-5.18,3.21-5.18,1.42,0,9.46-.33,17.39-.33,9.1,0,18.24.33,20,.33,3.29,0,3.69,2,3.69,3.13,0,.43.08,7,.08,11.89v6.38"/><path class="cls-2" d="M961.75,148.12a63,63,0,0,0,0,7.14,27.37,27.37,0,0,0,.39,6.39c.3,1.17,1.83.78,2-.26.28-2.31-.3-4.83-.56-7.15-.24-2.09-.43-4.18-.87-6.24-.11-.52-.84-.36-.87.12ZM963,166.73a2,2,0,0,0-1,2.6,2.29,2.29,0,0,0,3,1.37,1.76,1.76,0,0,0,.37-.17,2.09,2.09,0,0,0,.62-2.89,2,2,0,0,0-.62-.62,1.92,1.92,0,0,0-2.66.59,1.89,1.89,0,0,0-.28,1.35.8.8,0,0,0,1,.54.81.81,0,0,0,.46-.35,1.34,1.34,0,0,1,.4-.42c.12-.1.16,0,.11-.06.25.28,0,.44-.35.41-.83-.07-.94-1.34-.69-1.93.09-.21-.06-.52-.33-.42Z"/><path class="cls-1" d="M970.58,199.81s4.17-2.17,4.17-5.46V169.68c0-2.45.16-5.17,3.21-5.17,1.42,0,9.46-.33,17.39-.33,9.1,0,18.24.33,20,.33,3.29,0,3.69,2,3.69,3.12,0,.43.08,7,.08,11.89,0,8-.08,15.77-.08,17.16,0,2.25-2.73,2.33-4.33,2.33-.67,0-8.16.49-14.55.49-8.93,0-17.61-.49-19.15-.49C978.36,199,970.58,199.81,970.58,199.81Z"/><path class="cls-2" d="M986.68,181.22a113,113,0,0,1,6.82,9.47,1.23,1.23,0,0,0,1.69.41,1.15,1.15,0,0,0,.41-.41l13.84-18.45c1-1.31-1.22-2.58-2.2-1.29q-6.93,9.21-13.74,18.51l1.91-.24a110.24,110.24,0,0,1-8.07-8.67C986.94,180.09,986.34,180.75,986.68,181.22Z"/><path class="cls-1" d="M160.87,666.28c-2.31.08-4.84.14-7.22.14-9.72,0-19.16-.53-20.84-.53-2.88,0-11.35.87-11.35.87s4.54-2.36,4.54-5.94V634c0-2.66.18-5.63,3.49-5.63,1.55,0,10.29-.36,18.92-.36,9.9,0,19.84.36,21.75.36,3.58,0,4,2.17,4,3.4,0,.47.09,7.58.09,12.93v6.95"/><path class="cls-2" d="M147.2,634.88c-.17,2.59,0,5.18,0,7.77a33.5,33.5,0,0,0,.42,6.93c.28,1.16,1.84.79,2-.26.27-2.53-.33-5.25-.6-7.78-.25-2.27-.46-4.54-.9-6.78-.11-.52-.85-.36-.88.12Zm1.38,20.27a2.11,2.11,0,0,0-1,2.79,2.43,2.43,0,0,0,3.11,1.44,3.49,3.49,0,0,0,.39-.19,2.2,2.2,0,0,0,.63-3.05,2.22,2.22,0,0,0-.63-.63,2,2,0,0,0-2.77.56,1.94,1.94,0,0,0-.31,1.44.79.79,0,0,0,1,.55.82.82,0,0,0,.47-.36,1.17,1.17,0,0,1,.46-.5c.15-.07.2-.05.23,0,.35.33-.15.59-.46.56-1-.09-1.08-1.51-.76-2.19C149,655.37,148.84,655,148.58,655.15Z"/><path class="cls-1" d="M156.77,691.11s4.54-2.36,4.54-5.94V658.34c0-2.66.17-5.63,3.49-5.63,1.55,0,10.29-.36,18.92-.36,9.9,0,19.84.36,21.75.36,3.58,0,4,2.17,4,3.4,0,.47.08,7.58.08,12.93,0,8.66-.08,17.15-.08,18.67,0,2.44-3,2.53-4.72,2.53-.72,0-8.87.53-15.82.53-9.72,0-19.15-.53-20.83-.53-2.86,0-11.33.87-11.33.87Z"/><path class="cls-2" d="M174.31,670.86c2.63,3.31,5.19,6.72,7.48,10.28a1.24,1.24,0,0,0,1.71.4,1.27,1.27,0,0,0,.4-.4q7.5-10,15-20.08c1-1.31-1.23-2.58-2.2-1.28q-7.55,10-15,20.13l1.92-.25a127.93,127.93,0,0,1-8.74-9.47c-.39-.46-1,.2-.66.67Zm42.57-28.12c-1.14,0-.29,1.72.4,1a33.75,33.75,0,0,0,4.39-6.92c1.11-2,2.87-4.48,3.37-6.75l-1.5.61h.06l-.34-1.28a.89.89,0,0,0,.32,1.21.94.94,0,0,0,1.13-.14h0a1,1,0,0,0,.07-1.41,1,1,0,0,0-.79-.33h-.24a1.22,1.22,0,0,0-1,.6c-2,4.58-4.94,9-6.45,13.79l.84-.35a.48.48,0,0,0-.26-.07Zm.89,2.9c5.53-3.7,11.47-7.42,16.57-11.69.53-.44,0-1.3-.65-1.12-2.6.75-4.88,3.16-6.95,4.8-3.13,2.48-6.3,4.93-9.37,7.49C217.09,645.36,217.46,645.84,217.77,645.64Zm.16,4.49c2-.72,4.06-1.49,6.08-2.27,1.84-.72,4.62-2.44,6.63-1.72,1.21.43,1.65-1.41.52-1.88-1.94-.81-3.74.22-5.5,1q-4.08,1.93-8.06,4c-.43.22-.14,1,.33.78Z"/><path class="cls-1" d="M675.8,691.11s-3.72-1.94-3.72-4.88v-22c0-2.19-.15-4.62-2.87-4.62-1.27,0-8.45-.3-15.54-.3-8.13,0-16.3.3-17.87.3-2.93,0-3.29,1.78-3.29,2.79,0,.38-.07,6.23-.07,10.62,0,7.11.07,14.09.07,15.33,0,2,2.43,2.08,3.87,2.08.6,0,7.29.44,13,.44,8,0,15.74-.44,17.12-.44,2.35,0,9.3.68,9.3.68Z"/><path class="cls-2" d="M650.5,664.92a56.77,56.77,0,0,0-.09,6.39,22.55,22.55,0,0,0,.35,5.74c.24.87,1.77,1,1.91,0a24.78,24.78,0,0,0-.42-6.2,56.16,56.16,0,0,0-.88-6.05c-.12-.52-.83-.35-.87.12Zm1.2,16.6a1.77,1.77,0,0,0-1,2.33l0,0a2.15,2.15,0,0,0,2.73,1.31,2.37,2.37,0,0,0,.36-.17,2,2,0,0,0,.54-2.78,1.85,1.85,0,0,0-.54-.54c-1.28-.8-3.19.29-2.76,1.85a.8.8,0,0,0,1,.54.81.81,0,0,0,.46-.35c.07-.13.28-.22.34-.33s0,.14,0-.09c0,.18.07.12.07.1s-.06.15,0,.08,0,0-.06,0a.49.49,0,0,1-.24,0c-.71-.08-.73-1.19-.55-1.68a.3.3,0,0,0-.2-.36h-.15Z"/><path class="cls-1" d="M169.05,340.91s2.69-1.4,2.69-3.53V321.43c0-1.59.11-3.35,2.08-3.35.92,0,6.12-.21,11.25-.21,5.88,0,11.79.21,12.93.21,2.13,0,2.39,1.29,2.39,2,0,.28.05,4.51.05,7.69,0,5.15-.05,10.2-.05,11.1,0,1.45-1.77,1.5-2.8,1.5-.44,0-5.28.32-9.41.32-5.78,0-11.39-.32-12.39-.32-1.71,0-6.74.54-6.74.54Z"/><path class="cls-2" d="M184.37,327.22c-.18-.4-.49-.7-.69-1.09a1.6,1.6,0,0,1,.57-2.2,1.63,1.63,0,0,1,1.24-.17,3.67,3.67,0,0,1,1.92,1.36c.8,1.2.4,1.56-.37,2.23-1.54,1.33-3.3,2.14-4.23,4-.64,1.32,1.33,2.47,2,1.15,1.09-2.27,4-2.87,5-5.18s-1.13-4.49-3.14-5.22a3.51,3.51,0,0,0-4.61,1.81,3.62,3.62,0,0,0-.13.35c-.41,1.5.46,3.65,2.25,3.41.24,0,.28-.32.2-.5Zm-.58,7.54a.75.75,0,0,0-1.21.44,1,1,0,0,0,.74,1.2.89.89,0,0,0,.43,0,1.07,1.07,0,0,0,1.05-1.09,1.1,1.1,0,0,0-.16-.55,1.19,1.19,0,0,0-1.66-.28,1.2,1.2,0,0,0-.34.37.66.66,0,0,0,.23.91.63.63,0,0,0,.33.09.86.86,0,0,0,.32,0c.25,0,.2-.09-.15-.25v-.38l.16-.16c.08,0,.13,0,.14.12s.07.14.12,0l-.18.23h.07a.35.35,0,0,0,.11-.48l0-.05Z"/><path class="cls-1" d="M416.88,672.21s-2.7-1.4-2.7-3.53v-16c0-1.59-.11-3.35-2.08-3.35-.92,0-6.13-.22-11.27-.22-5.9,0-11.82.22-13,.22-2.13,0-2.39,1.29-2.39,2,0,.28-.05,4.52-.05,7.7,0,5.16.05,10.22.05,11.12,0,1.46,1.77,1.51,2.81,1.51.43,0,5.28.32,9.42.32,5.79,0,11.41-.32,12.41-.32C411.84,671.69,416.88,672.21,416.88,672.21Z"/><path class="cls-2" d="M392.42,660.15a49,49,0,0,1,4.33,6.44,1.24,1.24,0,0,0,1.71.4,1.27,1.27,0,0,0,.4-.4c3.09-4.11,6.18-8.24,9.28-12.35,1-1.31-1.22-2.58-2.2-1.28q-4.63,6.16-9.19,12.4l1.91-.24a51.15,51.15,0,0,1-5.58-5.63c-.4-.46-1,.2-.66.66Z"/><path class="cls-1" d="M648.36,104.53s-2.73-1.42-2.73-3.58V84.76c0-1.61-.11-3.4-2.11-3.4-.93,0-6.21-.22-11.41-.22-6,0-12,.22-13.13.22-2.16,0-2.42,1.31-2.42,2v19.07c0,1.47,1.79,1.52,2.84,1.52.44,0,5.36.33,9.55.33,5.86,0,11.56-.33,12.57-.33,1.74,0,6.84.58,6.84.58Z"/><path class="cls-2" d="M629.67,85.18a30.35,30.35,0,0,0-.21,4.47c0,1.5-.27,3.19.25,4.62.31.85,1.69,1,1.92,0a11.94,11.94,0,0,0-.27-4.21,32.1,32.1,0,0,0-.83-4.88c-.11-.39-.79-.46-.86,0Zm1,12.22a1.39,1.39,0,0,0-1.07,1.65,1.55,1.55,0,0,0,.07.23,1.79,1.79,0,0,0,2.25,1.18,1.5,1.5,0,0,0,.41-.18,1.71,1.71,0,0,0,.41-2.38,1.61,1.61,0,0,0-2.37-.32,1.36,1.36,0,0,0-.37,1.7.8.8,0,0,0,1.1.26l.14-.11a2.39,2.39,0,0,0,.23-.22c.18-.24.09.23-.21-.11s.11,0,0-.29h0a.07.07,0,0,1-.09,0c0-.06-.22-.19-.28-.35a1.34,1.34,0,0,1,0-.63c0-.16-.07-.39-.28-.37Z"/><path class="cls-1" d="M1370.26,401.71s2.7-1.4,2.7-3.53V382.23c0-1.58.1-3.35,2.08-3.35.91,0,6.11-.21,11.24-.21,5.89,0,11.8.21,12.94.21,2.12,0,2.38,1.3,2.38,2,0,.28.05,4.51.05,7.69,0,5.15-.05,10.2-.05,11.1,0,1.45-1.76,1.5-2.8,1.5-.43,0-5.28.32-9.4.32-5.78,0-11.39-.32-12.39-.32-1.72,0-6.75.54-6.75.54Z"/><path class="cls-2" d="M1385.59,388c-.19-.4-.5-.7-.69-1.09a1.6,1.6,0,0,1,.58-2.2,1.58,1.58,0,0,1,1.22-.17,3.72,3.72,0,0,1,1.93,1.35c.79,1.21.4,1.56-.38,2.23-1.54,1.34-3.29,2.14-4.23,4.06-.64,1.31,1.34,2.46,2,1.14,1.09-2.27,4-2.86,5-5.17s-1.12-4.5-3.13-5.23a3.51,3.51,0,0,0-4.62,1.81c0,.12-.09.23-.13.35-.4,1.51.47,3.66,2.26,3.41.23,0,.28-.32.2-.49Zm-.59,7.57a.73.73,0,0,0-1,.1.68.68,0,0,0-.16.33c-.23.74.49,1.28,1.17,1.22a1.08,1.08,0,0,0,.89-1.64,1.17,1.17,0,0,0-1.64-.3,1.12,1.12,0,0,0-.36.39.72.72,0,0,0,.87.95c.25,0,.2-.09-.14-.24V396l.15-.15c.09,0,.13,0,.15.12s.07.14.12-.06l-.18.24.06,0a.33.33,0,0,0,.12-.45.18.18,0,0,0,0-.07Z"/><path class="cls-1" d="M1778.51,216s-2.7-1.4-2.7-3.53v-16c0-1.59-.11-3.35-2.08-3.35-.92,0-6.13-.22-11.27-.22-5.9,0-11.82.22-13,.22-2.13,0-2.39,1.29-2.39,2v18.82c0,1.46,1.77,1.51,2.81,1.51.43,0,5.28.32,9.42.32,5.79,0,11.41-.32,12.41-.32,1.76.05,6.8.55,6.8.55Z"/><path class="cls-2" d="M1754.05,204a49.09,49.09,0,0,1,4.33,6.45,1.24,1.24,0,0,0,1.71.4,1.27,1.27,0,0,0,.4-.4l9.28-12.36c1-1.31-1.22-2.58-2.2-1.28q-4.63,6.16-9.19,12.41l1.92-.25a50.37,50.37,0,0,1-5.59-5.63c-.4-.46-1,.2-.66.66Z"/><path class="cls-1" d="M1874.83,514.31s-3.73-1.93-3.73-4.87V487.39c0-2.18-.14-4.62-2.87-4.62-1.26,0-8.44-.29-15.53-.29-8.14,0-16.3.29-17.87.29-2.94,0-3.3,1.79-3.3,2.79,0,.39-.07,6.23-.07,10.63,0,7.11.07,14.09.07,15.33,0,2,2.44,2.07,3.87,2.07.6,0,7.29.44,13,.44,8,0,15.73-.44,17.11-.44,2.37,0,9.32.72,9.32.72Z"/><path class="cls-2" d="M1849.52,488.12a59.23,59.23,0,0,0-.08,6.39,22.54,22.54,0,0,0,.34,5.74c.25.87,1.77,1,1.92,0a24.28,24.28,0,0,0-.43-6.19,56.13,56.13,0,0,0-.87-6.05C1850.28,487.49,1849.57,487.65,1849.52,488.12Zm1.2,16.6a1.81,1.81,0,0,0-.94,2.37v0a2.16,2.16,0,0,0,2.76,1.29l.33-.16a2,2,0,0,0,0-3.32,1.8,1.8,0,0,0-2.49.53,1.76,1.76,0,0,0-.26,1.32.8.8,0,0,0,1,.53.83.83,0,0,0,.44-.34c.07-.12.29-.22.34-.33s0,.14,0-.09c0,.19.07.12.06.1s-.06.16,0,.08,0,0-.06,0h-.24c-.71-.08-.73-1.2-.54-1.69a.3.3,0,0,0-.22-.36h-.14Z"/><path class="cls-1" d="M1861.66,204.1s8.63-4.48,8.63-11.28v-51c0-5.06.33-10.7,6.63-10.7,2.93,0,19.54-.68,35.94-.68,18.81,0,37.7.68,41.33.68,6.8,0,7.63,4.13,7.63,6.46,0,.89.16,14.4.16,24.57,0,16.45-.16,32.59-.16,35.46,0,4.65-5.64,4.81-9,4.81-1.38,0-16.86,1-30,1-18.47,0-36.4-1-39.59-1C1877.75,202.44,1861.66,204.1,1861.66,204.1Z"/><path class="cls-2" d="M1910,160.67c-5.22-4.34-5.46-12.28,2.47-13.55,3-.49,6.59,1.73,8.51,3.84,3.38,3.73,3.94,7.72.51,11-4.7,4.54-10.71,6.78-13.64,13-.62,1.32,1.34,2.47,2,1.15,3.37-7.17,12.27-8.92,15.81-15.66,3-5.76-2.67-11.74-7.64-14-4.77-2.2-10.71-1.12-13,4-1.86,4.23.11,9.51,4.67,10.8.31.08.6-.35.33-.57Zm-1.9,24.22a1.52,1.52,0,0,0-1.91,1.51,1.92,1.92,0,0,0,2,1.87,2.32,2.32,0,0,0,.38-.05c1.2-.16,2.48-1.36,1.79-2.63-.76-1.42-2.53-1.12-3.62-.33-.56.4-.26,1.44.5,1.19.43-.15,1.24-.59,1.68-.32s-.23.65-.54.71-.81,0-.92-.42a.73.73,0,0,1,.55-.87h0a.33.33,0,0,0,.34-.32.34.34,0,0,0-.25-.33Z"/></svg>