<svg width="201" height="140" viewBox="0 0 201 140" fill="none" xmlns="http://www.w3.org/2000/svg">
<g clip-path="url(#clip0_116_31649)">
<mask id="mask0_116_31649" style="mask-type:luminance" maskUnits="userSpaceOnUse" x="17" y="122" width="184" height="18">
<path fill-rule="evenodd" clip-rule="evenodd" d="M17.9177 122.849H201V140H17.9177V122.849Z" fill="white"/>
</mask>
<g mask="url(#mask0_116_31649)">
<path fill-rule="evenodd" clip-rule="evenodd" d="M180.694 124.748C180.551 125.417 180.364 126.201 180.155 126.83C179.696 128.212 177.957 129.323 176.702 129.894C175.448 130.465 170.189 130.627 165.182 130.793C160.174 130.959 145.514 131.446 139.259 131.652C133.006 131.859 103.817 132.589 98.4389 132.708C93.0606 132.828 84.3067 132.654 80.9381 132.141C77.5695 131.628 76.1424 126.905 75.8809 125.624C75.7527 124.996 75.7507 123.852 75.7818 122.849C41.8897 123.62 17.9177 125.891 17.9177 131.258C17.9177 137.784 58.9021 140 109.459 140C160.016 140 201 136.086 201 131.258C201 128.129 193.392 126.074 180.694 124.748Z" fill="#CBD5FC"/>
</g>
<path fill-rule="evenodd" clip-rule="evenodd" d="M11.2816 50.542L0 53.2362L2.99951 63.6424L14.5283 60.7985C14.5283 60.7985 12.9155 57.335 12.5789 56.0358C12.2418 54.736 11.2816 50.542 11.2816 50.542Z" fill="#B9FABA"/>
<path fill-rule="evenodd" clip-rule="evenodd" d="M81.651 40.8896L54.9502 46.4361L54.6541 49.8531L82.3269 44.3796L81.651 40.8896Z" fill="#B9FABA"/>
<path fill-rule="evenodd" clip-rule="evenodd" d="M63.6476 91.9121C63.5856 91.9657 61.0707 94.2443 48.6797 94.1619C36.2897 94.0795 29.7483 92.3608 29.7483 92.3608C29.7483 92.3608 32.3599 108.328 32.7864 112.01C33.2134 115.693 35.1649 128.432 35.6881 129.869C36.2113 131.307 36.5793 132.774 37.3158 132.574C38.0532 132.373 41.8883 119.572 43.2522 112.252C44.616 104.932 47.1869 104.043 48.6598 104.394C50.1333 104.746 51.027 106.207 51.6652 116.054C52.303 125.901 55.1715 132.343 56.142 132.111C57.1126 131.879 58.9615 129.773 60.3436 121.044C61.7258 112.314 63.6476 91.9121 63.6476 91.9121Z" fill="#7699FF"/>
<path fill-rule="evenodd" clip-rule="evenodd" d="M13.1448 54.663L39.434 49.1631V51.9128L37.5068 53.4676L13.9317 58.1265L13.1448 54.663Z" fill="#B9FABA"/>
<path fill-rule="evenodd" clip-rule="evenodd" d="M89.2451 38.1318L90.0375 42.2688L94.0879 39.4906L89.2451 38.1318Z" fill="#B9FABA"/>
<path fill-rule="evenodd" clip-rule="evenodd" d="M49.0427 60.211C48.1951 60.0834 47.6229 60.7529 47.7547 61.5218C47.8866 62.2908 48.4311 63.1552 49.1806 62.9113C49.9306 62.6669 50.7161 62.0801 50.4502 61.5821C50.1844 61.084 49.5479 60.287 49.0427 60.211Z" fill="#FEF0A9"/>
<path fill-rule="evenodd" clip-rule="evenodd" d="M48.4382 64.6861C48.4382 64.6861 47.6192 66.0318 47.2867 68.1663C46.9537 70.3013 47.4693 73.9627 46.4796 76.2868C45.4899 78.6109 44.2766 82.3177 44.2766 82.3177L48.4382 87.0853C48.4382 87.0853 51.6902 83.9986 51.8684 82.5082C52.0465 81.0174 50.8658 74.6 50.8436 73.3452C50.8208 72.0903 50.5269 67.9777 50.273 67.3059C50.0187 66.634 49.2151 64.2132 48.9196 64.3366C48.6237 64.46 48.4382 64.6861 48.4382 64.6861Z" fill="#FEF0A9"/>
<path fill-rule="evenodd" clip-rule="evenodd" d="M47.4609 31.0355C45.2872 31.4856 44.1864 34.5595 41.871 36.2288C39.5557 37.898 34.7914 37.898 32.7514 35.8989C30.7114 33.9002 30.8576 29.8534 31.7752 27.9853C32.3754 26.7631 35.3631 22.6891 41.5582 22.9775C47.7532 23.2663 49.19 23.9192 52.5186 25.7185C54.1025 26.5747 56.3362 29.8351 54.8659 31.4682C52.0084 34.6421 49.6511 30.5819 47.4609 31.0355Z" fill="#FEF0A9"/>
<path fill-rule="evenodd" clip-rule="evenodd" d="M46.786 48.3316C47.7268 48.5913 48.6754 48.4847 49.5561 48.0966C50.132 47.8425 49.6315 47.0255 49.0581 47.2781C48.528 47.5117 47.9353 47.5904 47.3594 47.4904C47.1257 47.4497 46.8826 47.3805 46.6667 47.2876C46.5962 47.2572 46.2569 47.0895 46.074 46.9819C46.1075 46.7928 45.9951 46.6127 45.8393 46.5066C45.6805 46.3985 45.5129 46.3786 45.3304 46.4388C45.1253 46.5061 44.9666 46.6786 44.9685 46.8956C44.9769 47.6696 46.1361 48.1525 46.786 48.3316Z" fill="#4B4B78"/>
<path fill-rule="evenodd" clip-rule="evenodd" d="M63.3392 93.0841C62.7751 103.229 61.3302 113.304 58.9405 123.18C58.4638 125.15 58.2045 128.146 57.0584 129.866C55.9712 131.497 55.3606 130.534 54.7021 129.226C54.0221 127.874 53.5764 126.299 53.2077 124.834C52.0366 120.183 51.9177 115.362 51.4245 110.613C51.2217 108.654 51.3776 103.726 48.7316 103.191C46.1585 102.67 44.2704 107.175 43.5459 108.941C41.8981 112.957 41.1662 117.31 40.2689 121.537C39.7937 123.775 39.2926 126.012 38.6196 128.201C38.3193 129.18 38.0455 131.178 36.9988 131.106C35.9041 131.031 35.4105 128.228 35.1402 127.206C33.7227 121.845 33.3925 116.185 32.7575 110.693C32.089 104.909 31.42 99.126 30.7515 93.3421C30.6785 92.7093 29.6782 92.7018 29.7522 93.3421C30.3837 98.8043 31.0153 104.266 31.6468 109.729C32.2443 114.897 32.632 120.151 33.6678 125.255C33.9536 126.663 34.7725 133.224 37.399 132.543C38.6351 132.222 38.9773 130.332 39.3066 129.338C40.1719 126.73 40.7605 124.04 41.3276 121.354C42.3613 116.459 43.1003 110.964 45.8022 106.655C46.084 106.207 46.8305 104.981 47.1273 104.899C47.5599 105.046 47.9921 105.191 48.4243 105.338C49.3866 105.251 49.8647 105.601 49.8602 106.389C50.4713 107.36 50.3014 109.415 50.4253 110.613C50.6976 113.247 50.8575 115.892 51.1438 118.524C51.5724 122.469 52.0641 127.613 54.4863 130.925C56.5317 133.722 57.8258 131.028 58.5108 128.795C62.0297 117.323 63.6739 105.037 64.3384 93.0841C64.3744 92.4397 63.3746 92.4417 63.3392 93.0841Z" fill="#4B4B78"/>
<mask id="mask1_116_31649" style="mask-type:luminance" maskUnits="userSpaceOnUse" x="0" y="24" width="96" height="79">
<path fill-rule="evenodd" clip-rule="evenodd" d="M0 24.4473H95.3486V102.466H0V24.4473Z" fill="white"/>
</mask>
<g mask="url(#mask1_116_31649)">
<path fill-rule="evenodd" clip-rule="evenodd" d="M59.3926 56.0667C58.9198 55.2191 58.4049 54.395 57.8221 53.619C57.8036 53.5949 57.7851 53.5719 57.7666 53.5479C63.2325 52.3443 68.7453 51.2434 74.1887 49.9202C71.1616 54.7064 65.7732 58.4758 59.9894 55.9996C59.7955 55.9165 59.5496 55.941 59.3926 56.0667ZM61.5045 63.7556C63.8723 71.5107 64.0153 79.7489 62.0923 87.6102C62.0454 87.8024 62.1098 87.9546 62.2178 88.0638C57.8731 88.9985 53.4814 89.5597 49.0777 89.7424C47.8006 89.2658 46.0861 89.4636 44.8895 89.6653C44.7755 89.6849 44.7001 89.7374 44.6411 89.801C39.7145 89.7224 34.789 89.1722 29.918 88.1494C29.844 88.1338 29.7785 88.1408 29.717 88.1554C29.717 88.0607 29.72 87.9661 29.72 87.872L29.721 87.87C29.761 87.7579 29.7515 87.6627 29.7235 87.5776C29.7615 81.4952 30.3439 75.4288 31.6974 69.4911C32.3333 66.7004 33.1315 63.9464 34.0992 61.2529C35.1054 58.4557 36.445 53.3275 39.6436 52.2376C39.9215 52.143 40.0364 51.9042 39.9925 51.6218C39.2977 47.155 39.2372 42.6121 39.96 38.1428C40.1949 36.6909 40.4648 35.0167 40.9497 33.4276C41.2211 33.5798 41.496 33.7791 41.7754 34.0414C42.2443 34.4815 42.9526 33.7751 42.4822 33.3335C42.0993 32.9741 41.7029 32.6732 41.2891 32.4379C41.7659 31.1807 42.4147 30.0282 43.3305 29.1406C43.5259 29.3764 43.6844 29.6883 43.7938 30.0963C43.9598 30.7186 44.9245 30.4548 44.758 29.8305C44.6146 29.2933 44.4286 28.8267 44.1782 28.4462C44.6446 28.1338 45.1119 27.9125 45.5758 27.7688C45.9152 28.0702 46.2551 28.5268 45.9987 28.9098C45.6393 29.4465 46.505 29.9486 46.8619 29.4154C47.2573 28.8242 47.0803 28.1232 46.7115 27.567C47.4662 27.5315 48.2 27.6882 48.8938 27.9891C49.0552 28.4081 49.1782 28.8902 49.2507 29.4505C49.3317 30.0808 50.3324 30.0888 50.2504 29.4505C50.2169 29.1891 50.1659 28.9323 50.1034 28.6795C50.5293 28.9849 50.9312 29.3408 51.3031 29.7333C51.1761 30.1118 51.508 30.5814 51.8854 30.4092C52.7187 31.4671 53.349 32.6962 53.6804 33.8757C54.783 37.8038 54.2617 42.2722 54.2152 46.2999C54.1997 47.6271 53.7433 49.814 54.2482 51.014C54.2862 51.1056 54.3352 51.1918 54.3842 51.2774C54.3357 51.3109 54.2877 51.3495 54.2467 51.4035C54.1572 51.5207 54.0677 51.6378 53.9783 51.7555C53.9103 51.8446 53.8828 51.9327 53.8818 52.0158C50.9557 56.4962 44.4641 55.9089 40.9082 52.1675C40.4633 51.6999 39.7575 52.4088 40.2009 52.8755C44.3307 57.2201 51.9274 57.6241 55.014 52.0759C55.3469 52.4118 55.7178 52.7228 56.0447 53.0487C55.8632 53.3711 56.1281 53.9078 56.608 53.8007C56.63 53.7962 56.652 53.7916 56.6735 53.7866C56.7389 53.8723 56.8079 53.9554 56.8744 54.0405C56.8304 54.086 56.7869 54.1321 56.7434 54.1781C56.666 54.2603 56.6335 54.3489 56.619 54.4385C55.6808 55.7642 54.5906 56.9342 53.2475 57.873C51.605 59.021 50.4958 58.6184 49.1542 57.2401C48.9753 57.0564 48.6224 57.0364 48.4469 57.2401C48.103 57.6381 47.7591 58.0367 47.4147 58.4347C46.9754 59.2272 46.4195 59.3739 45.7467 58.8763C44.757 58.8192 43.6084 58.0046 42.7406 57.5656C40.9582 56.6644 39.2952 55.581 37.7052 54.3734C37.1928 53.9844 36.694 54.8535 37.2013 55.238C39.5096 56.9913 41.9919 58.4552 44.6856 59.5346C45.3079 59.7839 46.2571 60.3882 46.9524 60.1885C47.7596 59.9567 48.08 58.6219 48.8223 58.5343C49.5006 58.4537 49.989 59.8916 50.7317 60.0758C51.3111 60.2195 51.9024 59.8185 52.3927 59.5762C54.4846 58.5443 56.1811 56.7971 57.5077 54.9026C59.3472 57.5656 60.5718 60.7026 61.5045 63.7556ZM63.3714 88.8318C63.6094 89.6063 63.5204 89.6739 62.8971 90.8579C62.1158 92.3408 61.685 92.2863 60.3269 92.4114C60.2569 91.6599 60.1879 90.909 60.1179 90.158C60.3613 90.0298 60.5018 89.7214 60.3249 89.4611C61.3426 89.2708 62.3587 89.0621 63.3714 88.8318ZM54.996 92.8961C53.465 92.9988 51.932 93.0704 50.3984 93.1254C51.0837 92.4956 50.8413 91.4057 50.3254 90.6732C53.2521 90.5075 56.1717 90.1786 59.0748 89.685C59.1618 90.6277 59.2493 91.5704 59.3367 92.5131C57.8927 92.6728 56.4451 92.8 54.996 92.8961ZM49.2237 92.5136C48.6244 92.7219 47.6962 92.6343 47.0589 92.6723C46.6315 92.6984 46.0732 92.773 45.6658 92.6268C44.872 92.3419 44.8585 91.7291 45.0685 91.0082C45.0904 90.9321 45.0949 90.8615 45.0859 90.7964C46.3491 90.8094 47.6127 90.7964 48.8753 90.7478C48.9583 90.7819 49.0428 90.8139 49.1167 90.862C49.782 91.2966 50.1274 92.1997 49.2237 92.5136ZM37.1229 93.2196C36.68 93.1885 36.2371 93.149 35.7948 93.1019C35.8822 92.9642 35.9182 92.7915 35.8338 92.6068C35.4714 91.8112 35.4839 90.9591 35.7863 90.1516C38.549 90.5085 41.3221 90.7163 44.0958 90.7799C43.8004 91.8353 44.0073 92.761 44.7561 93.2776C42.2124 93.3387 39.6611 93.3993 37.1229 93.2196ZM31.9998 92.4295C31.5135 92.3023 30.7162 92.2002 30.3013 91.9128C29.2021 91.1518 29.1532 90.0233 29.3936 88.9544C29.4526 89.028 29.531 89.0896 29.652 89.1151C31.356 89.4731 33.067 89.767 34.782 90.0108C34.4461 91.0011 34.5151 92.0314 34.9219 92.9907C33.9377 92.857 32.96 92.6798 31.9998 92.4295ZM28.7303 87.1837C28.4964 86.5248 28.075 85.8444 27.7641 85.3193C25.9162 82.1987 23.4799 79.4231 21.9783 76.0988C21.1051 74.1642 20.5833 72.074 20.4833 69.9518C20.3348 66.7881 21.274 64.8396 23.8558 63.0242C27.1123 60.7343 30.7677 58.9484 34.4626 57.501C34.4901 57.49 34.5071 57.471 34.5311 57.457C33.272 60.4249 32.2148 63.4758 31.3845 66.5914C29.5936 73.3116 28.8018 80.2391 28.7303 87.1837ZM68.7039 39.3583C68.7713 38.0967 69.7945 36.9928 71.1536 36.5862C72.3553 36.2268 75.1964 36.3264 76.1271 37.6146C73.6684 38.2659 71.1931 38.8472 68.7039 39.3583ZM75.048 50.4303C75.097 50.3893 75.14 50.3332 75.1734 50.2596C75.1899 50.2246 75.2059 50.1895 75.2219 50.1545C75.3039 49.9752 75.2774 49.8085 75.2009 49.6748C76.0992 49.4515 76.9954 49.2212 77.8881 48.9819C84.3357 47.2562 89.7396 43.6425 95.116 39.8045C95.4349 39.5762 95.4539 38.9839 94.9965 38.8888C91.683 38.2009 88.3715 37.504 85.0565 36.8241C82.1609 36.2303 80.08 36.5437 77.2293 37.3248C77.1993 37.3328 77.1688 37.3403 77.1394 37.3483C76.0712 35.2931 72.3253 35.0368 70.4489 35.7732C68.7979 36.4211 67.6857 37.9451 67.7032 39.5607C63.9793 40.2966 60.2264 40.8839 56.4496 41.317C55.8182 41.3896 55.8107 42.3919 56.4496 42.3183C60.2779 41.8797 64.0853 41.2974 67.8626 40.556C67.9681 40.8924 68.1216 41.2263 68.341 41.5498C68.7009 42.0799 69.5671 41.5793 69.2042 41.0446C69.0488 40.8158 68.9323 40.5845 68.8503 40.3537C70.8033 39.9552 72.7492 39.5181 74.6841 39.031C75.4029 38.8492 76.0992 38.659 76.7835 38.4773C76.9159 38.4903 77.0529 38.4542 77.1618 38.3766C78.451 38.0387 79.7046 37.7443 80.9937 37.6146C80.9822 37.6742 80.9772 37.7368 80.9887 37.8059L82.3303 45.6196C82.4388 46.2534 83.4025 45.9845 83.294 45.3532C82.8476 42.7528 82.4013 40.1524 81.9549 37.5526C82.8661 37.524 83.8029 37.5871 84.7906 37.7899C87.7422 38.3952 90.6908 39.014 93.6409 39.6283C88.392 43.3311 83.1086 46.6304 76.785 48.233C70.2509 49.8886 63.6199 51.2203 57.0379 52.6817C56.1296 51.6699 55.2874 50.8348 55.1799 49.2988C54.7466 43.0863 57.0419 34.9321 52.6832 29.6378C52.6757 29.6277 52.6662 29.6202 52.6582 29.6107C53.185 28.7671 53.2035 27.6932 52.5397 26.8191C52.1553 26.3129 51.2866 26.8111 51.676 27.3242C52.0269 27.7858 52.1348 28.3616 51.9474 28.8572C51.2301 28.1749 50.4274 27.6487 49.5841 27.2862C48.8723 25.9029 47.6532 24.84 45.9972 24.5166C42.5992 23.8532 38.0626 28.2159 35.1389 26.3405C34.5956 25.992 34.0938 26.8581 34.6341 27.2051C36.2646 28.251 38.2075 27.5741 39.884 26.9267C42.5602 25.8934 46.3866 24.6778 48.24 26.8586C47.4752 26.6969 46.702 26.6709 45.9462 26.787C45.3499 26.3665 44.6276 26.1402 43.9238 25.9635C43.2995 25.8068 43.0331 26.772 43.6579 26.9287C43.9528 27.0028 44.2507 27.0809 44.5386 27.1841C44.1772 27.3358 43.8253 27.522 43.4884 27.7508C43.0961 27.5065 42.6027 27.3828 41.9709 27.4094C38.9013 27.5375 36.6765 30.1965 33.424 29.1686C32.8091 28.9744 32.5457 29.9407 33.1585 30.1344C34.6671 30.611 36.0582 30.4608 37.5472 29.9667C38.7634 29.5627 41.0022 28.2019 42.4877 28.6019C42.1663 28.9318 41.8594 29.2938 41.584 29.7159C41.1066 30.4458 40.7228 31.2383 40.3999 32.0634C39.8025 31.8957 39.1617 31.8747 38.4524 32.0719C36.2746 32.6767 34.817 34.799 32.4123 34.6773C31.7694 34.6448 31.7709 35.6461 32.4123 35.6786C35.2239 35.8208 37.5307 32.6362 40.032 33.0887C39.4217 34.9922 39.1003 37.0239 38.8418 38.9198C38.2715 43.0943 38.357 47.2742 38.9658 51.4331C36.7754 52.3819 35.7982 54.5296 34.8585 56.6704C34.8305 56.733 34.806 56.7976 34.779 56.8607C34.7196 56.6104 34.5041 56.4151 34.1972 56.5358C33.113 56.9598 32.0439 57.4164 30.9872 57.8995C31.1961 57.5881 30.9327 57.0209 30.4398 57.1175C21.445 58.8783 12.4997 60.8679 3.60488 63.0793C2.77513 59.9707 1.94588 56.8622 1.11663 53.7536C4.63507 53.0097 8.15352 52.2652 11.672 51.5212C11.8789 54.5011 12.6612 57.3378 14.0253 60.0073C14.3187 60.5815 15.1819 60.0754 14.889 59.5021C13.5694 56.9203 12.8321 54.1977 12.6567 51.313C20.8822 49.5732 29.1082 47.8334 37.3338 46.0937C37.9631 45.9605 37.6967 44.9952 37.0684 45.1279C24.8335 47.7158 12.5992 50.3032 0.364851 52.891C0.0989308 52.9471 -0.0510243 53.258 0.0154558 53.5068C0.932181 56.9428 1.84941 60.3783 2.76613 63.8142C2.83661 64.0801 3.12003 64.2288 3.38045 64.1637C12.3668 61.9208 21.406 59.9087 30.4948 58.1258C28.2785 59.1642 26.1291 60.3397 24.0728 61.6815C21.506 63.3566 19.7335 65.0719 19.4911 68.28C19.2342 71.687 20.2369 75.1335 21.8709 78.0913C22.8171 79.8055 23.9653 81.3951 25.0665 83.0107C25.4253 83.5364 28.6759 88.0318 27.5132 88.3622C26.8949 88.5374 27.1578 89.5042 27.7786 89.3279C28.0121 89.2614 28.191 89.1717 28.3435 89.0706C28.1725 89.9578 28.156 90.896 28.5364 91.662C29.1772 92.9552 30.9007 93.1945 32.1648 93.4979C33.7289 93.8734 35.3174 94.0896 36.9164 94.2108C36.9764 95.5465 36.8984 96.9088 35.8342 97.8746C34.951 98.6766 33.7439 99.0105 32.5702 98.9074C31.9294 98.8513 31.9329 99.8531 32.5702 99.9087C34.0003 100.034 35.4808 99.5603 36.541 98.5825C37.7871 97.4335 37.9701 95.8639 37.9161 94.2749C40.6828 94.4181 43.4749 94.3089 46.2271 94.2448C46.8179 94.2308 47.4088 94.2163 47.9996 94.2008C47.2623 94.7195 47.5177 95.6872 47.6487 96.4918C47.9131 98.1249 48.7044 100.462 46.8969 101.528C46.3431 101.855 46.8449 102.721 47.4013 102.393C48.3255 101.848 48.8188 100.999 48.9938 99.9458C49.0943 99.339 49.0583 98.7422 48.9693 98.1364C48.8973 97.6453 48.2155 95.2436 48.5429 95.0324C48.8873 94.8106 48.8063 94.3775 48.5624 94.1843C51.1077 94.1122 53.6544 94.007 56.1931 93.8118C56.1946 93.8288 56.1891 93.8433 56.1921 93.8608C56.78 97.0119 58.212 100.572 62.0869 100.095C62.7167 100.017 62.7247 99.015 62.0869 99.0937C58.7454 99.5047 57.6982 96.4127 57.1838 93.7337C58.441 93.625 59.6951 93.4914 60.9462 93.3251C64.2267 92.8891 65.2139 91.2935 64.1912 88.1124C64.1058 87.8475 63.8488 87.6993 63.5759 87.7629C63.4025 87.8035 63.229 87.839 63.0551 87.8786L63.0561 87.876C64.7081 81.1228 64.8845 74.1011 63.445 67.2898C62.7562 64.028 61.714 60.8198 60.2899 57.8039C60.1864 57.5841 60.075 57.3683 59.966 57.1516C60.012 57.1416 60.057 57.1275 60.098 57.1065C66.1776 59.3169 71.804 55.569 75.048 50.4303Z" fill="#4B4B78"/>
</g>
<path fill-rule="evenodd" clip-rule="evenodd" d="M48.4759 86.4788C48.0084 85.8846 47.5362 85.2944 47.0427 84.7181C46.3614 83.9202 44.8298 82.8516 44.9241 81.7094C44.9634 81.2335 45.4905 80.3571 45.6417 79.9443C46.0487 78.8329 46.3681 77.6922 46.6322 76.5426C47.0422 74.7626 47.3001 72.9512 47.4947 71.1384C47.6216 69.9569 47.6656 68.7676 47.7925 67.5877C47.8075 67.4451 48.0979 65.8205 48.4842 65.0863C51.2304 67.9732 50.2932 72.6511 50.6324 76.2455C50.7768 77.7742 51.1838 79.3078 51.2832 80.8301C51.4395 83.2237 49.9536 84.7032 48.4759 86.4788ZM48.1972 61.7432C48.1579 61.2837 48.4437 60.8783 48.7626 60.5489C48.8507 60.5782 48.9288 60.611 48.9475 60.6214C49.1649 60.7407 49.3384 60.9692 49.4399 61.1848C49.6397 61.6096 49.6211 62.2351 49.0914 62.4393C48.5985 62.63 48.2335 62.1735 48.1972 61.7432ZM51.5933 75.3498C51.3385 71.9248 51.935 68.0343 49.8153 65.1136C50.0312 64.9854 50.1674 64.7266 50.0095 64.4518C49.6641 63.8497 49.6429 63.8517 49.0842 63.4483C49.4586 63.3991 49.8251 63.2232 50.1187 62.9157C50.9269 62.0676 50.6246 60.7342 49.8024 60.0009C49.5254 59.754 49.1665 59.598 48.8093 59.5523C48.6752 59.4892 48.5173 59.4882 48.3692 59.5627C47.9835 59.6253 47.6407 59.8395 47.4667 60.2647C47.4124 60.3979 47.4269 60.5107 47.474 60.604C47.1245 61.2459 47.0215 61.9777 47.4466 62.6643C47.7153 63.099 48.1321 63.3504 48.5779 63.4284C48.5276 63.4522 48.4805 63.4816 48.4396 63.5134C46.512 65.0097 46.7755 67.6612 46.5866 69.8059C46.2148 74.0158 45.4786 78.1453 43.6483 82.0144C43.5484 82.2246 43.5597 82.4422 43.7291 82.6166C45.257 84.1865 46.6823 85.815 48.0218 87.5379C48.2693 87.8559 48.6679 87.8524 48.916 87.5379C50.0162 86.1429 52.2073 84.3261 52.5439 82.5381C52.6899 81.766 52.3337 80.8534 52.2011 80.1231C51.9153 78.5433 51.7113 76.949 51.5933 75.3498Z" fill="#4B4B78"/>
<path fill-rule="evenodd" clip-rule="evenodd" d="M35.634 32.9858C36.2305 32.8651 35.9781 32.0514 35.3816 32.1721C34.6501 32.3199 33.2441 32.8381 32.7227 32.1211C32.3924 31.6661 31.5687 32.0886 31.9014 32.5469C32.7589 33.7265 34.3706 33.2416 35.634 32.9858Z" fill="#4B4B78"/>
<mask id="mask2_116_31649" style="mask-type:luminance" maskUnits="userSpaceOnUse" x="75" y="0" width="107" height="133">
<path fill-rule="evenodd" clip-rule="evenodd" d="M75.0393 0H181.587V132.929H75.0393V0Z" fill="white"/>
</mask>
<g mask="url(#mask2_116_31649)">
<path d="M76.1502 115.801L76.6479 108.752L156.78 119.325L181.168 120.332L180.67 124.863L178.679 128.388L173.204 130.402H169.223L154.291 130.905L127.912 131.912L94.0679 132.415H84.6113L80.6296 131.912L78.1411 130.402L76.1502 127.884L75.1548 123.353L76.1502 115.801Z" fill="white"/>
<path fill-rule="evenodd" clip-rule="evenodd" d="M180.871 107.505C180.847 107.344 180.766 107.243 180.662 107.19C180.791 90.6936 180.162 74.208 179.741 57.7198C179.527 49.3502 179.372 40.9782 179.409 32.6061C179.428 28.3407 179.498 24.0758 179.634 19.8123C179.765 15.7501 180.548 11.3704 180.195 7.33207C179.66 1.23693 172.309 0.67293 167.639 0.626512C159.086 0.541663 150.533 0.469292 141.98 0.390932C133.591 0.314069 125.202 0.237206 116.813 0.159843C108.622 0.0844775 100.339 -0.300337 92.1709 0.490255C86.8428 1.00634 77.0186 1.50095 75.8049 8.18206C75.0583 12.2942 75.6756 16.9654 75.7794 21.13C75.8981 25.892 76.085 30.652 76.3301 35.4096C76.3631 36.0484 77.3658 36.0524 77.3322 35.4096C76.9329 27.6674 76.6843 19.9157 76.6352 12.1635C76.6232 10.3722 76.4553 8.29785 77.3277 6.65428C78.2497 4.91737 80.0992 4.02646 81.8821 3.42303C85.4478 2.21618 89.3598 1.72206 93.0919 1.40513C100.476 0.778741 107.933 1.07671 115.333 1.14459C123.064 1.21546 130.795 1.28684 138.525 1.35771C146.092 1.42709 153.658 1.49646 161.225 1.56584C164.638 1.59728 168.12 1.42858 171.522 1.755C173.702 1.96363 175.935 2.53711 177.535 4.12229C179.392 5.96151 179.187 8.06527 179.049 10.469C178.17 25.7103 178.326 40.9871 178.701 56.242C179.13 73.648 179.832 91.0505 179.654 108.464C179.651 108.75 179.849 108.901 180.068 108.933C180.47 111.972 180.653 115.029 180.566 118.097C180.474 121.357 180.7 126.294 177.67 128.394C175.336 130.012 171.831 129.709 169.136 129.799C165.674 129.916 162.213 130.033 158.751 130.149C145.827 130.583 132.904 131.049 119.977 131.401C113.32 131.582 106.661 131.729 100.002 131.81C96.8395 131.849 93.6761 131.873 90.5133 131.88C87.4026 131.886 83.8859 132.254 80.8619 131.349C74.1268 129.334 76.2509 120.149 76.4854 114.906C76.77 108.527 76.9709 102.145 77.0882 95.7616C77.3578 81.0288 77.1699 66.2911 76.554 51.5693C76.5275 50.9289 75.5253 50.9259 75.5519 51.5693C76.1677 66.2911 76.3556 81.0288 76.086 95.7616C75.9537 102.964 75.7152 110.164 75.3695 117.359C75.157 121.773 73.9183 128.155 78.1756 131.175C80.0045 132.472 82.308 132.754 84.4948 132.848C88.3185 133.012 92.1809 132.881 96.0072 132.85C103.333 132.79 110.657 132.644 117.98 132.452C132.892 132.063 147.799 131.515 162.707 131.014C166.391 130.89 170.155 130.983 173.821 130.577C176.033 130.333 178.27 129.712 179.653 127.849C181.415 125.478 181.405 121.871 181.533 119.051C181.709 115.182 181.448 111.332 180.871 107.505Z" fill="#4B4B78"/>
</g>
<path fill-rule="evenodd" clip-rule="evenodd" d="M173.205 10.6054C171.595 9.0261 169.167 8.56434 167.031 8.23146C159.574 7.07011 151.993 6.45659 144.455 6.15356C128.873 5.52711 113.29 7.79757 97.7421 6.59591C92.1807 6.166 83.6221 5.49775 82.1026 12.535C81.4005 15.7877 81.8303 19.3584 81.8702 22.6504C81.9231 27.1022 81.9765 31.5551 82.0298 36.007C82.0378 36.6469 83.0352 36.6488 83.0272 36.007C82.9459 29.1901 82.6098 22.321 82.8023 15.5061C82.925 11.1662 84.5951 8.46732 89.1526 7.62441C92.5647 6.99348 96.0675 7.49006 99.492 7.72691C113.638 8.70466 127.834 6.65313 142.005 7.06463C149.028 7.26864 156.042 7.80802 163.013 8.68526C165.876 9.04551 170.256 9.11566 172.499 11.309C173.973 12.7505 173.756 14.9861 173.685 16.8605C173.611 18.8235 173.54 20.7864 173.485 22.7499C173.081 37.1733 173.294 51.6037 173.479 66.0281C173.58 73.9003 173.674 81.7725 173.657 89.6458C173.648 93.4861 173.605 97.326 173.551 101.166C173.502 104.728 173.264 108.312 174.231 111.781C174.336 112.159 174.736 112.205 174.993 112.042C175.2 114.213 175.291 116.398 175.14 118.575C174.981 120.853 174.796 122.409 172.181 123.278C170.657 123.784 168.894 123.878 167.298 123.97C161.824 124.283 156.273 123.863 150.794 123.798C139.582 123.666 128.367 123.775 117.159 124.125C111.587 124.298 106.019 124.553 100.45 124.823C97.9436 124.945 95.4331 125.051 92.9222 125.005C91.6715 124.982 90.4178 124.926 89.1721 124.809C86.2772 124.537 84.2924 124.469 83.4596 121.051C82.8706 118.634 83.0023 115.781 82.8771 113.301C82.739 110.551 82.6686 107.798 82.6397 105.044C82.5804 99.5317 82.6906 94.019 82.7873 88.5073C83.0078 75.9847 83.2277 63.462 83.4481 50.9389C83.4591 50.298 82.4617 50.298 82.4507 50.9389C82.2273 63.6242 82.0044 76.3096 81.7815 88.9949C81.6733 95.154 81.5526 101.315 81.6792 107.475C81.7386 110.388 81.8528 113.302 82.0513 116.21C82.1999 118.39 81.8732 121.646 83.1314 123.57C84.0386 124.957 85.7022 125.352 87.2387 125.584C90.1979 126.031 93.2294 126.054 96.2146 125.984C102.538 125.836 108.858 125.398 115.181 125.184C127.706 124.761 140.242 124.64 152.772 124.819C156.355 124.871 159.938 124.996 163.521 125.031C166.556 125.061 169.877 125.082 172.803 124.146C177.666 122.588 176.338 115.158 175.922 111.308C175.872 110.837 175.304 110.715 175.047 110.947C174.209 107.457 174.514 103.801 174.561 100.238C174.613 96.3796 174.651 92.5208 174.656 88.6621C174.664 80.7888 174.565 72.9166 174.464 65.0438C174.261 49.3113 174.042 33.5688 174.644 17.8418C174.74 15.3275 175.177 12.5415 173.205 10.6054Z" fill="#4B4B78"/>
<path fill-rule="evenodd" clip-rule="evenodd" d="M94.0162 27.0897C97.7826 26.3826 101.547 26.0958 105.375 26.087C107.058 26.0831 108.741 26.1012 110.424 26.1115C111.365 26.1174 112.306 26.1227 113.247 26.1286C113.48 26.1301 114.825 26.0444 115.742 25.8874C115.746 25.9931 115.782 26.1007 115.88 26.1971C115.907 26.224 115.935 26.2509 115.962 26.2779C116.153 26.4658 116.47 26.4633 116.662 26.2779C116.7 26.2412 116.738 26.2045 116.776 26.1682C116.965 25.9847 116.966 25.6598 116.776 25.4758C115.997 24.7227 114.215 25.1558 113.247 25.1499C111.068 25.1367 108.89 25.1181 106.711 25.1107C102.341 25.0961 98.0533 25.3383 93.7533 26.1462C93.1278 26.2637 93.3925 27.2067 94.0162 27.0897Z" fill="#4B4B78"/>
<path fill-rule="evenodd" clip-rule="evenodd" d="M93.8808 32.6153C110.161 32.4364 126.442 32.2571 142.723 32.0782C143.368 32.071 143.37 31.2292 142.723 31.2364C126.442 31.4153 110.161 31.5946 93.8808 31.7735C93.2354 31.7806 93.2334 32.6224 93.8808 32.6153Z" fill="#4B4B78"/>
<path fill-rule="evenodd" clip-rule="evenodd" d="M98.7209 39.4768C112.697 39.3221 126.673 39.3339 140.65 39.5108C141.292 39.5188 141.292 38.2818 140.65 38.2738C126.673 38.0969 112.697 38.0851 98.7209 38.2397C98.0785 38.2465 98.077 39.4836 98.7209 39.4768Z" fill="#4B4B78"/>
<path fill-rule="evenodd" clip-rule="evenodd" d="M93.1851 51.2315C100.936 51.1977 108.686 51.1632 116.437 51.1294C117.077 51.1262 117.079 49.8494 116.437 49.8525C108.686 49.8864 100.936 49.9209 93.1851 49.9547C92.5445 49.9579 92.543 51.2347 93.1851 51.2315Z" fill="#4B4B78"/>
<path fill-rule="evenodd" clip-rule="evenodd" d="M142.034 55.3725C126.042 57.0643 109.95 57.5457 93.8815 56.8128C93.2334 56.7833 93.2349 57.7658 93.8815 57.7952C109.95 58.5281 126.042 58.0468 142.034 56.355C142.672 56.2877 142.679 55.3043 142.034 55.3725Z" fill="#4B4B78"/>
<path fill-rule="evenodd" clip-rule="evenodd" d="M141.342 63.1827C125.977 63.3228 110.612 63.0169 95.2611 62.2643C94.6186 62.2325 94.6201 63.349 95.2611 63.3808C110.612 64.1333 125.977 64.4393 141.342 64.2991C141.984 64.2936 141.985 63.1771 141.342 63.1827Z" fill="#4B4B78"/>
<path fill-rule="evenodd" clip-rule="evenodd" d="M95.2676 74.6548C102.79 74.7356 110.307 74.5727 117.816 74.166C118.462 74.1308 118.466 73.2613 117.816 73.297C110.307 73.7037 102.79 73.8666 95.2676 73.7858C94.6172 73.7788 94.6172 74.6478 95.2676 74.6548Z" fill="#4B4B78"/>
<path fill-rule="evenodd" clip-rule="evenodd" d="M95.2607 82.9478C110.616 82.2376 125.977 81.6521 141.342 81.1916C141.983 81.1726 141.986 80.1712 141.342 80.1907C125.977 80.6511 110.616 81.2367 95.2607 81.9468C94.6215 81.9764 94.6175 82.9773 95.2607 82.9478Z" fill="#4B4B78"/>
<path fill-rule="evenodd" clip-rule="evenodd" d="M94.5733 89.1541C110.162 88.5974 125.75 88.0408 141.338 87.4841C141.984 87.4613 141.987 86.374 141.338 86.3968C125.75 86.9535 110.162 87.5102 94.5733 88.0668C93.9276 88.0897 93.9246 89.1775 94.5733 89.1541Z" fill="#4B4B78"/>
<path fill-rule="evenodd" clip-rule="evenodd" d="M95.951 98.5176C95.3145 98.5796 95.308 99.5558 95.951 99.4933C103.45 98.7659 110.971 98.403 118.509 98.4035C119.154 98.4035 119.155 97.4277 118.509 97.4277C110.971 97.4272 103.45 97.7902 95.951 98.5176Z" fill="#4B4B78"/>
<path fill-rule="evenodd" clip-rule="evenodd" d="M142.03 104.396C126.899 104.178 111.767 104.45 96.6475 105.21C96.0031 105.242 96.0001 106.424 96.6475 106.391C111.767 105.631 126.899 105.359 142.03 105.577C142.677 105.586 142.677 104.405 142.03 104.396Z" fill="#4B4B78"/>
<path fill-rule="evenodd" clip-rule="evenodd" d="M95.2641 113.975C110.611 113.14 125.971 112.556 141.338 112.224C141.984 112.21 141.987 111.204 141.338 111.218C125.971 111.55 110.611 112.133 95.2641 112.968C94.6206 113.004 94.6161 114.01 95.2641 113.975Z" fill="#4B4B78"/>
<path fill-rule="evenodd" clip-rule="evenodd" d="M166.178 30.9923C166.09 32.2819 166 33.5716 165.911 34.8612C165.833 36.002 166.103 38.2096 165.611 39.2134C164.325 41.8385 159.643 41.3989 157.123 41.5714C154.84 41.7276 150.805 42.6353 148.928 41.2304C147.003 39.79 147.332 35.0529 147.241 32.6737C147.133 29.8806 147.232 27.092 147.475 24.3082C147.482 24.2304 147.472 24.1629 147.451 24.1042C148.255 23.9327 150.292 23.8145 150.504 23.8051C151.968 23.743 153.433 23.6809 154.897 23.6188C157.572 23.5055 160.541 23.0029 163.195 23.267C164.31 23.3784 165.393 23.7258 166.056 24.8434C166.379 25.3899 166.305 26.5292 166.332 27.1787C166.383 28.4491 166.264 29.7259 166.178 30.9923ZM167.191 25.5279C166.784 22.9122 165.783 22.1868 163.194 22.2814C158.638 22.448 154.083 22.6678 149.528 22.8609C148.535 22.9028 144.936 22.7427 146.266 24.7572C146.312 24.8281 146.368 24.8794 146.43 24.9158C146.103 29.0488 146.129 33.1877 146.593 37.3128C146.823 39.3622 146.683 42.2741 149.199 42.7969C151.033 43.1783 153.328 42.7772 155.194 42.6752C157.444 42.552 159.692 42.3761 161.934 42.1469C162.978 42.0405 165.272 42.2164 166.119 41.3092C166.79 40.5898 166.617 39.1218 166.677 38.2466C166.96 34.1309 167.831 29.6318 167.191 25.5279Z" fill="#4B4B78"/>
<path fill-rule="evenodd" clip-rule="evenodd" d="M165.661 59.8521C165.67 60.7766 166.078 62.826 165.699 63.6499C164.752 65.7068 159.585 64.7469 157.685 64.8139C156.412 64.8589 155.14 64.9299 153.87 65.0268C152.804 65.1078 151.092 65.6268 150.066 65.3953C148.289 64.9938 148.732 62.9014 148.601 61.4685C148.48 60.1466 148.364 58.8241 148.254 57.5012C148.043 54.9603 147.858 52.4179 147.687 49.8741C147.812 49.8256 147.921 49.7281 147.97 49.5616C148.579 47.5337 154.315 48.3216 155.917 48.3016C157.154 48.2866 158.391 48.2711 159.627 48.2556C160.713 48.2421 162.295 47.9307 163.338 48.2097C166.572 49.0746 165.599 53.5404 165.624 56.0543C165.636 57.3202 165.649 58.5862 165.661 59.8521ZM164.057 47.2321C162.431 46.9132 160.363 47.2466 158.7 47.2671C156.69 47.2921 154.68 47.3171 152.67 47.3421C150.799 47.3651 147.916 46.9747 147.091 49.0846C146.859 49.1021 146.648 49.2561 146.668 49.5585C146.954 53.8633 147.292 58.1646 147.696 62.4599C147.892 64.5498 147.664 66.3257 150.066 66.3952C152.236 66.4577 154.544 65.9508 156.73 65.8523C158.639 65.7668 160.551 65.7373 162.461 65.7678C164.996 65.8078 166.656 66.1172 166.691 63.1754C166.739 59.1506 166.779 55.0338 166.564 51.015C166.466 49.1916 166.017 47.6166 164.057 47.2321Z" fill="#4B4B78"/>
<path fill-rule="evenodd" clip-rule="evenodd" d="M146.537 73.6903C146.578 73.6215 146.607 73.5431 146.609 73.445C146.642 71.5753 154.037 72.4128 155.17 72.4528C156.43 72.4978 157.69 72.5514 158.949 72.6141C160.059 72.6692 161.676 72.4745 162.725 72.829C165.889 73.8976 165.044 78.6473 165.027 81.2755C165.019 82.5575 164.983 83.84 164.92 85.121C164.882 85.8912 165.117 88.3662 164.647 88.9578C163.92 89.8742 162.093 89.5247 161.039 89.5657C159.7 89.6178 158.359 89.6699 157.02 89.7215C155.68 89.7736 154.34 89.8256 153 89.8777C151.923 89.9192 149.992 90.3703 148.981 90.0335C146.643 89.2557 146.554 84.0944 146.395 82.1241C146.178 79.4468 146.295 76.7772 146.67 74.1196C146.695 73.9431 146.634 73.799 146.537 73.6903ZM145.467 83.0268C145.685 85.0906 145.793 88.5502 147.089 90.2282C148.424 91.9577 152.168 90.9215 154.005 90.8502C157.69 90.7071 161.374 90.564 165.059 90.4209C165.353 90.4097 165.537 90.1973 165.565 89.9152C166.005 85.4441 166.154 80.9569 165.941 76.4676C165.833 74.1884 165.926 72.3258 163.367 71.8788C159.52 71.2072 155.287 71.4176 151.389 71.3341C149.489 71.2937 145.647 70.5846 145.597 73.445C145.594 73.5881 145.646 73.6938 145.721 73.7742C145.713 73.801 145.698 73.8197 145.694 73.8506C145.263 76.901 145.142 79.9581 145.467 83.0268Z" fill="#4B4B78"/>
<path fill-rule="evenodd" clip-rule="evenodd" d="M147.2 98.3908C148.288 95.8216 153.145 96.4827 155.555 96.4523C156.873 96.4359 158.192 96.4194 159.51 96.403C160.545 96.39 163.298 95.9582 164.052 96.7909C164.772 97.5851 164.655 100.142 164.729 101.126C164.821 102.334 164.836 103.549 164.85 104.759C164.865 105.963 164.868 107.166 164.876 108.369C164.88 108.969 164.885 109.57 164.889 110.17C164.898 111.56 164.988 111.871 163.961 113.054C162.919 114.254 162.956 114.146 161.602 114.253C160.972 114.304 160.342 114.351 159.711 114.397C158.449 114.488 157.188 114.569 155.925 114.641C154.663 114.713 153.4 114.775 152.136 114.829C150.987 114.876 149.244 115.273 148.284 114.612C146.785 113.581 147.178 108.4 147.112 106.582C147.015 103.85 147.059 101.121 147.2 98.3908ZM146.451 111.93C146.645 113.936 146.494 115.735 148.819 115.943C152.932 116.311 157.495 115.577 161.602 115.25C164.269 115.038 165.745 114.829 165.915 111.971C166.143 108.149 166.047 104.03 165.667 100.223C165.551 99.0604 165.601 96.9973 164.853 96.0395C164.232 95.2442 163.468 95.3669 162.477 95.3689C158.214 95.3784 153.877 95.2861 149.621 95.5294C147.061 95.676 146.162 96.8048 145.976 99.2922C145.963 99.4632 146.028 99.5849 146.129 99.6642C145.969 103.757 146.056 107.849 146.451 111.93Z" fill="#4B4B78"/>
<path d="M168.725 118.318H143.341L89.5884 117.814L89.0906 49.3413L97.0541 40.2786L92.5746 34.2369L88.0952 17.6221H170.716L168.725 118.318Z" fill="white"/>
<path d="M93.5701 24.6706C101.107 24.835 108.964 25.5541 116.479 24.5308C118.88 24.2037 121.261 23.6983 123.668 23.4119C125.855 23.1516 128.006 23.1602 130.207 23.1602C134.607 23.1602 138.932 23.6637 143.341 23.6637C146.877 23.6637 150.323 23.4119 153.876 23.4119C155.413 23.4119 156.948 23.8563 158.466 23.9154C159.094 23.9398 160.975 23.5933 161.259 24.1671" stroke="#4B4B78" stroke-linecap="round"/>
<path d="M92.8235 32.9781C100.061 32.9038 107.372 32.4668 114.598 31.9712C117.593 31.7658 120.678 31.216 123.668 31.216C127.108 31.216 130.555 30.1469 133.995 30.7684C139.224 31.7129 144.372 31.9712 149.673 31.9712C151.211 31.9712 152.551 31.4677 154.042 31.4677" stroke="#4B4B78" stroke-linecap="round"/>
<path d="M100.538 38.7676C106.935 38.7676 113.331 38.7676 119.728 38.7676C123.17 38.7676 126.71 39.0071 130.138 38.6277C133.887 38.213 137.542 37.5089 141.323 37.5089C144.189 37.5089 147.056 37.5089 149.922 37.5089C150.99 37.5089 152.686 37.8415 153.683 37.383C154.687 36.9214 156.519 37.5089 157.637 37.5089C158.844 37.5089 160.052 37.5089 161.259 37.5089" stroke="#4B4B78" stroke-linecap="round"/>
<path d="M87.0999 50.0965C96.9303 48.773 106.739 47.5791 116.659 47.5791C119.476 47.5791 122.147 48.0707 124.926 48.3903C128.319 48.7803 131.715 49.0271 135.129 49.2853C136.716 49.4054 138.322 49.3413 139.913 49.3413C141.314 49.3413 142.786 49.6927 144.171 49.5371C147.702 49.1403 151.363 49.0028 154.844 48.3903C156.853 48.0369 158.975 48.6432 161.01 48.5861C162.247 48.5513 163.477 48.3343 164.743 48.3343" stroke="#4B4B78" stroke-linecap="round"/>
<path d="M89.3396 56.6409C97.3107 56.4105 105.282 55.4815 113.257 56.0116C117.458 56.2907 121.638 56.9162 125.839 57.1304C134.285 57.5612 142.862 57.7264 151.305 57.4101C155.606 57.249 161.359 57.8493 165.241 55.8857" stroke="#4B4B78" stroke-linecap="round"/>
<path d="M89.8374 65.2007C104.454 63.8146 119.159 66.3304 133.761 64.8231C135.862 64.6062 137.873 64.9726 139.968 64.949C142 64.9262 144.014 64.6973 146.051 64.6973C148.475 64.6973 150.865 64.949 153.296 64.949" stroke="#4B4B78" stroke-linecap="round"/>
<path d="M88.593 73.2565C97.6422 72.9334 106.77 72.006 115.829 72.6411C121.074 73.0089 126.339 73.4484 131.59 73.704C135.183 73.8789 138.733 74.0767 142.318 74.3893C145.473 74.6644 148.642 74.4108 151.803 74.5292C154.722 74.6386 158.362 75.4551 161.259 74.6411C162.499 74.2928 164.188 74.2635 165.49 74.2635" stroke="#4B4B78" stroke-linecap="round"/>
<path d="M88.3442 84.3323C98.6909 84.0052 109.005 83.5404 119.341 84.2763C125.155 84.6902 131.002 84.8357 136.83 84.8357C141.409 84.8357 145.951 84.0805 150.545 84.0805C155.518 84.0805 160.505 84.3323 165.49 84.3323" stroke="#4B4B78" stroke-linecap="round"/>
<path d="M88.0952 96.9198C96.2935 96.8597 104.479 96.4639 112.677 96.4163C118.545 96.3822 124.362 95.8339 130.235 96.1086C137.016 96.4258 143.872 95.7063 150.641 96.1785C155.794 96.538 161.041 96.9198 166.236 96.9198" stroke="#4B4B78" stroke-linecap="round"/>
<path d="M109.497 103.465C122.859 102.922 136.134 102.458 149.494 102.458C154.896 102.458 160.364 102.961 165.739 102.961" stroke="#4B4B78" stroke-linecap="round"/>
<path d="M90.0862 104.472C95.0551 104.761 100.134 104.221 105.018 104.221" stroke="#4B4B78" stroke-linecap="round"/>
<path d="M87.0999 112.528C97.8309 110.899 108.651 109.507 119.52 109.507C120.526 109.507 121.454 109.759 122.438 109.759" stroke="#4B4B78" stroke-linecap="round"/>
<path d="M128.908 110.262C139.689 110.995 150.572 110.513 161.384 110.513C162.557 110.513 163.787 110.01 164.992 110.01" stroke="#4B4B78" stroke-linecap="round"/>
</g>
<defs>
<clipPath id="clip0_116_31649">
<rect width="201" height="140" fill="white"/>
</clipPath>
</defs>
</svg>
