<svg width="162" height="139" viewBox="0 0 162 139" fill="none" xmlns="http://www.w3.org/2000/svg">
<g clip-path="url(#clip0_116_31768)">
<path d="M70.1131 131.04C73.1061 120.101 130.666 126.482 159.072 131.04C164.891 133.572 161.566 136.61 153.252 136.61C124.292 139.311 67.1201 141.978 70.1131 131.04Z" fill="#F6C1C0"/>
<path fill-rule="evenodd" clip-rule="evenodd" d="M116.233 19.3787C116.233 19.3787 114.86 23.4691 110.6 26.9788C104.899 31.6772 102.607 30.2443 99.5764 31.9314C96.5937 33.5923 96.0732 35.2069 96.0732 35.2069C96.0732 35.2069 95.6548 33.7806 96.5848 32.0957C96.5848 32.0957 95.626 31.6173 94.08 32.9037C94.08 32.9037 94.1645 30.2361 96.8896 28.0002C96.8896 28.0002 95.3833 28.6043 94.203 27.7392C94.203 27.7392 95.5457 27.0609 96.2732 26.2722C97.0007 25.4836 97.1551 24.8892 97.1551 24.8892C97.1551 24.8892 96.6095 25.021 95.6143 24.9801C94.6298 24.9402 94.1387 23.9281 94.1387 23.9281C94.1387 23.9281 96.6187 24.066 98.3916 22.4909C98.912 22.0283 103.149 17.0331 107.988 15.8439C112.827 14.6546 116.233 19.3787 116.233 19.3787Z" fill="#C8D5FF"/>
<path fill-rule="evenodd" clip-rule="evenodd" d="M116.877 20.3584C116.877 20.3584 116.019 22.316 114.941 24.0541C113.891 25.747 112.08 27.4262 112.08 27.4262C112.08 27.4262 114.033 30.9502 116.36 30.8181C118.688 30.6858 119.176 27.7953 119.161 26.8885C119.115 24.0728 116.877 20.3584 116.877 20.3584Z" fill="#C8D5FF"/>
<path fill-rule="evenodd" clip-rule="evenodd" d="M127.041 89.3408C126.972 89.3997 124.201 91.9011 110.544 91.8107C96.8889 91.7202 89.6794 89.8334 89.6794 89.8334C89.6794 89.8334 92.5578 107.362 93.0278 111.405C93.4984 115.448 95.6493 129.433 96.2259 131.011C96.8026 132.589 97.2081 134.2 98.0198 133.98C98.8326 133.76 103.059 119.707 104.562 111.67C106.066 103.634 108.899 102.658 110.522 103.044C112.146 103.43 113.131 105.034 113.835 115.844C114.538 126.654 117.699 133.726 118.769 133.472C119.838 133.217 121.876 130.905 123.399 121.322C124.923 111.739 127.041 89.3408 127.041 89.3408Z" fill="#7699FF"/>
<path fill-rule="evenodd" clip-rule="evenodd" d="M126.701 90.6274C126.079 101.765 124.487 112.825 121.853 123.667C121.328 125.829 121.042 129.119 119.779 131.007C118.58 132.797 117.908 131.741 117.182 130.304C116.432 128.821 115.941 127.092 115.535 125.483C114.244 120.378 114.113 115.084 113.569 109.871C113.346 107.721 113.518 102.311 110.601 101.723C107.766 101.151 105.685 106.096 104.886 108.036C103.07 112.444 103.361 117.223 102.372 121.863C101.848 124.321 101.296 126.777 100.554 129.179C100.223 130.254 99.9211 132.448 98.7675 132.369C97.561 132.286 97.017 129.209 96.7191 128.087C95.1569 122.202 93.6958 115.988 92.9959 109.958C92.2592 103.609 91.5218 97.2603 90.7851 90.9107C90.7047 90.2159 89.6022 90.2077 89.6837 90.9107C90.3798 96.9071 91.0758 102.904 91.7718 108.9C92.4304 114.574 93.9548 120.342 95.0963 125.945C95.4113 127.491 96.3138 134.693 99.2086 133.946C100.571 133.593 100.948 131.519 101.311 130.428C102.265 127.565 102.913 124.611 103.538 121.663C104.678 116.289 104.395 110.256 107.373 105.526C107.684 105.034 108.506 103.689 108.833 103.598C109.31 103.759 109.786 103.919 110.263 104.08C111.323 103.984 111.85 104.368 111.845 105.234C112.519 106.3 112.332 108.556 112.468 109.871C112.768 112.763 112.944 115.666 113.26 118.556C113.732 122.887 114.274 128.534 116.944 132.17C119.198 135.241 120.624 132.283 121.379 129.831C125.258 117.237 127.07 103.749 127.802 90.6274C127.842 89.92 126.74 89.9222 126.701 90.6274Z" fill="#4B4B78"/>
<path fill-rule="evenodd" clip-rule="evenodd" d="M100.417 44.9039C99.746 40.3382 99.6518 35.7494 100.28 31.1666C100.791 27.4337 101.366 23.3172 103.764 20.2939C108.234 14.6591 116.079 19.6089 117.755 25.226C118.773 28.6384 118.57 32.5286 118.375 36.2702C118.261 38.4598 118.15 40.5986 118.287 42.5609C118.398 44.139 119.218 45.0432 120.143 46.0632C120.207 46.1331 120.271 46.2035 120.335 46.2747L120.346 46.2723V46.2906L121.16 47.2545L121.169 47.2646C121.179 47.2775 121.189 47.2904 121.199 47.3036C121.841 48.1555 122.409 49.0602 122.93 49.9907L122.942 49.9814L123.573 51.211L123.578 51.2143L123.645 51.3463C123.738 51.5293 123.831 51.7123 123.919 51.8979C125.488 55.2088 126.637 58.7308 127.396 62.3116C128.983 69.7893 128.788 77.4978 126.968 84.9116L126.966 84.9144C127.05 84.8954 127.134 84.8772 127.218 84.8591C127.326 84.8357 127.433 84.8124 127.541 84.7874C127.841 84.7176 128.124 84.8803 128.219 85.1711C129.346 88.6634 128.258 90.415 124.642 90.8938C123.263 91.0762 121.881 91.223 120.496 91.3422C121.062 94.2833 122.217 97.6778 125.899 97.2265C126.602 97.1402 126.594 98.2406 125.899 98.3258C121.629 98.849 120.05 94.9412 119.403 91.4818C119.401 91.4713 119.402 91.4617 119.403 91.4522C119.403 91.4483 119.404 91.4443 119.404 91.4403C119.404 91.4363 119.404 91.4322 119.404 91.428C116.606 91.6423 113.799 91.7578 110.994 91.8369C111.263 92.0491 111.352 92.5245 110.972 92.768C110.702 92.9419 111.057 94.4686 111.285 95.4485C111.36 95.775 111.422 96.0409 111.442 96.1756C111.54 96.8407 111.58 97.4958 111.469 98.162C111.276 99.3178 110.733 100.25 109.714 100.849C109.101 101.209 108.548 100.258 109.158 99.8993C110.867 98.8949 110.468 96.8637 110.136 95.1747C110.081 94.8951 110.028 94.6247 109.987 94.3701C109.973 94.2863 109.958 94.2009 109.943 94.1144C109.799 93.2898 109.638 92.3703 110.373 91.855C109.722 91.8721 109.071 91.888 108.42 91.9034C107.968 91.9139 107.515 91.9255 107.062 91.9371C104.471 92.0033 101.855 92.0702 99.2601 91.9364C99.3196 93.6809 99.1179 95.404 97.7445 96.6654C96.5761 97.7388 94.9443 98.2587 93.3682 98.1213C92.6658 98.0603 92.662 96.9605 93.3682 97.0221C94.6617 97.1353 95.9921 96.7687 96.9656 95.8882C98.1384 94.828 98.2244 93.3324 98.1583 91.866C96.3959 91.733 94.6452 91.4956 92.9214 91.0834C92.7622 91.0453 92.5964 91.0082 92.4265 90.9701C91.1096 90.6751 89.548 90.3253 88.9224 89.0679C88.6406 88.5026 88.5565 87.8519 88.5888 87.1902C88.8288 86.0957 89.2113 84.2431 89.1646 84.0078C89.1614 83.9915 89.1528 83.9465 89.1394 83.8758C89.2362 76.3443 90.1114 68.8336 92.0615 61.5449C92.7357 59.0249 93.5456 56.5434 94.4803 54.1085C95.2285 52.1594 95.6104 51.1819 96.4816 49.3482C97.3735 47.4707 98.4525 45.7515 100.417 44.9039ZM125.905 84.6198C128.025 75.9896 127.867 66.9455 125.258 58.4318C124.23 55.0802 122.88 51.6363 120.853 48.7128C119.39 50.7926 117.521 52.7108 115.215 53.8436C115.127 53.8871 115.035 53.9353 114.942 53.9847C114.462 54.2376 113.919 54.524 113.385 54.3921C112.998 54.2966 112.674 53.8941 112.361 53.5052C112.011 53.0707 111.675 52.6531 111.28 52.6998C110.865 52.7486 110.569 53.1504 110.263 53.5675C109.965 53.9718 109.657 54.3905 109.219 54.5158C108.626 54.6854 107.866 54.3269 107.235 54.0291C107.05 53.9419 106.876 53.8599 106.721 53.798C103.752 52.613 101.016 51.0059 98.4723 49.0811C97.9131 48.659 98.4629 47.7048 99.0276 48.1319C100.78 49.4576 102.613 50.647 104.577 51.6363C104.811 51.7542 105.064 51.8969 105.328 52.046C106.143 52.5062 107.067 53.0279 107.89 53.0752C108.632 53.6215 109.245 53.4605 109.729 52.5904C109.988 52.2918 110.247 51.993 110.506 51.6942L110.866 51.279C111.06 51.0553 111.449 51.0773 111.646 51.279C113.125 52.7921 114.347 53.234 116.157 51.9738C117.638 50.9432 118.839 49.6587 119.873 48.2033C119.889 48.105 119.925 48.0077 120.01 47.9175C120.058 47.867 120.106 47.8164 120.155 47.7664C120.138 47.7457 120.122 47.725 120.105 47.7044L120.06 47.6475C120.017 47.5945 119.974 47.5416 119.933 47.4877C119.917 47.4916 119.9 47.4952 119.883 47.4987C119.875 47.5002 119.868 47.5016 119.861 47.5031C119.332 47.6207 119.04 47.0315 119.24 46.6776C119.067 46.5057 118.883 46.3374 118.697 46.1683C118.497 45.9854 118.295 45.8012 118.104 45.6097C114.702 51.7006 106.33 51.257 101.778 46.4874C101.29 45.9752 102.067 45.1969 102.558 45.7102C106.477 49.8176 113.631 50.4623 116.856 45.5437C116.857 45.4525 116.888 45.3557 116.963 45.2579C117.061 45.1287 117.16 45.0001 117.259 44.8715C117.304 44.8122 117.357 44.7698 117.41 44.733C117.356 44.639 117.302 44.5445 117.26 44.4439C116.867 43.5134 117.003 42.0422 117.122 40.7451C117.172 40.2058 117.219 39.6965 117.224 39.2686C117.235 38.2857 117.272 37.2784 117.31 36.2594C117.442 32.6949 117.579 28.9827 116.634 25.6292C115.122 20.2657 108.839 16.3064 104.694 20.8929C102.608 23.2009 102.141 26.2442 101.686 29.2059C101.63 29.5701 101.575 29.933 101.516 30.2932L101.513 30.3136C100.716 35.2201 100.783 40.2074 101.549 45.1112C101.597 45.4211 101.47 45.6833 101.164 45.7872C99.4835 46.3576 98.2686 47.9354 97.3372 49.7632C96.5573 51.2936 95.976 52.9993 95.4866 54.4357C95.3344 54.8824 95.1911 55.3031 95.0534 55.6843C93.9869 58.6413 93.1071 61.6647 92.4063 64.7283C90.9145 71.2469 90.2727 77.9067 90.2308 84.5841C90.2617 84.6775 90.2721 84.7819 90.2281 84.905L90.2274 84.9062L90.227 84.9072C90.227 84.9588 90.2261 85.0106 90.2253 85.0624C90.2245 85.1143 90.2237 85.1663 90.2237 85.2183C90.2914 85.2024 90.3636 85.1947 90.4451 85.2117C95.8136 86.3346 101.242 86.9387 106.672 87.0249C106.737 86.9551 106.82 86.8974 106.946 86.876C108.265 86.6545 110.154 86.4374 111.562 86.9606C116.415 86.76 121.255 86.1439 126.044 85.1177C125.925 84.9979 125.854 84.8308 125.905 84.6198ZM126.938 87.9101C127.492 86.8697 127.558 86.7467 127.315 85.9609C126.199 86.2137 125.079 86.4429 123.957 86.6517C124.152 86.9375 123.998 87.2761 123.729 87.4168C123.769 87.8388 123.808 88.2607 123.847 88.6827L123.96 89.8907L124.057 89.8819L124.224 89.8672C125.516 89.7543 125.984 89.7134 126.792 88.1852L126.855 88.0672L126.938 87.9101ZM113.017 90.6745C114.707 90.614 116.397 90.5354 118.084 90.4227C119.681 90.3172 121.277 90.1776 122.868 90.0023L122.867 89.9834C122.771 88.9547 122.675 87.9261 122.58 86.8974C119.38 87.4394 116.162 87.8005 112.937 87.9824C113.505 88.7865 113.772 89.983 113.017 90.6745ZM110.033 90.1642C110.617 90.1637 111.259 90.1633 111.723 90.0028C112.719 89.6582 112.338 88.6667 111.605 88.1896C111.532 88.1429 111.451 88.1099 111.37 88.077L111.339 88.0643C109.947 88.1176 108.554 88.1319 107.162 88.1176C107.172 88.189 107.167 88.2665 107.143 88.3501C106.912 89.1415 106.926 89.8143 107.801 90.127C108.18 90.2625 108.678 90.2253 109.107 90.1932C109.186 90.1873 109.263 90.1815 109.337 90.177C109.546 90.1646 109.784 90.1644 110.033 90.1642ZM96.9221 90.6486C97.4096 90.7003 97.8977 90.7437 98.3858 90.7778C101.183 90.9751 103.995 90.9086 106.799 90.8415C105.973 90.2743 105.745 89.2581 106.071 88.0995C103.014 88.0297 99.9575 87.8016 96.9127 87.4097C96.5794 88.2962 96.5656 89.2317 96.965 90.105C97.0581 90.3079 97.0185 90.4975 96.9221 90.6486ZM90.8677 89.3433C91.2083 89.5782 91.7827 89.7004 92.2751 89.8052C92.4437 89.841 92.603 89.8749 92.7396 89.9105C93.7979 90.1853 94.8755 90.3799 95.9602 90.5266C95.5118 89.4735 95.4357 88.3424 95.8059 87.2552C93.9158 86.9876 92.0301 86.6649 90.1521 86.2719C90.0187 86.2439 89.9322 86.1763 89.8672 86.0955C89.6023 87.269 89.6562 88.5078 90.8677 89.3433Z" fill="#4B4B78"/>
<path d="M126.129 84.2789L127.516 83.2542C127.976 83.0556 128.45 83.0289 128.907 83.3439C129.795 83.9555 129.588 85.2759 129.131 86.0804C128.737 86.7726 128.179 87.2363 127.396 86.8474C126.952 86.6267 126.679 86.1696 126.509 85.6148C126.425 85.6764 126.343 85.7363 126.265 85.7934C126.078 85.9297 125.913 86.0504 125.807 86.1409C125.256 86.6126 124.623 85.6796 125.169 85.2128C125.335 85.0709 125.526 84.8795 125.734 84.6698C125.86 84.5439 125.992 84.4113 126.129 84.2789Z" fill="#4B4B78"/>
<path d="M86.1185 95.2989L86.184 93.5672C86.0896 93.072 85.846 92.6614 85.331 92.4564C84.3307 92.0577 83.3611 92.9702 82.9561 93.8027C82.6076 94.5192 82.539 95.2447 83.297 95.6799C83.7275 95.9275 84.2561 95.899 84.8077 95.7306C84.8036 95.8344 84.8004 95.9364 84.7972 96.0337C84.7898 96.2661 84.7832 96.4716 84.7681 96.6108C84.6888 97.3347 85.8106 97.3406 85.8886 96.6235C85.9122 96.4053 85.9628 96.1391 86.0182 95.8473C86.0515 95.6721 86.0865 95.4877 86.1185 95.2989Z" fill="#4B4B78"/>
<path fill-rule="evenodd" clip-rule="evenodd" d="M109.687 57.2643C109.709 57.2304 109.738 57.2107 109.764 57.1864C109.379 56.8122 109.188 56.2813 109.452 55.7121C109.887 54.7748 110.771 54.1938 111.662 53.7887C111.873 53.6923 112.072 53.7739 112.191 53.9155C112.361 53.9082 112.521 53.9946 112.557 54.2194C112.711 55.1903 113.346 56.1467 113.043 57.1581C112.896 57.6466 112.468 57.8263 111.983 57.8566C112.803 59.6471 112.515 61.9369 112.526 63.8426C112.543 66.6319 112.091 69.4673 112.257 72.2437C112.352 73.839 112.86 74.6543 113.406 76.0392C113.533 76.3617 113.772 76.6551 113.612 77.0162C113.43 77.4255 112.795 77.5164 112.457 77.6859C111.218 78.3082 110.633 79.4939 109.684 80.4548C109.568 80.5724 109.435 80.5923 109.313 80.562C109.161 80.6764 108.942 80.7156 108.755 80.565C107.229 79.3347 105.805 77.7213 105.131 75.8294C104.616 74.3867 105.294 72.5889 105.506 71.1156C106.176 66.4575 107.048 61.2324 109.687 57.2643Z" fill="#FEF0A9"/>
<path fill-rule="evenodd" clip-rule="evenodd" d="M112.557 54.2252C112.685 55.2062 113.27 56.1632 112.963 57.1941C112.663 58.2021 111.293 57.9506 110.593 57.737C109.82 57.5016 109.174 56.7061 109.583 55.7957C110.013 54.8381 110.862 54.2328 111.715 53.8051C112.187 53.5691 112.577 54.3097 112.101 54.5478C111.606 54.7961 111.171 55.0179 110.794 55.4651C110.634 55.6549 110.301 55.9825 110.261 56.2364C110.174 56.8026 110.929 56.9401 111.279 56.9815C111.467 57.0033 111.972 57.1203 112.142 57.0025C112.336 56.868 112.23 56.322 112.189 56.1152C112.077 55.5557 111.853 55.0425 111.779 54.4706C111.707 53.9257 112.485 53.6762 112.557 54.2252Z" fill="#4B4B78"/>
<path fill-rule="evenodd" clip-rule="evenodd" d="M111.943 57.7024C112.862 59.5257 112.542 61.9287 112.546 63.9134C112.552 66.7191 112.093 69.5729 112.246 72.365C112.335 73.9694 112.836 74.7875 113.373 76.1785C113.498 76.5024 113.734 76.7967 113.573 77.1609C113.391 77.5733 112.761 77.6669 112.425 77.839C111.193 78.4695 110.607 79.6643 109.662 80.6349C109.278 81.0286 108.69 80.4206 109.075 80.0255C109.751 79.3317 110.235 78.4183 110.947 77.7642C111.294 77.445 111.915 77.3065 112.208 77.009C112.808 76.4013 112.337 76.2429 112.039 75.5704C111.652 74.6951 111.498 73.6851 111.424 72.7271C111.247 70.4292 111.676 68.1107 111.706 65.8098C111.735 63.5803 112.241 60.1746 111.214 58.1368C110.968 57.6474 111.695 57.2109 111.943 57.7024Z" fill="#4B4B78"/>
<path fill-rule="evenodd" clip-rule="evenodd" d="M108.768 80.5698C107.239 79.3383 105.811 77.723 105.134 75.8304C104.618 74.3865 105.296 72.5887 105.508 71.1144C106.177 66.4548 107.048 61.2279 109.69 57.2594C109.993 56.8046 110.726 57.2327 110.42 57.6924C108.037 61.272 107.349 65.7115 106.557 69.8767C106.28 71.3316 105.834 73.0658 105.815 74.5392C105.786 76.7196 107.823 78.7206 109.371 79.9668C109.796 80.3086 109.19 80.9096 108.768 80.5698Z" fill="#4B4B78"/>
<path d="M105 41.0804C106.097 40.5277 108.84 38.9537 110.485 41.0804" stroke="#4B4B78" stroke-linecap="round"/>
<path d="M124.786 52.0537C127.529 53.7119 134.002 59.2392 137.951 68.0828C141.901 76.9265 133.746 82.0853 129.175 83.5592" stroke="#4B4B78" stroke-linecap="round"/>
<path d="M94.6164 52.0537C90.9594 58.1337 83.6455 71.9519 83.6455 78.5847C83.6455 85.2174 84.3769 90.5605 84.7426 92.4029" stroke="#4B4B78" stroke-linecap="round"/>
<path d="M76.8549 40.3982C77.3965 50.174 80.6916 53.0705 82.2713 53.2968L66.0222 51.2606C49.5474 51.0343 14.9728 50.7175 8.47307 51.2606C1.9734 51.8037 0.799853 49.2239 1.02553 47.8662V9.16999C1.02553 2.1097 4.1851 0.797202 5.76488 1.0235H70.7615C76.7195 1.0235 77.3062 4.19158 76.8549 5.77562C76.6292 13.2432 76.3132 30.6224 76.8549 40.3982Z" stroke="#4B4B78" stroke-linecap="round"/>
<path d="M70.0179 11.2056V16.6366C70.0179 18.809 68.2125 18.8995 67.3097 18.6732H20.5935C18.9685 18.6732 18.5623 17.3154 18.5623 16.6366V12.5633C18.5623 10.3909 19.9164 9.39524 20.5935 9.16895H67.3097C70.0179 9.16895 70.2436 10.5267 70.0179 11.2056Z" fill="#E98677"/>
<path d="M66.699 13.9209H24.0449" stroke="white" stroke-linecap="round"/>
<path d="M70.0077 26.1421V31.5731C70.0077 33.7455 67.9199 33.836 66.8759 33.6097H12.8528C10.9738 33.6097 10.504 32.252 10.504 31.5731V27.4998C10.504 25.3274 12.0699 24.3318 12.8528 24.1055H66.8759C70.0077 24.1055 70.2687 25.4632 70.0077 26.1421Z" fill="#E98677"/>
<path d="M66.1694 28.8584H16.8439" stroke="white" stroke-linecap="round"/>
</g>
<defs>
<clipPath id="clip0_116_31768">
<rect width="162" height="139" fill="white"/>
</clipPath>
</defs>
</svg>
