<svg width="132" height="143" viewBox="0 0 132 143" fill="none" xmlns="http://www.w3.org/2000/svg">
<path d="M123.442 116.279L123.442 116.28C119.654 124.732 110.56 129.966 103.521 135.355L103.509 135.364C102.706 135.966 101.864 136.516 100.989 137.01C85.0516 146.126 64.5541 136.104 51.4205 126.765C29.1677 110.988 10.163 84.4744 3.4207 59.7201C6.072e-05 47.406 -1.35437 31.9772 6.72765 21.1401L6.73056 21.1362C11.5677 14.6959 19.9106 8.81147 26.7283 4.94336L26.7426 4.93533L26.758 4.92697C31.2941 2.49261 36.4209 1.36313 41.5647 1.66481C55.9123 2.39106 69.5138 10.0848 80.5661 18.828L80.5747 18.8349C99.603 34.1254 114.041 54.3347 122.307 77.2504C122.311 77.2614 122.315 77.2724 122.319 77.2835C126.411 89.5633 128.925 104.02 123.442 116.279Z" fill="#FCEDA8"/>
<path d="M30.667 9.04294L17.4441 19.1068C15.8628 20.3189 14.4551 21.7403 13.2599 23.3316C12.8393 23.8956 12.4429 24.475 12.0708 25.0699C10.2253 28.1343 8.96422 31.5119 8.35089 35.0325C8.11122 36.3244 7.92029 37.6631 7.80203 39.0482C7.67383 40.4919 7.62048 41.9413 7.64222 43.3905C7.65411 45.3483 7.76989 47.3041 7.98907 49.2497C8.21986 51.3914 8.5464 53.5313 8.99347 55.7168C9.33477 57.3557 9.72436 59.0177 10.1858 60.6783C16.8343 85.0921 35.6309 111.336 57.632 126.934C59.136 128.004 60.6387 129.002 62.1645 129.952C64.3447 131.342 66.5467 132.614 68.77 133.742C70.583 134.686 72.3698 135.512 74.107 136.244C75.8443 136.975 77.1215 137.429 78.5911 137.926C80.0606 138.424 81.4802 138.804 82.8753 139.16C86.6812 140.122 90.6107 140.509 94.532 140.307C95.2979 140.293 96.0616 140.16 96.9219 140.073C99.9974 139.65 102.962 138.641 105.654 137.101C106.476 136.637 107.266 136.121 108.02 135.555L120.463 126.03" stroke="#354A89" stroke-width="3" stroke-linecap="round" stroke-linejoin="round"/>
<path d="M20.9026 39.3111C20.6825 37.3655 20.5667 35.4097 20.5558 33.4519C20.534 32.0027 20.5874 30.5533 20.7156 29.1096C20.8338 27.7245 21.0248 26.3858 21.2645 25.0939C21.882 21.5744 23.1428 18.1976 24.9843 15.1313C25.3562 14.5205 25.7526 13.9411 26.1735 13.393C27.955 10.9991 30.2177 9.00096 32.8175 7.52596C37.1202 5.21688 41.9833 4.14601 46.8625 4.43323C50.8421 4.63416 54.7768 5.36451 58.5619 6.60482C62.2766 7.79278 65.884 9.29048 69.346 11.082C71.7634 12.3494 74.183 13.736 76.6052 15.2656C79.4638 17.0893 82.2778 19.0966 85.0474 21.2875C103.87 36.4129 118.152 56.4039 126.329 79.0721C127.354 82.1474 128.21 85.2758 128.895 88.4435C129.407 90.7989 129.794 93.1795 130.055 95.5754C130.521 99.2759 130.59 103.015 130.26 106.73C129.895 110.288 128.965 113.766 127.504 117.033C125.616 121.246 122.459 124.769 118.471 127.116C115.78 128.686 112.805 129.713 109.716 130.136C108.977 130.341 108.211 130.355 107.446 130.368C103.524 130.581 99.5929 130.194 95.7889 129.221C94.3942 128.889 92.9738 128.462 91.5046 127.988C90.0355 127.514 88.8057 127.036 87.0445 126.305C85.2834 125.574 83.4966 124.748 81.6836 123.803C79.4603 122.675 77.2583 121.404 75.0785 120.037C73.5527 119.087 72.0496 118.065 70.5456 116.996C48.5449 101.421 29.7478 75.1535 23.0993 50.7397" stroke="#354A89" stroke-width="3" stroke-linecap="round" stroke-linejoin="round"/>
<path d="M116.256 88.6017C118.692 111.757 102.486 121.064 79.935 109.41C57.3837 97.755 37.2336 69.5095 34.7979 46.3544L34.6037 43.5921C33.7139 22.4831 49.5579 14.3506 71.1414 25.4506C85.3497 32.8906 98.6494 46.8999 107.126 62.0452" stroke="#354A89" stroke-width="3" stroke-linecap="round" stroke-linejoin="round"/>
<path fill-rule="evenodd" clip-rule="evenodd" d="M77.2449 77.3541C75.3554 75.3921 73.8263 72.8169 72.544 70.2928C72.6584 69.8816 72.3693 69.3397 71.8838 68.9554C71.3476 67.8412 70.8507 66.7577 70.3955 65.7711C68.7051 62.1113 67.5188 58.4329 66.7113 54.7689C70.4763 55.4337 74.2287 56.406 77.8816 57.9911C86.4462 61.7094 99.2041 73.5812 92.86 80.4772C88.9295 84.7529 82.2856 82.5883 77.2449 77.3541ZM54.8976 51.0593C56.9362 48.2125 59.172 45.4404 62.579 43.8605C62.6788 46.5096 62.9615 49.2212 63.4312 51.9596C60.544 51.5546 57.6755 51.2754 54.8976 51.0593ZM94.888 83.4253C100.453 79.1259 95.9037 69.644 90.7358 64.1099C94.9051 62.6267 95.5697 61.9779 100.478 62.0102C102.24 62.02 101.303 59.5947 99.5545 59.5838C94.1876 59.5498 93.1118 60.3336 88.5913 62.0324C87.8093 61.3423 87.0036 60.6883 86.173 60.0839C90.0463 58.0193 90.5257 56.8417 95.4025 56.4282C97.1144 56.2823 96.1942 53.8571 94.4792 54.0032C89.3637 54.4375 88.6157 55.6473 84.5479 57.8191C84.1854 58.0135 84.0494 58.3214 84.0513 58.6544C78.6348 55.2933 72.4554 53.4791 66.2445 52.4006C65.6617 49.0754 65.3775 45.7672 65.3492 42.5004C65.3877 42.3372 65.3694 42.1611 65.3048 41.9787C65.2079 41.2808 64.5293 40.8497 63.8523 40.7768C63.6204 40.7303 63.3805 40.7141 63.1383 40.7811C57.1726 42.3968 54.1614 46.9687 51.0972 51.286C50.6381 51.9345 51.4029 53.1887 52.4553 53.2631C56.1955 53.5258 60.0354 53.7947 63.8828 54.322C64.5083 57.2733 65.3537 60.2396 66.4645 63.1784C62.559 64.9496 59.0266 67.1252 55.9091 69.7341C54.7729 70.6843 56.9061 72.668 58.0479 71.7114C60.8672 69.355 64.0097 67.3702 67.5008 65.7298C67.9581 66.7901 68.4614 67.8435 68.9898 68.8903C65.345 69.9652 62.3972 71.8561 60.1351 74.4484C59.1763 75.5445 61.7175 77.087 62.6666 75.9992C64.6065 73.7799 67.1844 72.2217 70.261 71.2658C71.7871 73.9612 73.5456 76.5934 75.5923 79.1133C80.6761 85.3728 89.3111 87.7331 94.888 83.4253Z" fill="#354A89"/>
</svg>
