<svg xmlns="http://www.w3.org/2000/svg" width="43" height="43" viewBox="0 0 43 43">
    <g fill="none" fill-rule="nonzero" transform="translate(8 8)">
        <path fill="#BBBEC8" d="M20.343 16.515l6.264 6.263a2 2 0 1 1-2.829 2.829l-6.263-6.264A9.953 9.953 0 0 1 12 21C6.477 21 2 16.523 2 11S6.477 1 12 1s10 4.477 10 10c0 2.038-.61 3.934-1.657 5.515zM12 17a6 6 0 1 0 0-12 6 6 0 0 0 0 12z"/>
        <rect width="3" height="12" x="18.51" y="14.01" fill="#A5BCFF" stroke="#576FED" rx="1.5" transform="rotate(-45 20.01 20.01)"/>
        <path fill="#FFF" stroke="#576FED" d="M10 19.5a9.5 9.5 0 1 0 0-19 9.5 9.5 0 0 0 0 19zm0-3a6.5 6.5 0 1 1 0-13 6.5 6.5 0 0 1 0 13z"/>
    </g>
</svg>
