<svg width="24" height="25" viewBox="0 0 24 25" fill="none" xmlns="http://www.w3.org/2000/svg">
<path d="M20.317 4.95004C18.7873 4.27888 17.147 3.7844 15.4319 3.50119C15.4007 3.49572 15.3695 3.50938 15.3534 3.5367C15.1424 3.89549 14.9087 4.36357 14.7451 4.73147C12.9004 4.46739 11.0652 4.46739 9.25832 4.73147C9.09465 4.35539 8.85248 3.89549 8.64057 3.5367C8.62448 3.51029 8.59328 3.49663 8.56205 3.50119C6.84791 3.78349 5.20756 4.27797 3.67694 4.95004C3.66368 4.9555 3.65233 4.96462 3.64479 4.97645C0.533392 9.42134 -0.31895 13.757 0.0991801 18.0389C0.101072 18.0598 0.11337 18.0799 0.130398 18.0926C2.18321 19.5342 4.17171 20.4093 6.12328 20.9894C6.15451 20.9985 6.18761 20.9876 6.20748 20.963C6.66913 20.3601 7.08064 19.7245 7.43348 19.0561C7.4543 19.0169 7.43442 18.9705 7.39186 18.955C6.73913 18.7182 6.1176 18.4295 5.51973 18.1017C5.47244 18.0753 5.46865 18.0106 5.51216 17.9797C5.63797 17.8895 5.76382 17.7957 5.88395 17.701C5.90569 17.6837 5.93598 17.6801 5.96153 17.691C9.88928 19.4058 14.1415 19.4058 18.023 17.691C18.0485 17.6792 18.0788 17.6828 18.1015 17.7001C18.2216 17.7948 18.3475 17.8895 18.4742 17.9797C18.5177 18.0106 18.5149 18.0753 18.4676 18.1017C17.8697 18.4359 17.2482 18.7182 16.5945 18.9541C16.552 18.9696 16.533 19.0169 16.5538 19.0561C16.9143 19.7236 17.3258 20.3592 17.7789 20.9621C17.7978 20.9876 17.8319 20.9985 17.8631 20.9894C19.8241 20.4093 21.8126 19.5342 23.8654 18.0926C23.8834 18.0799 23.8948 18.0607 23.8967 18.0398C24.3971 13.0894 23.0585 8.78936 20.3482 4.97735C20.3416 4.96462 20.3303 4.9555 20.317 4.95004ZM8.02002 15.4317C6.8375 15.4317 5.86313 14.3935 5.86313 13.1186C5.86313 11.8437 6.8186 10.8056 8.02002 10.8056C9.23087 10.8056 10.1958 11.8528 10.1769 13.1186C10.1769 14.3935 9.22141 15.4317 8.02002 15.4317ZM15.9947 15.4317C14.8123 15.4317 13.8379 14.3935 13.8379 13.1186C13.8379 11.8437 14.7933 10.8056 15.9947 10.8056C17.2056 10.8056 18.1705 11.8528 18.1516 13.1186C18.1516 14.3935 17.2056 15.4317 15.9947 15.4317Z" fill="#576FED"/>
</svg>
