<svg width="136" height="48" viewBox="0 0 136 48" fill="none" xmlns="http://www.w3.org/2000/svg">
<path d="M129.728 37.7704L128.065 32.8131H117.013L115.349 37.7704H109.447L119.152 10.2295H125.926L135.67 37.7704H129.728ZM118.756 27.7376H126.361L122.559 16.4852L118.756 27.7376Z" fill="#64A2F8"/>
<path d="M90.0511 22.8196C90.0511 31.0766 83.3119 37.7704 74.9987 37.7704C66.6856 37.7704 59.9463 31.0766 59.9463 22.8196C59.9463 14.5625 66.6856 7.86876 74.9987 7.86876C83.3119 7.86876 90.0511 14.5625 90.0511 22.8196ZM65.6662 22.8196C65.6662 27.9391 69.8444 32.0891 74.9987 32.0891C80.153 32.0891 84.3312 27.9391 84.3312 22.8196C84.3312 17.7002 80.153 13.5501 74.9987 13.5501C69.8444 13.5501 65.6662 17.7002 65.6662 22.8196Z" fill="#64A2F8"/>
<path d="M91.6157 37.9326C89.4452 40.2471 86.8089 42.0821 83.8782 43.3188C80.9472 44.5556 77.7875 45.1662 74.6035 45.1114L74.6875 40.3045C77.1928 40.3478 79.6794 39.8673 81.9855 38.8942C84.2917 37.9211 86.3661 36.4769 88.0741 34.6558L91.6157 37.9326Z" fill="#64A2F8"/>
<path d="M11.7641 37.7497C8.79835 37.7497 6.30316 37.0981 4.27848 35.795C2.25379 34.4639 0.827959 32.6653 0.000976562 30.3994L5.04843 27.4679C6.2176 30.4985 8.5132 32.0138 11.9352 32.0138C13.5891 32.0138 14.8011 31.7166 15.5711 31.1217C16.341 30.5268 16.726 29.7764 16.726 28.8699C16.726 27.8218 16.2555 27.0147 15.3144 26.4481C14.3734 25.8534 12.6909 25.2161 10.267 24.5363C8.9267 24.1398 7.78601 23.7432 6.84497 23.3467C5.93245 22.9502 5.00564 22.4262 4.0646 21.7747C3.15206 21.0949 2.45341 20.2452 1.96862 19.2255C1.48384 18.2059 1.24145 17.0163 1.24145 15.6567C1.24145 12.9659 2.19676 10.8274 4.10738 9.24128C6.04651 7.6268 8.3706 6.81956 11.0797 6.81956C13.5036 6.81956 15.6281 7.41436 17.4532 8.60398C19.3067 9.76526 20.7468 11.3939 21.7734 13.4899L16.8115 16.3365C15.6138 13.7873 13.7032 12.5127 11.0797 12.5127C9.85348 12.5127 8.88392 12.7959 8.17099 13.3624C7.4866 13.9006 7.14438 14.6087 7.14438 15.4868C7.14438 16.4214 7.52938 17.1862 8.29933 17.781C9.09779 18.3475 10.6092 18.9706 12.8335 19.6504C13.746 19.9336 14.4304 20.1602 14.8867 20.3302C15.3715 20.4718 16.0131 20.7125 16.8115 21.0524C17.6385 21.364 18.2659 21.6614 18.6936 21.9446C19.1499 22.2279 19.6632 22.6103 20.2335 23.0918C20.8039 23.5733 21.2316 24.069 21.5168 24.5788C21.8305 25.0886 22.0871 25.7118 22.2867 26.4481C22.5149 27.1563 22.6289 27.9351 22.6289 28.7849C22.6289 31.5325 21.6166 33.7135 19.5919 35.3279C17.5958 36.9423 14.9865 37.7497 11.7641 37.7497Z" fill="#64A2F8"/>
<path d="M40.0742 15.9998H45.5921V37.2428H40.0742V34.8638C38.7337 36.8465 36.6095 37.8377 33.7007 37.8377C31.3623 37.8377 29.4232 37.0587 27.8833 35.5009C26.3719 33.9431 25.6162 31.7905 25.6162 29.0429V15.9998H31.1341V28.3633C31.1341 29.7795 31.5191 30.8701 32.2892 31.6347C33.059 32.3712 34.0857 32.7395 35.3689 32.7395C36.7946 32.7395 37.9354 32.3004 38.7908 31.4222C39.6464 30.5443 40.0742 29.2271 40.0742 27.471V15.9998Z" fill="#64A2F8"/>
<path d="M52.2336 13.5749C51.3212 13.5749 50.5227 13.2491 49.8384 12.5977C49.1825 11.9179 48.8545 11.1248 48.8545 10.2185C48.8545 9.3121 49.1825 8.51902 49.8384 7.83923C50.5227 7.15944 51.3212 6.81956 52.2336 6.81956C53.1748 6.81956 53.9731 7.15944 54.6291 7.83923C55.3136 8.51902 55.6558 9.3121 55.6558 10.2185C55.6558 11.1248 55.3136 11.9179 54.6291 12.5977C53.9731 13.2491 53.1748 13.5749 52.2336 13.5749ZM49.4962 37.3672V16.124H55.0141V37.3672H49.4962Z" fill="#64A2F8"/>
<path d="M105.062 21.4804C105.062 20.6222 104.849 19.7773 104.442 19.0205C104.035 18.2637 103.446 17.6183 102.727 17.1416C102.009 16.6648 101.183 16.3713 100.323 16.2872C99.4634 16.2031 98.5962 16.3309 97.7978 16.6593C96.9995 16.9877 96.2952 17.5066 95.7473 18.1699C95.1991 18.8333 94.8241 19.6207 94.6556 20.4624C94.4871 21.304 94.5301 22.174 94.7808 22.9952C95.0316 23.8164 95.4824 24.5635 96.0935 25.1703L98.3735 22.9056C98.1374 22.6712 97.9634 22.3827 97.8665 22.0655C97.7696 21.7483 97.7529 21.4123 97.8182 21.0872C97.8831 20.7621 98.0281 20.458 98.2396 20.2017C98.4514 19.9455 98.7234 19.7451 99.0319 19.6183C99.3401 19.4914 99.6752 19.4421 100.007 19.4746C100.339 19.5071 100.658 19.6204 100.936 19.8045C101.213 19.9887 101.441 20.2379 101.598 20.5303C101.755 20.8226 101.838 21.1489 101.838 21.4804H105.062Z" fill="#64A2F8"/>
<path d="M106.812 30.3355C106.812 31.6165 106.456 32.8727 105.783 33.9657C105.11 35.0584 104.146 35.9455 102.998 36.5293C101.85 37.1129 100.562 37.3702 99.2761 37.2735C97.9901 37.1764 96.7561 36.7287 95.71 35.9793C94.6638 35.2302 93.8462 34.2088 93.3473 33.0274C92.8482 31.8463 92.6874 30.5511 92.882 29.2847C93.0769 28.0184 93.6199 26.8302 94.4512 25.8508C95.2825 24.8714 96.37 24.139 97.5934 23.7343L98.6991 27.0316C98.0865 27.2341 97.5422 27.6008 97.1263 28.091C96.7101 28.581 96.4384 29.1759 96.3409 29.8096C96.2435 30.4436 96.324 31.0917 96.5738 31.6829C96.8234 32.2741 97.2327 32.7853 97.7564 33.1604C98.2798 33.5352 98.8975 33.7595 99.5413 33.808C100.185 33.8565 100.829 33.7278 101.404 33.4356C101.979 33.1434 102.461 32.6993 102.798 32.1524C103.135 31.6055 103.313 30.9768 103.313 30.3355H106.812Z" fill="#64A2F8"/>
<path d="M110.315 23.3779C109.396 23.3779 108.485 23.5578 107.635 23.9075C106.785 24.2571 106.013 24.7697 105.362 25.4157C104.712 26.0618 104.196 26.8288 103.844 27.6729C103.492 28.5172 103.311 29.4219 103.311 30.3354H106.828C106.828 29.8806 106.919 29.4303 107.094 29.0101C107.269 28.5899 107.526 28.208 107.85 27.8864C108.174 27.5648 108.558 27.3096 108.981 27.1357C109.404 26.9615 109.858 26.8718 110.315 26.8718V23.3779Z" fill="#64A2F8"/>
<path d="M103.787 35.5543L95.668 24.6433L98.3745 22.9038L106.175 32.7079L103.787 35.5543Z" fill="#64A2F8"/>
</svg>
