<svg xmlns="http://www.w3.org/2000/svg" width="43" height="43" viewBox="0 0 43 43">
    <g fill="none" fill-rule="evenodd">
        <path class="fill" fill="#BBBEC8" d="M26.718 10.446a4.597 4.597 0 0 0-3.276-1.347l-10.431.054c-.173 0-.345.022-.514.064-1.183.287-2.24 1.494-2.245 2.693-.02 3.478-.036 6.956-.054 10.434a4.597 4.597 0 0 0 .77 2.57c.166.25.36.487.577.705l10.41 10.41a4.6 4.6 0 0 0 2.374 1.263 4.59 4.59 0 0 0 4.13-1.264l8.669-8.668a4.56 4.56 0 0 0 .865-1.246c.31-.634.482-1.315.482-2.006 0-1.176-.45-2.353-1.347-3.25l-10.41-10.412z"/>
        <path class="fill" fill="#576FED" d="M24.52 9.347A4.597 4.597 0 0 0 21.244 8l-10.431.054c-.173 0-.345.022-.514.064-1.183.287-2.24 1.494-2.245 2.693-.02 3.478-.036 6.956-.054 10.434a4.597 4.597 0 0 0 .77 2.57c.166.25.36.487.577.705l10.41 10.41a4.6 4.6 0 0 0 2.374 1.263 4.59 4.59 0 0 0 4.13-1.264l8.669-8.668a4.56 4.56 0 0 0 .865-1.246c.31-.634.482-1.315.482-2.006 0-1.176-.45-2.353-1.347-3.25L24.52 9.347z"/>
        <path fill="#FFF" d="M33.884 25.839l-8.072 8.085c-1.67 1.674-3.804 1.674-5.477 0l-9.693-9.709c-.808-.81-1.55-1.91-1.543-3.054.017-3.243.034-6.197.05-9.44.006-1.28 1.29-2.566 2.568-2.572 3.238-.017 6.188-.034 9.426-.05 1.142-.006 2.239.735 3.048 1.544l9.693 9.71c1.672 1.675 1.672 3.81 0 5.486z"/>
        <path class="fill" fill="#7699FF" d="M15.693 19.378l8.909 8.923 1.483-1.486-8.908-8.924zM17.891 17.18l8.909 8.925 1.485-1.488-8.909-8.924zM16.183 13.053a2.2 2.2 0 0 0-3.137 0 2.257 2.257 0 0 0 0 3.169 2.203 2.203 0 0 0 3.137 0 2.257 2.257 0 0 0 0-3.169z"/>
    </g>
</svg>
