<svg xmlns="http://www.w3.org/2000/svg" width="24" height="24" viewBox="0 0 24 24">
    <g class="stroke" fill="none" fill-rule="evenodd" transform="rotate(45 6.718 9.39)">
        <path fill-rule="nonzero" d="M8.184.705a2.5 2.5 0 0 0-1.777.741l-2.394 2.42L1.62 6.283c-.437.442-.437 1.4 0 1.842l4.788 4.838a2.5 2.5 0 0 0 1.777.741h9.607a2.5 2.5 0 0 0 2.5-2.5v-8a2.5 2.5 0 0 0-2.5-2.5H8.184z"/>
        <path d="M9 5h8v0.2H9zM9 8.5h8v0.2H9z"/>
        <circle cx="6" cy="7" r="0.5" class="fill" fill-rule="nonzero"/>
    </g>
</svg>
