<svg width="301" height="77" viewBox="0 0 301 77" fill="none" xmlns="http://www.w3.org/2000/svg">
<rect width="301" height="77" fill="white"/>
<path d="M12.0408 16.2564H21.8345V24.9938H28.8916V31.955H21.8345V46.3094C21.8345 49.3339 22.7946 49.91 26.0592 49.91H28.8916V57.0152H22.6506C14.7293 57.0152 12.0408 55.4789 12.0408 48.0377V31.955H7V24.9938H12.0408V16.2564V16.2564ZM62.1132 47.0295C59.2327 54.6147 52.5116 57.8793 46.1265 57.8793C35.7088 57.8793 28.5556 51.5902 28.5556 40.8845C28.5556 30.6108 36.3329 24.1297 45.7424 24.1297C56.4002 24.1297 62.9293 32.195 62.2572 43.5729H38.4932C38.7813 48.1337 42.3339 50.198 45.8865 50.198C49.6311 50.198 51.9835 48.8538 53.0877 46.9815L62.1132 47.0295ZM38.6373 37.6199H52.5116C52.3195 33.5872 49.5351 31.5709 45.7905 31.5709C42.2379 31.5709 39.1653 33.3952 38.6373 37.6199ZM95.9588 36.7558H86.8373C85.9731 33.0112 83.6207 31.7149 80.7403 31.7149C77.2357 31.7149 73.7791 34.1153 73.7791 40.9805C73.7791 47.9416 77.2357 50.246 80.7403 50.246C84.3409 50.246 86.5972 48.3737 87.3174 45.3012H96.4389C94.2305 54.8068 86.5492 57.8313 80.1162 57.8313C69.5544 57.8313 63.7454 51.0622 63.7454 40.8365C63.7454 30.6108 70.4185 24.0817 80.1162 24.0817C86.7413 24.0817 94.0385 27.1062 95.9588 36.7558ZM107.337 29.2665C108.729 26.8661 112.234 24.3217 117.274 24.3217C125.484 24.3217 128.076 29.1705 128.076 37.86V57.1112H118.283V40.3564C118.283 35.7956 118.138 32.051 113.386 32.051C109.161 32.051 107.385 34.7874 107.385 40.7884V57.2072H97.5911V14H107.385L107.337 29.2665ZM150.64 34.4514C149.968 32.051 147.471 31.3789 144.399 31.3789C140.99 31.3789 139.31 32.195 139.31 33.7793C139.31 35.2675 140.462 36.1317 143.247 36.6598L149.248 37.7159C156.929 39.1082 160.626 41.4126 160.626 47.0295C160.626 54.2307 154 57.8793 145.119 57.8793C136.574 57.8793 130.525 54.2787 129.42 46.6934H138.542C139.406 49.7659 141.902 50.7261 145.263 50.7261C148.768 50.7261 151.216 49.7659 151.216 47.8456C151.216 46.4534 149.968 45.4932 146.175 44.8691L140.462 43.909C134.269 42.9008 130.044 39.7803 130.044 34.1153C130.044 27.7303 136.766 24.2257 144.687 24.2257C151.984 24.2257 158.657 27.1542 159.857 34.4994L150.64 34.4514ZM165.666 16.2564H175.46V24.9938H182.517V31.955H175.46V46.3094C175.46 49.3339 176.42 49.91 179.685 49.91H182.469V57.0152H176.276C168.355 57.0152 165.666 55.4789 165.666 48.0377V31.955H160.626V24.9938H165.666V16.2564V16.2564ZM204.889 35.7956C204.889 31.955 203.065 30.7068 199.464 30.7068C196.295 30.7068 194.183 32.3391 193.751 35.4116H184.582C185.062 29.3626 190.775 24.0337 200.28 24.0337C209.546 24.0337 214.779 27.7783 214.587 37.5239L214.442 44.4851V47.8456C214.442 51.3502 214.683 55.1428 215.163 57.1112H205.513L205.369 53.2225C202.969 56.6311 199.176 57.8793 194.567 57.8793C188.47 57.8793 183.477 54.3267 183.477 48.4697C183.477 40.5964 192.359 38.052 204.793 37.0918L204.889 35.7956ZM205.177 42.8528C198.312 43.5249 193.751 44.197 193.751 47.7496C193.751 49.8139 195.719 51.2062 198.264 51.2062C202.2 51.2062 205.177 49.5259 205.177 43.6209V42.8528V42.8528ZM237.054 34.4514C236.19 34.3074 235.23 34.2114 234.366 34.2594C229.613 34.2594 227.165 35.9876 227.165 40.9805V57.0631H217.323V24.9938H226.781V31.0908C228.269 27.2502 230.957 24.9938 235.518 24.8018H236.238C236.526 24.8018 236.766 24.8018 237.054 24.8498V34.4514V34.4514ZM258.754 34.4514C258.082 32.051 255.585 31.3789 252.513 31.3789C249.104 31.3789 247.424 32.195 247.424 33.7793C247.424 35.2675 248.576 36.1317 251.361 36.6598L257.314 37.7159C264.995 39.1082 268.692 41.4126 268.692 47.0295C268.692 54.2307 262.066 57.8793 253.185 57.8793C244.688 57.8793 238.59 54.2787 237.486 46.6934H246.608C247.472 49.7659 249.968 50.7261 253.329 50.7261C256.834 50.7261 259.282 49.7659 259.282 47.8456C259.282 46.4534 258.034 45.4932 254.241 44.8691L248.528 43.909C242.335 42.9008 238.158 39.7803 238.158 34.1153C238.158 27.7303 244.88 24.2257 252.801 24.2257C260.098 24.2257 266.771 27.1542 267.971 34.4994L258.754 34.4514Z" fill="black"/>
<path d="M268.5 65.3683V57.111H295V65.3683H268.5Z" fill="#39C463"/>
</svg>
