<svg width="107" height="72" viewBox="0 0 107 72" fill="none" xmlns="http://www.w3.org/2000/svg">
<path d="M101.003 30.7391L101.003 30.7398C103.108 36.4161 101.255 43.0013 100.434 48.7244L100.432 48.7335C100.333 49.3807 100.192 50.0208 100.009 50.6498C96.7347 62.1639 82.5501 66.8004 72.1235 68.4067C54.4779 71.1495 33.4273 67.3926 18.9195 58.8805C11.6714 54.6764 3.96114 48.0755 2.77101 39.3299L2.77059 39.3267C2.07928 34.1137 3.28278 27.5661 4.69767 22.6553L4.70069 22.6451L4.70404 22.6342C5.70932 19.432 7.58936 16.5715 10.1338 14.3727C17.1782 8.18569 27.0694 5.59723 36.2494 4.6593L36.2566 4.65859C52.1706 3.15498 68.1932 6.04047 82.5706 12.9992C82.5775 13.0025 82.5844 13.0059 82.5912 13.0094C90.1379 16.8918 97.9449 22.5106 101.003 30.7391Z" fill="#FCEDA8"/>
<path d="M8.42091 22.7805L6.85169 33.5031C6.66799 34.7894 6.66145 36.0946 6.83226 37.3827C6.8942 37.8378 6.97456 38.2892 7.07334 38.7368C7.61565 41.0096 8.57491 43.1632 9.90283 45.089C10.3833 45.8024 10.908 46.5154 11.4879 47.2171C12.0902 47.9507 12.73 48.653 13.4049 49.321C14.3084 50.2313 15.2596 51.0935 16.2545 51.9039C17.3448 52.8007 18.4791 53.6532 19.6906 54.472C20.602 55.0834 21.5465 55.6836 22.524 56.2505C36.8317 64.646 57.661 68.3711 75.107 65.6593C76.301 65.4754 77.4616 65.2586 78.611 65.0089C80.2688 64.6677 81.8819 64.2607 83.4392 63.7769C84.7205 63.394 85.9351 62.9675 87.0832 62.5194C88.2313 62.0712 89.0368 61.7024 89.9526 61.2668C90.8683 60.8311 91.7064 60.3629 92.5223 59.8949C94.7439 58.6136 96.7593 57.007 98.501 55.1288C98.8529 54.7739 99.1491 54.3642 99.5115 53.9321C100.756 52.3354 101.68 50.5146 102.233 48.5695C102.405 47.9791 102.537 47.3782 102.631 46.7705L104.082 36.6549" stroke="#354A89" stroke-width="3" stroke-linecap="round" stroke-linejoin="round"/>
<path d="M17.7365 41.3804C16.7412 40.5705 15.79 39.7083 14.8869 38.7975C14.212 38.1295 13.5721 37.4272 12.9699 36.6936C12.3899 35.9919 11.8652 35.2789 11.3848 34.5655C10.0594 32.6383 9.10034 30.4852 8.55531 28.2133C8.44911 27.7584 8.36875 27.307 8.31424 26.8592C8.04957 24.929 8.19152 22.965 8.73105 21.0924C9.6846 18.055 11.4682 15.3419 13.8822 13.2567C15.8359 11.5404 18.0114 10.0921 20.3509 8.95044C22.6333 7.81634 25.0077 6.87588 27.4488 6.13904C29.1609 5.63222 30.9286 5.18014 32.7633 4.79377C34.9369 4.34647 37.1738 4.0053 39.4742 3.77027C55.2163 2.2829 71.0659 5.13721 85.288 12.0208C87.178 12.993 89.0136 14.0667 90.7867 15.2371C92.1064 16.1061 93.3795 17.0434 94.6005 18.0453C96.5159 19.5642 98.2631 21.2822 99.8126 23.1702C101.274 25.0002 102.434 27.0501 103.249 29.2431C104.298 32.0724 104.438 35.1566 103.649 38.0685C103.11 40.0269 102.189 41.8604 100.939 43.4641C100.687 43.8955 100.335 44.2504 99.983 44.6053C98.2461 46.4886 96.2298 48.0959 94.0043 49.3714C93.1995 49.8504 92.3392 50.2967 91.4345 50.7433C90.5299 51.1899 89.7353 51.5256 88.5762 51.9848C87.4171 52.444 86.2025 52.8705 84.9212 53.2534C83.3639 53.7372 81.7508 54.1442 80.1041 54.4963C78.9547 54.7461 77.783 54.9519 76.589 55.1358C59.1541 57.8586 38.3137 54.1225 24.006 45.727" stroke="#354A89" stroke-width="3" stroke-linecap="round" stroke-linejoin="round"/>
<path d="M84.9471 21.0602C96.7069 30.7834 93.3955 42.5089 77.5013 47.3159C61.607 52.1229 39.2263 48.077 27.4665 38.3538L26.1086 37.1501C16.0105 27.6809 19.6916 16.6694 34.8787 12.0432C44.9373 9.05999 57.584 9.56304 68.4955 12.7916" stroke="#354A89" stroke-width="3" stroke-linecap="round" stroke-linejoin="round"/>
<path fill-rule="evenodd" clip-rule="evenodd" d="M61.5402 33.5459C59.7564 33.4877 57.8601 32.9786 56.1025 32.3813C55.9675 32.1369 55.5836 32.0149 55.1803 32.056C54.4184 31.7788 53.689 31.498 53.0236 31.2435C50.5543 30.3006 48.3122 29.1196 46.2539 27.7731C48.32 26.3713 50.5211 25.1192 52.9569 24.199C58.6685 22.0422 70.0814 21.7918 70.2768 27.9035C70.3994 31.6915 66.2988 33.7012 61.5402 33.5459ZM39.0264 31.4119C38.6743 29.1529 38.4486 26.8392 39.3177 24.5503C40.5794 25.7441 41.9554 26.8839 43.4311 27.9511C41.8948 29.075 40.4249 30.2493 39.0264 31.4119ZM72.5776 28.3599C73.209 23.8171 66.7317 21.4515 61.7761 21.2137C63.046 18.6233 63.0593 18.0175 65.3702 15.7997C66.1986 15.0031 64.6481 14.2946 63.8251 15.085C61.2991 17.5105 61.1554 18.3665 59.8201 21.2175C59.1377 21.2504 58.4609 21.311 57.7951 21.4061C58.66 18.6784 58.3441 17.9095 60.4356 15.4976C61.1695 14.6507 59.6267 13.9348 58.8915 14.7833C56.6978 17.3135 56.9028 18.2197 55.9962 21.086C55.9158 21.3418 55.9934 21.5477 56.147 21.7026C52.0718 22.5944 48.3492 24.5568 44.9493 26.8776C43.1516 25.5873 41.5012 24.1692 39.9896 22.6539C39.9328 22.5601 39.8434 22.4861 39.7295 22.4301C39.3641 22.1478 38.849 22.2548 38.4989 22.5286C38.3691 22.6124 38.2495 22.7139 38.1668 22.8555C36.1174 26.325 36.8058 29.8334 37.3527 33.2468C37.4354 33.7589 38.3684 33.9977 38.8948 33.5538C40.7648 31.9753 42.6843 30.3542 44.7259 28.8507C46.3721 29.9467 48.1281 30.9497 49.9956 31.819C48.9812 34.4241 48.3267 37.0487 48.0651 39.6872C47.9694 40.6484 49.8771 40.606 49.9725 39.6391C50.2104 37.2544 50.77 34.8965 51.6506 32.541C52.3508 32.829 53.0694 33.0928 53.7967 33.3421C52.5849 35.5029 52.0732 37.7283 52.2041 39.9699C52.2583 40.9188 54.1546 40.4843 54.0996 39.5438C53.9891 37.6232 54.4802 35.7217 55.4809 33.875C57.431 34.4415 59.4609 34.8729 61.5741 35.1205C66.8231 35.7359 71.9448 32.9119 72.5776 28.3599Z" fill="#354A89" stroke="#354A89"/>
</svg>
