<svg width="1225" height="804" viewBox="0 0 1225 804" fill="none" xmlns="http://www.w3.org/2000/svg">
<g opacity="0.1">
<path d="M175.859 77.5838C148.977 78.363 112.714 87.6481 97.9418 92.1933C20.0247 112.159 46.8087 70.2791 85.2802 26.4507C123.752 -17.3776 175.859 -0.333238 209.947 31.3206C244.036 62.9744 209.461 76.6098 175.859 77.5838Z" fill="#A5BCFF"/>
<path d="M885.391 5.99762C914.609 11.3544 868.833 39.1124 868.833 39.1124C868.833 39.1124 825.005 73.6881 827.44 39.1124C829.875 4.53668 856.172 0.640827 885.391 5.99762Z" fill="#A5BCFF"/>
</g>
<g opacity="0.1">
<path d="M1216.53 361.495C1253.06 158.424 1160.04 48.8528 1047.55 21.5818C865.62 -22.5222 744.809 238.833 552.288 204.2C460.248 187.643 377.461 51.2877 136.893 97.5509C-103.676 143.814 15.6553 504.758 168.567 564.657C321.48 624.556 327.698 621.117 369.579 691.729C411.459 762.341 518.199 820.292 660.398 799.839C802.596 779.386 774.352 598.229 983.754 642.97C1208.02 690.888 1198.03 642.97 1191.21 572.358C1184.39 501.746 1180.01 564.566 1216.53 361.495Z" fill="#A5BCFF"/>
<path d="M301.656 728.889C297.767 711.845 284.121 694.8 254.906 685.061C225.691 675.321 179.43 695.774 205.24 725.967C231.05 756.16 308.922 760.731 301.656 728.889Z" fill="#A5BCFF"/>
</g>
<path opacity="0.1" d="M981.24 321.701C950.917 359.783 921.396 420.776 910.426 446.512C847.019 577.581 820.392 491.622 804.725 387.226C789.058 282.829 873.495 230.684 957.086 220.521C1040.68 210.358 1019.14 274.098 981.24 321.701Z" fill="#A5BCFF"/>
</svg>
