<svg width="560" height="664" viewBox="0 0 560 664" fill="none" xmlns="http://www.w3.org/2000/svg">
<ellipse opacity="0.5" cx="316.357" cy="634.163" rx="170.93" ry="14.6471" fill="#C8D5FF"/>
<path fill-rule="evenodd" clip-rule="evenodd" d="M250.21 347.202C248.922 354.541 246.813 363.304 246.798 370.707C246.779 381.168 256.07 390.573 263.634 396.689C266.814 393.196 269.137 388.754 272.543 385.51C274.253 383.879 277.345 383.126 278.786 381.612C281.733 378.516 279.37 377.773 277.832 374.443C275.829 370.109 274.984 365.079 274.541 360.303C273.48 348.843 275.445 337.222 275.417 325.727C275.39 314.588 277.658 297.528 272.374 287.453C272.091 286.915 272.078 286.394 272.198 285.923C271.14 285.745 270.146 285.509 269.331 285.281C269.155 285.23 268.981 285.169 268.807 285.109C268.754 285.253 268.734 285.395 268.642 285.542C257.052 303.806 253.897 326.187 250.21 347.202M277.423 277.199C276.84 274.795 275.851 272.553 275.28 270.155C273.326 271.152 271.562 272.221 270.031 274.014C269.224 274.961 267.532 276.591 267.367 277.852C266.996 280.659 270.963 281.324 272.797 281.518C273.784 281.622 276.441 282.189 277.315 281.6C278.311 280.929 277.672 278.224 277.423 277.199M265.386 283.056C263.454 281.222 262.477 278.578 263.754 275.687C265.855 270.926 270.203 267.901 274.597 265.76C275.64 265.254 276.627 265.638 277.224 266.335C278.067 266.278 278.868 266.693 279.058 267.818C279.879 272.682 283.085 277.408 281.639 282.527C280.941 284.998 278.829 285.951 276.428 286.161C280.593 295.058 279.3 306.6 279.467 316.173C279.711 330.185 277.638 344.486 278.618 358.415C279.184 366.417 281.751 370.455 284.535 377.348C285.184 378.954 286.387 380.4 285.614 382.235C284.737 384.313 281.597 384.844 279.929 385.735C273.823 389.008 270.99 395.036 266.344 399.975C265.776 400.581 265.117 400.696 264.512 400.558C263.76 401.152 262.678 401.374 261.744 400.639C254.11 394.639 246.956 386.7 243.503 377.276C240.869 370.087 244.123 360.973 245.088 353.547C248.136 330.062 252.155 303.706 265.005 283.457C265.114 283.285 265.256 283.182 265.386 283.056" fill="white"/>
<path fill-rule="evenodd" clip-rule="evenodd" d="M349.017 432.352C350.346 441.922 359.487 447.74 367.58 452.72C369.85 454.117 367.891 457.461 365.598 456.051C356.059 450.182 346.376 443.488 344.836 432.364C344.492 429.88 348.675 429.887 349.017 432.352" fill="white"/>
<path fill-rule="evenodd" clip-rule="evenodd" d="M233.3 461.037C239.546 458.59 243.914 452.548 244.405 445.575C244.601 442.824 248.678 442.643 248.483 445.409C247.849 454.398 242.458 461.987 234.386 465.15C231.899 466.125 230.827 462.006 233.3 461.037" fill="white"/>
<path fill-rule="evenodd" clip-rule="evenodd" d="M244.772 257.908C249.671 247.085 255.629 236.948 263.173 228.257C263.443 227.944 265.514 225.157 265.824 225.051C259.022 213.976 254.958 201.541 253.252 188.952C251.222 173.985 252.198 158.977 253.831 144.02C256.122 123.053 262.635 98.9916 284.756 90.7767C306.095 82.8536 322.461 110.519 329.164 126.017C335.049 139.625 339.19 154.107 341.118 168.831C343.32 185.683 340.395 203.513 339.232 220.379C339.139 221.73 338.046 222.439 336.986 222.489C337.375 222.589 337.742 222.784 338.037 223.091C338.789 222.323 340.051 222.018 341.081 222.942C349.555 230.561 355.316 240.501 357.707 251.634C363.897 254.048 370.044 256.562 376.139 259.205C377.391 259.746 377.5 260.93 376.996 261.863C377.23 262.27 377.359 262.757 377.239 263.34C376.797 265.465 376.283 267.754 375.637 270.05L374.263 274.283C373.687 275.811 373.017 277.289 372.249 278.689C372.508 278.903 372.729 279.179 372.886 279.538C389.862 318.481 402.211 357.454 406.669 399.722C406.685 399.885 406.639 400.007 406.625 400.15C407.32 401.238 407.145 402.954 405.545 403.467C404.948 403.656 404.355 403.836 403.761 404.023C391.713 472.382 370.074 540.928 340.632 603.925C338.541 608.395 325.053 641.092 315.528 634.741C314.459 634.026 313.782 632.568 313.33 630.851C308.402 644.487 296.174 623.889 291.178 615.191C282.052 599.293 273.772 582.868 265 566.775C254.709 547.893 245.891 528.074 237.093 508.467C226.542 484.959 220.856 459.994 214.677 435.066C213.746 435.097 212.815 435.139 211.887 435.165C211.062 435.19 210.502 434.806 210.157 434.282C209.9 433.964 209.701 433.58 209.68 433.065C208.868 413.661 212.899 394.591 215.711 375.486C218.384 357.343 221.549 339.31 225.585 321.415C229.896 302.309 234.871 281.218 242.976 261.997C242.966 261.99 242.94 261.979 242.95 261.984C242.976 261.997 244.772 257.908 244.772 257.908" fill="white"/>
<path fill-rule="evenodd" clip-rule="evenodd" d="M256.612 92.4844C256.612 92.4844 261.245 102.033 266.977 110.498C272.561 118.742 282.022 126.886 282.022 126.886C282.022 126.886 272.528 144.226 260.64 143.679C248.749 143.132 245.872 128.999 245.828 124.558C245.689 110.769 256.612 92.4844 256.612 92.4844" fill="#C8D5FF"/>
<path fill-rule="evenodd" clip-rule="evenodd" d="M258.477 86.3361C258.477 86.3361 265.74 105.59 287.109 121.977C315.713 143.915 326.789 137.051 341.89 144.886C356.752 152.6 359.513 160.2 359.513 160.2C359.513 160.2 361.388 153.448 356.606 145.533C356.606 145.533 361.255 143.233 369.013 149.24C369.013 149.24 368.259 136.649 354.589 126.209C354.589 126.209 362.065 128.997 367.754 124.861C367.754 124.861 361.072 121.716 357.398 118.024C353.724 114.332 352.89 111.532 352.89 111.532C352.89 111.532 355.587 112.131 360.471 111.895C365.302 111.664 367.586 106.865 367.586 106.865C367.586 106.865 355.421 107.622 346.512 100.262C343.897 98.1 322.449 74.698 298.527 69.2914C274.605 63.8848 258.477 86.3361 258.477 86.3361" fill="#C8D5FF"/>
<path fill-rule="evenodd" clip-rule="evenodd" d="M264.547 282.449C264.661 282.28 264.806 282.183 264.941 282.063C263.077 280.159 262.197 277.481 263.579 274.638C265.852 269.957 270.308 267.094 274.778 265.115C276.106 264.524 278.964 265.849 279.161 267.335C279.803 272.221 282.833 277.066 281.202 282.127C280.414 284.571 278.27 285.447 275.861 285.569C279.7 294.615 277.985 306.098 277.805 315.672C277.536 329.684 274.943 343.898 275.415 357.854C275.687 365.874 278.106 370.001 280.638 376.992C281.228 378.62 282.376 380.109 281.537 381.913C280.584 383.957 277.424 384.374 275.729 385.204C269.505 388.252 266.454 394.171 261.632 398.938C261.041 399.522 260.38 399.613 259.779 399.454C259.007 400.018 257.916 400.202 257.011 399.434C249.599 393.157 242.741 384.964 239.634 375.418C237.261 368.139 240.848 359.151 242.083 351.764C245.987 328.407 250.965 302.216 264.547 282.449Z" fill="#A5BCFF"/>
<path fill-rule="evenodd" clip-rule="evenodd" d="M339.207 217.093C340.831 191.153 343.021 167.493 335.204 142.028C331.734 130.729 327.118 119.046 320.493 109.067C313.505 98.5408 299.458 86.1357 285.906 91.8528C263.681 101.23 260.365 127.026 258.624 147.635C257.628 159.427 257.239 171.197 258.836 182.999C260.539 195.627 263.265 211.854 270.676 222.661C272.277 224.991 268.482 227.172 266.886 224.848C259.186 213.619 256.593 197.915 254.66 184.868C252.439 169.883 253.319 154.885 254.878 139.941C257.063 118.993 263.581 94.9873 286.339 86.9606C308.289 79.2177 325.411 107.022 332.458 122.574C338.65 136.235 343.044 150.751 345.156 165.49C347.574 182.362 344.704 200.168 343.648 217.022C343.475 219.767 339.034 219.856 339.207 217.093" fill="#4B4B78"/>
<path fill-rule="evenodd" clip-rule="evenodd" d="M361.96 283.06C370.447 281.012 372.694 270.063 374.224 262.673C374.764 260.062 378.778 261.067 378.238 263.673C376.385 272.623 373.297 284.578 363.121 287.032C360.535 287.657 359.366 283.684 361.96 283.06" fill="#4B4B78"/>
<path fill-rule="evenodd" clip-rule="evenodd" d="M376.197 261.067C370.133 258.296 364.02 255.653 357.848 253.151C355.296 252.116 356.437 247.388 359.025 248.436C365.552 251.082 372.03 253.866 378.448 256.8C380.986 257.958 378.722 262.222 376.197 261.067" fill="#4B4B78"/>
<path fill-rule="evenodd" clip-rule="evenodd" d="M352.218 249.751C349.775 238.745 344.025 229.085 335.345 221.512C333.131 219.578 336.312 216.42 338.528 218.354C347.734 226.391 354.022 236.852 356.615 248.539C357.234 251.333 352.842 252.562 352.218 249.751" fill="#4B4B78"/>
<path fill-rule="evenodd" clip-rule="evenodd" d="M338.142 221.445C328.19 233.586 309.266 244.993 293.45 246.221C279.898 247.27 262.677 243.437 261.273 227.509C261.022 224.662 265.446 224.568 265.695 227.396C267.376 246.477 295.745 242.964 307.353 237.616C317.44 232.969 327.869 227.03 334.98 218.352C336.787 216.148 339.942 219.249 338.142 221.445" fill="#4B4B78"/>
<path fill-rule="evenodd" clip-rule="evenodd" d="M352.358 232.764C347.495 244.1 337.279 250.092 326.738 255.672C313.592 262.632 299.958 268.557 286.015 273.742C284.754 274.212 283.103 273.046 283.187 271.686C283.374 268.686 283.557 265.353 282.764 262.424C282.463 261.369 282.163 260.311 281.862 259.255C280.805 255.581 279.275 255.212 277.274 258.148C272.641 260.318 268.139 266.443 264.564 269.999C263.785 270.777 262.223 270.958 261.444 270.035C255.773 263.311 251.242 255.47 248.199 247.229C247.215 244.565 251.456 243.353 252.434 245.997C255.176 253.422 257.25 258.393 262.372 264.464C263.266 265.198 263.652 264.813 264.006 264.464C269.848 258.648 272.977 255.225 279.998 250.819C280.977 250.205 282.461 250.548 283.026 251.574C286.572 257.999 288.146 259.598 287.688 266.912C287.665 267.288 287.94 267.895 288.505 267.728C300.846 263.14 309.194 259.747 320.914 253.747C331.815 248.164 343.447 242.412 348.511 230.6C349.624 228.008 353.466 230.184 352.358 232.764Z" fill="#4B4B78"/>
<path fill-rule="evenodd" clip-rule="evenodd" d="M402.884 400.826C398.843 358.2 386.888 318.909 370.565 279.765C369.49 277.187 373.602 275.953 374.663 278.499C391.154 318.042 403.065 357.653 407.144 400.683C407.409 403.492 403.146 403.615 402.884 400.826" fill="#4B4B78"/>
<path fill-rule="evenodd" clip-rule="evenodd" d="M282.092 268.553C283.059 273.374 286.56 278.111 285.123 283.144C283.719 288.064 276.043 286.725 272.099 285.625C267.746 284.411 263.949 280.46 265.982 276.027C268.121 271.364 272.682 268.461 277.311 266.429C278.677 265.83 281.783 267.013 282.092 268.553ZM269.865 278.24C270.019 276.998 271.786 275.417 272.623 274.498C274.21 272.761 276.045 271.739 278.096 270.794C278.749 273.178 279.873 275.403 280.541 277.794C280.826 278.811 281.557 281.497 280.513 282.141C279.597 282.706 276.762 282.093 275.713 281.972C273.758 281.742 269.531 281.01 269.865 278.24Z" fill="#4B4B78"/>
<path fill-rule="evenodd" clip-rule="evenodd" d="M280.135 284.15C284.877 293.37 283.405 305.706 283.542 315.862C283.734 330.22 281.584 344.88 282.524 359.15C283.065 367.35 285.643 371.476 288.431 378.529C289.081 380.172 290.291 381.649 289.501 383.532C288.606 385.665 285.432 386.22 283.745 387.141C277.564 390.517 274.678 396.703 269.965 401.785C268.053 403.846 265.051 400.806 266.97 398.737C270.34 395.105 272.729 390.372 276.283 386.938C278.016 385.262 281.141 384.478 282.604 382.92C285.594 379.738 283.209 378.984 281.667 375.579C279.66 371.146 278.822 365.996 278.395 361.103C277.367 349.365 279.398 337.448 279.415 325.669C279.428 314.256 281.783 296.766 276.483 286.462C275.211 283.987 278.856 281.665 280.135 284.15" fill="#4B4B78"/>
<path fill-rule="evenodd" clip-rule="evenodd" d="M264.64 401.35C256.177 395.065 248.202 386.804 244.248 377.094C241.229 369.686 244.622 360.422 245.537 352.835C248.434 328.856 252.334 301.955 266.012 281.469C267.58 279.121 271.609 281.3 270.025 283.673C257.689 302.151 254.657 324.998 251.021 346.439C249.749 353.928 247.605 362.858 247.729 370.434C247.91 381.646 259.243 391.871 267.808 398.231C270.159 399.976 266.976 403.085 264.64 401.35" fill="#4B4B78"/>
<path fill-rule="evenodd" clip-rule="evenodd" d="M405.639 403.01C374.567 412.585 344.109 420.515 311.82 425.348C277.566 430.476 242.975 432.885 208.307 433.704C205.478 433.77 205.354 429.463 208.178 429.396C241.401 428.612 274.58 426.405 307.439 421.667C340.831 416.853 372.293 408.757 404.383 398.869C407.081 398.038 408.324 402.181 405.639 403.01" fill="#4B4B78"/>
<path fill-rule="evenodd" clip-rule="evenodd" d="M264.843 228.33C240.976 253.474 232.714 291.327 225.761 323.542C222.216 339.955 219.444 356.488 217.163 373.14C214.495 392.604 210.432 412.051 211.863 431.911C212.066 434.736 207.261 434.721 207.056 431.905C205.633 412.163 209.624 392.891 212.255 373.548C214.752 355.18 217.806 336.938 221.835 318.862C228.908 287.138 237.781 249.992 261.318 225.19C263.293 223.11 266.812 226.253 264.843 228.33" fill="#4B4B78"/>
<path fill-rule="evenodd" clip-rule="evenodd" d="M405.091 400.874C393.006 470.844 370.799 540.989 340.35 605.368C338.203 609.908 324.359 643.128 314.417 636.604C311.262 634.534 311.291 626.494 310.874 623.393C309.267 611.464 308.506 599.418 307.704 587.425C305.414 553.167 304.064 518.864 302.325 484.584C302.182 481.757 306.662 481.682 306.803 484.502C308.153 511.089 309.289 537.687 310.781 564.272C311.986 585.753 312.226 607.997 316.285 629.235C316.414 629.921 316.51 631.744 317.024 632.341C318.361 633.895 315.775 633.023 317.732 632.405C320.493 631.531 323.077 627.082 324.54 624.971C330.397 616.511 334.767 606.971 338.992 597.653C351.165 570.805 361.12 542.943 370.714 515.107C383.803 477.136 393.892 439.422 400.738 399.789C401.218 397.012 405.568 398.109 405.091 400.874" fill="#4B4B78"/>
<path fill-rule="evenodd" clip-rule="evenodd" d="M218.156 433.147C223.754 455.985 228.449 479.454 237.869 501.077C245.375 518.303 253.303 535.377 261.592 552.233C267.657 564.563 274.517 576.466 280.824 588.672C285.338 597.412 289.879 606.15 294.813 614.655C296.904 618.256 299.015 621.901 301.438 625.29C305.779 631.373 308.138 631.494 309.266 623.024C309.629 620.279 313.783 621.336 313.423 624.06C310.068 649.275 295.511 624.575 289.963 614.833C280.901 598.931 272.685 582.5 263.982 566.401C253.769 547.512 245.023 527.681 236.295 508.062C225.797 484.465 220.175 459.394 214.04 434.364C213.381 431.675 217.495 430.451 218.156 433.147" fill="#4B4B78"/>
<path fill-rule="evenodd" clip-rule="evenodd" d="M369.563 457.016C360.191 450.491 350.711 442.989 349.671 429.843C349.439 426.908 353.674 426.721 353.903 429.634C354.796 440.944 363.77 447.427 371.726 452.966C373.956 454.519 371.817 458.585 369.563 457.016" fill="#4B4B78"/>
<path fill-rule="evenodd" clip-rule="evenodd" d="M248.483 445.409C247.849 454.397 242.458 461.988 234.386 465.151C231.899 466.124 230.828 462.006 233.299 461.038C239.545 458.59 243.915 452.549 244.406 445.577C244.6 442.826 248.677 442.641 248.483 445.409" fill="#4B4B78"/>
<path fill-rule="evenodd" clip-rule="evenodd" d="M402.707 414.986C343.645 436.749 281.028 444.372 218.209 444.599C215.396 444.609 215.281 440.266 218.094 440.256C280.537 440.03 342.763 432.447 401.475 410.815C404.117 409.842 405.331 414.02 402.707 414.986" fill="#4B4B78"/>
<path fill-rule="evenodd" clip-rule="evenodd" d="M302.381 195.868C297.827 201.092 291.095 207.391 284.468 208.219C278.199 209.001 276.279 203.243 273.29 198.528C271.766 196.13 275.445 193.615 276.957 195.996C277.911 197.501 278.603 199.323 279.64 200.742C281.899 203.842 284.761 203.756 287.921 202.148C292.305 199.913 296.1 196.545 299.468 192.683C301.411 190.452 304.329 193.631 302.381 195.868" fill="#4B4B78"/>
<path fill-rule="evenodd" clip-rule="evenodd" d="M296.689 154.113C301.048 151.161 306.852 155.655 310.238 158.218C312.567 159.985 310.252 164.453 307.892 162.665C306.436 161.561 304.936 160.556 303.344 159.695C302.374 159.171 300.084 157.573 298.921 158.36C296.362 160.091 294.129 155.849 296.689 154.113" fill="#4B4B78"/>
<path fill-rule="evenodd" clip-rule="evenodd" d="M269.307 150.999C274.182 150.791 278.703 152.779 281.897 156.7C283.875 159.124 280.49 163.018 278.5 160.58C276.1 157.637 272.962 156.108 269.273 156.267C266.238 156.394 266.269 151.128 269.307 150.999" fill="#4B4B78"/>
<path d="M248.468 244.047C248.468 244.047 208.493 314.266 185.603 338.753C156.734 369.636 138.663 271.549 130.48 256.034C122.297 240.519 117.432 241.345 112.532 247.876M376.679 268.531C376.679 268.531 428.448 314.371 451.311 309.17C474.174 303.97 418.427 183.817 414.346 174.839C410.265 165.86 412.714 156.879 423.33 154.429" stroke="#4B4B78" stroke-width="4.24084" stroke-linecap="round" stroke-linejoin="round"/>
<path d="M304.466 304.695C304.179 302.159 306.003 299.87 308.539 299.584L354.678 294.375C357.215 294.088 359.503 295.912 359.79 298.449L362.78 324.923C363.08 327.572 361.081 329.925 358.417 330.057L311.95 332.364C309.514 332.485 307.402 330.691 307.128 328.267L304.466 304.695Z" fill="#C8D5FF" fill-opacity="0.55"/>
<path d="M342.428 300.06L330.058 301.411L311.011 303.154C308.356 303.397 306.456 305.831 306.866 308.466L309.889 327.91C310.248 330.222 312.278 331.9 314.616 331.82L354.065 330.453C356.83 330.357 358.892 327.869 358.473 325.134L354.837 301.411" stroke="#4B4B78" stroke-width="3.08108" stroke-linecap="round"/>
<path d="M326.632 291.663C324.185 285.308 333.536 283.442 330.509 300.136" stroke="#4B4B78" stroke-width="3.08108" stroke-linecap="round" stroke-linejoin="round"/>
<path d="M324.769 324.926C324.514 326.13 323.488 327.895 323.488 327.895C325.054 327.746 326.51 326.947 327.46 325.619C329.242 323.406 328.65 321.362 328.65 321.362C328.65 321.362 329.253 321.345 330.205 321.287C330.193 321.611 330.134 321.924 330.059 322.238C329.818 322.994 329.507 323.711 329.151 324.432C329.175 325.1 328.975 325.786 328.562 326.355C328.562 326.355 331.787 324.577 331.931 322.132C331.948 321.819 331.93 321.492 331.907 321.163C334.264 320.964 337.41 320.576 339.622 319.841C343.597 318.52 344.186 316.608 344.186 316.608C343.988 315.919 343.626 315.312 343.162 314.78C342.449 314.042 341.567 313.317 341.567 313.317L341.129 315.854L339.868 314.295L338.886 316.376L338.166 315.842C338.166 315.842 338.929 310.664 338.15 309.294C337.371 307.924 335.823 308.026 335.823 308.026C335.718 306.852 335.151 305.76 334.269 305.035C334.232 306.016 334.256 306.969 334.325 307.942C334.325 307.942 333.354 305.359 331.819 305.346C332.588 306.876 332.019 307.263 332.019 307.263C332.019 307.263 331.119 306.29 330.211 306.113C330.769 307.068 330.288 307.494 329.902 307.457C329.516 307.42 329.126 307.337 328.757 307.231C327.404 307.089 326.092 307.809 325.414 309.069C324.245 311.21 324.551 313.732 324.551 313.732C324.052 312.999 323.512 312.292 322.911 311.636C322.128 310.812 320.449 310.56 320.449 310.56L321.723 315.916C321.723 315.916 321.117 316.988 320.671 317.911C320.225 318.834 319.687 320.856 319.687 320.856C319.687 320.856 321.361 320.13 322.288 319.373C322.989 318.748 323.622 318.06 324.229 317.306C324.229 317.306 324.354 319.07 324.762 320.015C325.379 321.512 327.214 321.546 327.214 321.546C327.214 321.546 325.588 324.155 324.769 324.926Z" fill="#7699FF"/>
<path fill-rule="evenodd" clip-rule="evenodd" d="M331.61 310.782C333.551 310.636 335.244 312.091 335.391 314.031C335.537 315.972 334.082 317.665 332.141 317.811C330.199 317.958 328.507 316.503 328.36 314.562C328.213 312.621 329.668 310.929 331.61 310.782Z" fill="#1D1D1B"/>
</svg>
