<svg width="564" height="664" viewBox="0 0 564 664" fill="none" xmlns="http://www.w3.org/2000/svg">
<path d="M7.54341 156.777C7.41293 150.012 12.672 144.363 19.4291 144.011L202.384 134.459C209.426 134.092 215.387 139.6 215.577 146.649L218.211 244.787C218.396 251.701 212.95 257.459 206.037 257.66L22.2602 262.999C15.288 263.201 9.48951 257.677 9.355 250.703L7.54341 156.777Z" fill="white"/>
<path d="M0.800315 150.052C0.36306 144.391 4.71031 139.498 10.3832 139.265L35.052 138.254L44.7501 263.808L15.7359 264.998C12.3667 265.136 9.49241 262.582 9.23272 259.22L0.800315 150.052Z" fill="#757DF0" fill-opacity="0.5"/>
<path d="M27.0278 153.986C25.76 153.498 24.42 153.176 23.0345 153.041C22.8906 153.363 22.7266 153.793 22.617 154.134C21.1468 154.024 19.7073 154.135 18.2983 154.468C18.1375 154.148 17.9048 153.748 17.7115 153.452C16.3619 153.799 15.0859 154.325 13.9084 155.003C11.7357 158.986 11.3533 162.735 11.9697 166.355C13.7015 167.471 15.3451 168.104 16.9418 168.477C17.2848 167.909 17.5837 167.309 17.8326 166.683C17.2527 166.509 16.6926 166.282 16.159 166.009C16.2863 165.897 16.4102 165.78 16.5295 165.661C19.7519 166.899 23.1287 166.638 26.0851 164.922C26.2228 165.021 26.3633 165.118 26.5048 165.209C26.018 165.562 25.4981 165.873 24.9519 166.134C25.2941 166.713 25.6802 167.261 26.1082 167.77C27.6299 167.155 29.1581 166.278 30.6975 164.907C30.7627 160.651 29.417 157.069 27.0278 153.986ZM18.0225 163.632C17.0895 163.704 16.2558 162.877 16.1723 161.797C16.0888 160.718 16.7688 159.772 17.7181 159.699C18.6675 159.626 19.5011 160.453 19.5684 161.535C19.6534 162.614 18.9718 163.558 18.0225 163.632ZM24.2977 163.146C23.3648 163.219 22.5311 162.391 22.4476 161.312C22.3641 160.233 23.0441 159.287 23.9934 159.214C24.9428 159.14 25.7764 159.968 25.8437 161.05C25.9272 162.129 25.2471 163.073 24.2977 163.146Z" fill="white"/>
<path d="M98.4859 261.054L26.3743 267.193C20.9998 267.651 16.2267 263.773 15.5734 258.419L2.68358 152.789C1.97995 147.023 6.30944 141.868 12.1104 141.565L200.938 131.707C206.712 131.406 211.543 136.038 211.484 141.82L211.285 161.271M178.775 253.282L200.966 252.124C206.249 251.848 210.408 247.515 210.466 242.226L211.195 176.691M158.108 254.361L151.532 254.704" stroke="#4B4B78" stroke-width="3.13565" stroke-linecap="round"/>
<ellipse rx="3.75882" ry="3.75796" transform="matrix(0.99864 -0.0521365 0.0521887 0.998637 183.338 142.661)" fill="white"/>
<ellipse rx="3.75882" ry="3.75796" transform="matrix(0.99864 -0.0521365 0.0521887 0.998637 197.102 141.942)" fill="white"/>
<ellipse rx="3.75882" ry="3.75796" transform="matrix(0.99864 -0.0521365 0.0521887 0.998637 169.574 143.379)" fill="white"/>
<path d="M143.95 148.305L81.0734 151.804C80.589 151.831 80.1352 152.049 79.8118 152.41C79.4884 152.772 79.3218 153.247 79.3488 153.731L80.4535 173.555C80.4805 174.039 80.6988 174.493 81.0604 174.817C81.422 175.14 81.8972 175.306 82.3816 175.28L84.2079 175.178L84.4622 179.743L90.5998 174.822L145.258 171.781C145.742 171.754 146.196 171.535 146.519 171.174C146.843 170.813 147.009 170.337 146.982 169.853L145.878 150.029C145.851 149.545 145.632 149.091 145.271 148.768C144.909 148.444 144.434 148.278 143.95 148.305Z" fill="#C8D5FF" fill-opacity="0.3"/>
<path d="M101.594 181.926L164.471 178.427C164.955 178.4 165.43 178.567 165.792 178.89C166.153 179.214 166.372 179.667 166.399 180.152L167.154 193.716C167.181 194.2 167.015 194.675 166.692 195.037C166.368 195.398 165.914 195.616 165.43 195.643L163.604 195.745L163.858 200.31L157.212 196.101L102.554 199.142C102.069 199.169 101.594 199.003 101.232 198.679C100.871 198.356 100.653 197.902 100.626 197.418L99.8697 183.854C99.8427 183.369 100.009 182.894 100.333 182.533C100.656 182.171 101.11 181.953 101.594 181.926Z" fill="#C8D5FF" fill-opacity="0.3"/>
<path d="M147.073 204.383L84.1974 207.882C83.713 207.909 83.2592 208.127 82.9358 208.488C82.6124 208.85 82.4459 209.325 82.4728 209.809L84.2753 242.153C84.3023 242.637 84.5206 243.091 84.8821 243.415C85.2437 243.738 85.719 243.904 86.2033 243.877L88.0296 243.776L88.284 248.341L94.4215 243.42L149.079 240.379C149.564 240.352 150.017 240.134 150.341 239.772C150.664 239.411 150.831 238.935 150.804 238.451L149.001 206.107C148.974 205.623 148.756 205.169 148.394 204.846C148.033 204.523 147.558 204.356 147.073 204.383Z" fill="#C8D5FF" fill-opacity="0.3"/>
<path d="M175.947 146.696C175.879 144.985 177.196 143.537 178.905 143.441L198.862 142.324C200.642 142.225 202.147 143.627 202.173 145.409L203.56 239.464C203.585 241.138 202.29 242.536 200.619 242.64L183.013 243.729C181.257 243.837 179.755 242.481 179.686 240.723L175.947 146.696Z" fill="#C8D5FF" fill-opacity="0.3"/>
<path d="M42.5025 153.711C42.362 151.955 43.6945 150.429 45.4529 150.33L65.4156 149.213C67.1446 149.117 68.6247 150.44 68.7216 152.169L74.2412 250.628C74.3378 252.35 73.0256 253.826 71.3042 253.933L53.698 255.022C51.9916 255.127 50.515 253.846 50.3787 252.142L42.5025 153.711Z" fill="#C8D5FF" fill-opacity="0.3"/>
<path fill-rule="evenodd" clip-rule="evenodd" d="M461.819 122.739C461.819 122.739 458.797 128.048 447.925 128.404C437.052 128.76 425.43 125.454 425.43 125.454L422.048 135.643L412.886 121.675C412.886 121.675 393.439 112.789 387.636 97.0271C381.833 81.265 395.072 70.3106 395.072 70.3106C395.072 70.3106 409.322 63.5137 420.126 65.3649C430.929 67.2168 452.03 74.1576 452.03 74.1576L461.819 122.739Z" fill="#FEF0A9"/>
<path fill-rule="evenodd" clip-rule="evenodd" d="M467.954 145.402C467.954 145.402 475.083 144.945 477.783 143.342C480.482 141.739 484.634 138.684 484.634 138.684C484.634 138.684 503.766 143.818 517.653 142.437C548.974 139.324 561.743 100.387 537.373 79.9924C517.092 63.0211 491.255 58.9034 478.037 59.7584C464.819 60.6134 453.321 64.8481 447.115 80.3325C437.688 103.849 454.973 122.17 474.266 132.963L467.954 145.402Z" fill="#B8F9B9"/>
<path fill-rule="evenodd" clip-rule="evenodd" d="M411.075 120.791C415.065 124.811 417.995 129.243 420.207 134.44C420.69 135.578 422.352 135.588 422.84 134.46C424.34 130.991 424.59 128.905 425.447 125.228L426.232 125.228C438.152 128.912 453.199 131.476 463.494 122.856C464.89 121.687 463.174 119.412 461.774 120.585C452.573 128.288 436.25 125.648 425.463 122.316C424.515 122.023 423.723 122.478 423.5 123.436C422.943 125.828 421.423 130.336 421.423 130.336C421.423 130.336 416.362 122.128 412.831 118.569C411.54 117.268 409.799 119.506 411.075 120.791Z" fill="#4B4B78"/>
<path fill-rule="evenodd" clip-rule="evenodd" d="M451.928 69.8585C434.352 61.9747 404.517 52.0684 388.249 68.2784C369.807 86.656 392.763 112.797 410.487 120.28C412.175 120.993 413.276 118.376 411.586 117.662C405.167 114.952 399.928 110.857 395.206 105.784C392.249 102.606 388.697 99.2163 386.941 95.203C382.412 84.8653 384.613 72.9228 394.664 66.9403C400.054 63.7314 406.561 62.3674 412.804 62.7404C425.953 63.526 438.848 67.1026 450.829 72.4768C452.5 73.2274 453.598 70.6086 451.928 69.8585Z" fill="#4B4B78"/>
<path fill-rule="evenodd" clip-rule="evenodd" d="M478.795 129.735C465.703 123.779 447.692 111.676 446.177 95.5653C445.325 86.4835 449.083 75.3609 455.701 69.0435C462.705 62.3571 476.738 59.7136 486.043 60.2993C516.729 62.2321 559.767 82.4606 551.277 119.885C545.299 146.237 509.663 140.786 490.609 135.878C489.038 135.474 488.715 138.009 490.274 138.41C508.055 142.99 538.457 148.205 550.499 129.067C560.385 113.353 554.024 92.0797 541.666 80.3037C518.001 57.7543 452.486 41.0449 444.204 87.1229C440.35 108.572 460.647 124.285 477.806 132.091C479.288 132.765 480.275 130.409 478.795 129.735Z" fill="#4B4B78"/>
<path fill-rule="evenodd" clip-rule="evenodd" d="M484.975 79.8415L528.602 97.1111C530.122 97.7122 531.124 95.3405 529.599 94.7369L485.971 77.4673C484.451 76.8662 483.45 79.2383 484.975 79.8415Z" fill="#4B4B78"/>
<path fill-rule="evenodd" clip-rule="evenodd" d="M468.676 84.4761L533.492 110.549C534.994 111.153 535.965 108.852 534.459 108.246L469.643 82.1733C468.141 81.5691 467.171 83.8705 468.676 84.4761Z" fill="#4B4B78"/>
<path fill-rule="evenodd" clip-rule="evenodd" d="M466.909 93.2929C488.025 103.099 509.402 112.307 531.034 120.913C532.563 121.521 533.591 119.085 532.057 118.474C510.426 109.869 489.049 100.661 467.933 90.8543C466.438 90.16 465.416 92.6008 466.909 93.2929Z" fill="#4B4B78"/>
<path fill-rule="evenodd" clip-rule="evenodd" d="M462.684 103.376C484.074 112.537 505.465 121.699 526.855 130.861C528.373 131.511 529.537 128.744 528.016 128.093C506.627 118.931 485.236 109.77 463.845 100.609C462.327 99.9585 461.163 102.725 462.684 103.376Z" fill="#4B4B78"/>
<path fill-rule="evenodd" clip-rule="evenodd" d="M413.446 77.555C422.459 81.0301 431.473 84.5041 440.487 87.9792C442.206 88.6411 443.249 86.1758 441.523 85.511C432.509 82.0359 423.495 78.5619 414.481 75.0868C412.764 74.4244 411.72 76.8907 413.446 77.555Z" fill="#4B4B78"/>
<path fill-rule="evenodd" clip-rule="evenodd" d="M401.58 83.0872C414.528 87.7037 427.335 92.7163 440.019 98.1334C441.749 98.8725 442.382 97.3684 440.651 96.6288C427.967 91.2117 415.16 86.199 402.212 81.5826C400.46 80.9581 399.813 82.4568 401.58 83.0872Z" fill="#4B4B78"/>
<path fill-rule="evenodd" clip-rule="evenodd" d="M397.456 92.8305C411.479 98.044 425.392 103.54 439.195 109.318C440.879 110.023 441.88 107.642 440.194 106.936C426.392 101.159 412.478 95.6626 398.455 90.4491C396.751 89.8152 395.742 92.1938 397.456 92.8305Z" fill="#4B4B78"/>
<path fill-rule="evenodd" clip-rule="evenodd" d="M127.328 380.719L14.6882 344.218C14.8811 343.072 15.1606 341.924 15.5307 340.783C19.4332 328.751 31.9325 322.022 43.4486 325.753C44.1768 325.989 44.8836 326.262 45.5679 326.567C55.9076 312.589 73.843 305.972 90.6448 311.417C106.198 316.456 116.471 330.435 118.045 346.274C128.705 350.524 134.259 362.777 130.509 374.34C129.75 376.68 128.666 378.819 127.328 380.719Z" fill="#B8F9B9"/>
<path d="M122.338 383.217L121.849 384.678L122.913 385.033L123.578 384.13L122.338 383.217ZM10.7026 345.954L9.18393 345.695L8.96178 346.997L10.2145 347.415L10.7026 345.954ZM11.5223 342.689L12.9836 343.177L11.5223 342.689ZM39.0918 328.923L39.5798 327.462L39.5798 327.462L39.0918 328.923ZM41.1919 329.746L40.5571 331.149L41.6651 331.65L42.4098 330.689L41.1919 329.746ZM85.7435 316.229L85.2554 317.69L85.7435 316.229ZM113.008 350.111L111.476 350.275L111.574 351.192L112.428 351.539L113.008 350.111ZM125.46 377.189L126.921 377.677L126.921 377.677L125.46 377.189ZM122.826 381.755L11.1907 344.493L10.2145 347.415L121.849 384.678L122.826 381.755ZM12.2213 346.213C12.3943 345.199 12.647 344.185 12.9836 343.177L10.0611 342.202C9.67438 343.359 9.38332 344.526 9.18393 345.695L12.2213 346.213ZM12.9836 343.177C16.5266 332.572 27.9971 326.844 38.6037 330.385L39.5798 327.462C27.3593 323.383 14.1433 329.982 10.0611 342.202L12.9836 343.177ZM38.6037 330.385C39.2751 330.609 39.9266 330.864 40.5571 331.149L41.8267 328.342C41.1006 328.014 40.3512 327.72 39.5798 327.462L38.6037 330.385ZM42.4098 330.689C52.1973 318.056 69.2436 312.346 85.2554 317.69L86.2315 314.768C68.9396 308.996 50.5383 315.167 39.974 328.803L42.4098 330.689ZM85.2554 317.69C100.077 322.637 109.913 335.688 111.476 350.275L114.539 349.947C112.854 334.205 102.238 320.111 86.2315 314.768L85.2554 317.69ZM112.428 351.539C122.248 355.521 127.404 366.51 123.999 376.701L126.921 377.677C130.845 365.933 124.904 353.274 113.587 348.684L112.428 351.539ZM123.999 376.701C123.309 378.766 122.32 380.644 121.097 382.303L123.578 384.13C124.989 382.215 126.128 380.051 126.921 377.677L123.999 376.701Z" fill="#4B4B78"/>
<path fill-rule="evenodd" clip-rule="evenodd" d="M87.6345 329.593L74.9171 325.348L69.641 341.141L64.876 339.486L72.3626 354.476L86.9944 347.171L82.3063 345.542L87.6345 329.593Z" fill="white"/>
<path d="M71.3141 325.36L71.8022 323.899L70.341 323.411L69.8528 324.872L71.3141 325.36ZM84.0315 329.605L85.4928 330.093L85.9809 328.631L84.5196 328.144L84.0315 329.605ZM66.0381 341.153L65.5321 342.608L67.0052 343.12L67.4993 341.641L66.0381 341.153ZM61.2735 339.497L61.7795 338.042L58.2041 336.8L59.8951 340.186L61.2735 339.497ZM68.7601 354.488L67.3818 355.176L68.0699 356.554L69.4482 355.866L68.7601 354.488ZM83.392 347.183L84.08 348.561L87.3515 346.928L83.898 345.728L83.392 347.183ZM78.7033 345.554L77.242 345.066L76.7599 346.509L78.1973 347.009L78.7033 345.554ZM70.826 326.821L83.5434 331.066L84.5196 328.144L71.8022 323.899L70.826 326.821ZM67.4993 341.641L72.7754 325.848L69.8528 324.872L64.5768 340.665L67.4993 341.641ZM60.7675 340.952L65.5321 342.608L66.5441 339.698L61.7795 338.042L60.7675 340.952ZM70.1385 353.799L62.6519 338.809L59.8951 340.186L67.3818 355.176L70.1385 353.799ZM82.7039 345.805L68.0721 353.109L69.4482 355.866L84.08 348.561L82.7039 345.805ZM78.1973 347.009L82.886 348.638L83.898 345.728L79.2093 344.099L78.1973 347.009ZM82.5702 329.117L77.242 345.066L80.1646 346.042L85.4928 330.093L82.5702 329.117Z" fill="#4B4B78"/>
<path d="M430.507 410.596C426.222 416.267 427.61 424.375 433.537 428.298L494.566 468.695C500.468 472.601 508.441 470.747 512.013 464.637L531.769 430.841C534.983 425.344 533.478 418.304 528.298 414.6L472.607 374.784C467.172 370.898 459.629 372.05 455.601 377.381L430.507 410.596Z" fill="white"/>
<path d="M435.76 416.527C432.144 422.646 434.439 430.545 440.771 433.773L505.978 467.015C512.283 470.229 519.995 467.485 522.854 461.011L538.662 425.199C541.233 419.374 538.942 412.549 533.377 409.455L473.54 376.187C467.7 372.941 460.336 374.938 456.937 380.69L435.76 416.527Z" stroke="#4B4B78" stroke-width="3.85531"/>
<path d="M486.756 400.268C487.879 398.065 491.009 398.016 492.2 400.181L504.045 421.7C505.094 423.608 503.888 425.972 501.728 426.243L477.35 429.296C474.897 429.604 473.099 427.042 474.222 424.84L486.756 400.268Z" fill="#7699FF"/>
<rect width="56.938" height="3.63375" rx="1.81687" transform="matrix(0.890912 0.454176 -0.454377 0.890809 455.671 423.693)" fill="#C8D5FF"/>
<rect width="29.0747" height="3.63375" rx="1.81687" transform="matrix(0.890912 0.454176 -0.454377 0.890809 455.671 423.693)" fill="#4B4B78"/>
<path fill-rule="evenodd" clip-rule="evenodd" d="M195.623 80.841C194.085 81.6132 192.126 81.984 190.22 82.2012C189.93 82.018 189.519 82.0739 189.211 82.3032C188.371 82.3789 187.556 82.4359 186.814 82.4897C184.061 82.6904 181.326 82.5456 178.625 82.1485C179.342 79.7748 180.281 77.4888 181.658 75.4277C184.885 70.5958 194.274 65.0278 198.863 71.0905C201.709 74.8474 199.725 78.781 195.623 80.841ZM175.2 89.179C173.269 87.0685 171.404 84.844 170.476 82.1346C172.398 82.7489 174.377 83.2556 176.387 83.6429C175.913 85.4901 175.53 87.357 175.2 89.179ZM201.123 70.4787C198.364 65.6106 191.219 66.2457 186.892 68.3145C186.081 65.1148 185.844 61.8865 186.176 58.5771C186.294 57.3892 184.481 57.3979 184.363 58.5771C184.001 62.1959 184.31 65.7367 185.254 69.2293C184.706 69.5803 184.182 69.9566 183.693 70.3624C182.443 67.2132 181.812 63.974 181.82 60.5713C181.822 59.3768 180.01 59.3746 180.008 60.5713C180 64.1407 180.637 67.5697 181.952 70.878C182.07 71.1731 182.284 71.3442 182.525 71.4286C179.754 74.2247 178.053 77.9345 176.882 81.8549C174.441 81.3931 172.03 80.7338 169.665 79.9122C169.55 79.8442 169.421 79.8113 169.285 79.808C168.774 79.6939 168.42 80.0417 168.325 80.4804C168.276 80.6252 168.25 80.7832 168.283 80.9642C169.076 85.4122 172.194 88.6239 175.124 91.8061C175.564 92.2833 176.519 92.0891 176.639 91.397C177.065 88.9366 177.5 86.4104 178.124 83.9456C180.298 84.2823 182.496 84.4743 184.692 84.4798C185.727 87.5753 187.079 90.5227 188.77 93.3012C189.386 94.3137 190.955 93.3824 190.335 92.3644C188.807 89.8525 187.569 87.2177 186.602 84.4359C187.398 84.3997 188.192 84.3306 188.982 84.2429C189.53 86.983 190.713 89.462 192.445 91.658C193.178 92.5882 194.454 91.2675 193.726 90.3461C192.243 88.4638 191.278 86.3204 190.78 83.9949C192.826 83.6571 194.84 83.1459 196.791 82.411C201.638 80.5857 203.889 75.3567 201.123 70.4787Z" fill="white"/>
<rect width="58.3325" height="49.539" rx="15.4851" transform="matrix(0.977514 0.210871 -0.210984 0.97749 506.421 282.091)" fill="#C8D5FF"/>
<path d="M517.467 296.296L533.345 299.721" stroke="white" stroke-width="5.16169" stroke-linecap="round" stroke-linejoin="round"/>
<path d="M514.176 306.95L546.978 314.026" stroke="white" stroke-width="2.58085" stroke-linecap="round" stroke-linejoin="round"/>
<path d="M512.433 315.022L545.235 322.099" stroke="white" stroke-width="2.58085" stroke-linecap="round" stroke-linejoin="round"/>
<path d="M510.69 323.096L526.884 326.589" stroke="white" stroke-width="2.58085" stroke-linecap="round" stroke-linejoin="round"/>
<path d="M78.8901 111.513C110.805 40.5307 233.253 -9.02357 365.472 52.1904" stroke="#C8D5FF" stroke-width="3.08425" stroke-linecap="round" stroke-linejoin="round" stroke-dasharray="15.42 15.42"/>
<path d="M521.258 354.784C518.944 361.336 515.475 366.347 510.077 372.899" stroke="#C8D5FF" stroke-width="3.08425" stroke-linecap="round" stroke-linejoin="round" stroke-dasharray="15.42 15.42"/>
<path fill-rule="evenodd" clip-rule="evenodd" d="M160.539 484.531C162.445 485.528 164.212 486.772 165.792 488.231L171.363 486.234L176.639 494.564L172.538 498.747C173.185 500.799 173.556 502.929 173.643 505.079L179.025 507.629L176.863 517.251H170.846C169.852 519.159 168.607 520.926 167.144 522.503L169.142 528.119L160.786 533.441L156.59 529.294C154.541 529.941 152.415 530.312 150.268 530.398L147.706 535.779L138.092 533.617V527.661C136.184 526.667 134.417 525.423 132.839 523.96L127.233 525.957L121.933 517.545L126.141 513.315C125.487 511.268 125.116 509.142 125.036 506.994L119.653 504.468L121.816 494.858H127.762C128.757 492.947 130.002 491.177 131.464 489.594L129.466 483.978L137.799 478.703L141.982 482.909C144.034 482.257 146.165 481.886 148.317 481.805L150.902 476.424L160.527 478.586V484.531H160.539ZM152.054 495.856C150.013 495.4 147.882 495.56 145.931 496.314C143.98 497.069 142.297 498.385 141.094 500.096C139.891 501.806 139.223 503.835 139.174 505.926C139.124 508.016 139.696 510.075 140.816 511.84C141.937 513.606 143.556 515 145.469 515.846C147.382 516.692 149.503 516.952 151.563 516.593C153.624 516.234 155.532 515.272 157.046 513.829C158.56 512.386 159.612 510.527 160.069 508.486C160.373 507.131 160.406 505.729 160.167 504.361C159.929 502.992 159.423 501.684 158.679 500.511C157.934 499.339 156.966 498.324 155.83 497.525C154.693 496.726 153.41 496.159 152.054 495.856Z" fill="white"/>
<path fill-rule="evenodd" clip-rule="evenodd" d="M162.192 480.131C164.187 480.939 166.067 482.005 167.783 483.304L173.135 480.773L179.201 488.552L175.525 493.117C176.369 495.097 176.947 497.182 177.243 499.314L182.851 501.328L181.636 511.12L175.645 511.706C174.842 513.703 173.774 515.583 172.471 517.296L175.008 522.693L167.207 528.807L162.625 525.086C160.648 525.93 158.567 526.507 156.438 526.802L154.412 532.409L144.629 531.194L144.048 525.263C142.051 524.46 140.17 523.393 138.457 522.09L133.07 524.625L126.972 516.766L130.749 512.145C129.899 510.17 129.321 508.089 129.033 505.959L123.427 503.968L124.643 494.188L130.564 493.609C131.367 491.609 132.434 489.725 133.736 488.007L131.199 482.61L138.981 476.546L143.557 480.326C145.537 479.477 147.622 478.899 149.756 478.609L151.806 472.999L161.6 474.213L162.18 480.133L162.192 480.131ZM154.848 492.235C152.771 491.98 150.665 492.347 148.796 493.288C146.927 494.23 145.38 495.704 144.349 497.525C143.318 499.345 142.85 501.431 143.005 503.517C143.16 505.603 143.93 507.597 145.218 509.246C146.505 510.895 148.254 512.125 150.241 512.781C152.228 513.436 154.365 513.489 156.382 512.93C158.398 512.372 160.204 511.228 161.571 509.644C162.938 508.06 163.804 506.106 164.06 504.03C164.23 502.651 164.127 501.251 163.756 499.912C163.385 498.573 162.753 497.32 161.898 496.225C161.042 495.129 159.98 494.213 158.77 493.529C157.56 492.844 156.227 492.405 154.848 492.235V492.235Z" stroke="#C8D5FF" stroke-width="3.85531" stroke-linejoin="round"/>
<ellipse rx="11.394" ry="11.392" transform="matrix(1.00005 -6.82238e-05 -6.83232e-05 0.999946 11.3948 434.529)" fill="#C8D5FF"/>
<ellipse rx="11.394" ry="11.392" transform="matrix(1.00005 -6.82238e-05 -6.83232e-05 0.999946 27.6741 407.405)" fill="#C8D5FF"/>
<ellipse rx="11.394" ry="11.392" transform="matrix(1.00005 -6.82238e-05 -6.83232e-05 0.999946 60.2322 419.34)" fill="#C8D5FF"/>
<ellipse rx="11.394" ry="11.392" transform="matrix(1.00005 -6.82239e-05 -6.83231e-05 0.999946 53.7205 445.379)" fill="#C8D5FF"/>
<ellipse rx="11.394" ry="11.392" transform="matrix(1.00005 -6.82238e-05 -6.83232e-05 0.999946 42.8679 471.418)" fill="#C8D5FF"/>
<ellipse rx="11.394" ry="11.392" transform="matrix(1.00005 -6.82239e-05 -6.83231e-05 0.999946 92.7903 462.737)" fill="#C8D5FF"/>
<ellipse rx="11.394" ry="11.392" transform="matrix(1.00005 -6.82238e-05 -6.83232e-05 0.999946 92.7903 423.68)" fill="#C8D5FF"/>
<ellipse rx="11.394" ry="11.392" transform="matrix(1.00005 -6.82238e-05 -6.83232e-05 0.999946 115.581 407.405)" fill="#C8D5FF"/>
<ellipse rx="11.394" ry="11.392" transform="matrix(1.00005 -6.82239e-05 -6.83231e-05 0.999946 119.922 445.379)" fill="#C8D5FF"/>
<ellipse rx="11.394" ry="11.392" transform="matrix(1.00005 -6.82238e-05 -6.83232e-05 0.999946 50.4646 387.875)" fill="#C8D5FF"/>
<path d="M75.4283 381.367L64.5761 384.08M41.2435 396.558L37.9877 399.27M80.3089 422.05L73.7978 420.966M109.608 436.694L103.64 432.355M109.065 452.968L104.181 455.138M80.3065 456.767L65.6567 450.801M85.1902 452.427L68.3712 429.645M78.1355 465.988L57.5164 470.872M33.1001 461.109L19.5361 445.922M47.2101 424.765L40.2541 427.479M40.2541 427.479L24.963 433.445M40.2541 427.479L45.0391 434.529M40.2541 427.479L34.7307 419.341M19.538 417.715L17.3673 422.055M102.557 405.233L62.9476 393.844" stroke="#C8D5FF" stroke-width="2.17054" stroke-linecap="round" stroke-linejoin="round"/>
<ellipse rx="21.7035" ry="21.7013" transform="matrix(0.824099 -0.566446 0.566662 0.82395 475.144 213.694)" fill="#C8D5FF"/>
<ellipse rx="14.2159" ry="14.2145" transform="matrix(0.824099 -0.566446 0.566662 0.82395 503.801 180.34)" fill="#C8D5FF"/>
<path d="M478.012 200.902C476.009 201.285 474.016 201.922 472.095 202.823C472.06 202.839 472.038 202.874 472.04 202.913C472.076 203.42 472.165 204.052 472.255 204.535C470.216 205.545 468.37 206.814 466.735 208.329C466.31 208.064 465.748 207.769 465.287 207.555C465.252 207.539 465.212 207.547 465.183 207.573C463.654 209.043 462.346 210.674 461.271 212.409C461.261 212.424 461.256 212.441 461.257 212.458C461.201 219.08 463.342 224.03 466.725 228.048C466.741 228.067 466.768 228.079 466.794 228.08C469.856 228.11 472.462 227.616 474.827 226.849C474.864 226.837 474.89 226.803 474.893 226.765C474.941 225.839 474.915 224.915 474.807 223.999C474.801 223.945 474.749 223.912 474.696 223.926C473.875 224.139 473.05 224.279 472.222 224.362C472.156 224.369 472.108 224.306 472.13 224.245C472.194 224.067 472.256 223.886 472.311 223.708C472.321 223.675 472.349 223.65 472.382 223.644C477.52 222.652 481.798 219.712 484.517 215.303C484.535 215.273 484.568 215.256 484.602 215.258C484.789 215.27 484.981 215.278 485.171 215.281C485.236 215.282 485.278 215.349 485.249 215.409C484.878 216.158 484.448 216.872 483.954 217.561C483.922 217.606 483.935 217.667 483.983 217.692C484.808 218.114 485.661 218.469 486.534 218.762C486.571 218.774 486.613 218.762 486.638 218.731C488.21 216.791 489.605 214.536 490.673 211.667C490.682 211.641 490.68 211.614 490.668 211.592C487.747 206.267 483.426 202.868 478.062 200.908C478.047 200.899 478.029 200.898 478.012 200.902ZM472.891 219.948C471.701 220.766 470.002 220.395 469.121 219.113C468.239 217.831 468.482 216.126 469.691 215.295C470.909 214.458 472.604 214.844 473.46 216.13C474.342 217.412 474.099 219.117 472.891 219.948ZM480.914 214.433C479.724 215.251 478.026 214.881 477.144 213.598C476.262 212.316 476.505 210.611 477.714 209.78C478.932 208.943 480.627 209.329 481.484 210.615C482.366 211.897 482.132 213.596 480.914 214.433Z" fill="white"/>
<ellipse rx="16.6101" ry="16.6084" transform="matrix(0.824099 -0.566446 0.566662 0.82395 522.121 236.788)" fill="white"/>
<path d="M527.065 230.149C527.065 230.149 528.783 229.481 528.64 231.103C528.592 231.771 528.163 234.109 527.829 236.637L526.684 244.128C526.684 244.128 526.588 245.225 525.729 245.416C524.87 245.607 523.582 244.748 523.343 244.557C523.152 244.414 519.764 242.267 518.571 241.217C518.237 240.931 517.855 240.359 518.619 239.691L523.629 234.92C524.202 234.347 524.775 233.011 522.389 234.634L515.707 239.166C515.707 239.166 514.944 239.643 513.512 239.214L510.41 238.259C510.41 238.259 509.265 237.544 511.222 236.828C515.994 234.586 521.864 232.296 527.065 230.149Z" fill="#C8D5FF"/>
<path fill-rule="evenodd" clip-rule="evenodd" d="M501.25 171.425C500.29 171.426 499.514 172.203 499.514 173.16C499.514 174.118 500.291 174.895 501.251 174.896H502.988V173.161C502.988 172.203 502.211 171.426 501.25 171.425C501.251 171.425 501.251 171.425 501.25 171.425M501.25 176.054H496.621C495.661 176.055 494.883 176.832 494.884 177.79C494.882 178.747 495.66 179.524 496.62 179.526H501.25C502.21 179.525 502.988 178.748 502.987 177.79C502.988 176.832 502.21 176.055 501.25 176.054Z" fill="white"/>
<path fill-rule="evenodd" clip-rule="evenodd" d="M512.25 177.79C512.25 176.832 511.473 176.055 510.513 176.054C509.553 176.055 508.776 176.832 508.776 177.79V179.526H510.513C511.473 179.525 512.25 178.748 512.25 177.79ZM507.619 177.79V173.16C507.62 172.203 506.843 171.426 505.883 171.425C504.923 171.426 504.146 172.203 504.146 173.16V177.79C504.145 178.747 504.923 179.524 505.882 179.526C506.842 179.525 507.62 178.748 507.619 177.79Z" fill="white"/>
<path fill-rule="evenodd" clip-rule="evenodd" d="M505.881 188.784C506.841 188.783 507.619 188.006 507.618 187.048C507.619 186.091 506.841 185.313 505.881 185.313H504.145V187.048C504.144 188.005 504.921 188.783 505.881 188.784ZM505.881 184.154H510.512C511.472 184.153 512.249 183.376 512.249 182.418C512.25 181.461 511.472 180.684 510.513 180.682H505.882C504.922 180.683 504.145 181.46 504.145 182.418C504.145 183.376 504.921 184.153 505.881 184.154Z" fill="white"/>
<path fill-rule="evenodd" clip-rule="evenodd" d="M494.884 182.418C494.883 183.376 495.661 184.153 496.621 184.154C497.58 184.153 498.358 183.376 498.357 182.418V180.683H496.621C495.661 180.683 494.883 181.461 494.884 182.418ZM499.514 182.418V187.047C499.513 188.005 500.29 188.782 501.25 188.784C502.21 188.783 502.988 188.006 502.987 187.048V182.42C502.988 181.462 502.211 180.685 501.251 180.683C500.29 180.683 499.514 181.461 499.514 182.418C499.514 182.418 499.514 182.419 499.514 182.418Z" fill="white"/>
</svg>
