<svg width="24" height="24" viewBox="0 0 24 24" fill="none" xmlns="http://www.w3.org/2000/svg">
  <path d="M3 10H21C21.5304 10 22.0391 10.2107 22.4142 10.5858C22.7893 10.9609 23 11.4696 23 12V20C23 20.5304 22.7893 21.0391 22.4142 21.4142C22.0391 21.7893 21.5304 22 21 22H3C2.46957 22 1.96086 21.7893 1.58579 21.4142C1.21071 21.0391 1 20.5304 1 20V12C1 11.4696 1.21071 10.9609 1.58579 10.5858C1.96086 10.2107 2.46957 10 3 10Z" class="stroke opacity" fill-opacity="0.2" stroke="#282828" stroke-linecap="round" stroke-linejoin="round"/>
  <path d="M10 13L15 16L10 19V13Z" fill="white" stroke="#282828" stroke-linecap="round" stroke-linejoin="round" class="stroke"/>
  <path d="M12 6H4" stroke="#282828" stroke-linecap="round" stroke-linejoin="round" class="stroke"/>
  <path d="M20 2H4" stroke="#282828" stroke-linecap="round" stroke-linejoin="round" class="stroke"/>
</svg>
