<svg xmlns="http://www.w3.org/2000/svg" width="21.47" height="17.46" viewBox="0 0 21.47 17.46">
  <metadata><?xpacket begin="﻿" id="W5M0MpCehiHzreSzNTczkc9d"?>
<x:xmpmeta xmlns:x="adobe:ns:meta/" x:xmptk="Adobe XMP Core 5.6-c140 79.160451, 2017/05/06-01:08:21        ">
   <rdf:RDF xmlns:rdf="http://www.w3.org/1999/02/22-rdf-syntax-ns#">
      <rdf:Description rdf:about=""/>
   </rdf:RDF>
</x:xmpmeta>
                                                                                                    
                                                                                                    
                                                                                                    
                                                                                                    
                                                                                                    
                                                                                                    
                                                                                                    
                                                                                                    
                                                                                                    
                                                                                                    
                                                                                                    
                                                                                                    
                                                                                                    
                                                                                                    
                                                                                                    
                                                                                                    
                                                                                                    
                                                                                                    
                                                                                                    
                                                                                                    
                           
<?xpacket end="w"?></metadata>
<defs>
    <style>
      .cls-1 {
        fill: #282828;
        fill-rule: evenodd;
        opacity: 0.5;
      }
    </style>
  </defs>
  <path class="cls-1" d="M2174.75,6422.43a8.67,8.67,0,0,1-2.52.71,4.344,4.344,0,0,0,1.92-2.44,9,9,0,0,1-2.79,1.08,4.31,4.31,0,0,0-3.24-1.4,4.4,4.4,0,0,0-4.38,4.4,4.736,4.736,0,0,0,.11,1.01,12.52,12.52,0,0,1-9.07-4.6,4.38,4.38,0,0,0-.6,2.21,4.326,4.326,0,0,0,1.96,3.65,4.332,4.332,0,0,1-2-.51v0.03a4.41,4.41,0,0,0,3.53,4.32,4.424,4.424,0,0,1-1.98.07,4.387,4.387,0,0,0,4.11,3.06,8.759,8.759,0,0,1-5.47,1.89,9.24,9.24,0,0,1-1.05-.06,12.522,12.522,0,0,0,19.28-10.55c0-.2,0-0.38-0.01-0.58A8.57,8.57,0,0,0,2174.75,6422.43Z" transform="translate(-2153.28 -6420.38)"/>
</svg>
