<svg xmlns="http://www.w3.org/2000/svg" width="22" height="18">
    <path fill="#282828" fill-rule="evenodd" d="M21.75 2.434a8.799 8.799 0 0 1-2.525.708 4.415 4.415 0 0 0 1.93-2.443 8.84 8.84 0 0 1-2.792 1.077C17.552.894 16.413.381 15.12.381c-2.412 0-4.383 1.971-4.383 4.403 0 .348.041.687.113 1.006a12.518 12.518 0 0 1-9.073-4.598 4.36 4.36 0 0 0-.595 2.206c0 1.53.77 2.885 1.96 3.654a4.353 4.353 0 0 1-2.001-.513v.031a4.407 4.407 0 0 0 3.531 4.321 4.364 4.364 0 0 1-1.981.072 4.392 4.392 0 0 0 4.105 3.058 8.748 8.748 0 0 1-5.47 1.889c-.349 0-.698-.021-1.047-.062a12.472 12.472 0 0 0 6.753 1.981c8.088 0 12.532-6.713 12.532-12.532 0-.195 0-.38-.01-.574a8.828 8.828 0 0 0 2.196-2.289z" opacity=".502"/>
</svg>
