<svg xmlns="http://www.w3.org/2000/svg" xmlns:xlink="http://www.w3.org/1999/xlink" width="30" height="24" viewBox="0 0 30 24">
    <defs>
        <path id="a" d="M0 0h29.544v24.007H0z"/>
    </defs>
    <g fill="none" fill-rule="evenodd">
        <mask id="b" fill="#fff">
            <use xlink:href="#a"/>
        </mask>
        <path fill="#05ADEE" d="M29.544 2.824c-1.087.494-2.26.82-3.474.974a6.07 6.07 0 0 0 2.655-3.36 12.188 12.188 0 0 1-3.842 1.482C23.767.706 22.2 0 20.421 0c-3.319 0-6.03 2.712-6.03 6.058 0 .48.057.946.155 1.384A17.22 17.22 0 0 1 2.06 1.115a5.999 5.999 0 0 0-.818 3.037c0 2.104 1.059 3.969 2.697 5.027-1.002 0-1.934-.282-2.753-.705v.041a6.062 6.062 0 0 0 4.857 5.946 5.996 5.996 0 0 1-1.596.212c-.38 0-.762-.042-1.129-.113.763 2.387 2.98 4.165 5.649 4.208-2.062 1.638-4.675 2.6-7.528 2.6-.48 0-.96-.03-1.44-.086a17.16 17.16 0 0 0 9.292 2.725c11.129 0 17.244-9.236 17.244-17.243 0-.268 0-.523-.014-.79a12.122 12.122 0 0 0 3.022-3.15" mask="url(#b)"/>
    </g>
</svg>
