<svg width="316" height="264" viewBox="0 0 316 264" fill="none" xmlns="http://www.w3.org/2000/svg">
<g clip-path="url(#clip0_2315_50097)">
<path d="M1.32344 0.131727C0.529377 0.131727 -1.16452e-05 1.10051 -1.16915e-05 1.74635C0.264667 8.52782 0.794024 14.9864 1.58809 21.122C1.58809 22.0908 2.38222 22.7366 3.17629 22.4137C3.97035 22.4137 4.49968 21.4449 4.235 20.4761C3.70565 14.3405 3.17629 7.88197 2.64693 1.42345C2.64693 0.777571 2.11751 0.131728 1.32344 0.131727ZM5.29384 38.56C4.49977 38.883 4.235 39.5288 4.235 40.4976C5.29375 46.9561 6.61717 53.4147 8.20528 59.5503C8.46999 60.5191 9.26411 60.842 9.79347 60.5191C10.5875 60.1962 10.8523 59.2274 10.5876 58.5815C9.26414 52.7688 7.94057 46.3103 6.88182 39.8518C6.88182 39.2059 6.08785 38.56 5.55846 38.56C5.55846 38.2371 5.29384 38.2371 5.29384 38.56ZM14.0285 75.6967C13.2344 76.0196 12.9697 76.9884 13.2344 77.9572C15.3519 84.0928 17.7341 89.9054 20.1163 95.7181C20.3809 96.364 21.1751 96.687 21.9692 96.364C22.4985 96.0411 22.7632 95.0723 22.4985 94.1035C20.1163 88.6137 17.7341 82.8011 15.6166 76.6654C15.3519 76.0196 14.8226 75.6967 14.2932 75.6967C14.5579 75.3737 14.2932 75.3737 14.0285 75.6967ZM137.903 95.0723C137.903 96.0411 138.432 96.687 139.226 96.687C144.255 96.687 149.549 97.9787 154.313 99.9162C155.107 100.239 155.637 99.9162 155.902 98.9474C156.166 97.9787 155.901 97.3328 155.107 97.0099C149.814 94.7494 144.52 93.7806 139.226 93.4577C138.432 93.4577 137.903 94.1035 137.903 95.0723ZM123.08 96.687C121.757 97.3328 120.698 97.6557 119.374 98.6245C115.669 100.562 112.228 103.468 109.052 107.021C108.522 107.666 108.522 108.635 109.052 109.281C109.581 109.927 110.375 109.927 110.904 109.281C113.816 106.052 117.257 103.468 120.698 101.531C121.757 100.885 122.815 100.239 124.139 99.9162C124.933 99.5933 125.198 98.6245 124.933 97.9787C124.668 97.3328 124.139 97.0099 123.609 97.0099C123.345 96.364 123.345 96.687 123.08 96.687ZM167.283 107.344C166.754 107.989 166.754 108.958 167.283 109.604C170.989 114.125 174.165 119.292 176.018 124.782C176.282 125.75 177.077 126.073 177.871 125.75C178.665 125.427 178.929 124.459 178.665 123.49C176.547 117.677 173.371 111.865 169.136 107.344C168.871 107.021 168.606 107.021 168.342 107.021C167.812 107.021 167.548 107.021 167.283 107.344ZM29.1157 109.604C28.5864 110.25 28.3216 111.219 28.851 111.865C31.4979 116.385 34.1448 120.584 37.3211 124.459C37.8504 125.427 38.6445 126.073 39.1739 127.042C39.7033 127.688 40.4973 127.688 41.0267 127.042C41.5561 126.396 41.5561 125.427 41.0267 124.782C40.4973 124.136 39.7033 123.167 39.1739 122.521C36.2623 118.646 33.6155 114.448 30.9686 110.25C30.7039 109.927 30.1744 109.604 29.9097 109.604C29.6451 109.281 29.3804 109.281 29.1157 109.604ZM98.9935 122.198C96.3466 128.011 94.4937 134.146 93.1703 140.605C92.9056 141.574 93.4349 142.22 94.229 142.543C95.023 142.866 95.5525 142.22 95.8172 141.251C96.8759 135.115 98.7287 128.98 101.111 123.49C101.376 122.844 101.111 121.875 100.582 121.229C100.317 121.229 100.052 120.906 100.052 120.906C99.7875 121.552 99.2582 121.552 98.9935 122.198ZM50.8202 137.699C50.2908 138.345 50.5554 139.313 51.0848 139.959C55.3198 143.834 59.5548 147.709 64.3192 150.939C64.8486 151.262 65.6428 151.262 66.1722 150.293C66.4369 149.647 66.4368 148.678 65.6427 148.032C61.143 144.803 56.908 141.251 52.673 137.053C52.4083 136.73 52.1436 136.73 51.8789 136.73C51.3496 137.053 51.0849 137.376 50.8202 137.699ZM178.4 142.866C177.871 147.709 176.018 151.585 173.371 155.137C172.577 156.106 171.783 157.074 170.724 157.72C170.195 158.366 169.93 159.335 170.459 159.981C170.989 160.627 171.783 160.949 172.312 160.304C173.371 159.335 174.43 158.366 175.224 157.397C178.4 153.522 180.253 149.001 181.047 143.511C181.047 142.543 180.782 141.897 179.988 141.574L179.723 141.574C178.929 141.574 178.4 142.22 178.4 142.866ZM77.8184 158.043C77.5537 159.012 77.8183 159.658 78.6124 160.304C83.1121 162.887 88.1412 164.825 92.9056 166.439C93.435 170.96 94.4937 175.481 95.5524 180.002C95.8171 180.971 96.6113 181.294 97.1406 180.971C97.9347 180.648 98.1994 179.679 97.9347 179.033C96.6113 174.512 95.8172 169.991 95.2878 165.47C95.2878 165.147 95.2878 165.147 95.2878 164.825C95.0231 163.533 95.0232 161.918 95.0232 160.627C95.0232 159.658 94.2291 159.012 93.6997 159.012C92.9057 159.012 92.3763 159.981 92.3763 160.627C92.3763 161.272 92.3763 162.241 92.641 162.887C88.406 161.272 83.9062 159.335 79.9358 157.074C79.6712 157.074 79.6713 157.074 79.4066 157.074C78.6125 157.074 78.0831 157.397 77.8184 158.043ZM156.431 164.825C151.402 166.439 146.108 167.731 141.079 168.377C140.285 168.377 139.755 169.346 140.02 170.314C140.02 171.283 140.814 171.929 141.608 171.606C146.902 170.96 152.196 169.668 157.49 168.054C158.284 167.731 158.548 167.085 158.548 166.116C158.284 165.47 157.754 164.825 157.225 164.825C156.696 164.825 156.695 164.825 156.431 164.825ZM108.258 169.023C108.258 169.991 108.522 170.637 109.316 170.96C114.61 171.929 119.904 172.575 125.198 172.575C125.992 172.575 126.521 171.929 126.521 170.96C126.521 169.991 125.992 169.346 125.198 169.346C119.904 169.346 114.875 168.7 109.581 167.731L109.316 167.731C108.787 167.731 108.258 168.054 108.258 169.023ZM102.964 195.503C102.434 195.826 102.17 196.794 102.434 197.763C105.081 203.253 108.258 208.743 111.963 213.587C112.493 214.232 113.287 214.232 113.816 213.587C114.345 212.941 114.345 211.972 113.816 211.326C110.375 206.482 107.199 201.315 104.552 195.826C104.287 195.18 103.758 195.18 103.493 195.18C103.228 195.18 102.964 195.18 102.964 195.503ZM444.412 199.055C439.383 199.378 433.824 200.347 428.531 200.992C427.737 200.992 427.207 201.961 427.472 202.93C427.472 203.899 428.266 204.545 429.06 204.222C434.354 203.253 439.648 202.607 444.677 202.284C445.471 202.284 446 201.315 446 200.67C446 199.701 445.206 199.055 444.412 199.055C444.677 199.055 444.677 199.055 444.412 199.055ZM412.914 204.222C407.885 205.513 402.591 206.805 397.297 208.42C396.503 208.743 396.239 209.389 396.239 210.357C396.503 211.326 397.033 211.649 397.827 211.649C403.12 210.034 408.149 208.743 413.179 207.451C413.973 207.128 414.237 206.482 414.237 205.513C414.237 204.868 413.708 204.222 412.914 204.222ZM381.945 213.264L380.093 213.91C375.593 215.524 371.093 217.139 366.593 218.753C365.799 219.076 365.535 220.045 365.799 220.691C366.064 221.66 366.858 221.983 367.388 221.66C371.887 220.045 376.387 218.43 380.887 216.816L382.739 216.17C383.533 215.847 383.798 215.201 383.534 214.232C383.269 213.587 382.739 212.941 382.21 212.941C382.21 213.264 381.945 213.264 381.945 213.264ZM123.345 224.889C122.815 225.535 123.08 226.504 123.609 227.15C127.58 231.348 132.079 235.223 136.579 238.452C137.109 238.775 137.903 238.775 138.432 237.806C138.697 237.16 138.697 236.191 137.903 235.546C133.403 232.316 129.168 228.441 125.198 224.243C124.933 223.92 124.668 223.92 124.404 223.92C123.874 224.243 123.609 224.566 123.345 224.889ZM351.506 224.566C347.007 226.504 342.242 228.118 337.742 230.056L336.419 230.702C335.625 231.025 335.36 231.993 335.625 232.639C335.89 233.608 336.684 233.931 337.213 233.608L338.536 232.962C343.036 231.025 347.801 229.41 352.3 227.472C353.094 227.15 353.359 226.181 353.094 225.535C352.83 224.889 352.3 224.566 351.771 224.566L351.506 224.566ZM321.332 236.514C316.303 238.452 311.274 240.39 306.244 242.327C305.45 242.65 305.186 243.619 305.45 244.265C305.715 245.233 306.509 245.556 307.039 245.233C312.068 243.296 317.097 241.358 322.126 239.421C322.92 239.098 323.185 238.129 322.92 237.483C322.655 236.837 322.126 236.514 321.596 236.514C321.596 236.191 321.332 236.191 321.332 236.514ZM150.078 245.556C149.814 246.525 150.078 247.171 150.608 247.817C155.372 250.4 160.401 252.661 165.695 254.921C166.489 255.244 167.018 254.598 167.283 253.952C167.548 252.984 167.018 252.338 166.489 252.015C161.46 250.077 156.431 247.817 151.931 245.233C151.666 245.233 151.666 245.233 151.402 245.233C150.608 244.588 150.078 244.91 150.078 245.556ZM290.893 247.494C285.599 249.431 280.57 250.723 275.541 252.338C274.747 252.661 274.482 253.307 274.482 254.275C274.747 255.244 275.276 255.567 276.07 255.567C281.099 254.275 286.128 252.661 291.422 250.723C292.216 250.4 292.481 249.754 292.481 248.786C292.216 248.14 291.687 247.494 291.157 247.494C291.157 247.171 290.893 247.494 290.893 247.494ZM259.924 255.89C255.689 256.859 251.719 257.505 247.748 258.151C246.69 258.473 245.631 258.473 244.307 258.796C243.513 258.796 242.984 259.765 243.249 260.734C243.249 261.703 244.043 262.349 244.837 262.026C245.896 261.703 246.954 261.703 248.278 261.38C252.248 260.734 256.483 259.765 260.718 258.796C261.512 258.796 262.042 257.828 261.777 256.859C261.512 256.536 260.983 255.89 259.924 255.89C260.189 255.89 260.189 255.89 259.924 255.89ZM179.988 257.828C179.723 258.796 180.253 259.442 181.047 259.765C186.076 261.057 191.37 262.026 196.928 262.671C197.722 262.671 198.252 262.026 198.516 261.38C198.516 260.411 197.987 259.765 197.457 259.442C192.164 258.796 186.87 257.828 181.841 256.536L181.576 256.536C180.782 256.536 180.253 256.859 179.988 257.828ZM228.691 260.734C223.397 261.057 218.103 261.057 212.809 261.057C212.28 261.057 211.486 261.703 211.486 262.671C211.486 263.64 212.015 264.286 212.809 264.286C218.103 264.609 223.397 264.286 228.691 263.963C229.485 263.963 230.014 263.317 230.014 262.349C230.014 261.38 229.485 260.734 228.691 260.734Z" fill="#DDE3FE"/>
</g>
<defs>
<clipPath id="clip0_2315_50097">
<rect width="316" height="264" fill="white"/>
</clipPath>
</defs>
</svg>
