<svg width="303" height="576" viewBox="0 0 303 576" fill="none" xmlns="http://www.w3.org/2000/svg">
<path fill-rule="evenodd" clip-rule="evenodd" d="M242.398 310.503C187.563 274.924 101.174 273.974 42.923 299.905C10.9956 314.091 5.70032 395.87 14.7776 420.985C33.0962 471.636 81.4442 533.05 136.531 545.065C282.62 577.006 362.886 388.711 242.398 310.503Z" fill="#FCEDA8"/>
<path fill-rule="evenodd" clip-rule="evenodd" d="M254.509 2.90843C249.615 6.55846 246.759 14.0678 247.174 19.9794C247.399 23.2187 254.433 26.2912 256.937 26.3006C261.987 26.3186 268.949 24.0593 271.775 19.6351C279.278 7.90465 265.266 -5.11089 254.509 2.90843Z" fill="#F76F60"/>
<path d="M249.935 179.465L238.745 110.505C238.457 108.733 240.279 107.369 241.899 108.143L293.142 132.624C294.484 133.265 294.832 135.015 293.838 136.119L253.785 180.599C252.535 181.986 250.234 181.309 249.935 179.465Z" stroke="#354A89" stroke-width="3.33684"/>
</svg>
