<svg width="305" height="219" viewBox="0 0 305 219" fill="none" xmlns="http://www.w3.org/2000/svg">
<g clip-path="url(#clip0_2315_50092)">
<path d="M302.413 0.312652C299.237 5.46933 295.796 10.3037 292.356 15.4604C291.826 16.105 292.091 17.0719 292.62 17.7164C293.15 18.361 293.944 18.0387 294.473 17.3941C297.913 12.5597 301.089 7.40308 304.53 2.2464C305.059 1.60184 304.795 0.634979 304.265 -0.0096131C304.001 -0.331909 303.736 -0.33194 303.471 -0.33194C302.942 -0.33194 302.677 -0.00964378 302.413 0.312652ZM282.034 29.9635C278.593 34.7979 274.888 39.6323 271.448 44.1444C270.918 44.7889 270.918 45.7558 271.448 46.4004C271.977 47.0449 272.771 47.0449 273.3 46.4004C276.741 41.8883 280.446 37.0539 283.887 31.8972C284.416 31.2527 284.416 30.2858 283.887 29.6412C283.622 29.3189 283.357 29.3189 283.093 29.3189C282.828 29.6412 282.299 29.6413 282.034 29.9635ZM260.597 58.3253C256.891 62.8373 252.922 67.3494 249.216 71.5392C248.687 72.1838 248.687 73.1506 249.216 73.7952C249.746 74.4398 250.54 74.4398 251.069 73.7952C255.039 69.6054 258.744 65.0933 262.714 60.259C263.243 59.6144 263.243 58.6475 262.714 58.0029C262.449 57.6806 262.185 57.6806 261.655 57.6806C261.126 57.6806 260.861 58.003 260.597 58.3253ZM-102.249 70.8945C-102.249 71.8614 -101.72 72.506 -100.926 72.506C-95.6326 72.8283 -90.3395 73.1506 -85.311 74.1175C-84.517 74.1175 -83.9877 73.473 -83.723 72.8284C-83.723 71.8615 -84.2523 71.2168 -84.7817 70.8946C-90.0748 69.9277 -95.368 69.6054 -100.661 69.2831C-101.455 69.2831 -102.249 70.25 -102.249 70.8945ZM-116.805 69.6054C-122.098 69.9277 -127.392 70.5723 -132.685 71.2169C-133.479 71.2169 -134.008 72.1837 -133.743 73.1506C-133.743 74.1175 -132.949 74.7621 -132.155 74.4398C-126.862 73.4729 -121.569 73.1507 -116.541 72.8284C-115.747 72.8284 -115.217 72.1838 -115.217 71.2169C-115.482 70.25 -116.011 69.6054 -116.805 69.6054ZM-148.564 74.4398C-153.857 75.729 -158.886 77.3404 -164.179 79.2742C-164.973 79.5965 -165.238 80.5633 -164.973 81.2079C-164.708 82.1748 -163.914 82.4971 -163.385 82.1748C-158.356 80.241 -153.328 78.9519 -148.035 77.6627C-147.241 77.3404 -146.976 76.6958 -146.976 75.729C-146.976 75.0844 -147.77 74.4398 -148.299 74.4398C-148.299 74.4398 -148.3 74.4398 -148.564 74.4398ZM-70.7548 75.729C-71.0194 76.6958 -70.4901 77.3404 -69.6961 77.6627C-64.6676 78.9519 -59.3745 80.8856 -54.6107 82.8194C-53.8167 83.1417 -53.2874 82.4971 -53.0227 81.8525C-52.7581 80.8856 -53.2874 80.241 -53.8167 79.9187C-58.8452 77.985 -64.1383 76.3735 -69.1668 74.762L-69.4315 74.762C-69.9608 74.4397 -70.4901 74.7621 -70.7548 75.729ZM237.307 84.1086C233.602 87.6538 229.896 91.5213 226.191 94.7442L224.868 96.0333C224.339 96.6779 224.074 97.6449 224.603 98.2895C225.133 98.934 225.927 99.2563 226.456 98.6117L227.779 97.3225C231.484 93.7773 235.19 90.2321 238.895 86.6869C239.424 86.0423 239.424 85.0754 239.159 84.4309C238.895 84.1086 238.63 83.7863 238.101 83.7863C237.836 83.7863 237.307 84.1086 237.307 84.1086ZM-179 85.3977C-184.028 87.6537 -189.057 90.2321 -193.821 93.1327C-194.35 93.455 -194.879 94.4219 -194.35 95.3888C-194.085 96.3557 -193.291 96.6779 -192.497 96.0333C-187.734 93.455 -182.97 90.8767 -177.941 88.6206C-177.147 88.2983 -176.883 87.3314 -177.147 86.6868C-177.412 86.0422 -177.941 85.72 -178.47 85.72C-178.735 85.0754 -179 85.0754 -179 85.3977ZM-40.3191 87.3315C-40.5838 88.2984 -40.3191 88.9429 -39.5252 89.5875C-35.026 91.8436 -30.2622 94.4219 -25.2337 97.6448C-24.7043 97.9671 -23.9104 97.6448 -23.3811 97.0002C-23.1164 96.3556 -23.3811 95.3887 -23.9104 94.7442C-29.2035 91.5212 -33.9674 88.9429 -38.4665 86.6869C-38.7312 86.6869 -38.7312 86.6869 -38.9958 86.6869C-39.7898 86.0423 -40.3191 86.6869 -40.3191 87.3315ZM-208.112 101.835C-210.494 103.446 -212.876 105.057 -214.993 106.991C-217.111 108.603 -219.492 110.536 -221.61 112.148C-222.139 112.792 -222.404 113.759 -221.874 114.404C-221.345 115.049 -220.551 115.371 -220.022 114.726C-217.905 112.793 -215.787 111.181 -213.405 109.57C-211.288 107.958 -208.906 106.347 -206.524 104.735C-205.995 104.413 -205.73 103.446 -205.995 102.479C-206.26 101.835 -206.789 101.512 -207.053 101.512C-207.583 101.512 -207.848 101.835 -208.112 101.835ZM-11.7361 103.768C-12.0007 104.413 -11.7361 105.38 -11.2068 106.024C-7.23692 108.603 -3.53175 111.181 0.43813 113.437L2.82006 115.049C3.34938 115.371 4.14336 115.049 4.67269 114.404C4.93734 113.759 4.67269 112.793 4.14336 112.148L1.76143 110.537C-2.20845 107.958 -5.91362 105.38 -9.88349 103.124C-10.1481 103.124 -10.4128 102.801 -10.4128 102.801C-10.9421 102.801 -11.4714 103.124 -11.7361 103.768ZM211.9 106.991C207.4 110.536 202.901 113.759 198.402 116.982C197.873 117.305 197.608 118.272 197.873 119.238C198.137 119.883 198.931 120.205 199.725 119.883C204.225 116.66 208.988 113.437 213.488 109.892C214.017 109.57 214.282 108.28 213.752 107.636C213.488 107.314 212.958 106.991 212.694 106.991C212.164 106.991 211.9 106.991 211.9 106.991ZM16.3176 121.817C16.0529 122.461 16.3176 123.428 16.8469 124.073C22.1401 127.296 26.6393 130.196 31.1384 132.775C31.9324 133.097 32.4617 132.775 32.991 132.13C33.2557 131.163 32.991 130.519 32.4617 129.874C28.2272 127.296 23.4634 124.717 18.1702 121.494C17.9056 121.494 17.6409 121.172 17.6409 121.172C17.1116 121.172 16.5822 121.494 16.3176 121.817ZM-234.313 123.75C-238.548 127.618 -242.518 132.13 -246.488 136.32C-247.017 136.964 -247.017 137.931 -246.488 138.576C-245.958 139.22 -245.164 139.22 -244.635 138.576C-240.665 134.386 -236.695 130.196 -232.725 126.006C-232.196 125.362 -231.931 124.395 -232.461 123.75C-232.725 123.428 -232.99 123.106 -233.519 123.106C-233.784 123.428 -234.313 123.428 -234.313 123.75ZM184.375 126.007C179.611 128.907 174.848 131.485 169.819 133.742C169.025 134.064 168.76 135.031 169.025 135.675C169.29 136.642 170.084 136.964 170.613 136.642C175.377 134.386 180.405 131.808 185.169 128.907C185.699 128.585 186.228 127.618 185.699 126.651C185.434 126.007 184.905 125.684 184.375 125.684C184.64 125.684 184.375 125.684 184.375 126.007ZM45.1653 138.254C44.9007 139.22 45.1653 139.865 45.9593 140.187C50.9878 142.766 56.2809 144.699 61.0448 146.311C61.8387 146.633 62.368 145.989 62.6327 145.344C62.8973 144.377 62.368 143.733 61.8387 143.41C57.0749 141.799 52.0464 139.543 47.0179 137.287C46.7533 137.287 46.7532 137.287 46.4886 137.287C45.6946 137.287 45.1653 137.609 45.1653 138.254ZM154.998 139.865C149.97 141.799 144.677 143.41 139.648 144.699C138.854 145.022 138.589 145.666 138.589 146.633C138.854 147.6 139.383 147.922 140.177 147.922C145.206 146.633 150.499 144.699 155.528 142.766C156.322 142.443 156.586 141.477 156.322 140.832C156.057 140.187 155.528 139.543 154.998 139.543C155.263 139.865 154.998 139.865 154.998 139.865ZM75.6009 148.889C75.6009 149.856 75.8656 150.501 76.6596 150.823C81.9527 151.79 87.2459 152.757 92.539 153.079C93.333 153.079 93.8623 152.434 93.8623 151.468C93.8623 150.501 93.333 149.856 92.539 149.856C87.2459 149.534 81.9527 148.889 76.9242 147.6L76.6596 147.6C76.1303 147.6 75.6009 148.245 75.6009 148.889ZM124.033 148.245C118.74 149.212 113.447 149.534 108.418 149.856C107.625 149.856 107.095 150.501 107.095 151.468C107.095 152.434 107.625 153.079 108.418 153.079C113.712 152.757 119.005 152.112 124.298 151.468C125.092 151.468 125.621 150.501 125.357 149.534C125.621 148.889 125.092 148.245 124.033 148.245C124.298 148.245 124.298 148.245 124.033 148.245ZM-257.868 149.856C-261.573 154.368 -265.014 159.525 -268.454 164.359C-268.983 165.004 -268.719 165.971 -268.189 166.615C-267.66 167.26 -266.866 166.938 -266.337 166.293C-262.896 161.459 -259.456 156.624 -255.751 151.79C-255.221 151.145 -255.221 150.178 -255.751 149.534C-256.015 149.212 -256.28 149.212 -256.544 149.212C-257.338 149.534 -257.603 149.534 -257.868 149.856ZM-278.511 179.829C-281.687 184.986 -284.598 190.465 -287.51 195.944C-287.774 196.588 -287.774 197.555 -286.98 198.2C-286.451 198.522 -285.657 198.522 -285.128 197.555C-282.216 192.076 -279.305 186.92 -276.129 181.763C-275.6 181.118 -275.865 180.152 -276.394 179.507C-276.658 179.185 -276.923 179.185 -277.188 179.185C-277.717 179.185 -278.246 179.185 -278.511 179.829ZM-295.449 212.381C-298.096 218.182 -300.478 223.983 -302.86 229.785C-303.124 230.429 -302.86 231.396 -302.33 232.041C-301.536 232.363 -301.007 232.041 -300.478 231.396C-298.096 225.595 -295.714 219.793 -293.332 214.314C-293.067 213.67 -293.332 212.703 -293.861 212.058C-294.126 212.058 -294.391 211.736 -294.391 211.736C-294.92 211.736 -295.449 212.058 -295.449 212.381ZM-309.476 247.511C-311.593 253.634 -313.446 259.758 -315.034 265.559C-315.299 266.526 -314.769 267.17 -314.24 267.493C-313.446 267.815 -312.917 267.17 -312.652 266.526C-311.064 260.402 -309.211 254.279 -307.094 248.477C-306.829 247.511 -307.094 246.866 -307.888 246.221C-308.153 246.221 -308.153 246.221 -308.417 246.221C-308.682 246.544 -309.211 246.866 -309.476 247.511ZM-319.533 284.252C-320.856 290.698 -322.18 296.821 -323.238 303.267C-323.503 304.234 -322.974 304.879 -322.18 305.201C-321.386 305.523 -320.856 304.879 -320.592 303.912C-319.533 297.788 -318.21 291.342 -316.886 285.219C-316.622 284.252 -317.151 283.607 -317.945 283.285L-318.21 283.285C-319.004 282.963 -319.533 283.607 -319.533 284.252ZM-325.885 322.282C-326.679 328.728 -327.208 335.174 -327.473 341.62C-327.473 342.587 -326.943 343.231 -326.149 343.231C-325.356 343.231 -324.826 342.587 -324.826 341.62C-324.562 335.496 -324.032 329.05 -323.238 322.605C-323.238 321.638 -323.768 320.993 -324.297 320.671C-324.297 320.671 -324.297 320.671 -324.562 320.671C-325.356 320.993 -325.885 321.638 -325.885 322.282ZM-337 345.81C-337 346.777 -336.471 347.421 -335.677 347.421L-335.413 347.421C-330.119 347.421 -325.091 347.743 -320.062 348.066C-319.268 348.066 -318.739 347.421 -318.739 346.454C-318.739 345.487 -319.268 344.843 -320.062 344.843C-325.091 344.198 -330.384 344.198 -335.677 344.198L-335.942 344.198C-336.471 344.198 -337 345.165 -337 345.81ZM-305.506 349.033C-305.506 349.999 -305.242 350.644 -304.448 350.966C-299.154 352.255 -294.126 353.545 -289.097 355.478C-288.303 355.801 -287.774 355.156 -287.51 354.512C-287.245 353.545 -287.774 352.9 -288.303 352.578C-293.332 350.644 -298.625 349.355 -303.918 348.066L-304.183 348.066C-304.712 347.743 -305.242 348.066 -305.506 349.033ZM-275.071 359.346C-275.335 360.313 -275.071 360.957 -274.277 361.602C-269.513 364.18 -264.749 367.081 -260.25 369.982C-259.72 370.304 -258.926 370.304 -258.397 369.337C-258.133 368.692 -258.133 367.726 -258.926 367.081C-263.69 363.858 -268.454 360.957 -273.218 358.379C-273.483 358.379 -273.483 358.379 -273.747 358.379C-274.277 358.379 -274.806 359.024 -275.071 359.346ZM-326.414 359.668C-327.208 359.668 -327.737 360.313 -327.737 361.28C-327.473 367.725 -327.208 374.494 -326.679 380.617C-326.679 381.584 -325.885 382.229 -325.091 381.906C-324.297 381.906 -323.768 380.939 -324.032 379.973C-324.562 373.849 -325.091 367.403 -325.091 360.957C-325.091 360.313 -325.62 359.668 -326.414 359.668Z" fill="#DDE3FE"/>
<path d="M265.818 123C208.818 129.5 186.911 176.606 214.818 208.5C232.318 228.5 223.818 135 152.818 192.5" stroke="#DDE3FE" stroke-width="3" stroke-linecap="round"/>
</g>
<defs>
<clipPath id="clip0_2315_50092">
<rect width="305" height="219" fill="white"/>
</clipPath>
</defs>
</svg>
