<svg width="154" height="590" viewBox="0 0 154 590" fill="none" xmlns="http://www.w3.org/2000/svg">
<g clip-path="url(#clip0_2315_50090)">
<g clip-path="url(#clip1_2315_50090)">
<path fill-rule="evenodd" clip-rule="evenodd" d="M64.3018 92.9671C64.3018 92.9671 65.5296 106.822 57.4099 122.737C46.5417 144.041 37.8576 142.81 31.0281 151.745C24.3071 160.54 24.856 165.98 24.856 165.98C24.856 165.98 21.7571 162.322 22.3362 156.138C22.3362 156.138 18.8605 155.98 15.9297 161.794C15.9297 161.794 12.7151 153.818 17.9223 143.664C17.9223 143.664 14.223 147.414 9.58531 146.405C9.58531 146.405 12.7011 142.65 13.8421 139.374C14.983 136.099 14.6703 134.144 14.6703 134.144C14.6703 134.144 13.2173 135.246 10.2019 136.425C7.21912 137.594 4.44232 135.252 4.44232 135.252C4.44232 135.252 12.004 132.418 15.2351 125.457C16.183 123.413 22.3063 103.147 35.1664 93.3174C48.0265 83.4875 64.3018 92.9671 64.3018 92.9671Z" fill="#C8D5FF"/>
<path fill-rule="evenodd" clip-rule="evenodd" d="M67.4924 95.0152C67.4924 95.0152 67.4841 101.908 66.5324 108.442C65.6049 114.806 62.3956 122.124 62.3956 122.124C62.3956 122.124 72.7897 129.962 79.5459 126.531C86.3032 123.1 84.0019 113.939 82.7789 111.284C78.9823 103.043 67.4924 95.0152 67.4924 95.0152Z" fill="#C8D5FF"/>
<path fill-rule="evenodd" clip-rule="evenodd" d="M188.276 284.715C188.149 284.978 183.154 295.975 142.402 313.536C101.653 331.095 77.747 334.941 77.747 334.941C77.747 334.941 109.106 382.887 115.763 394.198C122.42 405.508 147.007 443.953 150.775 447.854C154.543 451.756 157.845 455.978 159.974 454.269C162.106 452.559 156.408 405.59 150.429 379.923C144.451 354.257 151.613 347.68 156.945 346.698C162.279 345.716 167.296 349.163 183.447 380.131C199.596 411.098 218.2 427.83 221.051 425.683C223.903 423.536 226.96 414.057 219.03 383.801C211.101 353.546 188.276 284.715 188.276 284.715Z" fill="#7699FF"/>
<path fill-rule="evenodd" clip-rule="evenodd" d="M188.938 288.952C201.572 322.616 211.216 357.318 217.479 392.737C218.728 399.801 222.156 409.879 220.852 417.095C219.615 423.94 216.238 421.702 212.211 418.413C208.052 415.015 204.342 410.557 201.04 406.341C190.56 392.967 183.287 377.524 174.89 362.857C171.428 356.806 164.904 340.624 155.462 342.697C146.28 344.713 146.52 362.016 146.666 368.78C146.995 384.154 154.074 397.871 157.166 412.849C158.803 420.78 160.353 428.746 161.271 436.802C161.684 440.404 163.639 447.269 160.103 448.541C156.406 449.873 150.785 441.505 148.44 438.585C136.138 423.265 123.71 406.846 113.786 389.973C103.337 372.207 92.8866 354.442 82.4369 336.675C81.2942 334.73 78.0032 336.145 79.1599 338.112C89.0291 354.891 98.8983 371.67 108.767 388.449C118.105 404.324 130.143 419.35 140.826 434.387C143.773 438.534 155.825 458.601 163.467 452.617C167.062 449.799 165.487 443.188 165.148 439.496C164.262 429.806 162.351 420.246 160.376 410.733C156.779 393.397 148.092 375.97 150.801 358.13C151.086 356.274 151.784 351.231 152.64 350.538C154.268 350.389 155.893 350.239 157.519 350.091C160.551 348.424 162.619 348.871 163.729 351.429C167.12 353.695 169.497 360.595 171.613 364.295C176.267 372.433 180.567 380.766 185.264 388.879C192.302 401.037 201.257 416.985 213.93 424.227C224.631 430.341 225.028 419.755 224.086 411.538C219.248 369.326 207.1 327.175 192.215 287.515C191.413 285.376 188.137 286.821 188.938 288.952Z" fill="#4B4B78"/>
<path fill-rule="evenodd" clip-rule="evenodd" d="M61.42 167.243C61.4862 167.234 61.5524 167.224 61.6186 167.215C61.6797 167.205 61.7193 167.165 61.7764 167.15C62.5965 167.789 64.2968 169.66 64.7114 169.993C65.7343 170.816 66.7532 171.572 67.9412 171.989C69.8119 172.639 71.5437 172.354 73.2089 171.277C77.6047 168.431 79.7416 161.817 80.1903 156.169C80.3946 153.596 77.0156 152.786 76.809 155.371C76.4474 159.911 73.9546 170.033 68.3784 167.939C65.9229 167.016 63.7545 162.485 61.0321 162.882C60.1667 163.009 59.3322 163.913 59.4961 165.044C59.5121 165.153 59.5282 165.261 59.544 165.367C59.6931 166.404 60.4513 167.39 61.42 167.243Z" fill="#4B4B78"/>
<path fill-rule="evenodd" clip-rule="evenodd" d="M49.6209 189.232C41.6911 176.646 35.4483 163.238 31.365 148.904C28.0353 137.23 24.3972 124.341 27.6084 112.293C33.5932 89.8376 63.3786 94.181 75.666 108.554C83.1309 117.285 87.5816 129.021 91.8622 140.308C94.3674 146.914 96.8143 153.366 99.773 158.972C102.154 163.481 105.77 165.075 109.85 166.873C110.129 166.997 110.411 167.121 110.694 167.247L110.723 167.226L110.749 167.279L114.425 169.057L114.462 169.076C114.509 169.101 114.557 169.126 114.604 169.151C117.623 170.824 120.488 172.75 123.248 174.813L123.272 174.769L126.749 177.57L126.768 177.573L127.139 177.875C127.653 178.293 128.168 178.711 128.67 179.144C137.644 186.856 145.64 195.74 152.552 205.306C166.991 225.281 176.428 248.265 180.641 272.504L180.641 272.514C180.866 272.348 181.092 272.185 181.318 272.022C181.608 271.813 181.898 271.604 182.185 271.389C182.99 270.791 184.044 270.9 184.702 271.634C192.595 280.459 191.632 287.046 181.491 293.182C177.624 295.521 173.7 297.76 169.73 299.922C175.239 307.854 183.085 316.354 193.462 310.212C195.442 309.039 196.846 312.295 194.89 313.453C182.857 320.576 173.081 311.116 166.658 301.762C166.639 301.734 166.629 301.704 166.62 301.675C166.616 301.662 166.612 301.65 166.608 301.638C166.603 301.626 166.598 301.614 166.591 301.602C158.54 305.89 150.335 309.898 142.087 313.797C143.163 314.071 144.046 315.357 143.233 316.57C142.653 317.437 145.694 321.475 147.645 324.066C148.296 324.93 148.825 325.633 149.059 326.004C150.215 327.837 151.185 329.717 151.721 331.826C152.649 335.486 152.241 338.945 149.987 342.041C148.63 343.905 145.748 341.824 147.099 339.968C150.881 334.774 147.054 329.306 143.871 324.759C143.344 324.007 142.835 323.279 142.381 322.582C142.231 322.353 142.076 322.121 141.918 321.886C140.418 319.642 138.745 317.141 140.264 314.661C138.348 315.562 136.43 316.46 134.512 317.356C133.181 317.977 131.848 318.603 130.513 319.23C122.885 322.811 115.186 326.426 107.287 329.423C109.731 334.489 111.37 339.833 108.92 345.347C106.837 350.039 102.655 353.704 97.7842 355.358C95.614 356.096 94.1735 352.858 96.3559 352.117C100.354 350.761 103.838 347.941 105.591 344.073C107.705 339.414 106.018 334.892 103.916 330.655C98.4969 332.566 92.9766 334.153 87.3096 335.19C86.7862 335.286 86.2443 335.393 85.6891 335.503C81.3858 336.354 76.2825 337.363 72.7865 334.473C71.2131 333.174 70.1171 331.365 69.3536 329.372C68.6458 325.831 67.3775 319.869 66.9329 319.236C66.902 319.192 66.818 319.071 66.6861 318.88C57.1884 296.546 50.035 273.256 46.3698 249.217C45.1024 240.906 44.2892 232.53 43.908 224.129C43.6028 217.405 43.4697 214.023 43.6803 207.478C43.8959 200.777 44.8743 194.298 49.6209 189.232ZM177.1 273.032C172.195 244.815 159.975 218.354 141.145 196.661C133.73 188.121 125.237 179.73 115.404 173.759C113.753 181.802 110.68 189.901 105.289 196.254C105.082 196.498 104.873 196.759 104.658 197.028C103.558 198.4 102.313 199.955 100.552 200.264C99.2767 200.487 97.789 199.724 96.3516 198.986C94.7454 198.162 93.202 197.37 92.0883 198.024C90.9153 198.71 90.5576 200.281 90.1864 201.912C89.8265 203.492 89.4538 205.129 88.3128 206.071C86.7686 207.346 84.0396 207.282 81.7731 207.229C81.1097 207.213 80.4858 207.199 79.9429 207.219C69.5656 207.604 59.3335 206.44 49.2593 204.089C47.0463 203.575 47.4432 200.044 49.6791 200.565C56.6182 202.184 63.6197 203.296 70.7532 203.646C71.6031 203.688 72.5403 203.779 73.5199 203.873C76.5435 204.165 79.9714 204.497 82.4855 203.56C85.4027 204.202 87.0171 202.926 87.3281 199.728C87.7123 198.509 88.0954 197.289 88.4783 196.069L89.0106 194.375C89.2956 193.463 90.482 193.019 91.3312 193.356C97.6988 195.886 101.912 195.591 105.663 189.51C108.731 184.537 110.639 179.179 111.826 173.537C111.746 173.226 111.726 172.892 111.863 172.515C111.94 172.303 112.017 172.092 112.096 171.881C112.021 171.841 111.945 171.801 111.869 171.762L111.659 171.654C111.463 171.554 111.268 171.453 111.075 171.348C111.03 171.382 110.985 171.414 110.939 171.447C110.919 171.461 110.899 171.474 110.88 171.488C109.458 172.526 107.824 171.17 107.959 169.865C107.221 169.585 106.452 169.329 105.681 169.073C104.846 168.796 104.006 168.516 103.19 168.201C100.977 190.605 75.4771 200.238 55.7306 192.122C53.6104 191.25 54.9148 187.939 57.0413 188.812C74.0447 195.801 96.1803 188.354 99.3897 169.637C99.2745 169.366 99.239 169.041 99.3349 168.655C99.4606 168.145 99.587 167.637 99.7135 167.129C99.7708 166.895 99.8733 166.701 99.9845 166.523C99.7017 166.316 99.4181 166.108 99.1628 165.866C96.7838 163.636 95.2758 159.121 93.9461 155.14C93.3933 153.485 92.8713 151.922 92.3303 150.654C91.087 147.741 89.8891 144.722 88.6774 141.668C84.4386 130.986 80.0242 119.86 72.8535 111.207C61.3811 97.3691 37.5345 93.9041 31.1544 112.844C27.9439 122.375 30.5074 131.959 33.0023 141.286C33.309 142.433 33.6147 143.576 33.9085 144.714L33.9252 144.779C37.929 160.287 44.6075 174.905 53.2585 188.364C53.8056 189.215 53.7691 190.153 52.9923 190.86C48.7309 194.737 47.1644 200.977 46.7665 207.584C46.4333 213.116 46.9194 218.905 47.3288 223.779C47.4561 225.295 47.576 226.723 47.6615 228.027C48.3286 238.139 49.6381 248.204 51.5327 258.153C55.5614 279.323 62.304 299.799 70.8555 319.542C71.0687 319.777 71.2355 320.072 71.2643 320.492L71.2639 320.496L71.2639 320.5C71.3309 320.652 71.3957 320.806 71.4605 320.96C71.5256 321.114 71.5907 321.268 71.6582 321.422C71.8392 321.286 72.0441 321.169 72.3089 321.113C89.7492 317.409 106.694 312.096 122.969 305.256C123.072 304.965 123.245 304.686 123.591 304.459C127.229 302.082 132.572 298.973 137.442 298.677C151.629 291.743 165.237 283.602 178.158 274.319C177.649 274.121 177.22 273.722 177.1 273.032ZM184.45 281.384C184.746 277.592 184.782 277.144 183.039 275.144C180.045 277.348 177.009 279.487 173.941 281.568C174.893 282.156 174.872 283.357 174.256 284.122C174.922 285.315 175.587 286.508 176.252 287.701L178.156 291.116L178.433 290.963L178.912 290.702C182.612 288.68 183.952 287.948 184.373 282.386L184.405 281.956L184.45 281.384ZM146.6 307.725C151.553 305.339 156.481 302.899 161.357 300.362C165.974 297.964 170.542 295.468 175.052 292.871L175.023 292.818C173.401 289.91 171.779 287.002 170.159 284.093C161.338 289.872 152.228 295.142 142.863 299.893C145.6 301.521 147.95 304.7 146.6 307.725ZM137.053 310.121C138.792 309.356 140.702 308.515 141.874 307.437C144.391 305.119 141.969 302.693 139.167 302.244C138.891 302.201 138.606 302.21 138.322 302.219L138.212 302.223C134.139 304.198 130.011 306.06 125.849 307.837C125.971 308.035 126.057 308.27 126.093 308.548C126.433 311.184 127.351 313.148 130.362 312.927C131.666 312.831 133.098 312.072 134.334 311.416C134.563 311.295 134.784 311.177 134.997 311.068C135.605 310.758 136.313 310.446 137.053 310.121ZM98.654 328.681C100.173 328.196 101.682 327.686 103.179 327.149C111.763 324.075 120.047 320.205 128.306 316.344C125.112 315.75 123.113 313.051 122.576 309.21C113.386 312.998 103.991 316.319 94.4177 319.143C94.5775 322.192 95.7519 324.968 98.0757 327.022C98.6163 327.498 98.7446 328.109 98.654 328.681ZM78.935 332.743C80.2542 332.991 82.1228 332.6 83.7249 332.266C84.2732 332.151 84.7914 332.043 85.2445 331.969C88.7519 331.397 92.2124 330.562 95.6321 329.578C92.9289 327.059 91.2329 323.823 90.9224 320.133C84.948 321.814 78.9152 323.327 72.8141 324.622C72.3808 324.713 72.0355 324.627 71.737 324.474C72.4728 328.28 74.2432 331.862 78.935 332.743Z" fill="#4B4B78"/>
<path fill-rule="evenodd" clip-rule="evenodd" d="M91.8488 191.589C89.1048 191.199 85.818 193.245 86.129 195.729C86.4399 198.214 87.1928 202.356 87.1928 202.356C87.1928 202.356 86.154 217.753 84.1179 226.178C82.0816 234.601 76.0307 250.844 71.2434 256.068C66.456 261.292 66.9971 265.641 66.9971 265.641C66.9971 265.641 71.2675 271.942 72.9413 276.182C74.6133 280.422 76.4239 282.961 76.4239 282.961C76.4239 282.961 83.9714 276.326 86.2163 273.992C88.4595 271.658 92.983 266.791 93.2065 254.19C93.4319 241.588 93.7888 224.075 92.9818 219.294C92.1748 214.513 92.3113 202.653 92.3113 202.653C92.3113 202.653 94.686 200.881 94.8175 199.315C94.9507 197.749 92.7837 193.601 92.9242 192.853C93.0663 192.104 91.8488 191.589 91.8488 191.589Z" fill="#F76F60"/>
<path fill-rule="evenodd" clip-rule="evenodd" d="M79.0316 251.2C86.2823 237.283 88.917 221.619 90.3221 206.247C90.69 206.379 91.0607 206.472 91.4429 206.537C91.3336 206.792 91.2669 207.074 91.2984 207.41C92.7528 222.643 93.3563 237.942 92.7236 253.248C92.4077 260.897 91.8432 267.533 85.8483 273.252C82.89 276.072 79.6862 278.196 76.915 280.984C76.3133 279.054 75.5982 277.175 74.6241 275.336C73.4087 273.038 69.2982 269.616 68.8597 267.411C68.1714 263.953 76.9272 255.239 79.0316 251.2ZM94.7587 199.396C95.0744 201.022 94.3724 203.268 92.2855 203.054C90.4827 202.868 89.6759 201.191 89.7279 199.603C89.7641 198.439 90.2395 197.438 90.8492 196.496C91.4791 196.241 91.9644 195.692 92.0045 194.898C92.0289 194.868 92.0512 194.836 92.0754 194.804C92.2039 195.383 93.1154 196.182 93.4544 196.661C94.0242 197.467 94.5685 198.418 94.7587 199.396ZM74.2099 284.978C74.5452 286.381 76.4787 287.259 77.5126 285.865C81.5575 280.422 88.1659 277.544 92.0719 272.021C95.2449 267.533 95.919 262.136 96.2558 256.858C97.3203 240.255 96.5705 223.492 94.9904 206.965C94.9636 206.683 94.8823 206.445 94.766 206.243C95.6196 205.906 96.4027 205.359 97.0361 204.581C99.8703 201.108 98.2182 196.359 95.5201 193.365C94.3475 192.065 92.6734 191.073 90.843 191.581C90.6295 191.641 90.4709 191.753 90.283 191.839C89.9003 191.909 89.5236 192.089 89.2175 192.48C86.7256 195.659 84.6798 199.857 86.996 203.574C86.8887 203.768 86.8093 203.992 86.7862 204.264C84.8711 226.353 80.3389 249.005 63.9418 265.575C63.2003 266.326 63.5859 267.496 64.25 268.108C69.3685 272.828 72.6062 278.304 74.2099 284.978Z" fill="#4B4B78"/>
<path d="M41.2673 199.01C41.2673 199.01 18.642 231.648 16.3862 261.191C14.1304 290.734 28.1797 278.501 65.6412 243.189" stroke="#4B4B78" stroke-width="3.33684" stroke-linecap="round" stroke-linejoin="round"/>
<path d="M63.0517 236.441L63.2709 242.019C63.7004 243.585 64.5924 244.843 66.3132 245.372C69.6559 246.402 72.5722 244.614 73.6782 241.838C74.6294 239.45 74.6714 235.718 72.1051 234.51C70.6475 233.823 68.941 234.047 67.1943 234.726C67.1817 234.392 67.1669 234.063 67.1527 233.75C67.119 233.002 67.0891 232.34 67.1033 231.889C67.1802 229.545 63.5414 229.807 63.4674 232.129C63.445 232.836 63.3474 233.704 63.2403 234.655C63.1761 235.226 63.1085 235.827 63.0517 236.441Z" fill="#4B4B78"/>
</g>
</g>
<defs>
<clipPath id="clip0_2315_50090">
<rect width="154" height="590" fill="white"/>
</clipPath>
<clipPath id="clip1_2315_50090">
<rect width="1148" height="590" fill="white"/>
</clipPath>
</defs>
</svg>
