<svg xmlns="http://www.w3.org/2000/svg" xmlns:xlink="http://www.w3.org/1999/xlink" width="97" height="84" viewBox="0 0 97 84">
    <defs>
        <path id="a" d="M.015.03h42.817v42.674H.015z"/>
    </defs>
    <g fill="none" fill-rule="evenodd">
        <path fill="#C8D5FF" d="M45.53 76.428l-.735.01c-22.082.273-34.605-1.69-34.786 1.348-.183 3.072 2.032 6.917 35.521 6.103 33.49-.813 41.194-2.97 40.418-5.999-1.408-5.498-40.418-1.462-40.418-1.462"/>
        <path fill="#D1D1D1" d="M80.459 77H15.54A1.55 1.55 0 0 1 14 75.45V30.55A1.55 1.55 0 0 1 15.541 29H80.46A1.55 1.55 0 0 1 82 30.549V75.45A1.55 1.55 0 0 1 80.459 77"/>
        <g transform="translate(54 7)">
            <mask id="b" fill="#fff">
                <use xlink:href="#a"/>
            </mask>
            <path fill="#FDBF50" d="M42.832 21.367c0 5.11-1.014 10.144-4.019 13.818-3.926 4.799-10.693 7.519-17.39 7.519C9.6 42.704.015 33.151.015 21.367c0-6.262 1.689-11.68 5.999-15.582C9.816 2.342 15.882.03 21.424.03c6.433 0 12.871 2.499 16.796 6.977 3.288 3.75 4.612 8.988 4.612 14.36" mask="url(#b)"/>
        </g>
        <path fill="#FEF0A9" d="M94 28.5c0 5.148-.97 10.221-3.848 13.923C86.392 47.26 79.912 50 73.5 50 62.178 50 53 40.374 53 28.5c0-6.31 1.618-11.768 5.745-15.7C62.385 9.33 68.194 7 73.5 7c6.16 0 12.326 2.518 16.084 7.03C92.732 17.81 94 23.087 94 28.5"/>
        <path fill="#FDBF50" d="M73 13.596c-3.711 0-7.79 1.577-10.39 4.018-2.697 2.531-4.008 6.092-4.008 10.886 0 8.218 6.46 14.904 14.398 14.904 4.681 0 9.17-2.004 11.716-5.229 1.78-2.255 2.682-5.51 2.682-9.675 0-2.922-.536-7.038-3.086-10.054-2.53-2.992-6.864-4.85-11.312-4.85M73 45c-8.822 0-16-7.402-16-16.5 0-5.185 1.518-9.238 4.51-12.048C64.393 13.748 68.903 12 73 12c4.982 0 9.669 2.025 12.538 5.418C87.802 20.097 89 23.928 89 28.5c0 4.532-1.018 8.118-3.024 10.661C83.134 42.763 78.161 45 73 45"/>
        <path fill="#FDBF50" d="M64.02 30.468c.638 2.296 2.51 3.846 4.306 5.395.349.3.833.073.876-.345.324-3.12.647-6.468 2.585-9.126 1.73-2.373 8.09-5.907 9.892-1.28 2.704 6.943-13.765 5.565-17.029 4.758-.639-.158-.912.78-.272.938 5.107 1.263 10.866 1.392 15.77-.715 2.677-1.15 3.764-3.969 1.97-6.423-1.99-2.722-6.647-1.667-8.984-.013-3.9 2.758-4.517 7.603-4.958 11.861l.876-.343c-1.643-1.417-3.452-2.842-4.043-4.966-.168-.605-1.158-.348-.99.26"/>
        <path fill="#FDBF50" d="M70.002 18.457c.177 1.865.8 3.63 1.875 5.302.352.547 1.403.066 1.052-.48-.977-1.52-1.547-3.127-1.708-4.822-.058-.607-1.277-.612-1.219 0"/>
        <path fill="#FDBF50" d="M72.005 18.5a16.6 16.6 0 0 0 1.003 6.15c.225.617 1.185.35.957-.275a15.835 15.835 0 0 1-.967-5.875c.016-.667-.977-.667-.993 0M73.05 30.834a24.402 24.402 0 0 0 2.883 4.932c.42.557 1.386.016.961-.55a24.419 24.419 0 0 1-2.883-4.93c-.28-.642-1.24-.089-.96.548M75.017 29.727c.462 1.932 1.462 3.657 2.922 5.094.554.546 1.44-.28.886-.824a9.389 9.389 0 0 1-2.6-4.58c-.175-.73-1.383-.421-1.208.31"/>
        <path fill="#FDBF50" d="M73 21.5c0 5.148-.994 10.221-3.942 13.923C65.208 40.26 58.57 43 52 43c-11.598 0-21-9.626-21-21.5 0-6.31 1.657-11.768 5.885-15.7C40.614 2.33 46.565 0 52 0c6.311 0 12.626 2.518 16.476 7.03C71.701 10.81 73 16.087 73 21.5"/>
        <path fill="#FEF0A9" d="M71 21.5c0 5.148-.97 10.221-3.848 13.923C63.392 40.26 56.912 43 50.5 43 39.178 43 30 33.374 30 21.5c0-6.31 1.618-11.768 5.745-15.7C39.385 2.33 45.194 0 50.5 0c6.16 0 12.326 2.518 16.084 7.03C69.732 10.81 71 16.087 71 21.5"/>
        <path fill="#FDBF50" d="M50 6.596c-3.711 0-7.79 1.577-10.39 4.018-2.697 2.531-4.008 6.092-4.008 10.886 0 8.218 6.46 14.904 14.398 14.904 4.681 0 9.17-2.004 11.716-5.229 1.78-2.255 2.682-5.51 2.682-9.675 0-2.922-.536-7.038-3.086-10.054-2.53-2.992-6.864-4.85-11.312-4.85M50 38c-8.822 0-16-7.402-16-16.5 0-5.185 1.518-9.238 4.51-12.048C41.393 6.748 45.903 5 50 5c4.982 0 9.669 2.025 12.538 5.418C64.802 13.097 66 16.928 66 21.5c0 4.532-1.018 8.118-3.024 10.661C60.134 35.763 55.161 38 50 38"/>
        <path fill="#FDBF50" d="M42.02 22.468c.638 2.296 2.51 3.846 4.306 5.395.349.3.833.073.876-.345.324-3.12.647-6.468 2.585-9.126 1.73-2.373 8.09-5.907 9.892-1.28 2.704 6.943-13.765 5.565-17.029 4.758-.639-.158-.912.78-.272.938 5.107 1.263 10.866 1.392 15.77-.715 2.677-1.15 3.764-3.969 1.97-6.423-1.99-2.722-6.647-1.667-8.984-.013-3.9 2.758-4.517 7.603-4.958 11.861l.876-.343c-1.643-1.417-3.452-2.842-4.043-4.966-.168-.605-1.158-.348-.99.26"/>
        <path fill="#FDBF50" d="M47.002 12.457c.177 1.865.8 3.63 1.875 5.302.352.547 1.403.066 1.052-.48-.977-1.52-1.547-3.127-1.708-4.822-.058-.607-1.277-.612-1.219 0"/>
        <path fill="#FDBF50" d="M49.005 11.5a16.6 16.6 0 0 0 1.003 6.15c.225.617 1.185.35.957-.275a15.835 15.835 0 0 1-.967-5.875c.016-.667-.977-.667-.993 0M50.05 24.834a24.402 24.402 0 0 0 2.883 4.932c.42.557 1.386.016.961-.55a24.419 24.419 0 0 1-2.883-4.93c-.28-.642-1.24-.089-.96.548M52.017 23.727c.462 1.932 1.462 3.657 2.922 5.094.554.546 1.44-.28.886-.824a9.389 9.389 0 0 1-2.6-4.58c-.175-.73-1.383-.421-1.208.31"/>
        <path fill="#FFF" d="M13.021 31s.048 1.345 4.011 1.29c3.964-.055 56.065.003 56.671.044.607.04 4.562-.78 4.56 2.498 0 3.28-.184 16.326-.184 16.326s.964-.877 3.427.311 1.167 7.629 1.045 9.85c-.123 2.22-2.708 1.725-2.708 1.725l-2.081.383s.324 15.458-.096 16.053C76.593 81 72.663 81 72.663 81l-55.257-.617s-3.307-.556-3.931-2.815C12.85 75.31 13.02 31 13.02 31"/>
        <path fill="#4B4B78" d="M30.864 30.148c-4.869-.007-9.755-.256-14.622-.092-1.206.04-2.356.177-2.976 1.34-.353.66-.38 1.348.076 1.945 1.712 2.243 6.636 1.297 8.955 1.289 5.133-.018 10.263.155 15.395.157 5.474 0 10.93-.303 16.405-.272a1773.438 1773.438 0 0 1 21.387.254c.464.01.937-.007 1.398.03.152.013.315-.01.465.013 1.487.234 1.46 1.006 1.573 2.19.489 5.103-.148 10.406-.147 15.53 0 .624.999.625.999 0 0-4.19.19-8.375.185-12.563-.003-2.839.655-6.024-3.075-6.14-4.772-.148-9.553-.162-14.327-.214-4.852-.052-9.708-.13-14.559-.073-3.009.035-6.01.253-9.022.27-4.92.029-9.84-.129-14.76-.152-2.626-.012-5.514.368-8.107-.074-.545-.093-1.455-.232-1.835-.69-.747-.905.333-1.673 1.325-1.859 1.143-.214 2.567-.032 3.737-.031 1.358 0 2.715.015 4.073.033 2.485.034 4.97.077 7.457.08.643 0 .644-.97 0-.971"/>
        <path fill="#4B4B78" d="M13 31.478c.009 11.707.487 23.407.534 35.113.011 2.915-.007 5.83-.058 8.744-.031 1.787-.096 3.637 1.373 4.873 1.439 1.21 3.544 1.297 5.308 1.453 2.785.246 5.587.281 8.38.339.618.013.618-.977 0-.99-2.453-.05-4.909-.09-7.357-.26-2.03-.14-5.167-.04-6.32-2.102-.649-1.16-.434-2.637-.413-3.933.022-1.245.035-2.49.043-3.737.017-2.72.005-5.44-.024-8.16-.114-10.448-.498-20.891-.506-31.34 0-.637-.96-.638-.96 0"/>
        <path fill="#4B4B78" d="M28.476 81.74c12.43-.078 24.865.575 37.291.06 2.983-.123 6.002-.23 8.968-.592 1.498-.182 2.845-.572 3.099-2.242.366-2.412.016-5.165-.004-7.598-.022-2.63-.059-5.26-.162-7.889-.024-.637-1.01-.64-.985 0 .185 4.725.143 9.452.191 14.18.007.716.136 1.563-.524 2.118-.42.354-1.287.397-1.792.456-1.338.155-2.691.229-4.035.319-2.837.19-5.677.31-8.52.378-11.175.268-22.35-.253-33.527-.183-.634.004-.636.997 0 .993M72.526 54.001c-2.258.136-4.436.744-5.315 3.017-.868 2.243 1.086 4.433 3.29 4.884 2.181.447 4.616-.666 5.335-2.773.623-1.829-.585-4.688-2.703-4.932-.668-.077-.662.948 0 1.024 1.761.203 2.156 3.14 1.364 4.321-.93 1.39-3.055 1.748-4.523 1.102-1.884-.828-2.53-2.86-1.094-4.383.965-1.025 2.31-1.155 3.646-1.236.67-.04.674-1.064 0-1.024"/>
        <path fill="#4B4B78" d="M62.949 58.069c-.051-1.065 1.026-2.739 1.586-3.566.724-1.068 1.705-1.892 2.923-2.165 2.33-.52 5.052-.297 7.425-.314a66.366 66.366 0 0 1 3.425.056c.71.032 2.984-.159 3.467.424.433.522.267 2 .257 2.681-.016 1.108-.036 2.215.013 3.323.028.654.976.658.946 0-.066-1.5.055-3.003-.012-4.5-.032-.686-.002-1.707-.467-2.248-.63-.735-2.123-.574-2.95-.63a63.852 63.852 0 0 0-5.301-.121c-1.677.024-3.353.09-5.028.162-1.23.054-2.46.117-3.552.803-.955.6-1.7 1.535-2.283 2.534-.529.906-1.45 2.42-1.396 3.56.032.655.979.659.947 0"/>
        <path fill="#4B4B78" d="M62.002 57.931c-.052 1.085.77 2.408 1.25 3.292.564 1.039 1.278 1.996 2.223 2.657 1.053.735 2.215.872 3.438.935 1.78.092 3.565.15 5.346.176 1.663.024 3.327.004 4.988-.1.843-.054 2.468.133 3.166-.528.526-.498.512-1.467.553-2.156.094-1.566-.045-3.145.023-4.715.03-.657-.917-.655-.946 0-.049 1.107-.026 2.215-.013 3.323.008.596.194 2.046-.141 2.537-.5.731-2.743.53-3.582.568a65.14 65.14 0 0 1-3.425.056c-2.294-.016-4.685.05-6.961-.26-1.426-.195-2.539-.966-3.386-2.22-.544-.803-1.635-2.55-1.586-3.565.032-.657-.915-.655-.947 0M34.476 52.425l-.049.049c-.549.55-.59 1.559 0 2.101.592.545 1.51.588 2.097 0l.049-.049c.549-.55.59-1.559 0-2.101-.592-.545-1.51-.588-2.097 0M51.525 52h-.05c-.77 0-1.509.69-1.474 1.5.036.813.648 1.5 1.475 1.5h.049c.77 0 1.51-.69 1.474-1.5-.036-.813-.648-1.5-1.474-1.5M39.002 62.801c.106 1.373.766 3.039 1.8 4.006 1.1 1.03 2.888 1.131 4.326 1.188 3.406.135 5.239-2.325 4.81-5.579-.072-.551-.967-.558-.894 0 .149 1.127.08 2.319-.548 3.314-.79 1.255-1.992 1.441-3.368 1.39-1.027-.04-2.32-.083-3.235-.597-1.143-.64-1.905-2.525-1.998-3.722-.043-.558-.937-.563-.893 0"/>
        <path fill="#F76F60" d="M32 62c0 1.657-.895 3-2 3s-2-1.343-2-3 .895-3 2-3 2 1.343 2 3M60 63c0 1.657-.895 3-2 3s-2-1.343-2-3 .895-3 2-3 2 1.343 2 3"/>
        <path fill="#4B4B78" d="M3.247 21.953a48.884 48.884 0 0 1 7.84 5.902c.491.453 1.244-.26.753-.714a50.253 50.253 0 0 0-8.056-6.06c-.578-.35-1.112.523-.537.872M12.076 18.699a32.916 32.916 0 0 1 2.783 4.984c.25.558 1.356.317 1.104-.247a34.374 34.374 0 0 0-2.899-5.206c-.354-.525-1.343-.056-.988.469M.476 32.908c2.988.223 5.954.584 8.902 1.083.624.106.892-.767.264-.873a99.38 99.38 0 0 0-9.166-1.116c-.636-.048-.633.858 0 .906M81.03 49.533l-.002 1.602c0 .442-.085 1.039.042 1.457.191.627.96.513.93-.214-.031-.706-.876-.71-.846 0l.003.051.209-.476.128-.046.365.273c.018.175.022.132.013-.13v-.228-.801l.003-1.488c0-.71-.844-.711-.845 0M77.372 77.908c2.164.323 4.434-.128 4.589-2.627.114-1.85-.057-3.749-.043-5.605.015-2.066.035-4.13-.031-6.196-.021-.639-1.049-.641-1.028 0 .08 2.5.03 5 .023 7.5-.003 1.195.059 2.392.05 3.587-.015 2.1-1.406 2.662-3.287 2.381-.647-.097-.926.863-.273.96"/>
    </g>
</svg>
