<svg width="268" height="173" viewBox="0 0 268 173" fill="none" xmlns="http://www.w3.org/2000/svg">
<path fill-rule="evenodd" clip-rule="evenodd" d="M108.14 61.4969C108.14 61.4969 108.126 58.8246 107.503 57.1931C106.881 55.5616 101.616 51.4286 101.619 50.0708C101.622 48.7134 101.998 43.092 104.733 40.8399C107.467 38.5883 110.397 37.817 114.044 38.0091C117.69 38.2011 121.272 41.0062 122.672 44.7018C124.071 48.398 123.698 50.5143 121.409 53.5114C119.119 56.5085 117.63 58.5515 117.326 59.7658C117.024 60.9806 116.968 61.9967 115.766 62.5868C114.565 63.177 111.947 62.9199 110.633 62.64C109.32 62.3607 108.14 61.4969 108.14 61.4969Z" fill="#FEF0A9"/>
<path fill-rule="evenodd" clip-rule="evenodd" d="M105.459 40.8374C107.883 39.1033 112.509 38.4189 115.459 39.1235C118.407 39.828 121.211 43.5774 122.096 46.3008C123.204 49.713 121.145 52.4015 119.124 54.9654C117.741 56.7212 116.644 58.3994 115.997 60.5206C115.527 62.0645 114.874 62.125 113.235 62.1942C112.955 58.9838 112.401 55.6306 112.544 52.4086C114.262 52.4328 115.265 50.0653 115.859 48.8248C116.139 48.2393 115.243 47.726 114.961 48.315C114.674 48.9141 114.374 49.5116 114.012 50.0709C113.84 50.3353 113.552 50.9379 113.265 51.0666C112.588 51.3694 111.701 50.9647 111.208 50.5634C110.779 50.2142 110.334 49.8882 109.858 49.602C109.263 49.2442 108.332 49.0145 107.938 48.4291C107.573 47.8875 106.673 48.3927 107.04 48.9383C107.63 49.8145 108.676 50.0451 109.552 50.6048C110.202 51.0212 110.801 51.7182 111.514 52.1124C111.329 55.2935 111.861 58.6103 112.159 61.8C112.132 61.8777 112.119 61.962 112.137 62.0579C112.146 62.1089 112.156 62.1599 112.165 62.2108C110.775 62.18 109.411 61.9211 108.076 61.528C108.101 59.54 107.531 57.7064 106.449 55.9844C105.132 53.8874 102.27 52.128 101.707 49.6974C101.053 46.8736 103.175 42.4721 105.459 40.8374ZM115.316 63.0636C115.349 63.0979 112.886 63.4211 112.62 63.4327C112.051 63.457 111.481 63.4676 110.91 63.4635C110.571 63.461 109.504 63.561 109.201 63.41C108.908 63.2641 108.784 62.9995 108.663 62.7288C110.847 63.2499 113.022 63.3126 115.226 62.9247C115.25 62.9717 115.273 63.0192 115.316 63.0636ZM114.742 64.2443C114.678 64.8992 114.334 65.1603 113.713 65.0265C113.528 65.0336 113.344 65.0406 113.16 65.0477C112.516 65.08 111.871 65.0972 111.227 65.1219C110.172 65.1623 108.793 65.438 108.649 64.316C108.7 64.3352 108.746 64.3579 108.806 64.3736C110.114 64.7174 111.853 64.4922 113.19 64.4124C113.493 64.3948 114.101 64.3488 114.712 64.2322C114.724 64.2347 114.731 64.2423 114.742 64.2443ZM112.055 68.9292C111.555 68.9277 111.076 68.7656 110.648 68.5192C110.592 68.4859 110.35 68.3258 110.108 68.1359C110.418 68.1268 110.722 68.1046 110.997 68.0915C111.771 68.0551 112.882 68.1647 113.822 68.0289C113.443 68.5838 112.806 68.9317 112.055 68.9292ZM114.675 65.9268C114.645 66.1541 114.496 66.3414 114.202 66.4798C113.998 66.9009 113.675 67.0665 113.234 66.9772C112.85 67.0676 112.382 67.0176 111.991 67.0357C111.577 67.0554 111.163 67.0761 110.748 67.0943C110.646 67.0994 110.115 67.1069 109.609 67.0479C109.496 66.7302 109.046 66.5601 108.775 66.8161C108.6 66.6979 108.559 66.5333 108.786 66.2985C108.816 66.2677 108.827 66.2334 108.848 66.201C109.264 66.2606 109.728 66.1884 110.121 66.1733C111.133 66.1344 112.147 66.098 113.16 66.0566C113.634 66.0374 114.177 66.0344 114.675 65.9268ZM107.025 62.0447C107.006 62.3385 107.21 62.4914 107.442 62.5191C107.441 62.6049 107.466 62.6963 107.532 62.7897C107.69 63.0122 107.781 63.2363 107.869 63.4468C107.739 63.5255 107.635 63.6502 107.612 63.8314C107.532 64.4703 107.54 65.2157 107.946 65.7119C107.545 66.2171 107.515 66.8616 107.928 67.4137C108.11 67.6565 108.342 67.8175 108.6 67.9285C108.981 68.9354 110.618 69.7449 111.509 69.8902C113.176 70.1623 114.874 69.1327 115.158 67.4828C115.158 67.4818 115.158 67.4808 115.158 67.4793C115.666 66.9766 115.817 66.1166 115.67 65.4418C115.775 65.3434 115.87 65.2314 115.949 65.0956C116.21 64.6444 116.167 64.1947 115.936 63.849C116.419 63.5941 116.665 63.2257 116.328 62.6943C116.395 62.6776 116.463 62.6665 116.531 62.6494C116.752 62.5928 116.911 62.3824 116.912 62.1623C116.945 56.2513 124.737 53.0364 123.32 46.7862C122.739 44.2249 120.781 41.6211 118.834 39.8527C116.76 37.9687 114.352 37.8435 111.631 38.058C109.23 38.2478 106.693 38.5854 104.732 40.0631C102.735 41.5682 101.677 43.9917 101.005 46.2901C100.385 48.4124 100.435 50.2757 101.815 52.1002C104.279 55.3565 107.314 57.5469 107.025 62.0447Z" fill="#4B4B78"/>
<path fill-rule="evenodd" clip-rule="evenodd" d="M107.508 47.7403C108.221 46.7114 108.644 46.2837 109.751 46.3583C110.01 46.3756 110.23 46.5041 110.492 46.4682C111.265 46.3625 111.461 45.7475 112.212 45.9506C112.887 46.1331 113.016 46.2305 113.746 46.1718C114.611 46.102 115.18 46.9035 116.005 46.8102C116.703 46.7322 116.71 45.3495 116.005 45.4282C115.605 45.4732 115.28 44.8195 114.92 44.7117C114.467 44.5748 114.306 44.6978 113.857 44.7013C113.519 44.8886 113.173 44.8969 112.817 44.7248C112.723 44.5714 112.627 44.4187 112.53 44.268C112.333 44.1727 112.196 43.9827 111.955 43.9723C111.665 43.9605 111.615 44.1623 111.344 44.2563C110.736 44.4664 110.016 44.5493 109.431 44.6668C108.285 44.8969 107.483 45.677 106.731 46.7633C106.269 47.4315 107.043 48.4127 107.508 47.7403Z" fill="#4B4B78"/>
<path fill-rule="evenodd" clip-rule="evenodd" d="M88.0555 41.9391C90.0503 42.5277 92.0815 42.8678 94.1663 42.9738C94.8234 43.0074 94.8214 42.0345 94.1663 42.0009C92.1719 41.8997 90.2338 41.5641 88.3268 41.0008C87.6978 40.815 87.428 41.7538 88.0555 41.9391Z" fill="#4B4B78"/>
<path fill-rule="evenodd" clip-rule="evenodd" d="M92.9369 32.9693C94.8649 34.0078 96.8199 34.9931 98.8048 35.9258C99.4306 36.22 99.9805 35.3126 99.352 35.0168C97.3676 34.0841 95.4121 33.0987 93.4841 32.0602C92.8735 31.7313 92.3257 32.6403 92.9369 32.9693Z" fill="#4B4B78"/>
<path fill-rule="evenodd" clip-rule="evenodd" d="M103.754 30.5176C104.179 31.4958 104.594 32.3865 105.706 32.9194C106.368 33.2366 106.963 32.3725 106.301 32.0552C105.022 31.4423 104.687 29.7715 104.23 28.7007L102.795 25.3407C102.538 24.7402 101.398 24.9994 101.657 25.6069C102.356 27.2436 103.046 28.8833 103.754 30.5176Z" fill="#4B4B78"/>
<path fill-rule="evenodd" clip-rule="evenodd" d="M117.852 32.6489C118.257 31.6641 118.663 30.6799 119.067 29.6951C119.254 29.241 119.442 28.7863 119.628 28.3316C119.77 27.9882 119.863 27.3556 120.126 26.9851C120.145 26.9769 120.163 26.9691 120.182 26.9609C120.498 26.8274 120.598 26.528 120.422 26.2993C120.406 26.2789 120.39 26.2581 120.374 26.2378C120.175 25.9791 119.607 25.906 119.324 26.1397C118.542 26.7854 118.391 27.9476 118.059 28.7563C117.559 29.9684 117.061 31.18 116.562 32.3916C116.316 32.9899 117.607 33.2453 117.852 32.6489Z" fill="#4B4B78"/>
<path fill-rule="evenodd" clip-rule="evenodd" d="M125.234 36.905L131.204 33.0721C131.699 32.7544 131.364 31.8338 130.821 32.0124C130.668 32.0622 130.515 32.1127 130.363 32.1631C130.194 32.2182 130.097 32.3434 130.049 32.4901C128.276 33.628 126.504 34.7659 124.731 35.9038C124.17 36.2644 124.672 37.2661 125.234 36.905Z" fill="#4B4B78"/>
<path fill-rule="evenodd" clip-rule="evenodd" d="M125.675 42.6331C126.075 43.4253 127.078 42.6903 126.674 41.893C127.004 42.5451 130.393 41.3341 130.856 41.2344C132.235 40.9351 133.618 40.6608 135.004 40.4033C135.737 40.2669 135.425 38.8527 134.697 38.9884C132.245 39.4446 129.802 39.9596 127.37 40.5515C126.566 40.7473 124.915 41.1302 125.675 42.6331Z" fill="#4B4B78"/>
<path d="M138.593 160.314C140.409 152.501 175.325 157.059 192.556 160.314C196.086 162.123 194.069 164.293 189.026 164.293C171.459 166.222 136.777 168.127 138.593 160.314Z" fill="#CBD5FC"/>
<path fill-rule="evenodd" clip-rule="evenodd" d="M140.374 116.93C140.445 116.99 143.321 119.575 157.491 119.482C171.66 119.388 179.141 117.439 179.141 117.439C179.141 117.439 176.154 135.551 175.666 139.728C175.178 143.906 172.946 158.357 172.348 159.987C171.75 161.618 171.329 163.283 170.487 163.055C169.643 162.828 165.257 148.307 163.698 140.003C162.138 131.699 159.198 130.691 157.514 131.089C155.829 131.488 154.807 133.146 154.077 144.316C153.347 155.486 150.067 162.793 148.957 162.53C147.847 162.267 145.733 159.878 144.152 149.976C142.571 140.073 140.374 116.93 140.374 116.93Z" fill="#7699FF"/>
<path d="M155.235 81.7742C156.373 82.9164 157.057 85.201 155.235 85.201C153.414 85.201 153.528 82.3453 155.235 81.7742Z" fill="#F76F60"/>
<path d="M156.943 93.1969C156.487 90.9124 155.614 88.0567 155.235 86.9144C154.286 87.4856 152.389 88.9705 152.389 90.3412V98.9083L151.251 107.475L155.235 112.615L158.65 109.189C159.409 108.427 160.585 106.333 159.219 104.048C157.512 101.193 157.512 96.0526 156.943 93.1969Z" fill="#F76F60"/>
<path d="M172.401 53.2175C165.115 58.2435 159.5 53.0271 157.602 49.7907C157.602 49.7907 156.464 48.0773 154.756 48.0773C153.049 48.0773 149.634 53.2175 147.357 48.6484C144.511 42.9371 150.772 41.2236 153.049 40.0814C155.326 38.9391 164.432 38.368 169.555 40.0814C174.678 41.7948 181.508 46.935 172.401 53.2175Z" fill="#FEF0A9"/>
<path d="M178.671 111.473C180.037 117.413 178.102 118.136 176.963 117.756C174.871 119.469 145.089 119.469 140.536 117.756C136.893 116.385 139.018 113.758 140.536 112.615C139.587 111.854 137.918 107.361 138.828 95.4814C139.967 80.6319 147.935 71.4938 149.643 69.7804C151.35 68.067 147.935 52.0752 152.489 46.3639C157.042 40.6525 161.026 42.9371 165.58 49.7907C170.133 56.6443 164.441 71.4938 166.718 71.4938C168.995 71.4938 171.272 76.634 173.548 80.6319C175.825 84.6299 178.671 102.906 178.671 111.473Z" stroke="#4B4B78" stroke-linecap="round"/>
<path fill-rule="evenodd" clip-rule="evenodd" d="M140.726 118.259C141.372 129.768 143.024 141.196 145.757 152.399C146.302 154.633 146.598 158.033 147.909 159.983C149.152 161.833 149.851 160.741 150.604 159.257C151.381 157.724 151.891 155.938 152.313 154.275C153.652 149 153.788 143.53 154.352 138.143C154.584 135.922 154.406 130.331 157.432 129.724C160.374 129.133 162.533 134.243 163.362 136.247C165.246 140.802 166.083 145.741 167.109 150.535C167.653 153.074 168.226 155.612 168.995 158.095C169.339 159.206 169.652 161.472 170.849 161.39C172.101 161.305 172.665 158.125 172.975 156.966C174.595 150.885 174.973 144.465 175.699 138.234C176.464 131.673 177.229 125.113 177.993 118.552C178.077 117.834 179.221 117.825 179.136 118.552C178.414 124.748 177.692 130.944 176.97 137.14C176.286 143.003 175.843 148.964 174.658 154.753C174.332 156.35 173.395 163.793 170.391 163.02C168.978 162.656 168.586 160.512 168.21 159.385C167.22 156.427 166.547 153.374 165.899 150.328C164.717 144.776 163.871 138.541 160.781 133.654C160.459 133.146 159.606 131.755 159.266 131.662C158.771 131.828 158.277 131.993 157.783 132.159C156.682 132.06 156.136 132.458 156.141 133.352C155.442 134.453 155.636 136.785 155.495 138.143C155.183 141.132 155 144.132 154.673 147.118C154.183 151.593 153.621 157.428 150.851 161.185C148.511 164.358 147.031 161.302 146.248 158.768C142.224 145.755 140.344 131.818 139.584 118.259C139.543 117.528 140.686 117.53 140.726 118.259Z" fill="#4B4B78"/>
<path d="M175.726 43.5082C174.208 43.5082 170.375 43.1655 167.188 41.7948C163.204 40.0814 156.943 41.7948 158.65 45.7927" stroke="#4B4B78" stroke-linecap="round"/>
<path fill-rule="evenodd" clip-rule="evenodd" d="M155.333 111.8C155.868 111.126 156.408 110.457 156.972 109.803C157.751 108.898 159.503 107.686 159.395 106.39C159.35 105.85 158.747 104.856 158.574 104.388C158.109 103.127 157.744 101.833 157.442 100.529C156.973 98.5098 156.678 96.4551 156.455 94.3986C156.31 93.0585 156.26 91.7093 156.115 90.3708C156.098 90.2091 155.765 88.3662 155.324 87.5333C152.183 90.8081 153.255 96.1147 152.867 100.192C152.702 101.926 152.236 103.666 152.123 105.393C151.944 108.108 153.643 109.786 155.333 111.8ZM155.652 83.741C155.697 83.2197 155.37 82.7598 155.005 82.3862C154.905 82.4194 154.815 82.4566 154.794 82.4684C154.545 82.6037 154.347 82.8629 154.231 83.1075C154.002 83.5894 154.024 84.2989 154.629 84.5305C155.193 84.7469 155.61 84.229 155.652 83.741ZM151.768 99.1759C152.06 95.2907 151.378 90.8774 153.802 87.5642C153.555 87.4188 153.399 87.1252 153.58 86.8136C153.974 86.1305 153.999 86.1328 154.638 85.6752C154.21 85.6194 153.79 85.4199 153.455 85.071C152.53 84.109 152.876 82.5964 153.816 81.7646C154.133 81.4845 154.543 81.3075 154.952 81.2557C155.105 81.1841 155.286 81.183 155.455 81.2675C155.896 81.3385 156.288 81.5814 156.487 82.0638C156.55 82.2149 156.533 82.3428 156.479 82.4488C156.879 83.1769 156.997 84.007 156.51 84.7859C156.203 85.279 155.727 85.5642 155.217 85.6526C155.274 85.6797 155.328 85.7129 155.375 85.749C157.579 87.4465 157.278 90.4542 157.494 92.8871C157.919 97.6628 158.761 102.347 160.854 106.736C160.968 106.975 160.955 107.221 160.762 107.419C159.014 109.2 157.384 111.047 155.853 113.002C155.57 113.363 155.114 113.359 154.83 113.002C153.572 111.419 151.066 109.358 150.681 107.33C150.514 106.454 150.922 105.419 151.073 104.591C151.4 102.799 151.633 100.99 151.768 99.1759Z" fill="#4B4B78"/>
<path d="M150.112 69.2092C151.44 72.2553 156.146 77.2051 164.342 72.636" stroke="#4B4B78" stroke-linecap="round"/>
<path d="M168.895 74.9205C164.911 77.9666 156.715 82.9164 155.804 78.3473" stroke="#4B4B78" stroke-linecap="round"/>
<path d="M155.804 78.3474C155.425 79.2993 153.797 80.3372 152.389 79.4896C149.543 77.7762 148.595 75.4917 146.697 74.3494" stroke="#4B4B78" stroke-linecap="round"/>
<path d="M176.864 52.6463C176.295 52.456 174.36 51.7325 171.172 50.3618C167.985 48.9911 166.05 50.1714 165.48 50.9329" stroke="#4B4B78" stroke-linecap="round"/>
<path d="M173.449 46.3638C171.551 46.3638 166.96 45.9069 163.773 44.0793C160.585 42.2517 160.547 45.2216 160.927 46.935" stroke="#4B4B78" stroke-linecap="round"/>
<path d="M153.527 42.3659C152.958 43.8889 152.389 46.935 154.666 46.935" stroke="#4B4B78" stroke-linecap="round"/>
<path d="M159.788 39.5103C157.512 40.4621 153.641 43.0513 156.373 45.7927" stroke="#4B4B78" stroke-linecap="round"/>
<path d="M160.927 65.7824C159.978 66.5439 157.626 67.61 155.804 65.7824" stroke="#4B4B78" stroke-linecap="round"/>
<path d="M141.575 112.615C151.061 114.519 171.741 117.07 178.572 112.044" stroke="#4B4B78" stroke-linecap="round"/>
<path d="M168.896 114.9C169.275 115.852 169.806 117.87 168.896 118.327" stroke="#4B4B78" stroke-linecap="round"/>
<path d="M148.405 113.758C147.077 114.329 144.99 116.042 147.266 118.327" stroke="#4B4B78" stroke-linecap="round"/>
<path d="M160.927 118.898C164.114 118.441 161.496 116.042 159.789 114.9C157.057 113.986 155.615 116.423 155.235 117.756C155.804 118.327 157.74 119.355 160.927 118.898Z" stroke="#4B4B78" stroke-linecap="round"/>
<path d="M174.318 77.7762C180.958 79.4896 193.67 84.8583 191.393 92.6257C188.547 102.335 179.44 110.331 181.717 112.615C183.538 114.443 183.614 114.138 183.424 113.758" stroke="#4B4B78" stroke-linecap="round"/>
<path d="M110.484 165.04C106.885 154.101 37.6758 160.482 3.52083 165.04C-3.47601 167.572 0.522282 170.61 10.5184 170.61C45.3399 173.311 114.083 175.978 110.484 165.04Z" fill="#CBD5FC"/>
<path d="M54.3136 167.5C50.7259 167.5 51.8221 140.833 52.8187 127.5C67.1695 133.1 81.0551 128.167 86.204 125L87.2006 142L86.7023 156.5C86.3701 157.5 85.6061 160 85.2075 162C84.7092 164.5 81.7194 168 80.2246 167.5C79.0287 167.1 76.7365 159.333 75.74 155.5L72.7502 142L70.7571 139.5L67.2691 139L65.2759 142L60.293 158C59.7947 161.167 57.9013 167.5 54.3136 167.5Z" fill="white"/>
<path d="M54.5796 126.331C50.8677 122.048 53.894 98.6285 56.678 88.3856C59.5392 86.5232 60.3136 90.3334 71.5258 87.6862C75.4697 86.7551 93.3335 111.431 88.6831 122.839C79.6458 132.849 58.2916 130.614 54.5796 126.331Z" fill="#7E9AF8"/>
<path d="M66.9942 65.179C60.7331 69.4844 55.9068 65.0159 54.2763 62.2435C54.2763 62.2435 53.298 60.7758 51.8305 60.7758C50.3631 60.7758 47.4281 65.179 45.4715 61.265C43.0258 56.3726 48.4065 54.9048 50.3631 53.9263C52.3197 52.9478 60.1461 52.4586 64.5485 53.9263C68.9508 55.3941 74.8207 59.7973 66.9942 65.179Z" fill="#B9FABA"/>
<path d="M93.1015 117.651V102.053C100.216 98.5615 114.77 91.9036 116.069 93.2073C117.368 94.5109 116.611 103.993 116.069 108.572C108.413 112.529 93.1015 119.885 93.1015 117.651Z" stroke="#4B4B78" stroke-linecap="round"/>
<path d="M52.5021 127.028C51.5742 140.686 50.7854 168 55.0541 168C60.39 168 64.1019 137.737 68.2779 138.668C72.4538 139.599 72.9178 141.927 73.6138 144.022C74.3098 146.117 77.5577 169.63 81.7337 167.534C85.9096 165.439 87.5336 156.128 87.3016 144.022C87.116 134.338 86.451 127.106 86.1416 124.7" stroke="#4B4B78" stroke-linecap="round"/>
<path d="M57.838 130.287C58.07 132.615 57.7916 137.551 54.8221 138.668" stroke="#4B4B78" stroke-linecap="round"/>
<path d="M59.2298 70.6923C59.4618 69.7612 60.3434 68.1782 62.0138 69.2956" stroke="#4B4B78" stroke-linecap="round"/>
<path d="M66.1898 69.0627C66.9631 68.2092 68.5561 67.1538 68.7417 69.7611" stroke="#4B4B78" stroke-linecap="round"/>
<path d="M62.7098 80.7024C63.4058 81.4784 65.2153 82.7975 66.8857 81.8664" stroke="#4B4B78" stroke-linecap="round"/>
<path d="M63.4059 87.4535C64.3339 87.8414 66.561 88.1984 68.0458 86.5223" stroke="#4B4B78" stroke-linecap="round"/>
<path d="M63.87 96.998L65.03 99.7915C64.4113 100.878 62.5708 102.911 60.158 102.352" stroke="#4B4B78" stroke-linecap="round"/>
<path d="M58.5341 87.2206C53.8941 77.9089 47.3982 58.7733 58.5341 56.7247C72.4539 54.164 73.1498 73.253 71.0618 86.0567" stroke="#4B4B78" stroke-linecap="round"/>
<path d="M71.0617 86.2894C79.1815 94.282 93.7973 112.735 87.3014 122.605C80.8055 132.476 61.3951 129.667 52.5019 127.028C52.3472 113.526 53.3371 86.6619 58.5338 87.2206" stroke="#4B4B78" stroke-linecap="round"/>
<path d="M77.3259 93.2733C82.1205 94.7476 92.8697 97.417 97.5096 96.2996C102.15 95.1822 105.165 92.4197 106.093 91.1781C106.325 90.4798 107.253 89.1296 109.109 89.3158" stroke="#4B4B78" stroke-linecap="round"/>
<path d="M64.102 101.421C68.2779 107.086 81.2698 121.209 95.8856 109.569" stroke="#4B4B78" stroke-linecap="round"/>
<path fill-rule="evenodd" clip-rule="evenodd" d="M202.943 60.6991C202.943 60.6991 207.193 61.7497 209.056 61.3127C210.918 60.8758 213.887 59.8593 213.887 59.8593C213.887 59.8593 224.168 66.3934 232.535 68.1541C240.901 69.9148 247.591 68.3931 249.959 65.0949C252.326 61.7962 260.665 49.959 251.806 36.2991C242.948 22.6404 228.566 15.4602 220.684 13.5163C212.802 11.5724 205.327 11.9198 198.957 19.8145C192.586 27.7093 195.275 36.1502 196.025 38.8208C196.775 41.4914 208.836 54.6018 208.836 54.6018L202.943 60.6991Z" fill="#C8D5FF" fill-opacity="0.5"/>
<path fill-rule="evenodd" clip-rule="evenodd" d="M208.572 54.3056C207.514 55.1188 207.097 56.1458 206.298 57.2135C205.291 58.5564 204.018 59.5006 202.513 60.1734C201.801 60.4902 201.888 61.4481 202.6 61.6129C204.592 62.072 206.613 62.5197 208.697 62.4352C209.679 62.3953 210.649 62.2117 211.597 61.9061C212.369 61.6581 213.956 60.6255 214.707 60.7481C214.533 60.4032 214.36 60.0577 214.187 59.7133L214.149 59.776C214.478 59.6435 214.808 59.5115 215.137 59.3794C215.122 59.3706 215.108 59.3627 215.093 59.3539C214.286 58.8912 213.64 60.2723 214.443 60.7332C214.457 60.7416 214.473 60.7499 214.487 60.7583C214.852 60.9681 215.278 60.6834 215.475 60.3622L215.515 60.2994C215.78 59.8648 215.415 59.3334 214.994 59.2647C214.269 59.147 213.465 59.6144 212.788 59.8795C211.674 60.3145 210.601 60.7433 209.417 60.8823C207.194 61.1415 205.004 60.6185 202.887 60.1295L202.974 61.569C204.205 61.0191 205.318 60.3352 206.305 59.3824C207.464 58.2623 208.12 56.4822 209.379 55.5158C210.156 54.9192 209.35 53.7077 208.572 54.3056Z" fill="#4B4B78"/>
<path fill-rule="evenodd" clip-rule="evenodd" d="M208.93 53.3473C202.453 47.5607 194.224 37.3577 196.162 27.8423C197.254 22.4787 201.349 16.7792 206.248 14.3538C211.432 11.7865 219.947 12.811 225.186 14.8316C242.462 21.4961 263.639 40.8911 252.248 60.8206C244.226 74.8537 224.722 65.2747 214.641 59.0098C213.81 58.4938 213.183 59.8896 214.008 60.4017C223.415 66.2481 239.956 74.7437 250.201 65.9463C258.613 58.7227 258.668 45.3689 253.626 36.3767C243.971 19.1578 209.279 -2.28833 196.5 22.6425C190.551 34.248 199.464 46.9353 207.952 54.5198C208.685 55.1748 209.663 54.0018 208.93 53.3473Z" fill="#4B4B78"/>
<path fill-rule="evenodd" clip-rule="evenodd" d="M221.21 26.0582L243.016 43.7016C243.775 44.3159 244.72 43.189 243.958 42.5722L222.152 24.9288C221.393 24.3145 220.448 25.4419 221.21 26.0582Z" fill="#4B4B78"/>
<path fill-rule="evenodd" clip-rule="evenodd" d="M211.111 25.4559L243.843 52.2376C244.602 52.8582 245.518 51.7646 244.757 51.1421L212.025 24.3604C211.267 23.7398 210.351 24.8338 211.111 25.4559Z" fill="#4B4B78"/>
<path fill-rule="evenodd" clip-rule="evenodd" d="M208.35 30.3714C218.806 39.8253 229.505 48.9962 240.444 57.8811C241.217 58.5092 242.187 57.3511 241.411 56.721C230.473 47.8362 219.773 38.6653 209.317 29.2114C208.577 28.5421 207.61 29.7038 208.35 30.3714Z" fill="#4B4B78"/>
<path fill-rule="evenodd" clip-rule="evenodd" d="M204.35 35.1687C215.064 44.3161 225.778 53.464 236.492 62.612C237.252 63.2613 238.352 61.9456 237.59 61.2954C226.877 52.1473 216.162 42.9995 205.448 33.8521C204.688 33.2028 203.588 34.5185 204.35 35.1687Z" fill="#4B4B78"/>
</svg>
