<svg xmlns="http://www.w3.org/2000/svg" width="24.47" height="17.12" viewBox="0 0 24.47 17.12">
  <metadata><?xpacket begin="﻿" id="W5M0MpCehiHzreSzNTczkc9d"?>
<x:xmpmeta xmlns:x="adobe:ns:meta/" x:xmptk="Adobe XMP Core 5.6-c140 79.160451, 2017/05/06-01:08:21        ">
   <rdf:RDF xmlns:rdf="http://www.w3.org/1999/02/22-rdf-syntax-ns#">
      <rdf:Description rdf:about=""/>
   </rdf:RDF>
</x:xmpmeta>
                                                                                                    
                                                                                                    
                                                                                                    
                                                                                                    
                                                                                                    
                                                                                                    
                                                                                                    
                                                                                                    
                                                                                                    
                                                                                                    
                                                                                                    
                                                                                                    
                                                                                                    
                                                                                                    
                                                                                                    
                                                                                                    
                                                                                                    
                                                                                                    
                                                                                                    
                                                                                                    
                           
<?xpacket end="w"?></metadata>
<defs>
    <style>
      .cls-1 {
        fill: #282828;
        fill-rule: evenodd;
        opacity: 0.5;
      }
    </style>
  </defs>
  <path class="cls-1" d="M2207.63,6433.23l6.35-3.67-6.35-3.67v7.34m14.15-9.58a12.175,12.175,0,0,1,.34,2.32c0.09,0.98.12,1.83,0.12,2.56l0.08,1.03a24.423,24.423,0,0,1-.54,5.91,2.891,2.891,0,0,1-2.12,2.12,16.91,16.91,0,0,1-3.24.34c-1.59.09-3.05,0.12-4.4,0.12l-1.94.08c-5.13,0-8.32-.2-9.58-0.54a2.876,2.876,0,0,1-2.12-2.12,12.43,12.43,0,0,1-.34-2.33c-0.09-.97-0.13-1.82-0.13-2.55l-0.07-1.03a24.423,24.423,0,0,1,.54-5.91,2.876,2.876,0,0,1,2.12-2.12,16.8,16.8,0,0,1,3.24-.34c1.59-.09,3.05-0.12,4.39-0.12l1.95-.08c5.13,0,8.32.2,9.58,0.54A2.891,2.891,0,0,1,2221.78,6423.65Z" transform="translate(-2197.84 -6421)"/>
</svg>
