<svg width="185" height="33" viewBox="0 0 185 33" fill="none" xmlns="http://www.w3.org/2000/svg">
<path d="M27.7454 4.75463C26.2407 3.25 24.5255 2.07639 22.5694 1.26389C20.5532 0.4213 18.4468 0 16.25 0C14.0532 0 11.9167 0.4213 9.93056 1.26389C8.00463 2.07639 6.25926 3.25 4.75463 4.75463C3.25 6.25926 2.07639 7.97454 1.26389 9.93056C0.421295 11.9468 0 14.0532 0 16.25C0 18.4468 0.421295 20.5833 1.26389 22.5694C2.07639 24.4954 3.25 26.2407 4.75463 27.7454C6.25926 29.25 7.97454 30.4236 9.93056 31.2361C11.9468 32.0787 14.0532 32.5 16.25 32.5C18.4468 32.5 20.5833 32.0787 22.5694 31.2361C24.4954 30.4236 26.2407 29.25 27.7454 27.7454C29.25 26.2407 30.4236 24.5255 31.2361 22.5694C32.0787 20.5532 32.5 18.4468 32.5 16.25C32.5 14.0532 32.0787 11.9167 31.2361 9.93056C30.3935 8.00463 29.2199 6.25926 27.7454 4.75463ZM6.46991 6.5C9.08796 3.88195 12.5486 2.4375 16.25 2.4375C19.9514 2.4375 23.412 3.88195 26.0301 6.5C26.6019 7.07176 27.1435 7.7037 27.5949 8.36574L25.2477 9.71991L16.25 4.51389L7.25231 9.71991L4.90509 8.36574C5.35648 7.7037 5.86806 7.07176 6.46991 6.5ZM15.0162 30.0324C11.7662 29.7616 8.78704 28.3472 6.43982 26.0301C3.82176 23.412 2.37732 19.9514 2.37732 16.25C2.37732 14.2037 2.82871 12.2477 3.64121 10.4421L6.01852 11.7963V22.1482L14.9861 27.3241V30.0324H15.0162ZM15.0162 24.5255L8.45602 20.7338V13.1806L15.0162 16.9722V24.5255ZM9.68981 11.0741L16.25 7.28241L22.8102 11.0741L16.25 14.8356L9.68981 11.0741ZM24.0139 13.2107V20.7338L17.4537 24.5255V16.9722L24.0139 13.2107ZM26.0301 26.0602C23.713 28.3773 20.7037 29.7917 17.4537 30.0625V27.3542L26.4213 22.1482V11.8264L28.7986 10.4722C29.6412 12.2778 30.0625 14.2338 30.0625 16.2801C30.0625 19.9514 28.6482 23.4421 26.0301 26.0602Z" fill="black"/>
<path d="M48.9908 10.6829H40.7153L40.2639 12.8796H48.5093L48.9908 10.6829Z" fill="black"/>
<path d="M42.6713 13.6921H40.0833L38.338 21.8472H40.956L41.8889 17.4236H46.1018L46.493 15.5579H42.2801L42.6713 13.6921Z" fill="black"/>
<path d="M59.1018 12.2477C59.1319 12.1273 59.1319 12.0069 59.1319 11.8866C59.1319 11.4653 59.0116 11.1643 58.7708 10.9537C58.5301 10.743 58.1389 10.6528 57.5671 10.6528H52C51.2778 10.6528 50.7662 10.8032 50.4051 11.1342C50.0741 11.4653 49.8333 11.9468 49.6829 12.6088L48.1481 19.8912C48.088 20.1921 48.0579 20.4329 48.0579 20.6435C48.0579 21.0648 48.1782 21.3657 48.419 21.5463C48.6597 21.7569 49.081 21.8472 49.6227 21.8472H55.1898C55.8819 21.8472 56.4236 21.6968 56.7546 21.3657C57.1157 21.0347 57.3565 20.5532 57.4768 19.8912L59.0116 12.6088C59.0717 12.4884 59.1018 12.368 59.1018 12.2477ZM56.3935 13.3611C56.3935 13.3912 56.3935 13.4514 56.3634 13.5116L55.1898 19.0787C55.1597 19.2893 55.0694 19.4097 54.9491 19.5C54.8287 19.5903 54.6481 19.6204 54.3773 19.6204H51.2477C50.9167 19.6204 50.7662 19.5 50.7662 19.2592C50.7662 19.2292 50.7662 19.169 50.7963 19.0486L51.9699 13.4815C52.0301 13.2407 52.0903 13.0602 52.1806 12.9699C52.2708 12.8796 52.4213 12.8495 52.662 12.8495H55.7917C56.1829 12.8495 56.3634 12.9699 56.3634 13.2407C56.3935 13.2708 56.3935 13.3009 56.3935 13.3611Z" fill="black"/>
<path d="M69.544 12.2477C69.5741 12.1273 69.5741 12.037 69.5741 11.9467C69.5741 11.5255 69.4537 11.2245 69.1829 11.0139C68.9421 10.8032 68.5208 10.713 67.9491 10.713H60.8472L60.3958 12.8796H66.3241C66.5046 12.8796 66.6551 12.9097 66.7153 12.9398C66.8056 12.9699 66.8356 13.0602 66.8356 13.2106C66.8356 13.2407 66.8356 13.2708 66.8356 13.331C66.8356 13.3611 66.8356 13.4213 66.8056 13.4815L66.4143 15.287C66.3542 15.5278 66.294 15.6782 66.2037 15.7384C66.1134 15.8287 65.963 15.8588 65.7222 15.8588H62.2917L62.7431 13.6921H60.2454L58.5 21.8472H60.9977L61.8704 17.6944H65.4815C65.7824 17.6944 65.9329 17.7847 65.9329 17.9653C65.9329 17.9954 65.9329 18.0255 65.9329 18.0856C65.9329 18.1157 65.9329 18.1759 65.9028 18.2361L65.1505 21.8773H67.6481L68.4606 17.9954C68.4907 17.9352 68.4907 17.875 68.4907 17.8148C68.4907 17.7546 68.4907 17.6944 68.4907 17.6342C68.4907 17.2731 68.3704 17.0324 68.1296 16.912C67.8889 16.7616 67.588 16.7014 67.2269 16.6713C67.6181 16.6412 67.9491 16.4907 68.2801 16.25C68.6111 16.0092 68.8218 15.618 68.9421 15.0463L69.4537 12.6088C69.5139 12.4583 69.544 12.338 69.544 12.2477Z" fill="black"/>
<path d="M72.2222 19.5C72.1319 19.4398 72.1018 19.3495 72.1018 19.2292C72.1018 19.1991 72.1018 19.1389 72.1018 19.1088C72.1018 19.0787 72.1018 19.0185 72.1319 18.9583L73.3055 13.5116C73.3657 13.2708 73.4259 13.0903 73.5162 13C73.6065 12.9097 73.787 12.8796 74.0578 12.8796H79.1134L79.5648 10.6528H73.2754C72.5833 10.6528 72.0416 10.8032 71.7106 11.1342C71.3495 11.4653 71.1088 11.9468 70.9884 12.6088L69.4537 19.8912C69.4236 20.0417 69.3935 20.162 69.3935 20.2824C69.3935 20.4028 69.3634 20.5231 69.3634 20.6134C69.3634 21.0347 69.4838 21.3356 69.7245 21.5463C69.9652 21.7569 70.3565 21.8472 70.9282 21.8472H77.2477L77.7291 19.5903H72.6435C72.4328 19.5903 72.2824 19.5602 72.2222 19.5Z" fill="black"/>
<path d="M81.9421 17.2732H86.0347L86.4259 15.4977H82.3032L82.7245 13.6921H80.1064L78.3912 21.8472H86.6666L87.1481 19.6204H81.4305L81.9421 17.2732Z" fill="black"/>
<path d="M80.287 12.8495H88.5625L89.044 10.6829H80.7384L80.287 12.8495Z" fill="black"/>
<path d="M95.5139 19.5C95.4236 19.4398 95.3935 19.3495 95.3935 19.2292C95.3935 19.1991 95.3935 19.1389 95.3935 19.1088C95.3935 19.0787 95.3935 19.0185 95.4236 18.9583L96.5972 13.5116C96.6574 13.2708 96.7176 13.0903 96.8079 13C96.8982 12.9097 97.0787 12.8796 97.3495 12.8796H102.405L102.856 10.6528H96.5671C95.875 10.6528 95.3333 10.8032 95.0023 11.1342C94.6412 11.4653 94.4005 11.9468 94.2801 12.6088L92.7454 19.8912C92.7153 20.0417 92.6852 20.162 92.6852 20.2824C92.6852 20.4028 92.6551 20.5231 92.6551 20.6134C92.6551 21.0347 92.7755 21.3356 93.0162 21.5463C93.2569 21.7569 93.6481 21.8472 94.2199 21.8472H100.539L101.021 19.5903H95.9352C95.7245 19.5903 95.5741 19.5602 95.5139 19.5Z" fill="black"/>
<path d="M113.028 12.2477C113.058 12.1273 113.058 12.0069 113.058 11.8866C113.058 11.4653 112.937 11.1643 112.697 10.9537C112.456 10.743 112.065 10.6528 111.493 10.6528H105.926C105.204 10.6528 104.692 10.8032 104.331 11.1342C104 11.4653 103.759 11.9468 103.609 12.6088L102.074 19.8912C102.014 20.1921 101.984 20.4329 101.984 20.6435C101.984 21.0648 102.104 21.3657 102.345 21.5463C102.586 21.7569 103.007 21.8472 103.549 21.8472H109.116C109.808 21.8472 110.35 21.6968 110.681 21.3657C111.042 21.0347 111.282 20.5532 111.403 19.8912L112.937 12.6088C112.998 12.4884 113.028 12.368 113.028 12.2477ZM110.319 13.3611C110.319 13.3912 110.319 13.4514 110.289 13.5116L109.116 19.0787C109.086 19.2893 108.995 19.4097 108.875 19.5C108.755 19.5903 108.574 19.6204 108.303 19.6204H105.174C104.843 19.6204 104.692 19.5 104.692 19.2592C104.692 19.2292 104.692 19.169 104.722 19.0486L105.896 13.4815C105.956 13.2407 106.016 13.0602 106.106 12.9699C106.197 12.8796 106.347 12.8495 106.588 12.8495H109.718C110.109 12.8495 110.289 12.9699 110.289 13.2407C110.319 13.2708 110.319 13.3009 110.319 13.3611Z" fill="black"/>
<path d="M123.741 10.6829L118.926 18.4468L117.481 10.6829H114.773L112.396 21.8472H114.472L115.917 15.0764L117.241 21.8472H119.227L123.35 15.0764L121.935 21.8472H123.981L126.359 10.6829H123.741Z" fill="black"/>
<path d="M136.771 10.6829L131.956 18.4468L130.512 10.6829H127.803L125.426 21.8472H127.532L128.947 15.0764L130.301 21.8472H132.257L136.41 15.0764L134.965 21.8472H137.012L139.389 10.6829H136.771Z" fill="black"/>
<path d="M147.815 10.6829L146.039 19.0486C145.979 19.2893 145.919 19.4699 145.799 19.5301C145.708 19.5903 145.528 19.6505 145.317 19.6505H142.007C141.826 19.6505 141.706 19.6204 141.616 19.5903C141.525 19.5602 141.495 19.4699 141.495 19.3495C141.495 19.2893 141.525 19.1991 141.556 19.0486L143.331 10.6829H140.833L138.877 19.9213C138.847 20.0417 138.817 20.1921 138.817 20.3125C138.817 20.4329 138.787 20.5532 138.787 20.6736C138.787 21.0949 138.907 21.3958 139.148 21.6065C139.389 21.8171 139.81 21.9074 140.382 21.9074H145.949C146.641 21.9074 147.183 21.7569 147.514 21.4259C147.875 21.0949 148.116 20.6134 148.236 19.9514L150.192 10.713H147.815V10.6829Z" fill="black"/>
<path d="M159.1 10.6829L157.685 17.3634L154.014 10.6829H151.667L149.289 21.8472H151.637L153.171 14.5347L157.414 21.8472H159.069L161.447 10.6829H159.1Z" fill="black"/>
<path d="M160.634 21.8472H163.162L165.509 10.6829H163.012L160.634 21.8472Z" fill="black"/>
<path d="M166.111 12.8796H168.819L166.924 21.8472H169.451L171.347 12.8796H174.056L174.507 10.6829H166.593L166.111 12.8796Z" fill="black"/>
<path d="M182.09 10.6829L178.84 15.0764L177.486 10.6829H174.838L177.065 17.243L176.102 21.8472H178.6L179.593 17.243L184.588 10.6829H182.09Z" fill="black"/>
</svg>
