<svg width="793" height="248" viewBox="0 0 793 248" fill="none" xmlns="http://www.w3.org/2000/svg">
<path d="M204.12 61.6124L140.447 27.8563C132.628 23.7022 123.308 23.7022 115.488 27.8213L51.1524 61.7172C41.4479 67.5468 32.3718 74.4237 31.9878 94.461V110.623H57.0169V88.5266L127.985 50.6862L198.43 88.5266V110.623H223.459V94.461C223.04 74.319 213.894 67.477 204.12 61.6124Z" fill="#356DF3"/>
<path d="M198.395 160.961L140.482 193.39V167.209C160.834 162.427 174.239 145.845 174.239 123.679C174.239 96.7995 155.667 78.752 127.985 78.752C100.303 78.752 81.7319 96.7995 81.7319 123.679C81.7319 145.88 95.1017 162.427 115.488 167.209V193.425L57.0518 160.961V136.804H31.9878V152.932C32.4067 172.934 41.4479 179.846 51.1524 185.676L115.488 219.571C123.308 223.691 132.663 223.691 140.447 219.537L204.085 185.78C213.859 179.951 223.04 173.074 223.424 152.932V136.804H198.395V160.961V160.961ZM104.981 123.679C104.981 108.947 113.149 100.849 127.985 100.849C142.821 100.849 150.99 108.947 150.99 123.679C150.99 137.956 142.402 146.509 127.985 146.509C113.568 146.509 104.981 137.991 104.981 123.679Z" fill="#356DF3"/>
<path d="M661.207 69.3273H626.333L581.511 115.266V46.6719H552.747V185.571H581.511V150.803L596.312 135.653L635.34 185.571H667.63L614.255 117.326L661.207 69.3273Z" fill="#356DF3"/>
<path d="M755.006 66.2891C727.393 66.2891 712.767 77.5993 707.321 83.045V69.2214H678.103V69.2912V185.57H707.321V92.2258L760.416 92.0164L760.312 66.2891C758.671 66.2891 756.891 66.2891 755.006 66.2891Z" fill="#356DF3"/>
<path d="M488.097 66.2559C466.035 66.2559 452.177 80.5333 451.164 81.6504V69.2231H421.946V69.258V185.572H451.164V89.6443C453.922 89.6443 470.329 89.6443 472.877 89.6443C473.994 89.6443 475.077 89.6792 476.124 89.7141C483.42 89.9585 488.97 91.1454 493.089 93.3097C494.451 94.0777 495.707 94.9504 496.859 95.8929C503.038 101.408 504.679 110.799 504.679 124.797C504.679 135.549 504.679 185.607 504.679 185.607H533.443V116.105C533.408 87.3055 520.213 66.2559 488.097 66.2559Z" fill="#356DF3"/>
<path d="M372.203 85.1404C368.607 80.0787 364.383 76.0992 359.426 73.0971C350.804 68.6638 341.03 66.1504 330.662 66.1504C296.208 66.1504 268.246 93.6929 268.246 127.624C268.246 153.246 284.164 175.203 306.785 184.419C314.15 187.421 322.214 189.097 330.662 189.097C335.968 189.097 341.134 188.434 346.056 187.212C346.196 187.177 346.336 187.142 346.475 187.107C346.999 186.968 347.488 186.828 347.976 186.688C350.141 186.025 352.2 185.292 354.12 184.419C362.742 180.614 368.851 174.889 372.203 168.431V185.536H401.421V69.1874H372.203V85.1404ZM335.724 165.15C312.963 165.15 298.232 149.79 298.232 127.659C298.232 104.165 312.545 90.1672 335.724 90.1672C356.145 90.1672 373.215 103.746 373.215 127.659C373.215 151.082 355.551 165.15 335.724 165.15Z" fill="#356DF3"/>
</svg>
